<svg width="140" height="60" fill="none" xmlns="http://www.w3.org/2000/svg"><g clip-path="url(#clip0_321_21218)"><path d="M46.08 25.042a.7.7 0 01.505.187c.109.112.217.3.29.561l5.28 14.139c0 .037.035.112.035.15a.607.607 0 01-.18.41.572.572 0 01-.398.188h-1.555c-.29 0-.506-.075-.615-.187-.108-.112-.18-.262-.253-.374l-.94-2.469h-6.763l-.94 2.469c-.036.112-.108.224-.253.374-.108.112-.325.187-.614.187h-1.556a.572.572 0 01-.397-.187.61.61 0 01-.181-.412c0-.075 0-.112.036-.15l5.28-14.138c.072-.262.18-.449.289-.561a.702.702 0 01.506-.187h2.423zm1.192 9.8l-2.386-6.359-2.387 6.359h4.773zm15.875 3.067c.144 0 .289.075.398.187a.61.61 0 01.18.411v1.571c0 .15-.072.3-.18.412a.572.572 0 01-.398.187h-9.475a.572.572 0 01-.397-.187.61.61 0 01-.181-.412V25.64a.61.61 0 01.18-.411.572.572 0 01.398-.187h1.736c.145 0 .29.075.398.187a.61.61 0 01.18.411v12.27h7.16zm.795-7.069c.036-.898.181-1.721.47-2.432a5.279 5.279 0 011.266-1.907c.543-.524 1.23-.935 2.025-1.235.796-.299 1.736-.448 2.785-.448 1.265 0 2.278.15 3.11.486A6.597 6.597 0 0175.55 26.5c.47.486.832.972 1.013 1.458.18.487.29.936.325 1.272 0 .187-.036.337-.144.449-.109.112-.254.15-.434.15h-1.736c-.145 0-.29-.038-.362-.113-.108-.074-.144-.15-.217-.261-.036-.075-.108-.188-.217-.374-.108-.188-.325-.412-.578-.636-.253-.225-.615-.412-1.049-.599-.434-.187-.976-.262-1.627-.262-1.085 0-1.953.3-2.604.898-.65.599-1.012 1.421-1.049 2.431-.036.561-.036 1.16-.036 1.833 0 .636 0 1.272.037 1.833.036 1.234.397 2.132 1.048 2.693.651.561 1.519.823 2.604.823.542 0 1.012-.075 1.483-.187.433-.112.831-.3 1.157-.599.325-.261.578-.635.759-1.047.18-.449.253-.972.253-1.608v-.187h-2.64a.572.572 0 01-.397-.187.61.61 0 01-.181-.412V32.3c0-.15.072-.3.18-.412a.572.572 0 01.398-.187h4.99c.145 0 .29.075.398.187a.61.61 0 01.181.411v2.469a7.64 7.64 0 01-.398 2.469 5.681 5.681 0 01-1.229 1.945c-.542.56-1.23.972-2.061 1.271-.832.3-1.772.45-2.893.45-1.085 0-2.061-.15-2.857-.45-.796-.299-1.483-.71-2.025-1.234-.542-.524-.94-1.197-1.23-1.945-.289-.748-.434-1.57-.47-2.469 0-.299-.036-.598-.036-.935v-2.094c.036-.337.036-.674.036-.935zm24.844 7.069c.144 0 .288.075.397.187.109.112.18.262.18.411v1.571c0 .15-.071.3-.18.412a.572.572 0 01-.397.187H79.31a.573.573 0 01-.398-.187.609.609 0 01-.18-.412V25.64c0-.15.071-.299.18-.411a.573.573 0 01.398-.187h9.33a.57.57 0 01.397.187c.11.112.181.262.181.411v1.571c0 .15-.072.3-.18.412a.57.57 0 01-.398.187h-6.98v3.553h6.51a.57.57 0 01.397.187.608.608 0 01.181.412v1.57c0 .15-.072.3-.18.412a.572.572 0 01-.398.187h-6.51v3.703h7.125v.075zm2.783 2.768a.573.573 0 01-.398-.187.612.612 0 01-.18-.412V25.64a.61.61 0 01.18-.411.573.573 0 01.398-.187h6.365c.94 0 1.7.15 2.313.449.615.299 1.122.673 1.483 1.085.362.448.651.935.796 1.42.18.524.253 1.01.253 1.46 0 .448-.073.86-.181 1.197a3.387 3.387 0 01-.434.897c-.18.262-.325.45-.506.599-.181.15-.289.261-.398.336.434.3.868.748 1.23 1.347.361.56.579 1.309.579 2.17 0 .56-.109 1.121-.29 1.682a4.844 4.844 0 01-.904 1.497 4.277 4.277 0 01-1.446 1.084 4.913 4.913 0 01-2.025.412h-6.835zm8.317-11.11c0-.56-.18-1.01-.506-1.27-.362-.3-.904-.45-1.628-.45H93.92v3.441h3.832c.76 0 1.302-.15 1.628-.448.325-.3.506-.711.506-1.272zM93.92 37.91h4.014c.795 0 1.373-.187 1.735-.524.362-.336.542-.823.542-1.384 0-.56-.18-1.047-.578-1.384-.398-.374-.94-.523-1.736-.523h-4.014v3.815h.037zm16.959-12.868c1.808 0 3.182.449 4.123 1.309.94.86 1.41 2.057 1.41 3.59 0 1.086-.253 2.02-.723 2.769-.47.785-1.194 1.346-2.134 1.72l3.002 5.536a.714.714 0 01.072.262c0 .15-.036.262-.144.337a.438.438 0 01-.326.15h-1.844c-.29 0-.507-.076-.651-.225-.145-.15-.217-.262-.289-.374l-2.821-5.2h-2.893v5.2c0 .15-.072.299-.181.411a.573.573 0 01-.398.187h-1.736a.571.571 0 01-.397-.187.608.608 0 01-.181-.411V25.64c0-.15.072-.299.181-.411a.571.571 0 01.397-.187h5.533zm-3.218 7.032h3.146c.832 0 1.483-.15 1.953-.449.506-.3.723-.86.723-1.683 0-.823-.253-1.384-.723-1.683-.507-.3-1.158-.412-1.953-.412h-3.146v4.227zm18.117-7.032c.217 0 .398.075.507.187.108.112.216.3.289.561l5.28 14.139c0 .037.036.112.036.15a.603.603 0 01-.181.41.573.573 0 01-.398.188h-1.555c-.29 0-.506-.075-.615-.187-.108-.112-.181-.262-.253-.374l-.94-2.469h-6.762l-.941 2.469c-.036.112-.108.224-.252.374-.109.112-.326.187-.615.187h-1.555a.573.573 0 01-.398-.187.608.608 0 01-.181-.412c0-.075 0-.112.036-.15l5.28-14.138c.073-.262.181-.449.289-.561a.704.704 0 01.506-.187h2.423zm1.193 9.8l-2.386-6.359-2.387 6.359h4.773z" fill="#303030"/><path d="M20.223 19.618v16.42L8 43.334l12.223-23.715z" fill="#B41870"/><path d="M20.945 19.618v16.42l12.223 7.295-12.223-23.715z" fill="#00CAB2"/><path d="M20.549 36.75L8.47 43.967h24.192L20.549 36.75z" fill="#5D32ED"/></g><defs><clipPath id="clip0_321_21218"><path fill="#fff" transform="translate(8 17)" d="M0 0h123.926v26.968H0z"/></clipPath></defs></svg>