<svg width="140" height="60" fill="none" xmlns="http://www.w3.org/2000/svg"><g clip-path="url(#clip0_321_21215)"><path d="M120.737 16h-53.2a2.493 2.493 0 00-2.494 2.493V41.76a2.493 2.493 0 002.494 2.493h53.2a2.494 2.494 0 002.494-2.493V18.493A2.494 2.494 0 00120.737 16z" fill="#F9D12A"/><path fill-rule="evenodd" clip-rule="evenodd" d="M20.987 36.774h-.83v1.662h-2.495v-1.662h-1.037v-14.12h1.037v-1.668h2.494v1.668h.831v-1.668h2.494v1.761c.148.022.296.047.446.077.547.104 1.073.3 1.556.578.465.273.844.642 1.137 1.107.293.465.439 1.057.439 1.775 0 .784-.213 1.433-.639 1.944-.425.512-.984.881-1.675 1.107v.04c.399.067.774.19 1.127.369.344.173.655.406.918.688.259.28.465.605.618.977.153.373.23.791.23 1.257 0 .77-.154 1.419-.46 1.944a3.64 3.64 0 01-1.216 1.267 5.329 5.329 0 01-1.726.688c-.25.054-.5.097-.755.13v1.74h-2.494v-1.661zm2.78-10.031c0-.479-.183-.828-.549-1.047-.365-.22-.907-.33-1.625-.33h-1.676v2.912h1.835c.639 0 1.134-.13 1.486-.389.353-.259.53-.641.53-1.146zm.459 5.604c0-.585-.22-.99-.658-1.217-.44-.226-1.024-.339-1.756-.339h-1.895v3.23h1.915c.266 0 .542-.023.828-.069.286-.046.545-.13.778-.25.233-.119.422-.288.569-.508.146-.22.219-.502.219-.847zm5.666 4.427v-14.12h9.496v2.892h-6.204v2.652h5.865v2.733h-5.865v2.931h6.563v2.912h-9.855zm19.57-10.45a3.08 3.08 0 00-1.146-.888c-.473-.219-.928-.329-1.367-.329-.226 0-.455.02-.688.06-.233.04-.442.116-.629.23a1.553 1.553 0 00-.468.438c-.127.18-.19.409-.19.688 0 .24.05.439.15.599.1.16.246.299.439.418.192.12.422.23.688.33.266.1.565.202.898.308.478.16.977.336 1.496.529s.99.449 1.416.768c.426.319.778.714 1.058 1.186.279.472.419 1.06.419 1.765 0 .811-.15 1.513-.45 2.104a4.197 4.197 0 01-1.206 1.466 5.173 5.173 0 01-1.736.858 7.3 7.3 0 01-2.015.279 8.321 8.321 0 01-2.932-.529c-.945-.352-1.73-.854-2.355-1.505l2.235-2.274c.346.426.801.781 1.366 1.067.566.286 1.127.429 1.686.429.253 0 .499-.027.738-.08.24-.053.45-.14.629-.26.18-.119.322-.278.429-.478.106-.2.16-.438.16-.718 0-.266-.067-.492-.2-.678a1.95 1.95 0 00-.569-.508 4.586 4.586 0 00-.917-.42 47.082 47.082 0 00-1.247-.408c-.453-.146-.896-.32-1.327-.518a4.441 4.441 0 01-1.157-.768 3.557 3.557 0 01-.818-1.137c-.206-.445-.31-.987-.31-1.625 0-.785.16-1.456.48-2.015a4.17 4.17 0 011.256-1.376 5.402 5.402 0 011.756-.787 7.962 7.962 0 011.975-.25c.798 0 1.613.147 2.444.44a6.28 6.28 0 012.184 1.295l-2.174 2.294zm10.115-.758v11.208h-3.411V25.566h-3.99v-2.912h11.392v2.912h-3.99zm22.881 11.15l5.9-14.062h3.311l5.866 14.12h-3.79l-1.098-2.772h-5.466l-1.038 2.772h-7.64L75.45 31.17h-1.157v5.604h-3.352v-14.12h5.387c.678 0 1.34.07 1.985.21a5.16 5.16 0 011.736.708c.512.332.92.77 1.226 1.316.306.545.46 1.223.46 2.034 0 .957-.26 1.762-.779 2.413-.518.652-1.237 1.117-2.154 1.396l3.655 5.985zm-4.095-9.734c0-.332-.07-.602-.21-.808a1.435 1.435 0 00-.538-.478 2.34 2.34 0 00-.739-.23 5.454 5.454 0 00-.788-.06h-1.815v3.291h1.616c.28 0 .565-.023.858-.07a2.71 2.71 0 00.798-.25c.24-.119.436-.292.588-.518.153-.226.23-.518.23-.877zm11.59-.558l-1.795 4.846h3.551l-1.755-4.846zm13.607-.858v11.208h-3.412V25.566h-3.99v-2.912h11.392v2.912h-3.99zm5.546 11.208v-14.12h9.496v2.892h-6.204v2.652h5.865v2.733h-5.865v2.931h6.563v2.912h-9.855z" fill="#101934"/></g><defs><clipPath id="clip0_321_21215"><path fill="#fff" transform="translate(16 16)" d="M0 0h107.232v28.253H0z"/></clipPath></defs></svg>