<svg width="140" height="60" fill="none" xmlns="http://www.w3.org/2000/svg"><path d="M64.055 46.703V27.772l3.875-.468.601 2.972c1.27-2.037 3.107-3.072 5.546-3.072.501 0 .936.033 1.236.067l-.067 3.873c-.467-.067-.968-.1-1.47-.1-1.703 0-2.973.467-3.808 1.369-.835.901-1.27 2.17-1.27 3.773v10.517h-4.643zm20.112.367c-2.873 0-5.145-.5-6.882-1.468l.468-3.473c.768.434 1.77.802 2.973 1.135 1.203.334 2.305.501 3.274.501 1.036 0 1.838-.2 2.406-.567.568-.368.868-.935.868-1.703 0-.668-.267-1.202-.802-1.603-.534-.4-1.57-.868-3.073-1.436-.535-.2-.869-.3-1.002-.367-1.804-.701-3.074-1.47-3.876-2.337-.802-.868-1.169-2.004-1.169-3.473 0-1.77.635-3.105 1.904-4.073 1.27-.935 3.074-1.403 5.346-1.403 2.472 0 4.643.468 6.514 1.403L89.98 31.41c-1.837-.868-3.608-1.302-5.278-1.302-.936 0-1.67.167-2.172.467-.534.3-.802.802-.802 1.436 0 .601.268 1.069.769 1.402.501.334 1.503.768 2.973 1.303.034 0 .2.066.468.167.267.1.468.166.601.233 1.77.635 3.074 1.436 3.91 2.338.834.901 1.269 2.07 1.269 3.506 0 1.936-.669 3.439-1.972 4.507-1.302 1.068-3.173 1.603-5.579 1.603zm20.446-11.419l7.918-8.347h-5.513l-7.884 8.114V20.96l-4.644.868v24.875h4.644v-5.242l2.539-2.704 5.78 7.946h5.612l-8.452-11.052z" fill="#303030"/><path d="M37.66 24.533V6.503s-5.845 2.904-5.845 9.081 5.846 8.949 5.846 8.949z" fill="#006E3C"/><path d="M37.662 6.502s5.847 2.905 5.847 9.082c0 6.177-5.847 8.949-5.847 8.949V6.503z" fill="#00B43C"/><path d="M51.259 32.98l8.018-4.54s-2.773-1.87-5.513-.301c-2.739 1.57-2.505 4.841-2.505 4.841z" fill="#006E3C"/><path d="M59.278 28.44s.167 3.338-2.573 4.874c-2.74 1.57-5.445-.334-5.445-.334l8.018-4.54z" fill="#00B43C"/><path d="M59.678 27.705c-.134-.067-3.508-1.87-6.381-.2-2.305 1.335-2.74 3.973-2.84 5.075l-1.069.6c-.534-.5-1.236-.834-2.038-.834-.802 0-1.503.3-2.038.835l-4.81-2.805c.066-.234.1-.468.1-.701 0-1.336-.902-2.471-2.105-2.805v-1.736c1.403-.902 5.88-4.207 5.88-9.45 0-6.076-6.014-9.85-6.28-10.016l-.435-.267-.434.267c-.268.167-6.281 3.94-6.281 10.017 0 5.242 4.476 8.514 5.88 9.449v1.736c-1.236.334-2.105 1.47-2.105 2.805 0 .233.033.467.1.701l-4.844 2.805c-.535-.501-1.236-.835-2.038-.835A2.943 2.943 0 0025 35.284c0 1.336.902 2.471 2.105 2.805v5.81C25.902 44.266 25 45.368 25 46.703a2.943 2.943 0 002.94 2.939c.869 0 1.637-.368 2.171-.969l4.711 2.705c-.067.234-.1.467-.1.701 0 1.603 1.303 2.905 2.94 2.905 1.603 0 2.94-1.302 2.94-2.905a2.57 2.57 0 00-.1-.701l4.71-2.705a2.879 2.879 0 002.172.969 2.943 2.943 0 002.94-2.939c0-1.335-.902-2.47-2.105-2.804v-5.81c1.203-.367 2.105-1.47 2.105-2.805a4.11 4.11 0 00-.067-.668l1.069-.6c.601.3 1.837.767 3.207.767.835 0 1.737-.167 2.606-.667 2.84-1.636 3.007-5.476 3.007-5.61v-.5l-.468-.301zm-11.492 8.58a1.36 1.36 0 01-.802.268c-.167 0-.301-.033-.468-.1a.693.693 0 01-.334-.2 1.36 1.36 0 01-.501-.835v-.368c.066-.467.367-.868.801-1.035.134-.066.301-.1.468-.1.167 0 .368.034.501.1.468.2.802.668.802 1.202 0 .067 0 .134-.033.2-.034.401-.2.669-.434.869zm.467 10.418c0 .735-.601 1.303-1.303 1.303-.234 0-.5-.067-.668-.2-.367-.234-.635-.635-.635-1.103v-.033c0-.134.034-.267.067-.4.067-.234.234-.435.434-.602.167-.133.368-.233.568-.267.067 0 .134-.033.234-.033.3 0 .602.1.802.267.334.267.501.634.501 1.068zM46.548 43.9c-.4.1-.768.3-1.069.567l-4.944-2.871c.033-.2.067-.367.067-.568 0-.267-.034-.567-.134-.801l4.878-2.838c.334.334.735.567 1.202.7v5.81zm-8.886 9.482a1.3 1.3 0 01-1.303-1.102v-.2c0-.534.334-1.002.802-1.202.167-.067.334-.1.5-.1.168 0 .335.033.502.1.468.2.802.668.802 1.202v.2a1.358 1.358 0 01-1.303 1.102zm-2.873-11.786l-4.945 2.871a2.548 2.548 0 00-1.069-.567v-5.81a2.733 2.733 0 001.203-.701l4.877 2.805c-.066.267-.133.534-.133.834 0 .2.033.4.067.568zm-5.513 5.108c0 .468-.234.868-.634 1.102-.2.134-.435.2-.669.2a1.304 1.304 0 01-1.303-1.302c0-.4.2-.8.502-1.035a1.36 1.36 0 01.801-.267.56.56 0 01.234.034c.234.033.401.133.568.267.2.133.334.367.434.6.034.134.067.268.067.401 0-.033 0-.033 0 0zm-2.639-11.419c0-.734.601-1.302 1.303-1.302.167 0 .334.033.468.1.434.167.735.568.801 1.035v.4c-.033.335-.233.635-.5.836-.1.066-.201.133-.335.2-.133.067-.3.1-.467.1-.301 0-.602-.1-.802-.267-.268-.334-.468-.701-.468-1.102zM36.86 28.64a1.36 1.36 0 01.802-.267c.3 0 .601.1.802.267.267.2.434.5.467.834v.2c0 .402-.2.802-.5 1.036a2.994 2.994 0 01-.335.2c-.133.067-.3.1-.468.1a1.06 1.06 0 01-.467-.1.693.693 0 01-.334-.2 1.298 1.298 0 01-.502-1.035v-.2c.1-.334.268-.635.535-.835zm2.105 12.42c0 .401-.2.735-.501.969-.067.033-.134.1-.2.133a1.39 1.39 0 01-.636.167c-.233 0-.434-.066-.601-.167a.696.696 0 01-.2-.133 1.281 1.281 0 01-.502-1.002v-.033c0-.134 0-.234.034-.334.067-.267.234-.5.434-.701.134-.1.3-.2.501-.234.1-.033.2-.033.334-.033s.234 0 .334.033c.167.033.335.134.468.234.2.167.368.4.434.667.034.1.034.234.034.368.067.033.067.067.067.067zm5.545-6.477c-.066.234-.1.468-.1.701 0 .234.034.501.1.735l-4.91 2.838a2.958 2.958 0 00-1.136-.635V32.48a2.733 2.733 0 001.202-.702l4.845 2.805zM32.584 15.718c0-4.307 3.775-7.412 5.078-8.347 1.303.935 5.078 4.04 5.078 8.347 0 3.606-2.673 6.21-4.276 7.446v-6.812a.813.813 0 00-.802-.801.791.791 0 00-.802.801v6.812c-1.637-1.236-4.276-3.84-4.276-7.446zm3.04 16.06c.334.334.768.568 1.203.702v5.742a3.367 3.367 0 00-1.136.602l-4.945-2.839a2.525 2.525 0 000-1.402l4.878-2.805zm-4.778 15.426c.034-.167.034-.334.034-.5 0-.301-.034-.602-.134-.902l4.811-2.771c.334.367.802.634 1.303.8v5.443a3.052 3.052 0 00-1.236.702l-4.778-2.772zm8.854 2.772a2.848 2.848 0 00-1.236-.702v-5.442a2.774 2.774 0 001.303-.801l4.81 2.77c-.1.268-.133.569-.133.902 0 .167 0 .334.033.501L39.7 49.976zM56.27 32.68c-1.069.6-2.272.5-3.207.267l1.604-.935c.4-.234.534-.701.3-1.102-.233-.4-.701-.534-1.102-.3l-1.604.935c.234-.902.769-2.004 1.838-2.638 1.537-.902 3.44-.334 4.31.033-.134.902-.569 2.838-2.139 3.74z" fill="#303030"/></svg>