<svg width="140" height="60" fill="none" xmlns="http://www.w3.org/2000/svg"><mask id="a" style="mask-type:alpha" maskUnits="userSpaceOnUse" x="13" y="11" width="41" height="38"><path fill="#D9D9D9" d="M13 11h40.555v37.242H13z"/></mask><g mask="url(#a)"><path fill-rule="evenodd" clip-rule="evenodd" d="M47.993 22.388l-5.527-3.22-7.435-4.33-1.908-1.111-7.255 4.255-7.254 4.255v4.017c0 2.21-.01 6.065-.023 8.567l-.023 4.55 7.315 4.332c4.024 2.383 7.334 4.328 7.357 4.322.023-.005 3.354-1.909 7.404-4.23l7.363-4.219L48 30.982l-.007-8.594zm-25.726.378c-.001-.018 2.445-1.471 5.434-3.23 2.99-1.759 5.443-3.198 5.45-3.2.02-.002 10.898 6.353 10.947 6.397.035.032-1.12.726-5.405 3.244-2.998 1.76-5.466 3.201-5.485 3.2-.061-.003-10.94-6.377-10.941-6.411zM20.855 38.12c-.035-.027-.044-1.352-.044-6.415 0-6.063.003-6.38.061-6.358.034.013 2.52 1.454 5.525 3.203l5.465 3.18.001 6.373c.001 3.505-.005 6.373-.014 6.373-.022 0-10.937-6.31-10.994-6.356zm13.87-6.19l5.5-3.21a971.854 971.854 0 015.527-3.211c.015-.002.027 2.866.027 6.372v6.375l-5.414 3.17-5.527 3.234-.113.067V31.93zm.507 24.715c-.01 0-.02-1.373-.02-3.05v-3.052h-2.196v12.623h2.232v-.705l.132.12c.745.672 1.9.934 3.047.689 1.396-.298 2.442-1.402 2.739-2.89.073-.372.081-1.297.013-1.677-.172-.971-.67-1.796-1.371-2.272a4.435 4.435 0 00-1.09-.505c-.196-.052-.37-.065-.873-.064-.704 0-.973.043-1.566.25-.404.14-.555.213-.829.399a1.71 1.71 0 01-.218.134zm-15.067-3.992c-.582-.582-1.265-.931-2.233-1.14-.33-.071-.454-.075-2.64-.088L13 51.41v11.756h2.336v-3.731h1.559l1.234 1.865 1.235 1.866h2.701l-.272-.427-1.346-2.098c-.59-.919-1.078-1.688-1.085-1.709-.008-.02.092-.108.22-.194.945-.632 1.528-1.782 1.601-3.151.064-1.182-.293-2.209-1.018-2.934zm25.13.585c-.1-.196-.355-.436-.584-.548a1.356 1.356 0 00-.855-.078c-.337.095-.673.379-.806.68-.104.236-.076.699.056.924.283.484.986.716 1.54.509.28-.105.584-.397.681-.653.093-.246.079-.617-.031-.834zM15.337 57.21v-3.607l1.055.019c1.109.019 1.287.042 1.606.204.21.108.414.337.554.623.192.392.247.65.229 1.063-.02.432-.092.652-.323.994a1.41 1.41 0 01-.774.594c-.224.078-.293.083-1.292.096l-1.055.014zm37.704-.664c-.32-.192-.896-.396-1.334-.471-.657-.114-1.387-.097-1.939.044-1.304.333-2.285 1.284-2.61 2.531-.145.56-.155 1.368-.024 1.988.306 1.438 1.34 2.38 2.917 2.653.52.09 1.323.082 1.796-.017.582-.123 1.266-.408 1.613-.672.055-.042.011-.107-.481-.726a12.83 12.83 0 00-.572-.69c-.016-.006-.105.038-.199.097-.28.179-.602.26-1.023.258-.516-.001-.791-.084-1.176-.352-.713-.498-.948-1.591-.527-2.451a1.96 1.96 0 01.717-.743c.587-.314 1.46-.22 2.124.228l.18.122.51-.675c.28-.37.518-.696.529-.724.022-.059-.112-.166-.501-.4zm-27.005 4.69c-.156-.205-.15-.533-.16-2.699l-.01-2.345h-2.232l.01 2.816c.01 2.806.011 2.817.088 3.045a2.16 2.16 0 001.018 1.18c.403.209.64.262 1.17.26.652-.002 1.092-.114 1.578-.401.262-.155.694-.569.846-.81a.985.985 0 01.143-.195c.011 0 .047.19.08.426.032.235.068.478.079.54l.02.113h2.014v-6.974h-2.228l-.014 1.77c-.016 1.933-.018 1.952-.235 2.515-.122.317-.387.713-.57.853a1.236 1.236 0 01-.766.276c-.354 0-.525-.056-.7-.231-.054-.053-.097-.093-.132-.14zm19.22 1.93v-6.974h-2.231v6.974h2.232zm-9.641-5.003c.245-.245.54-.412.896-.505.314-.083.776-.09 1.058-.017a1.9 1.9 0 011.313 1.23c.107.311.114.934.014 1.227-.292.853-.99 1.392-1.805 1.394-.69.002-1.317-.301-1.683-.813l-.16-.224v-.88c0-1.03.006-1.05.367-1.412z" fill="#45A351"/></g><mask id="b" style="mask-type:alpha" maskUnits="userSpaceOnUse" x="56" y="16" width="71" height="28"><path fill="#D9D9D9" d="M56.492 16.184h69.971V43.66H56.492z"/></mask><g mask="url(#b)"><path fill-rule="evenodd" clip-rule="evenodd" d="M117.179-26.976l-9.226-5.375-12.412-7.229-3.186-1.854-12.11 7.103-12.11 7.103v6.706c0 3.689-.017 10.124-.038 14.301l-.039 7.595 12.213 7.233c6.716 3.978 12.243 7.225 12.28 7.215.038-.01 5.6-3.187 12.361-7.061l12.292-7.044-.013-14.347-.012-14.346zm-42.946.631c-.001-.03 4.081-2.456 9.073-5.392a3138.94 3138.94 0 019.096-5.34c.036-.006 18.194 10.604 18.275 10.677.059.054-1.87 1.211-9.023 5.415-5.004 2.94-9.124 5.344-9.156 5.342-.103-.005-18.262-10.646-18.265-10.702zM71.876-.713c-.058-.046-.073-2.258-.073-10.71 0-10.12.005-10.65.102-10.613.056.021 4.207 2.428 9.224 5.347l9.121 5.309.003 10.638c.002 5.85-.01 10.638-.025 10.638-.036 0-18.256-10.533-18.352-10.609zM95.03-11.048l9.183-5.356c5.05-2.947 9.202-5.36 9.226-5.362.024-.003.044 4.784.044 10.637V-.486l-9.038 5.29-9.226 5.4-.19.111v-21.362zm.847 41.26c-.018 0-.032-2.292-.032-5.093v-5.094h-3.668v21.073h3.726V39.92l.22.2c1.244 1.122 3.174 1.56 5.088 1.15 2.33-.497 4.076-2.34 4.571-4.825.123-.619.136-2.164.023-2.798-.289-1.622-1.12-2.999-2.289-3.793-.466-.316-1.316-.71-1.821-.844-.326-.086-.618-.108-1.455-.107-1.177.002-1.625.073-2.616.419-.673.234-.925.355-1.383.665a2.861 2.861 0 01-.364.225zm-25.152-6.664c-.973-.973-2.112-1.555-3.727-1.904-.552-.119-.759-.126-4.407-.148l-3.827-.022v19.624h3.9v-6.229h2.6l2.062 3.114 2.061 3.114h4.51l-.455-.712c-.25-.393-1.261-1.969-2.246-3.503a205.94 205.94 0 01-1.813-2.852c-.012-.035.154-.181.37-.325 1.575-1.055 2.55-2.974 2.672-5.26.105-1.974-.49-3.687-1.7-4.897zm41.951.976c-.167-.328-.593-.727-.975-.915-.392-.192-1.012-.249-1.427-.131-.562.16-1.124.633-1.347 1.137-.173.393-.126 1.166.094 1.542.473.807 1.646 1.194 2.57.848.468-.175.976-.662 1.138-1.09.155-.41.132-1.03-.053-1.39zm-50.012 6.63v-6.02l1.76.03c1.852.032 2.15.07 2.682.342.351.18.691.561.925 1.039.32.654.412 1.084.38 1.775-.032.72-.151 1.088-.538 1.659-.346.51-.712.792-1.291.992-.375.13-.49.138-2.157.16l-1.761.023zm62.941-1.108c-.534-.32-1.497-.661-2.227-.787-1.097-.189-2.316-.161-3.237.074-2.177.556-3.814 2.144-4.356 4.226-.244.936-.26 2.283-.041 3.318.51 2.4 2.237 3.971 4.87 4.428.867.15 2.208.138 2.998-.028.971-.205 2.114-.68 2.691-1.12.093-.071.02-.18-.803-1.213-.497-.625-.926-1.143-.953-1.153-.027-.01-.177.064-.332.163-.47.298-1.005.433-1.709.431-.861-.002-1.32-.14-1.963-.589-1.191-.83-1.583-2.655-.88-4.091.22-.45.756-1.005 1.197-1.24.98-.524 2.438-.367 3.546.381l.3.203.851-1.126c.468-.62.866-1.163.883-1.209.038-.099-.186-.278-.835-.668zm-45.082 7.828c-.26-.342-.25-.888-.266-4.504l-.017-3.915h-3.726l.017 4.7c.017 4.685.018 4.703.147 5.084a3.607 3.607 0 001.7 1.97c.672.349 1.068.437 1.953.434 1.088-.004 1.822-.19 2.633-.67.437-.26 1.16-.95 1.413-1.352.112-.177.22-.324.238-.325.019-.002.079.318.133.71.054.392.114.798.132.902l.034.19h3.363V29.456H84.56l-.024 2.954c-.026 3.226-.03 3.259-.391 4.198-.205.53-.647 1.19-.954 1.425-.404.308-.822.458-1.278.46-.59.001-.876-.093-1.17-.386-.088-.09-.16-.156-.219-.233zm32.087 3.224V29.456h-3.726v11.642h3.726zm-16.096-8.353c.409-.41.903-.688 1.496-.843.524-.138 1.295-.15 1.766-.03a3.17 3.17 0 012.191 2.055c.18.52.192 1.56.025 2.048-.488 1.425-1.651 2.324-3.013 2.328-1.153.003-2.2-.503-2.81-1.358l-.266-.373V35.1c0-1.717.009-1.752.611-2.356z" fill="#45A351"/></g></svg>