<svg width="24" height="24" viewBox="0 0 24 24" fill="none" xmlns="http://www.w3.org/2000/svg">
    <g clip-path="url(#clip0_484_25911)">
        <path fill-rule="evenodd" clip-rule="evenodd" d="M8.81763 16.2658H6.5494C6.41398 16.2658 6.27856 16.1981 6.21086 16.0627L5.56763 15.1147H9.7994L9.15617 16.0627C9.08846 16.1981 8.95304 16.2658 8.81763 16.2658Z" fill="#303030"/>
        <path fill-rule="evenodd" clip-rule="evenodd" d="M8.81767 18.2969H6.54944C6.31246 18.2969 6.14319 18.1276 6.14319 17.8906V15.8594C6.14319 15.6224 6.31246 15.4531 6.54944 15.4531C6.75256 15.4531 6.95569 15.6224 6.95569 15.8594V15.9609H8.41142V15.8594C8.41142 15.6224 8.61454 15.4531 8.81767 15.4531C9.05465 15.4531 9.22392 15.6224 9.22392 15.8594V17.8906C9.22392 18.1276 9.05465 18.2969 8.81767 18.2969Z" fill="#303030"/>
        <path fill-rule="evenodd" clip-rule="evenodd" d="M17.4504 16.2658H15.1822C15.0468 16.2658 14.9114 16.1981 14.8437 16.0627L14.2004 15.1147H18.4322L17.789 16.0627C17.7213 16.1981 17.5859 16.2658 17.4504 16.2658Z" fill="#303030"/>
        <path fill-rule="evenodd" clip-rule="evenodd" d="M17.4505 18.2969H15.1823C14.9453 18.2969 14.776 18.1276 14.776 17.8906V15.8594C14.776 15.6224 14.9453 15.4531 15.1823 15.4531C15.3854 15.4531 15.5546 15.6224 15.5885 15.8255H17.0442C17.0781 15.6224 17.2474 15.4531 17.4505 15.4531C17.6875 15.4531 17.8567 15.6224 17.8567 15.8594V17.8906C17.8567 18.1276 17.6875 18.2969 17.4505 18.2969Z" fill="#303030"/>
        <path fill-rule="evenodd" clip-rule="evenodd" d="M19.9219 14.7085H4.0781C3.67185 14.7085 3.33331 14.37 3.33331 13.9637V13.2528C3.33331 12.8127 3.67185 12.4741 4.0781 12.4741H19.9219C20.3281 12.4741 20.6666 12.8127 20.6666 13.2528V13.9637C20.6666 14.37 20.3281 14.7085 19.9219 14.7085Z" fill="#303030"/>
        <path fill-rule="evenodd" clip-rule="evenodd" d="M17.5182 12.0677L16.1641 7.86979H7.83594L6.48177 12.0677H4.17969L5.8724 6.85417C6.10937 6.10937 6.65104 5.70312 7.32812 5.70312H16.6719C17.349 5.70312 17.8906 6.10937 18.1276 6.85417L19.8203 12.0677H17.5182Z" fill="#303030"/>
        <path fill-rule="evenodd" clip-rule="evenodd" d="M8.98693 12.0676L7.80204 7.56496C7.73433 7.36183 7.86975 7.12485 8.07287 7.05714C8.30985 7.02329 9.86714 6.98944 9.9687 7.36183L11.2552 12.0676H8.98693Z" fill="#303030"/>
        <path fill-rule="evenodd" clip-rule="evenodd" d="M12.7448 12.0679L14.0312 7.36221C14.0651 7.12523 16.2656 7.36221 16.1979 7.56534L15.013 12.0679H12.7448Z" fill="#303030"/>
    </g>
    <defs>
        <clipPath id="clip0_484_25911">
            <rect width="17.3333" height="17.3333" fill="white" transform="translate(3.33331 3.3335)"/>
        </clipPath>
    </defs>
</svg>
