<svg width="40" height="40" viewBox="0 0 40 40" fill="none" xmlns="http://www.w3.org/2000/svg">
    <g clip-path="url(#clip0_511_22643)">
        <path fill-rule="evenodd" clip-rule="evenodd" d="M16.8177 24.2655H14.5495C14.4141 24.2655 14.2787 24.1978 14.211 24.0624L13.5677 23.1145H17.7995L17.1563 24.0624C17.0886 24.1978 16.9532 24.2655 16.8177 24.2655Z" fill="#386CF6"/>
        <path fill-rule="evenodd" clip-rule="evenodd" d="M16.8178 26.2969H14.5496C14.3126 26.2969 14.1433 26.1276 14.1433 25.8906V23.8594C14.1433 23.6224 14.3126 23.4531 14.5496 23.4531C14.7527 23.4531 14.9558 23.6224 14.9558 23.8594V23.9609H16.4115V23.8594C16.4115 23.6224 16.6147 23.4531 16.8178 23.4531C17.0548 23.4531 17.224 23.6224 17.224 23.8594V25.8906C17.224 26.1276 17.0548 26.2969 16.8178 26.2969Z" fill="#386CF6"/>
        <path fill-rule="evenodd" clip-rule="evenodd" d="M25.4506 24.2655H23.1823C23.0469 24.2655 22.9115 24.1978 22.8438 24.0624L22.2006 23.1145H26.4323L25.7891 24.0624C25.7214 24.1978 25.586 24.2655 25.4506 24.2655Z" fill="#386CF6"/>
        <path fill-rule="evenodd" clip-rule="evenodd" d="M25.4506 26.2969H23.1824C22.9454 26.2969 22.7761 26.1276 22.7761 25.8906V23.8594C22.7761 23.6224 22.9454 23.4531 23.1824 23.4531C23.3855 23.4531 23.5548 23.6224 23.5886 23.8255H25.0444C25.0782 23.6224 25.2475 23.4531 25.4506 23.4531C25.6876 23.4531 25.8569 23.6224 25.8569 23.8594V25.8906C25.8569 26.1276 25.6876 26.2969 25.4506 26.2969Z" fill="#386CF6"/>
        <path fill-rule="evenodd" clip-rule="evenodd" d="M27.9219 22.7083H12.0782C11.6719 22.7083 11.3334 22.3697 11.3334 21.9635V21.2525C11.3334 20.8124 11.6719 20.4739 12.0782 20.4739H27.9219C28.3282 20.4739 28.6667 20.8124 28.6667 21.2525V21.9635C28.6667 22.3697 28.3282 22.7083 27.9219 22.7083Z" fill="#386CF6"/>
        <path fill-rule="evenodd" clip-rule="evenodd" d="M25.5182 20.0677L24.1641 15.8698H15.8359L14.4818 20.0677H12.1797L13.8724 14.8542C14.1094 14.1094 14.651 13.7031 15.3281 13.7031H24.6719C25.349 13.7031 25.8906 14.1094 26.1276 14.8542L27.8203 20.0677H25.5182Z" fill="#386CF6"/>
        <path fill-rule="evenodd" clip-rule="evenodd" d="M16.9871 20.0678L15.8022 15.5652C15.7345 15.3621 15.8699 15.1251 16.073 15.0574C16.31 15.0235 17.8673 14.9897 17.9688 15.3621L19.2553 20.0678H16.9871Z" fill="#386CF6"/>
        <path fill-rule="evenodd" clip-rule="evenodd" d="M20.7449 20.0677L22.0313 15.362C22.0652 15.125 24.2657 15.362 24.198 15.5651L23.0131 20.0677H20.7449Z" fill="#386CF6"/>
    </g>
    <defs>
        <clipPath id="clip0_511_22643">
            <rect width="17.3333" height="17.3333" fill="white" transform="translate(11.3334 11.3333)"/>
        </clipPath>
    </defs>
</svg>
