<svg width="20" height="20" viewBox="0 0 20 20" fill="none" xmlns="http://www.w3.org/2000/svg">
    <g clip-path="url(#clip0_537_6683)">
        <path d="M6.88854 6.88858C10.4496 6.88858 13.1104 5.48084 13.1104 4.22209C13.1104 2.96346 10.4495 1.55566 6.88854 1.55566C3.32755 1.55566 0.666695 2.96346 0.666695 4.22209C0.666695 5.48084 3.32749 6.88858 6.88854 6.88858Z" fill="#303030"/>
        <path d="M6.88851 17.5548C7.40827 17.5548 7.90854 17.5246 8.38438 17.4695C7.98327 16.954 7.65156 16.382 7.40306 15.7676C7.23231 15.7734 7.06098 15.7774 6.88845 15.7774C4.85368 15.7774 2.92671 15.3742 1.46266 14.6421C1.17439 14.498 0.909121 14.3431 0.666664 14.1792V14.8884C0.666664 16.147 3.32746 17.5548 6.88851 17.5548Z" fill="#303030"/>
        <path d="M6.88851 13.9996C6.90676 13.9996 6.92472 13.9993 6.94292 13.9993C6.90647 13.7079 6.88744 13.4112 6.88744 13.1101C6.88744 12.8092 6.90641 12.5126 6.94292 12.2215C6.92472 12.2215 6.9067 12.2221 6.88851 12.2221C4.85374 12.2221 2.92682 11.8189 1.46272 11.0869C1.17439 10.9428 0.90906 10.7879 0.666603 10.624V11.3331C0.666662 12.5918 3.32746 13.9996 6.88851 13.9996Z" fill="#303030"/>
        <path d="M6.88851 10.4439C7.06489 10.4439 7.23889 10.4403 7.4107 10.4336C7.68664 9.7566 8.06375 9.13128 8.52354 8.57673C7.99121 8.63541 7.44413 8.66652 6.88851 8.66652C4.85374 8.66652 2.92683 8.26334 1.46272 7.53128C1.17439 7.38709 0.90906 7.23229 0.666603 7.06836V7.77753C0.666662 9.03622 3.32746 10.4439 6.88851 10.4439Z" fill="#303030"/>
        <path d="M9.55548 10.1633C9.17084 10.7415 8.89603 11.3987 8.76084 12.105C8.69843 12.4305 8.66548 12.7664 8.66548 13.1098C8.66548 13.368 8.68433 13.6219 8.71995 13.8704C8.80748 14.4809 8.99873 15.0582 9.27527 15.584C9.56543 16.1359 9.9493 16.631 10.4058 17.048C11.3546 17.9145 12.6163 18.4437 13.9994 18.4437C16.9405 18.4437 19.3333 16.0509 19.3333 13.1098C19.3333 10.1686 16.9405 7.77588 13.9994 7.77588C13.6954 7.77588 13.3974 7.80184 13.1071 7.85091C11.6285 8.10095 10.355 8.96143 9.55548 10.1633Z" fill="#303030"/>
    </g>
    <defs>
        <clipPath id="clip0_537_6683">
            <rect width="18.6667" height="18.6667" fill="white" transform="translate(0.666664 0.666504)"/>
        </clipPath>
    </defs>
</svg>
