<svg width="40" height="40" viewBox="0 0 40 40" fill="none" xmlns="http://www.w3.org/2000/svg">
    <g clip-path="url(#clip0_511_21627)">
        <path d="M16.8886 16.8886C20.4496 16.8886 23.1105 15.4808 23.1105 14.2221C23.1105 12.9635 20.4496 11.5557 16.8886 11.5557C13.3276 11.5557 10.6667 12.9635 10.6667 14.2221C10.6667 15.4808 13.3275 16.8886 16.8886 16.8886Z" fill="#386CF6"/>
        <path d="M16.8886 27.5548C17.4084 27.5548 17.9086 27.5246 18.3845 27.4695C17.9834 26.954 17.6516 26.382 17.4031 25.7676C17.2324 25.7734 17.0611 25.7774 16.8885 25.7774C14.8538 25.7774 12.9268 25.3742 11.4627 24.6421C11.1745 24.498 10.9092 24.3431 10.6667 24.1792V24.8884C10.6667 26.147 13.3275 27.5548 16.8886 27.5548Z" fill="#386CF6"/>
        <path d="M16.8887 23.9996C16.9069 23.9996 16.9249 23.9993 16.9431 23.9993C16.9066 23.7079 16.8876 23.4112 16.8876 23.1101C16.8876 22.8092 16.9066 22.5126 16.9431 22.2215C16.9249 22.2215 16.9068 22.2221 16.8887 22.2221C14.8539 22.2221 12.927 21.8189 11.4629 21.0869C11.1745 20.9428 10.9092 20.7879 10.6667 20.624V21.3331C10.6668 22.5918 13.3276 23.9996 16.8887 23.9996Z" fill="#386CF6"/>
        <path d="M16.8887 20.4439C17.065 20.4439 17.239 20.4403 17.4108 20.4336C17.6868 19.7566 18.0639 19.1313 18.5237 18.5767C17.9914 18.6354 17.4443 18.6665 16.8887 18.6665C14.8539 18.6665 12.927 18.2633 11.4629 17.5313C11.1745 17.3871 10.9092 17.2323 10.6667 17.0684V17.7775C10.6668 19.0362 13.3276 20.4439 16.8887 20.4439Z" fill="#386CF6"/>
        <path d="M19.5555 20.1633C19.1709 20.7415 18.8961 21.3987 18.7609 22.105C18.6985 22.4305 18.6655 22.7664 18.6655 23.1098C18.6655 23.368 18.6844 23.6219 18.72 23.8704C18.8075 24.4809 18.9988 25.0582 19.2753 25.584C19.5655 26.1359 19.9493 26.631 20.4059 27.048C21.3546 27.9145 22.6164 28.4437 23.9995 28.4437C26.9406 28.4437 29.3334 26.0509 29.3334 23.1098C29.3334 20.1686 26.9406 17.7759 23.9995 17.7759C23.6955 17.7759 23.3974 17.8018 23.1071 17.8509C21.6286 18.101 20.3551 18.9614 19.5555 20.1633Z" fill="#386CF6"/>
    </g>
    <defs>
        <clipPath id="clip0_511_21627">
            <rect width="18.6667" height="18.6667" fill="white" transform="translate(10.6667 10.6665)"/>
        </clipPath>
    </defs>
</svg>
