<svg width="140" height="60" fill="none" xmlns="http://www.w3.org/2000/svg"><path d="M0 28.817C.045 19.97 7.285 12.986 16.372 13.03c8.684.044 15.88 7.233 15.864 15.876-.014 8.671-7.358 15.831-16.207 15.773C7.165 44.619-.044 37.489 0 28.817zm23.567-3.785c-5.08-1.731-9.951-3.375-14.852-5.047v10.094c4.916-1.672 9.772-3.316 14.852-5.047zm-.03 2.568c-4.96 1.687-9.832 3.345-14.897 5.062 5.08 1.716 9.951 3.39 14.897 5.062V27.6zm116.461 7.38c-.73 0-1.4.059-2.056-.03-.269-.029-.596-.307-.76-.557-1.833-2.86-3.635-5.751-5.437-8.627-.089-.132-.164-.264-.313-.514v9.655h-1.787V22.64c.744 0 1.504-.03 2.263.029.194.014.403.323.537.528 1.773 2.788 3.53 5.576 5.288 8.363.119.206.268.397.403.602v-9.493h1.847c.015 4.093.015 8.187.015 12.31zm-33.814-6.25c.089-.704.119-1.409.283-2.084.64-2.788 2.875-4.372 5.839-4.225 3.531.19 5.631 2.245 5.66 5.722.016 1.188-.118 2.435-.475 3.58-.552 1.805-1.923 2.89-3.829 3.272-2.846.572-5.363-.337-6.555-2.406-.685-1.189-.894-2.495-.923-3.86zm2.115-.03c.238.984.343 1.967.7 2.847.566 1.394 1.788 1.849 3.248 1.82 1.459-.015 2.562-.587 3.098-1.952.67-1.746.67-3.536 0-5.268-.506-1.335-1.594-1.922-3.024-1.951-1.445-.03-2.696.381-3.292 1.76-.373.866-.492 1.82-.73 2.744zm-40.354 6.28c-.804 0-1.475.03-2.13-.014-.179-.015-.387-.264-.507-.44-.76-1.204-1.534-2.392-2.204-3.64-.358-.66-.79-.91-1.52-.821-.313.044-.625 0-1.013 0v4.857h-2.055v-12.37c1.906.103 3.783.103 5.63.338 1.55.206 2.444 1.262 2.652 2.612.239 1.629-.328 2.876-1.698 3.668-.194.117-.387.205-.67.352 1.161 1.79 2.294 3.566 3.515 5.458zm-7.329-6.632c.67 0 1.296.015 1.907 0 .238 0 .491-.058.73-.117.953-.25 1.475-.94 1.46-1.937-.015-.968-.432-1.57-1.43-1.76-.864-.162-1.743-.133-2.667-.206v4.02zm17.964-5.12c-.223.572-.432 1.086-.61 1.555-.91-.19-1.773-.381-2.637-.528-.283-.044-.596-.015-.894.015-.73.058-1.281.396-1.475 1.13-.194.719.075 1.32.7 1.702.522.322 1.103.557 1.654.836.655.323 1.356.601 1.981.998 2.16 1.408 2.011 4.49-.313 5.649-1.936.953-3.947.704-5.929.058-.149-.044-.312-.308-.327-.47-.045-.483-.015-.968-.015-1.408 1.102.22 2.175.47 3.262.646.432.073.894.014 1.326-.059.67-.117 1.207-.47 1.356-1.174.148-.733-.075-1.364-.76-1.746-.64-.352-1.34-.63-1.981-.983-.716-.381-1.475-.719-2.056-1.262-1.728-1.584-1.192-4.46 1.013-5.311 1.892-.778 3.799-.426 5.705.352zm24.656.028c-.254.587-.492 1.1-.701 1.6-.864-.22-1.638-.514-2.428-.587-2.16-.19-3.545.836-4.037 2.92-.327 1.35-.283 2.7.194 4.02.492 1.32 1.46 2.113 2.89 2.128 1.177.014 2.339-.177 3.635-.294 0 .352.029.822-.015 1.291-.015.162-.239.367-.417.411-1.803.528-3.605.631-5.393-.015-1.356-.498-2.264-1.481-2.74-2.802-.716-1.966-.776-3.962-.046-5.928.79-2.098 2.369-3.228 4.618-3.477a7.973 7.973 0 014.44.733zm-18.013 11.68V24.431h-3.635v-1.746h9.355v1.702h-3.605v10.55h-2.115zM42.635 24.87c-.88.69-1.594 1.277-2.354 1.879a66.01 66.01 0 00-1.043-1.262c1.222-.94 2.354-1.908 3.62-2.715.417-.278 1.132-.117 1.758-.161v12.31h-1.981v-10.05zm8.773-2.185h1.996v12.237h-1.996V22.685zm71.088 0h1.995v12.237h-1.995V22.685z" fill="#717171"/></svg>