<svg width="140" height="60" fill="none" xmlns="http://www.w3.org/2000/svg"><g clip-path="url(#clip0_321_20666)"><path fill-rule="evenodd" clip-rule="evenodd" d="M25.854 33.98c0 .42.055.72.165.9.11.18.326.27.647.27h.36c.14 0 .3-.02.481-.06v2.372a9.955 9.955 0 01-1.052.27 6.166 6.166 0 01-1.112.12c-.701 0-1.282-.14-1.743-.42-.46-.28-.761-.77-.901-1.47-.682.66-1.518 1.14-2.51 1.44-.991.3-1.948.45-2.87.45a7.043 7.043 0 01-2.013-.285 5.287 5.287 0 01-1.698-.84 4.015 4.015 0 01-1.172-1.411c-.29-.57-.436-1.236-.436-1.996 0-.96.175-1.741.526-2.341a3.89 3.89 0 011.382-1.411 6.243 6.243 0 011.924-.736c.71-.15 1.427-.265 2.148-.345.622-.12 1.212-.205 1.773-.255a8.334 8.334 0 001.488-.255c.43-.12.771-.305 1.022-.555.25-.25.375-.626.375-1.126 0-.44-.105-.8-.315-1.08-.21-.28-.47-.496-.781-.646-.31-.15-.657-.25-1.037-.3a8.325 8.325 0 00-1.082-.075c-.962 0-1.753.2-2.374.6-.621.4-.972 1.02-1.052 1.861H12.57c.06-1 .3-1.831.721-2.491a4.986 4.986 0 011.608-1.591 6.58 6.58 0 012.209-.84 13.17 13.17 0 012.524-.24c.762 0 1.513.08 2.254.24.741.16 1.408.42 1.999.78a4.32 4.32 0 011.427 1.396c.36.57.541 1.265.541 2.086v7.984zm-3.426-4.322c-.52.34-1.162.545-1.923.615-.761.07-1.523.175-2.284.315a7.37 7.37 0 00-1.052.255c-.34.11-.641.26-.902.45-.26.19-.465.44-.616.751-.15.31-.225.685-.225 1.126 0 .38.11.7.33.96.22.26.486.465.797.616.31.15.651.255 1.022.315.37.06.706.09 1.006.09.381 0 .792-.05 1.233-.15.44-.1.856-.27 1.247-.51.39-.24.716-.546.976-.916s.391-.826.391-1.366v-2.551zm7.213-7.745h3.245v2.102h.06c.481-.901 1.152-1.546 2.014-1.937a6.694 6.694 0 012.795-.585c1.222 0 2.289.215 3.2.646a6.308 6.308 0 012.27 1.77c.6.75 1.051 1.626 1.352 2.627.3 1 .45 2.071.45 3.212 0 1.04-.135 2.05-.405 3.031a7.884 7.884 0 01-1.232 2.597 6.158 6.158 0 01-2.09 1.801c-.84.45-1.832.675-2.974.675a8.485 8.485 0 01-1.503-.135 6.49 6.49 0 01-1.442-.435 5.69 5.69 0 01-1.278-.765 4.245 4.245 0 01-.976-1.096h-.06v7.744H29.64V21.913zm11.96 7.775c0-.7-.09-1.381-.27-2.041a5.543 5.543 0 00-.811-1.756 4.207 4.207 0 00-1.353-1.231c-.54-.31-1.162-.465-1.863-.465-1.443 0-2.53.5-3.26 1.5-.732 1.001-1.098 2.332-1.098 3.993 0 .78.096 1.506.286 2.176.19.67.476 1.246.856 1.726.381.48.837.86 1.368 1.14.53.28 1.147.42 1.848.42.781 0 1.442-.16 1.983-.48.541-.32.987-.735 1.338-1.245.35-.51.6-1.09.751-1.741.15-.65.225-1.316.225-1.996zm19.324 4.292c0 .42.055.72.165.9.11.18.326.27.646.27h.361c.14 0 .3-.02.48-.06v2.372a9.955 9.955 0 01-1.052.27 6.168 6.168 0 01-1.11.12c-.702 0-1.283-.14-1.744-.42-.46-.28-.761-.77-.901-1.47-.682.66-1.518 1.14-2.51 1.44-.991.3-1.948.45-2.87.45a7.042 7.042 0 01-2.013-.285 5.286 5.286 0 01-1.698-.84 4.015 4.015 0 01-1.172-1.411c-.29-.57-.436-1.236-.436-1.996 0-.96.175-1.741.526-2.341a3.89 3.89 0 011.382-1.411 6.242 6.242 0 011.924-.736c.71-.15 1.427-.265 2.148-.345.621-.12 1.212-.205 1.773-.255a8.332 8.332 0 001.488-.255c.43-.12.771-.305 1.022-.555.25-.25.375-.626.375-1.126 0-.44-.105-.8-.315-1.08a2.115 2.115 0 00-.782-.646c-.31-.15-.656-.25-1.036-.3a8.324 8.324 0 00-1.082-.075c-.962 0-1.753.2-2.374.6-.621.4-.972 1.02-1.052 1.861h-3.426c.06-1 .3-1.831.721-2.491.42-.66.957-1.191 1.608-1.591a6.58 6.58 0 012.209-.84 13.17 13.17 0 012.524-.24c.761 0 1.513.08 2.254.24.742.16 1.408.42 1.999.78a4.33 4.33 0 011.427 1.396c.36.57.541 1.265.541 2.086v7.984zm-3.426-4.322c-.52.34-1.162.545-1.923.615-.762.07-1.523.175-2.284.315a7.32 7.32 0 00-1.052.255c-.34.11-.641.26-.902.45-.26.19-.465.44-.616.751-.15.31-.225.685-.225 1.126 0 .38.11.7.33.96.22.26.486.465.797.616.31.15.651.255 1.022.315.37.06.706.09 1.006.09.381 0 .792-.05 1.233-.15.44-.1.856-.27 1.247-.51.39-.24.716-.546.976-.916s.391-.826.391-1.366v-2.551zm7.122-7.745h3.246v2.282l.06.06a5.741 5.741 0 012.044-2.026 5.452 5.452 0 012.795-.736c1.703 0 3.045.44 4.027 1.32.981.881 1.472 2.202 1.472 3.963v10.656H74.84v-9.755c-.04-1.221-.3-2.107-.781-2.657-.481-.55-1.232-.825-2.254-.825a3.73 3.73 0 00-1.563.315 3.4 3.4 0 00-1.172.87 4.09 4.09 0 00-.751 1.306c-.18.5-.27 1.03-.27 1.59v9.156H64.62V21.913zm31.886 15.52H93.26V35.33h-.06c-.46.9-1.132 1.546-2.013 1.936a6.829 6.829 0 01-2.795.585c-1.222 0-2.29-.215-3.2-.645a6.383 6.383 0 01-2.27-1.756c-.6-.74-1.052-1.616-1.352-2.627-.3-1.01-.45-2.096-.45-3.256 0-1.401.19-2.612.57-3.632.38-1.021.887-1.861 1.518-2.522a5.867 5.867 0 012.163-1.456 6.891 6.891 0 012.48-.465c.48 0 .971.045 1.472.135a6.5 6.5 0 011.443.435c.46.2.886.456 1.277.766.39.31.716.675.977 1.095h.06V16h3.426v21.432zm-11.96-7.595c0 .66.084 1.31.255 1.95.17.641.43 1.212.78 1.712.352.5.797.9 1.338 1.2.541.3 1.182.45 1.924.45.76 0 1.417-.16 1.968-.48a4.08 4.08 0 001.352-1.26c.351-.52.611-1.106.782-1.756a7.86 7.86 0 00.255-1.996c0-1.721-.385-3.062-1.157-4.023-.771-.96-1.818-1.44-3.14-1.44-.802 0-1.478.165-2.029.495a4.17 4.17 0 00-1.352 1.29 5.37 5.37 0 00-.751 1.802 9.37 9.37 0 00-.226 2.056zm22.809 8.014c-1.242 0-2.35-.205-3.321-.615-.971-.41-1.793-.976-2.464-1.696s-1.182-1.58-1.533-2.581c-.35-1-.526-2.102-.526-3.302 0-1.181.175-2.272.526-3.272.351-1 .862-1.861 1.533-2.582.671-.72 1.493-1.285 2.464-1.695.971-.41 2.079-.616 3.321-.616s2.349.205 3.321.616c.971.41 1.793.975 2.464 1.695.671.72 1.182 1.581 1.532 2.582.351 1 .526 2.091.526 3.272 0 1.2-.175 2.301-.526 3.302-.35 1-.861 1.86-1.532 2.581a7.088 7.088 0 01-2.464 1.696c-.972.41-2.079.615-3.321.615zm0-2.701c.761 0 1.422-.16 1.983-.48a4.185 4.185 0 001.383-1.261c.36-.52.625-1.106.796-1.756a7.873 7.873 0 000-3.977 5.334 5.334 0 00-.796-1.756 4.25 4.25 0 00-1.383-1.246c-.561-.32-1.222-.48-1.983-.48-.761 0-1.422.16-1.984.48a4.246 4.246 0 00-1.382 1.246 5.315 5.315 0 00-.797 1.756 7.92 7.92 0 000 3.977c.171.65.436 1.235.797 1.756.361.52.821.94 1.382 1.26.562.32 1.223.48 1.984.48zm10.698-13.238h3.216v3.002h.06c.1-.42.295-.83.586-1.23s.641-.766 1.052-1.096a5.32 5.32 0 011.367-.796 4.1 4.1 0 011.533-.3c.4 0 .676.01.826.03l.466.06v3.302c-.24-.04-.486-.075-.736-.105a6.184 6.184 0 00-.736-.045c-.581 0-1.127.115-1.638.345-.511.23-.957.57-1.338 1.02-.381.451-.681 1.006-.901 1.667-.22.66-.331 1.42-.331 2.28v7.385h-3.426V21.913z" fill="#717171"/></g><defs><clipPath id="clip0_321_20666"><path fill="#fff" transform="translate(12 16)" d="M0 0h115.789v27.368H0z"/></clipPath></defs></svg>