<svg width="140" height="60" fill="none" xmlns="http://www.w3.org/2000/svg"><path d="M139.942 24.773c-.209.73-.424 1.462-.621 2.198-.886 3.228-1.767 6.462-2.659 9.69-.118.432-.299.853-.445 1.28-.052.148-.125.215-.3.21-.491-.012-.988-.006-1.53-.006.587-.709.785-1.523.954-2.342a.943.943 0 00-.028-.454 3551.332 3551.332 0 00-3.443-10.41c-.029-.083-.052-.172-.091-.283.587 0 1.14-.01 1.693.012.074 0 .17.138.199.232.547 1.822 1.106 3.649 1.631 5.476.299 1.052.542 2.121.807 3.184a.602.602 0 00.136.271c.022-.077.056-.155.067-.232.401-2.902 1.276-5.709 1.892-8.566.061-.3.174-.41.49-.382.412.033.824.011 1.243.017a.703.703 0 01.005.105zM14.474 15c8.005.005 14.451 6.362 14.44 14.23C28.903 37 22.4 43.328 14.44 43.317 6.464 43.311-.017 36.949 0 29.147.023 21.317 6.492 14.995 14.474 15zm.203.56c3.986 6.76 7.954 13.482 11.962 20.282 2.275-4.397 2.428-8.76.102-13.09-2.851-5.299-8.236-7.248-12.064-7.193zM2.637 36.29c1.952 3.383 6.61 6.822 12.605 6.484 3.11-.177 5.865-1.262 8.247-3.239a13.248 13.248 0 002.834-3.245H2.636zm-.475-.664c.028.005.062.006.09.01 3.94-6.682 7.887-13.371 11.827-20.055-.023-.022-.04-.044-.062-.072-4.923.316-8.84 2.404-11.426 6.567-2.732 4.402-2.698 8.97-.429 13.55zm12.216.083c2.365.21 5.205-1.888 5.21-5.044.006-2.808-2.325-5.106-5.193-5.111-2.885-.006-5.222 2.281-5.222 5.105 0 3.212 2.89 5.266 5.205 5.05zm.006-19.596c-1.722 2.918-3.41 5.786-5.12 8.682h10.234a5515.923 5515.923 0 00-5.114-8.682zm-5.849 19.64v-9.718c-1.93 3.279-3.821 6.485-5.73 9.718h5.73zm17.427 0c-1.914-3.25-3.805-6.45-5.724-9.712v9.712h5.724zm-6.3-7.342v-3.062h-3.263c1.473.598 2.552 1.595 3.263 3.062zM9.1 28.333c.711-1.395 1.795-2.375 3.24-2.99H9.1v2.99zm10.573 4.652c-.598 1.157-1.473 2.06-2.704 2.707h2.704v-2.707zm-7.96 2.713c-1.145-.66-2.015-1.556-2.607-2.796v2.796h2.608zm27.459-8.212c.113.039.175.067.242.083 1.36.355 2.134 1.24 2.41 2.57.181.88.153 1.76-.095 2.624-.39 1.351-1.276 2.265-2.636 2.691-1.745.543-3.512.3-5.279.056V20.37c.616-.072 1.231-.166 1.846-.216 1.062-.083 2.117-.122 3.179.072 1.507.282 2.433 1.185 2.653 2.686.175 1.201.017 2.353-.717 3.372-.356.492-.802.875-1.389 1.085-.068.028-.113.066-.214.116zm-3.675 6.628c.846.105 1.682.222 2.523.056 1.005-.2 1.665-.814 1.981-1.767.238-.708.226-1.434.023-2.148-.22-.78-.734-1.318-1.53-1.567-.976-.305-1.987-.188-2.997-.21v5.636zm-.012-7.07c.565 0 1.09-.012 1.615.005.632.016 1.14-.233 1.609-.626.875-.73 1.19-1.678 1.055-2.768-.169-1.335-.914-2-2.286-2.033-.57-.016-1.146.045-1.716.05-.226.006-.277.094-.277.3.006 1.455.006 2.906.006 4.362-.006.233-.006.46-.006.71zm89.748 8.52h-1.609v-.293c0-2.126.011-4.253-.005-6.384-.006-.643-.034-1.296-.164-1.922-.237-1.163-1.535-1.589-2.467-.814-.604.504-.982 1.135-.976 1.96.011 2.376.005 4.751.005 7.127v.32h-1.609V24.674h1.14c.097.365.187.736.299 1.152.159-.172.278-.305.401-.438.858-.914 1.932-1.163 3.133-.936.65.122 1.085.526 1.361 1.102.057.122.113.255.181.41.05-.072.096-.122.135-.177.943-1.457 2.727-1.673 4.036-1.18.452.172.734.526.932.953.305.647.412 1.345.418 2.043.016 2.641.005 5.282.005 7.951h-1.597v-.337c-.006-2.42 0-4.846-.029-7.265-.005-.443-.112-.892-.214-1.33-.096-.425-.401-.691-.836-.769-.914-.166-1.614.061-2.077.759-.294.437-.469.908-.463 1.45.012 2.398 0 4.796 0 7.193v.31zm-40.466.017c-.553 0-1.084.006-1.615-.011-.062 0-.152-.138-.18-.227-.373-1.235-.734-2.47-1.101-3.704-.034-.106-.068-.21-.108-.327a2.161 2.161 0 00-.191-.011c-1.327 0-2.654 0-3.975-.006-.175 0-.254.045-.304.227-.362 1.274-.74 2.542-1.107 3.816-.056.193-.141.26-.35.249-.446-.017-.892-.006-1.383-.006.158-.526.3-1.019.452-1.506 1.388-4.58 2.783-9.164 4.16-13.743.073-.233.18-.294.412-.288.599.01.599.005.774.581l4.47 14.751c.017.044.023.105.046.205zM79.562 22.89c-.333 2.37-1.152 4.607-1.744 6.921h3.533c-.61-2.32-1.45-4.551-1.79-6.921zm21.393 12.674h-1.58v-15.26h1.569v5.321c.022.011.045.017.062.028.062-.061.125-.122.181-.183 1.118-1.285 2.885-1.28 3.979-.847.723.288 1.09.908 1.237 1.611.147.687.242 1.4.254 2.104.028 2.331.011 4.662.011 6.988 0 .072-.011.144-.016.233h-1.593v-3.024c0-1.273.017-2.541-.011-3.815a8.59 8.59 0 00-.175-1.561c-.248-1.202-1.338-1.733-2.467-1.19-.914.437-1.462 1.145-1.462 2.203.011 2.359 0 4.718 0 7.071.011.11.011.21.011.321zm-32.34-.005h-1.61v-15.26h1.598v9.28c.379-.166.723-.227.932-.626.734-1.368 1.518-2.708 2.275-4.064.101-.177.209-.244.412-.238.508.016 1.016.005 1.564.005-.051.1-.085.172-.125.238-.79 1.33-1.569 2.664-2.382 3.976-.209.338-.547.598-.846.913.112.111.236.25.372.366.367.299.632.67.864 1.08.767 1.35 1.558 2.69 2.337 4.036.05.089.096.178.163.294-.09.01-.158.027-.225.027-.48 0-.96-.01-1.44.006-.197.005-.299-.06-.395-.227-.824-1.456-1.665-2.907-2.484-4.363-.141-.25-.288-.382-.587-.332-.13.022-.26.005-.423.005v4.884zM56.92 30.188c-.018 1.03-.086 2.148-.486 3.222-.819 2.188-3.274 3.112-5.391 2.038-.853-.432-1.378-1.146-1.643-2.015-.666-2.166-.717-4.364-.017-6.523.723-2.243 3.144-3.195 5.318-2.176.886.415 1.4 1.14 1.727 2.02.322.876.497 2.06.491 3.434zm-1.672.039c-.017-.316-.022-.826-.073-1.33-.068-.72-.186-1.422-.559-2.065-.373-.648-.909-1.035-1.705-1.035s-1.366.37-1.727 1.04a3.72 3.72 0 00-.339.87c-.322 1.335-.305 2.686-.147 4.031.074.626.232 1.235.587 1.772.463.709 1.118 1.013 1.97.88.842-.127 1.305-.67 1.587-1.4.316-.826.355-1.7.406-2.764zm60.786.066h-5.661c-.023.825.067 1.622.344 2.392.181.515.463.969.926 1.29.768.537 1.614.56 2.478.299.406-.122.779-.338 1.197-.526.163.327.349.692.559 1.102-.221.144-.418.31-.65.426a5.088 5.088 0 01-3.443.46c-1.4-.294-2.19-1.252-2.637-2.514-.44-1.246-.502-2.542-.434-3.843.051-.969.203-1.921.609-2.818 1.033-2.26 3.19-2.52 4.923-1.933.937.321 1.395 1.102 1.665 1.994.289.952.266 1.927.198 2.901-.022.255-.051.498-.074.77zm-1.439-1.324c.028-.67-.011-1.334-.248-1.97-.497-1.319-2.123-1.634-3.1-.599-.677.72-.767 1.634-.863 2.564 1.416.005 2.794.005 4.211.005zM65.06 24.923c-.147.46-.294.897-.43 1.318-.434-.133-.84-.294-1.264-.377-1.417-.282-2.36.266-2.8 1.617-.305.941-.339 1.916-.322 2.896.012.786.08 1.567.362 2.309.35.925.908 1.633 2.01 1.733.688.06 1.32-.122 1.902-.482.062-.039.124-.083.186-.122.006-.005.017-.005.056-.01.136.37.288.741.407 1.123.017.056-.057.183-.124.222-.74.487-1.575.67-2.456.687-1.835.027-2.975-.754-3.562-2.459-.486-1.4-.52-2.857-.423-4.313.062-.942.242-1.861.677-2.72.666-1.311 1.739-1.982 3.252-1.97.875.01 1.716.133 2.529.548zm31.91 1.372a4.055 4.055 0 00-1.903-.493c-.92-.01-1.558.416-1.947 1.207-.34.676-.441 1.401-.492 2.143-.073 1.041-.056 2.082.198 3.101.062.25.147.493.254.731.598 1.312 1.8 1.794 3.167 1.263.294-.117.564-.277.863-.427.147.388.294.792.464 1.235-.21.122-.407.26-.621.36-.915.42-1.88.52-2.863.388-1.45-.205-2.275-1.125-2.715-2.42-.457-1.34-.52-2.725-.434-4.12.061-1.035.237-2.049.727-2.979.655-1.24 1.694-1.883 3.128-1.894.83-.005 1.625.1 2.393.432.17.072.232.139.159.327-.136.354-.25.736-.379 1.146zm-52.667-6.002h1.62v.332c0 4.098 0 8.19.006 12.287 0 .31.033.626.107.925.107.41.367.581.79.542.322-.033.638-.121.988-.188.045.371.102.748.136 1.13.005.055-.074.144-.136.171-.7.272-1.428.421-2.173.25-.78-.183-1.163-.726-1.276-1.479a5.069 5.069 0 01-.057-.714c-.005-4.325 0-8.655 0-12.98-.005-.077-.005-.16-.005-.276zm42.021.005h1.604v.31c0 4.076 0 8.157.005 12.232 0 .321.034.648.102.958.102.443.383.637.847.587.315-.033.62-.122.954-.188.045.36.101.73.13 1.107.005.061-.069.172-.13.2-.712.276-1.44.426-2.202.243-.79-.194-1.22-.786-1.293-1.739-.011-.144-.011-.293-.011-.443V20.586a4.474 4.474 0 01-.006-.288z" fill="#717171"/></svg>