<svg width="140" height="60" fill="none" xmlns="http://www.w3.org/2000/svg"><mask id="a" style="mask-type:alpha" maskUnits="userSpaceOnUse" x="9" y="16" width="122" height="27"><path fill="#D9D9D9" d="M9 16h121.065v27H9z"/></mask><g mask="url(#a)"><path fill-rule="evenodd" clip-rule="evenodd" d="M-23.57 15.33c-.907 1.548-1.185 2.528-.618 2.177.74-.458.872-.002.467 1.613-.51 2.03-.322 2.248 1.925 2.22 1.369-.017 3.469-.629 4.666-1.359 2.1-1.28 2.026-1.309-2.064-.842-3.621.414-4.09.301-3.203-.767.571-.688.912-2.288.757-3.554l-.28-2.302-1.65 2.814zm38.666 4.24c-.995.688-.44.906 2.339.916 4.487.017 8.113 1.315 8.113 2.905 0 1.815-2.83 3.989-6.024 4.628l-2.86.572 1.457-2.82c1.6-3.093 1.432-3.848-.675-3.04-1.32.507-6.705 13.115-6.705 15.697 0 2.808 10.475.825 14.78-2.797 3.464-2.915 3.41-5.112-.154-6.354l-2.794-.975 2.786-1.941c3.07-2.142 4.322-4.69 2.969-6.043-1.245-1.245-11.66-1.835-13.232-.749zm22.826.64c-5.485 2.704-5.717 6.36-.613 9.66 3.375 2.181 3.867 4.422 1.452 6.607-2.028 1.836-4.848 1.843-6.675.017-1.67-1.67-3.61-.405-2.762 1.802.792 2.063 5.552 1.678 9.763-.79 5.831-3.417 6.085-6.432.828-9.829-4.848-3.134-3.384-7.808 2.19-6.99 1.563.229 3.028-.085 3.598-.771 1.42-1.71-4.14-1.5-7.781.294zm18.545.194c-4.216 1.945-6.87 4.703-8.668 9.007-2.492 5.964-1.415 10.25 2.575 10.25 2.215 0 10.883-4.201 10.883-5.275 0-.42-1.353.035-3.007 1.011-3.978 2.347-7.777 1.942-8.175-.872-.52-3.678 1.698-9.598 4.47-11.93 2.127-1.789 3.378-2.16 6.546-1.936 2.563.181 4.045-.1 4.291-.813.573-1.66-4.842-1.322-8.915.558zm18.29.005c-4.269 1.976-7.74 5.567-9.534 9.86-2.252 5.39-1.394 9.392 2.011 9.392 1.523 0 9.134-4.341 8.58-4.894-.212-.213-1.548.281-2.97 1.096-5.217 2.995-7.078-.896-3.838-8.03 2.416-5.317 5.777-7.618 10.241-7.01 2.713.368 3.743.171 4.11-.787.713-1.857-4.248-1.642-8.6.373zm15.903-.563c-1.34 1.031-8.025 18.838-7.333 19.529 1.287 1.288 3.363-1.757 5.336-7.832 1.274-3.918 2.88-8.398 3.57-9.955 1.32-2.975.79-3.561-1.573-1.742zm6.743-.218c-.31.502.5.873 1.908.877 3.814.007 9.024 1.711 9.568 3.13.726 1.892-2.133 4.583-5.969 5.616l-3.361.905 2.554 3.714c3.386 4.92 4.865 6.051 7.022 5.367 1.711-.543 1.672-.686-.84-3.199-4.733-4.733-4.845-5.67-.912-7.676 3.298-1.683 5.272-3.97 5.272-6.108 0-2.553-13.816-4.934-15.242-2.626zm23.254-.126c-.622.396-2.429 4.406-4.014 8.915-1.585 4.507-3.174 8.882-3.533 9.72-.588 1.374-.006 1.524 5.922 1.524 3.616 0 6.816-.392 7.113-.871.334-.541-1.298-.871-4.304-.871-2.662 0-4.842-.319-4.842-.707 0-.684 4.394-13.822 5.662-16.93.664-1.629-.159-1.95-2.004-.78zM99.38 23.33c-1.54 1.193-7.137 16.33-6.039 16.33 1.72 0 3.434-2.602 4.875-7.402.863-2.875 2.121-6.305 2.795-7.622 1.31-2.558.657-3.08-1.631-1.306zm-21.03 7.502c-.808.892-1.636 2.492-1.841 3.553a38.645 38.645 0 01-.902 3.603c-.57 1.791.165 2.106 2.08.894 1.698-1.076 4.515-9.673 3.168-9.673-.57 0-1.698.73-2.506 1.623zm-55.358.15c2.009 1.075 2.199 3.685.377 5.195-.718.596-3.07 1.284-5.225 1.527-4.357.49-4.66-.01-2.962-4.881.783-2.246 1.425-2.743 3.54-2.743 1.422 0 3.344.406 4.27.902zm-58.412 1.212c0 .204 1.176.958 2.613 1.675 2.83 1.412 3.7.339.928-1.146-1.724-.922-3.54-1.194-3.54-.53zm5.567 10.406c-1.447.802-1.606 1.23-.75 2.031 1.467 1.37 4.917.385 4.588-1.309-.339-1.748-1.568-1.979-3.838-.722zm-3.39 3.157c-.296.48-.122.871.385.871.506 0 .922-.392.922-.87 0-.48-.172-.872-.384-.872-.212 0-.626.392-.922.871z" fill="#717171"/></g></svg>