<svg width="140" height="60" fill="none" xmlns="http://www.w3.org/2000/svg"><g clip-path="url(#clip0_321_20669)" fill="#717171"><path d="M0 24.157c.158-.329.284-.673.457-.985a3.898 3.898 0 011.593-1.674c2.887-1.627 5.758-3.285 8.644-4.911 1.372-.782 2.776-.782 4.148 0a775.695 775.695 0 018.675 4.958c1.278.735 1.94 1.892 2.003 3.363a.914.914 0 01-.205.563C20.19 31.227 15.031 36.983 9.89 42.739c-.016.016-.032.016-.08.063-.094-.047-.22-.094-.33-.157-2.13-1.22-4.228-2.487-6.389-3.629-1.45-.75-2.618-1.689-3.091-3.3V24.157zm21.167-1.908c-.19-.031-.236-.047-.3-.047-4.21 0-8.422-.016-12.634.015-.504 0-1.088.22-1.514.517-.867.64-1.34 1.595-1.388 2.659-.079 1.564-.079 3.144-.094 4.723-.016 1.956 2.208 3.676 4.195 3.191v-5.74c0-1.064.379-1.44 1.467-1.44 1.846 0 3.707-.062 5.552.017.994.046 1.688-.188 2.287-1.017.71-.986 1.562-1.877 2.43-2.878zm-5.205 11.684h-.788c-1.956 0-3.896.016-5.852 0-.49 0-.978-.078-1.467-.157-1.057-.187-1.798-.86-2.555-1.736 0 .86-.032 1.58.015 2.315.064.954.41 1.815 1.057 2.55.473.532 1.057.844 1.798.844 1.341-.015 2.682 0 4.023-.015.205 0 .488-.063.614-.203 1.026-1.158 2.02-2.316 3.155-3.598zm-4.022 9.964c-.458-.204-.915-.392-1.452-.626 5-5.615 9.953-11.168 14.985-16.799.031.219.047.36.047.5 0 1.111.015 2.222-.016 3.332-.016.282-.126.61-.315.814-.742.891-1.515 1.736-2.303 2.627.19.172.363.329.583.516.663-.735 1.294-1.454 1.94-2.158.048.016.11.031.158.047-.063 1.251-.016 2.518-.205 3.738-.158 1.032-.789 1.861-1.72 2.409-2.334 1.36-4.684 2.69-7.034 4.035-.063.032-.142.047-.347.126.473-.548.852-.986 1.278-1.486-.174-.172-.332-.313-.568-.532-.773.86-1.498 1.72-2.271 2.534-.332.344-.757.61-1.136.907-.52.016-1.073.016-1.625.016zm9.353-8.337l-2.729 3.081c.237.203.394.344.6.516.93-1.063 1.813-2.064 2.728-3.081-.205-.188-.378-.329-.6-.516zm28.798-3.785h-6.04c0 1-.017 1.986.015 2.971.016.438-.095.61-.584.61-4.29-.015-8.58-.015-12.886 0-.726 0-1.31-.281-1.577-.922-.253-.58-.458-1.22-.473-1.83a85.413 85.413 0 010-5.318 4.496 4.496 0 01.315-1.518c.331-.844.946-1.251 1.924-1.235 2.76.031 5.52.015 8.265.015h.742c-.616.83-1.152 1.58-1.72 2.3-.079.094-.33.078-.504.078h-6.452V32.9h10.379v-.626c0-1.752-.031-3.503.016-5.255.016-.532.22-1.095.457-1.596.3-.625.852-.907 1.593-.907 2.24.016 4.496 0 6.735 0 1.31 0 2.114.688 2.287 2.002.032.266.048.548.048.814v7.961h-2.54v-3.52zm-.047-2.034v-2.768h-5.946v2.768h5.946zm57.494 5.553h-2.571v-8.337h-3.234v.626c0 2.393-.016 4.786.016 7.18 0 .422-.11.594-.568.562-.646-.03-1.293-.015-2.034-.015v-8.384H95.85v8.337h-2.54V24.502h11.736c1.545 0 2.444.766 2.476 2.299.063 2.847.016 5.646.016 8.493zM63.2 31.259c1.23 2.158 2.413 4.238 3.643 6.413-.946 0-1.782.015-2.618-.016-.126 0-.284-.14-.347-.25-1.514-2.706-3.029-5.397-4.527-8.103-.016-.03 0-.078 0-.187h3.17v-2.237H57.08a7.885 7.885 0 00-.032.61c0 2.393-.016 4.786.016 7.18.016.578-.174.735-.726.703-.63-.047-1.246-.015-1.924-.015V24.564h.663c2.555 0 5.126.063 7.68-.016 1.578-.046 2.225.83 2.414 2.018.158.923.11 1.909.016 2.847-.126 1-.82 1.658-1.987 1.846zm22.966-6.726h3.123c1.546 0 2.445.75 2.492 2.299a73.53 73.53 0 01-.016 6.194c-.031.594-.363 1.236-.741 1.72-.237.313-.789.548-1.215.564-2.413.046-4.842.03-7.27.015-1.026 0-1.91-.938-1.94-2.19a145.024 145.024 0 010-6.428c.03-1.408.945-2.19 2.35-2.19 1.103.016 2.16.016 3.217.016zM83.2 32.9h5.977v-5.928H83.2V32.9zm28.754-1.126v3.551c-.789 0-1.53.016-2.272-.016-.11 0-.299-.203-.299-.313.016-2.8.016-5.6.094-8.399.016-.47.316-.954.568-1.376.284-.485.773-.689 1.357-.689h7.208c1.009 0 1.908.923 1.94 2.19.063 2.847.016 5.678.016 8.603-.757 0-1.499.016-2.24-.016-.11 0-.284-.313-.3-.485-.032-1-.015-2.017-.015-3.05h-6.057zm5.993-2.033v-2.784h-5.946v2.784h5.946zM78.576 35.31h-2.571v-8.337h-6.12v8.337h-2.508V24.548h8.675c1.561 0 2.476.782 2.508 2.347.063 2.768.016 5.552.016 8.415zm55.921-6.226c.852-1.423 1.672-2.737 2.445-4.082.204-.36.442-.47.836-.454.71.032 1.404 0 2.224 0-.126.25-.205.407-.3.563-1.199 1.94-2.413 3.864-3.596 5.819-.158.266-.252.61-.268.923-.032 1.142-.016 2.283-.016 3.457h-2.854c0-1.158.03-2.284-.017-3.41a2.396 2.396 0 00-.33-1.126c-1.167-1.893-2.366-3.77-3.55-5.647-.094-.156-.173-.328-.315-.579.915 0 1.735-.031 2.555.016.173.016.379.25.488.422.9 1.33 1.767 2.675 2.698 4.098zm-12.259 6.21v-10.73h2.587V32.9h5.852v2.408c-2.793-.015-5.585-.015-8.439-.015z"/></g><defs><clipPath id="clip0_321_20669"><path fill="#fff" transform="translate(0 16)" d="M0 0h140v28H0z"/></clipPath></defs></svg>