<svg width="140" height="60" fill="none" xmlns="http://www.w3.org/2000/svg"><g clip-path="url(#clip0_447_22610)" fill="#717171"><path d="M10.394 35.01h6.767v-3.993h6.706v3.993h2.773v-9.114c0-.793-.213-1.463-.61-2.043-.395-.579-.853-.853-1.401-.853h-8.23c-.58 0-1.037.274-1.433.854-.396.579-.61 1.34-.61 2.194v5.944H2.867l.456 1.89 7.072 1.128zm13.473-6.158H17.13v-3.23h6.706v3.23h.03zm10.15-.732h3.658V25.5h-6.157v9.48h-2.896V23h9.876c.579 0 1.067.274 1.463.854.427.61.67 1.34.67 2.164v1.463c0 .365-.03.7-.121 1.006a2.63 2.63 0 01-.336.853 2.427 2.427 0 01-.61.64 2.065 2.065 0 01-.914.366l-.335.06 2.621 4.634h-3.048l-2.53-4.603m17.039-.061c.366-.06.67-.183.915-.365.244-.183.457-.397.61-.64a2.63 2.63 0 00.335-.854c.06-.305.122-.67.122-1.006v-1.463c0-.853-.214-1.585-.671-2.164-.396-.58-.884-.854-1.463-.854h-9.876v11.98h2.896V25.5h6.157v2.62h-3.658l5.243 9.48h3.048l-4.024-7.163.366-.06z"/><path d="M3.231 31.992c-.152-.03-.914-.152-1.585-.518C.914 31.078.244 30.254.06 29.4v2.408c0 .884.213 1.616.64 2.225.427.61.945.915 1.585.976h9.327l2.744-3.018H3.23z"/><path d="M4.359 25.987c-.153 0-.275 0-.396.03-.122.031-.214.062-.305.092a.547.547 0 00-.214.152c-.03.031-.06.092-.091.122l-.03.03a.912.912 0 00-.122.306c-.031.122-.031.244-.031.396v4.877c-.152-.03-.914-.152-1.585-.488C.853 31.108.183 30.285 0 29.431V26.14c0-.183 0-.397.03-.58.031-.335.122-.64.214-.914.122-.122.183-.244.244-.366.06-.122.122-.244.213-.366.061-.091.122-.152.152-.213.122-.122.244-.244.366-.335a1.97 1.97 0 01.488-.275c.152-.06.366-.091.549-.091h9.571l-2.53 2.957H4.359v.03zM65.9 30.255h-6.614c-.732-.153-1.31-.519-1.738-1.098-.457-.579-.67-1.31-.67-2.164v-.823c0-.853.213-1.585.67-2.225.488-.64 1.037-.945 1.707-.945h10.12v2.926h-9.083v1.677h6.614c.732.091 1.31.396 1.768.853.457.488.701 1.158.701 2.012v1.402c0 .854-.244 1.616-.731 2.256-.458.61-1.037.914-1.707.914h-10.09v-2.804H65.9v-1.981zm17.13-7.225s-.426.244-.761 1.098c-.336.853-.427 1.89-.427 1.89h-3.414v9.053h-3.536v-9.053h-4.39V23.03h12.529zm3.17 8.2v3.84H83V26.2c0-.883.214-1.615.64-2.255.427-.61.945-.915 1.585-.915h7.925c.61 0 1.128.305 1.555.915.427.579.64 1.31.64 2.103v9.023h-3.17V31.23h-5.974zm1.89-2.56h4.085v-2.652h-5.974v2.651h1.89zm20.301 6.431l-5.151-6.767 4.694-5.303h-3.871l-4.115 4.48V23h-3.262v12.101h3.262v-5.822l4.48 5.822h3.963zm.975 0v-12.07h3.292V35.1h-3.292zm13.991-9.083h-6.035v9.053h-3.17V23.03h10.211c.61 0 1.128.304 1.555.914.426.61.67 1.341.67 2.256v8.9h-3.2v-9.083h-.031zm13.443 6.004v-3.078h3.261v3.353c0 .548-.213 1.158-.671 1.829-.426.64-.975.945-1.615.945h-7.864c-.61 0-1.158-.305-1.585-.945-.427-.61-.64-1.372-.64-2.286V26.2c0-.883.213-1.615.64-2.255.427-.64.975-.945 1.585-.945h10.15v2.987h-9.144v6.035h5.883z"/></g><defs><clipPath id="clip0_447_22610"><path fill="#fff" d="M0 0h140v60H0z"/></clipPath></defs></svg>