<svg width="140" height="60" fill="none" xmlns="http://www.w3.org/2000/svg"><g clip-path="url(#clip0_321_20672)"><mask id="a" style="mask-type:alpha" maskUnits="userSpaceOnUse" x="12" y="15" width="27" height="30"><path d="M12.998 15.034h25.477v29.44H12.998v-29.44z" fill="#fff"/></mask><g mask="url(#a)"><path fill-rule="evenodd" clip-rule="evenodd" d="M34.015 24.973c-2.558-1.52-4.864-2.981-7.265-4.255-.6-.319-1.653-.312-2.246.02-2.432 1.356-5.648 2.366-6.885 4.521-1.2 2.09-.329 5.427-.367 8.216-.001.124-.041.271.01.368.285.551.46 1.306.915 1.597a113.967 113.967 0 006.605 3.904c.438.24 1.204.297 1.621.066 2.497-1.384 4.936-2.877 7.426-4.352-3.162-2.757-3.56-2.783-6.958-.884-.517.29-1.307.562-1.77.36-1.2-.524-2.288-1.317-3.557-2.084l3.983-2.495-3.863-2.427c3.558-2.7 3.549-2.683 7.083-.737.472.26 1.2.498 1.618.307 1.2-.545 2.3-1.316 3.65-2.125zm-7.873-9.94c2.29 1.455 4.44 3.27 6.903 4.286 4.346 1.791 6.007 4.665 5.256 9.407-.383 2.422.005 4.965-.116 7.444-.032.652-.51 1.532-1.044 1.865a279.401 279.401 0 01-10.55 6.236c-.497.28-1.408.266-1.91-.017a285.085 285.085 0 01-10.55-6.236c-.534-.333-1.038-1.208-1.053-1.845-.094-4.1 0-8.203-.08-12.303-.02-1.128.434-1.641 1.306-2.153 3.724-2.191 7.41-4.45 11.11-6.683h.728z" fill="#717171"/></g><path fill-rule="evenodd" clip-rule="evenodd" d="M86.743 27.507c-.023-2.058-1.656-3.684-3.67-3.655-2.01.029-3.609 1.703-3.583 3.754.026 2.02 1.716 3.708 3.68 3.677 1.986-.032 3.594-1.732 3.573-3.776zm3.596.05c0 4.037-3.215 7.345-7.174 7.38-3.99.037-7.313-3.378-7.274-7.476.037-4.021 3.32-7.295 7.278-7.26 3.99.036 7.17 3.298 7.17 7.357zm5.293-.702c1.474.047 3.05.194 2.952-1.664-.091-1.752-1.612-1.565-2.952-1.513v3.177zm-3.593-6.647c1.804 0 3.466-.017 5.128.004 2.226.029 4.167.624 5.055 3.029.86 2.331.191 4.6-1.939 6.517l2.805 4.53c-4.322 2.284-5.146-2.01-7.045-4.287l-.396.314v4.237h-3.608V20.208z" fill="#717171"/><mask id="b" style="mask-type:alpha" maskUnits="userSpaceOnUse" x="118" y="20" width="10" height="15"><path d="M118.529 20.444h9.171v14.431h-9.171V20.444z" fill="#fff"/></mask><g mask="url(#b)"><path fill-rule="evenodd" clip-rule="evenodd" d="M118.529 34.875V20.444h8.79v3.314h-5.279l-.09 2.168h4.171v3.455h-4.066v2.128h5.645v3.366h-9.171z" fill="#717171"/></g><path fill-rule="evenodd" clip-rule="evenodd" d="M42.746 21.068h8.935v3.214h-5.326v2.18h4.121v3.197h-4.102l-.103 2.044h5.824v3.235h-9.349v-13.87zm73.94 2.095l-2.409 2.007c-2.964-1.667-4.741-1.609-6.041.16-1.025 1.396-.944 3.425.188 4.716 1.422 1.623 3.214 1.598 5.797-.135l2.421 2.009c-1.706 2.585-4.57 3.582-7.552 2.708-2.964-.869-5.07-3.701-5.15-6.924-.078-3.111 1.838-5.96 4.73-7.033 2.999-1.115 5.977-.23 8.016 2.492zM58.052 34.938h-3.41v-13.87h9.35v3.196h-5.703v2.713h4.672v3.232h-4.667l-.242 4.73zm11.21-10.608v2.626h4.66v3.292h-4.717v4.69h-3.512v-13.87h9.35v3.262h-5.781z" fill="#717171"/></g><defs><clipPath id="clip0_321_20672"><path fill="#fff" transform="translate(13 15)" d="M0 0h114.737v29.474H0z"/></clipPath></defs></svg>