<svg width="140" height="60" fill="none" xmlns="http://www.w3.org/2000/svg"><path d="M96.992 38.025c-3.556 0-5.764-1.697-5.764-4.427a3.894 3.894 0 012.242-3.607c1.05-.47 1.664-.632 4.86-.971a18.013 18.013 0 003.885-.58 1.5 1.5 0 001.211-1.536c0-1.63-1.293-2.39-4.072-2.39-3.224 0-4.507.825-4.734 3.042h-2.84a5.075 5.075 0 011.013-2.935c1.204-1.543 3.37-2.326 6.439-2.326 2.449 0 4.233.405 5.451 1.24 1.018.69 1.431 1.71 1.431 3.52v8.374h2.029v2.138h-3.164a1.56 1.56 0 01-1.554-1.56v-.51l-.08.077a8.346 8.346 0 01-6.353 2.451zm6.433-7.93l-.061.02a27.446 27.446 0 01-5.713 1.093c-2.644.274-3.492.81-3.492 2.206 0 1.566 1.227 2.36 3.648 2.36a6.288 6.288 0 004.543-1.535 3.251 3.251 0 001.073-2.865l.002-1.28zm-30.107 7.898c-4.931 0-8.245-3.12-8.245-7.773 0-4.666 3.415-7.925 8.306-7.925 3.585 0 6.409 1.662 7.55 4.443.533 1.344.78 2.783.723 4.227H67.817l.006.052c.305 2.917 2.515 4.729 5.77 4.729 2.347 0 3.925-.922 4.692-2.74h3.074c-1.487 3.356-4.117 4.987-8.04 4.987zm.029-13.478a5.289 5.289 0 00-5.43 4.174l-.014.06h10.862l-.014-.06a5.232 5.232 0 00-5.404-4.174zM113.136 37.6h-2.839V22.692h2.841v2.194l.078-.078c1.93-1.879 3.388-2.513 5.778-2.513a6.842 6.842 0 014.599 1.54c1.026.91 1.407 2.064 1.407 4.256v9.506h-2.842v-9.293c0-1.494-.234-2.12-1.045-2.776a4.13 4.13 0 00-2.699-.835c-2.912 0-5.282 1.892-5.282 4.217v8.688l.004.002zm-23.5 0h-3.788a1.697 1.697 0 01-1.686-1.697V19.896h-2.63v-2.498h3.785A1.692 1.692 0 0187 19.094v16.005h2.63v2.5l.006.001zM74.599 20.923h-2.206l1.757-3.526h3.857L74.6 20.922zM30.31 52.763h-1.58l-.158-3.581a20.113 20.113 0 01-10.435-7.093 20.08 20.08 0 010-24.415 20.107 20.107 0 0110.435-7.093L28.73 7h1.58l.138 3.15a19.913 19.913 0 0123.428 19.732v.013a1.419 1.419 0 01-1.428 1.403h-14.09a7.09 7.09 0 00-.758.04c-.492.05-.977.15-1.449.298-.23.073-.457.158-.679.255a7.47 7.47 0 00-4.538 6.881l-.355 7.985c1.107.222 2.233.334 3.362.334 7.29 0 14.384-4.587 16.87-10.907h2.039a20.016 20.016 0 01-7.143 9.862 19.656 19.656 0 01-11.768 3.882 20.014 20.014 0 01-3.489-.314l-.14 3.149zM16.888 31.299a17.184 17.184 0 0011.55 14.873l-.329-7.403a7.488 7.488 0 00-.334-2.219 7.43 7.43 0 00-1.593-2.783 7.413 7.413 0 00-4.628-2.411 7.465 7.465 0 00-.871-.057h-3.795zm12.632-5.111a10.35 10.35 0 01-3.674 3.694c1.52.898 2.784 2.17 3.674 3.694a10.35 10.35 0 013.676-3.694 10.336 10.336 0 01-3.676-3.694zm4.42-13.515a16.953 16.953 0 00-3.362.34l.355 7.984a7.441 7.441 0 007.428 7.465h12.632A17.24 17.24 0 0033.94 12.673zm-5.501.918a17.184 17.184 0 00-11.551 14.873h3.793a7.393 7.393 0 005.73-2.72 7.502 7.502 0 001.697-4.75l.33-7.403z" fill="#717171"/></svg>