<svg width="140" height="60" fill="none" xmlns="http://www.w3.org/2000/svg"><g clip-path="url(#clip0_321_20673)"><path fill-rule="evenodd" clip-rule="evenodd" d="M52.74 14c-.285.496-.457 1.267-.874 1.443-2.71 1.145-5.403 2.444-8.234 3.14-2.95.726-6.046.872-9.085 1.194-2.806.298-3.71 1.167-4.166 4.398h15.941l.039.294-1.266.368c.557 1.004.449 2.683 2.755 2.018-5.048 3.043-10.265 2.218-15.238 2.832-1.467.182-2.956.186-4.43.312-.342.029-.836.12-.976.357-.907 1.519-1.736 3.087-2.76 4.947h13.99l.025.381-1.092.209-.006.125h5.557l.053.361-4.943 1.084c.26.228.56.49.68.598-4.704 1.296-9.563 2.574-14.377 4.005-1.251.372-2.077.079-2.718-.877-1.248-1.86-2.412-3.776-3.611-5.669v-1.163c.105-.152.225-.296.312-.457 3.132-5.85 6.244-11.712 9.418-17.539.28-.514.933-1.107 1.457-1.153 4.08-.36 8.168-.624 12.257-.858 2.9-.165 5.806-.237 8.709-.35h2.584zm20.906 14.92v2.332H65.95v2.091c2.389 0 4.736.085 7.07-.042.903-.05 1.778-.581 2.88-.968v3.175H62.545c1.344-3.528 1.337-7.015-.007-10.583h13.05c-.579 1.446-1.596 2.163-3.115 2.165-2.157.003-4.314 0-6.527 0v1.83h7.699z" fill="#717171"/><mask id="a" style="mask-type:alpha" maskUnits="userSpaceOnUse" x="107" y="24" width="15" height="13"><path d="M107.152 24.961h14.775v11.27h-14.775v-11.27z" fill="#fff"/></mask><g mask="url(#a)"><path fill-rule="evenodd" clip-rule="evenodd" d="M110.587 36.173h-3.435c1.151-3.724 1.229-7.377.015-10.982 2.045-.523 3.46-.166 4.775 1.208 1.954 2.043 4.102 3.903 6.408 6.066V25.1h3.577c-.375.912-.718 1.644-.974 2.404-.135.4-.16.851-.162 1.28-.015 2.431-.007 4.863-.007 7.29-1.263.315-2.174.197-3.077-.698-2.226-2.205-4.568-4.293-7.12-6.667v7.465z" fill="#717171"/></g><path fill-rule="evenodd" clip-rule="evenodd" d="M98.896 27.117l-1.541 2.784h3.14l-1.6-2.784zm-9.638 6.277c.294-.218.338-.277.37-.27 2.636.547 3.887-.968 4.875-3.147.782-1.724 1.827-3.329 2.785-4.968.75-1.28 2.494-1.29 3.233-.02 1.176 2.02 2.352 4.042 3.473 6.094.67 1.227 1.257 2.481 3.078 1.937v2.4c-.965 0-1.926.097-2.851-.045-.41-.063-.932-.539-1.086-.95-.672-1.787-1.881-2.449-3.7-2.096a1.63 1.63 0 01-.58 0c-2.04-.358-3.5.226-4.285 2.346-.354.958-2.68 1.11-3.577.35-.586-.497-1.124-1.053-1.735-1.631zm-52.925 6.728l-1.227.88 3.34-.254c.025.259.064.391.035.408-2.958 1.702-5.852 3.532-8.907 5.042-2.102 1.039-4.39.105-5.1-1.677-.53-1.33-.166-2.257 1.184-2.68 2.45-.766 4.903-1.543 7.398-2.145 1.008-.244 2.126-.04 3.194-.04l.083.466zm52.927-4.614H77.819c.275-1.446.65-2.824.772-4.225.132-1.523.03-3.068.03-4.727h-3.61c1.21-2.435 2.433-2.894 5.98-2.25v8.89c1.557 0 2.96.141 4.325-.033 1.888-.242 2.883.857 3.946 2.345zM72.334 21.615c-1.239 2.528-1.78 2.784-4.453 2.106 1.111-2.405 1.516-2.596 4.453-2.106z" fill="#717171"/></g><defs><clipPath id="clip0_321_20673"><path fill="#fff" transform="translate(18 14)" d="M0 0h104.211v32.632H0z"/></clipPath></defs></svg>