<svg width="140" height="60" fill="none" xmlns="http://www.w3.org/2000/svg"><g clip-path="url(#clip0_321_20674)"><path fill-rule="evenodd" clip-rule="evenodd" d="M35.77 43.457V28.41l-3.795-.444 4.196-2.974-.54-.579.391-2.628 2.766-.296 6.89-6.49h6.834l-9.947 9.777c2.554 2.952 8.252 8.9 8.252 8.9v-11.93h4.99v21.698h-4.043L41.748 32.18l-.619.22v11.056h-5.36zm50.087 1.017V22.15h3.785l7.932 11.862c3.135-3.918 5.41-8.066 8.153-11.898h3.963v22.35h-5.347V34.405l-.583-.22-4.526 6.681h-3.095l-4.592-6.803-.555.142v10.267h-5.135z" fill="#717171"/><mask id="a" style="mask-type:alpha" maskUnits="userSpaceOnUse" x="112" y="21" width="25" height="24"><path d="M112.904 21.173h23.704v23.3h-23.704v-23.3z" fill="#fff"/></mask><g mask="url(#a)"><path fill-rule="evenodd" clip-rule="evenodd" d="M124.681 26.218c-3.458.055-6.375 3.186-6.287 6.748.088 3.575 3.164 6.6 6.574 6.463 3.346-.134 6.171-3.167 6.163-6.618-.008-3.566-3.024-6.649-6.45-6.593zm-.033-5.045c7.084.207 11.855 5.031 11.959 11.596.104 6.528-5.182 11.689-11.851 11.705-6.473.015-11.714-5.058-11.849-11.47-.136-6.479 5.093-11.748 11.741-11.831z" fill="#717171"/></g><path fill-rule="evenodd" clip-rule="evenodd" d="M73.633 35.724c-1.003-2.505-1.405-4.792-3.043-6.954l-2.546 6.954h5.589zm-7.583 5.21l-1.522 3.54h-5.612l9.24-22.36h5.358l9.234 22.353h-5.556l-1.627-3.533H66.05zM3.998 22.114h16.579v4.53H9.526v5.177h9.353v4.806H9.424l-.355 7.846H3.998V22.114zm17.486 21.343h-7.123l13.675-13.212h7.049l-13.6 13.212z" fill="#717171"/></g><defs><clipPath id="clip0_321_20674"><path fill="#fff" transform="translate(4 15)" d="M0 0h132.632v29.474H0z"/></clipPath></defs></svg>