<svg width="140" height="60" fill="none" xmlns="http://www.w3.org/2000/svg"><path d="M43.891 31.68h5.179c-.39 1.919-1.868 3.243-3.94 3.243-2.461 0-4.074-1.85-4.074-4.347 0-2.53 1.715-4.38 4.194-4.38 1.612 0 2.869.815 3.48 1.783l1.426-1.257c-.9-1.358-2.801-2.36-4.974-2.36-3.634 0-6.113 2.75-6.113 6.18 0 3.481 2.513 6.215 6.096 6.215 3.43 0 5.993-2.496 5.993-6.826h-7.267v1.75zm9.866-5.008c.628 0 1.138-.51 1.138-1.138 0-.645-.51-1.155-1.138-1.155-.645 0-1.154.51-1.154 1.155 0 .628.509 1.138 1.154 1.138zm-.985 1.103v8.812h1.953v-8.812h-1.953zm7.732-2.411c.357 0 .73.068 1.087.17v-1.579c-.39-.119-.9-.22-1.426-.22-1.494 0-2.853.814-2.853 3.021v1.02H56.26v1.527h1.052v7.284h1.936v-7.284h2.309v-1.528h-2.31v-.747c-.118-1.24.408-1.664 1.257-1.664zm5.149 2.411v-2.564h-1.936v2.564h-1.375v1.528h1.375v7.284h1.936v-7.284h1.952v-1.528h-1.952zm7.013-.187c-2.632 0-4.517 1.987-4.517 4.601 0 2.75 1.97 4.568 4.652 4.568 2.072 0 3.702-1.257 4.177-2.836l-1.715-.187c-.373.764-1.188 1.41-2.445 1.41-1.46 0-2.597-.951-2.716-2.326h7.08c.085-3.362-1.834-5.23-4.516-5.23zm0 1.58c1.443 0 2.461.933 2.512 2.172h-5.076c.102-1.256 1.171-2.173 2.564-2.173zm13.354.22c-.68-1.155-1.901-1.8-3.226-1.8-2.716 0-4.431 1.953-4.431 4.568 0 2.546 1.647 4.6 4.33 4.6 1.612 0 2.835-.764 3.327-1.969v1.8h1.936V23.853H86.02v5.535zm-2.835 5.62c-1.664 0-2.853-1.172-2.853-2.836 0-1.646 1.189-2.818 2.853-2.818 1.647 0 2.818 1.223 2.818 2.818 0 1.613-1.171 2.836-2.818 2.836zm11.615-7.42c-1.357 0-2.325.578-2.885 1.596v-5.33h-1.953v12.733h1.953V31.85c0-1.681.9-2.58 2.309-2.58 1.103 0 2.173.56 2.173 2.444v4.873h1.97v-5.162c0-2.7-1.699-3.837-3.566-3.837zm12.708 1.868v-.068c-.679-1.155-1.901-1.8-3.226-1.8-2.716 0-4.431 1.953-4.431 4.568 0 2.546 1.647 4.6 4.329 4.6 1.613 0 2.836-.764 3.328-1.969v1.8h1.953v-8.812h-1.647l-.306 1.68zm-2.835 5.552c-1.664 0-2.853-1.172-2.853-2.836 0-1.646 1.189-2.818 2.853-2.818 1.647 0 2.818 1.223 2.818 2.818 0 1.613-1.171 2.836-2.818 2.836zm11.683-7.42c-1.409 0-2.394.611-2.937 1.664l-.272-1.477h-1.664v8.812h1.97V31.85c0-1.681.917-2.58 2.309-2.58 1.103 0 2.173.56 2.173 2.444v4.873h1.97v-5.162c0-2.7-1.681-3.837-3.549-3.837zm12.69 1.8c-.679-1.155-1.902-1.8-3.226-1.8-2.716 0-4.431 1.953-4.431 4.568 0 2.546 1.647 4.6 4.329 4.6 1.613 0 2.836-.764 3.328-1.969v1.8h1.935V23.853h-1.935v5.535zm-2.835 5.62c-1.664 0-2.853-1.172-2.853-2.836 0-1.646 1.189-2.818 2.853-2.818 1.646 0 2.818 1.223 2.818 2.818 0 1.613-1.172 2.836-2.818 2.836zm10.139 1.749c2.139 0 3.65-.951 3.65-2.666 0-3.345-5.297-2.292-5.297-4.024 0-.611.645-.985 1.46-.985.968 0 1.579.527 1.681 1.274l1.85-.051c-.068-1.528-1.494-2.7-3.514-2.7-1.868 0-3.362.985-3.362 2.598 0 3.209 5.229 2.207 5.229 3.973 0 .662-.662 1.052-1.629 1.052-1.138 0-1.987-.526-2.089-1.443l-1.901.068c.102 2.02 1.884 2.904 3.922 2.904z" fill="#717171"/><path fill-rule="evenodd" clip-rule="evenodd" d="M17.69 15.457c0 1.165-.81 2.14-1.898 2.393l.237 4.982a4.415 4.415 0 013.67 1.694l4.872-2.274a2.457 2.457 0 11.176 1.003l-4.528 2.113a4.418 4.418 0 01-1.546 5.56v3.742a2.457 2.457 0 012.9 2.9h2.063a2.458 2.458 0 110 .982H21.13a2.453 2.453 0 01-2.936.784l-2.944 3.17a2.457 2.457 0 11-.727-.661l2.858-3.077a2.454 2.454 0 01.31-3.656v-3.69a4.417 4.417 0 01-1.475.25 4.406 4.406 0 01-1.806-.383l-3.402 4.972a2.457 2.457 0 11-4.115 1.538l-2.737-1.895a2.457 2.457 0 11.56-.808l2.497 1.729a2.456 2.456 0 012.955-1.077l3.394-4.96a4.416 4.416 0 01-1.769-3.538c0-.589.116-1.15.324-1.665l-5.062-2.41a2.457 2.457 0 11.59-.808l4.943 2.354a4.43 4.43 0 012.465-1.739l-.243-5.104a2.458 2.458 0 112.88-2.421z" fill="#717171"/></svg>