<svg width="140" height="60" fill="none" xmlns="http://www.w3.org/2000/svg"><path d="M7.662 29.208v2.03h6.202v2.494c0 3.219-.842 3.683-4.715 3.683H7.072c-3.62 0-4.883-.841-4.883-4.698V26.25c0-4.379.646-5.249 4.827-5.249h2.722c3.172 0 4.07.58 4.07 2.871v1.16h2.189v-1.566c0-3.248-2.245-4.466-5.192-4.466H5.697C2.385 19 0 20.537 0 25.989v6.235c0 6.206 2.273 7.221 7.465 7.221h2.133c4.406 0 6.455-1.13 6.455-5.858v-4.379H7.662zm27.072 10.063V37.27h-.421c-1.207 0-1.32-.696-1.32-1.479V33.21c0-2.726-.897-3.683-2.665-3.828v-.087c1.936-.174 2.918-1.972 2.918-4.93 0-2.552-.87-5.22-4.63-5.22h-9.907v20.126h2.19v-8.99h7.015c2.666 0 2.89.928 2.89 3.48v.87c0 2.668-.083 4.64 2.976 4.64h.954zm-3.677-14.616c0 3.422-1.066 3.625-4.21 3.625h-5.949v-7.134h6.764c2.722 0 3.395.957 3.395 3.509zm7.338-3.48h10.3v-2.03H36.177v20.126h12.516v-2h-10.3v-7.396h9.851V28.02h-9.85v-6.844zm14.525 0h10.3v-2.03H50.703v20.126H63.22V37.27h-10.3v-7.395h9.85v-1.856h-9.85v-6.844zm29.794-2.03h-2.189v18.386h-.056L69.552 19.145h-3.62v20.126h2.217v-18.24h.028l10.945 18.24h3.592V19.145zm19.409 0h-2.218v8.874H88.511v-8.874h-2.189v20.126h2.19V30.02h11.394v9.251h2.217V19.145zm16.903 0v14.5c0 3.741-1.571 3.77-5.5 3.77-4.743 0-5.501-.493-5.501-3.77v-14.5h-2.189v14.5c0 5.684 3.452 5.8 7.69 5.8 4.603 0 7.718-.406 7.718-5.8v-14.5h-2.218zm7.848 10.788h7.24c2.919 0 3.312 1.305 3.312 3.944 0 3.074-1.179 3.393-3.564 3.393h-6.988v-7.337zm8.139 9.338c3.311 0 4.602-1.972 4.602-5.597 0-2.494-.421-4.437-3.002-4.93v-.029c2.02-.696 2.441-2.146 2.441-4.263 0-3.509-.87-5.307-4.519-5.307h-9.879v20.126h10.357zm-8.139-18.096h6.651c2.302 0 3.311.29 3.311 2.987 0 3.132-.897 3.77-3.536 3.77h-6.426v-6.757z" fill="#717171"/></svg>