<svg width="140" height="60" fill="none" xmlns="http://www.w3.org/2000/svg"><path d="M21.41 39.067V20h4.378v19.067H21.41zm15.932 0v-8.562c0-1.093-.2-1.834-.597-2.21-.398-.39-1.089-.571-2.049-.571-2.13 0-3.183 1.08-3.183 3.242v8.1h-4.097V24.944h3.91v2.064a4.767 4.767 0 011.919-1.822c.796-.412 1.826-.619 3.09-.619.737 0 1.416.097 2.048.304.632.206 1.17.498 1.627.898.457.401.808.9 1.077 1.482.257.583.398 1.263.398 2.028v9.789h-4.143zm19.906-5.489a5.556 5.556 0 01-.772 2.234 6.51 6.51 0 01-1.557 1.725 7.395 7.395 0 01-2.165 1.117 8.34 8.34 0 01-2.634.4c-1.053 0-2.013-.157-2.89-.473a5.917 5.917 0 01-2.26-1.433c-.632-.644-1.123-1.433-1.463-2.38-.351-.948-.515-2.053-.515-3.316s.176-2.356.515-3.279c.351-.923.831-1.676 1.463-2.259.632-.583 1.393-1.02 2.283-1.311.89-.292 1.884-.425 2.984-.425 1.007 0 1.932.121 2.762.376.832.255 1.557.607 2.178 1.093a5.215 5.215 0 011.463 1.725c.362.668.573 1.42.632 2.234H53.14c-.105-.728-.421-1.3-.96-1.712-.538-.413-1.194-.62-1.966-.62-.445 0-.855.073-1.23.207a2.42 2.42 0 00-.994.68c-.28.316-.515.74-.679 1.263-.164.522-.257 1.178-.257 1.943 0 1.555.304 2.696.913 3.45.608.74 1.31 1.117 2.118 1.117.796 0 1.487-.207 2.048-.608.574-.4.89-.983.984-1.748h4.131zm1.195 5.489V24.943h3.851v1.688c.34-.474.69-.85 1.054-1.118a4.512 4.512 0 012.317-.886c.398-.037.808-.06 1.23-.06h.538v3.813a7.138 7.138 0 00-1.136-.085c-2.505 0-3.757 1.141-3.757 3.412v7.36h-4.097zm12.931-6.461c.059 1.069.41 1.919 1.03 2.55.62.632 1.44.948 2.446.948.667 0 1.264-.134 1.78-.413.514-.28.842-.668.994-1.166h4.226c-.48 1.457-1.323 2.575-2.529 3.364-1.194.79-2.633 1.178-4.295 1.178-5.174 0-7.76-2.562-7.76-7.7 0-1.093.163-2.076.503-2.963.34-.874.82-1.64 1.463-2.27a6.336 6.336 0 012.353-1.446c.924-.34 1.99-.498 3.183-.498 2.4 0 4.214.704 5.443 2.101 1.229 1.397 1.85 3.498 1.85 6.315H71.373zm6.473-2.356c-.024-.522-.117-.971-.305-1.36a2.827 2.827 0 00-1.72-1.543 3.81 3.81 0 00-1.17-.182c-.82 0-1.534.268-2.131.814-.597.547-.936 1.312-1.03 2.283h6.356v-.012zm15.357 8.44a5.43 5.43 0 01-.257-1.263c-.48.498-1.124.899-1.92 1.19-.796.292-1.72.45-2.773.45-1.791 0-3.102-.364-3.933-1.081-.831-.716-1.24-1.652-1.24-2.805 0-1.02.175-1.822.537-2.43a3.788 3.788 0 011.487-1.42c.632-.34 1.381-.595 2.259-.765a58.262 58.262 0 012.856-.45c1.03-.133 1.72-.316 2.083-.534.363-.219.539-.583.539-1.081 0-.462-.234-.814-.714-1.08-.469-.256-1.112-.39-1.908-.39-.948 0-1.627.195-2.037.571-.41.389-.667.887-.772 1.518h-3.816a5.925 5.925 0 01.398-2.016 3.892 3.892 0 011.17-1.578c.539-.438 1.241-.778 2.096-1.02.866-.243 1.907-.365 3.16-.365 1.217 0 2.259.122 3.102.377.854.255 1.533.607 2.048 1.08.515.474.89 1.057 1.123 1.75.235.704.352 1.493.352 2.367v8.927h-3.84v.048zm-.28-6.922c-.211.194-.515.34-.913.462-.398.109-.983.242-1.733.376-1.182.206-1.99.474-2.434.801-.445.328-.667.79-.667 1.41 0 1.056.667 1.578 1.99 1.578.526 0 1.018-.085 1.462-.243a3.814 3.814 0 001.17-.656c.329-.279.586-.607.785-.971.2-.377.304-.765.304-1.19l.036-1.567zm15.239-2.926c-.105-.693-.374-1.178-.818-1.445-.446-.28-1.135-.413-2.084-.413-.784 0-1.381.097-1.803.267-.421.182-.632.485-.632.898 0 .425.211.741.632.96.422.218 1.054.437 1.896.643.879.231 1.721.438 2.528.62.797.182 1.499.376 2.12.583.818.304 1.45.729 1.896 1.25.444.523.666 1.252.666 2.175 0 1.47-.573 2.623-1.72 3.449-1.147.825-2.833 1.238-5.068 1.238-2.399 0-4.237-.461-5.501-1.372-1.276-.923-1.931-2.1-1.966-3.534h4.225c0 .668.281 1.19.854 1.554.573.365 1.358.547 2.365.547.737 0 1.381-.11 1.919-.328.55-.218.819-.595.819-1.13 0-.497-.245-.85-.736-1.056a11.048 11.048 0 00-1.756-.546 59.584 59.584 0 01-3.161-.778c-.796-.23-1.475-.51-2.025-.838-.737-.425-1.24-.898-1.533-1.433a3.701 3.701 0 01-.421-1.748c0-.596.117-1.154.35-1.664.235-.523.61-.96 1.136-1.336.527-.377 1.206-.668 2.037-.875.831-.206 1.837-.315 3.008-.315 2.247 0 3.909.388 4.974 1.178 1.065.789 1.65 1.943 1.756 3.473h-3.957v-.024zm13.193 10.225c-1.264 0-2.387-.182-3.372-.546-.983-.365-1.825-.875-2.504-1.519a6.393 6.393 0 01-1.557-2.356c-.363-.923-.538-1.918-.538-3.011 0-1.106.187-2.126.55-3.049.363-.923.902-1.7 1.592-2.356.69-.656 1.533-1.154 2.505-1.506.983-.352 2.083-.534 3.324-.534 1.217 0 2.318.182 3.277.534a7.16 7.16 0 012.482 1.494 6.584 6.584 0 011.579 2.344c.364.923.55 1.943.55 3.073 0 1.129-.186 2.15-.55 3.06a6.512 6.512 0 01-1.579 2.344c-.68.656-1.511 1.154-2.494 1.506-.983.34-2.071.522-3.265.522zm0-3.133c2.504 0 3.757-1.433 3.757-4.312 0-2.854-1.253-4.274-3.757-4.274-2.505 0-3.757 1.42-3.757 4.274 0 2.879 1.252 4.312 3.757 4.312zm9.365 3.133V24.943h3.85v1.688c.34-.474.691-.85 1.054-1.118a4.721 4.721 0 011.135-.619c.386-.146.784-.23 1.182-.267.398-.037.807-.06 1.229-.06h.538v3.813a7.133 7.133 0 00-1.135-.085c-2.505 0-3.757 1.141-3.757 3.412v7.36h-4.096zM4.471 31.21H0v7.857h4.471v-7.858zm7.117-5.599h-4.47v13.456h4.47V25.611zm7.116-3.692h-4.472v17.148h4.472V21.919z" fill="#717171"/></svg>