<svg width="140" height="60" fill="none" xmlns="http://www.w3.org/2000/svg"><path d="M12.233 18.87a.821.821 0 00-1.233.706v5.098c0 .583.312 1.121.82 1.413l13.276 7.637a5.506 5.506 0 005.487 0l13.276-7.637c.507-.292.82-.83.82-1.413v-5.098a.821.821 0 00-1.233-.706L29.76 26.743a3.854 3.854 0 01-3.841 0L12.233 18.87zm.002 9.8a.822.822 0 00-1.235.706v4.906c0 .581.31 1.118.816 1.41l8.902 5.154a.822.822 0 001.234-.706v-4.906a1.63 1.63 0 00-.816-1.41l-8.901-5.153zm31.209 0a.822.822 0 011.235.706v4.906a1.63 1.63 0 01-.816 1.41l-8.902 5.154a.821.821 0 01-1.235-.706v-4.906c0-.58.311-1.118.816-1.41l8.902-5.153zm9.996 10.578c0 .3.246.544.548.544h2.382a.546.546 0 00.548-.544v-9.974c0-.289.393-.379.52-.119l5.053 10.33a.548.548 0 00.492.307h.63c.209 0 .4-.12.492-.306l5.052-10.33c.127-.26.52-.17.52.118v9.974c0 .3.245.544.548.544h2.382a.546.546 0 00.548-.544V20.745c0-.3-.245-.544-.548-.544h-2.454a.548.548 0 00-.49.302l-6.12 12.215a.275.275 0 01-.49 0l-6.12-12.215a.548.548 0 00-.491-.302h-2.454a.546.546 0 00-.547.544v18.503zm23.832-16.734c0 .3.245.544.547.544h2.628a.546.546 0 00.548-.544v-2.177c0-.3-.245-.544-.548-.544H77.82a.546.546 0 00-.547.544v2.177zm0 16.734c0 .3.245.544.547.544h2.628a.546.546 0 00.548-.544V25.643c0-.3-.245-.544-.548-.544H77.82a.546.546 0 00-.547.544v13.605zm7.8 0c0 .3.245.544.548.544h2.683a.546.546 0 00.547-.544v-6.911c0-.917.1-1.651.302-2.204.21-.554.474-.97.794-1.252.32-.29.662-.485 1.027-.585.364-.1.707-.15 1.026-.15.794 0 1.406.177 1.835.53.438.355.753.794.944 1.32a5.75 5.75 0 01.343 1.579c.037.517.055.943.055 1.278v6.395c0 .3.245.544.547.544h2.683a.546.546 0 00.548-.544v-7.7c0-.245-.018-.635-.055-1.17a9.283 9.283 0 00-.315-1.77 6.037 6.037 0 00-.876-1.877c-.401-.598-.967-1.093-1.698-1.483-.73-.39-1.675-.585-2.834-.585-1.068 0-1.998.177-2.792.531a6.19 6.19 0 00-1.49.925c-.19.161-.509.034-.509-.215v-.261c0-.3-.245-.544-.547-.544H85.62a.546.546 0 00-.548.544v13.605zm25.858.621a.533.533 0 00.448-.529v-2a.564.564 0 00-.623-.552c-.635.06-1.226.073-1.772.038-.722-.045-1.246-.327-1.575-.843-.173-.272-.269-.635-.288-1.089-.009-.462-.013-.98-.013-1.55V28.5c0-.3.245-.544.547-.544h3.177a.546.546 0 00.547-.544v-1.769c0-.3-.245-.544-.547-.544h-3.177a.546.546 0 01-.547-.544v-2.993c0-.3-.246-.545-.548-.545h-2.629a.546.546 0 00-.547.545v2.993c0 .3-.246.544-.548.544h-1.424a.546.546 0 00-.547.544v1.769c0 .3.245.544.547.544h1.424c.302 0 .548.243.548.544v5.061c0 .88.009 1.669.028 2.367.017.69.209 1.37.574 2.04a3.546 3.546 0 001.753 1.565c.775.318 1.652.486 2.628.504.842.023 1.696-.033 2.564-.168zm9.568.331c1.478 0 2.779-.327 3.901-.98a6.946 6.946 0 002.643-2.734c.639-1.17.958-2.517.958-4.04 0-1.515-.315-2.853-.944-4.014a6.93 6.93 0 00-2.643-2.748c-1.123-.662-2.428-.993-3.915-.993-1.461 0-2.752.326-3.875.98a6.947 6.947 0 00-2.642 2.734c-.639 1.16-.958 2.508-.958 4.04 0 1.515.31 2.857.931 4.027a6.97 6.97 0 002.628 2.735c1.123.662 2.428.993 3.916.993zm0-3.456c-1.159 0-2.04-.385-2.643-1.156-.593-.78-.889-1.828-.889-3.143 0-1.279.282-2.312.849-3.102.574-.798 1.468-1.197 2.683-1.197 1.177 0 2.062.39 2.655 1.17.603.78.904 1.823.904 3.13 0 1.26-.296 2.294-.89 3.101-.584.798-1.474 1.197-2.669 1.197z" fill="#717171"/></svg>