<svg width="140" height="60" fill="none" xmlns="http://www.w3.org/2000/svg"><g clip-path="url(#clip0_321_20675)" fill="#717171"><path d="M43.223 27.314c.095.174.164.362.202.558a2.099 2.099 0 01-.285 1.602 2.259 2.259 0 01-.805.728c-.368.167-.77.246-1.172.231a5.528 5.528 0 01-1.36-.207 8.554 8.554 0 01-.982 1.754 9.881 9.881 0 01-1.313 1.49 8.79 8.79 0 01-1.492 1.118 5.444 5.444 0 01-1.492.631c-.473.125-.97.125-1.443 0a1.85 1.85 0 01-.663-.396 1.905 1.905 0 01-.45-.636 3.715 3.715 0 01-.402-1.965 8.336 8.336 0 01.462-2.338 14.03 14.03 0 011.09-2.4c.42-.76.916-1.473 1.478-2.129a8.594 8.594 0 011.691-1.514 3.024 3.024 0 011.658-.585c.209-.016.418.023.608.112s.356.225.482.397c.246.366.392.793.425 1.236.474.747.751 1.607.804 2.497.493.05.99.042 1.48-.023a4.07 4.07 0 001.076-.293c.189-.074.323-.03.403.132zm-4.899 2.666a.216.216 0 00.06-.096.48.48 0 01.037-.097 11.645 11.645 0 01-1.894-.97l-.131-.062a.288.288 0 01-.131-.108 5.728 5.728 0 01-.343-.231 1.926 1.926 0 01-.285-.231.207.207 0 00-.049-.035.182.182 0 01-.048-.035c-.27.438-.507.897-.71 1.371a7.719 7.719 0 00-.451 1.345 2.572 2.572 0 00-.034 1.117c.03.154.097.299.194.422a.95.95 0 00.362.282c.259.06.53.03.77-.085a3.69 3.69 0 00.936-.558c.335-.269.644-.57.924-.898a6.51 6.51 0 00.793-1.13zm-.545-3.321a1.947 1.947 0 000-.377.718.718 0 00-.094-.34.268.268 0 00-.236-.134c-.103 0-.249.097-.44.293a.722.722 0 00-.142.134 3.63 3.63 0 00-.143.181c.316.162.639.316.97.462l.085-.22z"/><path d="M53.401 35.19c.11.015.11.12 0 .315-.144.249-.32.477-.522.678a5.788 5.788 0 01-.91.764 4.97 4.97 0 01-1.16.584 2.67 2.67 0 01-1.076.085 2.437 2.437 0 01-1.218-.497 3.549 3.549 0 01-1.03-1.333 6.33 6.33 0 01-.52-2.4 16.512 16.512 0 01.309-3.699c.348-1.79.834-3.55 1.455-5.262.094-.218.147-.452.154-.69 0-.17-.123-.15-.368.061a5.191 5.191 0 00-.842 1.19c-.39.686-.742 1.395-1.053 2.123-.35.808-.65 1.638-.898 2.485a8.242 8.242 0 00-.38 2.303c-.003.1-.019.198-.048.293a.513.513 0 01-.308.292 2.211 2.211 0 01-1.278.058 2.416 2.416 0 01-.71-.292 2.268 2.268 0 01-.64-.605 2.049 2.049 0 01-.368-1.17 6.674 6.674 0 01.117-1.552c.109-.573.26-1.137.45-1.686a13.82 13.82 0 01.64-1.565 6.74 6.74 0 01.71-1.169c.15-.24.37-.425.628-.532.173-.041.307.08.402.362a4.65 4.65 0 01.072 1.541c.157-.26.367-.587.627-.982.26-.396.552-.8.876-1.213.33-.42.68-.821 1.053-1.202.352-.367.74-.696 1.158-.982.369-.256.78-.44 1.212-.547a1.727 1.727 0 011.173.123.613.613 0 01.26.435c.027.206.027.415 0 .62a4.774 4.774 0 01-.106.62c-.048.195-.088.349-.12.462-.126.452-.276 1.05-.45 1.795a24.297 24.297 0 00-.414 2.377c-.111.857-.166 1.72-.166 2.584a8.973 8.973 0 00.308 2.412c.185.7.535 1.34 1.019 1.868.526.541 1.22.876 1.962.948z"/><path d="M54.464 28.376l.189.085c.1.043.203.079.308.108l.33.097a.957.957 0 00.238.05c.57-.39 1.14-.746 1.711-1.068a29.662 29.662 0 012.93-1.453l.793-.339a.097.097 0 01.072-.023c.078 0 .117.049.117.146a2.937 2.937 0 01-.023.34c-.018.136-.05.27-.094.4-.055.15-.135.29-.237.412-.128.152-.28.28-.451.377-.3.177-.545.315-.733.412a5.97 5.97 0 00-.59.351 18.67 18.67 0 00-.745.535c-.291.218-.682.53-1.173.933.386.318.7.716.924 1.17.184.389.282.815.286 1.247a3.515 3.515 0 01-.391 1.6 6.14 6.14 0 01-.97 1.406 6.71 6.71 0 01-1.244 1.067 3.8 3.8 0 01-1.195.558 4.17 4.17 0 01-.733.073 2.343 2.343 0 01-1.007-.204 2.065 2.065 0 01-.734-.57 2.564 2.564 0 01-.45-.836 3.226 3.226 0 01-.154-1.006 4.172 4.172 0 011.007-2.704 13.117 13.117 0 011.734-1.77l-.285-.096a19.864 19.864 0 01-1.007-.374 3.736 3.736 0 01-.922-.535 2.559 2.559 0 01-.673-.813 2.483 2.483 0 01-.26-1.187V26.5c0-.096.02-.192.035-.292a5.407 5.407 0 01.616-1.807 7.187 7.187 0 011.29-1.722 6.577 6.577 0 011.845-1.286 5.282 5.282 0 012.282-.497c.561-.001 1.12.08 1.658.243.497.122.945.403 1.278.8.265.333.413.747.42 1.176a3.374 3.374 0 01-.828 2.073 6.19 6.19 0 01-2.248 1.733 2.45 2.45 0 01-.57.182 3.273 3.273 0 01-.64.061 4.377 4.377 0 01-1.515-.292.566.566 0 01-.142-.073.168.168 0 01-.071-.146.268.268 0 01.12-.194c.804-.808 1.423-1.422 1.857-1.841.433-.42.65-.767.65-1.044a.464.464 0 00-.094-.292.528.528 0 00-.514-.263 2.05 2.05 0 00-1.052.447c-.44.306-.895.885-1.367 1.736a3.566 3.566 0 00-.545 1.673c0 .647.323 1.148.967 1.502zm.828 4.85a3.31 3.31 0 00.38-1.356c0-.598-.159-.898-.474-.898a1.017 1.017 0 00-.59.255 3.938 3.938 0 00-1.125 1.406 1.786 1.786 0 00-.2.74 3.164 3.164 0 00.095.666c.026.12.08.232.154.328a.317.317 0 00.248.134 1.176 1.176 0 00.856-.4c.258-.258.48-.55.659-.872l-.003-.002z"/><path d="M71.718 22.566a.435.435 0 01.165.389 1.03 1.03 0 01-.225.462 2.819 2.819 0 01-.745.605c-.415.252-.85.467-1.3.643a22.82 22.82 0 01-1.647.558c-.591.178-1.214.327-1.868.448-.655.13-1.314.235-1.977.315-.222.552-.404 1.12-.545 1.699-.18.709-.31 1.43-.391 2.158-.088.76-.104 1.528-.049 2.292.044.722.198 1.433.457 2.107.243.62.635 1.166 1.14 1.588a3.39 3.39 0 001.978.728c.095 0 .103.097.023.292a2.722 2.722 0 01-.462.693 6.06 6.06 0 01-.856.801 4.612 4.612 0 01-1.102.643 2.11 2.11 0 01-.733.085 2.795 2.795 0 01-.98-.23 3.882 3.882 0 01-1.054-.667 4.369 4.369 0 01-.941-1.196 6.379 6.379 0 01-.64-1.819 9.797 9.797 0 01-.13-2.581c.015-.355.046-.718.094-1.09.047-.373.102-.72.165-1.044.063-.324.122-.616.177-.877.055-.262.107-.476.154-.644.048-.177.107-.383.177-.62l.214-.716.214-.728c.07-.241.138-.452.203-.631a4.97 4.97 0 01-.571.134c-.218.041-.44.058-.662.05a2.01 2.01 0 01-.65-.134 1.31 1.31 0 01-.554-.41 1.303 1.303 0 01-.237-.763 2.601 2.601 0 01.12-.932c.078-.265.23-.501.437-.679a.562.562 0 01.699 0c.176.112.369.194.57.243.233.064.47.11.71.135.221.025.444.017.663-.024a.751.751 0 00.45-.23c.34-.876.75-1.72 1.23-2.524.38-.63.814-1.226 1.295-1.78a3.06 3.06 0 01.756-.643.91.91 0 01.496-.135c.189.008.374.053.545.135a.916.916 0 01.485.546c.095.26 0 .773-.285 1.541-.285.768-.7 1.734-1.244 2.897a20.517 20.517 0 001.729-.158c.521-.072.978-.132 1.372-.18.474-.08.903-.162 1.29-.244.386-.081.713-.162.98-.242a7.84 7.84 0 00.86-.266z"/><path d="M76.832 26.015c.07.11.132.223.188.34.049.113.094.242.143.388.048.15.072.305.071.462-.036.381-.153.75-.342 1.079a12.081 12.081 0 01-.899 1.491c-.38.534-.798 1.088-1.255 1.66a21.443 21.443 0 01-1.426 1.603c-.447.457-.924.883-1.427 1.274-.37.3-.78.546-1.218.728-.416.16-.857.243-1.3.243a2.839 2.839 0 01-1.493-.38 2.55 2.55 0 01-.97-.982 3 3 0 01-.308-.848 4.677 4.677 0 01-.094-.947 7.3 7.3 0 01.285-1.904 11.84 11.84 0 01.745-2 13.88 13.88 0 011.09-1.89 10.76 10.76 0 011.3-1.577 7.023 7.023 0 011.395-1.09 2.7 2.7 0 011.35-.412h.094c.694.033 1.188.182 1.48.447a1.334 1.334 0 01.437 1.035 3.66 3.66 0 01-.57 1.771c-.39.681-.854 1.314-1.384 1.886a10.734 10.734 0 01-1.775 1.553 4.696 4.696 0 01-1.68.8.927.927 0 00-.048.293v.316a2.85 2.85 0 00.13.877.854.854 0 00.463.547.48.48 0 00.188.023c.289-.023.566-.124.805-.293a7.918 7.918 0 001.007-.757 15.5 15.5 0 001.124-1.09c.38-.413.76-.83 1.141-1.248a68.695 68.695 0 002.753-3.398zm-4.964-.023a7.173 7.173 0 00-.57.655c-.19.26-.396.551-.617.877-.22.325-.418.663-.593 1.011-.187.347-.354.705-.502 1.07a8.682 8.682 0 001.255-.994c.391-.369.762-.76 1.113-1.169a4.11 4.11 0 00.616-.877 1.54 1.54 0 00.188-.632c0-.226-.086-.339-.26-.339a1.03 1.03 0 00-.63.398z"/><path d="M83.763 25.647a5.821 5.821 0 01-.745 1.699 2.25 2.25 0 01-.856.813.542.542 0 01-.684-.12c-.19-.195-.266-.563-.226-1.103.017-.16.037-.292.06-.424.02-.096.032-.194.034-.292 0-.073-.023-.105-.071-.096a.652.652 0 00-.237.158 5.57 5.57 0 00-.887 1.236c-.41.707-.773 1.44-1.09 2.196-.36.838-.666 1.7-.918 2.578a8.835 8.835 0 00-.38 2.377.92.92 0 01-.06.293.565.565 0 01-.32.292c-.195.07-.398.115-.604.134a2.034 2.034 0 01-.722-.061 2.837 2.837 0 01-.744-.316 2.1 2.1 0 01-.65-.631 2.263 2.263 0 01-.38-1.202c-.03-.537.01-1.075.117-1.602a13.6 13.6 0 01.462-1.754c.181-.554.403-1.093.662-1.614a8.46 8.46 0 01.733-1.225 1.31 1.31 0 01.65-.558c.19-.041.332.088.425.389.109.521.133 1.058.072 1.587a110 110 0 01.65-1.017 16.987 16.987 0 011.988-2.497 7.75 7.75 0 011.196-1.032 3.466 3.466 0 011.244-.558c.41-.09.836-.042 1.218.134a.623.623 0 01.26.45c.027.214.027.43 0 .643a5.232 5.232 0 01-.106.644 3.65 3.65 0 01-.091.48zm5.114-4.752h4.356a10.67 10.67 0 011.74.137c.557.083 1.09.282 1.57.585.477.31.87.74 1.14 1.248.317.659.465 1.39.428 2.123a3.246 3.246 0 01-.681 2.046 3.336 3.336 0 01-2.029 1.17v.043c.473.038.936.16 1.367.363a3.413 3.413 0 011.752 1.956c.167.477.25.98.245 1.488a4.217 4.217 0 01-.502 2.178 3.89 3.89 0 01-1.261 1.324 4.763 4.763 0 01-1.643.658 8.56 8.56 0 01-1.655.175h-4.827V20.895zm1.41 6.695h2.923a4.829 4.829 0 001.763-.272 3.05 3.05 0 001.067-.667 1.99 1.99 0 00.514-.842 3.158 3.158 0 00-.14-2.166 2.257 2.257 0 00-.705-.857 2.851 2.851 0 00-1.047-.447 5.85 5.85 0 00-1.26-.132h-3.119l.003 5.383zm0 7.484h3.223a5.41 5.41 0 001.997-.292c.44-.161.838-.423 1.164-.766.256-.284.441-.625.542-.997a3.59 3.59 0 00.14-.93 3.133 3.133 0 00-.32-1.462 2.906 2.906 0 00-.833-.997 3.407 3.407 0 00-1.164-.558 5.049 5.049 0 00-1.312-.175h-3.44l.002 6.177zm15.393-5.359l-5.551-8.82h1.692l4.564 7.352 4.676-7.352h1.58l-5.551 8.82v6.674h-1.41v-6.674zm14.397-7.513h-5.169v-1.307h11.731v1.307h-5.155V36.38h-1.407V22.2zm8.902-1.307h9.244v1.307h-7.835v5.522h7.345v1.313h-7.345v6.028h8.179v1.313h-9.588V20.895zM35.83 38.309c-.1-.082-.243-.053-.423.094a2.46 2.46 0 01-.896.446 2.425 2.425 0 01-.995.05 3.538 3.538 0 01-1.59-.789 4.715 4.715 0 01-1.451-2.014 13.33 13.33 0 01-.725-2.757 17.411 17.411 0 01-.211-2.742c0-.927.045-1.853.137-2.775a31.02 31.02 0 01.38-2.648 54.29 54.29 0 01.513-2.433 43.88 43.88 0 011.643-5.19c.06-.206.122-.423.183-.651.096-.382.147-.775.15-1.17l.032-.061a.697.697 0 00-.123-.333.674.674 0 00-.27-.225 1.278 1.278 0 00-.828-.074 5.04 5.04 0 00-1.498.606 13.699 13.699 0 00-2.567 1.938 31.273 31.273 0 00-2.676 2.85 45.338 45.338 0 00-2.585 3.424 40.922 40.922 0 00-2.253 3.672 35.334 35.334 0 00-1.695 3.564 15.643 15.643 0 00-.939 3.084 4.775 4.775 0 01-.816-1.462 10.003 10.003 0 01-.453-1.845 13.852 13.852 0 01-.12-2.923 26.01 26.01 0 01.348-2.976 30.83 30.83 0 01.62-2.79c.24-.884.473-1.674.695-2.37l.545-1.69c.094-.25.165-.51.211-.775a.667.667 0 00-.285-.465c-.162-.124-.475-.165-.939-.122a12.95 12.95 0 00-2.647.543c-1.06.326-2.1.716-3.115 1.17a36.308 36.308 0 00-3.207 1.61 25.896 25.896 0 00-2.853 1.86 15.525 15.525 0 00-2.116 1.892 3.465 3.465 0 00-.967 1.736 2.548 2.548 0 00.348 1.827c.264.42.638.758 1.078.974a.505.505 0 00.468.061c.093-.05.18-.113.257-.187a23.436 23.436 0 012.404-2.99 28.513 28.513 0 012.616-2.433 27.034 27.034 0 012.63-1.906 41.499 41.499 0 012.451-1.441 30.301 30.301 0 00-1.874 2.82 42.093 42.093 0 00-3.22 6.783 29.787 29.787 0 00-1.028 3.301 14.085 14.085 0 00-.422 2.804 3.982 3.982 0 00.348 2c.185.352.438.663.742.915.27.224.57.407.893.543.29.12.595.194.907.217.264.024.53.003.787-.062a.63.63 0 00.485-.292.566.566 0 00.091-.371 33.98 33.98 0 01.212-5.61c.204-1.684.517-3.35.938-4.991a33.735 33.735 0 00-.256 3.3c-.034 1.015.006 2.03.12 3.038.091.855.274 1.697.544 2.511a4.047 4.047 0 001.013 1.69c.359.388.815.666 1.318.805.503.14 1.034.134 1.535-.015.465-.14.9-.366 1.286-.667.39-.298.746-.641 1.059-1.023.155-.226.283-.47.38-.728a35.985 35.985 0 00.906-2.395l.286-.877a37.365 37.365 0 013.277-7.346 50.383 50.383 0 013.738-5.532 32.243 32.243 0 00-1.284 3.108 35.978 35.978 0 00-1.058 3.578 33.783 33.783 0 00-.697 3.86 23.434 23.434 0 00-.15 3.935c.028 1.59.294 3.168.787 4.677a7.237 7.237 0 002.056 3.193 3.954 3.954 0 001.952.99 4.154 4.154 0 001.891-.122 4.885 4.885 0 001.678-.915c.495-.4.945-.858 1.34-1.362a6.34 6.34 0 00.856-1.462c.184-.387.282-.81.286-1.24a.54.54 0 00-.183-.216l-.006-.006z"/></g><defs><clipPath id="clip0_321_20675"><path fill="#fff" transform="translate(2 15)" d="M0 0h136.842v29.474H0z"/></clipPath></defs></svg>