<svg width="140" height="60" fill="none" xmlns="http://www.w3.org/2000/svg"><path d="M8.812 22.003l.461.05a8.369 8.369 0 014.077 1.543c.015.012.03.025.043.039-.024.028-.046.056-.07.08-.744.748-1.49 1.496-2.24 2.244a.14.14 0 01-.15.048.136.136 0 01-.049-.027 5.085 5.085 0 00-6.084.876 4.938 4.938 0 00-1.45 3.434 5.009 5.009 0 003.734 5.018c1.877.484 3.553.048 4.938-1.314 2.05-2.012 4.077-4.061 6.107-6.102a3.373 3.373 0 011.805-.967 3.554 3.554 0 013.1.823c-.046.028-.09.06-.132.094l-8.524 8.52a8.447 8.447 0 01-9.59 1.646c-2.145-1.029-3.6-2.697-4.362-4.955a8.406 8.406 0 012.03-8.58 8.307 8.307 0 014.836-2.393c.206-.03.418-.039.626-.06a.924.924 0 00.103-.02l.791.003z" fill="#717171"/><path d="M21.054 22.003c.206.024.421.044.63.071a8.23 8.23 0 014.437 1.948c1.535 1.32 2.497 2.984 2.816 4.979.428 2.693-.26 5.088-2.098 7.115a8.053 8.053 0 01-5.004 2.625c-2.23.308-4.275-.199-6.119-1.5-.013-.008-.024-.02-.047-.038.029-.031.053-.062.081-.09.745-.743 1.489-1.488 2.232-2.234a.135.135 0 01.093-.056.137.137 0 01.104.03c2.484 1.358 5.579.476 6.917-1.984 1.626-2.99-.023-6.748-3.458-7.42-1.763-.346-3.321.133-4.603 1.4a840.97 840.97 0 00-6.108 6.105 3.382 3.382 0 01-1.92.982 3.551 3.551 0 01-2.818-.72c-.029-.022-.057-.047-.085-.07l-.05-.04.095-.103c2.873-2.87 5.747-5.74 8.623-8.61a8.106 8.106 0 014.479-2.262c.309-.053.628-.07.942-.103a.354.354 0 00.07-.02l.791-.005zm118.944 4.248c-.104 0-.206.026-.31.026h-4.931v10.451h-2.295V26.28h-5.205v-2.29h12.459c.095 0 .189.016.284.025l-.002 2.236zm-82.877 2.332v2.293h-8.173c0 .868-.035 1.735 0 2.57.032.582.566.979 1.182.98h9.247v2.29H50.12a3.419 3.419 0 01-3.46-3.415 450.548 450.548 0 010-5.928 3.433 3.433 0 013.445-3.41h9.282v2.288h-9.145c-.833 0-1.302.471-1.302 1.302v1.03h8.18zm27.157 2.273c.991 1.97 1.974 3.92 2.97 5.902h-2.445c-.076 0-.174-.121-.217-.216a576.44 576.44 0 01-1.518-2.96c-.241-.468-.48-.938-.72-1.409-.386-.753-.994-1.213-1.838-1.26-.802-.046-1.61-.011-2.446-.011v5.835h-2.287V24.013h7.998c1.809 0 3.319 1.332 3.46 3.05.154 1.887-1.026 3.446-2.86 3.772l-.097.021zm-6.21-2.256h5.65a1.47 1.47 0 00.51-.078 1.15 1.15 0 00-.434-2.225h-5.49c-.073 0-.15 0-.234.015l-.002 2.288zm36.48-4.587h8.049a3.412 3.412 0 013.393 3.01 3.458 3.458 0 01-2.464 3.714c-.15.041-.302.07-.497.113.991 1.963 1.976 3.92 2.976 5.902h-2.447c-.071 0-.167-.104-.206-.184-.75-1.454-1.501-2.907-2.238-4.367-.389-.765-.996-1.232-1.848-1.284-.801-.05-1.608-.01-2.443-.01v5.838h-2.275V24.014zm2.28 4.594h5.687a1.162 1.162 0 001.221-1.147c0-.675-.503-1.157-1.225-1.159h-5.683v2.306zm-82.457.083v8.043h-2.268V24.026l10.433 8.036v-8.084h2.282V36.74l-10.447-8.05zm67.026 1.655a6.382 6.382 0 01-7.638 6.251 6.38 6.38 0 011.293-12.633 6.353 6.353 0 016.345 6.382zm-2.289 0a4.09 4.09 0 10-2.534 3.77 4.096 4.096 0 002.534-3.78v.01zm-27.422-6.371h2.28a.692.692 0 01.018.104c0 2.184.032 4.369-.016 6.55-.06 2.89-2.269 5.436-5.1 5.972a6.375 6.375 0 01-7.504-4.95 5.445 5.445 0 01-.128-1.108c-.013-2.113 0-4.228 0-6.343v-.216h2.29v6.396a4.087 4.087 0 008.121.618c.035-.24.053-.482.055-.724v-5.954l-.016-.345zm28.758 12.741c2.169-4.256 4.323-8.477 6.508-12.763l6.507 12.763h-2.336a.32.32 0 01-.336-.206 1698.28 1698.28 0 00-3.363-6.59l-.47-.917-.469.909a4571.76 4571.76 0 00-3.362 6.59.337.337 0 01-.356.216c-.761-.008-1.522-.002-2.323-.002z" fill="#717171"/></svg>