<svg width="140" height="60" fill="none" xmlns="http://www.w3.org/2000/svg"><mask id="a" style="mask-type:alpha" maskUnits="userSpaceOnUse" x="4" y="21" width="133" height="18"><path fill="#D9D9D9" d="M4 21h132.289v18H4z"/></mask><g mask="url(#a)"><path fill-rule="evenodd" clip-rule="evenodd" d="M51.976-39.125c-1.198.13-2.401.365-3.63.709l-.59.165v4.654c0 2.56.022 4.642.048 4.629 1.738-.893 3.136-1.361 4.736-1.588.86-.123 2.86-.11 3.703.024 1.46.23 3.034.742 4.2 1.366l.537.287 3.083-3.084c1.696-1.696 3.084-3.1 3.084-3.12 0-.047-1.441-.994-2.01-1.32-2.563-1.468-5.493-2.402-8.547-2.726-1.104-.117-3.523-.115-4.614.004zm32.233-.068c-.07.012-.443.056-.83.096-3.949.417-7.845 2.05-11.159 4.679-.42.334-4.636 4.501-12.297 12.156-6.411 6.406-11.65 11.67-11.64 11.696.008.027.243.22.52.428.957.716 2.393 1.353 3.673 1.629.671.144 2.261.197 3.031.1 1.137-.143 2.395-.542 3.284-1.04 1.053-.59 1.138-.672 10.014-9.523 5.453-5.438 8.89-8.819 9.198-9.047a13.601 13.601 0 016.174-2.537c.867-.123 2.799-.11 3.668.026 2.355.366 4.567 1.332 6.346 2.77.966.781 2.172 2.124 2.821 3.144.957 1.5 1.657 3.406 1.935 5.263.14.938.14 2.702-.001 3.636-.33 2.199-1.091 4.115-2.311 5.82-2.058 2.88-5.095 4.755-8.67 5.355-.946.158-3.154.159-4.075 0a13.92 13.92 0 01-3.95-1.293l-.698-.352-3.082 3.081C74.466-1.41 73.08-.009 73.08.01c0 .053 1.507 1.032 2.15 1.395a21.883 21.883 0 007.513 2.554c6.577.952 13.185-1.081 17.966-5.528 5.589-5.199 8.017-12.81 6.496-20.368-1.7-8.455-8.394-15.153-16.856-16.867-1.537-.311-2.144-.369-4.13-.39-1.035-.012-1.939-.011-2.009.001zm.346 12.565c-1.54.252-2.857.779-4.045 1.616-.176.124-4.223 4.12-8.994 8.88-8.934 8.915-9.111 9.084-10.374 9.85-.759.46-1.728.9-2.67 1.211-1.585.525-2.95.72-4.621.658-2-.073-3.706-.505-5.444-1.377l-.65-.327v9.31l.448.134c2.163.644 4.936.962 7.244.83 4.806-.275 8.983-1.885 12.718-4.903.426-.344 4.893-4.76 12.26-12.123C90.972-23.404 92.01-24.461 91.924-24.557c-.214-.237-1.15-.856-1.764-1.168a9.294 9.294 0 00-2.309-.813c-.774-.168-2.524-.217-3.295-.09zM16.821 26.516c0 2.719-.015 4.944-.033 4.944-.018 0-2.608-1.986-5.757-4.413L4.654 22.13 4 21.627v15.639h2.806l.016-4.938.016-4.936 2.935 2.264c6.658 5.138 9.792 7.545 9.822 7.545.018 0 .032-3.517.032-7.815v-7.815h-2.806v4.945zm8.367-4.847c-1.44.313-2.627 1.403-3.123 2.869l-.172.51-.02 4.112c-.022 4.696-.02 4.712.47 5.727.473.982 1.381 1.775 2.45 2.14l.415.142 6.14.018 6.139.017v-2.81H25.766l-.342-.178a1.237 1.237 0 01-.534-.49l-.192-.31-.019-1.68-.019-1.68h10.084V27.25H24.666v-.813c0-.448.032-.928.07-1.069.09-.327.595-.827.93-.92.164-.046 2.146-.068 6.032-.068h5.789v-2.81l-5.948.005c-4.783.005-6.027.023-6.35.093zm14.546 4.416l.021 4.514.166.605c.456 1.664 1.165 2.873 2.3 3.925 1.469 1.359 3.297 2.072 5.312 2.072 2.146 0 4.003-.77 5.523-2.29.92-.921 1.524-1.894 1.913-3.085.37-1.13.378-1.259.378-5.957v-4.298h-2.801l-.02 4.386-.02 4.386-.149.447c-.348 1.044-.985 1.979-1.738 2.55-1.555 1.178-3.606 1.383-5.319.53-1.214-.604-2.186-1.771-2.592-3.112-.144-.474-.146-.516-.167-4.832l-.02-4.355h-2.808l.021 4.514zm40.616-4.48c-.052.01-.31.054-.574.096-1.058.171-2.398.75-3.28 1.415-2.561 1.93-3.698 5.153-2.908 8.243.751 2.94 3.229 5.223 6.234 5.747.706.123 1.955.122 2.672-.004 3.185-.555 5.685-3.006 6.338-6.212.16-.78.172-2.035.03-2.85-.65-3.734-3.969-6.501-7.746-6.46a10.24 10.24 0 00-.766.025zm-22.835 7.843v7.817h2.87v-7.209h1.388c.763.001 1.571.031 1.796.068.597.097 1.063.342 1.5.789.347.355.505.635 1.893 3.354l1.514 2.966 1.568.017c.862.01 1.568.007 1.568-.007 0-.013-.818-1.644-1.817-3.625l-1.816-3.6.397-.08c1.114-.225 2.261-1.124 2.778-2.18.388-.79.478-1.218.444-2.102-.046-1.178-.401-2.003-1.207-2.803a4.066 4.066 0 00-1.596-1.015l-.468-.17-5.406-.018-5.406-.018v7.816zm35.018-1.483l-3.963 7.782-.741 1.456 1.561-.017 1.561-.017 2.402-4.704c1.32-2.587 2.415-4.704 2.433-4.703.017 0 .963 1.83 2.1 4.066a889.337 889.337 0 002.413 4.72l.346.653h1.53c1.151 0 1.525-.019 1.506-.075-.055-.165-7.865-15.486-7.895-15.487-.018-.001-1.481 2.846-3.253 6.326zm12.566 1.485v7.815h2.742v-7.209h1.589c1.732 0 2.029.046 2.642.405.622.365.807.657 2.424 3.825l1.52 2.98h3.104l-1.812-3.597c-.997-1.977-1.813-3.611-1.813-3.631 0-.02.165-.07.367-.112.845-.173 1.828-.793 2.35-1.484.825-1.09 1.103-2.458.761-3.745-.285-1.073-1.138-2.11-2.138-2.598-.961-.47-.882-.464-6.631-.464h-5.105v7.815zm15.563-6.444v1.371l3.205.017 3.205.016.017 6.396.016 6.395h2.742V24.378h6.378v-2.743h-15.563v1.371zm-38.63 1.468a4.603 4.603 0 011.848.738c.565.377.84.625 1.217 1.1.639.804.988 1.753 1.04 2.822.057 1.187-.185 2.066-.845 3.062a4.919 4.919 0 01-3.156 2.106c-.708.144-1.759.1-2.392-.1-1.488-.47-2.684-1.562-3.243-2.96-.187-.465-.36-1.352-.36-1.836 0-1.302.54-2.58 1.493-3.534 1.196-1.197 2.74-1.687 4.398-1.398zm33.469.04c.477.217.887.834.887 1.335 0 .482-.359 1.023-.861 1.294-.252.136-.3.138-3.97.156l-3.716.019V25.89c0-.785.02-1.448.045-1.472.025-.025 1.697-.037 3.716-.027 3.231.016 3.698.03 3.899.122zm-47.539.027a1.408 1.408 0 01.35 2.385c-.132.11-.34.228-.464.263-.134.038-1.67.07-3.843.078l-3.62.014v-2.839h3.67c3.173 0 3.702.014 3.907.1z" fill="#717171"/></g></svg>