<svg width="140" height="60" fill="none" xmlns="http://www.w3.org/2000/svg"><g clip-path="url(#clip0_321_20679)" fill-rule="evenodd" clip-rule="evenodd" fill="#717171"><path d="M51.164 29.99c.087-7.227-4.467-11.965-11.583-12.051-7.023-.085-11.713 4.55-11.825 11.684-.115 7.38 4.323 12.027 11.598 12.141 7.156.112 11.723-4.44 11.81-11.774zM41.6 13.007c1.447.45 2.946.773 4.331 1.37 7.242 3.12 11.317 11.05 9.734 18.804-1.63 7.984-8.393 13.56-16.379 13.503-7.779-.055-14.468-5.76-15.993-13.633-.07-.365-.19-.72-.288-1.079v-4.246c.097-.359.21-.714.29-1.078 1.33-6.117 4.84-10.35 10.567-12.618 1.148-.455 2.381-.688 3.575-1.023H41.6zm76.138 24.673c-2.154.453-3.725-.168-4.788-2.249-.688-1.348-1.726-2.515-2.722-3.926-1.13 1.604-2.296 2.97-3.129 4.517-.938 1.744-2.265 1.948-4.136 1.573l5.774-8.077-5.359-7.481c1.947-.445 3.325-.072 4.301 1.63.736 1.284 1.694 2.44 2.657 3.801.943-1.318 1.883-2.434 2.598-3.68.956-1.67 2.274-2.236 4.289-1.759l-5.486 7.47 6.001 7.9v.281zM73.62 29.894c-.33-1.128-.517-2.324-1.017-3.367-.972-2.033-3.173-2.905-5.274-2.277-2.043.612-3.347 2.5-3.492 5.057-.164 2.888.949 5.177 2.944 5.984.413.168.87.272 1.314.312 3.166.283 5.29-1.981 5.524-5.71zm-5.097 7.926c-4.493-.028-7.27-3.057-7.279-7.943-.009-4.861 2.915-8.025 7.404-8.013 4.455.013 7.413 3.25 7.371 8.067-.043 4.895-2.913 7.917-7.496 7.889zm24.972-2.2h8.593c.072 1.792-.23 2.183-1.686 2.191-3.168.017-6.336.005-9.603.005V21.864h11.146c.12 1.873-.21 2.25-1.901 2.256-2.164.008-4.328.002-6.56.002v4.35h7.908v2.252h-7.897v4.896zm-4.758-13.756c.316 1.304.01 2.312-.81 3.333-2.669 3.318-5.237 6.717-8.038 10.337h9.114c.206 1.9-.087 2.274-1.708 2.28-3.407.011-6.814.003-10.261.003-.308-1.269-.123-2.244.662-3.238 2.672-3.383 5.258-6.835 8.067-10.508H77.3v-2.207h11.437z"/><path d="M40.389 35.04V21.9c1.405-.248 3.88.843 5.106 2.58a10.43 10.43 0 011.37 2.685c.871 2.637.665 3.128-1.596 4.762-.757.547-1.52 1.086-2.271 1.64-.709.524-1.404 1.062-2.106 1.594l-.503-.12zm-2.612-10.516V37.82c-2.643-.301-4.894-2.34-5.637-5.086-.048-.18-.05-.373-.108-.547-.583-1.756-.576-3.204 1.343-4.295 1.504-.855 2.784-2.107 4.402-3.368zm0-2.66l-4.345 3.546c.785-2.047 2.194-3.28 4.345-3.546zm3.481 15.956l4.345-3.546c-.713 2.137-2.22 3.257-4.345 3.546z"/><path d="M51.164 29.982c.087-7.227-4.467-11.965-11.583-12.05-7.023-.085-11.713 4.549-11.825 11.683-.115 7.382 4.323 12.028 11.598 12.142 7.156.112 11.723-4.441 11.81-11.775zM41.6 13c1.447.45 2.946.772 4.331 1.37 7.242 3.12 11.317 11.05 9.734 18.804-1.63 7.984-8.393 13.559-16.379 13.503-7.779-.055-14.468-5.76-15.993-13.633-.07-.365-.19-.72-.288-1.08V27.72c.097-.36.21-.715.29-1.078 1.33-6.117 4.84-10.35 10.567-12.618 1.148-.456 2.381-.688 3.575-1.023H41.6zm76.138 24.673c-2.154.453-3.725-.168-4.788-2.25-.688-1.347-1.726-2.515-2.722-3.925-1.13 1.604-2.296 2.97-3.129 4.516-.938 1.744-2.265 1.949-4.136 1.574l5.774-8.077-5.359-7.482c1.947-.445 3.325-.071 4.301 1.63.736 1.285 1.694 2.442 2.657 3.802.943-1.318 1.883-2.434 2.598-3.681.956-1.67 2.274-2.235 4.289-1.758l-5.486 7.47 6.001 7.9v.281zM73.62 29.886c-.33-1.127-.517-2.323-1.017-3.367-.972-2.032-3.173-2.905-5.274-2.276-2.043.612-3.347 2.5-3.492 5.057-.164 2.888.949 5.176 2.944 5.984.413.168.87.272 1.314.311 3.166.284 5.29-1.98 5.524-5.709zm-5.097 7.927c-4.493-.028-7.27-3.058-7.279-7.944-.009-4.86 2.915-8.025 7.404-8.012 4.455.013 7.413 3.249 7.371 8.067-.043 4.895-2.913 7.917-7.496 7.889zm24.972-2.2h8.593c.072 1.791-.23 2.183-1.686 2.19-3.168.017-6.336.006-9.603.006V21.857h11.146c.12 1.873-.21 2.249-1.901 2.255-2.164.009-4.328.002-6.56.002v4.35h7.908v2.252h-7.897v4.897zm-4.758-13.756c.316 1.304.01 2.312-.81 3.332-2.669 3.319-5.237 6.718-8.038 10.338h9.114c.206 1.9-.087 2.274-1.708 2.28-3.407.011-6.814.003-10.261.003-.308-1.269-.123-2.245.662-3.238 2.672-3.383 5.258-6.835 8.067-10.508H77.3v-2.207h11.437z"/><path d="M40.389 35.033V21.892c1.405-.247 3.88.844 5.106 2.581a10.43 10.43 0 011.37 2.685c.871 2.637.665 3.128-1.596 4.761-.757.547-1.52 1.087-2.271 1.641-.709.523-1.404 1.062-2.106 1.593l-.503-.12zm-2.612-10.517v13.297c-2.643-.302-4.894-2.341-5.637-5.087-.048-.179-.05-.372-.108-.547-.583-1.756-.576-3.203 1.343-4.294 1.504-.855 2.784-2.107 4.402-3.369zm0-2.659l-4.345 3.546c.785-2.048 2.194-3.28 4.345-3.546zm3.481 15.956l4.345-3.546c-.713 2.137-2.22 3.256-4.345 3.546z"/></g><defs><clipPath id="clip0_321_20679"><path fill="#fff" transform="translate(23 13)" d="M0 0h94.737v33.684H0z"/></clipPath></defs></svg>