<svg width="140" height="60" fill="none" xmlns="http://www.w3.org/2000/svg"><path d="M53.708 37.664a4.82 4.82 0 01-1.652.988 5.136 5.136 0 01-1.883.358 3.843 3.843 0 01-2.259-.715c-.69-.484-1.213-1.136-1.63-1.956-1.193-.042-2.28-.336-3.243-.904a6.175 6.175 0 01-2.258-2.27c-.544-.947-.816-2.02-.816-3.176 0-1.177.293-2.25.857-3.196a6.104 6.104 0 012.364-2.25c1.004-.546 2.112-.82 3.346-.82s2.343.274 3.346.82a6.097 6.097 0 012.364 2.25c.565.947.857 2.019.857 3.196 0 1.346-.355 2.545-1.066 3.575a6.004 6.004 0 01-2.866 2.27c.419.505.879.758 1.36.758.272 0 .606-.084.962-.252a6.89 6.89 0 001.108-.652l1.109 1.976zM43.69 31.84c.313.546.71.988 1.213 1.303a3.09 3.09 0 001.652.484 3.09 3.09 0 001.652-.484c.502-.315.9-.757 1.193-1.303a3.825 3.825 0 00.439-1.83 3.79 3.79 0 00-.44-1.808 3.408 3.408 0 00-1.192-1.304 3.018 3.018 0 00-1.652-.462 3.14 3.14 0 00-1.673.462 3.17 3.17 0 00-1.213 1.304 3.788 3.788 0 00-.44 1.808c0 .673.168 1.283.46 1.83zm14.431 1.093c.44.463 1.025.694 1.715.694.69 0 1.234-.231 1.653-.694.418-.462.627-1.072.627-1.85v-7.15h3.158v7.15c0 1.051-.23 1.976-.67 2.775a4.452 4.452 0 01-1.902 1.83c-.816.42-1.8.651-2.908.651-1.108 0-2.07-.21-2.907-.651a4.554 4.554 0 01-1.945-1.83c-.46-.799-.69-1.724-.69-2.775v-7.15h3.158v7.15c.021.778.251 1.388.711 1.85zm17.151 3.197l-.837-2.166h-5.25l-.857 2.165h-3.242l5.208-12.195h3.263l5.082 12.195h-3.367zm-5.125-4.606h3.347l-1.653-4.352-1.694 4.352zm16.607 4.606l-1.757-3.365h-2.343v3.364h-3.158V23.934h5.459c1.61 0 2.844.378 3.723 1.114.878.757 1.317 1.809 1.317 3.154 0 .925-.188 1.703-.543 2.376-.377.673-.9 1.178-1.61 1.556l2.53 3.974-3.618.021zm-4.12-5.93h2.3c.648 0 1.15-.168 1.506-.484.355-.315.523-.799.523-1.409 0-.588-.168-1.051-.523-1.366-.356-.316-.858-.484-1.506-.484h-2.3V30.2zm18.425 5.93l-.837-2.166h-5.25l-.836 2.165h-3.263l5.208-12.195h3.263l5.082 12.195h-3.367zm-5.124-4.606h3.346l-1.652-4.352-1.695 4.352zm15.73-4.857c-.732-.252-1.339-.357-1.841-.357-.397 0-.69.063-.92.21a.697.697 0 00-.335.63.91.91 0 00.293.674c.189.189.44.315.732.441.293.105.711.253 1.276.42.837.253 1.548.484 2.092.737a3.61 3.61 0 011.401 1.114c.397.505.586 1.157.586 1.977 0 .82-.21 1.514-.649 2.081-.418.568-1.004 1.01-1.757 1.304-.753.294-1.568.441-2.489.441a8.911 8.911 0 01-3.011-.525c-1.004-.358-1.862-.841-2.594-1.451l1.234-2.481c.607.547 1.339.988 2.175 1.346.837.336 1.569.525 2.217.525.481 0 .837-.084 1.109-.252.272-.168.397-.42.397-.757a.953.953 0 00-.293-.694 2.227 2.227 0 00-.753-.441 44.034 44.034 0 00-1.296-.4c-.837-.231-1.527-.463-2.05-.694a3.635 3.635 0 01-1.401-1.072c-.398-.484-.586-1.115-.586-1.914 0-.757.188-1.408.607-1.976.397-.568.962-1.01 1.694-1.304.732-.315 1.589-.462 2.551-.462.879 0 1.736.126 2.594.378.857.252 1.61.589 2.259 1.01l-1.192 2.544c-.628-.505-1.318-.82-2.05-1.052zm4.81-2.733h3.158v4.983h4.894v-4.983h3.158v12.195h-3.158V31.44h-4.894v4.69h-3.158V23.933zm13.322 0h3.158v12.195h-3.158V23.934zM32.94 20.36c.355.062.627.104.899.168.272.063.544.105.9.189.355.336.627.567.899.82.271.231.543.462.899.778v1.093a9.127 9.127 0 00-.9-.126c-.271-.042-.543-.063-.899-.105a22.9 22.9 0 01-.9-.715c-.271-.21-.543-.442-.898-.736v-1.367zm-4.141-2.23c.355.021.627.064.9.085.271.02.543.063.898.126.356.357.628.63.9.883.272.252.544.526.9.862v1.388c-.356-.021-.628-.042-.9-.042s-.544-.021-.9-.021a47.045 47.045 0 00-.899-.778 23.059 23.059 0 01-.9-.82V18.13zm-4.143-2.25h.9c.271 0 .543.022.899.043.356.4.627.673.9.967.271.294.543.568.899.925v1.724c-.356 0-.628.021-.9.021-.272.021-.543.021-.9.063-.355-.336-.627-.61-.898-.862-.272-.273-.544-.525-.9-.904v-1.976zm-8.26 1.956c.356-.357.628-.652.9-.925.272-.295.544-.568.9-.967.355-.021.627-.042.898-.042.272 0 .544-.021.9 0v1.976l-.9.904c-.271.274-.543.526-.899.862a46.833 46.833 0 01-.9-.063c-.271-.02-.543-.02-.899-.02v-1.725zm-4.14 2.229c.355-.337.627-.589.9-.862.271-.252.543-.526.899-.883.355-.063.627-.084.899-.127.272-.02.544-.063.9-.084v1.683a24.18 24.18 0 01-.9.82c-.272.252-.544.483-.9.778-.355 0-.627 0-.899.02-.272 0-.544.022-.9.043v-1.388zm-4.143 2.25c.356-.295.628-.547.9-.778.272-.232.543-.484.899-.82.355-.084.627-.147.9-.19.271-.063.543-.105.899-.168v1.346c-.356.294-.628.526-.9.736-.272.21-.543.441-.899.715-.356.02-.627.063-.9.105-.271.042-.543.063-.899.126v-1.072zm24.827 1.051c.355 0 .627 0 .899.021.272 0 .544.021.9.042.355.274.627.463.899.652.271.19.543.378.899.63v1.094c-.356 0-.628 0-.9.021-.271.021-.543.021-.899.063-.355-.21-.627-.378-.9-.567-.271-.169-.543-.337-.898-.59v-1.366zm-4.141-1.556c.355-.042.627-.042.9-.063.271-.021.543-.021.898-.042.356.294.628.526.9.736.272.21.544.42.9.715v1.388c-.356.042-.628.063-.9.105-.272.042-.544.084-.9.126-.355-.252-.627-.442-.899-.631-.272-.19-.544-.4-.9-.673v-1.66zm-4.143-1.556c.356-.063.628-.105.9-.147.271-.042.543-.063.899-.105.356.336.627.589.9.82.271.231.543.483.899.778v1.724c-.356.063-.628.126-.9.19a91.85 91.85 0 00-.9.21c-.355-.274-.627-.505-.898-.715a17.2 17.2 0 01-.9-.757v-1.998zm-8.26 1.346a46.8 46.8 0 01.9-.778c.271-.231.543-.484.899-.82.355.042.627.063.9.105.27.042.543.084.898.147v1.977c-.355.315-.627.525-.899.757-.272.21-.544.441-.9.715a80.383 80.383 0 00-.899-.21c-.272-.064-.543-.106-.899-.169v-.862c-.02-.252 0-.505 0-.862zm-4.14 1.556l.9-.694c.271-.21.543-.442.899-.736.355 0 .627.021.899.042s.544.021.9.063v1.682c-.356.274-.628.484-.9.673-.272.19-.544.379-.9.63a9.1 9.1 0 00-.899-.125c-.272-.042-.544-.063-.9-.105v-1.43zm-4.143 1.556c.356-.253.628-.442.9-.631.272-.19.543-.4.899-.652.355-.02.627-.042.9-.042.271 0 .543-.02.899-.02v1.344c-.356.252-.628.42-.9.588-.272.169-.543.337-.899.568a46.846 46.846 0 01-.9-.063c-.271-.02-.543-.02-.899-.02v-1.073zm24.827 1.64c.355-.063.627-.105.899-.126.272-.042.544-.063.9-.105.355.21.627.357.899.504.271.147.543.295.899.484v1.093c-.356.063-.628.105-.9.168l-.899.21a21.787 21.787 0 01-.9-.399 16.8 16.8 0 01-.898-.441v-1.388zm-4.141-.862c.355-.084.627-.147.9-.21.271-.064.543-.127.898-.19.356.253.628.42.9.589.272.168.544.336.9.547v1.387c-.356.085-.628.169-.9.253-.272.084-.544.168-.9.294l-.899-.483a11.798 11.798 0 01-.9-.526V25.49zm-4.143-.841c.356-.127.628-.21.9-.295.271-.084.543-.168.899-.252.356.273.627.463.9.673.271.19.543.378.899.63v1.725c-.356.126-.628.231-.9.336-.272.105-.543.21-.9.358-.355-.21-.627-.4-.898-.568-.272-.168-.544-.358-.9-.589v-2.018zm-8.26.736c.356-.253.628-.442.9-.631.272-.19.544-.4.9-.673.355.105.627.168.898.252.272.084.544.169.9.295v1.976c-.356.253-.628.42-.9.589-.271.168-.543.336-.899.568a38.242 38.242 0 00-.9-.358 30.3 30.3 0 00-.899-.336v-1.682zm-4.14.862c.355-.21.627-.379.9-.547.271-.168.543-.336.899-.589.355.063.627.126.899.19l.9.21v1.682c-.356.21-.628.378-.9.526-.272.147-.544.294-.9.483a21.01 21.01 0 00-.899-.294c-.272-.084-.544-.147-.9-.253v-1.408zm-4.143.841c.356-.19.628-.337.9-.484.272-.147.543-.294.899-.505.355.043.627.064.9.106.271.042.543.084.899.126v1.345c-.356.19-.628.316-.9.442s-.543.252-.899.4a80.07 80.07 0 00-.9-.21c-.271-.064-.543-.106-.899-.169v-1.051zm24.827 2.25c.355-.127.627-.21.899-.295.272-.084.544-.168.9-.252.355.147.627.252.899.357.271.105.543.21.899.316v1.093c-.356.126-.628.232-.9.316-.271.105-.543.21-.899.357-.355-.105-.627-.168-.9-.252a21.206 21.206 0 01-.898-.295v-1.345zm-4.141-.148c.355-.147.627-.273.9-.357.271-.105.543-.21.898-.336.356.189.628.315.9.441s.544.253.9.4v1.387c-.356.148-.628.274-.9.4s-.544.252-.9.442a31.774 31.774 0 01-.899-.337c-.272-.105-.544-.21-.9-.357v-1.682zm-4.143-.168c.356-.189.628-.315.9-.441l.899-.42c.356.21.627.357.9.525.271.147.543.294.899.483v1.725c-.356.189-.628.336-.9.483-.272.147-.543.295-.9.505a9.253 9.253 0 01-.898-.42 16.837 16.837 0 01-.9-.442v-1.998zm-8.26.148c.356-.19.628-.337.9-.484.272-.147.544-.295.9-.526.355.168.627.273.898.42.272.127.544.253.9.442V31c-.356.189-.628.315-.9.441l-.899.42a25.2 25.2 0 00-.9-.504 132.86 132.86 0 00-.899-.483v-1.703zm-4.14.147c.355-.148.627-.274.9-.4.271-.126.543-.252.899-.442.355.127.627.232.899.337.272.105.544.21.9.357v1.682c-.356.148-.628.274-.9.358-.272.105-.544.21-.9.336-.355-.189-.627-.315-.899-.441s-.544-.252-.9-.4v-1.387zm-4.143.168c.356-.126.628-.232.9-.316.272-.105.543-.21.899-.357.355.105.627.168.9.252.271.084.543.169.899.295v1.345c-.356.127-.628.21-.9.295-.272.084-.543.168-.899.252a38.179 38.179 0 00-.9-.357 11.07 11.07 0 00-.899-.316v-1.093zm24.827 2.859a16.8 16.8 0 01.899-.441c.272-.126.544-.252.9-.4.355.084.627.148.899.21.271.064.543.106.899.169v1.093c-.356.19-.628.316-.9.484-.271.147-.543.294-.899.505-.355-.043-.627-.064-.9-.106a37.634 37.634 0 01-.898-.147v-1.367zm-4.141.526c.355-.21.627-.357.9-.526.271-.147.543-.294.898-.483.356.126.628.21.9.273.272.084.544.168.9.252v1.388c-.356.21-.628.379-.9.547-.272.168-.544.336-.9.589-.355-.063-.627-.127-.899-.19l-.9-.21v-1.64zm-4.143.547c.356-.253.628-.42.9-.589.271-.168.543-.336.899-.568.356.148.627.253.9.358.271.105.543.21.899.336v1.724c-.356.253-.628.442-.9.631-.272.19-.543.4-.9.673-.355-.105-.627-.168-.898-.252a20.236 20.236 0 01-.9-.295v-2.018zm-8.26-.463c.356-.126.628-.231.9-.336.272-.105.544-.21.9-.358.355.21.627.4.898.568.272.168.544.357.9.589v1.976c-.356.126-.628.21-.9.295a12.77 12.77 0 01-.899.252c-.355-.273-.627-.463-.9-.673-.271-.19-.543-.378-.899-.63v-1.683zm-4.14-.547c.355-.084.627-.168.9-.252.271-.084.543-.168.899-.273l.899.483c.272.148.544.316.9.526v1.682l-.9.21c-.272.064-.544.106-.9.19-.355-.231-.627-.42-.899-.589-.272-.168-.544-.336-.9-.547v-1.43zm-4.143-.547c.356-.062.628-.104.9-.167l.899-.21c.355.146.627.273.9.399.271.126.543.252.899.441v1.346c-.356.063-.628.105-.9.147-.272.042-.543.063-.899.105a24.47 24.47 0 00-.9-.504c-.271-.147-.543-.295-.899-.484v-1.072zm24.827 3.47c.355-.252.627-.42.899-.588.272-.169.544-.337.9-.568.355.02.627.042.899.063.271.02.543.02.899.02v1.094c-.356.253-.628.442-.9.631-.271.19-.543.4-.899.652-.355.02-.627.042-.9.042-.271 0-.543.021-.898.021V35.33zm-4.141 1.24c.355-.273.627-.483.9-.672.271-.19.543-.379.898-.63.356.062.628.104.9.125.272.042.544.063.9.105v1.388a22.9 22.9 0 00-.9.715c-.272.21-.544.442-.9.736-.355 0-.627-.021-.899-.021-.272-.021-.544-.021-.9-.063v-1.682zm-4.143 1.22c.356-.315.628-.525.9-.757.271-.21.543-.441.899-.715.356.085.627.148.9.21.271.064.543.106.899.169v1.724c-.356.316-.628.547-.9.778a22.99 22.99 0 00-.9.82c-.355-.042-.627-.063-.898-.105a37.717 37.717 0 01-.9-.147V37.79zm-8.26-1.072c.356-.063.628-.126.9-.19.272-.062.544-.125.9-.21.355.274.627.505.898.715.272.21.544.442.9.757v1.977c-.356.063-.628.105-.9.147a8.905 8.905 0 01-.899.105 22.99 22.99 0 00-.9-.82c-.271-.231-.543-.483-.899-.778v-1.703zm-4.14-1.22c.355-.042.627-.063.9-.105.271-.042.543-.063.899-.126.355.252.627.442.899.63.272.19.544.4.9.674v1.682c-.356.042-.628.042-.9.063-.272.021-.544.021-.9.021-.355-.294-.627-.526-.899-.736-.272-.21-.544-.42-.9-.715v-1.388zm-4.143-1.24c.356 0 .628 0 .9-.021s.543-.021.899-.063c.355.21.627.378.9.568.271.168.543.357.899.588v1.346c-.356 0-.628 0-.9-.021-.272 0-.543-.021-.899-.042a21.17 21.17 0 00-.9-.652c-.271-.19-.543-.378-.899-.63v-1.073zm24.827 4.058c.355-.294.627-.526.899-.736.272-.21.544-.441.9-.715.355-.02.627-.063.899-.084.271-.042.543-.063.899-.126v1.093c-.356.295-.628.547-.9.778-.271.232-.543.484-.899.82-.355.084-.627.148-.9.21-.271.064-.543.106-.898.169v-1.409zm-4.141 1.934c.355-.336.627-.588.9-.82.271-.23.543-.483.898-.778.356 0 .628 0 .9-.02.272 0 .544-.022.9-.043v1.388c-.356.337-.628.589-.9.862-.272.253-.544.526-.9.883-.355.063-.627.084-.899.127a9.439 9.439 0 01-.9.084v-1.682zm-4.143 1.935l.9-.904c.271-.274.543-.526.899-.862.356.02.627.042.9.063.271.02.543.02.899.02v1.725c-.356.357-.628.652-.9.925-.272.294-.543.568-.9.967-.355.021-.627.042-.898.042-.272 0-.544.021-.9 0v-1.976zm-4.14-26.599l1.798-2.06 1.799 2.06v2.04l-1.799.231-1.798-.231v-2.04zm0 4.479l1.798-1.766 1.799 1.766v2.018l-1.799.568-1.798-.568v-2.018zm0 4.479l1.798-1.472 1.799 1.472v2.018l-1.799.862-1.798-.862v-2.018zm0 4.457l1.798-1.156L24.113 29v2.04l-1.799 1.156-1.798-1.156V29zm0 4.479l1.798-.841 1.799.84v2.04l-1.799 1.451-1.798-1.45v-2.04zm0 4.479l1.798-.547 1.799.547v2.04l-1.799 1.744-1.798-1.745v-2.04zm0 4.478l1.798-.252 1.799.252v2.04l-1.799 2.06s-1.568-1.787-1.798-2.06v-2.04zm-4.12-1.934c.356 0 .628-.021.9-.021.272-.021.544-.021.9-.063.355.336.627.61.898.862.272.273.544.525.9.904v1.976h-.9c-.271 0-.543-.02-.899-.042a21.8 21.8 0 00-.9-.967 32.419 32.419 0 00-.899-.925v-1.724zm-4.14-1.935c.355.021.627.042.9.042.271 0 .543.021.899.021.355.316.627.547.899.778.272.232.544.484.9.82v1.682c-.356-.02-.628-.063-.9-.084a9.124 9.124 0 01-.9-.126c-.355-.357-.627-.63-.899-.883-.272-.252-.544-.526-.9-.862v-1.388zm-4.143-1.913c.356.063.628.105.9.126.272.042.543.063.899.084.355.273.627.484.9.715.271.21.543.442.899.736v1.346c-.356-.063-.628-.105-.9-.169-.272-.063-.543-.105-.899-.21-.356-.336-.627-.568-.9-.82-.271-.231-.543-.483-.899-.778v-1.03z" fill="#717171"/></svg>