<svg width="140" height="60" fill="none" xmlns="http://www.w3.org/2000/svg"><g clip-path="url(#clip0_321_20680)" fill="#717171"><path d="M4.843 34.869c-.91.01-1.819-.072-2.713-.243a8.384 8.384 0 01-2.023-.609l-.11-.055.719-3.043h.492l.043.037c.163.142.335.272.517.39.28.18.579.328.891.444.376.156.765.279 1.163.365.464.108.938.16 1.415.158a4.236 4.236 0 001.685-.256.69.69 0 00.492-.608c0-.122 0-.298-.326-.444a9.91 9.91 0 00-1.68-.481 7.296 7.296 0 01-3.075-1.254 2.423 2.423 0 01-.86-1.886 3.382 3.382 0 011.697-2.976 8.376 8.376 0 014.509-1.065c.826.002 1.65.083 2.46.243.634.103 1.254.28 1.845.53l.11.055-.688 2.933h-.511a5.554 5.554 0 00-1.611-.828 5.987 5.987 0 00-1.938-.322 4.237 4.237 0 00-1.636.25.72.72 0 00-.504.668c0 .213.141.378.424.506a9.769 9.769 0 001.575.45 8.123 8.123 0 013.002 1.126 2.34 2.34 0 01.96 1.984 3.341 3.341 0 01-1.723 2.951 8.57 8.57 0 01-4.601.98zm14.593.02l1.276-5.484c.092-.402.16-.743.209-1.024.046-.239.07-.481.073-.725a1.013 1.013 0 00-.27-.804 1.66 1.66 0 00-1.061-.244 2.868 2.868 0 00-.902.17c-.386.131-.76.295-1.117.488l-1.76 7.623h-3.786l3.51-15.111h3.779l-1.184 5.124a12.9 12.9 0 011.644-.896 4.884 4.884 0 012-.402 3.44 3.44 0 012.362.75 2.69 2.69 0 01.847 2.114c0 .159-.012.362-.037.61 0 .25-.073.499-.128.743l-1.645 7.068h-3.81zm10.741-.003a3.719 3.719 0 01-2.434-.782c-.631-.52-.982-1.273-.957-2.057a3.674 3.674 0 01.65-2.22 4.513 4.513 0 011.953-1.456 11.36 11.36 0 012.85-.722c1.049-.14 2.2-.249 3.424-.315v-.08a.98.98 0 00.033-.254c.019-.359-.216-.687-.58-.807a5.556 5.556 0 00-1.952-.255 7.7 7.7 0 00-1.953.28c-.715.187-1.269.345-1.627.466H29l.592-2.796h.098c.436-.103 1.106-.219 1.997-.346a19.405 19.405 0 012.702-.194 9.227 9.227 0 014.022.673c.856.418 1.376 1.26 1.334 2.16 0 .133 0 .303-.033.51-.02.186-.055.37-.104.552l-1.816 7.352h-3.97l.235-.946-.502.303a6.679 6.679 0 01-.93.48c-.355.138-.72.252-1.094.34a6.61 6.61 0 01-1.353.114zm4.959-5.302c-.573.049-1.107.103-1.614.164-.488.05-.968.15-1.432.297a1.97 1.97 0 00-.879.54 1.369 1.369 0 00-.286.91.65.65 0 00.351.643c.372.154.779.223 1.185.2a3.172 3.172 0 001.1-.218c.38-.14.74-.321 1.074-.54l.5-1.996zm4.614 5.305l2.493-10.626h3.67l-.308 1.328c.503-.35 1.037-.657 1.594-.915a4.684 4.684 0 011.958-.448h.404a3.22 3.22 0 01.393 0h.166l-.809 3.435h-.41a3.402 3.402 0 00-.649-.112c-.268 0-.53-.035-.791-.035a7.79 7.79 0 00-1.25.094c-.393.064-.78.157-1.16.278l-1.63 6.965-3.671.036zm8.64 3.555l3.43-14.803h3.745l-.213.926c.474-.322.974-.605 1.493-.847a4.55 4.55 0 011.882-.38 3.278 3.278 0 012.586 1.027 4.1 4.1 0 01.898 2.806 8.83 8.83 0 01-.486 2.89 7.727 7.727 0 01-1.329 2.42 6.797 6.797 0 01-1.99 1.668c-.77.407-1.63.615-2.501.605a6.095 6.095 0 01-1.609-.2 5.324 5.324 0 01-1.159-.46l-1.002 4.342-3.744.006zm5.263-6.56c.18.067.368.116.558.145.267.048.537.073.808.072a2.977 2.977 0 001.45-.35c.41-.223.76-.54 1.02-.926a4.29 4.29 0 00.607-1.348 6.25 6.25 0 00.212-1.7 1.881 1.881 0 00-.346-1.209 1.557 1.557 0 00-1.214-.405 2.78 2.78 0 00-.934.17 8.216 8.216 0 00-.99.41l-1.171 5.14zm12.803 3.003a3.696 3.696 0 01-2.418-.782 2.544 2.544 0 01-.953-2.056 3.642 3.642 0 01.648-2.219 4.434 4.434 0 011.945-1.455 11.203 11.203 0 012.84-.721 43.89 43.89 0 013.409-.316v-.078c.01-.085.01-.17 0-.255.02-.357-.212-.684-.57-.806a5.518 5.518 0 00-1.945-.255 7.644 7.644 0 00-1.945.279c-.72.188-1.264.345-1.627.467h-.583l.596-2.795h.097c.428-.103 1.096-.218 1.99-.346.89-.127 1.79-.192 2.69-.194a9.131 9.131 0 014.116.667c.833.421 1.336 1.25 1.297 2.134a4.17 4.17 0 01-.04.51 4.68 4.68 0 01-.096.551l-1.809 7.373h-3.954l.24-.946-.5.303a6.628 6.628 0 01-.926.479 8.026 8.026 0 01-1.09.34 6.588 6.588 0 01-1.412.12zm4.94-5.3c-.565.05-1.103.104-1.602.164a7.07 7.07 0 00-1.426.297 1.961 1.961 0 00-.875.54 1.34 1.34 0 00-.292.91.655.655 0 00.35.642c.371.152.775.22 1.18.2a3.15 3.15 0 001.096-.218c.38-.14.74-.32 1.076-.54l.492-1.994zm5.514 9.746l2.884-4.37-1.803-10.74h3.866l.895 6.783 3.947-6.784h4.038l-9.64 15.111H76.91zm43.209-4.444l2.698-10.986h3.972l-2.697 10.986h-3.973zm2.904-12.206l.702-2.905h4.172l-.708 2.905h-4.166zm9.371 12.195a6.026 6.026 0 01-3.965-1.17c-.949-.834-1.458-2.018-1.392-3.237a7.563 7.563 0 01.507-2.737 6.59 6.59 0 011.52-2.291 7.03 7.03 0 012.393-1.538 8.58 8.58 0 013.175-.56 6.095 6.095 0 013.971 1.151c.941.82 1.449 1.99 1.386 3.195a7.486 7.486 0 01-.539 2.846c-.685 1.722-2.1 3.1-3.907 3.804a8.554 8.554 0 01-3.149.537zm1.796-8.929a2.355 2.355 0 00-1.251.326 3.116 3.116 0 00-.969.94c-.296.44-.513.923-.641 1.429a6.704 6.704 0 00-.218 1.736c-.056.521.11 1.041.461 1.447a1.85 1.85 0 001.283.422 2.4 2.4 0 001.168-.313 3 3 0 00.975-.88c.3-.433.527-.907.674-1.405a6.515 6.515 0 00.231-1.857c.035-.5-.112-.995-.417-1.405a1.652 1.652 0 00-1.315-.44h.019zM105.013 18c-4.177-.006-8.037 2.29-10.114 6.016a12.263 12.263 0 00.063 12.016L93.332 42l5.983-1.587c4.253 2.459 9.547 1.93 13.26-1.326 3.714-3.256 5.059-8.548 3.371-13.256-1.689-4.708-6.053-7.834-10.933-7.831zm3.396 16.895a6.954 6.954 0 01-2.68.959l-.537 2.368h-3.494l.524-2.336a10.52 10.52 0 01-1.099-.165 8.271 8.271 0 01-2.03-.635l-.1-.051.717-3.175h.487l.037.038c.142.121.315.26.525.407.283.185.583.34.895.463a7.2 7.2 0 001.167.381c.468.11.947.163 1.426.159a3.787 3.787 0 001.692-.26 1.14 1.14 0 00.618-.82l.753-3.352a6.1 6.1 0 011.883.883c.631.482.989 1.255.957 2.063.011 1.275-.657 2.454-1.741 3.073zm1.963-7.047h-.463l-.037-.032a5.655 5.655 0 00-1.618-.864 5.832 5.832 0 00-1.944-.336 4.143 4.143 0 00-1.649.26c-.257.124-.45.355-.531.635-.062.178-.08.267-.136.476l-.697 3.105a5.331 5.331 0 01-1.97-.99 2.573 2.573 0 01-.864-1.969 3.545 3.545 0 011.704-3.092 6.667 6.667 0 012.71-.978l.531-2.361h3.495l-.531 2.361c.253.039.512.07.771.121.624.11 1.234.296 1.816.552l.104.051-.691 3.06z"/></g><defs><clipPath id="clip0_321_20680"><path fill="#fff" transform="translate(0 18)" d="M0 0h140v24H0z"/></clipPath></defs></svg>