<svg width="140" height="60" fill="none" xmlns="http://www.w3.org/2000/svg"><g clip-path="url(#clip0_321_20668)" fill="#717171"><path d="M80.18 28.769v9.291c0 .076.003.157-.005.233-.034.344-.22.523-.565.523-.96.004-1.922.004-2.887 0-.358 0-.544-.175-.582-.531-.008-.076-.004-.157-.004-.233v-9.271a5.93 5.93 0 00-1.838.162c-1.652.394-3.32.738-4.982 1.099-.054.013-.11.03-.202.051.085.076.148.131.21.191.835.726 1.645 1.477 2.256 2.415.337.518.624 1.074.489 1.702a5.844 5.844 0 01-.531 1.503c-1.336 2.504-3.174 4.554-5.568 6.074-.763.484-1.59.84-2.504.925-.522.047-1.05.042-1.576.064-1.218.05-2.369.343-3.401 1.018-.713.463-1.416.934-2.142 1.38a7.407 7.407 0 01-2.373.938c-2.756.59-5.44.407-8.029-.781a9.744 9.744 0 01-1.96-1.189.432.432 0 00-.223-.089c-2.2-.038-4.282-.577-6.259-1.532-2.023-.976-3.819-2.262-5.21-4.062-.606-.781-1.078-1.638-1.28-2.627-.203-.985.008-1.906.442-2.785.54-1.09 1.344-1.973 2.234-2.784.054-.051.11-.102.172-.166-.956-.182-1.892-.348-2.824-.539-3.717-.772-7.367-1.757-10.836-3.345-.337-.152-.662-.335-.999-.496-.151-.072-.232-.187-.194-.357.038-.157.165-.186.308-.208 3.68-.513 7.325-1.2 10.933-2.084 4.847-1.188 9.602-2.69 14.213-4.61 2.002-.831 3.957-1.76 5.938-2.64.152-.067.198-.152.198-.318-.008-.777-.004-1.553-.004-2.33 0-.268.101-.365.392-.36.278.003.375.093.375.351 0 .769.005 1.541-.004 2.31-.004.186.042.284.22.364 1.053.476 2.102.96 3.152 1.448 2.44 1.137 4.948 2.093 7.486 2.984a100.508 100.508 0 0010.967 3.158c2.398.547 4.804 1.035 7.236 1.392.557.08 1.13.047 1.699.064.223.008.45-.009.674.012.367.03.531.183.54.548a65.9 65.9 0 010 2.585c-.009.386-.223.556-.645.556-.75.004-1.505 0-2.255 0-.08-.004-.152-.004-.253-.004zM51.117 17.746a51.823 51.823 0 00.173 13.272c.054.005.097.013.139.013.75-.013 1.5-.013 2.25-.034 1.311-.038 2.622-.085 3.933-.14a51.79 51.79 0 002.141-.136c.881-.072 1.758-.153 2.634-.242a75.275 75.275 0 004.974-.637 33.733 33.733 0 002.263-.428 3.453 3.453 0 001.602-.845c.607-.569.62-1.222.03-1.795-.549-.535-1.21-.917-1.868-1.286-1.82-1.028-3.717-1.893-5.63-2.73-3.537-1.553-7.128-2.967-10.74-4.33-.32-.122-.645-.241-1-.373.022.077.026.11.039.14a54.202 54.202 0 002.904 6.953c.7 1.388 1.445 2.75 2.17 4.126.055.102.097.208.144.314-.026.021-.05.038-.076.06a9.223 9.223 0 00-.186-.247c-2.625-3.544-4.434-7.509-5.896-11.655zm.316 20.348c.927.14 1.825.293 2.727.412.544.072 1.096.097 1.555-.31.375-.331.599-.756.75-1.227.085-.263.32-.395.553-.318.261.085.4.322.29.581-.168.4-.337.807-.581 1.16-.477.69-1.142 1.086-2.002 1.022a25.417 25.417 0 01-2.124-.242c-.742-.114-1.48-.255-2.234-.148-1.025.144-2.049.305-3.107.462.06.174.114.395.203.594.526 1.193 1.462 1.94 2.647 2.394 1.412.54 2.857.573 4.32.25 1.433-.313 2.685-.95 3.62-2.13.181-.23.426-.373.713-.318.248.046.488.152.724.25.945.378 1.918.463 2.926.39 1.05-.076 2.002-.39 2.845-1.018 1.745-1.29 2.967-2.992 3.793-4.992.24-.585.392-1.188.227-1.83-.286-1.12-.986-1.939-1.87-2.627a.259.259 0 00-.17-.042c-.767.102-1.538.216-2.305.318-.139.017-.223.073-.274.213-.084.246-.19.484-.286.725-.211.518-.456 1.02-.886 1.393-.716.62-1.568.687-2.453.568-.784-.106-1.496-.433-2.208-.764-.582-.271-1.163-.564-1.775-.75-1.032-.315-1.715.313-1.74 1.302-.013.471-.207.883-.578 1.15-.51.366-1.058.684-1.601 1.002-.553.319-1.13.599-1.59 1.057-.05.051-.109.127-.109.191-.004.425 0 .845 0 1.282zm-6.373.14c-.139-.327-.286-.637-.404-.96-.11-.292.004-.534.26-.619.262-.085.465.051.582.335.123.297.253.599.43.862.312.458.755.726 1.324.675a43.44 43.44 0 001.939-.233c.442-.06.88-.14 1.336-.213 0-.39.008-.78-.004-1.167-.005-.102-.05-.238-.123-.289a22.941 22.941 0 00-1.365-.938c-.544-.344-1.126-.632-1.66-.993-.473-.318-.717-.777-.738-1.375-.03-.917-.721-1.465-1.606-1.24-.536.136-1.054.374-1.56.612-.839.39-1.665.819-2.596.938-.843.106-1.657.038-2.356-.518-.017-.013-.047-.017-.076-.026.042 3.608 3.46 6.01 6.617 5.149zM50.31 18.2c-1.965 4.079-3.372 8.349-4.535 12.746 1.61.034 3.19.072 4.796.106A55.84 55.84 0 0150.31 18.2zm45.137 13.756c0 1.04.012 2.076-.005 3.116a8.212 8.212 0 01-.139 1.362c-.194 1.049-.851 1.72-1.8 2.127a6.29 6.29 0 01-2.305.505c-.872.026-1.753.009-2.626-.042a5.437 5.437 0 01-2.23-.62c-.868-.459-1.37-1.184-1.52-2.152a6.771 6.771 0 01-.085-1.053 890.12 890.12 0 010-6.698c0-.645.11-1.282.425-1.855.447-.819 1.193-1.243 2.049-1.506 1.041-.319 2.107-.361 3.186-.348.923.012 1.834.093 2.715.39.843.285 1.56.739 1.964 1.575.227.467.345.972.354 1.49.017 1.235.004 2.47.004 3.71h.013zm-3.912 0v-2.52c0-.48-.215-.76-.678-.854a3.826 3.826 0 00-1.568.009c-.413.089-.645.377-.65.793a1484.94 1484.94 0 000 5.17c0 .429.25.747.67.79.473.05.954.072 1.421.025.59-.055.801-.352.801-.96.004-.814.004-1.633.004-2.453zm27.338-1.201c0 1.447.008 2.895-.004 4.342a7.24 7.24 0 01-.122 1.282c-.215 1.167-.966 1.868-2.036 2.27-.771.29-1.572.4-2.386.438-1.209.055-2.411.03-3.587-.314-.737-.217-1.407-.552-1.892-1.184-.384-.497-.54-1.078-.603-1.69a10.991 10.991 0 01-.046-1.12c-.004-2.933 0-5.862 0-8.795v-.19c.008-.561.177-.73.733-.735h2.508c.544 0 .712.153.717.696.008 2.5.004 5 .004 7.5v1.061c0 .641.203.921.839.985.467.047.948.008 1.415-.055.346-.047.532-.314.57-.667a3.16 3.16 0 00.017-.34v-8.39c0-.086 0-.17.008-.255.042-.361.177-.518.536-.527a75.612 75.612 0 012.777 0c.367.005.506.174.531.548.017.238.017.48.017.717.004 1.486.004 2.954.004 4.423zm-17.33 3.621v3.748c0 .535-.165.696-.692.696h-2.507c-.548 0-.717-.17-.717-.717V25.79c0-.11.013-.225.038-.336.046-.216.19-.34.409-.365a2.64 2.64 0 01.316-.02h7.414c.097 0 .198.003.295.016.274.034.413.174.451.446.012.085.021.17.021.254 0 .735.004 1.469 0 2.203-.004.565-.177.735-.729.735h-4.287v1.965c.076.004.156.013.236.017h2.698c.505 0 .674.165.678.666v2.31c0 .521-.16.687-.674.691-.894.004-1.783 0-2.676 0-.085.004-.169.004-.274.004zM87.18 43.927c-2.184.025-4.367.046-6.546.072-1.08.013-2.163.025-3.242.042-2.014.03-4.029.056-6.04.085-.299.004-.425-.089-.526-.378a1.25 1.25 0 01.05-1.005c.085-.175.211-.276.43-.272 1.791.03 3.579.047 5.37.068.91.012 1.825.03 2.735.042 2.049.026 4.097.047 6.15.072 1.332.017 2.668.038 4 .056 1.896.025 3.789.046 5.685.072 1.34.017 2.681.038 4.021.055 1.889.025 3.777.047 5.665.072 1.349.017 2.694.038 4.042.055 1.888.026 3.776.047 5.665.072 1.349.017 2.693.039 4.042.056.729.008 1.458.02 2.187.025.135 0 .232.013.236.187 0 .174-.101.187-.231.19-1.395.014-2.795.03-4.19.047-2.314.03-4.632.056-6.946.085-1.053.013-2.104.03-3.157.043-2.183.03-4.366.055-6.546.085-1.053.012-2.103.03-3.156.042-2.175.03-4.35.06-6.525.085-1.054.013-2.103 0-3.157 0-.017.013-.017.03-.017.047z"/><path d="M97.432 21.12c-2.035-.02-4.071-.042-6.103-.068-1.306-.017-2.609-.038-3.915-.055-1.93-.025-3.861-.046-5.787-.072-1.054-.013-2.103-.03-3.157-.042-1.37-.017-2.736-.038-4.105-.06-1.046-.012-2.091-.03-3.136-.042-.097 0-.198-.017-.295-.013-.14.009-.19-.06-.186-.19.004-.133.076-.162.194-.162.995-.013 1.994-.03 2.989-.043 2.33-.03 4.657-.055 6.988-.085 1.053-.012 2.103-.03 3.157-.042 2.183-.03 4.362-.055 6.545-.085 1.037-.013 2.078-.03 3.115-.042 2.196-.03 4.392-.055 6.588-.085 1.037-.013 2.078-.03 3.115-.043 2.195-.03 4.391-.055 6.587-.084.961-.013 1.922-.03 2.884-.043 2.267-.03 4.53-.055 6.798-.085.265-.004.531-.013.801-.017.257-.004.417.093.506.344.113.314.113.637.003.955-.097.276-.248.37-.539.365-2.174-.03-4.35-.055-6.525-.085-1.327-.017-2.651-.038-3.978-.055-1.901-.026-3.802-.047-5.703-.072-1.34-.017-2.681-.043-4.021-.055-.94-.009-1.88 0-2.82 0v-.039z"/></g><defs><clipPath id="clip0_321_20668"><path fill="#fff" transform="translate(19 13)" d="M0 0h102.105v33.684H0z"/></clipPath></defs></svg>