<svg width="140" height="60" fill="none" xmlns="http://www.w3.org/2000/svg"><path d="M59.069 32.708l4.257-11.392h1.806l-5.74 14.937h-.66l-5.726-14.937h1.798l4.265 11.392zm13.358 3.545h-1.666V21.316h1.666v14.937zm8.655 0h-1.66V21.316h2.159c2.833 0 5.468.734 5.468 4.118a3.905 3.905 0 01-3.744 4.125l4.75 6.694h-2.041L81.5 29.69h-.418v6.562zm0-8.023h.513c1.887 0 3.788-.36 3.788-2.679 0-2.452-1.806-2.694-3.802-2.694h-.5v5.373zm17.322 4.478l4.294-11.392h1.805l-5.725 14.937h-.675l-5.725-14.937h1.798l4.228 11.392zm13.359 3.545h-1.666V21.316h1.666v14.937zm9.233-4.235l-1.805 4.242h-1.813l6.606-14.937h.631l6.401 14.937h-1.894l-1.747-4.242h-6.379zm3.23-7.524l-2.554 5.982h5.05l-2.496-5.982zM43.713 23.15a24.356 24.356 0 00-2.569-2.935 3.098 3.098 0 00-2.304-.676c-.492.118-.984 1.204-1.065 1.909-.734 6.606-1.394 13.212-2.143 19.818a9.544 9.544 0 01-.976 3.23 2.994 2.994 0 01-1.799 1.555c-.52.081-1.424-.733-1.761-1.306-1.586-2.885-3.068-5.82-4.536-8.764-3.34-6.753-6.65-13.506-10.21-20.714 2.936-1.644 6.158-3.625 9.542-5.196.734-.345 2.202.653 3.259 1.24 4.22 2.356 8.375 4.837 12.551 7.252 2.158 1.248 2.378 1.666 2.011 4.588zm-30.145-6.275c5.527 10.562 11.01 20.948 16.493 31.489-2.202 2.348-3.824 2.642-7.046.785-4.405-2.554-8.809-5.197-13.213-7.736a3.134 3.134 0 01-1.79-3.105c.058-5.065.132-10.13 0-15.194-.074-2.276.733-3.729 2.715-4.668.786-.375 1.527-.837 2.84-1.571z" fill="#717171"/><path d="M40.506 24.986c1.292 2.385 3.582 3.743 3.442 6.606-.11 2.349-.066 4.712 0 7.06a2.847 2.847 0 01-1.71 2.937c-1.725.88-3.384 1.894-5.072 2.855a8825.122 8825.122 0 013.34-19.458z" fill="#717171"/></svg>