<svg width="140" height="60" fill="none" xmlns="http://www.w3.org/2000/svg"><g clip-path="url(#clip0_321_20677)" fill="#717171"><path d="M33.705 44.474C25.6 44.474 19 37.87 19 29.737 19 21.614 25.6 15 33.705 15S48.41 21.614 48.41 29.737c0 8.134-6.588 14.737-14.705 14.737zm0-25.701c-6.035 0-10.94 4.916-10.94 10.964S27.67 40.7 33.705 40.7c6.035 0 10.94-4.916 10.94-10.964s-4.905-10.964-10.94-10.964z"/><path d="M33.707 37.191c-.498 0-.974-.2-1.329-.555L26.454 30.7a1.892 1.892 0 010-2.663l5.924-5.937a1.882 1.882 0 012.658 0l5.924 5.937c.73.732.73 1.93 0 2.663l-5.924 5.937c-.343.355-.83.555-1.329.555zm-3.255-7.823l3.255 3.262 3.256-3.262-3.256-3.263-3.255 3.263zM51.81 19.366h4.972l3.4 15.015 3.698-15.015h4.186l3.853 15.103 3.521-15.103h4.551L74.71 41.094h-5.005l-3.92-15.014-3.964 15.014h-4.729L51.81 19.366zM85.076 41.16a7.222 7.222 0 01-2.049-.277 4.646 4.646 0 01-1.683-.855 4.005 4.005 0 01-1.152-1.476c-.288-.599-.42-1.309-.42-2.141 0-.933.199-1.72.608-2.375a4.649 4.649 0 011.695-1.576c.73-.41 1.594-.699 2.613-.877a19.279 19.279 0 013.333-.277h1.794v-.643c0-.955-.177-1.676-.532-2.176-.354-.499-1.04-.743-2.048-.743-.875 0-1.517.2-1.927.61-.41.41-.675.955-.775 1.643H80.38c.056-.933.288-1.743.687-2.43a5.367 5.367 0 011.528-1.698 6.556 6.556 0 012.204-.988 11.09 11.09 0 012.712-.322c.975 0 1.86.111 2.67.322.808.21 1.516.555 2.125 1.02.587.467 1.041 1.077 1.362 1.82.321.755.487 1.665.487 2.73v10.376H89.87v-1.92a5.636 5.636 0 01-1.805 1.61c-.742.432-1.738.643-2.99.643zm1.306-3.04c.974 0 1.783-.255 2.436-.755.654-.5.986-1.198.986-2.097v-1.343h-1.695c-1.273 0-2.27.166-2.967.488-.709.322-1.063.921-1.063 1.776 0 .588.177 1.065.543 1.41.365.354.952.52 1.76.52zm19.998 3.492c-1.23 0-2.282-.266-3.156-.81-.875-.533-1.506-1.22-1.916-2.053v2.53h-4.396V18.186h4.396v9.7c.443-.767 1.107-1.443 1.982-2.01.875-.565 1.905-.854 3.078-.854.975 0 1.872.178 2.713.533a6.26 6.26 0 012.204 1.564c.631.688 1.118 1.543 1.473 2.553.354 1.01.531 2.175.531 3.495v.244c0 1.321-.177 2.486-.531 3.496-.355 1.01-.831 1.864-1.44 2.552a6.251 6.251 0 01-2.203 1.61c-.831.366-1.739.543-2.735.543zm-1.296-3.429c1.218 0 2.148-.4 2.79-1.21.643-.798.975-1.986.975-3.55v-.245c0-1.62-.355-2.83-1.063-3.628-.709-.788-1.617-1.188-2.735-1.188-1.152 0-2.093.4-2.802 1.21-.719.799-1.074 2.008-1.074 3.618v.244c0 1.609.343 2.796 1.041 3.584.698.788 1.65 1.165 2.868 1.165zm12.426-14.296c-.709 0-1.296-.233-1.772-.688-.476-.455-.709-1.032-.709-1.72s.233-1.265.709-1.72c.476-.455 1.063-.688 1.772-.688.708 0 1.306.233 1.793.688.488.455.731 1.032.731 1.72 0 .689-.243 1.265-.731 1.72-.487.455-1.085.688-1.793.688zm-2.16 2.164h4.363v15.891h-4.363v-15.89z"/></g><defs><clipPath id="clip0_321_20677"><path fill="#fff" transform="translate(19 15)" d="M0 0h102.105v29.474H0z"/></clipPath></defs></svg>