<svg width="56" height="56" viewBox="0 0 56 56" fill="none" xmlns="http://www.w3.org/2000/svg">
    <rect x="0.5" y="0.5" width="55" height="55" rx="7.5" fill="white"/>
    <path fill-rule="evenodd" clip-rule="evenodd" d="M26.6147 14.0309C25.4878 14.1333 23.8332 14.538 22.7733 14.9705C17.9189 16.9515 14.6183 21.2635 14.0664 26.3456C13.9197 27.6969 14.0018 28.1702 14.4567 28.5947C14.583 28.7125 16.9028 30.6725 19.6119 32.9501C22.321 35.2278 24.582 37.1342 24.6363 37.1867C24.7282 37.2756 24.7274 37.3103 24.6248 37.6975C24.4806 38.2421 24.4806 38.7884 24.6251 39.3535C24.7978 40.0283 25.0592 40.4797 25.5736 40.9911C26.2665 41.6801 27.0423 42 28.0202 42C29.0024 42 29.7531 41.6898 30.4493 40.9962C31.3634 40.0857 31.714 38.8589 31.4019 37.6633L31.3 37.273L36.1891 33.1531C38.8781 30.8872 41.2469 28.8792 41.453 28.6908C41.9917 28.1987 42.0583 27.997 41.9645 27.1413C41.819 25.8136 41.4196 24.1625 40.9077 22.7724C40.6009 21.9393 39.8275 20.3972 39.3599 19.6865C37.1721 16.3612 33.9409 14.4683 29.7388 14.0505C29.1696 13.9939 27.1606 13.9813 26.6147 14.0309ZM20.7834 26.4513C21.3227 26.5928 21.577 26.702 21.9984 26.9733C22.3515 27.2007 22.518 27.4404 22.5719 27.7992C22.6035 28.0093 23.1116 29.3183 24.9824 34.0087C25.1487 34.4255 25.1864 34.5698 25.1141 34.5131C25.0584 34.4694 23.9311 33.5245 22.6091 32.4133C21.2871 31.3021 19.4309 29.7429 18.4844 28.9482C16.2806 27.0981 16.5009 27.3188 16.6739 27.1347C16.9854 26.8031 17.8154 26.4558 18.5757 26.3389C19.1368 26.2527 20.2405 26.3088 20.7834 26.4513ZM29.3445 26.4509C30.1519 26.6588 30.8508 27.0555 31.0433 27.4151C31.0942 27.5102 30.8368 28.2121 29.6316 31.2651C28.2327 34.8086 28.1505 34.9981 28.0168 34.9833C27.8884 34.969 27.7467 34.6418 26.4292 31.318C25.6336 29.3107 24.968 27.6231 24.95 27.5678C24.9294 27.5042 24.9982 27.3781 25.1377 27.2237C25.5079 26.8139 26.3831 26.4581 27.3862 26.3096C27.7743 26.2521 28.8833 26.3322 29.3445 26.4509ZM37.8902 26.4224C38.5641 26.5637 39.5145 27.0981 39.4478 27.2981C39.4218 27.3762 30.897 34.5752 30.8646 34.5465C30.8519 34.5353 31.4207 33.0704 32.1286 31.2911C32.8601 29.4524 33.4391 27.9119 33.4699 27.7221C33.5395 27.2944 33.7222 27.0572 34.1629 26.8224C35.0896 26.3284 36.6459 26.1614 37.8902 26.4224Z" fill="#386CF6"/>
    <rect x="0.5" y="0.5" width="55" height="55" rx="7.5" stroke="#E9E9E9"/>
</svg>
