<svg width="56" height="56" viewBox="0 0 56 56" fill="none" xmlns="http://www.w3.org/2000/svg">
    <rect x="0.5" y="0.5" width="55" height="55" rx="7.5" fill="white"/>
    <rect x="0.5" y="0.5" width="55" height="55" rx="7.5" stroke="#E9E9E9"/>
    <path fill-rule="evenodd" clip-rule="evenodd" d="M23.2266 34.3984H19.8242C19.6211 34.3984 19.418 34.2969 19.3164 34.0938L18.3516 32.6719H24.6992L23.7344 34.0938C23.6328 34.2969 23.4297 34.3984 23.2266 34.3984Z" fill="#386CF6"/>
    <path fill-rule="evenodd" clip-rule="evenodd" d="M23.2266 37.4453H19.8242C19.4688 37.4453 19.2148 37.1914 19.2148 36.8359V33.7891C19.2148 33.4336 19.4688 33.1797 19.8242 33.1797C20.1289 33.1797 20.4336 33.4336 20.4336 33.7891V33.9414H22.6172V33.7891C22.6172 33.4336 22.9219 33.1797 23.2266 33.1797C23.582 33.1797 23.8359 33.4336 23.8359 33.7891V36.8359C23.8359 37.1914 23.582 37.4453 23.2266 37.4453Z" fill="#386CF6"/>
    <path fill-rule="evenodd" clip-rule="evenodd" d="M36.1758 34.3984H32.7734C32.5703 34.3984 32.3672 34.2969 32.2656 34.0938L31.3008 32.6719H37.6484L36.6836 34.0938C36.582 34.2969 36.3789 34.3984 36.1758 34.3984Z" fill="#386CF6"/>
    <path fill-rule="evenodd" clip-rule="evenodd" d="M36.1758 37.4453H32.7734C32.418 37.4453 32.1641 37.1914 32.1641 36.8359V33.7891C32.1641 33.4336 32.418 33.1797 32.7734 33.1797C33.0781 33.1797 33.332 33.4336 33.3828 33.7383H35.5664C35.6172 33.4336 35.8711 33.1797 36.1758 33.1797C36.5312 33.1797 36.7852 33.4336 36.7852 33.7891V36.8359C36.7852 37.1914 36.5312 37.4453 36.1758 37.4453Z" fill="#386CF6"/>
    <path fill-rule="evenodd" clip-rule="evenodd" d="M39.8828 32.0625H16.1172C15.5078 32.0625 15 31.5547 15 30.9453V29.8789C15 29.2188 15.5078 28.7109 16.1172 28.7109H39.8828C40.4922 28.7109 41 29.2188 41 29.8789V30.9453C41 31.5547 40.4922 32.0625 39.8828 32.0625Z" fill="#386CF6"/>
    <path fill-rule="evenodd" clip-rule="evenodd" d="M36.2773 28.1016L34.2461 21.8047H21.7539L19.7227 28.1016H16.2695L18.8086 20.2812C19.1641 19.1641 19.9766 18.5547 20.9922 18.5547H35.0078C36.0234 18.5547 36.8359 19.1641 37.1914 20.2812L39.7305 28.1016H36.2773Z" fill="#386CF6"/>
    <path fill-rule="evenodd" clip-rule="evenodd" d="M23.4805 28.1016L21.7032 21.3477C21.6016 21.043 21.8047 20.6875 22.1094 20.586C22.4649 20.5352 24.8008 20.4844 24.9532 21.043L26.8829 28.1016H23.4805Z" fill="#386CF6"/>
    <path fill-rule="evenodd" clip-rule="evenodd" d="M29.1172 28.1017L31.0469 21.0431C31.0977 20.6876 34.3984 21.0431 34.2969 21.3478L32.5195 28.1017H29.1172Z" fill="#386CF6"/>
</svg>
