<svg width="24" height="24" viewBox="0 0 24 24" fill="none" xmlns="http://www.w3.org/2000/svg">
    <path fill-rule="evenodd" clip-rule="evenodd" d="M11.0765 2.68714C10.3252 2.75538 9.22217 3.0252 8.51553 3.31354C5.27928 4.63415 3.07888 7.50884 2.71098 10.8969C2.61314 11.7977 2.66789 12.1133 2.97115 12.3963C3.05534 12.4749 4.60191 13.7815 6.40798 15.2999C8.21405 16.8184 9.72134 18.0893 9.75754 18.1243C9.81882 18.1836 9.81831 18.2067 9.7499 18.4649C9.65373 18.8279 9.65377 19.1921 9.7501 19.5688C9.86519 20.0187 10.0395 20.3196 10.3824 20.6606C10.8443 21.1199 11.3616 21.3332 12.0135 21.3332C12.6683 21.3332 13.1687 21.1264 13.6329 20.664C14.2423 20.0569 14.476 19.2391 14.268 18.442L14.2 18.1818L17.4594 15.4352C19.2521 13.9246 20.8313 12.586 20.9687 12.4604C21.3278 12.1323 21.3722 11.9978 21.3097 11.4274C21.2127 10.5422 20.9464 9.44153 20.6052 8.51476C20.4006 7.95934 19.885 6.93129 19.5733 6.45749C18.1148 4.24062 15.9606 2.97872 13.1592 2.70019C12.7798 2.66245 11.4404 2.65406 11.0765 2.68714ZM7.18892 10.9674C7.54848 11.0617 7.71805 11.1345 7.99899 11.3154C8.23435 11.467 8.34536 11.6268 8.38129 11.866C8.40233 12.006 8.74112 12.8787 9.98831 16.0056C10.0992 16.2835 10.1243 16.3797 10.0761 16.3419C10.039 16.3127 9.28745 15.6828 8.40609 14.942C7.52474 14.2013 6.28731 13.1618 5.65628 12.632C4.18709 11.3985 4.33399 11.5457 4.44927 11.423C4.65698 11.2019 5.21032 10.9704 5.71716 10.8925C6.0912 10.835 6.82704 10.8724 7.18892 10.9674ZM12.8964 10.9671C13.4346 11.1057 13.9006 11.3701 14.0289 11.6099C14.0628 11.6733 13.8912 12.1412 13.0878 14.1766C12.1552 16.5389 12.1003 16.6652 12.0112 16.6554C11.9256 16.6459 11.8311 16.4277 10.9528 14.2118C10.4224 12.8736 9.97866 11.7486 9.96671 11.7117C9.95298 11.6693 9.99884 11.5852 10.0918 11.4823C10.3386 11.2091 10.9221 10.9719 11.5908 10.8729C11.8495 10.8346 12.5889 10.8879 12.8964 10.9671ZM18.5935 10.9481C19.0427 11.0423 19.6764 11.3985 19.6319 11.5319C19.6146 11.5839 13.9314 16.3833 13.9097 16.3642C13.9013 16.3567 14.2805 15.3801 14.7524 14.1939C15.2401 12.9681 15.6261 11.9411 15.6466 11.8146C15.693 11.5294 15.8148 11.3713 16.1086 11.2147C16.7264 10.8854 17.764 10.7741 18.5935 10.9481Z" fill="#303030"/>
</svg>
