<svg width="40" height="40" viewBox="0 0 40 40" fill="none" xmlns="http://www.w3.org/2000/svg">
    <path fill-rule="evenodd" clip-rule="evenodd" d="M19.0105 10.0221C18.2055 10.0952 17.0237 10.3843 16.2666 10.6932C12.7992 12.1082 10.4416 15.1882 10.0475 18.8183C9.94262 19.7835 10.0013 20.1216 10.3262 20.4248C10.4164 20.509 12.0735 21.9089 14.0085 23.5358C15.9436 25.1627 17.5586 26.5244 17.5973 26.562C17.663 26.6255 17.6625 26.6502 17.5892 26.9268C17.4861 27.3158 17.4862 27.706 17.5894 28.1096C17.7127 28.5916 17.8994 28.9141 18.2668 29.2794C18.7618 29.7715 19.3159 30 20.0144 30C20.716 30 21.2522 29.7784 21.7495 29.283C22.4024 28.6326 22.6529 27.7564 22.4299 26.9023L22.3572 26.6236L25.8494 23.6808C27.7701 22.0623 29.462 20.628 29.6093 20.4934C29.9941 20.1419 30.0416 19.9979 29.9746 19.3866C29.8707 18.4383 29.5854 17.259 29.2198 16.266C29.0006 15.6709 28.4482 14.5694 28.1142 14.0618C26.5515 11.6865 24.2435 10.3345 21.242 10.0361C20.8354 9.99566 19.4004 9.98667 19.0105 10.0221ZM14.8453 18.8938C15.2305 18.9948 15.4122 19.0729 15.7132 19.2667C15.9654 19.4291 16.0843 19.6003 16.1228 19.8566C16.1453 20.0066 16.5083 20.9417 17.8446 24.2919C17.9634 24.5896 17.9903 24.6927 17.9386 24.6522C17.8989 24.621 17.0937 23.9461 16.1494 23.1524C15.2051 22.3587 13.8792 21.2449 13.2031 20.6773C11.629 19.3558 11.7864 19.5134 11.9099 19.382C12.1325 19.145 12.7253 18.897 13.2684 18.8135C13.6691 18.7519 14.4575 18.792 14.8453 18.8938ZM20.9604 18.8935C21.5371 19.042 22.0363 19.3253 22.1738 19.5822C22.2101 19.6502 22.0263 20.1515 21.1654 22.3322C20.1662 24.8633 20.1075 24.9986 20.012 24.9881C19.9203 24.9779 19.8191 24.7441 18.878 22.37C18.3097 20.9362 17.8343 19.7308 17.8215 19.6913C17.8067 19.6459 17.8559 19.5558 17.9555 19.4455C18.22 19.1528 18.8451 18.8986 19.5615 18.7925C19.8388 18.7515 20.6309 18.8087 20.9604 18.8935ZM27.0645 18.8732C27.5457 18.9741 28.2247 19.3558 28.177 19.4986C28.1584 19.5544 22.0693 24.6966 22.0461 24.6761C22.0371 24.6681 22.4434 23.6217 22.949 22.3508C23.4715 21.0375 23.885 19.9371 23.9071 19.8015C23.9568 19.496 24.0873 19.3266 24.4021 19.1588C25.064 18.806 26.1756 18.6867 27.0645 18.8732Z" fill="#386CF6"/>
</svg>
