<svg width="40" height="40" viewBox="0 0 40 40" fill="none" xmlns="http://www.w3.org/2000/svg">
    <path d="M21.9313 14.8417C22.7944 15.3829 23.3996 16.2986 23.5098 17.3616C23.8618 17.5261 24.2524 17.6206 24.6666 17.6206C26.1787 17.6206 27.4043 16.3951 27.4043 14.8832C27.4043 13.3711 26.1787 12.1455 24.6666 12.1455C23.169 12.146 21.9541 13.3497 21.9313 14.8417ZM20.1378 20.4471C21.6499 20.4471 22.8754 19.2213 22.8754 17.7094C22.8754 16.1975 21.6496 14.9719 20.1378 14.9719C18.6259 14.9719 17.3996 16.1978 17.3996 17.7096C17.3996 19.2215 18.6259 20.4471 20.1378 20.4471ZM21.299 20.6337H18.976C17.0432 20.6337 15.4707 22.2064 15.4707 24.1392V26.9801L15.478 27.0246L15.6736 27.0858C17.5182 27.6622 19.1207 27.8543 20.4397 27.8543C23.0159 27.8543 24.5092 27.1198 24.6012 27.073L24.784 26.9805H24.8036V24.1392C24.8043 22.2064 23.2319 20.6337 21.299 20.6337ZM25.8284 17.8075H23.5233C23.4984 18.7297 23.1047 19.5602 22.482 20.1575C24.2 20.6684 25.457 22.2616 25.457 24.1434V25.0188C27.733 24.9354 29.0446 24.2904 29.131 24.247L29.3138 24.1543H29.3334V21.3125C29.3334 19.3799 27.761 17.8075 25.8284 17.8075ZM15.334 17.6211C15.8696 17.6211 16.3679 17.4648 16.79 17.1985C16.9241 16.3233 17.3933 15.5585 18.0635 15.0376C18.0663 14.9864 18.0712 14.9356 18.0712 14.8839C18.0712 13.3718 16.8454 12.1462 15.334 12.1462C13.8217 12.1462 12.5963 13.3718 12.5963 14.8839C12.5963 16.3953 13.8217 17.6211 15.334 17.6211ZM17.7926 20.1575C17.1729 19.5633 16.7806 18.7372 16.752 17.8205C16.6665 17.8142 16.5819 17.8075 16.4948 17.8075H14.172C12.2392 17.8075 10.6667 19.3799 10.6667 21.3125V24.1539L10.674 24.1977L10.8697 24.2594C12.3494 24.7213 13.67 24.9343 14.8171 25.0014V24.1434C14.8175 22.2616 16.0741 20.6689 17.7926 20.1575Z" fill="#386CF6"/>
</svg>
