<svg width="24" height="24" viewBox="0 0 24 24" fill="none" xmlns="http://www.w3.org/2000/svg">
    <path d="M13.9312 6.84173C14.7943 7.38288 15.3995 8.29863 15.5097 9.3616C15.8617 9.52607 16.2523 9.62065 16.6665 9.62065C18.1787 9.62065 19.4042 8.39507 19.4042 6.88319C19.4042 5.37108 18.1787 4.14551 16.6665 4.14551C15.1689 4.14597 13.954 5.34965 13.9312 6.84173ZM12.1377 12.4471C13.6498 12.4471 14.8754 11.2213 14.8754 9.7094C14.8754 8.19752 13.6495 6.97195 12.1377 6.97195C10.6258 6.97195 9.39952 8.19776 9.39952 9.70963C9.39952 11.2215 10.6258 12.4471 12.1377 12.4471ZM13.2989 12.6337H10.9759C9.0431 12.6337 7.47065 14.2064 7.47065 16.1392V18.9801L7.47787 19.0246L7.67355 19.0858C9.51809 19.6622 11.1206 19.8543 12.4396 19.8543C15.0158 19.8543 16.5091 19.1198 16.6011 19.073L16.784 18.9805H16.8035V16.1392C16.8042 14.2064 15.2318 12.6337 13.2989 12.6337ZM17.8283 9.80747H15.5232C15.4983 10.7297 15.1046 11.5602 14.4819 12.1575C16.1999 12.6684 17.457 14.2616 17.457 16.1434V17.0188C19.7329 16.9354 21.0445 16.2904 21.1309 16.247L21.3138 16.1543H21.3333V13.3125C21.3333 11.3799 19.7609 9.80747 17.8283 9.80747ZM7.33391 9.62111C7.86947 9.62111 8.36776 9.4648 8.78987 9.19853C8.92406 8.32332 9.39323 7.55853 10.0634 7.03764C10.0662 6.98639 10.0711 6.93561 10.0711 6.88389C10.0711 5.37178 8.84532 4.14621 7.33391 4.14621C5.82156 4.14621 4.59622 5.37178 4.59622 6.88389C4.59622 8.3953 5.82156 9.62111 7.33391 9.62111ZM9.79251 12.1575C9.17285 11.5633 8.78056 10.7372 8.7519 9.82052C8.66641 9.81423 8.58184 9.80747 8.49472 9.80747H6.17193C4.2391 9.80747 2.66666 11.3799 2.66666 13.3125V16.1539L2.67388 16.1977L2.86956 16.2594C4.34929 16.7213 5.66991 16.9343 6.81698 17.0014V16.1434C6.81745 14.2616 8.074 12.6689 9.79251 12.1575Z" fill="#303030"/>
</svg>
