<svg width="41" height="40" viewBox="0 0 41 40" fill="none" xmlns="http://www.w3.org/2000/svg">
<path d="M18.9238 4C17.8193 4 16.9238 4.89543 16.9238 6C16.9238 7.10457 17.8193 8 18.9238 8H22.9238C24.0284 8 24.9238 7.10457 24.9238 6C24.9238 4.89543 24.0284 4 22.9238 4H18.9238Z" fill="#303030"/>
<path fill-rule="evenodd" clip-rule="evenodd" d="M8.92383 10C8.92383 7.79086 10.7147 6 12.9238 6C12.9238 9.31371 15.6101 12 18.9238 12H22.9238C26.2375 12 28.9238 9.31371 28.9238 6C31.133 6 32.9238 7.79086 32.9238 10V32C32.9238 34.2091 31.133 36 28.9238 36H12.9238C10.7147 36 8.92383 34.2091 8.92383 32V10ZM14.9238 18C13.8193 18 12.9238 18.8954 12.9238 20C12.9238 21.1046 13.8193 22 14.9238 22H14.9438C16.0484 22 16.9438 21.1046 16.9438 20C16.9438 18.8954 16.0484 18 14.9438 18H14.9238ZM20.9238 18C19.8193 18 18.9238 18.8954 18.9238 20C18.9238 21.1046 19.8193 22 20.9238 22H26.9238C28.0284 22 28.9238 21.1046 28.9238 20C28.9238 18.8954 28.0284 18 26.9238 18H20.9238ZM14.9238 26C13.8193 26 12.9238 26.8954 12.9238 28C12.9238 29.1046 13.8193 30 14.9238 30H14.9438C16.0484 30 16.9438 29.1046 16.9438 28C16.9438 26.8954 16.0484 26 14.9438 26H14.9238ZM20.9238 26C19.8193 26 18.9238 26.8954 18.9238 28C18.9238 29.1046 19.8193 30 20.9238 30H26.9238C28.0284 30 28.9238 29.1046 28.9238 28C28.9238 26.8954 28.0284 26 26.9238 26H20.9238Z" fill="#303030"/>
</svg>
