<svg width="130" height="130" viewBox="0 0 130 130" fill="none" xmlns="http://www.w3.org/2000/svg">
<circle cx="65" cy="65" r="65" fill="#5DD400" fill-opacity="0.2"/>
<path fill-rule="evenodd" clip-rule="evenodd" d="M65 15C37.385 15 15 37.385 15 65C15 92.61 37.385 115 65 115C92.615 115 115 92.61 115 65C115 37.385 92.615 15 65 15Z" fill="#5ED500"/>
<mask id="mask0_335_20875" style="mask-type:alpha" maskUnits="userSpaceOnUse" x="15" y="15" width="101" height="100">
<path fill-rule="evenodd" clip-rule="evenodd" d="M65.002 15C37.387 15 15.002 37.385 15.002 65C15.002 92.61 37.387 115 65.002 115C92.617 115 115.002 92.61 115.002 65C115.002 37.385 92.617 15 65.002 15Z" fill="white"/>
</mask>
<g mask="url(#mask0_335_20875)">
<path fill-rule="evenodd" clip-rule="evenodd" d="M88.359 52.7078L65.7093 82.4578C64.7771 83.6825 63.3342 84.4064 61.7972 84.4164H61.7625C60.2402 84.4164 58.8023 83.7123 57.8602 82.5124L45.8016 67.1068C44.1157 64.9549 44.4926 61.8361 46.6495 60.1503C48.8014 58.4595 51.9251 58.8363 53.611 60.9981L61.7079 71.3412L80.4702 46.7033C82.1263 44.5266 85.2352 44.1001 87.4218 45.7612C89.5985 47.4222 90.02 50.5311 88.359 52.7078Z" fill="white"/>
</g>
</svg>
