<svg width="37" height="30" viewBox="0 0 37 30" fill="none" xmlns="http://www.w3.org/2000/svg">
<path d="M24.9238 6C24.9238 9.31371 22.2375 12 18.9238 12C15.6101 12 12.9238 9.31371 12.9238 6C12.9238 2.68629 15.6101 0 18.9238 0C22.2375 0 24.9238 2.68629 24.9238 6Z" fill="#303030"/>
<path d="M34.9238 10C34.9238 12.2091 33.133 14 30.9238 14C28.7147 14 26.9238 12.2091 26.9238 10C26.9238 7.79086 28.7147 6 30.9238 6C33.133 6 34.9238 7.79086 34.9238 10Z" fill="#303030"/>
<path d="M26.9238 24C26.9238 19.5817 23.3421 16 18.9238 16C14.5056 16 10.9238 19.5817 10.9238 24V29C10.9238 29.5523 11.3715 30 11.9238 30H25.9238C26.4761 30 26.9238 29.5523 26.9238 29V24Z" fill="#303030"/>
<path d="M10.9238 10C10.9238 12.2091 9.13297 14 6.92383 14C4.71469 14 2.92383 12.2091 2.92383 10C2.92383 7.79086 4.71469 6 6.92383 6C9.13297 6 10.9238 7.79086 10.9238 10Z" fill="#303030"/>
<path d="M31.9238 30C31.3715 30 30.9238 29.5523 30.9238 29V24C30.9238 21.8917 30.3801 19.9104 29.4253 18.1886C29.9043 18.0655 30.4064 18 30.9238 18C34.2375 18 36.9238 20.6863 36.9238 24V29C36.9238 29.5523 36.4761 30 35.9238 30H31.9238Z" fill="#303030"/>
<path d="M8.42235 18.1886C7.46752 19.9104 6.92383 21.8917 6.92383 24V29C6.92383 29.5523 6.47611 30 5.92383 30H1.92383C1.37154 30 0.923828 29.5523 0.923828 29V24C0.923828 20.6863 3.61012 18 6.92383 18C7.44125 18 7.94337 18.0655 8.42235 18.1886Z" fill="#303030"/>
</svg>
