<svg width="20" height="20" fill="none" xmlns="http://www.w3.org/2000/svg"><path fill="#fff" d="M0 0h20v20H0z"/><path d="M4.474 3.063L10 0l5.526 3.063-2.032 1.132L10 2.263 6.506 4.195 4.474 3.063zm11.052 3.864l-2.032-1.132L10 7.727 6.506 5.795 4.474 6.927V9.19l3.494 1.932v3.863L10 16.117l2.032-1.132v-3.863l3.494-1.932V6.927zm0 6.127V10.79l-2.032 1.132v2.263l2.032-1.131zm1.442.8l-3.494 1.931v2.264L19 14.985V8.858L16.968 9.99v3.864zm-2.031-8.859l2.031 1.132V8.39L19 7.26V4.995l-2.032-1.132-2.031 1.132zm-6.969 11.61v2.263L10 20l2.032-1.132v-2.263L10 17.737l-2.032-1.132zm-3.494-3.551l2.032 1.131v-2.263L4.474 10.79v2.264zm3.494-8.059L10 6.127l2.032-1.132L10 3.863 7.968 4.995zM3.032 6.127l2.031-1.132-2.031-1.132L1 4.995V7.26l2.032 1.13V6.127zm0 3.863L1 8.858v6.127l5.526 3.064v-2.264l-3.494-1.931V9.99z" fill="#F0B90B"/></svg>