<svg width="20" height="20" fill="none" xmlns="http://www.w3.org/2000/svg"><path fill="#fff" d="M0 0h20v20H0z"/><path fill-rule="evenodd" clip-rule="evenodd" d="M8.487 1.61L6.465 4.383a83.578 83.578 0 00-.988 1.37l-.136.205.436 1.265c.24.696.52 1.51.622 1.81.103.3.2.545.217.545.016 0 .223-.325.46-.722.236-.397.697-1.167 1.025-1.71L9.217 5.29l.52-.868v-2.21C9.737.994 9.72 0 9.697 0c-.021 0-.566.724-1.21 1.61zm1.404.596v2.206l1.542 2.571C13.153 9.85 13 9.605 13.036 9.57c.014-.014.301-.832.639-1.818l.612-1.792-.135-.205a54.05 54.05 0 00-.782-1.092 1133.357 1133.357 0 01-2.83-3.89C10.235.348 9.963 0 9.938 0 9.91 0 9.89.934 9.89 2.206zM9.442 5.31a43.22 43.22 0 00-.471.797c-.063.112-.257.443-.431.735l-.798 1.343a888.89 888.89 0 01-.75 1.267c-.275.462-.31.586-.224.796.05.123.21.622.566 1.764.117.377.244.776.283.887.038.112.165.51.28.887.117.376.253.81.304.963.051.153.146.45.21.659.065.209.143.397.173.417.03.02.575.038 1.211.038.866 0 1.17-.015 1.207-.062a1.01 1.01 0 00.103-.266c.029-.112.218-.728.42-1.369.203-.641.399-1.268.436-1.394.037-.125.13-.422.205-.659.075-.236.167-.533.204-.658.036-.126.162-.531.278-.902l.21-.673-.186-.315c-.103-.173-.446-.76-.762-1.303a819.89 819.89 0 00-1.124-1.926 120.06 120.06 0 01-.727-1.255 2.13 2.13 0 00-.218-.341c-.022-.014-.201.243-.399.57zM5.017 6.855c-.074.314-.308 1.334-.522 2.268a824.061 824.061 0 01-.87 3.776c-.04.167-.186.806-.325 1.42-.14.612-.269 1.154-.288 1.204-.057.145.106.053.176-.1a73.06 73.06 0 011.024-1.734 317.85 317.85 0 001.07-1.79c.058-.104.337-.568.619-1.032.282-.464.513-.87.513-.901 0-.096-1.2-3.678-1.233-3.68-.017 0-.091.255-.164.569zm8.714 1.27l-.62 1.847 1.558 2.604 1.69 2.825c.073.122.143.211.156.199.02-.021-.077-.47-.461-2.118-.069-.293-.39-1.695-.715-3.117a875.601 875.601 0 00-.64-2.788c-.027-.111-.1-.43-.16-.71-.062-.278-.129-.525-.15-.548-.02-.023-.317.79-.658 1.805zm-7.484 2.557a92.9 92.9 0 01-1.145 1.95c-.066.104-.12.2-.12.213 0 .013-.134.247-.297.52a89.58 89.58 0 00-1.01 1.713c-.077.14-.205.356-.282.48-.078.124-.13.244-.117.266.014.022 1.129.04 2.478.04 2.116 0 2.457-.01 2.482-.075.016-.04-.063-.354-.175-.697a82.398 82.398 0 01-.366-1.154c-.09-.293-.195-.623-.234-.735a40.45 40.45 0 01-.274-.861c-.475-1.54-.645-2.053-.68-2.053-.02 0-.137.177-.26.393zm6.739-.33l-.258.824c-.13.418-.257.817-.281.887-.025.07-.152.469-.282.887-.42 1.347-.487 1.56-.694 2.194-.112.342-.19.644-.173.671.04.064 4.916.067 4.956.003.015-.025-.09-.248-.234-.494a1623.849 1623.849 0 01-1.184-2.02c-.87-1.477-1.18-2.01-1.456-2.495-.288-.509-.353-.584-.394-.457zM3.04 16.086c.041.038 1.007.624 2.146 1.302 1.139.677 2.597 1.547 3.241 1.933.644.386 1.181.691 1.194.679.012-.013-.024-.156-.08-.318-.097-.275-.225-.68-.81-2.55-.126-.405-.26-.816-.297-.913l-.067-.178-2.701-.013c-2.305-.01-2.69-.002-2.626.058zm5.623-.016c0 .03.113.423.251.874a11576.936 11576.936 0 00.756 2.468c.118.387.136.418.18.304.048-.123.21-.677.687-2.357a72.21 72.21 0 01.352-1.229l.035-.114h-1.13c-.762 0-1.131.018-1.131.054zm2.48.01c-.021.066-.33 1.055-.691 2.217a98.43 98.43 0 01-.367 1.152c-.084.258-.145.489-.136.513.01.025 1.329-.738 2.932-1.696s3.08-1.834 3.284-1.948c.203-.113.383-.228.399-.254.018-.03-.997-.048-2.685-.048-2.126 0-2.719.014-2.735.064z" fill="url(#paint0_linear_335_22372)"/><defs><linearGradient id="paint0_linear_335_22372" x1="9.783" y1="0" x2="9.783" y2="20" gradientUnits="userSpaceOnUse"><stop stop-color="#232323" stop-opacity=".69"/><stop offset="1" stop-color="#232323"/></linearGradient></defs></svg>