<svg width="20" height="20" fill="none" xmlns="http://www.w3.org/2000/svg"><path d="M10.053 19.783c5.319 0 9.63-4.416 9.63-9.864S15.372.054 10.053.054C4.735.054.423 4.471.423 9.92s4.312 9.864 9.63 9.864z" fill="#627EEA"/><path d="M10.354 2.52v5.469l4.512 2.065-4.512-7.534z" fill="#fff" fill-opacity=".602"/><path d="M10.349 2.52l-4.513 7.534 4.513-2.065V2.52z" fill="#fff"/><path d="M10.354 13.598v3.716l4.515-6.4-4.515 2.684z" fill="#fff" fill-opacity=".602"/><path d="M10.349 17.314v-3.716l-4.513-2.683 4.513 6.399z" fill="#fff"/><path d="M10.354 12.737l4.512-2.684-4.512-2.064v4.748z" fill="#fff" fill-opacity=".2"/><path d="M5.836 10.053l4.513 2.684V7.99l-4.513 2.064z" fill="#fff" fill-opacity=".602"/></svg>