<svg width="17" height="18" fill="none" xmlns="http://www.w3.org/2000/svg"><path fill-rule="evenodd" clip-rule="evenodd" d="M7.683.685a9.238 9.238 0 00-2.287.56C2.506 2.422.542 4.99.213 8.014c-.087.806-.038 1.087.233 1.34.075.07 1.456 1.237 3.068 2.593a696.712 696.712 0 012.991 2.521c.055.053.054.074-.007.304-.086.324-.086.65 0 .986.103.402.259.67.565.975.412.41.874.6 1.456.6a1.91 1.91 0 001.446-.597c.544-.542.753-1.272.567-1.984l-.06-.232 2.91-2.453a399.89 399.89 0 003.133-2.656c.32-.293.36-.413.304-.922a11.771 11.771 0 00-.629-2.6 11.928 11.928 0 00-.921-1.838C13.967 2.072 12.043.945 9.542.697a18.268 18.268 0 00-1.86-.012zM4.212 8.078c.32.084.472.15.723.31.21.136.31.279.341.492.019.125.321.905 1.435 3.697.099.248.121.334.078.3a7372.173 7372.173 0 00-3.946-3.312c-1.312-1.102-1.18-.97-1.078-1.08.186-.197.68-.404 1.132-.474.334-.051.991-.018 1.315.067zm5.095 0c.481.124.897.36 1.012.574.03.056-.123.474-.84 2.292-.833 2.109-.882 2.221-.962 2.213-.076-.009-.16-.204-.945-2.182-.473-1.195-.87-2.2-.88-2.232-.013-.038.028-.113.111-.205.22-.244.742-.456 1.339-.544.23-.034.89.013 1.165.084zm5.087-.017c.401.084.967.402.927.521-.015.047-5.09 4.332-5.109 4.315-.007-.007.331-.879.753-1.938.435-1.094.78-2.011.798-2.124.042-.255.15-.396.413-.536.551-.294 1.477-.393 2.218-.238z" fill="#303030"/></svg>