<svg width="18" height="18" fill="none" xmlns="http://www.w3.org/2000/svg"><path fill-rule="evenodd" clip-rule="evenodd" d="M12.3.7a4.521 4.521 0 00-1.97.844c-.252.186-1.039.969-2.976 2.957-.642.66-.902 1.001-1.143 1.5a4.664 4.664 0 00.477 4.787c.31.416 1.004 1.03 1.162 1.03.114 0 .886-.848 1.215-1.336.202-.3.2-.375-.01-.513-.513-.338-.88-.861-1-1.425a2.455 2.455 0 01.05-1.084c.078-.243.302-.602.56-.896.29-.331 2.873-2.968 3.088-3.154.415-.356.888-.513 1.48-.488.58.023 1.028.22 1.43.626a2.17 2.17 0 01.298 2.7c-.07.11-.46.545-.87.968-.41.423-.744.792-.744.819 0 .027.035.172.078.32.151.523.196.88.197 1.58.001.398-.015.756-.041.912a1.277 1.277 0 00-.03.27c.029.028 2.947-2.99 3.133-3.24.369-.494.65-1.13.794-1.798.095-.442.103-1.298.015-1.738-.363-1.823-1.696-3.192-3.511-3.606C13.669.663 12.628.642 12.299.7zm-2.26 5.868c-.388.375-.61.652-.802 1.003-.148.27-.138.348.058.47.48.299.852.797.991 1.324.073.277.075.769.004 1.041-.075.287-.245.598-.502.918-.31.389-3.126 3.252-3.328 3.385-.228.15-.327.2-.579.284-.293.098-.788.122-1.113.054-.615-.13-1.199-.58-1.468-1.134-.199-.408-.245-.627-.226-1.08.03-.748.163-.977 1.172-2.019.533-.55.752-.798.752-.85a3.13 3.13 0 00-.08-.395 10.227 10.227 0 01-.122-.566c-.047-.274-.06-1.51-.019-1.883l.025-.23-1.377 1.392c-1.675 1.694-1.818 1.86-2.14 2.514a4.616 4.616 0 00.006 4.083c.618 1.242 1.72 2.087 3.119 2.395.22.048.412.06.931.06.598-.002.685-.01 1-.088a4.757 4.757 0 001.57-.692c.434-.295 3.12-3.006 3.765-3.803.62-.764.928-1.673.927-2.734-.001-.982-.233-1.764-.759-2.552-.221-.333-.713-.855-1.019-1.081-.328-.243-.349-.238-.786.184z" fill="#303030"/></svg>