<svg width="14" height="16" fill="none" xmlns="http://www.w3.org/2000/svg"><path fill-rule="evenodd" clip-rule="evenodd" d="M6.589.259a2.419 2.419 0 00-.39.296 7.208 7.208 0 01-2.957 1.62 9.991 9.991 0 01-2.318.311c-.444.002-.6.071-.734.323-.064.122-.065.155-.067 2.286-.002 2.341.008 2.533.19 3.661.563 3.516 2.493 5.798 6.008 7.108.521.195.514.195 1.262-.098 1.01-.396 1.982-.944 2.73-1.54a9.949 9.949 0 001.368-1.398c.848-1.114 1.381-2.434 1.656-4.103.176-1.07.188-1.294.186-3.63-.002-2.156-.002-2.163-.07-2.29a.523.523 0 00-.346-.286 5.69 5.69 0 00-.629-.045c-2.023-.069-3.687-.704-5.03-1.919C7.056.2 6.858.132 6.588.26zm2.91 5.797c.204.214.375.4.38.414.005.014-.787.767-1.76 1.673C6.322 9.817 6.187 9.93 5.964 9.93c-.226 0-.32-.083-1.219-1.069L3.82 7.845c-.054-.061-.047-.07.357-.422.227-.198.422-.365.433-.37.012-.007.326.322.698.73.371.408.692.744.713.748.02.003.718-.639 1.552-1.427a87.527 87.527 0 011.536-1.435c.011-.001.187.173.39.387z" fill="#303030"/></svg>