<svg width="17" height="18" viewBox="0 0 17 18" fill="none" xmlns="http://www.w3.org/2000/svg">
<path fill-rule="evenodd" clip-rule="evenodd" d="M7.68256 0.685048C7.01178 0.745982 6.02694 0.986892 5.39601 1.24433C2.5065 2.42345 0.541854 4.99014 0.213372 8.01519C0.126014 8.81952 0.174903 9.10129 0.445666 9.35393C0.520836 9.42409 1.90171 10.5907 3.51427 11.9465C5.12683 13.3022 6.47262 14.437 6.50495 14.4683C6.55966 14.5212 6.55921 14.5418 6.49813 14.7723C6.41226 15.0964 6.41229 15.4216 6.49831 15.758C6.60107 16.1596 6.75667 16.4284 7.06286 16.7328C7.47531 17.1429 7.93711 17.3333 8.51919 17.3333C9.1038 17.3333 9.55066 17.1487 9.96505 16.7358C10.5092 16.1938 10.7179 15.4636 10.5321 14.7519L10.4715 14.5196L13.3816 12.0673C14.9822 10.7185 16.3922 9.52328 16.5149 9.41116C16.8356 9.11822 16.8752 8.99818 16.8193 8.48881C16.7327 7.69854 16.495 6.71575 16.1903 5.88829C16.0077 5.39237 15.5473 4.47447 15.269 4.05143C13.9668 2.07208 12.0434 0.945386 9.54218 0.696705C9.20335 0.663005 8.00751 0.655517 7.68256 0.685048ZM4.21154 8.0781C4.53257 8.16231 4.68397 8.22734 4.93481 8.38884C5.14495 8.52417 5.24407 8.66688 5.27615 8.88045C5.29494 9.0055 5.59743 9.78467 6.71099 12.5766C6.80997 12.8247 6.83241 12.9106 6.78934 12.8768C6.75621 12.8508 6.08522 12.2883 5.2983 11.6269C4.51137 10.9655 3.40653 10.0374 2.8431 9.56436C1.53133 8.46309 1.66249 8.59447 1.76542 8.48493C1.95088 8.2875 2.44493 8.08078 2.89747 8.01123C3.23143 7.9599 3.88843 7.99332 4.21154 8.0781ZM9.30749 8.07789C9.78808 8.20163 10.2041 8.43773 10.3187 8.65183C10.3489 8.70842 10.1958 9.1262 9.47835 10.9435C8.64568 13.0527 8.59672 13.1655 8.51714 13.1567C8.44073 13.1482 8.35637 12.9534 7.57217 10.975C7.09858 9.78012 6.70238 8.77561 6.69171 8.74272C6.67945 8.70485 6.72039 8.62975 6.8034 8.53788C7.02379 8.29393 7.54472 8.08216 8.14178 7.99374C8.3728 7.95955 9.03294 8.0072 9.30749 8.07789ZM14.3942 8.06093C14.7953 8.14504 15.361 8.4631 15.3213 8.58214C15.3059 8.62862 10.2316 12.9138 10.2123 12.8967C10.2047 12.89 10.5433 12.018 10.9647 10.959C11.4001 9.86451 11.7447 8.94753 11.7631 8.83453C11.8045 8.57995 11.9132 8.43879 12.1756 8.29898C12.7272 8.00494 13.6535 7.90557 14.3942 8.06093Z" fill="#303030"/>
</svg>
