<svg width="18" height="18" viewBox="0 0 18 18" fill="none" xmlns="http://www.w3.org/2000/svg">
<path fill-rule="evenodd" clip-rule="evenodd" d="M12.2991 0.700393C11.5551 0.832295 10.9267 1.10147 10.3294 1.54412C10.0781 1.73031 9.29104 2.51259 7.35428 4.50105C6.71208 5.16039 6.45159 5.50238 6.21132 6.00154C5.46957 7.54246 5.65519 9.40776 6.68769 10.7882C6.9989 11.2042 7.69184 11.8181 7.85036 11.8181C7.96449 11.8181 8.73577 10.9697 9.06459 10.4824C9.26708 10.1824 9.26574 10.1067 9.05546 9.96857C8.54156 9.63107 8.17411 9.10752 8.05583 8.54422C7.98917 8.22686 8.01055 7.7571 8.10516 7.45983C8.18259 7.21656 8.40662 6.85778 8.66479 6.56356C8.95515 6.2327 11.5382 3.5956 11.7533 3.41047C12.1675 3.05398 12.6413 2.89733 13.2322 2.92155C13.8125 2.94532 14.2609 3.14175 14.6632 3.54833C15.3843 4.27718 15.507 5.38996 14.9611 6.24865C14.8919 6.3574 14.5004 6.79259 14.0911 7.21574C13.6817 7.63891 13.3468 8.00758 13.3468 8.03501C13.3468 8.06245 13.382 8.20666 13.425 8.35549C13.5761 8.87792 13.6206 9.23444 13.6224 9.9356C13.6234 10.3328 13.6071 10.6913 13.5809 10.8469C13.5572 10.988 13.5441 11.1096 13.5516 11.1172C13.5796 11.1451 16.4977 8.12635 16.6836 7.87721C17.0527 7.38267 17.3336 6.7466 17.478 6.07864C17.5733 5.63739 17.5809 4.78083 17.4933 4.34148C17.1298 2.51776 15.7973 1.1491 13.9819 0.734735C13.6692 0.663366 12.6279 0.642119 12.2991 0.700393ZM10.0401 6.56808C9.65195 6.94303 9.43028 7.22025 9.2382 7.57095C9.09032 7.84087 9.09995 7.91905 9.29602 8.0412C9.77541 8.33984 10.1482 8.83762 10.2873 9.36501C10.3605 9.6422 10.362 10.1337 10.2906 10.4062C10.2155 10.6926 10.0456 11.0035 9.78883 11.3245C9.47808 11.7128 6.66337 14.576 6.46134 14.7092C6.23332 14.8596 6.13353 14.9085 5.88243 14.9927C5.58919 15.0911 5.09439 15.1151 4.76933 15.0466C4.15355 14.9169 3.57039 14.4668 3.30095 13.9133C3.10216 13.505 3.05636 13.2865 3.07453 12.8338C3.10462 12.0847 3.23763 11.8556 4.24656 10.8142C4.77967 10.264 4.9985 10.0164 4.9985 9.96362C4.9985 9.92264 4.96284 9.7449 4.91927 9.5686C4.8757 9.39234 4.82079 9.1376 4.79725 9.00256C4.74972 8.72949 4.73711 7.49352 4.7781 7.12011L4.80325 6.89094L3.4264 8.28232C1.75063 9.97577 1.60832 10.1429 1.28525 10.7965C0.652718 12.0762 0.655042 13.6019 1.29151 14.8791C1.91039 16.1211 3.01125 16.9661 4.41094 17.2737C4.63045 17.3219 4.8225 17.3342 5.34225 17.3334C5.93956 17.3324 6.0273 17.3247 6.34221 17.2456C6.94174 17.095 7.43524 16.8777 7.9122 16.554C8.34648 16.2593 11.0311 13.5476 11.6771 12.7511C12.2967 11.9872 12.6049 11.0779 12.6038 10.0174C12.6028 9.03471 12.3706 8.25334 11.8454 7.46491C11.6238 7.13222 11.1318 6.61024 10.8265 6.38392C10.4984 6.14068 10.4773 6.14559 10.0401 6.56808Z" fill="#303030"/>
</svg>
