<svg width="13" height="18" viewBox="0 0 13 18" fill="none" xmlns="http://www.w3.org/2000/svg">
<path fill-rule="evenodd" clip-rule="evenodd" d="M6.7225 0.0155487C6.44621 0.0599937 6.45925 0.0372605 3.6248 5.42721C1.97329 8.5677 0.923328 10.606 0.923828 10.6705C0.925079 10.8312 1.06356 11.0548 1.22008 11.1491L1.3604 11.2336L3.80871 11.2432L6.25701 11.2528V14.394V17.5352L6.35078 17.6921C6.56727 18.0543 7.1352 18.1081 7.42766 17.794C7.58785 17.6219 12.925 7.45792 12.9238 7.32704C12.9225 7.16672 12.7838 6.94309 12.6275 6.84892L12.4872 6.76443L10.0389 6.75482L7.59056 6.74521V3.60398V0.462743L7.49679 0.305866C7.34985 0.060064 7.07848 -0.0417054 6.7225 0.0155487Z" fill="#303030"/>
</svg>
