<svg width="14" height="16" viewBox="0 0 14 16" fill="none" xmlns="http://www.w3.org/2000/svg">
<path fill-rule="evenodd" clip-rule="evenodd" d="M6.58873 0.258533C6.52 0.2906 6.34426 0.424086 6.1982 0.555193C5.32838 1.33594 4.36826 1.86234 3.24244 2.17572C2.6029 2.35375 1.6376 2.48306 0.924334 2.48625C0.480472 2.48822 0.323228 2.55742 0.190197 2.80926C0.125838 2.93107 0.1249 2.96369 0.123213 5.09529C0.121401 7.43638 0.131305 7.62816 0.312293 8.75604C0.876471 12.2717 2.80557 14.5539 6.32102 15.8644C6.8423 16.0588 6.83464 16.0593 7.58312 15.7661C8.59379 15.37 9.56496 14.8224 10.3139 14.2261C10.7198 13.903 11.3656 13.2427 11.6814 12.828C12.5294 11.7144 13.0621 10.3944 13.337 8.72515C13.5132 7.65501 13.5247 7.43076 13.5229 5.09529C13.5212 2.9387 13.521 2.93249 13.4535 2.80447C13.3718 2.6497 13.2585 2.5565 13.1065 2.51896C13.0444 2.50361 12.7615 2.48322 12.478 2.47364C10.4551 2.40528 8.79052 1.77047 7.4479 0.555255C7.0559 0.200456 6.85895 0.132431 6.58873 0.258533ZM9.49932 6.05571C9.70277 6.26961 9.87351 6.45617 9.87876 6.47025C9.88404 6.48437 9.09236 7.23728 8.11949 8.14342C6.32248 9.81717 6.18683 9.92955 5.96388 9.92887C5.73778 9.92819 5.64408 9.84602 4.7453 8.86021C4.26707 8.33566 3.85079 7.87861 3.82024 7.84453C3.76591 7.78389 3.77341 7.77499 4.17697 7.42267C4.40369 7.22474 4.59877 7.05798 4.61049 7.05214C4.62217 7.0463 4.93588 7.37515 5.30763 7.78293C5.67936 8.19071 6.00019 8.52726 6.02056 8.53084C6.04093 8.53439 6.73948 7.89226 7.57287 7.10389C8.40627 6.31548 9.09745 5.66962 9.10879 5.66863C9.12016 5.66764 9.2959 5.84181 9.49932 6.05571Z" fill="#303030"/>
</svg>
