<svg width="206" height="36" fill="none" xmlns="http://www.w3.org/2000/svg"><g clip-path="url(#clip0_286_18069)" fill="#F0B90B"><path d="M6.491 5.514L16.021 0l9.53 5.514-3.504 2.037-6.026-3.477-6.026 3.477L6.49 5.514zm19.06 6.954l-3.504-2.037-6.026 3.477-6.026-3.477-3.504 2.037v4.075l6.027 3.477v6.954l3.503 2.037 3.504-2.037V20.02l6.026-3.477v-4.075zm0 11.029v-4.075l-3.504 2.037v4.075l3.504-2.037zm2.488 1.44l-6.027 3.477v4.074l9.53-5.514V15.945l-3.503 2.038v6.954zM24.535 8.99l3.504 2.037v4.074l3.503-2.037V8.991L28.04 6.954l-3.504 2.037zm-12.018 20.9v4.074L16.021 36l3.504-2.037v-4.074l-3.504 2.037-3.504-2.037zm-6.026-6.392l3.504 2.037V21.46L6.49 19.422v4.075zM12.518 8.99l3.503 2.037 3.504-2.037-3.504-2.037-3.504 2.037zm-8.514 2.037L7.507 8.99 4.004 6.953.5 8.991v4.074l3.504 2.037v-4.074zm0 6.955L.5 15.945v11.029l9.53 5.514v-4.074l-6.026-3.477v-6.954zm55.16 4.61v-.057c0-2.69-1.427-4.035-3.74-4.923 1.428-.801 2.627-2.06 2.627-4.321v-.058c0-3.148-2.513-5.18-6.596-5.18h-9.28v20.035h9.509c4.51 0 7.48-1.832 7.48-5.496zm-5.482-8.557c0 1.488-1.227 2.118-3.169 2.118h-4.054v-4.236h4.34c1.855 0 2.883.744 2.883 2.06v.058zm1.114 8.014c0 1.488-1.17 2.175-3.112 2.175h-5.225v-4.408h5.082c2.255 0 3.255.83 3.255 2.175v.058zm26.03 6.039V8.053h-4.34v12.336L67.12 8.053h-4.055v20.035h4.34V15.35l9.68 12.737h3.74zm22.072-5.496v-.057c0-2.69-1.427-4.035-3.74-4.923 1.428-.801 2.627-2.06 2.627-4.321v-.058c0-3.148-2.513-5.18-6.596-5.18H85.91v20.035h9.508c4.511 0 7.48-1.832 7.48-5.496zm-5.481-8.557c0 1.488-1.228 2.118-3.17 2.118h-4.054v-4.236h4.34c1.856 0 2.883.744 2.883 2.06v.058zm1.113 8.014c0 1.488-1.17 2.175-3.112 2.175h-5.225v-4.408h5.082c2.256 0 3.255.83 3.255 2.175v.058zm30.868 2.499l-2.255-2.29c-1.714 1.603-3.284 2.605-5.739 2.605-3.826 0-6.596-3.205-6.596-7.155s2.77-7.098 6.596-7.098c2.284 0 3.997 1.002 5.596 2.49l2.255-2.605c-1.913-1.832-4.14-3.12-7.823-3.12-6.053 0-10.307 4.666-10.307 10.39 0 5.782 4.34 10.332 10.164 10.332 3.741 0 6.025-1.373 8.109-3.549zm17.025-5.238v8.444h3.512V7.719h-3.512v8.329h-9.536v-8.33h-3.512v20.036h3.512V19.31h9.536zm19.264-11.734h-3.254l-8.794 20.178h3.597l2.056-4.837h9.451l2.027 4.837h3.711l-8.794-20.178zm1.77 12.221h-6.88l3.425-8.014 3.455 8.014zm10.938-12.078v20.035h3.511V7.719h-3.511zm23.11 13.853L190.798 7.719h-3.255v20.035h3.455V13.5l11.021 14.254h2.941V7.719h-3.455v13.853z"/></g><defs><clipPath id="clip0_286_18069"><path fill="#fff" transform="translate(.5)" d="M0 0h205v36H0z"/></clipPath></defs></svg>