<svg width="118" height="54" fill="none" xmlns="http://www.w3.org/2000/svg"><path d="M53.456 46.772v-34.76h14.59v4.463h-8.24v10h6.48v4.42h-6.48v11.5h8.326v4.377H53.456zm29.083.472c-2.46 0-4.42-.458-5.879-1.373-1.459-.916-2.503-2.232-3.132-3.948-.63-1.717-.945-3.748-.945-6.094V22.826c0-2.345.315-4.348.945-6.007.629-1.688 1.673-2.976 3.132-3.862 1.46-.887 3.419-1.33 5.88-1.33 2.517 0 4.49.443 5.921 1.33 1.46.886 2.504 2.174 3.133 3.862.658 1.659.987 3.662.987 6.008v13.045c0 2.317-.33 4.334-.987 6.05-.63 1.689-1.674 3.005-3.133 3.949-1.43.915-3.404 1.373-5.922 1.373zm0-4.678c1.059 0 1.831-.228 2.317-.686.516-.458.859-1.087 1.03-1.888a12.5 12.5 0 00.258-2.618V21.367c0-.972-.086-1.845-.258-2.617-.171-.773-.514-1.373-1.03-1.803-.486-.457-1.258-.686-2.317-.686-1.001 0-1.76.229-2.274.686-.515.43-.858 1.03-1.03 1.803-.172.772-.257 1.645-.257 2.617v16.007c0 .944.071 1.817.214 2.618.172.8.515 1.43 1.03 1.888.515.458 1.287.686 2.317.686zm24.782 4.678c-2.089 0-3.834-.4-5.236-1.202-1.402-.83-2.46-2.03-3.175-3.604-.716-1.574-1.116-3.505-1.202-5.794l5.45-1.072c.057 1.344.215 2.531.472 3.561.286 1.03.701 1.831 1.244 2.404.573.543 1.316.815 2.232.815 1.03 0 1.759-.3 2.189-.901.429-.63.643-1.416.643-2.36 0-1.517-.343-2.761-1.03-3.734-.686-.973-1.602-1.945-2.746-2.918l-4.377-3.862c-1.23-1.059-2.217-2.232-2.961-3.519-.715-1.316-1.073-2.932-1.073-4.85 0-2.746.8-4.863 2.403-6.35 1.602-1.488 3.791-2.232 6.566-2.232 1.63 0 2.989.258 4.076.773 1.088.486 1.946 1.173 2.575 2.06a9.102 9.102 0 011.459 3.046c.315 1.116.515 2.303.601 3.562l-5.407.944c-.057-1.087-.186-2.06-.386-2.918-.172-.858-.501-1.53-.987-2.017-.458-.486-1.145-.73-2.06-.73-.944 0-1.674.315-2.189.945-.486.6-.729 1.359-.729 2.274 0 1.173.243 2.146.729 2.918.487.744 1.188 1.516 2.103 2.317l4.334 3.82a17.365 17.365 0 013.648 4.248c1.03 1.602 1.545 3.548 1.545 5.836 0 1.66-.372 3.133-1.116 4.42-.715 1.288-1.731 2.303-3.047 3.047-1.287.715-2.803 1.073-4.548 1.073z" fill="#303030"/><path fill-rule="evenodd" clip-rule="evenodd" d="M14.568 4.974c-1.69 2.324-4.079 5.601-5.31 7.284-1.23 1.684-2.396 3.302-2.592 3.597l-.356.537 1.144 3.322c.63 1.826 1.364 3.965 1.633 4.751.269.787.524 1.43.568 1.43.044 0 .587-.853 1.207-1.895.62-1.043 1.831-3.064 2.692-4.49a2175 2175 0 002.93-4.873l1.366-2.278V6.555c0-3.193-.048-5.805-.105-5.805-.058 0-1.487 1.901-3.177 4.224zm3.684 1.567v5.79l4.048 6.75c4.515 7.526 4.116 6.882 4.208 6.791.037-.037.792-2.185 1.677-4.773l1.608-4.705-.354-.538c-.195-.296-1.12-1.585-2.054-2.866-3.269-4.48-5.974-8.199-7.427-10.211C19.153 1.663 18.44.75 18.373.75c-.07 0-.12 2.452-.12 5.79zm-1.176 8.147a118.61 118.61 0 00-1.239 2.094c-.163.293-.673 1.16-1.132 1.93-.459.768-1.4 2.354-2.093 3.525l-1.97 3.325c-.72 1.212-.812 1.539-.586 2.09.13.32.551 1.633 1.484 4.63.307.988.642 2.035.743 2.328.102.293.434 1.34.738 2.328.304.988.662 2.126.796 2.528.133.403.382 1.181.553 1.73.17.549.373 1.042.452 1.096.078.053 1.509.098 3.179.1 2.272 0 3.07-.04 3.168-.165.072-.091.194-.406.27-.698.076-.293.573-1.91 1.104-3.593.531-1.683 1.046-3.33 1.144-3.658.098-.33.34-1.108.538-1.73.198-.622.438-1.4.535-1.73.096-.329.424-1.394.73-2.366l.554-1.768-.492-.826a621.55 621.55 0 01-2-3.422c-.83-1.427-2.156-3.701-2.949-5.055a326.182 326.182 0 01-1.908-3.293c-.257-.457-.515-.86-.573-.896-.058-.036-.53.638-1.046 1.496zM5.458 18.744a1563.5 1563.5 0 00-1.368 5.954 2148.008 2148.008 0 01-1.896 8.25c-.108.475-.282 1.223-.387 1.662-.105.44-.49 2.116-.856 3.725-.365 1.61-.705 3.033-.756 3.162-.149.38.278.14.462-.26.087-.188 1.296-2.237 2.688-4.553a626.061 626.061 0 002.809-4.701c.153-.27.884-1.489 1.625-2.707.74-1.218 1.347-2.283 1.347-2.365.002-.254-3.149-9.656-3.236-9.66-.045-.002-.24.67-.432 1.493zm22.875 3.333l-1.629 4.85 4.091 6.835 4.438 7.416c.19.32.373.555.407.521.055-.055-.202-1.234-1.21-5.559-.18-.768-1.024-4.45-1.877-8.182s-1.61-7.025-1.68-7.318c-.071-.292-.26-1.13-.42-1.862-.16-.732-.337-1.38-.392-1.44-.054-.061-.832 2.071-1.728 4.739zM8.688 28.789c-.897 1.574-2.652 4.563-3.005 5.12-.174.273-.316.525-.316.56 0 .034-.351.649-.781 1.366-1.199 1.999-2.237 3.761-2.648 4.496-.205.366-.54.932-.744 1.259-.204.326-.341.64-.305.698.036.058 2.963.105 6.504.105 5.554 0 6.449-.027 6.515-.196.041-.108-.164-.931-.458-1.83a215.2 215.2 0 01-.962-3.03 80.11 80.11 0 00-.614-1.929c-.102-.292-.426-1.31-.719-2.261-1.247-4.043-1.693-5.389-1.783-5.389-.053 0-.36.464-.684 1.031zm17.689-.864c-.03.091-.335 1.064-.677 2.162a147.736 147.736 0 01-.739 2.328c-.064.183-.397 1.23-.739 2.328-1.1 3.536-1.278 4.097-1.822 5.759-.294.899-.498 1.692-.454 1.763.105.168 12.904.175 13.009.007.041-.067-.235-.65-.614-1.297l-1.429-2.44c-.406-.695-1.162-1.982-1.679-2.86-2.283-3.879-3.097-5.276-3.82-6.55-.758-1.337-.928-1.533-1.036-1.2zM.27 42.975c.109.101 2.644 1.64 5.633 3.418 2.99 1.779 6.82 4.062 8.51 5.075 1.69 1.012 3.1 1.814 3.132 1.781.033-.032-.062-.408-.21-.834-.253-.723-.59-1.786-2.125-6.696a76.616 76.616 0 00-.779-2.394l-.176-.466-7.092-.035c-6.05-.029-7.062-.007-6.893.15zm14.76-.042c0 .078.297 1.11.66 2.295l1.151 3.751c.27.878.645 2.105.834 2.727.31 1.015.358 1.097.474.798.125-.322.549-1.777 1.8-6.186.728-2.563.808-2.841.926-3.226l.092-.3H18c-2 0-2.969.047-2.969.141zm6.513.026c-.057.174-.868 2.77-1.817 5.82-.307.988-.74 2.35-.962 3.025-.221.676-.382 1.282-.357 1.347.025.065 3.488-1.939 7.696-4.453 4.207-2.514 8.087-4.815 8.62-5.113.534-.298 1.005-.598 1.048-.667.049-.078-2.617-.126-7.047-.126-5.582 0-7.138.036-7.18.167z" fill="url(#paint0_linear_286_18183)"/><defs><linearGradient id="paint0_linear_286_18183" x1="17.968" y1=".75" x2="17.968" y2="53.25" gradientUnits="userSpaceOnUse"><stop stop-color="#232323" stop-opacity=".69"/><stop offset="1" stop-color="#232323"/></linearGradient></defs></svg>