<svg width="176" height="36" fill="none" xmlns="http://www.w3.org/2000/svg"><g clip-path="url(#clip0_286_18041)"><path d="M18.738 35.61c9.573 0 17.333-7.95 17.333-17.756 0-9.807-7.76-17.756-17.333-17.756-9.573 0-17.334 7.95-17.334 17.756 0 9.806 7.76 17.756 17.334 17.756z" fill="#627EEA"/><path d="M19.277 4.536v9.844l8.122 3.717-8.122-13.56z" fill="#fff" fill-opacity=".602"/><path d="M19.27 4.536l-8.123 13.561 8.122-3.717V4.536z" fill="#fff"/><path d="M19.277 24.477v6.688l8.127-11.518-8.127 4.83z" fill="#fff" fill-opacity=".602"/><path d="M19.27 31.165v-6.69l-8.123-4.828 8.122 11.518z" fill="#fff"/><path d="M19.277 22.927l8.122-4.83-8.122-3.716v8.546z" fill="#fff" fill-opacity=".2"/><path d="M11.146 18.096l8.123 4.831v-8.546l-8.122 3.715z" fill="#fff" fill-opacity=".602"/></g><path d="M48.64 30.057V5.61h10.262v3.14h-5.795v7.032h4.557v3.108h-4.557v8.088h5.855v3.079H48.641zm16.26 0V8.9h-3.894V5.61H73.2V8.9h-3.833v21.157H64.9zm11.489 0V5.61h4.437v10.23h4.98V5.612h4.466v24.446h-4.467V19.01h-4.98v11.046H76.39zm18.529 0V5.61h10.261v3.14h-5.794v7.032h4.557v3.108h-4.557v8.088h5.854v3.079H94.918zm13.814 0V5.61h5.855c1.65 0 3.038.201 4.165.603 1.147.383 2.012 1.047 2.596 1.992.603.946.905 2.234.905 3.863 0 .986-.09 1.872-.272 2.656-.181.785-.492 1.459-.935 2.022-.423.544-1.016.966-1.781 1.268l3.411 12.042h-4.467l-2.958-11.197h-2.052v11.197h-4.467zm4.467-14.004h1.388c.865 0 1.55-.12 2.053-.362a2.259 2.259 0 001.116-1.207c.222-.563.332-1.278.332-2.143 0-1.227-.231-2.143-.694-2.746-.443-.624-1.298-.936-2.565-.936h-1.63v7.394zm13.356 14.004V5.61h10.261v3.14h-5.794v7.032h4.557v3.108h-4.557v8.088h5.855v3.079h-10.322zm20.515.332c-1.811 0-3.219-.332-4.225-.996-1.006-.664-1.701-1.61-2.083-2.837-.382-1.227-.573-2.696-.573-4.406V5.61h4.346v17.053c0 .764.05 1.489.151 2.173.1.664.331 1.207.694 1.63.382.402.945.603 1.69.603.784 0 1.348-.201 1.69-.604.362-.422.593-.965.694-1.63.121-.683.181-1.408.181-2.172V5.61h4.316v16.54c0 1.71-.191 3.179-.574 4.406-.382 1.227-1.076 2.173-2.082 2.837-.986.664-2.394.996-4.225.996zm11.239-.332l.423-24.446h4.617l3.471 16.931 3.622-16.931h4.466l.453 24.446h-3.32l-.362-16.992-3.471 16.992h-2.686l-3.531-17.052-.332 17.052h-3.35z" fill="#303030"/><defs><clipPath id="clip0_286_18041"><path fill="#fff" transform="translate(.64)" d="M0 0h36v36H0z"/></clipPath></defs></svg>