<svg width="194" height="28" fill="none" xmlns="http://www.w3.org/2000/svg"><path d="M18.195 11.566v4.746H5.065v-4.746h13.13zM7.121 1.406V27H.951V1.406h6.17zm15.223 0V27H16.19V1.406h6.153zm21.533 20.848V27h-13.64v-4.746h13.64zM32.434 1.406V27h-6.17V1.406h6.17zm9.685 10.16v4.588H30.236v-4.588H42.12zm1.81-10.16V6.17H30.237V1.406H43.93zm17.034 16.928h6.152c-.082 1.781-.562 3.352-1.441 4.71-.88 1.36-2.098 2.42-3.656 3.183-1.547.75-3.375 1.125-5.485 1.125-1.71 0-3.24-.288-4.588-.862a9.35 9.35 0 01-3.41-2.478c-.926-1.078-1.635-2.385-2.127-3.92-.48-1.535-.72-3.264-.72-5.186v-1.388c0-1.922.252-3.65.755-5.186.516-1.547 1.242-2.86 2.18-3.937a9.458 9.458 0 013.41-2.497c1.324-.574 2.795-.86 4.412-.86 2.227 0 4.108.398 5.643 1.194 1.535.797 2.724 1.893 3.568 3.288.844 1.382 1.342 2.959 1.494 4.728h-6.152c-.023-.96-.188-1.764-.492-2.408a3.042 3.042 0 00-1.441-1.477c-.657-.328-1.53-.492-2.62-.492-.761 0-1.423.14-1.986.422-.563.281-1.031.727-1.406 1.336-.375.61-.656 1.4-.844 2.373-.176.96-.264 2.121-.264 3.48v1.424c0 1.36.082 2.52.246 3.48.164.962.428 1.747.791 2.356.364.61.833 1.06 1.407 1.354.586.281 1.3.422 2.144.422.938 0 1.729-.147 2.373-.44a3.323 3.323 0 001.494-1.371c.352-.621.54-1.412.563-2.373zm30.726-4.64v1.036c0 1.957-.275 3.715-.826 5.274-.539 1.547-1.306 2.871-2.302 3.973a10.204 10.204 0 01-3.534 2.513c-1.359.575-2.859.862-4.5.862-1.652 0-3.164-.288-4.535-.862a10.383 10.383 0 01-3.55-2.513c-.997-1.102-1.77-2.426-2.32-3.973-.54-1.559-.81-3.317-.81-5.274v-1.037c0-1.957.27-3.714.81-5.273.55-1.559 1.317-2.883 2.302-3.973a9.909 9.909 0 013.533-2.513c1.371-.586 2.883-.88 4.535-.88 1.64 0 3.14.294 4.5.88a9.871 9.871 0 013.551 2.513c.996 1.09 1.77 2.414 2.32 3.973.551 1.559.826 3.316.826 5.273zm-6.257 1.036v-1.072c0-1.265-.112-2.379-.334-3.34-.211-.972-.528-1.787-.95-2.443-.421-.656-.943-1.148-1.564-1.477-.61-.34-1.307-.51-2.092-.51-.82 0-1.535.17-2.144.51-.61.329-1.12.82-1.53 1.477-.41.656-.72 1.47-.931 2.443-.2.961-.3 2.075-.3 3.34v1.072c0 1.254.1 2.368.3 3.34.21.961.521 1.776.931 2.444.422.668.938 1.172 1.547 1.511.621.34 1.342.51 2.162.51.785 0 1.483-.17 2.092-.51.61-.34 1.12-.843 1.53-1.511.421-.668.738-1.483.949-2.444.222-.972.334-2.086.334-3.34z" fill="#AEFB19"/><path d="M118.408 18.334h6.153c-.082 1.781-.563 3.352-1.442 4.71-.879 1.36-2.098 2.42-3.656 3.183-1.547.75-3.375 1.125-5.484 1.125-1.711 0-3.241-.288-4.588-.862a9.356 9.356 0 01-3.411-2.478c-.925-1.078-1.634-2.385-2.126-3.92-.481-1.535-.721-3.264-.721-5.186v-1.388c0-1.922.252-3.65.756-5.186.515-1.547 1.242-2.86 2.179-3.937a9.46 9.46 0 013.411-2.497c1.324-.574 2.794-.86 4.412-.86 2.226 0 4.107.398 5.642 1.194 1.535.797 2.725 1.893 3.569 3.288.843 1.382 1.341 2.959 1.494 4.728h-6.153c-.023-.96-.187-1.764-.492-2.408a3.044 3.044 0 00-1.441-1.477c-.656-.328-1.53-.492-2.619-.492-.762 0-1.424.14-1.987.422-.562.281-1.031.727-1.406 1.336-.375.61-.656 1.4-.844 2.373-.175.96-.263 2.121-.263 3.48v1.424c0 1.36.082 2.52.246 3.48.164.962.427 1.747.791 2.356.363.61.832 1.06 1.406 1.354.586.281 1.301.422 2.145.422.937 0 1.728-.147 2.373-.44a3.328 3.328 0 001.494-1.371c.351-.621.539-1.412.562-2.373zM132.998 0v27h-5.924V0h5.924zm-.703 16.84l-1.389.035c0-1.336.164-2.566.492-3.691.329-1.125.797-2.104 1.407-2.936a6.503 6.503 0 012.197-1.934c.855-.457 1.805-.685 2.848-.685.937 0 1.793.135 2.566.404a4.94 4.94 0 012.022 1.301c.574.598 1.013 1.377 1.318 2.338.316.96.474 2.133.474 3.515V27h-5.959V15.152c0-.773-.111-1.37-.333-1.793-.211-.433-.516-.732-.915-.896-.398-.176-.884-.264-1.459-.264-.691 0-1.253.117-1.687.352a2.452 2.452 0 00-1.002.984c-.223.41-.375.897-.457 1.46a12.836 12.836 0 00-.123 1.845zm25.101 5.379v-7.84c0-.54-.076-1.002-.228-1.389a1.83 1.83 0 00-.721-.896c-.328-.223-.767-.334-1.318-.334-.445 0-.826.076-1.143.228a1.574 1.574 0 00-.72.686c-.164.305-.246.691-.246 1.16h-5.924c0-.879.193-1.693.58-2.443a6.043 6.043 0 011.687-1.987c.739-.562 1.617-.996 2.637-1.3 1.031-.317 2.18-.475 3.445-.475 1.512 0 2.86.252 4.043.756 1.196.504 2.139 1.26 2.83 2.267.692.996 1.037 2.25 1.037 3.762v7.787c0 1.242.071 2.186.211 2.83.141.633.34 1.19.598 1.67V27h-5.941c-.282-.586-.493-1.3-.633-2.145a17.662 17.662 0 01-.194-2.636zm.721-6.838l.035 3.164h-2.619c-.551 0-1.019.076-1.406.228-.375.153-.68.364-.914.633a2.49 2.49 0 00-.492.88 3.748 3.748 0 00-.141 1.036c0 .352.082.668.246.95.176.269.41.48.703.632.293.153.621.229.985.229.656 0 1.213-.123 1.67-.37.468-.257.826-.568 1.072-.931.246-.363.369-.703.369-1.02l1.301 2.426c-.235.469-.504.944-.809 1.424-.293.48-.662.926-1.107 1.336a5.277 5.277 0 01-1.6.984c-.633.247-1.4.37-2.303.37-1.171 0-2.25-.24-3.234-.721a5.99 5.99 0 01-2.338-2.004c-.586-.867-.879-1.863-.879-2.988 0-.985.176-1.864.528-2.637a5.165 5.165 0 011.634-1.969c.727-.539 1.653-.949 2.778-1.23 1.125-.282 2.449-.422 3.972-.422h2.549zm14.783-7.4V27h-5.941V7.98h5.941zm-6.293-4.905c0-.844.305-1.535.914-2.074.61-.54 1.401-.809 2.374-.809.972 0 1.763.27 2.373.809.609.539.914 1.23.914 2.074 0 .844-.305 1.535-.914 2.074-.61.54-1.401.809-2.373.809-.973 0-1.764-.27-2.374-.809-.609-.539-.914-1.23-.914-2.074zm15.768 8.965V27h-5.924V7.98h5.555l.369 4.061zm-.703 4.799l-1.389.035c0-1.453.176-2.748.528-3.885.351-1.148.849-2.12 1.494-2.918a6.354 6.354 0 012.302-1.81c.903-.422 1.905-.633 3.006-.633.879 0 1.682.129 2.408.387a4.591 4.591 0 011.899 1.248c.539.574.949 1.336 1.23 2.285.293.937.44 2.098.44 3.48V27h-5.959V15.012c0-.762-.106-1.342-.317-1.74-.21-.41-.515-.692-.914-.844-.398-.153-.884-.229-1.459-.229-.609 0-1.125.117-1.546.352a2.739 2.739 0 00-1.02.984c-.246.41-.428.897-.545 1.46a10.075 10.075 0 00-.158 1.845z" fill="#303030"/></svg>