<svg width="242" height="36" fill="none" xmlns="http://www.w3.org/2000/svg"><g clip-path="url(#clip0_286_18096)"><path d="M40.657 28.384l-6.638 7.125a1.534 1.534 0 01-1.124.491H1.428a.77.77 0 01-.76-.901.773.773 0 01.194-.396l6.63-7.125a1.536 1.536 0 011.124-.492h31.468a.768.768 0 01.573 1.298zm-6.638-14.351a1.552 1.552 0 00-1.124-.492H1.428a.771.771 0 00-.566 1.298l6.63 7.129a1.552 1.552 0 001.124.49h31.468a.771.771 0 00.562-1.297l-6.627-7.128zM1.428 8.913h31.467a1.533 1.533 0 001.124-.49l6.638-7.125A.77.77 0 0040.084 0H8.616a1.535 1.535 0 00-1.123.491L.861 7.616a.773.773 0 00.566 1.298z" fill="url(#paint0_linear_286_18096)"/><path d="M79.02 15.225H62.187v-5.55h21.21v-5.55H62.13A5.528 5.528 0 0057 7.517a5.541 5.541 0 00-.433 2.117v5.625a5.543 5.543 0 003.442 5.105 5.53 5.53 0 002.121.411h16.858v5.55h-22.02v5.55h22.054a5.526 5.526 0 003.92-1.6 5.54 5.54 0 001.643-3.909v-5.625a5.544 5.544 0 00-3.442-5.105 5.528 5.528 0 00-2.121-.41zm32.615-11.1H94.736a5.529 5.529 0 00-5.144 3.388 5.535 5.535 0 00-.434 2.12v16.733a5.534 5.534 0 001.647 3.913 5.534 5.534 0 003.931 1.596h16.899a5.53 5.53 0 005.13-3.391 5.54 5.54 0 00.433-2.118V9.634a5.54 5.54 0 00-5.563-5.509zm-.041 22.2H94.777V9.675h16.809l.008 16.65zm59.229-22.2H154.34a5.528 5.528 0 00-5.13 3.392 5.54 5.54 0 00-.433 2.117v22.241h5.62V22.76h16.408v9.116h5.619V9.635a5.546 5.546 0 00-1.655-3.922 5.531 5.531 0 00-3.946-1.588zm-.041 13.084h-16.408V9.675h16.408v7.534zm65.655-13.084h-16.483a5.53 5.53 0 00-5.131 3.392 5.539 5.539 0 00-.432 2.117v22.241h5.619V22.76h16.37v9.116H242V9.634a5.54 5.54 0 00-5.563-5.509zm-.057 13.084h-16.408V9.675h16.408v7.534zm-32.59 9.116h-2.247L193.507 6.45a3.706 3.706 0 00-3.431-2.325h-4.986a3.689 3.689 0 00-3.709 3.675v24.075H187v-22.2h2.248l8.031 19.875a3.72 3.72 0 003.447 2.31h4.986a3.68 3.68 0 002.615-1.069 3.704 3.704 0 001.094-2.606V4.125h-5.631v22.2zm-76.009-22.2h-5.619v22.241a5.543 5.543 0 003.456 5.104 5.532 5.532 0 002.126.405h16.857v-5.55h-16.82v-22.2z" fill="#303030"/></g><defs><linearGradient id="paint0_linear_286_18096" x1="4.05" y1="36.859" x2="37.084" y2="-.345" gradientUnits="userSpaceOnUse"><stop offset=".08" stop-color="#9945FF"/><stop offset=".3" stop-color="#8752F3"/><stop offset=".5" stop-color="#5497D5"/><stop offset=".6" stop-color="#43B4CA"/><stop offset=".72" stop-color="#28E0B9"/><stop offset=".97" stop-color="#19FB9B"/></linearGradient><clipPath id="clip0_286_18096"><path fill="#fff" d="M0 0h242v36H0z"/></clipPath></defs></svg>