<svg width="206" height="36" viewBox="0 0 206 36" fill="none" xmlns="http://www.w3.org/2000/svg">
<g clip-path="url(#clip0_286_18069)">
<path d="M6.49127 5.51415L16.0212 0L25.5512 5.51415L22.0474 7.55123L16.0212 4.07415L9.99493 7.55123L6.49127 5.51415ZM25.5512 12.4683L22.0474 10.4312L16.0212 13.9083L9.99493 10.4312L6.49127 12.4683V16.5425L12.5175 20.0195V26.9736L16.0212 29.0107L19.5249 26.9736V20.0195L25.5512 16.5425V12.4683ZM25.5512 23.4966V19.4225L22.0474 21.4595V25.5336L25.5512 23.4966ZM28.0387 24.9366L22.0124 28.4136V32.4878L31.5424 26.9736V15.9453L28.0387 17.9825V24.9366ZM24.5351 8.99123L28.0387 11.0283V15.1025L31.5424 13.0654V8.99123L28.0387 6.95415L24.5351 8.99123ZM12.5175 29.8888V33.963L16.0212 36L19.5249 33.963V29.8888L16.0212 31.9258L12.5175 29.8888ZM6.49127 23.4966L9.99493 25.5336V21.4595L6.49127 19.4225V23.4966ZM12.5175 8.99123L16.0212 11.0283L19.5249 8.99123L16.0212 6.95415L12.5175 8.99123ZM4.00364 11.0283L7.5073 8.99123L4.00364 6.95415L0.5 8.99123V13.0654L4.00364 15.1025V11.0283ZM4.00364 17.9825L0.5 15.9453V26.9736L10.0299 32.4878V28.4136L4.00364 24.9366V17.9825Z" fill="#F0B90B"/>
<path d="M59.1641 22.5924V22.5352C59.1641 19.8448 57.7366 18.4996 55.4239 17.6124C56.8515 16.8109 58.0507 15.5515 58.0507 13.2905V13.2332C58.0507 10.0849 55.5382 8.05273 51.4552 8.05273H42.1758V28.0878H51.6836C56.1948 28.0878 59.1641 26.256 59.1641 22.5924ZM53.6823 14.0346C53.6823 15.5229 52.4545 16.1526 50.513 16.1526H46.4586V11.9166H50.7985C52.6544 11.9166 53.6823 12.6608 53.6823 13.9774V14.0346ZM54.7957 22.0486C54.7957 23.5369 53.6251 24.2239 51.6836 24.2239H46.4586V19.8162H51.5408C53.7964 19.8162 54.7957 20.6461 54.7957 21.9913V22.0486Z" fill="#F0B90B"/>
<path d="M80.8257 28.0878V8.05273H76.4858V20.3886L67.1208 8.05273H63.0664V28.0878H67.4063V15.3513L77.0854 28.0878H80.8257Z" fill="#F0B90B"/>
<path d="M102.898 22.5924V22.5352C102.898 19.8448 101.471 18.4996 99.1581 17.6124C100.586 16.8109 101.785 15.5515 101.785 13.2905V13.2332C101.785 10.0849 99.2724 8.05273 95.1895 8.05273H85.9102V28.0878H95.4178C99.929 28.0878 102.898 26.256 102.898 22.5924ZM97.4165 14.0346C97.4165 15.5229 96.1887 16.1526 94.2472 16.1526H90.1929V11.9166H94.5327C96.3887 11.9166 97.4165 12.6608 97.4165 13.9774V14.0346ZM98.5301 22.0486C98.5301 23.5369 97.3593 24.2239 95.4178 24.2239H90.1929V19.8162H95.2751C97.5307 19.8162 98.5301 20.6461 98.5301 21.9913V22.0486Z" fill="#F0B90B"/>
<path d="M129.398 24.5484L127.143 22.2587C125.429 23.8614 123.859 24.8633 121.404 24.8633C117.578 24.8633 114.808 21.6576 114.808 17.7078C114.808 13.7581 117.578 10.6097 121.404 10.6097C123.688 10.6097 125.401 11.6115 127 13.0998L129.255 10.4952C127.342 8.66346 125.115 7.37549 121.432 7.37549C115.379 7.37549 111.125 12.0408 111.125 17.7651C111.125 23.5466 115.465 28.0974 121.289 28.0974C125.03 28.0974 127.314 26.7236 129.398 24.5484Z" fill="#F0B90B"/>
<path d="M146.423 19.3105V27.7539H149.935V7.71875H146.423V16.0476H136.887V7.71875H133.375V27.7539H136.887V19.3105H146.423Z" fill="#F0B90B"/>
<path d="M165.687 7.57568H162.433L153.639 27.7539H157.236L159.292 22.9168H168.743L170.77 27.7539H174.481L165.687 7.57568ZM167.457 19.797H160.577L164.002 11.783L167.457 19.797Z" fill="#F0B90B"/>
<path d="M178.395 7.71875V27.7539H181.906V7.71875H178.395Z" fill="#F0B90B"/>
<path d="M201.505 21.5716L190.798 7.71875H187.543V27.7539H190.998V13.5003L202.019 27.7539H204.96V7.71875H201.505V21.5716Z" fill="#F0B90B"/>
</g>
<defs>
<clipPath id="clip0_286_18069">
<rect width="205" height="36" fill="white" transform="translate(0.5)"/>
</clipPath>
</defs>
</svg>
