<svg width="118" height="54" viewBox="0 0 118 54" fill="none" xmlns="http://www.w3.org/2000/svg">
<path d="M53.4556 46.772V12.0124H68.046V16.4754H59.8067V26.4741H66.2866V30.8941H59.8067V42.3948H68.1319V46.772H53.4556ZM82.5392 47.244C80.0789 47.244 78.1192 46.7863 76.6601 45.8708C75.2011 44.9553 74.1569 43.6393 73.5275 41.9228C72.8981 40.2063 72.5834 38.1751 72.5834 35.8291V22.8265C72.5834 20.4806 72.8981 18.478 73.5275 16.8187C74.1569 15.1308 75.2011 13.8434 76.6601 12.9565C78.1192 12.0696 80.0789 11.6262 82.5392 11.6262C85.0568 11.6262 87.0308 12.0696 88.4612 12.9565C89.9203 13.8434 90.9645 15.1308 91.5939 16.8187C92.2519 18.478 92.5809 20.4806 92.5809 22.8265V35.8721C92.5809 38.1894 92.2519 40.2063 91.5939 41.9228C90.9645 43.6107 89.9203 44.9267 88.4612 45.8708C87.0308 46.7863 85.0568 47.244 82.5392 47.244ZM82.5392 42.5665C83.5978 42.5665 84.3702 42.3376 84.8565 41.8799C85.3715 41.4221 85.7148 40.7928 85.8865 39.9917C86.0581 39.1907 86.1439 38.3181 86.1439 37.374V21.3674C86.1439 20.3948 86.0581 19.5222 85.8865 18.7498C85.7148 17.9773 85.3715 17.3765 84.8565 16.9474C84.3702 16.4897 83.5978 16.2608 82.5392 16.2608C81.5379 16.2608 80.7798 16.4897 80.2648 16.9474C79.7499 17.3765 79.4066 17.9773 79.2349 18.7498C79.0633 19.5222 78.9775 20.3948 78.9775 21.3674V37.374C78.9775 38.3181 79.049 39.1907 79.192 39.9917C79.3637 40.7928 79.707 41.4221 80.2219 41.8799C80.7369 42.3376 81.5093 42.5665 82.5392 42.5665ZM107.321 47.244C105.232 47.244 103.487 46.8435 102.085 46.0425C100.683 45.2128 99.6248 44.0112 98.9096 42.4378C98.1943 40.8643 97.7938 38.9332 97.708 36.6445L103.158 35.5717C103.215 36.9163 103.373 38.1035 103.63 39.1335C103.916 40.1634 104.331 40.9644 104.874 41.5366C105.447 42.0801 106.19 42.3519 107.106 42.3519C108.136 42.3519 108.865 42.0515 109.295 41.4508C109.724 40.8214 109.938 40.0346 109.938 39.0905C109.938 37.5743 109.595 36.3298 108.908 35.3571C108.222 34.3844 107.306 33.4117 106.162 32.439L101.785 28.5768C100.555 27.5183 99.5676 26.3454 98.8237 25.058C98.1085 23.742 97.7509 22.1256 97.7509 20.2088C97.7509 17.4624 98.5519 15.3453 100.154 13.8577C101.756 12.37 103.945 11.6262 106.72 11.6262C108.35 11.6262 109.709 11.8837 110.796 12.3986C111.884 12.885 112.742 13.5716 113.371 14.4584C114.029 15.3453 114.516 16.3609 114.83 17.5053C115.145 18.621 115.345 19.8083 115.431 21.0671L110.024 22.0111C109.967 20.924 109.838 19.9513 109.638 19.0931C109.466 18.2348 109.137 17.5625 108.651 17.0761C108.193 16.5898 107.506 16.3466 106.591 16.3466C105.647 16.3466 104.917 16.6613 104.402 17.2907C103.916 17.8915 103.673 18.6496 103.673 19.5651C103.673 20.7381 103.916 21.7108 104.402 22.4832C104.889 23.227 105.59 23.9994 106.505 24.8005L110.839 28.6198C112.27 29.8213 113.486 31.2374 114.487 32.8681C115.517 34.4702 116.032 36.4156 116.032 38.7043C116.032 40.3636 115.66 41.837 114.916 43.1244C114.201 44.4118 113.185 45.4274 111.869 46.1712C110.582 46.8864 109.066 47.244 107.321 47.244Z" fill="#303030"/>
<path fill-rule="evenodd" clip-rule="evenodd" d="M14.5679 4.9742C12.8779 7.29758 10.489 10.5754 9.25894 12.2585C8.02885 13.9415 6.86198 15.56 6.66602 15.8552L6.30968 16.3919L7.45414 19.7135C8.08348 21.5404 8.81831 23.6788 9.08701 24.4654C9.35571 25.2521 9.61139 25.8956 9.65528 25.8956C9.69904 25.8956 10.2421 25.0424 10.862 23.9997C11.4818 22.9569 12.6934 20.9364 13.5541 19.5094C14.415 18.0825 15.7337 15.8899 16.4845 14.637L17.8496 12.359V6.55452C17.8496 3.36209 17.8025 0.75 17.7449 0.75C17.6874 0.75 16.2576 2.65096 14.5679 4.9742ZM18.2522 6.54068V12.3312L22.3002 19.0802C26.8149 26.6074 26.4159 25.9632 26.5076 25.8724C26.5452 25.8352 27.2997 23.6873 28.1846 21.0993L29.7933 16.3939L29.4386 15.8561C29.2436 15.5605 28.3194 14.2708 27.385 12.9902C24.116 8.51016 21.4113 4.79113 19.9584 2.77895C19.1528 1.66296 18.4393 0.75 18.3729 0.75C18.3034 0.75 18.2522 3.20203 18.2522 6.54068ZM17.0755 14.6885C16.5583 15.5472 16.0011 16.4893 15.8374 16.782C15.6737 17.0747 15.1642 17.9428 14.7053 18.7112C14.2464 19.4795 13.3045 21.0661 12.6119 22.2369C11.9195 23.4077 11.033 24.9041 10.6419 25.5621C9.92197 26.7736 9.8303 27.1006 10.0558 27.6522C10.1869 27.9729 10.6073 29.2846 11.5397 32.2818C11.8469 33.2697 12.1815 34.3174 12.2831 34.6101C12.3847 34.9028 12.7168 35.9506 13.0209 36.9384C13.3252 37.9263 13.6832 39.0638 13.8168 39.4663C13.9505 39.8688 14.199 40.6471 14.3695 41.1959C14.5398 41.7447 14.7433 42.2378 14.8217 42.2915C14.8999 42.3453 16.3305 42.3901 18.001 42.3913C20.2732 42.3928 21.0709 42.3514 21.1689 42.227C21.2409 42.1356 21.3625 41.8212 21.439 41.5285C21.5155 41.2358 22.0125 39.6193 22.5434 37.9363C23.0742 36.2532 23.5888 34.6068 23.6868 34.2775C23.7849 33.9482 24.027 33.1699 24.2248 32.5479C24.4227 31.9259 24.6633 31.1476 24.7596 30.8183C24.8559 30.489 25.1842 29.4241 25.4892 28.4518L26.0437 26.6839L25.5521 25.8575C25.2817 25.4028 24.3817 23.8634 23.5523 22.4365C22.7228 21.0095 21.3956 18.7345 20.603 17.3807C19.8103 16.027 18.9518 14.5454 18.695 14.0882C18.4382 13.6312 18.1804 13.228 18.122 13.1922C18.0636 13.1565 17.5928 13.8299 17.0755 14.6885ZM5.45768 18.7444C5.26508 19.5677 4.64943 22.2469 4.08961 24.6982C3.52966 27.1496 2.91818 29.8138 2.73054 30.6188C2.54304 31.4237 2.30145 32.4714 2.19381 32.9471C2.08617 33.4227 1.91209 34.1711 1.80673 34.6101C1.70151 35.0492 1.31644 36.7256 0.951106 38.3354C0.58577 39.9453 0.245533 41.3679 0.195068 41.4967C0.0459543 41.8771 0.473296 41.6371 0.657038 41.2373C0.743741 41.0486 1.9533 38.9997 3.34498 36.6843C4.73653 34.3689 6.00058 32.2531 6.15386 31.9826C6.30713 31.7121 7.03847 30.4941 7.77894 29.2758C8.51955 28.0575 9.12594 26.9933 9.12634 26.9106C9.12755 26.6575 5.97696 17.2547 5.88972 17.2511C5.84462 17.2493 5.65028 17.9213 5.45768 18.7444ZM28.3331 22.0767L26.7041 26.9263L30.7954 33.7618C33.0456 37.5213 35.0424 40.8588 35.2327 41.1785C35.4231 41.4982 35.6064 41.7325 35.64 41.6991C35.6952 41.6444 35.4383 40.4647 34.4297 36.1402C34.2504 35.3718 33.4059 31.6898 32.5528 27.9578C31.6997 24.2259 30.9438 20.933 30.873 20.6403C30.802 20.3476 30.6128 19.5094 30.4525 18.7777C30.2922 18.0459 30.1162 17.3977 30.0615 17.3372C30.0067 17.2767 29.2289 19.4094 28.3331 22.0767ZM8.68799 28.7894C7.79062 30.3634 6.03601 33.3523 5.68262 33.909C5.50935 34.182 5.36748 34.4336 5.36748 34.4683C5.36748 34.5029 5.01584 35.1177 4.58594 35.8346C3.3874 37.8337 2.34937 39.5963 1.93813 40.3311C1.73332 40.697 1.39858 41.2634 1.19444 41.5897C0.990162 41.9159 0.852592 42.2303 0.888696 42.2882C0.924666 42.3459 3.85165 42.3933 7.3928 42.3933C12.9472 42.3933 13.842 42.3663 13.9075 42.1968C13.9494 42.0888 13.7436 41.2656 13.4502 40.3674C13.1568 39.4694 12.7237 38.1059 12.4879 37.3376C12.252 36.5692 11.9757 35.7011 11.8739 35.4084C11.772 35.1157 11.4485 34.0979 11.155 33.1466C9.90761 29.1039 9.46228 27.7583 9.37182 27.7583C9.31894 27.7583 9.01118 28.2223 8.68799 28.7894ZM26.3766 27.9246C26.3468 28.0161 26.0424 28.989 25.7004 30.0866C25.3583 31.1842 25.0257 32.2319 24.9611 32.4149C24.8966 32.5978 24.5641 33.6456 24.2224 34.7432C23.1212 38.2795 22.9439 38.8399 22.4003 40.5019C22.1064 41.4008 21.9018 42.194 21.946 42.2648C22.0507 42.4327 34.8502 42.4397 34.9549 42.2718C34.9965 42.2052 34.7203 41.6214 34.3411 40.9746C33.9619 40.328 33.3189 39.2301 32.9122 38.535C32.5056 37.8398 31.7499 36.5526 31.2331 35.6745C28.9503 31.7961 28.1356 30.3992 27.4127 29.1243C26.6551 27.7881 26.4854 27.5916 26.3766 27.9246ZM0.270901 42.9746C0.379616 43.0761 2.91469 44.6144 5.90435 46.3932C8.89401 48.1719 12.7231 50.4553 14.4132 51.4677C16.1036 52.48 17.5132 53.2816 17.5461 53.249C17.5789 53.2166 17.484 52.8413 17.3351 52.415C17.0825 51.692 16.7455 50.6292 15.2112 45.7195C14.8796 44.6584 14.5289 43.5807 14.432 43.3246L14.2557 42.859L7.16437 42.8245C1.11311 42.7951 0.102191 42.8172 0.270901 42.9746ZM15.031 42.9333C15.031 43.0108 15.3283 44.0436 15.6918 45.2284C16.0551 46.4132 16.5729 48.101 16.8423 48.9791C17.1117 49.8572 17.4869 51.0844 17.6762 51.7062C17.9851 52.7214 18.0336 52.8029 18.1495 52.5045C18.2749 52.1819 18.6985 50.7266 19.9503 46.3182C20.6782 43.7548 20.758 43.4767 20.876 43.0918L20.9678 42.7924H17.9995C15.9998 42.7924 15.031 42.8385 15.031 42.9333ZM21.5441 42.9588C21.4866 43.1329 20.6759 45.7293 19.727 48.7795C19.4196 49.7674 18.9869 51.1286 18.7655 51.8044C18.544 52.4803 18.3832 53.0865 18.4082 53.1514C18.4331 53.2164 21.8962 51.2125 26.1039 48.6983C30.3115 46.1842 34.1906 43.8833 34.724 43.5853C35.2575 43.2872 35.7292 42.987 35.7721 42.9179C35.8208 42.8399 33.1545 42.7924 28.7248 42.7924C23.1432 42.7924 21.5872 42.8285 21.5441 42.9588Z" fill="url(#paint0_linear_286_18183)"/>
<defs>
<linearGradient id="paint0_linear_286_18183" x1="17.9684" y1="0.75" x2="17.9684" y2="53.25" gradientUnits="userSpaceOnUse">
<stop stop-color="#232323" stop-opacity="0.69"/>
<stop offset="1" stop-color="#232323"/>
</linearGradient>
</defs>
</svg>
