<svg width="176" height="36" viewBox="0 0 176 36" fill="none" xmlns="http://www.w3.org/2000/svg">
<g clip-path="url(#clip0_286_18041)">
<path d="M18.7376 35.6099C28.3106 35.6099 36.071 27.6602 36.071 17.8537C36.071 8.04733 28.3106 0.0976562 18.7376 0.0976562C9.16469 0.0976562 1.4043 8.04733 1.4043 17.8537C1.4043 27.6602 9.16469 35.6099 18.7376 35.6099Z" fill="#627EEA"/>
<path d="M19.2773 4.53613V14.3797L27.3991 18.0973L19.2773 4.53613Z" fill="white" fill-opacity="0.602"/>
<path d="M19.2693 4.53613L11.1465 18.0974L19.2693 14.3797V4.53613Z" fill="white"/>
<path d="M19.2773 24.4766V31.1651L27.4045 19.647L19.2773 24.4766Z" fill="white" fill-opacity="0.602"/>
<path d="M19.2693 31.1651V24.4755L11.1465 19.647L19.2693 31.1651Z" fill="white"/>
<path d="M19.2773 22.9271L27.3991 18.0963L19.2773 14.3809V22.9271Z" fill="white" fill-opacity="0.2"/>
<path d="M11.1465 18.0963L19.2693 22.9271V14.3809L11.1465 18.0963Z" fill="white" fill-opacity="0.602"/>
</g>
<path d="M48.6406 30.0568V5.61084H58.9019V8.74959H53.1073V15.7816H57.6645V18.8902H53.1073V26.9785H58.9623V30.0568H48.6406Z" fill="#303030"/>
<path d="M64.8998 30.0568V8.90049H61.0065V5.61084H73.1993V8.90049H69.3664V30.0568H64.8998Z" fill="#303030"/>
<path d="M76.389 30.0568V5.61084H80.8255V15.8419H85.8052V5.61084H90.2719V30.0568H85.8052V19.0109H80.8255V30.0568H76.389Z" fill="#303030"/>
<path d="M94.9178 30.0568V5.61084H105.179V8.74959H99.3845V15.7816H103.942V18.8902H99.3845V26.9785H105.239V30.0568H94.9178Z" fill="#303030"/>
<path d="M108.732 30.0568V5.61084H114.587C116.237 5.61084 117.625 5.81204 118.752 6.21445C119.899 6.59673 120.764 7.26069 121.348 8.20634C121.951 9.15199 122.253 10.4397 122.253 12.0694C122.253 13.0553 122.163 13.9406 121.981 14.7253C121.8 15.51 121.489 16.184 121.046 16.7474C120.623 17.2906 120.03 17.7131 119.265 18.0149L122.676 30.0568H118.209L115.251 18.86H113.199V30.0568H108.732ZM113.199 16.0532H114.587C115.452 16.0532 116.137 15.9325 116.64 15.691C117.163 15.4295 117.535 15.0271 117.756 14.4838C117.978 13.9205 118.088 13.2062 118.088 12.341C118.088 11.1137 117.857 10.1982 117.394 9.59463C116.951 8.97091 116.096 8.65904 114.829 8.65904H113.199V16.0532Z" fill="#303030"/>
<path d="M126.555 30.0568V5.61084H136.816V8.74959H131.022V15.7816H135.579V18.8902H131.022V26.9785H136.877V30.0568H126.555Z" fill="#303030"/>
<path d="M147.07 30.3888C145.259 30.3888 143.851 30.0568 142.845 29.3929C141.839 28.7289 141.144 27.7833 140.762 26.5559C140.38 25.3286 140.189 23.8598 140.189 22.1496V5.61084H144.535V22.6627C144.535 23.4272 144.585 24.1516 144.686 24.8357C144.786 25.4996 145.017 26.0429 145.38 26.4654C145.762 26.8678 146.325 27.069 147.07 27.069C147.854 27.069 148.418 26.8678 148.76 26.4654C149.122 26.0429 149.353 25.4996 149.454 24.8357C149.575 24.1516 149.635 23.4272 149.635 22.6627V5.61084H153.951V22.1496C153.951 23.8598 153.76 25.3286 153.377 26.5559C152.995 27.7833 152.301 28.7289 151.295 29.3929C150.309 30.0568 148.901 30.3888 147.07 30.3888Z" fill="#303030"/>
<path d="M158.309 30.0568L158.732 5.61084H163.349L166.82 22.542L170.442 5.61084H174.908L175.361 30.0568H172.041L171.679 13.0654L168.208 30.0568H165.522L161.991 13.005L161.659 30.0568H158.309Z" fill="#303030"/>
<defs>
<clipPath id="clip0_286_18041">
<rect width="36" height="36" fill="white" transform="translate(0.640625)"/>
</clipPath>
</defs>
</svg>
