<svg width="194" height="28" viewBox="0 0 194 28" fill="none" xmlns="http://www.w3.org/2000/svg">
<path d="M18.1953 11.5664V16.3125H5.06445V11.5664H18.1953ZM7.12109 1.40625V27H0.951172V1.40625H7.12109ZM22.3438 1.40625V27H16.1914V1.40625H22.3438ZM43.877 22.2539V27H30.2363V22.2539H43.877ZM32.4336 1.40625V27H26.2637V1.40625H32.4336ZM42.1191 11.5664V16.1543H30.2363V11.5664H42.1191ZM43.9297 1.40625V6.16992H30.2363V1.40625H43.9297ZM60.9629 18.334H67.1152C67.0332 20.1152 66.5527 21.6855 65.6738 23.0449C64.7949 24.4043 63.5762 25.4648 62.0176 26.2266C60.4707 26.9766 58.6426 27.3516 56.5332 27.3516C54.8223 27.3516 53.293 27.0645 51.9453 26.4902C50.6094 25.916 49.4727 25.0898 48.5352 24.0117C47.6094 22.9336 46.9004 21.627 46.4082 20.0918C45.9277 18.5566 45.6875 16.8281 45.6875 14.9062V13.5176C45.6875 11.5957 45.9395 9.86719 46.4434 8.33203C46.959 6.78516 47.6855 5.47266 48.623 4.39453C49.5723 3.30469 50.709 2.47266 52.0332 1.89844C53.3574 1.32422 54.8281 1.03711 56.4453 1.03711C58.6719 1.03711 60.5527 1.43555 62.0879 2.23242C63.623 3.0293 64.8125 4.125 65.6562 5.51953C66.5 6.90234 66.998 8.47852 67.1504 10.248H60.998C60.9746 9.28711 60.8105 8.48438 60.5059 7.83984C60.2012 7.18359 59.7207 6.69141 59.0645 6.36328C58.4082 6.03516 57.5352 5.87109 56.4453 5.87109C55.6836 5.87109 55.0215 6.01172 54.459 6.29297C53.8965 6.57422 53.4277 7.01953 53.0527 7.62891C52.6777 8.23828 52.3965 9.0293 52.209 10.002C52.0332 10.9629 51.9453 12.123 51.9453 13.4824V14.9062C51.9453 16.2656 52.0273 17.4258 52.1914 18.3867C52.3555 19.3477 52.6191 20.1328 52.9824 20.7422C53.3457 21.3516 53.8145 21.8027 54.3887 22.0957C54.9746 22.377 55.6895 22.5176 56.5332 22.5176C57.4707 22.5176 58.2617 22.3711 58.9062 22.0781C59.5508 21.7734 60.0488 21.3164 60.4004 20.707C60.752 20.0859 60.9395 19.2949 60.9629 18.334ZM91.6895 13.6934V14.7305C91.6895 16.6875 91.4141 18.4453 90.8633 20.0039C90.3242 21.5508 89.5566 22.875 88.5605 23.9766C87.5645 25.0664 86.3867 25.9043 85.0273 26.4902C83.668 27.0645 82.168 27.3516 80.5273 27.3516C78.875 27.3516 77.3633 27.0645 75.9922 26.4902C74.6328 25.9043 73.4492 25.0664 72.4414 23.9766C71.4453 22.875 70.6719 21.5508 70.1211 20.0039C69.582 18.4453 69.3125 16.6875 69.3125 14.7305V13.6934C69.3125 11.7363 69.582 9.97852 70.1211 8.41992C70.6719 6.86133 71.4395 5.53711 72.4238 4.44727C73.4199 3.3457 74.5977 2.50781 75.957 1.93359C77.3281 1.34766 78.8398 1.05469 80.4922 1.05469C82.1328 1.05469 83.6328 1.34766 84.9922 1.93359C86.3633 2.50781 87.5469 3.3457 88.543 4.44727C89.5391 5.53711 90.3125 6.86133 90.8633 8.41992C91.4141 9.97852 91.6895 11.7363 91.6895 13.6934ZM85.4316 14.7305V13.6582C85.4316 12.3926 85.3203 11.2793 85.0977 10.3184C84.8867 9.3457 84.5703 8.53125 84.1484 7.875C83.7266 7.21875 83.2051 6.72656 82.584 6.39844C81.9746 6.05859 81.2773 5.88867 80.4922 5.88867C79.6719 5.88867 78.957 6.05859 78.3477 6.39844C77.7383 6.72656 77.2285 7.21875 76.8184 7.875C76.4082 8.53125 76.0977 9.3457 75.8867 10.3184C75.6875 11.2793 75.5879 12.3926 75.5879 13.6582V14.7305C75.5879 15.9844 75.6875 17.0977 75.8867 18.0703C76.0977 19.0312 76.4082 19.8457 76.8184 20.5137C77.2402 21.1816 77.7559 21.6855 78.3652 22.0254C78.9863 22.3652 79.707 22.5352 80.5273 22.5352C81.3125 22.5352 82.0098 22.3652 82.6191 22.0254C83.2285 21.6855 83.7383 21.1816 84.1484 20.5137C84.5703 19.8457 84.8867 19.0312 85.0977 18.0703C85.3203 17.0977 85.4316 15.9844 85.4316 14.7305Z" fill="#AEFB19"/>
<path d="M118.408 18.334H124.561C124.479 20.1152 123.998 21.6855 123.119 23.0449C122.24 24.4043 121.021 25.4648 119.463 26.2266C117.916 26.9766 116.088 27.3516 113.979 27.3516C112.268 27.3516 110.738 27.0645 109.391 26.4902C108.055 25.916 106.918 25.0898 105.98 24.0117C105.055 22.9336 104.346 21.627 103.854 20.0918C103.373 18.5566 103.133 16.8281 103.133 14.9062V13.5176C103.133 11.5957 103.385 9.86719 103.889 8.33203C104.404 6.78516 105.131 5.47266 106.068 4.39453C107.018 3.30469 108.154 2.47266 109.479 1.89844C110.803 1.32422 112.273 1.03711 113.891 1.03711C116.117 1.03711 117.998 1.43555 119.533 2.23242C121.068 3.0293 122.258 4.125 123.102 5.51953C123.945 6.90234 124.443 8.47852 124.596 10.248H118.443C118.42 9.28711 118.256 8.48438 117.951 7.83984C117.646 7.18359 117.166 6.69141 116.51 6.36328C115.854 6.03516 114.98 5.87109 113.891 5.87109C113.129 5.87109 112.467 6.01172 111.904 6.29297C111.342 6.57422 110.873 7.01953 110.498 7.62891C110.123 8.23828 109.842 9.0293 109.654 10.002C109.479 10.9629 109.391 12.123 109.391 13.4824V14.9062C109.391 16.2656 109.473 17.4258 109.637 18.3867C109.801 19.3477 110.064 20.1328 110.428 20.7422C110.791 21.3516 111.26 21.8027 111.834 22.0957C112.42 22.377 113.135 22.5176 113.979 22.5176C114.916 22.5176 115.707 22.3711 116.352 22.0781C116.996 21.7734 117.494 21.3164 117.846 20.707C118.197 20.0859 118.385 19.2949 118.408 18.334ZM132.998 0V27H127.074V0H132.998ZM132.295 16.8398L130.906 16.875C130.906 15.5391 131.07 14.3086 131.398 13.1836C131.727 12.0586 132.195 11.0801 132.805 10.248C133.414 9.41602 134.146 8.77148 135.002 8.31445C135.857 7.85742 136.807 7.62891 137.85 7.62891C138.787 7.62891 139.643 7.76367 140.416 8.0332C141.201 8.30273 141.875 8.73633 142.438 9.33398C143.012 9.93164 143.451 10.7109 143.756 11.6719C144.072 12.6328 144.23 13.8047 144.23 15.1875V27H138.271V15.1523C138.271 14.3789 138.16 13.7812 137.938 13.3594C137.727 12.9258 137.422 12.627 137.023 12.4629C136.625 12.2871 136.139 12.1992 135.564 12.1992C134.873 12.1992 134.311 12.3164 133.877 12.5508C133.443 12.7852 133.109 13.1133 132.875 13.5352C132.652 13.9453 132.5 14.4316 132.418 14.9941C132.336 15.5566 132.295 16.1719 132.295 16.8398ZM157.396 22.2188V14.3789C157.396 13.8398 157.32 13.377 157.168 12.9902C157.016 12.6035 156.775 12.3047 156.447 12.0938C156.119 11.8711 155.68 11.7598 155.129 11.7598C154.684 11.7598 154.303 11.8359 153.986 11.9883C153.67 12.1406 153.43 12.3691 153.266 12.6738C153.102 12.9785 153.02 13.3652 153.02 13.834H147.096C147.096 12.9551 147.289 12.1406 147.676 11.3906C148.074 10.6289 148.637 9.9668 149.363 9.4043C150.102 8.8418 150.98 8.4082 152 8.10352C153.031 7.78711 154.18 7.62891 155.445 7.62891C156.957 7.62891 158.305 7.88086 159.488 8.38477C160.684 8.88867 161.627 9.64453 162.318 10.6523C163.01 11.6484 163.355 12.9023 163.355 14.4141V22.2012C163.355 23.4434 163.426 24.3867 163.566 25.0312C163.707 25.6641 163.906 26.2207 164.164 26.7012V27H158.223C157.941 26.4141 157.73 25.6992 157.59 24.8555C157.461 24 157.396 23.1211 157.396 22.2188ZM158.117 15.3809L158.152 18.5449H155.533C154.982 18.5449 154.514 18.6211 154.127 18.7734C153.752 18.9258 153.447 19.1367 153.213 19.4062C152.99 19.6641 152.826 19.957 152.721 20.2852C152.627 20.6133 152.58 20.959 152.58 21.3223C152.58 21.6738 152.662 21.9902 152.826 22.2715C153.002 22.541 153.236 22.752 153.529 22.9043C153.822 23.0566 154.15 23.1328 154.514 23.1328C155.17 23.1328 155.727 23.0098 156.184 22.7637C156.652 22.5059 157.01 22.1953 157.256 21.832C157.502 21.4688 157.625 21.1289 157.625 20.8125L158.926 23.2383C158.691 23.707 158.422 24.1816 158.117 24.6621C157.824 25.1426 157.455 25.5879 157.01 25.998C156.576 26.3965 156.043 26.7246 155.41 26.9824C154.777 27.2285 154.01 27.3516 153.107 27.3516C151.936 27.3516 150.857 27.1113 149.873 26.6309C148.9 26.1504 148.121 25.4824 147.535 24.627C146.949 23.7598 146.656 22.7637 146.656 21.6387C146.656 20.6543 146.832 19.7754 147.184 19.002C147.547 18.2285 148.092 17.5723 148.818 17.0332C149.545 16.4941 150.471 16.084 151.596 15.8027C152.721 15.5215 154.045 15.3809 155.568 15.3809H158.117ZM172.9 7.98047V27H166.959V7.98047H172.9ZM166.607 3.07617C166.607 2.23242 166.912 1.54102 167.521 1.00195C168.131 0.462891 168.922 0.193359 169.895 0.193359C170.867 0.193359 171.658 0.462891 172.268 1.00195C172.877 1.54102 173.182 2.23242 173.182 3.07617C173.182 3.91992 172.877 4.61133 172.268 5.15039C171.658 5.68945 170.867 5.95898 169.895 5.95898C168.922 5.95898 168.131 5.68945 167.521 5.15039C166.912 4.61133 166.607 3.91992 166.607 3.07617ZM182.375 12.041V27H176.451V7.98047H182.006L182.375 12.041ZM181.672 16.8398L180.283 16.875C180.283 15.4219 180.459 14.127 180.811 12.9902C181.162 11.8418 181.66 10.8691 182.305 10.0723C182.949 9.27539 183.717 8.67187 184.607 8.26172C185.51 7.83984 186.512 7.62891 187.613 7.62891C188.492 7.62891 189.295 7.75781 190.021 8.01562C190.76 8.27344 191.393 8.68945 191.92 9.26367C192.459 9.83789 192.869 10.5996 193.15 11.5488C193.443 12.4863 193.59 13.6465 193.59 15.0293V27H187.631V15.0117C187.631 14.25 187.525 13.6699 187.314 13.2715C187.104 12.8613 186.799 12.5801 186.4 12.4277C186.002 12.2754 185.516 12.1992 184.941 12.1992C184.332 12.1992 183.816 12.3164 183.395 12.5508C182.973 12.7852 182.633 13.1133 182.375 13.5352C182.129 13.9453 181.947 14.4316 181.83 14.9941C181.725 15.5566 181.672 16.1719 181.672 16.8398Z" fill="#303030"/>
</svg>
