<svg width="242" height="36" viewBox="0 0 242 36" fill="none" xmlns="http://www.w3.org/2000/svg">
<g clip-path="url(#clip0_286_18096)">
<path d="M40.657 28.3839L34.0188 35.5089C33.8753 35.6637 33.7014 35.7872 33.508 35.8717C33.3147 35.9562 33.106 36 32.895 36.0001H1.42752C1.27744 36.0001 1.13063 35.9562 1.00509 35.8738C0.879541 35.7915 0.780703 35.6743 0.720672 35.5366C0.66064 35.3989 0.642022 35.2467 0.667098 35.0986C0.692175 34.9505 0.759852 34.8129 0.861852 34.7026L7.4925 27.5776C7.63609 27.4229 7.80995 27.2994 8.00332 27.2149C8.19666 27.1304 8.40536 27.0866 8.61634 27.0864H40.0838C40.2352 27.0833 40.3843 27.1251 40.512 27.2065C40.6398 27.288 40.7409 27.4054 40.802 27.5441C40.8634 27.6828 40.8821 27.8365 40.8563 27.986C40.8304 28.1354 40.7611 28.2739 40.657 28.3839ZM34.0188 14.0326C33.8747 13.8786 33.7007 13.7556 33.5075 13.6711C33.3143 13.5867 33.1058 13.5425 32.895 13.5414H1.42752C1.27744 13.5415 1.13063 13.5854 1.00509 13.6677C0.879541 13.75 0.780703 13.8672 0.720672 14.0049C0.66064 14.1426 0.642022 14.2948 0.667098 14.443C0.692175 14.5911 0.759852 14.7287 0.861852 14.8389L7.4925 21.9677C7.63662 22.1217 7.81062 22.2447 8.00385 22.3292C8.19707 22.4137 8.40551 22.4578 8.61634 22.4589H40.0838C40.2337 22.4581 40.3798 22.4137 40.5049 22.3311C40.63 22.2485 40.7282 22.1313 40.7877 21.9937C40.8473 21.8562 40.8657 21.7042 40.8402 21.5564C40.8151 21.4086 40.7477 21.2714 40.6458 21.1614L34.0188 14.0326ZM1.42752 8.9139H32.895C33.106 8.91371 33.3147 8.86995 33.508 8.78542C33.7014 8.70093 33.8753 8.57741 34.0188 8.42265L40.657 1.29766C40.7611 1.18761 40.8304 1.04916 40.8563 0.899722C40.8821 0.750288 40.8634 0.596549 40.802 0.457852C40.7409 0.319155 40.6398 0.201696 40.512 0.120256C40.3843 0.038816 40.2352 -0.00296734 40.0838 0.000163951H8.61634C8.40536 0.000386266 8.19666 0.0441207 8.00332 0.12864C7.80995 0.21316 7.63609 0.336651 7.4925 0.491414L0.861852 7.6164C0.759852 7.72661 0.692175 7.86423 0.667098 8.01236C0.642022 8.16048 0.66064 8.3127 0.720672 8.4504C0.780703 8.5881 0.879541 8.70528 1.00509 8.7876C1.13063 8.86995 1.27744 8.91382 1.42752 8.9139Z" fill="url(#paint0_linear_286_18096)"/>
<path d="M79.0207 15.2251H62.1856V9.67508H83.3962V4.12508H62.1294C61.4027 4.12114 60.6827 4.26049 60.0098 4.53518C59.337 4.80991 58.7246 5.21457 58.2083 5.72611C57.6917 6.23764 57.2808 6.84604 56.9991 7.51651C56.7174 8.18701 56.5702 8.90648 56.5664 9.63383V15.2588C56.5694 15.9868 56.7155 16.7071 56.9968 17.3784C57.2782 18.0498 57.6887 18.6591 58.2053 19.1714C58.7223 19.6838 59.3348 20.0891 60.008 20.3643C60.6812 20.6394 61.4023 20.779 62.1294 20.7751H78.987V26.3251H56.9672V31.8751H79.0207C79.7475 31.8791 80.4675 31.7397 81.1403 31.465C81.8131 31.1903 82.4252 30.7856 82.9418 30.2741C83.4584 29.7625 83.8693 29.1542 84.151 28.4837C84.4327 27.8132 84.58 27.0937 84.5837 26.3663V20.7413C84.5807 20.0133 84.4346 19.2931 84.1533 18.6217C83.872 17.9504 83.4614 17.3411 82.9448 16.8288C82.4278 16.3164 81.8153 15.9111 81.1421 15.6359C80.469 15.3608 79.7478 15.2211 79.0207 15.2251Z" fill="#303030"/>
<path d="M111.635 4.12518H94.7362C94.0083 4.11926 93.2864 4.25715 92.6118 4.53097C91.9375 4.8048 91.3235 5.20912 90.8054 5.72088C90.2869 6.23261 89.8748 6.84165 89.5924 7.51312C89.3095 8.1846 89.1619 8.90531 89.1582 9.63393V26.3664C89.1619 27.0951 89.3095 27.8158 89.5924 28.4872C89.8748 29.1587 90.2869 29.7678 90.8054 30.2795C91.3235 30.7912 91.9375 31.1956 92.6118 31.4694C93.2864 31.7432 94.0083 31.8811 94.7362 31.8752H111.635C112.362 31.8791 113.082 31.7398 113.755 31.4651C114.427 31.1904 115.04 30.7857 115.556 30.2742C116.073 29.7626 116.484 29.1542 116.765 28.4838C117.047 27.8133 117.194 27.0938 117.198 26.3664V9.63393C117.194 8.90658 117.047 8.18711 116.765 7.51661C116.484 6.84615 116.073 6.23775 115.556 5.72621C115.04 5.21467 114.427 4.81001 113.755 4.53528C113.082 4.2606 112.362 4.12125 111.635 4.12518ZM111.594 26.3252H94.7774V9.67518H111.586L111.594 26.3252Z" fill="#303030"/>
<path d="M170.823 4.12541H154.34C153.614 4.12147 152.894 4.26082 152.221 4.53551C151.548 4.81024 150.935 5.2149 150.419 5.72643C149.903 6.23797 149.492 6.84637 149.21 7.51683C148.928 8.18733 148.781 8.90681 148.777 9.63416V31.8754H154.397V22.7592H170.805V31.8754H176.424V9.63416C176.42 8.90362 176.272 8.18107 175.988 7.5081C175.703 6.83516 175.289 6.22511 174.769 5.71305C174.248 5.20102 173.632 4.79715 172.954 4.52467C172.277 4.2522 171.553 4.11652 170.823 4.12541ZM170.782 17.2092H154.374V9.67541H170.782V17.2092Z" fill="#303030"/>
<path d="M236.437 4.12508H219.954C219.227 4.12114 218.507 4.26049 217.834 4.53518C217.161 4.80991 216.549 5.21457 216.033 5.72611C215.516 6.23764 215.105 6.84604 214.823 7.51651C214.542 8.18701 214.394 8.90648 214.391 9.63383V31.8751H220.01V22.7588H236.38V31.8751H242V9.63383C241.996 8.90648 241.849 8.18701 241.567 7.51651C241.285 6.84604 240.874 6.23764 240.358 5.72611C239.841 5.21457 239.229 4.80991 238.556 4.53518C237.883 4.26049 237.163 4.12114 236.437 4.12508ZM236.38 17.2088H219.972V9.67508H236.38V17.2088Z" fill="#303030"/>
<path d="M203.79 26.325H201.543L193.507 6.45005C193.232 5.76436 192.758 5.1767 192.147 4.76247C191.535 4.34821 190.814 4.12625 190.076 4.12505H185.09C184.605 4.12257 184.125 4.21569 183.676 4.39902C183.227 4.5824 182.819 4.8524 182.475 5.19365C182.13 5.53494 181.857 5.94072 181.669 6.38795C181.481 6.83514 181.383 7.31499 181.381 7.80005V31.875H187V9.67505H189.248L197.279 29.55C197.559 30.2344 198.037 30.8197 198.651 31.2311C199.265 31.6426 199.987 31.8615 200.726 31.86H205.712C206.197 31.8625 206.677 31.7694 207.125 31.5861C207.574 31.4027 207.982 31.1327 208.327 30.7914C208.671 30.4502 208.945 30.0444 209.133 29.5972C209.32 29.15 209.418 28.6702 209.421 28.1851V4.12505H203.79V26.325Z" fill="#303030"/>
<path d="M127.781 4.125H122.162V26.3662C122.166 27.0952 122.314 27.8162 122.597 28.4879C122.879 29.1597 123.292 29.7688 123.81 30.2806C124.329 30.7924 124.944 31.1967 125.618 31.4703C126.293 31.7439 127.016 31.8814 127.744 31.875H144.601V26.325H127.781V4.125Z" fill="#303030"/>
</g>
<defs>
<linearGradient id="paint0_linear_286_18096" x1="4.04981" y1="36.8589" x2="37.0839" y2="-0.344721" gradientUnits="userSpaceOnUse">
<stop offset="0.08" stop-color="#9945FF"/>
<stop offset="0.3" stop-color="#8752F3"/>
<stop offset="0.5" stop-color="#5497D5"/>
<stop offset="0.6" stop-color="#43B4CA"/>
<stop offset="0.72" stop-color="#28E0B9"/>
<stop offset="0.97" stop-color="#19FB9B"/>
</linearGradient>
<clipPath id="clip0_286_18096">
<rect width="242" height="36" fill="white"/>
</clipPath>
</defs>
</svg>
