<svg width="80" height="80" viewBox="0 0 80 80" fill="none" xmlns="http://www.w3.org/2000/svg">
    <rect width="80" height="80" rx="18.8372" fill="#386CF6" fill-opacity="0.06"/>
    <path fill-rule="evenodd" clip-rule="evenodd" d="M22.3984 57.7728C22.3858 58.1365 22.5249 58.4889 22.7823 58.7459C23.0394 59.0034 23.3917 59.1424 23.7555 59.1298C23.7555 59.1298 27.8484 58.9862 30.94 58.2663C32.5082 57.9013 33.8279 57.3402 34.4852 56.6825C37.1455 54.0226 37.1455 49.7029 34.4852 47.0431C31.8253 44.3828 27.5056 44.3828 24.8458 47.0431C24.1881 47.7004 23.6269 49.02 23.2615 50.5883C22.5421 53.6795 22.3984 57.7728 22.3984 57.7728V57.7728Z" fill="#386CF6"/>
    <path fill-rule="evenodd" clip-rule="evenodd" d="M43.3677 50.8974C43.0897 50.9591 42.8033 50.991 42.5139 50.991C41.4693 50.991 40.4681 50.5761 39.7293 49.8377C37.5302 47.6386 33.8875 43.9959 31.6884 41.7968C30.685 40.7934 30.3364 39.3839 30.6422 38.0987L27.7866 32.3875C27.2183 31.2514 27.2334 29.9108 27.8265 28.7877C28.4195 27.6646 29.5182 26.8965 30.777 26.7251L47.7051 24.4201C50.585 23.3647 53.6288 22.7145 56.7531 22.5083C57.3004 22.4722 57.7977 22.4445 57.8363 22.4445C58.5608 22.4445 59.1488 23.0329 59.1488 23.757C59.1488 23.872 59.0539 24.8435 59.0539 24.8435C58.8443 27.8566 58.2219 30.7941 57.2214 33.5791C57.2227 33.645 57.2185 33.7118 57.2097 33.779C57.2097 33.779 55.6952 44.8998 54.8871 50.8352C54.7157 52.0939 53.9475 53.1927 52.8245 53.7857C51.7014 54.3792 50.3607 54.3939 49.2246 53.8256L43.3677 50.8974ZM53.6195 40.6876C52.4834 42.3718 51.1823 43.9535 49.7282 45.4075L45.9045 49.2308L50.3985 51.4778C50.7774 51.6672 51.2243 51.6622 51.5985 51.4648C51.9731 51.267 52.2289 50.9007 52.286 50.4811L53.6195 40.6876ZM48.3905 33.1356C49.6879 34.4329 49.6879 36.5397 48.3905 37.837C47.0931 39.1344 44.9864 39.1344 43.689 37.837C42.3917 36.5397 42.3917 34.4329 43.689 33.1356C44.9864 31.8382 47.0931 31.8382 48.3905 33.1356ZM40.6839 28.0254L31.131 29.3262C30.7115 29.3833 30.3452 29.6391 30.1478 30.0137C29.95 30.3879 29.945 30.8348 30.1344 31.2136L32.3238 35.5926L36.0749 31.8415C37.4966 30.4198 39.0405 29.1443 40.6839 28.0254V28.0254Z" fill="#386CF6"/>
</svg>
