<svg width="140" height="60" viewBox="0 0 140 60" fill="none" xmlns="http://www.w3.org/2000/svg">
<path d="M0.000206637 28.8175C0.0448965 19.97 7.28467 12.9858 16.3716 13.0298C25.0564 13.0738 32.2515 20.2634 32.2365 28.9055C32.2216 37.5771 24.8777 44.7373 16.029 44.6786C7.1655 44.6199 -0.0444833 37.4891 0.000206637 28.8175ZM23.5667 25.032C18.487 23.3006 13.6158 21.6573 8.71475 19.9846C8.71475 23.3886 8.71475 26.69 8.71475 30.0794C13.6307 28.4067 18.487 26.7633 23.5667 25.032ZM23.537 27.5997C18.5763 29.2871 13.7051 30.9451 8.64027 32.6618C13.72 34.3784 18.5912 36.0511 23.537 37.7238C23.537 34.3197 23.537 31.0184 23.537 27.5997Z" fill="#717171"/>
<path d="M139.998 34.9802C139.268 34.9802 138.598 35.0388 137.942 34.9508C137.673 34.9215 137.346 34.6427 137.182 34.3933C135.349 31.5321 133.547 28.6416 131.745 25.7658C131.656 25.6338 131.581 25.5017 131.432 25.2522C131.432 28.5389 131.432 31.6935 131.432 34.9068C130.851 34.9068 130.285 34.9068 129.645 34.9068C129.645 30.8572 129.645 26.8075 129.645 22.6405C130.389 22.6405 131.149 22.6112 131.908 22.6699C132.102 22.6845 132.311 22.9927 132.445 23.1981C134.218 25.9859 135.975 28.7737 137.733 31.5615C137.852 31.7669 138.001 31.9576 138.136 32.1631C138.136 30.5491 138.136 28.9938 138.136 27.4238C138.136 25.8538 138.136 24.2692 138.136 22.6699C138.791 22.6699 139.357 22.6699 139.983 22.6699C139.998 26.7635 139.998 30.8572 139.998 34.9802Z" fill="#717171"/>
<path d="M106.184 28.7298C106.273 28.0255 106.303 27.3213 106.467 26.6462C107.107 23.8584 109.342 22.2738 112.306 22.4206C115.837 22.6113 117.937 24.6655 117.966 28.1428C117.982 29.3313 117.848 30.5785 117.491 31.723C116.939 33.5277 115.568 34.6136 113.662 34.995C110.816 35.5673 108.299 34.6576 107.107 32.5887C106.422 31.4002 106.213 30.0944 106.184 28.7298ZM108.299 28.7004C108.537 29.6836 108.642 30.6666 108.999 31.547C109.565 32.9408 110.787 33.3957 112.247 33.3664C113.706 33.3517 114.809 32.7795 115.345 31.4149C116.015 29.6688 116.015 27.8788 115.345 26.1474C114.839 24.8123 113.751 24.2252 112.321 24.1959C110.876 24.1666 109.625 24.5775 109.029 25.9566C108.656 26.8223 108.537 27.7761 108.299 28.7004Z" fill="#717171"/>
<path d="M67.9451 34.9804C67.1408 34.9804 66.4704 35.0097 65.815 34.9656C65.6362 34.9509 65.4276 34.7016 65.3085 34.5255C64.5487 33.3223 63.7742 32.1338 63.1038 30.8867C62.7462 30.2264 62.3143 29.9769 61.5844 30.065C61.2715 30.1091 60.9587 30.065 60.5714 30.065C60.5714 31.723 60.5714 33.293 60.5714 34.9216C59.8563 34.9216 59.2008 34.9216 58.5156 34.9216C58.5156 30.828 58.5156 26.7784 58.5156 22.5526C60.4224 22.6553 62.2994 22.6553 64.1465 22.8901C65.6958 23.0955 66.5895 24.1519 66.7982 25.5018C67.0365 27.1305 66.4704 28.3777 65.1 29.1699C64.9062 29.2874 64.7126 29.3754 64.4295 29.5221C65.5915 31.3121 66.7236 33.0875 67.9451 34.9804ZM60.616 28.3483C61.2864 28.3483 61.9121 28.363 62.5228 28.3483C62.7612 28.3483 63.0144 28.2895 63.2528 28.2309C64.2061 27.9815 64.7275 27.2918 64.7126 26.2941C64.6977 25.3258 64.2806 24.7242 63.2826 24.5334C62.4186 24.372 61.5396 24.4014 60.616 24.3279C60.616 25.7219 60.616 26.9837 60.616 28.3483Z" fill="#717171"/>
<path d="M78.5802 23.228C78.3568 23.8001 78.1482 24.3137 77.9694 24.7833C77.0608 24.5925 76.1968 24.4017 75.3328 24.255C75.0497 24.211 74.7369 24.2404 74.4389 24.2697C73.709 24.3284 73.1579 24.6658 72.9641 25.3995C72.7705 26.1185 73.0387 26.72 73.6644 27.1015C74.1857 27.4243 74.7666 27.6591 75.3179 27.9379C75.9734 28.2606 76.6735 28.5394 77.2991 28.9356C79.4591 30.3442 79.3101 33.4254 76.9862 34.5846C75.0497 35.5383 73.0387 35.2888 71.0574 34.6432C70.9084 34.5992 70.7446 34.3351 70.7297 34.1738C70.685 33.6895 70.7148 33.2053 70.7148 32.7652C71.8172 32.9853 72.8897 33.2346 73.9772 33.4107C74.4091 33.4841 74.871 33.4254 75.3029 33.3521C75.9734 33.2346 76.5096 32.8825 76.6586 32.1783C76.8075 31.4447 76.5841 30.8136 75.8988 30.4322C75.2582 30.0801 74.5581 29.8013 73.9175 29.4491C73.2025 29.0677 72.4428 28.7302 71.8618 28.1873C70.1339 26.6027 70.6701 23.7268 72.8748 22.8758C74.7666 22.0982 76.6735 22.4503 78.5802 23.228Z" fill="#717171"/>
<path d="M103.236 23.2565C102.982 23.8434 102.744 24.3569 102.535 24.8558C101.671 24.6357 100.897 24.3422 100.107 24.2689C97.9472 24.0781 96.5619 25.1052 96.0703 27.1888C95.7425 28.5386 95.7873 29.8884 96.2639 31.209C96.7555 32.5295 97.7238 33.3219 99.1539 33.3366C100.331 33.3512 101.493 33.1604 102.789 33.0431C102.789 33.3952 102.818 33.8648 102.774 34.3343C102.759 34.4957 102.535 34.7011 102.357 34.7451C100.554 35.2733 98.7517 35.3761 96.9641 34.7304C95.6084 34.2316 94.6998 33.2486 94.2231 31.928C93.5081 29.9619 93.4485 27.9663 94.1784 26.0003C94.968 23.9021 96.547 22.7722 98.7964 22.5228C100.316 22.3467 101.776 22.5668 103.236 23.2565Z" fill="#717171"/>
<path d="M85.2227 34.9364C85.2227 31.415 85.2227 27.9669 85.2227 24.4308C84.0011 24.4308 82.8243 24.4308 81.5879 24.4308C81.5879 23.7999 81.5879 23.2716 81.5879 22.6848C84.7014 22.6848 87.7998 22.6848 90.9431 22.6848C90.9431 23.2423 90.9431 23.7852 90.9431 24.3868C89.7513 24.3868 88.5894 24.3868 87.338 24.3868C87.338 27.9229 87.338 31.415 87.338 34.9364C86.5932 34.9364 85.9526 34.9364 85.2227 34.9364Z" fill="#717171"/>
<path d="M42.6347 24.8705C41.7559 25.5602 41.0408 26.147 40.2811 26.7486C39.9384 26.3231 39.6107 25.927 39.2383 25.4868C40.4598 24.5477 41.592 23.5794 42.8582 22.7724C43.2753 22.4936 43.9903 22.655 44.616 22.611C44.616 26.778 44.616 30.8277 44.616 34.9213C43.9457 34.9213 43.32 34.9213 42.6347 34.9213C42.6347 31.6199 42.6347 28.348 42.6347 24.8705Z" fill="#717171"/>
<path d="M51.4082 22.6848C52.0934 22.6848 52.734 22.6848 53.4044 22.6848C53.4044 26.7638 53.4044 30.8134 53.4044 34.9218C52.7489 34.9218 52.1083 34.9218 51.4082 34.9218C51.4082 30.8574 51.4082 26.8078 51.4082 22.6848Z" fill="#717171"/>
<path d="M122.496 22.6848C123.196 22.6848 123.821 22.6848 124.491 22.6848C124.491 26.7784 124.491 30.8134 124.491 34.9218C123.821 34.9218 123.181 34.9218 122.496 34.9218C122.496 30.8427 122.496 26.7931 122.496 22.6848Z" fill="#717171"/>
</svg>
