<svg width="140" height="60" viewBox="0 0 140 60" fill="none" xmlns="http://www.w3.org/2000/svg">
<g clip-path="url(#clip0_321_20666)">
<path fill-rule="evenodd" clip-rule="evenodd" d="M25.8541 33.9802C25.8541 34.4004 25.9091 34.7006 26.0194 34.8807C26.1296 35.0608 26.3449 35.1508 26.6655 35.1508H27.0261C27.1664 35.1508 27.3266 35.1309 27.507 35.0908V37.4621C27.3867 37.5021 27.2314 37.5472 27.0411 37.5972C26.8508 37.6473 26.6555 37.6923 26.4551 37.7323C26.2547 37.7724 26.0545 37.8024 25.8541 37.8223C25.6537 37.8424 25.4835 37.8524 25.3432 37.8524C24.642 37.8524 24.0609 37.7122 23.6002 37.4321C23.1394 37.152 22.8389 36.6617 22.6986 35.9613C22.0174 36.6217 21.181 37.1019 20.1892 37.4021C19.1975 37.7023 18.2409 37.8524 17.3193 37.8524C16.618 37.8524 15.9469 37.7574 15.3057 37.5672C14.6646 37.3771 14.0987 37.0969 13.6078 36.7267C13.1169 36.3565 12.7263 35.8862 12.4358 35.3159C12.1453 34.7456 12 34.0802 12 33.3198C12 32.3593 12.1753 31.5788 12.5259 30.9785C12.8765 30.3781 13.3373 29.9078 13.9083 29.5677C14.4793 29.2274 15.1204 28.9823 15.8317 28.8323C16.5429 28.6822 17.2591 28.567 17.9804 28.4871C18.6015 28.367 19.1925 28.2819 19.7535 28.2319C20.3145 28.1819 20.8103 28.0968 21.2411 27.9768C21.6718 27.8567 22.0124 27.6716 22.2628 27.4215C22.5132 27.1713 22.6385 26.7961 22.6385 26.2958C22.6385 25.8555 22.5333 25.4953 22.3229 25.2152C22.1126 24.9351 21.8521 24.7199 21.5416 24.5698C21.2311 24.4197 20.8855 24.3197 20.5048 24.2697C20.1241 24.2197 19.7635 24.1946 19.4229 24.1946C18.4612 24.1946 17.6699 24.3947 17.0488 24.795C16.4277 25.1952 16.0771 25.8156 15.9969 26.656H12.571C12.6311 25.6555 12.8715 24.825 13.2923 24.1646C13.713 23.5042 14.2489 22.9739 14.9 22.5737C15.5512 22.1735 16.2874 21.8933 17.1089 21.7333C17.9303 21.5732 18.7717 21.4931 19.6333 21.4931C20.3946 21.4931 21.1459 21.5732 21.8872 21.7333C22.6285 21.8933 23.2946 22.1535 23.8857 22.5137C24.4767 22.8739 24.9525 23.3391 25.3131 23.9095C25.6738 24.4798 25.8541 25.1752 25.8541 25.9957V33.9802ZM22.4281 29.6577C21.9072 29.9979 21.2661 30.2031 20.5048 30.2731C19.7435 30.3431 18.9821 30.4481 18.2208 30.5883C17.8602 30.6483 17.5096 30.7333 17.169 30.8434C16.8284 30.9535 16.5279 31.1036 16.2674 31.2936C16.007 31.4837 15.8016 31.7338 15.6514 32.0441C15.5011 32.3542 15.426 32.7294 15.426 33.1697C15.426 33.55 15.5361 33.8701 15.7565 34.1303C15.9769 34.3904 16.2424 34.5955 16.5529 34.7456C16.8635 34.8957 17.204 35.0007 17.5747 35.0608C17.9453 35.1208 18.2809 35.1508 18.5814 35.1508C18.9621 35.1508 19.3728 35.1008 19.8136 35.0007C20.2543 34.9006 20.6701 34.7306 21.0607 34.4905C21.4514 34.2503 21.777 33.9451 22.0374 33.5749C22.2979 33.2047 22.4281 32.7495 22.4281 32.2092V29.6577ZM29.6407 21.9133H32.8863V24.0145H32.9464C33.4272 23.114 34.0984 22.4687 34.9599 22.0784C35.8214 21.6882 36.7531 21.4931 37.7548 21.4931C38.9769 21.4931 40.0438 21.7082 40.9553 22.1385C41.8669 22.5687 42.6232 23.159 43.2243 23.9095C43.8253 24.6599 44.2761 25.5354 44.5766 26.536C44.8771 27.5366 45.0274 28.6071 45.0274 29.7478C45.0274 30.7884 44.8922 31.7989 44.6217 32.7795C44.3512 33.7601 43.9405 34.6255 43.3896 35.376C42.8386 36.1264 42.1424 36.7267 41.3009 37.177C40.4595 37.6272 39.4677 37.8524 38.3258 37.8524C37.8249 37.8524 37.324 37.8073 36.8231 37.7173C36.3222 37.6272 35.8414 37.4822 35.3806 37.282C34.9199 37.082 34.4941 36.8267 34.1034 36.5166C33.7127 36.2065 33.3872 35.8412 33.1267 35.421H33.0666V43.1654H29.6407V21.9133ZM41.6014 29.6877C41.6014 28.9874 41.5113 28.307 41.331 27.6466C41.1507 26.9862 40.8802 26.4009 40.5196 25.8906C40.1589 25.3803 39.7082 24.9701 39.1672 24.6599C38.6263 24.3497 38.0052 24.1946 37.304 24.1946C35.8615 24.1946 34.7746 24.6949 34.0433 25.6955C33.3121 26.696 32.9464 28.0268 32.9464 29.6877C32.9464 30.4682 33.0416 31.1936 33.2319 31.864C33.4222 32.5343 33.7077 33.1097 34.0884 33.5899C34.4691 34.0702 34.9248 34.4505 35.4558 34.7306C35.9867 35.0107 36.6028 35.1508 37.304 35.1508C38.0853 35.1508 38.7465 34.9908 39.2874 34.6706C39.8284 34.3503 40.2741 33.9351 40.6248 33.4249C40.9754 32.9146 41.2258 32.3343 41.3761 31.6839C41.5263 31.0335 41.6014 30.3682 41.6014 29.6877ZM60.925 33.9802C60.925 34.4004 60.9801 34.7006 61.0903 34.8807C61.2005 35.0608 61.4159 35.1508 61.7364 35.1508H62.0971C62.2373 35.1508 62.3976 35.1309 62.5779 35.0908V37.4621C62.4577 37.5021 62.3024 37.5472 62.1121 37.5972C61.9218 37.6473 61.7265 37.6923 61.5261 37.7323C61.3257 37.7724 61.1254 37.8024 60.925 37.8223C60.7247 37.8424 60.5544 37.8524 60.4141 37.8524C59.7129 37.8524 59.1319 37.7122 58.6711 37.4321C58.2103 37.152 57.9098 36.6617 57.7696 35.9613C57.0883 36.6217 56.2519 37.1019 55.2602 37.4021C54.2685 37.7023 53.3118 37.8524 52.3902 37.8524C51.689 37.8524 51.0178 37.7574 50.3767 37.5672C49.7356 37.3771 49.1696 37.0969 48.6788 36.7267C48.1879 36.3565 47.7972 35.8862 47.5067 35.3159C47.2162 34.7456 47.071 34.0802 47.071 33.3198C47.071 32.3593 47.2462 31.5788 47.5969 30.9785C47.9475 30.3781 48.4083 29.9078 48.9793 29.5677C49.5503 29.2274 50.1913 28.9823 50.9026 28.8323C51.6139 28.6822 52.3301 28.567 53.0513 28.4871C53.6725 28.367 54.2634 28.2819 54.8244 28.2319C55.3854 28.1819 55.8813 28.0968 56.312 27.9768C56.7427 27.8567 57.0834 27.6716 57.3338 27.4215C57.5842 27.1713 57.7094 26.7961 57.7094 26.2958C57.7094 25.8555 57.6043 25.4953 57.3939 25.2152C57.1835 24.9351 56.923 24.7199 56.6125 24.5698C56.302 24.4197 55.9564 24.3197 55.5757 24.2697C55.195 24.2197 54.8344 24.1946 54.4939 24.1946C53.5322 24.1946 52.7408 24.3947 52.1197 24.795C51.4986 25.1952 51.1481 25.8156 51.0679 26.656H47.6419C47.7021 25.6555 47.9425 24.825 48.3632 24.1646C48.7839 23.5042 49.3198 22.9739 49.971 22.5737C50.6222 22.1735 51.3584 21.8933 52.1798 21.7333C53.0012 21.5732 53.8427 21.4931 54.7042 21.4931C55.4655 21.4931 56.2168 21.5732 56.9581 21.7333C57.6995 21.8933 58.3656 22.1535 58.9566 22.5137C59.5477 22.8739 60.0235 23.3391 60.3841 23.9095C60.7447 24.4798 60.925 25.1752 60.925 25.9957V33.9802ZM57.4991 29.6577C56.9782 29.9979 56.337 30.2031 55.5757 30.2731C54.8144 30.3431 54.0531 30.4481 53.2918 30.5883C52.9311 30.6483 52.5805 30.7333 52.2399 30.8434C51.8994 30.9535 51.5989 31.1036 51.3384 31.2936C51.0779 31.4837 50.8726 31.7338 50.7223 32.0441C50.572 32.3542 50.4969 32.7294 50.4969 33.1697C50.4969 33.55 50.6071 33.8701 50.8275 34.1303C51.0478 34.3904 51.3134 34.5955 51.6239 34.7456C51.9344 34.8957 52.275 35.0007 52.6456 35.0608C53.0163 35.1208 53.3519 35.1508 53.6524 35.1508C54.0331 35.1508 54.4437 35.1008 54.8845 35.0007C55.3253 34.9006 55.741 34.7306 56.1317 34.4905C56.5224 34.2503 56.8479 33.9451 57.1084 33.5749C57.3689 33.2047 57.4991 32.7495 57.4991 32.2092V29.6577ZM64.6215 21.9133H67.8671V24.1946L67.9272 24.2547C68.4481 23.3942 69.1293 22.7188 69.9708 22.2285C70.8122 21.7382 71.7438 21.4931 72.7656 21.4931C74.4686 21.4931 75.8109 21.9334 76.7926 22.8139C77.7744 23.6944 78.2652 25.0151 78.2652 26.7761V37.4321H74.8392V27.6766C74.7992 26.4559 74.5387 25.5704 74.0579 25.0201C73.577 24.4698 72.8257 24.1946 71.8039 24.1946C71.223 24.1946 70.702 24.2997 70.2412 24.5098C69.7805 24.7199 69.3898 25.0101 69.0692 25.3803C68.7486 25.7505 68.4982 26.1857 68.3179 26.686C68.1376 27.1864 68.0474 27.7166 68.0474 28.2769V37.4321H64.6215V21.9133ZM96.5069 37.4321H93.2612V35.3309H93.2011C92.7404 36.2314 92.0691 36.8768 91.1876 37.267C90.3061 37.6572 89.3745 37.8524 88.3928 37.8524C87.1706 37.8524 86.1038 37.6372 85.1922 37.207C84.2807 36.7768 83.5243 36.1914 82.9233 35.451C82.3222 34.7106 81.8714 33.8351 81.5709 32.8245C81.2704 31.8139 81.1201 30.7284 81.1201 29.5677C81.1201 28.1669 81.3104 26.9562 81.6911 25.9356C82.0718 24.915 82.5777 24.0746 83.2088 23.4142C83.8399 22.7538 84.5611 22.2686 85.3725 21.9584C86.1839 21.6482 87.0104 21.4931 87.8518 21.4931C88.3327 21.4931 88.8235 21.5381 89.3244 21.6282C89.8253 21.7182 90.3061 21.8633 90.7669 22.0634C91.2278 22.2635 91.6534 22.5187 92.0441 22.8289C92.4348 23.139 92.7603 23.5043 93.0208 23.9245H93.0809V16H96.5069V37.4321ZM84.5461 29.8378C84.5461 30.4982 84.6312 31.1485 84.8015 31.7889C84.9719 32.4293 85.2323 32.9997 85.5829 33.4999C85.9335 34.0002 86.3793 34.4004 86.9202 34.7006C87.4612 35.0007 88.1022 35.1508 88.8436 35.1508C89.6049 35.1508 90.2611 34.9908 90.812 34.6706C91.3629 34.3503 91.8137 33.9301 92.1643 33.4098C92.515 32.8895 92.7754 32.3043 92.9457 31.6539C93.116 31.0035 93.2011 30.3381 93.2011 29.6577C93.2011 27.9367 92.8155 26.596 92.0441 25.6354C91.2728 24.6749 90.226 24.1946 88.9037 24.1946C88.1022 24.1946 87.4261 24.3597 86.8751 24.6899C86.3242 25.0201 85.8734 25.4503 85.5228 25.9806C85.1721 26.511 84.9217 27.1112 84.7715 27.7817C84.6212 28.452 84.5461 29.1375 84.5461 29.8378ZM107.356 37.8524C106.114 37.8524 105.006 37.6473 104.035 37.237C103.064 36.8267 102.242 36.2615 101.571 35.5411C100.9 34.8206 100.389 33.9602 100.038 32.9596C99.6874 31.9591 99.5121 30.8584 99.5121 29.6577C99.5121 28.477 99.6874 27.3864 100.038 26.3859C100.389 25.3852 100.9 24.5248 101.571 23.8044C102.242 23.084 103.064 22.5187 104.035 22.1085C105.006 21.6982 106.114 21.4931 107.356 21.4931C108.598 21.4931 109.705 21.6982 110.677 22.1085C111.648 22.5187 112.47 23.084 113.141 23.8044C113.812 24.5248 114.323 25.3852 114.673 26.3859C115.024 27.3864 115.199 28.477 115.199 29.6577C115.199 30.8584 115.024 31.9591 114.673 32.9596C114.323 33.9602 113.812 34.8206 113.141 35.5411C112.47 36.2615 111.648 36.8267 110.677 37.237C109.705 37.6473 108.598 37.8524 107.356 37.8524ZM107.356 35.1508C108.117 35.1508 108.778 34.9908 109.339 34.6706C109.9 34.3503 110.361 33.9301 110.722 33.4098C111.082 32.8895 111.347 32.3043 111.518 31.6539C111.689 31.0035 111.773 30.3381 111.773 29.6577C111.773 28.9974 111.689 28.337 111.518 27.6766C111.347 27.0162 111.082 26.4309 110.722 25.9206C110.361 25.4103 109.9 24.9951 109.339 24.6749C108.778 24.3547 108.117 24.1946 107.356 24.1946C106.595 24.1946 105.934 24.3547 105.372 24.6749C104.811 24.9951 104.351 25.4103 103.99 25.9206C103.629 26.4309 103.364 27.0162 103.193 27.6766C103.023 28.337 102.938 28.9974 102.938 29.6577C102.938 30.3381 103.023 31.0035 103.193 31.6539C103.364 32.3043 103.629 32.8895 103.99 33.4098C104.351 33.9301 104.811 34.3503 105.372 34.6706C105.934 34.9908 106.595 35.1508 107.356 35.1508ZM118.054 21.9133H121.27V24.915H121.33C121.43 24.4948 121.625 24.0846 121.916 23.6843C122.207 23.2841 122.557 22.9189 122.968 22.5887C123.379 22.2585 123.834 21.9934 124.335 21.7933C124.836 21.5932 125.347 21.4931 125.868 21.4931C126.268 21.4931 126.544 21.5031 126.694 21.5231C126.845 21.5431 127 21.5631 127.16 21.5831V24.885C126.92 24.845 126.674 24.81 126.424 24.78C126.174 24.75 125.928 24.7349 125.688 24.7349C125.107 24.7349 124.561 24.85 124.05 25.0801C123.539 25.3102 123.093 25.6505 122.712 26.1007C122.331 26.551 122.031 27.1063 121.811 27.7667C121.591 28.427 121.48 29.1874 121.48 30.0479V37.4321H118.054V21.9133Z" fill="#717171"/>
</g>
<defs>
<clipPath id="clip0_321_20666">
<rect width="115.789" height="27.3684" fill="white" transform="translate(12 16)"/>
</clipPath>
</defs>
</svg>
