<svg width="140" height="60" viewBox="0 0 140 60" fill="none" xmlns="http://www.w3.org/2000/svg">
<path d="M139.942 24.7727C139.733 25.5036 139.518 26.2345 139.321 26.9709C138.435 30.1991 137.554 33.4328 136.662 36.6609C136.544 37.0928 136.363 37.5137 136.217 37.9401C136.165 38.0895 136.092 38.1559 135.917 38.1504C135.426 38.1394 134.929 38.1449 134.387 38.1449C134.974 37.4361 135.172 36.6222 135.341 35.8027C135.37 35.6587 135.358 35.4871 135.313 35.3487C134.172 31.8768 133.021 28.405 131.87 24.9388C131.841 24.8558 131.818 24.7672 131.779 24.6564C132.366 24.6564 132.919 24.6454 133.472 24.6675C133.546 24.6675 133.642 24.8059 133.671 24.9C134.218 26.7218 134.777 28.549 135.302 30.3763C135.601 31.4284 135.844 32.497 136.109 33.5601C136.131 33.6487 136.16 33.7318 136.245 33.8314C136.267 33.7539 136.301 33.6764 136.312 33.5989C136.713 30.6974 137.588 27.8901 138.204 25.0329C138.265 24.7339 138.378 24.6232 138.694 24.6509C139.106 24.6841 139.518 24.662 139.937 24.6675C139.942 24.7007 139.942 24.7339 139.942 24.7727Z" fill="#717171"/>
<path d="M14.474 15C22.4787 15.0055 28.9254 21.3622 28.9141 29.2305C28.9028 36.9991 22.3997 43.3281 14.4401 43.317C6.46364 43.3114 -0.0169021 36.9492 3.31164e-05 29.1474C0.0226134 21.3179 6.49186 14.9945 14.474 15ZM14.6772 15.5593C18.6626 22.3201 22.6311 29.0422 26.6391 35.8418C28.9141 31.4453 29.0665 27.0821 26.7407 22.752C23.8899 17.453 18.5045 15.5039 14.6772 15.5593ZM2.63628 36.2903C4.58947 39.6735 9.24661 43.1121 15.2417 42.7743C18.3522 42.5972 21.107 41.5119 23.4891 39.5351C24.6069 38.6104 25.544 37.5417 26.323 36.2903C18.3917 36.2903 10.5168 36.2903 2.63628 36.2903ZM2.1621 35.6259C2.19032 35.6314 2.22419 35.6315 2.25242 35.6369C6.19267 28.9536 10.1386 22.2647 14.0789 15.5814C14.0563 15.5593 14.0393 15.5371 14.0167 15.5094C9.09426 15.825 5.17656 17.9125 2.59112 22.0765C-0.141094 26.4785 -0.107223 31.0466 2.1621 35.6259ZM14.378 35.7089C16.7433 35.9193 19.5828 33.8207 19.5884 30.6646C19.5941 27.8572 17.2626 25.5593 14.395 25.5538C11.5103 25.5482 9.17331 27.8351 9.17331 30.6591C9.17331 33.8706 12.0636 35.9249 14.378 35.7089ZM14.3837 16.113C12.6619 19.031 10.974 21.8993 9.26357 24.7952C12.6958 24.7952 16.0716 24.7952 19.4981 24.7952C17.7933 21.8938 16.1054 19.031 14.3837 16.113ZM8.53537 35.7533C8.53537 32.525 8.53537 29.3191 8.53537 26.0355C6.60476 29.3135 4.71366 32.5195 2.80563 35.7533C4.74753 35.7533 6.62734 35.7533 8.53537 35.7533ZM25.9617 35.7533C24.048 32.5029 22.157 29.3025 20.2376 26.0411C20.2376 29.3301 20.2376 32.5361 20.2376 35.7533C22.14 35.7533 24.0198 35.7533 25.9617 35.7533ZM19.6618 28.411C19.6618 27.3368 19.6618 26.3401 19.6618 25.3489C18.5554 25.3489 17.4771 25.3489 16.399 25.3489C17.8724 25.9469 18.9505 26.9436 19.6618 28.411ZM9.09991 28.3334C9.81113 26.9381 10.895 25.958 12.3402 25.3434C11.2619 25.3434 10.1894 25.3434 9.09991 25.3434C9.09991 26.3511 9.09991 27.3423 9.09991 28.3334ZM19.6731 32.9847C19.0747 34.1419 18.1997 35.0445 16.9691 35.6924C17.9288 35.6924 18.7924 35.6924 19.6731 35.6924C19.6731 34.7787 19.6731 33.8816 19.6731 32.9847ZM11.7136 35.6979C10.5676 35.0389 9.69826 34.1419 9.10557 32.9016C9.10557 33.8816 9.10557 34.7842 9.10557 35.6979C9.98618 35.6979 10.8498 35.6979 11.7136 35.6979Z" fill="#717171"/>
<path d="M39.1717 27.4862C39.2845 27.525 39.3466 27.5527 39.4144 27.5693C40.7749 27.9237 41.5482 28.8097 41.8248 30.1385C42.0055 31.0189 41.9772 31.8993 41.7289 32.7631C41.3393 34.1142 40.4531 35.0278 39.0926 35.4542C37.3483 35.9969 35.5814 35.7532 33.8145 35.5096C33.8145 30.4486 33.8145 25.4319 33.8145 20.371C34.4298 20.299 35.0451 20.2049 35.6605 20.1551C36.7217 20.072 37.7773 20.0332 38.8386 20.227C40.3458 20.5094 41.2716 21.412 41.4918 22.9126C41.6668 24.1141 41.5087 25.2659 40.7749 26.2847C40.4192 26.7775 39.9732 27.1596 39.3862 27.37C39.3185 27.3976 39.2732 27.4364 39.1717 27.4862ZM35.4967 34.1142C36.3435 34.2194 37.179 34.3357 38.0201 34.1696C39.0249 33.9702 39.6853 33.3557 40.0015 32.4033C40.2385 31.6945 40.2273 30.9691 40.0241 30.2548C39.8039 29.4741 39.2902 28.937 38.4943 28.6878C37.5177 28.3833 36.5071 28.4995 35.4967 28.4774C35.4967 30.3711 35.4967 32.226 35.4967 34.1142ZM35.4854 27.0433C36.0499 27.0433 36.5749 27.0322 37.0999 27.0488C37.7322 27.0654 38.2402 26.8162 38.7088 26.4231C39.5838 25.6922 39.8998 24.7454 39.7644 23.6546C39.5951 22.3201 38.8499 21.6556 37.4781 21.6224C36.908 21.6058 36.3322 21.6667 35.762 21.6722C35.5362 21.6778 35.4854 21.7664 35.4854 21.9712C35.4911 23.4275 35.4911 24.8783 35.4911 26.3345C35.4854 26.5671 35.4854 26.7941 35.4854 27.0433Z" fill="#717171"/>
<path d="M125.233 35.5643C124.691 35.5643 124.183 35.5643 123.624 35.5643C123.624 35.4647 123.624 35.3705 123.624 35.2709C123.624 33.1446 123.635 31.0183 123.619 28.8865C123.613 28.2442 123.585 27.5908 123.455 26.9651C123.218 25.8023 121.92 25.376 120.988 26.1512C120.384 26.6551 120.006 27.2863 120.012 28.1113C120.023 30.4868 120.017 32.8622 120.017 35.2376C120.017 35.3373 120.017 35.437 120.017 35.5588C119.475 35.5588 118.945 35.5588 118.408 35.5588C118.408 31.9264 118.408 28.3051 118.408 24.6728C118.786 24.6728 119.159 24.6728 119.548 24.6728C119.645 25.0382 119.735 25.4092 119.847 25.8245C120.006 25.6529 120.125 25.52 120.248 25.387C121.106 24.4734 122.18 24.2243 123.381 24.4513C124.031 24.5731 124.466 24.9773 124.742 25.5532C124.799 25.675 124.855 25.8079 124.923 25.9629C124.973 25.8909 125.019 25.8411 125.058 25.7858C126.001 24.3295 127.785 24.1135 129.094 24.6063C129.546 24.7779 129.828 25.1323 130.026 25.5587C130.331 26.2065 130.438 26.9042 130.444 27.6019C130.46 30.2432 130.449 32.8844 130.449 35.5532C129.93 35.5532 129.405 35.5532 128.852 35.5532C128.852 35.4314 128.852 35.3207 128.852 35.2155C128.846 32.7957 128.852 30.3705 128.823 27.9508C128.818 27.5078 128.711 27.0593 128.609 26.6218C128.513 26.1955 128.208 25.9297 127.773 25.8522C126.859 25.6861 126.159 25.9131 125.696 26.6107C125.402 27.0482 125.227 27.5189 125.233 28.0615C125.245 30.4591 125.233 32.8566 125.233 35.2543C125.233 35.3483 125.233 35.4481 125.233 35.5643Z" fill="#717171"/>
<path d="M84.7667 35.5811C84.2135 35.5811 83.6829 35.5866 83.1522 35.57C83.0901 35.57 82.9998 35.4316 82.9716 35.343C82.599 34.1082 82.2377 32.8734 81.8708 31.6387C81.8369 31.5334 81.803 31.4282 81.7635 31.312C81.6957 31.3064 81.6337 31.3009 81.5716 31.3009C80.245 31.3009 78.9184 31.3009 77.5975 31.2954C77.4224 31.2954 77.3434 31.3396 77.2926 31.5223C76.9313 32.7959 76.5531 34.0639 76.1862 35.3375C76.1297 35.5312 76.045 35.5977 75.8362 35.5866C75.3903 35.57 74.9443 35.5811 74.4531 35.5811C74.6112 35.055 74.7523 34.5623 74.9048 34.075C76.2935 29.4957 77.6877 24.911 79.0651 20.3318C79.1385 20.0992 79.2458 20.0383 79.4773 20.0439C80.0756 20.0549 80.0756 20.0494 80.2506 20.6253C81.741 25.5423 83.2312 30.4592 84.7216 35.3763C84.7384 35.4205 84.7441 35.4814 84.7667 35.5811ZM79.5619 22.89C79.2289 25.2599 78.4103 27.4969 77.8176 29.8114C79.0087 29.8114 80.1716 29.8114 81.3514 29.8114C80.7417 27.4913 79.9006 25.2599 79.5619 22.89Z" fill="#717171"/>
<path d="M100.955 35.5641C100.419 35.5641 99.9054 35.5641 99.375 35.5641C99.375 30.481 99.375 25.4035 99.375 20.3038C99.8828 20.3038 100.397 20.3038 100.944 20.3038C100.944 22.0701 100.944 23.8475 100.944 25.625C100.966 25.6361 100.989 25.6416 101.006 25.6527C101.068 25.5918 101.131 25.5308 101.187 25.4699C102.305 24.1853 104.072 24.1908 105.166 24.6228C105.889 24.9107 106.256 25.5308 106.403 26.234C106.55 26.9207 106.645 27.6349 106.657 28.3382C106.685 30.6693 106.668 33.0004 106.668 35.3261C106.668 35.3981 106.657 35.47 106.652 35.5586C106.12 35.5586 105.601 35.5586 105.059 35.5586C105.059 34.5397 105.059 33.5375 105.059 32.5353C105.059 31.2618 105.076 29.9938 105.048 28.7202C105.037 28.1997 104.98 27.6737 104.873 27.1587C104.625 25.9572 103.535 25.4256 102.406 25.9683C101.492 26.4057 100.944 27.1145 100.944 28.172C100.955 30.5309 100.944 32.8897 100.944 35.243C100.955 35.3537 100.955 35.4534 100.955 35.5641Z" fill="#717171"/>
<path d="M68.6147 35.5588C68.0615 35.5588 67.5421 35.5588 67.0059 35.5588C67.0059 30.4701 67.0059 25.3926 67.0059 20.2984C67.5365 20.2984 68.0559 20.2984 68.6034 20.2984C68.6034 23.3826 68.6034 26.4557 68.6034 29.5786C68.9817 29.4126 69.326 29.3517 69.5349 28.9529C70.2687 27.5853 71.0534 26.2453 71.8099 24.8887C71.9114 24.7115 72.0187 24.6451 72.2219 24.6506C72.7299 24.6672 73.238 24.6562 73.7856 24.6562C73.7348 24.7558 73.7009 24.8278 73.6614 24.8942C72.8711 26.2232 72.092 27.5576 71.2792 28.8699C71.0703 29.2077 70.7316 29.4679 70.4325 29.7835C70.5453 29.8943 70.6695 30.0327 70.805 30.149C71.1719 30.448 71.4372 30.819 71.6687 31.2287C72.4365 32.5798 73.2267 33.9198 74.0058 35.2653C74.0566 35.3539 74.1017 35.4425 74.1694 35.5588C74.0792 35.5699 74.0114 35.5864 73.9437 35.5864C73.4639 35.5864 72.984 35.5754 72.5042 35.592C72.3066 35.5975 72.205 35.5311 72.109 35.365C71.2848 33.9087 70.4437 32.458 69.6252 31.0017C69.484 30.7525 69.3372 30.6197 69.0381 30.6695C68.9083 30.6916 68.7785 30.675 68.6147 30.675C68.6147 32.2919 68.6147 33.9198 68.6147 35.5588Z" fill="#717171"/>
<path d="M56.9192 30.1878C56.9023 31.2176 56.8345 32.3362 56.4338 33.4104C55.6152 35.5976 53.1596 36.5223 51.0427 35.4481C50.1903 35.0161 49.6653 34.3019 49.4 33.4326C48.7338 31.2675 48.6831 29.0693 49.3831 26.9098C50.1057 24.6672 52.5274 23.7148 54.7007 24.7337C55.587 25.149 56.1007 25.8743 56.4281 26.7547C56.7498 27.6296 56.9249 28.8146 56.9192 30.1878ZM55.2483 30.2265C55.2313 29.9109 55.2257 29.4015 55.1749 28.8976C55.1071 28.1778 54.9886 27.4746 54.616 26.8323C54.2435 26.1844 53.7071 25.7968 52.9112 25.7968C52.1153 25.7968 51.5451 26.1678 51.1838 26.8378C51.0371 27.1091 50.9185 27.4082 50.8451 27.7071C50.5234 29.0416 50.5403 30.3927 50.6984 31.7382C50.7718 32.3638 50.9298 32.9729 51.2855 33.5101C51.7484 34.2188 52.4031 34.5234 53.2556 34.3905C54.0967 34.2631 54.5596 33.7204 54.8418 32.9895C55.1579 32.1645 55.1975 31.2896 55.2483 30.2265Z" fill="#717171"/>
<path d="M116.034 30.2928C114.133 30.2928 112.269 30.2928 110.373 30.2928C110.35 31.1178 110.44 31.9151 110.717 32.6848C110.898 33.1997 111.18 33.6539 111.643 33.975C112.411 34.5121 113.257 34.5343 114.121 34.274C114.527 34.1521 114.9 33.9363 115.318 33.7479C115.481 34.0746 115.667 34.4401 115.877 34.8498C115.656 34.9938 115.459 35.1599 115.227 35.2762C114.138 35.83 112.975 35.9905 111.784 35.7358C110.384 35.4423 109.594 34.4844 109.147 33.2219C108.707 31.976 108.645 30.6804 108.713 29.3792C108.764 28.4101 108.916 27.4577 109.322 26.5607C110.355 24.3016 112.512 24.0414 114.245 24.6283C115.182 24.9494 115.64 25.7302 115.91 26.6216C116.199 27.574 116.176 28.5486 116.108 29.5231C116.086 29.7778 116.057 30.0214 116.034 30.2928ZM114.595 28.9694C114.623 28.2994 114.584 27.635 114.347 26.9982C113.85 25.6803 112.224 25.3647 111.247 26.4002C110.57 27.12 110.48 28.0337 110.384 28.9639C111.8 28.9694 113.178 28.9694 114.595 28.9694Z" fill="#717171"/>
<path d="M65.0595 24.9228C64.9128 25.3823 64.7661 25.8197 64.6305 26.2406C64.1959 26.1077 63.7895 25.9472 63.3661 25.8641C61.9491 25.5817 61.0064 26.1299 60.5661 27.4809C60.2613 28.4222 60.2274 29.3968 60.2443 30.3768C60.2556 31.1631 60.3234 31.9438 60.6056 32.6858C60.9556 33.6105 61.5145 34.3193 62.6153 34.419C63.304 34.4799 63.9362 34.2971 64.5176 33.9372C64.5797 33.8984 64.6418 33.8542 64.7039 33.8154C64.7095 33.8099 64.7209 33.8099 64.7604 33.8044C64.8959 34.1753 65.0482 34.5463 65.1669 34.9284C65.1837 34.9837 65.1103 35.1111 65.0426 35.1499C64.3031 35.6372 63.4676 35.8199 62.587 35.8365C60.7524 35.8641 59.6121 35.0834 59.025 33.378C58.5395 31.9771 58.5056 30.5208 58.6016 29.0646C58.6637 28.1232 58.8443 27.204 59.279 26.3458C59.9451 25.0335 61.0177 24.3635 62.5306 24.3746C63.4055 24.3857 64.2467 24.5075 65.0595 24.9228Z" fill="#717171"/>
<path d="M96.9693 26.2952C96.3484 25.9685 95.7328 25.8079 95.0667 25.8024C94.1467 25.7914 93.5093 26.2177 93.1197 27.0095C92.7806 27.6851 92.6789 28.4104 92.6284 29.1524C92.5554 30.1934 92.5719 31.2343 92.8258 32.2532C92.8884 32.5023 92.9728 32.746 93.0797 32.984C93.678 34.2964 94.8806 34.7781 96.2467 34.2466C96.5406 34.1302 96.811 33.9697 97.1102 33.8202C97.2571 34.2078 97.4041 34.612 97.5736 35.055C97.3649 35.1768 97.1667 35.3152 96.9528 35.4148C96.038 35.8357 95.0728 35.9354 94.0902 35.8025C92.6397 35.5976 91.8154 34.6784 91.3754 33.3827C90.918 32.0427 90.8554 30.6585 90.9406 29.2631C91.0023 28.2277 91.178 27.2143 91.6684 26.2841C92.3232 25.0438 93.3623 24.4015 94.7963 24.3904C95.6258 24.3849 96.4215 24.4901 97.1893 24.8223C97.3589 24.8943 97.4206 24.9608 97.3476 25.149C97.2119 25.5034 97.0989 25.8854 96.9693 26.2952Z" fill="#717171"/>
<path d="M44.3027 20.293C44.8503 20.293 45.364 20.293 45.9229 20.293C45.9229 20.4092 45.9229 20.5145 45.9229 20.6252C45.9229 24.7227 45.9229 28.8146 45.9286 32.9121C45.9286 33.2222 45.9624 33.5378 46.0358 33.8368C46.1431 34.2466 46.4027 34.4182 46.8261 34.3795C47.1479 34.3462 47.464 34.2577 47.814 34.1912C47.8592 34.5622 47.9156 34.9387 47.9495 35.3208C47.9552 35.3761 47.8761 35.4648 47.814 35.4924C47.114 35.7637 46.3858 35.9132 45.6406 35.7416C44.8616 35.5588 44.4778 35.0162 44.3649 34.2631C44.331 34.0251 44.3084 33.7869 44.3084 33.5489C44.3027 29.2244 44.3084 24.8944 44.3084 20.5698C44.3027 20.4923 44.3027 20.4092 44.3027 20.293Z" fill="#717171"/>
<path d="M86.3242 20.2984C86.8662 20.2984 87.38 20.2984 87.9278 20.2984C87.9278 20.4091 87.9278 20.5088 87.9278 20.6085C87.9278 24.6838 87.9278 28.7647 87.933 32.84C87.933 33.1612 87.9669 33.4878 88.0347 33.798C88.1365 34.2409 88.4182 34.4347 88.8817 34.3849C89.1973 34.3517 89.5026 34.2631 89.8356 34.1966C89.8808 34.5566 89.9373 34.9275 89.9652 35.3041C89.9713 35.365 89.8973 35.4757 89.8356 35.5034C89.1243 35.7803 88.3956 35.9297 87.6339 35.747C86.8436 35.5532 86.4146 34.9608 86.3412 34.0084C86.3299 33.8644 86.3299 33.7149 86.3299 33.5654C86.3299 29.2409 86.3299 24.9164 86.3299 20.5863C86.3243 20.4977 86.3242 20.4147 86.3242 20.2984Z" fill="#717171"/>
</svg>
