<svg width="140" height="60" viewBox="0 0 140 60" fill="none" xmlns="http://www.w3.org/2000/svg">
<mask id="mask0_321_20682" style="mask-type:alpha" maskUnits="userSpaceOnUse" x="9" y="16" width="122" height="27">
<rect x="9" y="16" width="121.065" height="27" fill="#D9D9D9"/>
</mask>
<g mask="url(#mask0_321_20682)">
<path fill-rule="evenodd" clip-rule="evenodd" d="M-23.5695 15.3302C-24.4771 16.8779 -24.7549 17.8578 -24.1879 17.5068C-23.4476 17.0495 -23.3161 17.505 -23.7211 19.1198C-24.2315 21.1509 -24.0433 21.3678 -21.7962 21.3399C-20.4271 21.3225 -18.3272 20.711 -17.1296 19.9812C-15.0297 18.7017 -15.1037 18.6721 -19.1938 19.139C-22.8153 19.5527 -23.2839 19.4403 -22.3972 18.3725C-21.8259 17.6844 -21.4853 16.0845 -21.6395 14.8181L-21.9199 12.5161L-23.5695 15.3302ZM15.0962 19.5692C14.1007 20.2581 14.6564 20.4759 17.4347 20.4863C21.922 20.5029 25.5478 21.8006 25.5478 23.391C25.5478 25.2061 22.718 27.38 19.5242 28.0185L16.6631 28.5907L18.1211 25.7705C19.7202 22.6777 19.5529 21.9226 17.4461 22.7308C16.1266 23.2377 10.7414 35.8459 10.7414 38.4283C10.7414 41.2363 21.2156 39.2531 25.5208 35.6307C28.9847 32.7156 28.9315 30.519 25.3675 29.277L22.5735 28.3024L25.3588 26.361C28.4298 24.2193 29.6814 21.6717 28.3279 20.3182C27.0825 19.0728 16.6674 18.4831 15.0962 19.5692ZM37.9217 20.2102C32.4372 22.9137 32.2046 26.5709 37.3094 29.8701C40.6835 32.0511 41.1756 34.292 38.7613 36.4773C36.7328 38.3133 33.9126 38.3203 32.0862 36.4939C30.4157 34.8242 28.4769 36.0889 29.3243 38.2959C30.116 40.3592 34.8759 39.9742 39.087 37.5068C44.9181 34.0891 45.1716 31.0738 39.9153 27.677C35.0666 24.5433 36.5307 19.8688 42.1049 20.6867C43.6683 20.9157 45.1333 20.6022 45.7029 19.9159C47.1226 18.2053 41.5632 18.416 37.9217 20.2102ZM56.4672 20.4036C52.2508 22.3493 49.597 25.1068 47.7993 29.4111C45.3075 35.3747 46.384 39.6607 50.3739 39.6607C52.5887 39.6607 61.2575 35.46 61.2575 34.3861C61.2575 33.9663 59.904 34.421 58.25 35.3973C54.2723 37.7437 50.4732 37.3387 50.0751 34.5246C49.5552 30.8474 51.7735 24.9274 54.5458 22.595C56.6718 20.806 57.9234 20.4358 61.0911 20.6588C63.6544 20.84 65.1359 20.5586 65.3824 19.8462C65.9546 18.1852 60.5398 18.524 56.4672 20.4036ZM74.7575 20.4088C70.488 22.385 67.0163 25.976 65.223 30.2699C62.9715 35.6595 63.8286 39.6607 67.2341 39.6607C68.7565 39.6607 76.3679 35.3198 75.8148 34.7667C75.6023 34.5542 74.2663 35.048 72.8448 35.8633C67.6269 38.8585 65.7665 34.967 69.0056 27.8338C71.4217 22.5157 74.7827 20.2146 79.2473 20.8225C81.9595 21.191 82.9899 20.9941 83.3574 20.036C84.0699 18.1791 79.1088 18.3943 74.7575 20.4088ZM90.6605 19.8462C89.3209 20.8774 82.6345 38.6835 83.3269 39.375C84.6142 40.6632 86.6898 37.6183 88.6634 31.5433C89.9367 27.6248 91.5437 23.1454 92.2335 21.5881C93.5521 18.6129 93.0234 18.0267 90.6605 19.8462ZM97.4026 19.6284C97.0926 20.1301 97.9026 20.5011 99.3109 20.5046C103.125 20.5116 108.335 22.2161 108.879 23.6349C109.605 25.5275 106.746 28.2179 102.91 29.2509L99.5487 30.1558L102.103 33.8696C105.489 38.7897 106.968 39.9211 109.125 39.2365C110.836 38.6939 110.797 38.5511 108.285 36.0383C103.552 31.3046 103.44 30.3675 107.373 28.3616C110.671 26.6789 112.645 24.3926 112.645 22.2544C112.645 19.7007 98.8293 17.3204 97.4026 19.6284ZM120.657 19.5021C120.035 19.8976 118.228 23.9084 116.643 28.4165C115.058 32.9238 113.469 37.2986 113.11 38.1365C112.522 39.5109 113.104 39.6607 119.032 39.6607C122.648 39.6607 125.848 39.2688 126.145 38.7897C126.479 38.2489 124.847 37.9188 121.841 37.9188C119.179 37.9188 116.999 37.6 116.999 37.2115C116.999 36.5278 121.393 23.3901 122.661 20.2817C123.325 18.653 122.502 18.3324 120.657 19.5021ZM99.3797 23.33C97.8399 24.5233 92.243 39.6607 93.3413 39.6607C95.0606 39.6607 96.7747 37.0582 98.2161 32.2575C99.0793 29.3833 100.337 25.9534 101.011 24.6365C102.321 22.0785 101.668 21.5559 99.3797 23.33ZM78.3494 30.8317C77.542 31.7244 76.7137 33.3235 76.509 34.3852C76.3043 35.447 75.8985 37.0687 75.6067 37.9884C75.0379 39.7791 75.7722 40.0944 77.6866 38.882C79.3849 37.8055 82.2017 29.2091 80.8551 29.2091C80.2847 29.2091 79.1567 29.939 78.3494 30.8317ZM22.9924 30.9815C25.0009 32.0571 25.1907 34.6666 23.3695 36.1768C22.651 36.7734 20.2994 37.4606 18.1437 37.7036C13.7871 38.1949 13.4832 37.694 15.1816 32.8227C15.9646 30.5774 16.6065 30.08 18.7229 30.08C20.1443 30.08 22.0657 30.4859 22.9924 30.9815ZM-35.4199 32.1939C-35.4199 32.3977 -34.2441 33.152 -32.807 33.8688C-29.9764 35.2806 -29.1063 34.2076 -31.8786 32.7234C-33.6031 31.8011 -35.4199 31.5293 -35.4199 32.1939ZM-29.8527 42.6002C-31.3002 43.4024 -31.4588 43.8309 -30.6026 44.6313C-29.1359 46.0013 -25.686 45.0163 -26.0152 43.3222C-26.354 41.5742 -27.583 41.3434 -29.8527 42.6002ZM-33.2425 45.7575C-33.5386 46.2365 -33.3653 46.6284 -32.8584 46.6284C-32.3515 46.6284 -31.9361 46.2365 -31.9361 45.7575C-31.9361 45.2784 -32.1085 44.8865 -32.3201 44.8865C-32.5318 44.8865 -32.9464 45.2784 -33.2425 45.7575Z" fill="#717171"/>
</g>
</svg>
