<svg width="140" height="60" viewBox="0 0 140 60" fill="none" xmlns="http://www.w3.org/2000/svg">
<g clip-path="url(#clip0_321_20669)">
<path d="M0 24.157C0.157728 23.8285 0.283912 23.4844 0.457413 23.1716C0.820189 22.4521 1.34069 21.9046 2.05047 21.498C4.93691 19.8713 7.80758 18.2133 10.694 16.5866C12.0662 15.8045 13.47 15.8045 14.8422 16.5866C17.7445 18.2289 20.6467 19.8713 23.5173 21.5449C24.7949 22.28 25.4574 23.4375 25.5205 24.9078C25.5205 25.0955 25.4416 25.3301 25.3154 25.4709C20.1893 31.227 15.0315 36.983 9.88959 42.7391C9.87382 42.7547 9.85805 42.7547 9.81073 42.8016C9.71609 42.7547 9.58991 42.7078 9.47949 42.6452C7.35015 41.4252 5.25236 40.1582 3.09148 39.0164C1.64038 38.2656 0.473186 37.3271 0 35.716C0 31.8682 0 28.0048 0 24.157ZM21.1672 22.2487C20.9779 22.2175 20.9306 22.2018 20.8675 22.2018C16.6561 22.2018 12.4448 22.1862 8.23343 22.2175C7.7287 22.2175 7.14511 22.4365 6.71925 22.7336C5.85174 23.3749 5.37855 24.3291 5.33123 25.3927C5.25236 26.9568 5.25236 28.5367 5.23659 30.1164C5.22082 32.0715 7.4448 33.7921 9.43218 33.3073C9.43218 33.1039 9.43218 32.9006 9.43218 32.6972C9.43218 30.9924 9.43218 29.2718 9.43218 27.5668C9.43218 26.5032 9.81073 26.1278 10.8991 26.1278C12.7445 26.1278 14.6056 26.0653 16.4511 26.1435C17.4448 26.1904 18.1388 25.9558 18.7381 25.1268C19.448 24.1414 20.2996 23.2498 21.1672 22.2487ZM15.9621 33.933C15.5836 33.933 15.3786 33.933 15.1735 33.933C13.2176 33.933 11.2776 33.9486 9.32176 33.933C8.83281 33.933 8.34385 33.8547 7.85489 33.7765C6.79811 33.5888 6.05679 32.9162 5.29968 32.0403C5.29968 32.9006 5.26814 33.6201 5.31546 34.3552C5.37855 35.3094 5.72555 36.1696 6.37223 36.9048C6.84542 37.4366 7.42902 37.7495 8.17035 37.7495C9.51105 37.7337 10.8517 37.7495 12.1925 37.7337C12.3975 37.7337 12.6814 37.6712 12.8075 37.5305C13.8328 36.3729 14.8265 35.2155 15.9621 33.933Z" fill="#717171"/>
<path d="M11.9394 43.8966C11.482 43.6932 11.0246 43.5055 10.4883 43.2709C15.4882 37.6556 20.441 32.103 25.4725 26.472C25.504 26.691 25.5198 26.8318 25.5198 26.9726C25.5198 28.0831 25.5355 29.1937 25.504 30.3042C25.4882 30.5857 25.3779 30.9142 25.1886 31.1175C24.4473 32.0091 23.6744 32.8537 22.8858 33.7453C23.0751 33.9174 23.2485 34.0737 23.4693 34.2614C24.1318 33.5263 24.7627 32.8068 25.4094 32.103C25.4567 32.1186 25.5198 32.1343 25.5672 32.1499C25.504 33.4011 25.5514 34.6681 25.3621 35.8882C25.2044 36.9205 24.5734 37.7495 23.6428 38.2969C21.3085 39.6577 18.9584 40.9873 16.6081 42.3324C16.5451 42.3637 16.4662 42.3793 16.2612 42.4576C16.7344 41.9101 17.1128 41.4721 17.5387 40.9716C17.3653 40.7996 17.2075 40.6589 16.971 40.4399C16.198 41.3002 15.4725 42.1604 14.6997 42.9738C14.3684 43.3178 13.9425 43.5838 13.564 43.881C13.0435 43.8966 12.4914 43.8966 11.9394 43.8966ZM21.2927 35.5597C20.3779 36.5921 19.4788 37.6087 18.564 38.6411C18.8006 38.8445 18.9584 38.9852 19.1633 39.1572C20.094 38.0936 20.9772 37.0926 21.892 36.0758C21.6871 35.8882 21.5135 35.7474 21.2927 35.5597Z" fill="#717171"/>
<path d="M50.0913 31.7746C48.0566 31.7746 46.1007 31.7746 44.0502 31.7746C44.0502 32.7758 44.0344 33.7611 44.066 34.7465C44.0819 35.1845 43.9714 35.3565 43.4824 35.3565C39.1922 35.3409 34.902 35.3409 30.596 35.3565C29.8704 35.3565 29.2868 35.075 29.0187 34.4337C28.7663 33.8549 28.5613 33.2137 28.5455 32.6037C28.4824 30.8362 28.4982 29.0687 28.5455 27.2856C28.5613 26.7694 28.6717 26.2376 28.861 25.7683C29.1922 24.9237 29.8074 24.517 30.7853 24.5327C33.5455 24.564 36.3057 24.5483 39.0502 24.5483C39.2395 24.5483 39.4446 24.5483 39.7916 24.5483C39.1764 25.3773 38.6402 26.1281 38.0723 26.8476C37.9935 26.9415 37.7411 26.9258 37.5676 26.9258C35.6433 26.9258 33.7033 26.9258 31.7789 26.9258C31.5739 26.9258 31.3531 26.9258 31.1164 26.9258C31.1164 28.9436 31.1164 30.8987 31.1164 32.9008C34.555 32.9008 37.9777 32.9008 41.495 32.9008C41.495 32.6975 41.495 32.4941 41.495 32.2751C41.495 30.5234 41.4635 28.7715 41.5108 27.0197C41.5266 26.4879 41.7316 25.9248 41.9682 25.4242C42.268 24.7986 42.82 24.517 43.5613 24.517C45.801 24.5327 48.0566 24.517 50.2963 24.517C51.6055 24.517 52.4099 25.2053 52.5834 26.5191C52.6149 26.785 52.6307 27.0666 52.6307 27.3325C52.6307 29.7725 52.6307 32.197 52.6307 34.6371C52.6307 34.8404 52.6307 35.0594 52.6307 35.294C51.7631 35.294 50.9588 35.294 50.0913 35.294C50.0913 34.1209 50.0913 32.9634 50.0913 31.7746ZM50.044 29.7413C50.044 28.8028 50.044 27.8956 50.044 26.9727C48.0408 26.9727 46.0691 26.9727 44.0976 26.9727C44.0976 27.9269 44.0976 28.8184 44.0976 29.7413C46.0849 29.7413 48.0566 29.7413 50.044 29.7413Z" fill="#717171"/>
<path d="M107.538 35.2942C106.654 35.2942 105.834 35.2942 104.967 35.2942C104.967 32.4944 104.967 29.7414 104.967 26.9573C103.878 26.9573 102.837 26.9573 101.733 26.9573C101.733 27.1763 101.733 27.3796 101.733 27.583C101.733 29.976 101.717 32.3692 101.749 34.7624C101.749 35.1846 101.639 35.3567 101.181 35.3254C100.535 35.2942 99.8878 35.3098 99.1465 35.3098C99.1465 32.4944 99.1465 29.7258 99.1465 26.926C98.0109 26.926 96.9541 26.926 95.8501 26.926C95.8501 29.7102 95.8501 32.463 95.8501 35.2629C94.9825 35.2629 94.1623 35.2629 93.3105 35.2629C93.3105 31.6966 93.3105 28.146 93.3105 24.5016C93.5471 24.5016 93.768 24.5016 94.0045 24.5016C97.6797 24.5016 101.371 24.5016 105.046 24.5016C106.591 24.5016 107.49 25.268 107.522 26.8009C107.585 29.6476 107.538 32.4474 107.538 35.2942Z" fill="#717171"/>
<path d="M63.1996 31.2586C64.4298 33.4172 65.6128 35.4974 66.8431 37.6716C65.8968 37.6716 65.0608 37.6873 64.2248 37.6559C64.0986 37.6559 63.9409 37.5152 63.8778 37.4056C62.3636 34.6997 60.8494 32.0093 59.351 29.3034C59.3352 29.2721 59.351 29.2252 59.351 29.1158C60.3919 29.1158 61.4488 29.1158 62.5214 29.1158C62.5214 28.3336 62.5214 27.6142 62.5214 26.879C60.7232 26.879 58.9409 26.879 57.0797 26.879C57.0639 27.0823 57.0482 27.2857 57.0482 27.489C57.0482 29.8822 57.0324 32.2753 57.0639 34.6684C57.0797 35.2472 56.8904 35.4035 56.3384 35.3723C55.7075 35.3254 55.0923 35.3566 54.4141 35.3566C54.4141 31.7435 54.4141 28.1772 54.4141 24.5641C54.6507 24.5641 54.8557 24.5641 55.0765 24.5641C57.6317 24.5641 60.2028 24.6266 62.7579 24.5484C64.3352 24.5015 64.9819 25.3774 65.1711 26.5662C65.3289 27.489 65.2816 28.4745 65.1869 29.4129C65.0608 30.4139 64.3668 31.0709 63.1996 31.2586Z" fill="#717171"/>
<path d="M86.1658 24.5326C87.2069 24.5326 88.2478 24.5326 89.2889 24.5326C90.8346 24.5326 91.7337 25.2834 91.781 26.8319C91.8598 28.8965 91.8598 30.9613 91.7652 33.0259C91.7337 33.6202 91.4024 34.2616 91.0239 34.7464C90.7872 35.0593 90.2352 35.2939 89.8093 35.3096C87.3962 35.3565 84.9671 35.3408 82.5381 35.3252C81.5129 35.3252 80.6296 34.3867 80.5981 33.1354C80.5506 30.9926 80.5506 28.8496 80.5981 26.7068C80.6296 25.299 81.5444 24.517 82.9482 24.517C84.0523 24.5326 85.1091 24.5326 86.1658 24.5326ZM83.2005 32.9008C85.251 32.9008 87.2226 32.9008 89.1784 32.9008C89.1784 30.883 89.1784 28.9122 89.1784 26.9727C87.1596 26.9727 85.1879 26.9727 83.2005 26.9727C83.2005 28.9748 83.2005 30.9299 83.2005 32.9008Z" fill="#717171"/>
<path d="M111.954 31.7744C111.954 32.9788 111.954 34.1206 111.954 35.325C111.165 35.325 110.424 35.3407 109.682 35.3094C109.572 35.3094 109.383 35.106 109.383 34.9965C109.399 32.1967 109.399 29.3969 109.477 26.5971C109.493 26.1278 109.793 25.6429 110.045 25.2206C110.329 24.7357 110.818 24.5324 111.402 24.5324C113.799 24.5324 116.212 24.5324 118.61 24.5324C119.619 24.5324 120.518 25.4553 120.55 26.7222C120.613 29.5689 120.566 32.4001 120.566 35.325C119.809 35.325 119.067 35.3407 118.326 35.3094C118.216 35.3094 118.042 34.9965 118.026 34.8244C117.994 33.8234 118.011 32.8067 118.011 31.7744C115.96 31.7744 114.004 31.7744 111.954 31.7744ZM117.947 29.741C117.947 28.7869 117.947 27.8797 117.947 26.9568C115.944 26.9568 113.988 26.9568 112.001 26.9568C112.001 27.8953 112.001 28.8025 112.001 29.741C113.988 29.741 115.944 29.741 117.947 29.741Z" fill="#717171"/>
<path d="M78.5757 35.3096C77.6925 35.3096 76.8723 35.3096 76.0047 35.3096C76.0047 32.5255 76.0047 29.7726 76.0047 26.9728C73.9543 26.9728 71.9668 26.9728 69.8848 26.9728C69.8848 29.7413 69.8848 32.5098 69.8848 35.3096C69.0015 35.3096 68.213 35.3096 67.377 35.3096C67.377 31.7277 67.377 28.1772 67.377 24.5483C67.5978 24.5483 67.8186 24.5483 68.0237 24.5483C70.7051 24.5483 73.3707 24.5483 76.052 24.5483C77.6135 24.5483 78.5284 25.3304 78.5599 26.8946C78.6231 29.6631 78.5757 32.4473 78.5757 35.3096Z" fill="#717171"/>
<path d="M134.497 29.0843C135.349 27.6609 136.169 26.3471 136.942 25.0019C137.146 24.6422 137.384 24.5327 137.778 24.5483C138.488 24.5796 139.182 24.5483 140.002 24.5483C139.876 24.7986 139.797 24.955 139.702 25.1114C138.503 27.0509 137.289 28.9748 136.106 30.9299C135.948 31.1959 135.854 31.54 135.838 31.8529C135.806 32.9947 135.822 34.1365 135.822 35.3096C134.844 35.3096 133.929 35.3096 132.968 35.3096C132.968 34.1522 132.998 33.026 132.951 31.8998C132.936 31.5244 132.825 31.102 132.621 30.7736C131.454 28.8809 130.255 27.004 129.071 25.127C128.977 24.9706 128.898 24.7986 128.756 24.5483C129.671 24.5483 130.491 24.517 131.311 24.5639C131.484 24.5796 131.69 24.8142 131.799 24.9863C132.699 26.3158 133.566 27.6609 134.497 29.0843Z" fill="#717171"/>
<path d="M122.238 35.2938C122.238 31.6962 122.238 28.1456 122.238 24.5637C123.09 24.5637 123.925 24.5637 124.825 24.5637C124.825 27.3323 124.825 30.0852 124.825 32.9006C126.796 32.9006 128.721 32.9006 130.677 32.9006C130.677 33.7296 130.677 34.496 130.677 35.3094C127.884 35.2938 125.092 35.2938 122.238 35.2938Z" fill="#717171"/>
</g>
<defs>
<clipPath id="clip0_321_20669">
<rect width="140" height="28" fill="white" transform="translate(0 16)"/>
</clipPath>
</defs>
</svg>
