<svg width="140" height="60" viewBox="0 0 140 60" fill="none" xmlns="http://www.w3.org/2000/svg">
<g clip-path="url(#clip0_447_22610)">
<path d="M10.3941 35.0096H14.3566H16.5513H17.1609V31.0165H23.8668V35.0096H26.6405V25.8957C26.6405 25.1032 26.4272 24.4326 26.0309 23.8535C25.6347 23.2743 25.1775 23 24.6288 23H16.3989C15.8197 23 15.3625 23.2743 14.9663 23.8535C14.57 24.4326 14.3566 25.1946 14.3566 26.0481V31.9919H2.86523L3.32245 33.8818L10.3941 35.0096ZM23.8668 28.8524H17.1304V25.6214H23.8363V28.8524H23.8668Z" fill="#717171"/>
<path d="M34.017 28.1208H37.6747V25.4995H31.5175V34.9791H28.6218V23H38.4977C39.0769 23 39.5646 23.2743 39.9608 23.8535C40.3876 24.4631 40.6314 25.1946 40.6314 26.0176V27.4807C40.6314 27.8465 40.6009 28.1818 40.5095 28.4866C40.4485 28.7914 40.3266 29.0962 40.1742 29.3401C40.0218 29.5839 39.8084 29.7973 39.5646 29.9802C39.3207 30.1631 39.0159 30.285 38.6501 30.346L38.3148 30.4069L40.9362 35.0401H37.8881L35.3582 30.4374" fill="#717171"/>
<path d="M52.3972 30.3764C52.763 30.3155 53.0678 30.1935 53.3116 30.0106C53.5555 29.8278 53.7689 29.6144 53.9213 29.3705C54.0737 29.1267 54.1956 28.8219 54.2566 28.5171C54.3175 28.2123 54.3785 27.8465 54.3785 27.5112V26.0481C54.3785 25.1946 54.1651 24.4631 53.7079 23.8839C53.3116 23.3048 52.8239 23.0305 52.2448 23.0305H42.3689V35.0096H45.2646V25.4994H51.4218V28.1208H47.7641L53.0068 37.6005H56.0549L52.0314 30.4374L52.3972 30.3764Z" fill="#717171"/>
<path d="M3.23095 31.9919C3.07855 31.9614 2.31652 31.8395 1.64593 31.4737C0.914386 31.0775 0.2438 30.2545 0.0609131 29.401V31.809C0.0609131 32.693 0.274281 33.4245 0.701018 34.0341C1.12775 34.6438 1.64593 34.9486 2.28604 35.0095H11.6133L14.3566 31.9919H3.23095Z" fill="#717171"/>
<path d="M4.35881 25.9872C4.2064 25.9872 4.08448 25.9872 3.96255 26.0176C3.84063 26.0481 3.74918 26.0786 3.65774 26.1091C3.5663 26.1396 3.50533 26.2005 3.44437 26.2615C3.41389 26.292 3.38341 26.3529 3.35293 26.3834L3.32245 26.4139C3.26148 26.5053 3.231 26.5968 3.20052 26.7187C3.17004 26.8406 3.17004 26.9626 3.17004 27.115C3.17004 27.8465 3.17004 31.8395 3.17004 31.9919C3.01764 31.9615 2.25561 31.8395 1.58502 31.5042C0.853473 31.108 0.182887 30.285 0 29.4315V26.1396C0 25.9567 0 25.7433 0.0304812 25.5604C0.0609623 25.2251 0.152406 24.9203 0.243849 24.646C0.365774 24.5241 0.426736 24.4021 0.487699 24.2802C0.548661 24.1583 0.609623 24.0364 0.701067 23.9144C0.762029 23.823 0.822992 23.762 0.853473 23.7011C0.975397 23.5791 1.09732 23.4572 1.21925 23.3658C1.37165 23.2438 1.55454 23.1524 1.70695 23.0914C1.85935 23.0305 2.07272 23 2.25561 23H8.47377H8.50425H8.53473H11.8267L9.29676 25.9567H4.35881V25.9872Z" fill="#717171"/>
<path d="M65.9003 30.2545H59.2859C58.5544 30.1021 57.9752 29.7363 57.5485 29.1572C57.0913 28.5781 56.8779 27.8465 56.8779 26.993V26.17C56.8779 25.3166 57.0913 24.585 57.5485 23.9449C58.0362 23.3048 58.5848 23 59.2554 23H69.3752V25.9262H60.2918V27.6027H66.9062C67.6377 27.6941 68.2169 27.9989 68.6741 28.4561C69.1313 28.9438 69.3752 29.6144 69.3752 30.4679V31.87C69.3752 32.7235 69.1313 33.4855 68.6436 34.1256C68.1864 34.7352 67.6073 35.0401 66.9367 35.0401H56.8474V32.2358H65.9003V30.2545Z" fill="#717171"/>
<path d="M83.0307 23.0305C83.0307 23.0305 82.604 23.2743 82.2687 24.1278C81.9334 24.9813 81.8419 26.0176 81.8419 26.0176H78.428V35.0705H74.8922V26.0176H70.5029V23.0305H83.0307Z" fill="#717171"/>
<path d="M86.2008 31.2299V35.0705H83.0002V26.2005C83.0002 25.3165 83.2136 24.585 83.6404 23.9449C84.0671 23.3353 84.5853 23.0305 85.2254 23.0305H93.1505C93.7601 23.0305 94.2783 23.3353 94.705 23.9449C95.1317 24.524 95.3451 25.2556 95.3451 26.0481V35.0705H92.1751V31.2299H86.2008ZM88.0906 28.6695H92.1751V26.0176H86.2008V28.6695H88.0906Z" fill="#717171"/>
<path d="M108.391 35.101L103.24 28.3342L107.934 23.0305H104.063L99.9478 27.5112V23H96.6863V35.101H99.9478V29.2791L104.428 35.101H108.391Z" fill="#717171"/>
<path d="M109.366 35.101V23.0305H112.658V35.101H109.366Z" fill="#717171"/>
<path d="M123.357 26.0176H117.322V35.0705H114.152V23.0305H124.363C124.973 23.0305 125.491 23.3353 125.918 23.9449C126.344 24.5545 126.588 25.2861 126.588 26.2005V35.101H123.388V26.0176H123.357Z" fill="#717171"/>
<path d="M136.8 32.0224V28.9438H140.061V32.2968C140.061 32.8454 139.848 33.455 139.39 34.1256C138.964 34.7657 138.415 35.0705 137.775 35.0705H129.911C129.301 35.0705 128.753 34.7657 128.326 34.1256C127.899 33.516 127.686 32.754 127.686 31.8395V26.2005C127.686 25.3166 127.899 24.585 128.326 23.9449C128.753 23.3048 129.301 23 129.911 23H140.061V25.9872H130.917V32.0224H136.8Z" fill="#717171"/>
</g>
<defs>
<clipPath id="clip0_447_22610">
<rect width="140" height="60" fill="white"/>
</clipPath>
</defs>
</svg>
