<svg width="140" height="60" viewBox="0 0 140 60" fill="none" xmlns="http://www.w3.org/2000/svg">
<g clip-path="url(#clip0_321_20672)">
<mask id="mask0_321_20672" style="mask-type:alpha" maskUnits="userSpaceOnUse" x="12" y="15" width="27" height="30">
<path d="M12.998 15.0336H38.4753V44.4737H12.998V15.0336Z" fill="white"/>
</mask>
<g mask="url(#mask0_321_20672)">
<path fill-rule="evenodd" clip-rule="evenodd" d="M34.0149 24.9733C31.4568 23.4527 29.1508 21.9917 26.7504 20.7183C26.1494 20.3993 25.0971 20.4064 24.5041 20.7373C22.0721 22.0943 18.8558 23.1038 17.6188 25.2591C16.4194 27.3492 17.2903 30.6856 17.2524 33.4748C17.2506 33.5987 17.2109 33.7461 17.2612 33.8434C17.5467 34.3945 17.7227 35.1489 18.1765 35.4402C20.3303 36.8218 22.5427 38.1119 24.7817 39.3438C25.2199 39.5848 25.9859 39.6415 26.4033 39.4102C28.9002 38.0261 31.3392 36.5326 33.8292 35.0575C30.6668 32.3011 30.2687 32.275 26.8714 34.1744C26.3541 34.4635 25.5641 34.7355 25.1004 34.5333C23.9006 34.0098 22.8126 33.2174 21.5439 32.4503C22.9463 31.5717 24.1556 30.814 25.5266 29.9551C24.1075 29.0631 22.9146 28.3136 21.6641 27.5279C25.2217 24.8275 25.2126 24.8446 28.7469 26.7914C29.2189 27.0514 29.9463 27.2891 30.3652 27.0984C31.5643 26.553 32.6654 25.7818 34.0149 24.9733ZM26.1425 15.0336C28.4329 16.4883 30.5819 18.3037 33.0446 19.3189C37.3915 21.1101 39.0517 23.9843 38.3013 28.7262C37.9182 31.1483 38.3061 33.6905 38.1848 36.17C38.1531 36.8218 37.6759 37.7023 37.1409 38.0354C33.6718 40.1952 30.1488 42.2673 26.5913 44.2712C26.0941 44.5513 25.1831 44.5368 24.6812 44.2536C21.1247 42.2483 17.6014 40.1762 14.1312 38.0179C13.5969 37.6855 13.0927 36.8098 13.0782 36.173C12.9838 32.0735 13.0775 27.97 12.9988 23.8698C12.9773 22.7423 13.4322 22.2289 14.3035 21.7167C18.0279 19.5259 21.714 17.2673 25.414 15.0336H26.1425Z" fill="#717171"/>
</g>
<path fill-rule="evenodd" clip-rule="evenodd" d="M86.7425 27.5069C86.7201 25.4494 85.0873 23.8231 83.0725 23.8521C81.0623 23.881 79.4644 25.5552 79.49 27.6058C79.5156 29.6252 81.2063 31.3145 83.1704 31.283C85.1565 31.2511 86.7644 29.5513 86.7425 27.5069ZM90.339 27.5578C90.339 31.5937 87.1235 34.902 83.1647 34.9378C79.1753 34.9741 75.8524 31.5586 75.891 27.4612C75.9284 23.4399 79.2105 20.1664 83.1693 20.2016C87.1595 20.2367 90.339 23.4988 90.339 27.5578Z" fill="#717171"/>
<path fill-rule="evenodd" clip-rule="evenodd" d="M95.6319 26.8545C97.1055 26.9025 98.6815 27.0492 98.5844 25.1906C98.4928 23.4389 96.9725 23.6264 95.6319 23.6778V26.8545ZM92.0391 20.2078C93.8428 20.2078 95.5051 20.1907 97.1669 20.2119C99.3929 20.2406 101.334 20.8356 102.222 23.2409C103.082 25.5724 102.413 27.8404 100.283 29.7581C101.225 31.2794 102.179 32.8198 103.088 34.2887C98.7659 36.5719 97.942 32.2783 96.0426 30.0011C95.9104 30.1057 95.7785 30.2106 95.6466 30.3152V34.5522H92.0391V20.2078Z" fill="#717171"/>
<mask id="mask1_321_20672" style="mask-type:alpha" maskUnits="userSpaceOnUse" x="118" y="20" width="10" height="15">
<path d="M118.529 20.4435H127.7V34.8754H118.529V20.4435Z" fill="white"/>
</mask>
<g mask="url(#mask1_321_20672)">
<path fill-rule="evenodd" clip-rule="evenodd" d="M118.529 34.8754V20.4435H127.319V23.7581H122.04C122.007 24.5532 121.983 25.1392 121.95 25.926H126.121V29.3808H122.055V31.5093H127.7V34.8754H118.529Z" fill="#717171"/>
</g>
<path fill-rule="evenodd" clip-rule="evenodd" d="M42.7461 21.0681H51.6815V24.2816H46.3547V26.4617H50.4762V29.6589H46.3736C46.3357 30.4133 46.3072 30.9785 46.271 31.7029H52.095V34.9381H42.7461V28.1164V21.0681Z" fill="#717171"/>
<path fill-rule="evenodd" clip-rule="evenodd" d="M116.686 23.163C115.813 23.8903 115.035 24.5393 114.277 25.1703C111.313 23.503 109.536 23.5612 108.236 25.3306C107.211 26.726 107.292 28.7549 108.424 30.0463C109.846 31.6686 111.638 31.6444 114.221 29.9109C115.014 30.5694 115.832 31.2476 116.642 31.9197C114.936 34.5054 112.072 35.5025 109.09 34.628C106.126 33.759 104.02 30.927 103.94 27.7037C103.862 24.5927 105.778 21.7446 108.67 20.6706C111.669 19.5564 114.647 20.4415 116.686 23.163Z" fill="#717171"/>
<path fill-rule="evenodd" clip-rule="evenodd" d="M58.052 34.9381H54.6426V21.0681H63.9915V24.2641H58.2887V26.977H62.961V30.2095H58.2941C58.21 31.8538 58.1335 33.3509 58.052 34.9381Z" fill="#717171"/>
<path fill-rule="evenodd" clip-rule="evenodd" d="M69.2619 24.3298V26.9563H73.9221V30.2484H69.2047V34.9381H65.6934V21.0681H75.0423V24.3298H69.2619Z" fill="#717171"/>
</g>
<defs>
<clipPath id="clip0_321_20672">
<rect width="114.737" height="29.4737" fill="white" transform="translate(13 15)"/>
</clipPath>
</defs>
</svg>
