<svg width="140" height="60" viewBox="0 0 140 60" fill="none" xmlns="http://www.w3.org/2000/svg">
<g clip-path="url(#clip0_321_20673)">
<path fill-rule="evenodd" clip-rule="evenodd" d="M52.7407 14C52.4551 14.4958 52.2828 15.2665 51.8657 15.443C49.1568 16.588 46.4629 17.8868 43.6317 18.5833C40.6813 19.3091 37.5863 19.4548 34.547 19.7771C31.7413 20.0746 30.8373 20.9441 30.3808 24.1751H46.3225C46.3354 24.2731 46.348 24.3708 46.3609 24.4688C45.9381 24.5918 45.5149 24.7148 45.0952 24.837C45.6524 25.8409 45.5436 27.52 47.85 26.8549C42.8023 29.898 37.5851 29.073 32.6123 29.6875C31.1448 29.869 29.6565 29.8733 28.1812 29.9987C27.8402 30.0277 27.3464 30.1194 27.2057 30.3555C26.2985 31.875 25.4697 33.4425 24.4454 35.3034H38.4363C38.4447 35.4302 38.453 35.557 38.4613 35.6841C38.097 35.7536 37.733 35.8231 37.369 35.8926C37.367 35.9342 37.365 35.9761 37.3629 36.018H42.9197C42.9375 36.1384 42.9553 36.2588 42.9734 36.3792C41.3387 36.7375 39.7041 37.0957 38.0301 37.463C38.2899 37.691 38.5891 37.9539 38.7108 38.0607C34.0064 39.3574 29.1475 40.6347 24.3332 42.0658C23.0818 42.4377 22.2562 42.1449 21.6148 41.189C20.3674 39.3298 19.2028 37.413 18.0039 35.5204V34.3571C18.1087 34.205 18.229 34.0614 18.3157 33.8997C21.4477 28.0493 24.56 22.1879 27.734 16.3611C28.0141 15.8467 28.6673 15.254 29.1909 15.2078C33.2703 14.8483 37.3592 14.584 41.4484 14.3504C44.3485 14.185 47.254 14.1134 50.157 14H52.7407Z" fill="#717171"/>
<path fill-rule="evenodd" clip-rule="evenodd" d="M73.6459 28.9198V31.2523H65.9501V33.3433C68.339 33.3433 70.686 33.4281 73.0205 33.3006C73.9233 33.2511 74.7983 32.7197 75.8994 32.3332V35.5078H62.546C63.8897 31.9804 63.8831 28.4931 62.5391 24.9246H75.5893C75.0105 26.3707 73.9931 27.0878 72.4739 27.0897C70.3169 27.0926 68.1601 27.0903 65.9472 27.0903V28.9198H73.6459Z" fill="#717171"/>
<mask id="mask0_321_20673" style="mask-type:alpha" maskUnits="userSpaceOnUse" x="107" y="24" width="15" height="13">
<path d="M107.152 24.9614H121.927V36.2313H107.152V24.9614Z" fill="white"/>
</mask>
<g mask="url(#mask0_321_20673)">
<path fill-rule="evenodd" clip-rule="evenodd" d="M110.587 36.1726H107.152C108.303 32.4491 108.381 28.7964 107.167 25.191C109.212 24.668 110.627 25.0252 111.942 26.399C113.896 28.4415 116.044 30.3024 118.35 32.4655V25.0993H121.927C121.552 26.0106 121.209 26.7426 120.953 27.5032C120.818 27.9039 120.793 28.3542 120.791 28.7826C120.776 31.2141 120.784 33.6458 120.784 36.0735C119.521 36.3878 118.61 36.2705 117.707 35.3753C115.481 33.1705 113.139 31.0818 110.587 28.7076V36.1726Z" fill="#717171"/>
</g>
<path fill-rule="evenodd" clip-rule="evenodd" d="M98.8957 27.1175C98.3018 28.1905 97.8696 28.971 97.3545 29.9013H100.495C99.9529 28.958 99.4905 28.1531 98.8957 27.1175ZM89.2578 33.3935C89.5517 33.1757 89.596 33.1171 89.6271 33.1236C92.2645 33.6707 93.515 32.1565 94.5026 29.9772C95.2846 28.2529 96.3296 26.648 97.2885 25.0085C98.0372 23.7283 99.7821 23.7197 100.521 24.9891C101.697 27.0097 102.873 29.031 103.994 31.0832C104.664 32.3095 105.251 33.5642 107.072 33.02V35.4197C106.107 35.4197 105.146 35.5172 104.221 35.375C103.811 35.312 103.289 34.8361 103.135 34.4256C102.463 32.6383 101.254 31.9764 99.4347 32.3287C99.2478 32.3649 99.0435 32.3619 98.8558 32.329C96.8153 31.9714 95.3553 32.5547 94.5702 34.6752C94.2157 35.6325 91.8891 35.7847 90.9934 35.0257C90.4067 34.5283 89.8686 33.9718 89.2578 33.3935Z" fill="#717171"/>
<path fill-rule="evenodd" clip-rule="evenodd" d="M36.3329 40.1222C35.9623 40.3879 35.5918 40.6533 35.1059 41.0018C36.3154 40.9099 37.3844 40.8285 38.4456 40.7477C38.4705 41.0069 38.51 41.1391 38.4811 41.1558C35.5234 42.8578 32.6295 44.6879 29.5738 46.1982C27.4717 47.2369 25.184 46.3025 24.4736 44.5211C23.9433 43.1905 24.3081 42.2637 25.6577 41.8415C28.1083 41.075 30.5614 40.2983 33.0559 39.6957C34.0635 39.4524 35.182 39.6556 36.2498 39.6556C36.2776 39.8111 36.3051 39.9668 36.3329 40.1222Z" fill="#717171"/>
<path fill-rule="evenodd" clip-rule="evenodd" d="M89.2608 35.5078H77.8185C78.0929 34.0618 78.468 32.6844 78.5899 31.283C78.7225 29.7599 78.62 28.2147 78.62 26.5564H75.0098C76.2203 24.1211 77.443 23.6623 80.9907 24.3057V33.1968C82.5472 33.1968 83.9499 33.3371 85.3148 33.1627C87.203 32.9214 88.1976 34.0201 89.2608 35.5078Z" fill="#717171"/>
<path fill-rule="evenodd" clip-rule="evenodd" d="M72.3343 21.6148C71.095 24.1431 70.5549 24.3986 67.8809 23.7211C68.992 21.3163 69.3967 21.1247 72.3343 21.6148Z" fill="#717171"/>
</g>
<defs>
<clipPath id="clip0_321_20673">
<rect width="104.211" height="32.6316" fill="white" transform="translate(18 14)"/>
</clipPath>
</defs>
</svg>
