<svg width="140" height="60" viewBox="0 0 140 60" fill="none" xmlns="http://www.w3.org/2000/svg">
<path d="M96.9915 38.0253C93.4359 38.0253 91.2275 36.3285 91.2275 33.5976C91.212 32.8439 91.4156 32.1019 91.8136 31.4617C92.2117 30.8215 92.787 30.3106 93.4698 29.9911C94.5201 29.5203 95.1343 29.3591 98.3294 29.0197C99.6418 28.9688 100.945 28.7745 102.215 28.4403C102.567 28.3717 102.884 28.1789 103.106 27.897C103.328 27.615 103.442 27.2626 103.426 26.9038C103.426 25.2732 102.133 24.5139 99.3542 24.5139C96.1303 24.5139 94.8467 25.3386 94.6202 27.5563H91.7798C91.8025 26.496 92.1567 25.4694 92.7928 24.6208C93.9967 23.0776 96.1626 22.2946 99.232 22.2946C101.681 22.2946 103.465 22.7001 104.683 23.5349C105.701 24.2255 106.114 25.2453 106.114 27.0557V35.4293H108.143V37.5672H104.979C104.566 37.5658 104.17 37.4007 103.879 37.1081C103.588 36.8154 103.424 36.4191 103.425 36.0062V35.4971L103.345 35.5743C102.518 36.4064 101.524 37.0547 100.429 37.4771C99.3347 37.8994 98.1633 38.0862 96.9915 38.0253ZM103.425 30.0946L103.364 30.1158C101.503 30.6805 99.5882 31.0465 97.6507 31.2077C95.0071 31.4817 94.1587 32.0188 94.1587 33.4135C94.1587 34.9796 95.3863 35.7745 97.8068 35.7745C99.4645 35.883 101.098 35.3309 102.35 34.239C102.75 33.8863 103.058 33.4404 103.245 32.9407C103.432 32.441 103.493 31.9029 103.423 31.374L103.425 30.0946ZM73.3181 37.9931C68.3865 37.9931 65.0727 34.8736 65.0727 30.2202C65.0727 25.5541 68.4883 22.2954 73.3792 22.2954C76.9645 22.2954 79.7879 23.9566 80.9298 26.7384C81.4622 28.0816 81.7081 29.5213 81.6518 30.9651H67.8172L67.8232 31.0168C68.1277 33.9336 70.3378 35.7457 73.5922 35.7457C75.9396 35.7457 77.5185 34.8244 78.2854 33.0063H81.3591C79.8719 36.3625 77.2419 37.9931 73.3181 37.9931ZM73.347 24.5148C72.0939 24.4535 70.8599 24.8397 69.8653 25.6043C68.8707 26.3689 68.1803 27.4622 67.9173 28.6888L67.9029 28.7482H78.7648L78.7512 28.6888C78.4997 27.4611 77.8159 26.3645 76.8241 25.5984C75.8323 24.8324 74.5984 24.4478 73.347 24.5148ZM113.136 37.6003H110.297V22.6916H113.138V24.8864L113.216 24.8075C115.146 22.9292 116.604 22.2954 118.994 22.2954C120.664 22.2301 122.3 22.7778 123.593 23.8352C124.619 24.7456 125 25.8994 125 28.0907V37.5969H122.158V28.3045C122.158 26.8097 121.924 26.1836 121.113 25.5278C120.339 24.9408 119.384 24.6452 118.414 24.693C115.502 24.693 113.132 26.5849 113.132 28.9103V37.5977L113.136 37.6003ZM89.636 37.6003H85.8479C85.3998 37.5974 84.9711 37.4173 84.6553 37.0994C84.3394 36.7815 84.1622 36.3516 84.1622 35.9035V19.8953H81.5313V17.3969H85.3168C85.7649 17.3991 86.1938 17.579 86.5094 17.8971C86.8249 18.2152 87.0014 18.6455 87 19.0936V35.0992H89.63V37.5986L89.636 37.6003ZM74.5992 20.9227H72.3934L74.1504 17.3969H78.0072L74.5992 20.9219V20.9227Z" fill="#717171"/>
<path d="M30.3102 52.7627H28.7305L28.5718 49.1817C24.4227 47.998 20.7643 45.5114 18.1367 42.0892C15.4538 38.5852 14 34.2949 14 29.8818C14 25.4686 15.4538 21.1784 18.1367 17.6744C20.7639 14.2515 24.4224 11.7645 28.5718 10.581L28.7305 7H30.3102L30.4493 10.1501C33.3272 9.63391 36.2834 9.75784 39.108 10.513C41.9325 11.2682 44.5562 12.6361 46.7925 14.5196C49.0288 16.4031 50.8229 18.7559 52.0474 21.4109C53.2719 24.0659 53.8967 26.958 53.8774 29.8818V29.8953C53.8729 30.2705 53.7202 30.6285 53.4524 30.8913C53.1847 31.1541 52.8239 31.3002 52.4487 31.2977H38.3596C38.1063 31.2977 37.8531 31.3113 37.6012 31.3384C37.1093 31.3881 36.6238 31.4879 36.1521 31.6362C35.9215 31.7089 35.695 31.7939 35.4734 31.8907C34.1252 32.4659 32.976 33.425 32.1689 34.6486C31.3618 35.8722 30.9325 37.3062 30.9346 38.772L30.5799 46.757C31.6869 46.9788 32.8131 47.0907 33.9421 47.0912C41.2323 47.0912 48.3264 42.504 50.8122 36.1844H52.8509C51.5519 40.1336 49.0555 43.5804 45.7083 46.046C42.3068 48.575 38.179 49.9368 33.9404 49.9282C32.7703 49.9255 31.6027 49.8202 30.451 49.6135L30.3119 52.7627H30.3102ZM16.8879 31.2994C17.1568 34.6336 18.3929 37.8168 20.4447 40.4586C22.4965 43.1003 25.2747 45.0859 28.4386 46.1716L28.1094 38.7694C28.11 38.0171 27.9973 37.2689 27.7752 36.5501C27.453 35.5176 26.9092 34.5679 26.1819 33.7674C26.0231 33.5892 25.8551 33.4193 25.6788 33.2583C24.5368 32.2083 23.0941 31.5431 21.554 31.3563C21.2649 31.3203 20.974 31.3014 20.6827 31.2994H16.8879ZM29.5203 26.1879C28.6305 27.7124 27.3657 28.9839 25.846 29.8818C27.3653 30.7801 28.63 32.0516 29.5203 33.5756C30.4103 32.0511 31.6755 30.7795 33.1955 29.8818C31.6751 28.9846 30.4098 27.7129 29.5203 26.1879ZM33.9404 12.6731C32.8112 12.6741 31.6849 12.7878 30.5782 13.0125L30.9329 20.9966C30.9296 21.9748 31.1193 22.9439 31.4909 23.8487C31.8626 24.7534 32.409 25.5761 33.0988 26.2695C33.7887 26.9629 34.6085 27.5135 35.5113 27.8898C36.4142 28.266 37.3824 28.4606 38.3605 28.4624H50.9929C50.6314 24.1781 48.682 20.1835 45.5272 17.2624C42.3723 14.3413 38.2398 12.7045 33.9404 12.6731ZM28.4386 13.5911C25.2746 14.6769 22.4963 16.6625 20.4445 19.3045C18.3927 21.9464 17.1566 25.1298 16.8879 28.4641H20.681C21.778 28.4642 22.8614 28.2202 23.8524 27.7497C24.8435 27.2793 25.7175 26.5942 26.411 25.7442C27.5081 24.4039 28.1076 22.7253 28.1078 20.9932L28.4386 13.5911Z" fill="#717171"/>
</svg>
