<svg width="140" height="60" viewBox="0 0 140 60" fill="none" xmlns="http://www.w3.org/2000/svg">
<g clip-path="url(#clip0_321_20674)">
<path fill-rule="evenodd" clip-rule="evenodd" d="M35.7693 43.4572V28.4097C34.5177 28.2635 33.5234 28.1475 31.9746 27.9665C33.5572 26.8448 34.864 25.9185 36.1709 24.9922C35.9906 24.7992 35.8104 24.6062 35.6301 24.4132C35.7549 23.5773 35.8796 22.7413 36.0224 21.7848C36.9335 21.6872 37.7723 21.5974 38.7876 21.4886C41.0019 19.4033 43.3188 17.2215 45.6778 14.9999H52.5123C49.0099 18.442 45.8229 21.574 42.5647 24.7761C45.1191 27.728 50.8174 33.6767 50.8174 33.6767V21.7468H55.8068V43.4438H51.7645C48.5413 39.8198 45.1447 36.0005 41.7479 32.1813C41.5418 32.2543 41.3356 32.3274 41.1294 32.4004V43.4572H35.7693Z" fill="#717171"/>
<path fill-rule="evenodd" clip-rule="evenodd" d="M85.8574 44.4735V22.1501H89.6419C92.1532 25.9055 94.7421 29.7772 97.5739 34.0124C100.709 30.0939 102.984 25.9465 105.727 22.1142H109.69V44.4631H104.343V34.406C104.148 34.3323 103.954 34.2587 103.76 34.1852C102.265 36.392 100.77 38.599 99.234 40.8674H96.1389C94.656 38.6702 93.1017 36.3672 91.5474 34.0643C91.3621 34.1117 91.1767 34.159 90.9916 34.2063V44.4735H85.8574Z" fill="#717171"/>
<mask id="mask0_321_20674" style="mask-type:alpha" maskUnits="userSpaceOnUse" x="112" y="21" width="25" height="24">
<path d="M112.904 21.1727H136.608V44.4736H112.904V21.1727Z" fill="white"/>
</mask>
<g mask="url(#mask0_321_20674)">
<path fill-rule="evenodd" clip-rule="evenodd" d="M124.681 26.2175C121.223 26.2732 118.306 29.4042 118.394 32.9661C118.482 36.541 121.558 39.5654 124.968 39.429C128.314 39.2951 131.139 36.2616 131.131 32.8111C131.123 29.2454 128.107 26.1623 124.681 26.2175ZM124.648 21.1727C131.732 21.3798 136.503 26.2041 136.607 32.7687C136.711 39.2966 131.425 44.4575 124.756 44.4736C118.283 44.4891 113.042 39.416 112.907 33.0039C112.771 26.5253 118 21.2558 124.648 21.1727Z" fill="#717171"/>
</g>
<path fill-rule="evenodd" clip-rule="evenodd" d="M73.633 35.7241C72.6297 33.2193 72.2284 30.9321 70.5895 28.7697C69.6805 31.2536 68.9155 33.3437 68.0442 35.7241H73.633ZM66.0498 40.9339C65.5172 42.1728 65.0372 43.2894 64.5283 44.4735H58.916C62.0523 36.8845 65.0882 29.5383 68.1567 22.1142H73.5139C76.52 29.391 79.5869 36.8146 82.7483 44.4669H77.1917C76.651 43.2929 76.1408 42.185 75.5645 40.9339H66.0498Z" fill="#717171"/>
<path fill-rule="evenodd" clip-rule="evenodd" d="M3.99805 22.1142H20.577V26.6439H9.52572V31.8206H18.8791V36.627H9.42366C9.30133 39.3336 9.18818 41.8363 9.06904 44.4735H3.99805V22.1142Z" fill="#717171"/>
<path fill-rule="evenodd" clip-rule="evenodd" d="M21.4843 43.4572H14.3613C19.1575 38.8233 23.5772 34.5531 28.0363 30.2449H35.085C30.3671 34.8281 25.9115 39.1565 21.4843 43.4572Z" fill="#717171"/>
</g>
<defs>
<clipPath id="clip0_321_20674">
<rect width="132.632" height="29.4737" fill="white" transform="translate(4 15)"/>
</clipPath>
</defs>
</svg>
