<svg width="140" height="60" viewBox="0 0 140 60" fill="none" xmlns="http://www.w3.org/2000/svg">
<path d="M43.8913 31.6801H49.0697C48.6792 33.5986 47.2021 34.9229 45.1308 34.9229C42.6689 34.9229 41.056 33.0723 41.056 30.5765C41.056 28.0467 42.7708 26.1961 45.2496 26.1961C46.8625 26.1961 48.1189 27.0111 48.7301 27.9788L50.1563 26.7224C49.2565 25.3642 47.3549 24.3624 45.1817 24.3624C41.5483 24.3624 39.0695 27.1129 39.0695 30.5425C39.0695 34.0231 41.5823 36.7566 45.1647 36.7566C48.5943 36.7566 51.158 34.2608 51.158 29.9313H43.8913V31.6801Z" fill="#717171"/>
<path d="M53.7572 26.6715C54.3853 26.6715 54.8947 26.1621 54.8947 25.5339C54.8947 24.8888 54.3853 24.3794 53.7572 24.3794C53.112 24.3794 52.6026 24.8888 52.6026 25.5339C52.6026 26.1621 53.112 26.6715 53.7572 26.6715ZM52.7724 27.7751V36.5868H54.7249V27.7751H52.7724Z" fill="#717171"/>
<path d="M60.5043 25.3642C60.8608 25.3642 61.2343 25.4321 61.5909 25.5339V23.955C61.2004 23.8361 60.691 23.7343 60.1647 23.7343C58.6706 23.7343 57.3124 24.5492 57.3124 26.7564V27.7751H56.2597V29.3031H57.3124V36.5868H59.2479V29.3031H61.5569V27.7751H59.2479V27.028C59.129 25.7886 59.6554 25.3642 60.5043 25.3642Z" fill="#717171"/>
<path d="M65.6527 27.7751V25.2114H63.7171V27.7751H62.3419V29.3031H63.7171V36.5868H65.6527V29.3031H67.6052V27.7751H65.6527Z" fill="#717171"/>
<path d="M72.6656 27.5883C70.034 27.5883 68.1494 29.5748 68.1494 32.1894C68.1494 34.9399 70.1189 36.7566 72.8014 36.7566C74.8728 36.7566 76.5027 35.5002 76.9781 33.9212L75.2633 33.7344C74.8898 34.4985 74.0748 35.1436 72.8184 35.1436C71.3583 35.1436 70.2207 34.1928 70.1019 32.8176H77.1818C77.2667 29.4559 75.3482 27.5883 72.6656 27.5883ZM72.6656 29.1673C74.1088 29.1673 75.1274 30.1011 75.1784 31.3405H70.1019C70.2038 30.0841 71.2734 29.1673 72.6656 29.1673Z" fill="#717171"/>
<path d="M86.0201 29.388C85.3409 28.2335 84.1185 27.5883 82.7942 27.5883C80.0777 27.5883 78.3629 29.5408 78.3629 32.1555C78.3629 34.7022 80.0098 36.7566 82.6923 36.7566C84.3052 36.7566 85.5277 35.9925 86.0201 34.7871V36.5868H87.9556V23.8531H86.0201V29.388ZM83.1847 35.0078C81.5208 35.0078 80.3323 33.8363 80.3323 32.1724C80.3323 30.5255 81.5208 29.354 83.1847 29.354C84.8316 29.354 86.0031 30.5765 86.0031 32.1724C86.0031 33.7854 84.8316 35.0078 83.1847 35.0078Z" fill="#717171"/>
<path d="M94.8009 27.5883C93.4426 27.5883 92.4748 28.1656 91.9146 29.1843V23.8531H89.9621V36.5868H91.9146V31.8499C91.9146 30.169 92.8144 29.2692 94.2236 29.2692C95.3272 29.2692 96.3968 29.8294 96.3968 31.714V36.5868H98.3663V31.4254C98.3663 28.7259 96.6685 27.5883 94.8009 27.5883Z" fill="#717171"/>
<path d="M107.508 29.4559V29.388C106.829 28.2335 105.607 27.5883 104.282 27.5883C101.566 27.5883 99.8509 29.5408 99.8509 32.1555C99.8509 34.7022 101.498 36.7566 104.18 36.7566C105.793 36.7566 107.016 35.9925 107.508 34.7871V36.5868H109.461V27.7751H107.814L107.508 29.4559ZM104.673 35.0078C103.009 35.0078 101.82 33.8363 101.82 32.1724C101.82 30.5255 103.009 29.354 104.673 29.354C106.32 29.354 107.491 30.5765 107.491 32.1724C107.491 33.7854 106.32 35.0078 104.673 35.0078Z" fill="#717171"/>
<path d="M116.356 27.5883C114.947 27.5883 113.962 28.1995 113.419 29.2522L113.147 27.7751H111.483V36.5868H113.453V31.8499C113.453 30.169 114.37 29.2692 115.762 29.2692C116.865 29.2692 117.935 29.8294 117.935 31.714V36.5868H119.905V31.4254C119.905 28.7259 118.224 27.5883 116.356 27.5883Z" fill="#717171"/>
<path d="M129.046 29.388C128.367 28.2335 127.144 27.5883 125.82 27.5883C123.104 27.5883 121.389 29.5408 121.389 32.1555C121.389 34.7022 123.036 36.7566 125.718 36.7566C127.331 36.7566 128.554 35.9925 129.046 34.7871V36.5868H130.981V23.8531H129.046V29.388ZM126.211 35.0078C124.547 35.0078 123.358 33.8363 123.358 32.1724C123.358 30.5255 124.547 29.354 126.211 29.354C127.857 29.354 129.029 30.5765 129.029 32.1724C129.029 33.7854 127.857 35.0078 126.211 35.0078Z" fill="#717171"/>
<path d="M136.35 36.7566C138.489 36.7566 140 35.8058 140 34.091C140 30.7463 134.703 31.7989 134.703 30.0671C134.703 29.4559 135.348 29.0824 136.163 29.0824C137.131 29.0824 137.742 29.6087 137.844 30.3558L139.694 30.3048C139.626 28.7768 138.2 27.6053 136.18 27.6053C134.312 27.6053 132.818 28.59 132.818 30.203C132.818 33.4118 138.047 32.4101 138.047 34.1759C138.047 34.838 137.385 35.2285 136.418 35.2285C135.28 35.2285 134.431 34.7022 134.329 33.7854L132.428 33.8533C132.53 35.8737 134.312 36.7566 136.35 36.7566Z" fill="#717171"/>
<path fill-rule="evenodd" clip-rule="evenodd" d="M17.69 15.4569C17.69 16.6215 16.8797 17.5969 15.7922 17.85L16.0294 22.8316C16.0912 22.8291 16.1534 22.8278 16.2159 22.8278C17.6304 22.8278 18.8899 23.4919 19.6994 24.5254L24.5709 22.2521C24.6153 20.9342 25.6977 19.8795 27.0264 19.8795C28.3834 19.8795 29.4834 20.9795 29.4834 22.3364C29.4834 23.6933 28.3834 24.7933 27.0264 24.7933C25.9941 24.7933 25.1104 24.1567 24.7468 23.2545L20.2188 25.3676C20.4879 25.9388 20.6384 26.577 20.6384 27.2503C20.6384 28.7836 19.858 30.1347 18.6728 30.9281V34.6703C18.8316 34.6381 18.9959 34.6211 19.1642 34.6211C20.5211 34.6211 21.6211 35.7211 21.6211 37.0781C21.6211 37.2464 21.6042 37.4107 21.572 37.5694H23.6358C23.8635 36.448 24.855 35.6039 26.0436 35.6039C27.4006 35.6039 28.5006 36.7039 28.5006 38.0609C28.5006 39.4178 27.4006 40.5178 26.0436 40.5178C24.855 40.5178 23.8635 39.6737 23.6358 38.5522H21.1299C20.6817 39.149 19.968 39.535 19.1642 39.535C18.8197 39.535 18.4917 39.4641 18.1941 39.3361L15.2503 42.5064C15.5484 42.913 15.7245 43.4147 15.7245 43.9575C15.7245 45.3145 14.6244 46.4145 13.2675 46.4145C11.9106 46.4145 10.8106 45.3145 10.8106 43.9575C10.8106 42.6006 11.9106 41.5006 13.2675 41.5006C13.7263 41.5006 14.1557 41.6263 14.5231 41.8452L17.3806 38.7679C16.9633 38.3275 16.7072 37.7327 16.7072 37.0781C16.7072 36.2743 17.0933 35.5606 17.69 35.1123V31.4212C17.2289 31.5841 16.7327 31.6728 16.2159 31.6728C15.5727 31.6728 14.9616 31.5355 14.4103 31.2886L11.0084 36.2606C11.4913 36.7092 11.7933 37.3498 11.7933 38.0609C11.7933 39.4178 10.6933 40.5178 9.3364 40.5178C7.97946 40.5178 6.87945 39.4178 6.87945 38.0609C6.87945 37.9724 6.88413 37.8849 6.89326 37.7988L4.15642 35.9041C3.71511 36.3269 3.11636 36.5867 2.45695 36.5867C1.10001 36.5867 0 35.4867 0 34.1297C0 32.7728 1.10001 31.6728 2.45695 31.6728C3.81388 31.6728 4.91389 32.7728 4.91389 34.1297C4.91389 34.473 4.84351 34.7998 4.7164 35.0965L7.21264 36.8246C7.63855 36.0945 8.43018 35.6039 9.3364 35.6039C9.62834 35.6039 9.90838 35.6548 10.1681 35.7483L13.5618 30.7882C12.4879 29.9814 11.7933 28.6969 11.7933 27.2503C11.7933 26.6613 11.9085 26.0993 12.1174 25.5854L7.05475 23.1746C6.61872 23.5698 6.04012 23.8106 5.40528 23.8106C4.04835 23.8106 2.94834 22.7106 2.94834 21.3536C2.94834 19.9967 4.04835 18.8967 5.40528 18.8967C6.76222 18.8967 7.86223 19.9967 7.86223 21.3536C7.86223 21.7149 7.78427 22.0579 7.64426 22.3668L12.5877 24.7208C13.1728 23.8831 14.0406 23.2575 15.0527 22.9823L14.8096 17.8775C13.6545 17.6769 12.7761 16.6695 12.7761 15.4569C12.7761 14.1 13.8761 13 15.2331 13C16.59 13 17.69 14.1 17.69 15.4569Z" fill="#717171"/>
</svg>
