<svg width="140" height="60" viewBox="0 0 140 60" fill="none" xmlns="http://www.w3.org/2000/svg">
<path d="M7.66161 29.208V31.238H13.8638V33.732C13.8638 36.951 13.0219 37.415 9.14903 37.415H7.07226C3.45194 37.415 2.18904 36.574 2.18904 32.717V26.25C2.18904 21.871 2.83451 21.001 7.01613 21.001H9.73839C12.9097 21.001 13.8077 21.581 13.8077 23.872V25.032H15.9968V23.466C15.9968 20.218 13.7516 19 10.8048 19H5.6971C2.38549 19 0 20.537 0 25.989V32.2241C0 38.43 2.27323 39.445 7.46516 39.445H9.59806C14.0042 39.445 16.0529 38.3141 16.0529 33.587V29.208H7.66161Z" fill="#717171"/>
<path d="M34.7339 39.271V37.27H34.3129C33.1062 37.27 32.9938 36.574 32.9938 35.791V33.21C32.9938 30.484 32.0958 29.527 30.3277 29.382V29.295C32.2641 29.121 33.2464 27.323 33.2464 24.365C33.2464 21.813 32.3765 19.145 28.6158 19.145H18.709V39.271H20.8981V30.281H27.9142C30.5803 30.281 30.8049 31.2091 30.8049 33.761V34.631C30.8049 37.2991 30.7206 39.271 33.7796 39.271H34.7339ZM31.0574 24.655C31.0574 28.077 29.991 28.28 26.8477 28.28H20.8981V21.146H27.6616C30.3839 21.146 31.0574 22.103 31.0574 24.655Z" fill="#717171"/>
<path d="M38.3948 21.1751H48.6944V19.1451H36.1777V39.271H48.6944V37.2701H38.3948V29.8751H48.2454V28.0191H38.3948V21.1751Z" fill="#717171"/>
<path d="M52.9202 21.175H63.2199V19.145H50.7031V39.271H63.2199V37.27H52.9202V29.875H62.7708V28.019H52.9202V21.175Z" fill="#717171"/>
<path d="M82.7143 19.1451H80.5252V37.5311H80.4691L69.552 19.1451H65.9316V39.271H68.1487V21.0301H68.1768L79.122 39.271H82.7143V19.1451Z" fill="#717171"/>
<path d="M102.123 19.145H99.9055V28.019H88.5113V19.145H86.3223V39.271H88.5113V30.02H99.9055V39.271H102.123V19.145Z" fill="#717171"/>
<path d="M119.026 19.1451V33.6451C119.026 37.386 117.455 37.4151 113.526 37.4151C108.783 37.4151 108.025 36.9221 108.025 33.6451V19.1451H105.836V33.6451C105.836 39.3291 109.288 39.4451 113.526 39.4451C118.129 39.4451 121.244 39.0391 121.244 33.6451V19.1451H119.026Z" fill="#717171"/>
<path d="M126.874 29.9331H134.114C137.033 29.9331 137.426 31.2381 137.426 33.8771C137.426 36.9511 136.247 37.2701 133.862 37.2701H126.874V29.9331ZM135.013 39.271C138.324 39.271 139.615 37.2991 139.615 33.6741C139.615 31.1801 139.194 29.2371 136.613 28.7441V28.7151C138.633 28.0191 139.054 26.5691 139.054 24.4521C139.054 20.9431 138.184 19.1451 134.535 19.1451H124.656V39.271H135.013ZM126.874 21.1751H133.525C135.827 21.1751 136.836 21.4651 136.836 24.1621C136.836 27.2941 135.939 27.9321 133.3 27.9321H126.874V21.1751Z" fill="#717171"/>
</svg>
