<svg width="140" height="60" viewBox="0 0 140 60" fill="none" xmlns="http://www.w3.org/2000/svg">
<path d="M21.4102 39.0671V20H25.7876V39.0671H21.4102Z" fill="#717171"/>
<path d="M37.3415 39.0668V30.5049C37.3415 29.4119 37.1426 28.671 36.7446 28.2946C36.3466 27.9059 35.656 27.7238 34.6962 27.7238C32.566 27.7238 31.5126 28.8046 31.5126 30.9664V39.0668H27.416V24.9426H31.3254V27.0072C31.8052 26.2057 32.449 25.5985 33.2449 25.1855C34.0409 24.7726 35.0708 24.5662 36.3349 24.5662C37.0723 24.5662 37.7512 24.6633 38.3832 24.8698C39.0152 25.0762 39.5537 25.3677 40.0101 25.7685C40.4667 26.1692 40.8178 26.6672 41.0869 27.2501C41.3445 27.8331 41.4849 28.5132 41.4849 29.2783V39.0668H37.3415Z" fill="#717171"/>
<path d="M57.2483 33.5776C57.1429 34.4033 56.8855 35.1442 56.4758 35.8121C56.0662 36.4801 55.5394 37.0509 54.9191 37.5366C54.287 38.0103 53.573 38.3868 52.7537 38.654C51.9461 38.9211 51.0683 39.0547 50.1202 39.0547C49.0669 39.0547 48.1071 38.8968 47.2292 38.5811C46.3514 38.2653 45.6023 37.7917 44.9702 37.1481C44.3382 36.5044 43.8466 35.7149 43.5071 34.7677C43.156 33.8204 42.9922 32.7152 42.9922 31.4522C42.9922 30.1892 43.1677 29.0962 43.5071 28.1732C43.8583 27.2502 44.3382 26.4972 44.9702 25.9143C45.6023 25.3313 46.363 24.8941 47.2527 24.6027C48.1422 24.3112 49.1371 24.1776 50.2373 24.1776C51.2439 24.1776 52.1686 24.2991 52.9995 24.5541C53.8306 24.8091 54.5563 25.1613 55.1767 25.6471C55.7969 26.1207 56.2885 26.7037 56.6397 27.3716C57.0025 28.0396 57.2132 28.7926 57.2717 29.6062H53.1401C53.0347 28.8776 52.7186 28.3068 52.1802 27.8939C51.6419 27.4809 50.9864 27.2745 50.2139 27.2745C49.7691 27.2745 49.3594 27.3473 48.9849 27.4809C48.6103 27.6145 48.2709 27.8453 47.99 28.161C47.7091 28.4768 47.475 28.9019 47.3112 29.4241C47.1472 29.9463 47.0536 30.6021 47.0536 31.3672C47.0536 32.9218 47.358 34.0633 47.9666 34.8163C48.5752 35.5571 49.2775 35.9336 50.0851 35.9336C50.881 35.9336 51.5716 35.7271 52.1334 35.3264C52.707 34.9256 53.023 34.3426 53.1166 33.5776H57.2483Z" fill="#717171"/>
<path d="M58.4434 39.0668V24.9426H62.2942V26.6307C62.6336 26.1571 62.9847 25.7806 63.3476 25.5134C63.7105 25.2463 64.0967 25.0398 64.4829 24.8941C64.8693 24.7483 65.2671 24.6633 65.6651 24.6269C66.0631 24.5905 66.4728 24.5662 66.8941 24.5662H67.4325V28.3796C67.0579 28.3188 66.6717 28.2946 66.2972 28.2946C63.7924 28.2946 62.54 29.4361 62.54 31.7072V39.0668H58.4434Z" fill="#717171"/>
<path d="M71.3739 32.6062C71.4325 33.6748 71.7836 34.525 72.4039 35.1565C73.0243 35.788 73.8436 36.1038 74.8502 36.1038C75.5173 36.1038 76.1142 35.9702 76.6293 35.6909C77.1443 35.4116 77.472 35.0229 77.6241 34.525H81.8495C81.3696 35.9823 80.5269 37.0997 79.3214 37.889C78.1274 38.6784 76.6878 39.067 75.0257 39.067C69.8523 39.067 67.2656 36.5046 67.2656 31.3674C67.2656 30.2744 67.4295 29.2907 67.7689 28.4041C68.1084 27.5297 68.5882 26.7646 69.232 26.1331C69.8757 25.5016 70.6599 25.0158 71.5846 24.6879C72.5092 24.3478 73.5744 24.1899 74.7682 24.1899C77.1677 24.1899 78.9819 24.8943 80.2109 26.291C81.4398 27.6876 82.0602 29.7886 82.0602 32.6062H71.3739ZM77.8465 30.2501C77.8232 29.7279 77.7295 29.2785 77.5422 28.8899C77.3666 28.5013 77.1208 28.1734 76.8282 27.9183C76.5357 27.6633 76.1962 27.469 75.8217 27.3475C75.4471 27.2261 75.0491 27.1654 74.6511 27.1654C73.8318 27.1654 73.1179 27.4326 72.5209 27.9791C71.924 28.5256 71.5846 29.2907 71.491 30.2622H77.8465V30.2501Z" fill="#717171"/>
<path d="M93.2045 38.6903C93.0758 38.326 92.9938 37.9009 92.947 37.4273C92.4672 37.9252 91.8234 38.326 91.0275 38.6174C90.2315 38.9089 89.3069 39.0668 88.2535 39.0668C86.4627 39.0668 85.1518 38.7025 84.3207 37.986C83.4897 37.2695 83.0801 36.3343 83.0801 35.1805C83.0801 34.1604 83.2556 33.3588 83.6185 32.7517C83.9814 32.1444 84.4729 31.6707 85.105 31.3307C85.737 30.9907 86.4861 30.7357 87.364 30.5656C88.2418 30.4077 89.1899 30.2498 90.2199 30.1163C91.2499 29.9827 91.9405 29.8005 92.3032 29.5819C92.6661 29.3633 92.8417 28.999 92.8417 28.501C92.8417 28.0395 92.6076 27.6873 92.1277 27.4202C91.6595 27.1651 91.0157 27.0315 90.2199 27.0315C89.2718 27.0315 88.5929 27.2258 88.1833 27.6023C87.7736 27.991 87.5161 28.4889 87.4107 29.1204H83.595C83.6185 28.3917 83.7472 27.7238 83.993 27.1044C84.2388 26.4972 84.6251 25.9628 85.1634 25.5256C85.7019 25.0884 86.4042 24.7483 87.2586 24.5055C88.1247 24.2626 89.1664 24.1411 90.4188 24.1411C91.6361 24.1411 92.6778 24.2626 93.5205 24.5176C94.3749 24.7726 95.0538 25.1248 95.5689 25.5985C96.0838 26.0721 96.4584 26.6551 96.6924 27.3473C96.9266 28.0517 97.0437 28.8411 97.0437 29.7155V38.6418H93.2045V38.6903ZM92.9236 31.7679C92.7129 31.9622 92.4086 32.108 92.0107 32.2295C91.6127 32.3387 91.0275 32.4723 90.2784 32.6059C89.0962 32.8124 88.2886 33.0796 87.8438 33.4074C87.3991 33.7353 87.1767 34.1968 87.1767 34.8162C87.1767 35.8728 87.8438 36.395 89.1664 36.395C89.6932 36.395 90.1848 36.31 90.6295 36.1521C91.086 35.9942 91.4723 35.7635 91.7999 35.4963C92.1277 35.217 92.3852 34.889 92.5842 34.5247C92.7832 34.1483 92.8885 33.7597 92.8885 33.3346L92.9236 31.7679Z" fill="#717171"/>
<path d="M108.163 28.8417C108.058 28.1494 107.789 27.6637 107.345 27.3965C106.899 27.1171 106.21 26.9836 105.261 26.9836C104.477 26.9836 103.88 27.0807 103.458 27.2507C103.037 27.4329 102.826 27.7365 102.826 28.1494C102.826 28.5745 103.037 28.8903 103.458 29.1089C103.88 29.3275 104.512 29.5461 105.354 29.7525C106.233 29.9833 107.075 30.1897 107.882 30.3719C108.679 30.5541 109.381 30.7484 110.002 30.9548C110.82 31.2585 111.452 31.6835 111.898 32.2057C112.342 32.728 112.564 33.4566 112.564 34.3796C112.564 35.8491 111.991 37.0028 110.844 37.8287C109.697 38.6545 108.011 39.0674 105.776 39.0674C103.377 39.0674 101.539 38.606 100.275 37.6951C98.9992 36.7721 98.3437 35.5941 98.3086 34.161H102.534C102.534 34.829 102.815 35.3512 103.388 35.7155C103.961 36.0799 104.746 36.2621 105.753 36.2621C106.49 36.2621 107.134 36.1527 107.672 35.9342C108.222 35.7155 108.491 35.339 108.491 34.8047C108.491 34.3068 108.246 33.9546 107.755 33.7481C107.263 33.5416 106.677 33.3594 105.999 33.2016C104.699 32.9102 103.646 32.6551 102.838 32.4244C102.042 32.1936 101.363 31.9143 100.813 31.5864C100.076 31.1613 99.5726 30.6876 99.2801 30.1533C98.9992 29.6189 98.8586 29.036 98.8586 28.4045C98.8586 27.8094 98.9757 27.2507 99.2098 26.7407C99.4439 26.2185 99.8185 25.7812 100.345 25.4048C100.872 25.0283 101.551 24.7368 102.382 24.5303C103.213 24.3239 104.219 24.2146 105.39 24.2146C107.637 24.2146 109.299 24.6032 110.364 25.3926C111.429 26.182 112.014 27.3358 112.12 28.866H108.163V28.8417Z" fill="#717171"/>
<path d="M121.356 39.067C120.092 39.067 118.969 38.8849 117.984 38.5206C117.001 38.1562 116.159 37.6462 115.48 37.0025C114.801 36.3467 114.274 35.5694 113.923 34.6464C113.56 33.7234 113.385 32.7276 113.385 31.6346C113.385 30.5294 113.572 29.5093 113.935 28.5863C114.298 27.6633 114.837 26.886 115.527 26.2302C116.217 25.5744 117.06 25.0765 118.032 24.7243C119.015 24.3721 120.115 24.1899 121.356 24.1899C122.573 24.1899 123.674 24.3721 124.633 24.7243C125.604 25.0765 126.424 25.5744 127.115 26.2181C127.794 26.8618 128.32 27.639 128.694 28.562C129.058 29.485 129.244 30.5051 129.244 31.6346C129.244 32.764 129.058 33.7842 128.694 34.695C128.331 35.6059 127.805 36.3831 127.115 37.0389C126.435 37.6947 125.604 38.1926 124.621 38.5448C123.638 38.8849 122.55 39.067 121.356 39.067ZM121.356 35.9338C123.86 35.9338 125.113 34.5007 125.113 31.6224C125.113 28.7685 123.86 27.3475 121.356 27.3475C118.851 27.3475 117.599 28.7685 117.599 31.6224C117.599 34.5007 118.851 35.9338 121.356 35.9338Z" fill="#717171"/>
<path d="M130.721 39.0668V24.9426H134.571V26.6307C134.911 26.1571 135.262 25.7806 135.625 25.5134C135.987 25.2463 136.373 25.0398 136.76 24.8941C137.146 24.7483 137.544 24.6633 137.942 24.6269C138.34 24.5905 138.749 24.5662 139.171 24.5662H139.709V28.3796C139.335 28.3188 138.948 28.2946 138.574 28.2946C136.069 28.2946 134.817 29.4361 134.817 31.7072V39.0668H130.721Z" fill="#717171"/>
<path d="M4.47114 31.2094H0V39.0669H4.47114V31.2094Z" fill="#717171"/>
<path d="M11.5883 25.6111H7.11719V39.0673H11.5883V25.6111Z" fill="#717171"/>
<path d="M18.7036 21.9187H14.2324V39.0669H18.7036V21.9187Z" fill="#717171"/>
</svg>
