<svg width="140" height="60" viewBox="0 0 140 60" fill="none" xmlns="http://www.w3.org/2000/svg">
<path d="M12.233 18.87C11.6853 18.5549 11 18.9476 11 19.5764V24.6741C11 25.2567 11.3124 25.7952 11.8198 26.087L25.0957 33.7243C26.7928 34.7006 28.8857 34.7006 30.5828 33.7243L43.8587 26.087C44.3661 25.7952 44.6785 25.2567 44.6785 24.6741V19.5764C44.6785 18.9476 43.9931 18.5549 43.4455 18.87L29.7597 26.743C28.5718 27.4264 27.1067 27.4264 25.9187 26.743L12.233 18.87Z" fill="#717171"/>
<path d="M12.2349 28.6706C11.6873 28.3537 11 28.7462 11 29.376V34.2822C11 34.8632 11.3107 35.4004 11.8159 35.6929L20.7175 40.8457C21.2651 41.1626 21.9524 40.7701 21.9524 40.1403V35.2341C21.9524 34.6531 21.6416 34.1158 21.1364 33.8234L12.2349 28.6706Z" fill="#717171"/>
<path d="M43.4438 28.6706C43.9914 28.3537 44.6787 28.7462 44.6787 29.376V34.2822C44.6787 34.8632 44.3679 35.4004 43.8628 35.6929L34.9613 40.8457C34.4136 41.1626 33.7264 40.7701 33.7264 40.1403V35.2341C33.7264 34.6531 34.0371 34.1158 34.5423 33.8234L43.4438 28.6706Z" fill="#717171"/>
<path d="M53.4406 39.2476C53.4406 39.5482 53.6857 39.7918 53.9882 39.7918H56.3703C56.6727 39.7918 56.9179 39.5482 56.9179 39.2476V29.274C56.9179 28.9853 57.3109 28.8954 57.4379 29.1551L62.4907 39.4855C62.5823 39.6729 62.7736 39.7918 62.9832 39.7918H63.6121C63.8217 39.7918 64.0129 39.6729 64.1046 39.4855L69.1575 29.1551C69.2845 28.8954 69.6773 28.9853 69.6773 29.274V39.2476C69.6773 39.5482 69.9225 39.7918 70.225 39.7918H72.6073C72.9099 39.7918 73.1551 39.5482 73.1551 39.2476V20.7453C73.1551 20.4448 72.9099 20.2011 72.6073 20.2011H70.1531C69.9459 20.2011 69.7559 20.3179 69.6634 20.5027L63.5428 32.718C63.442 32.9191 63.1533 32.9191 63.0526 32.718L56.9321 20.5027C56.8396 20.3179 56.6496 20.2011 56.4419 20.2011H53.9882C53.6857 20.2011 53.4406 20.4448 53.4406 20.7453V39.2476Z" fill="#717171"/>
<path d="M77.2715 22.514C77.2715 22.8145 77.5167 23.0581 77.8192 23.0581H80.4472C80.7497 23.0581 80.9949 22.8145 80.9949 22.514V20.3372C80.9949 20.0367 80.7497 19.793 80.4472 19.793H77.8192C77.5167 19.793 77.2715 20.0367 77.2715 20.3372V22.514ZM77.2715 39.2477C77.2715 39.5482 77.5167 39.7918 77.8192 39.7918H80.4472C80.7497 39.7918 80.9949 39.5482 80.9949 39.2477V25.643C80.9949 25.3425 80.7497 25.0988 80.4472 25.0988H77.8192C77.5167 25.0988 77.2715 25.3425 77.2715 25.643V39.2477Z" fill="#717171"/>
<path d="M85.0719 39.2477C85.0719 39.5482 85.317 39.7918 85.6196 39.7918H88.3028C88.6053 39.7918 88.8504 39.5482 88.8504 39.2477V32.3365C88.8504 31.4205 88.9508 30.6858 89.1519 30.1326C89.3614 29.5793 89.626 29.1621 89.9458 28.8809C90.2651 28.5907 90.6077 28.3957 90.9726 28.2959C91.3373 28.1961 91.6795 28.1463 91.9993 28.1463C92.7934 28.1463 93.4049 28.3231 93.8336 28.6768C94.2719 29.0305 94.5869 29.4704 94.7784 29.9965C94.9699 30.5225 95.0845 31.0486 95.1206 31.5746C95.1575 32.0916 95.1759 32.5178 95.1759 32.8535V39.2477C95.1759 39.5482 95.4211 39.7918 95.7232 39.7918H98.4062C98.7091 39.7918 98.9543 39.5482 98.9543 39.2477V31.5474C98.9543 31.3025 98.9359 30.9125 98.8991 30.3775C98.863 29.8423 98.7572 29.2527 98.5841 28.6088C98.411 27.9558 98.1193 27.33 97.7082 26.7314C97.3067 26.1327 96.741 25.6384 96.0101 25.2485C95.2801 24.8584 94.3353 24.6635 93.1765 24.6635C92.1082 24.6635 91.1779 24.8403 90.3837 25.1941C89.8238 25.4436 89.3268 25.7519 88.8939 26.1189C88.7034 26.2804 88.3852 26.1531 88.3852 25.9043V25.643C88.3852 25.3424 88.1401 25.0988 87.8376 25.0988H85.6196C85.317 25.0988 85.0719 25.3424 85.0719 25.643V39.2477Z" fill="#717171"/>
<path d="M110.93 39.8686C111.19 39.8279 111.378 39.6021 111.378 39.3402V37.3401C111.378 37.0105 111.085 36.7576 110.755 36.7885C110.12 36.848 109.529 36.8605 108.983 36.8261C108.261 36.7807 107.737 36.4995 107.408 35.9826C107.235 35.7105 107.139 35.3477 107.12 34.8942C107.111 34.4317 107.107 33.9147 107.107 33.3432V28.5C107.107 28.1994 107.352 27.9558 107.654 27.9558H110.831C111.133 27.9558 111.378 27.7122 111.378 27.4117V25.6431C111.378 25.3425 111.133 25.0988 110.831 25.0988H107.654C107.352 25.0988 107.107 24.8552 107.107 24.5547V21.5616C107.107 21.2611 106.861 21.0175 106.559 21.0175H103.93C103.628 21.0175 103.383 21.2611 103.383 21.5616V24.5547C103.383 24.8552 103.137 25.0988 102.835 25.0988H101.411C101.109 25.0988 100.864 25.3425 100.864 25.6431V27.4117C100.864 27.7122 101.109 27.9558 101.411 27.9558H102.835C103.137 27.9558 103.383 28.1994 103.383 28.5V33.561C103.383 34.4407 103.392 35.2298 103.411 35.9281C103.428 36.6175 103.62 37.2977 103.985 37.9688C104.387 38.6853 104.971 39.2069 105.738 39.5334C106.513 39.8508 107.39 40.0186 108.366 40.0368C109.208 40.0599 110.062 40.0039 110.93 39.8686Z" fill="#717171"/>
<path d="M120.498 40.2C121.976 40.2 123.277 39.8735 124.399 39.2205C125.531 38.5584 126.412 37.6469 127.042 36.486C127.681 35.316 128 33.9691 128 32.4454C128 30.9307 127.685 29.5929 127.056 28.432C126.425 27.262 125.545 26.346 124.413 25.6838C123.29 25.0218 121.985 24.6907 120.498 24.6907C119.037 24.6907 117.746 25.0172 116.623 25.6702C115.5 26.3233 114.62 27.2348 113.981 28.4048C113.342 29.5658 113.023 30.9125 113.023 32.4454C113.023 33.9601 113.333 35.3024 113.954 36.4724C114.583 37.6333 115.46 38.5448 116.582 39.2069C117.705 39.869 119.01 40.2 120.498 40.2ZM120.498 36.7444C119.339 36.7444 118.458 36.359 117.855 35.5881C117.262 34.8081 116.966 33.7604 116.966 32.4454C116.966 31.1665 117.248 30.1326 117.815 29.3435C118.389 28.5454 119.283 28.1463 120.498 28.1463C121.675 28.1463 122.56 28.5363 123.153 29.3163C123.756 30.0963 124.057 31.1393 124.057 32.4454C124.057 33.7061 123.761 34.74 123.167 35.5472C122.583 36.3453 121.693 36.7444 120.498 36.7444Z" fill="#717171"/>
</svg>
