<svg width="140" height="60" viewBox="0 0 140 60" fill="none" xmlns="http://www.w3.org/2000/svg">
<g clip-path="url(#clip0_321_20675)">
<path d="M43.2226 27.3138C43.3184 27.4878 43.3867 27.6763 43.4252 27.8721C43.4871 28.1451 43.4937 28.428 43.4447 28.7035C43.3956 28.9792 43.2918 29.2415 43.1399 29.4743C42.9332 29.7802 42.6571 30.0299 42.3353 30.2022C41.9666 30.3688 41.5657 30.4478 41.1629 30.4332C40.7027 30.421 40.2457 30.3514 39.8021 30.2257C39.5442 30.8483 39.2148 31.4372 38.8207 31.9797C38.4334 32.5207 37.9937 33.0203 37.5084 33.4707C37.0508 33.8957 36.5507 34.2702 36.0164 34.5876C35.552 34.8719 35.0493 35.0847 34.5244 35.2191C34.0509 35.344 33.5544 35.344 33.0809 35.2191C32.8356 35.1356 32.61 35.0008 32.4185 34.8231C32.227 34.6454 32.0736 34.4289 31.9683 34.1871C31.6571 33.5838 31.5177 32.903 31.566 32.2225C31.6074 31.4238 31.7631 30.6358 32.0282 29.8836C32.3162 29.0498 32.6811 28.2461 33.118 27.4833C33.5388 26.7244 34.0339 26.0112 34.5958 25.355C35.092 24.776 35.6608 24.2668 36.2874 23.8406C36.7728 23.4849 37.3487 23.2817 37.9449 23.2559C38.1537 23.2404 38.3627 23.2789 38.5532 23.3678C38.7436 23.4566 38.9091 23.5931 39.0347 23.7646C39.2805 24.1311 39.4271 24.5578 39.4598 25.0013C39.934 25.7482 40.2112 26.6085 40.2643 27.498C40.757 27.5482 41.2538 27.5403 41.7448 27.4746C42.1145 27.4273 42.4764 27.329 42.8203 27.1822C43.0086 27.1082 43.1427 27.152 43.2226 27.3138ZM38.3244 29.9801C38.3524 29.9541 38.3731 29.9207 38.3842 29.8836C38.3931 29.8501 38.4055 29.8178 38.4213 29.7871C37.7627 29.5226 37.1287 29.1978 36.5271 28.8165L36.3958 28.7551C36.3425 28.7334 36.2968 28.6956 36.2646 28.647C36.1372 28.567 36.0231 28.49 35.9223 28.416C35.8203 28.3484 35.7247 28.2711 35.637 28.185C35.6225 28.171 35.6062 28.1591 35.5884 28.1499C35.5706 28.1411 35.5542 28.1292 35.54 28.1149C35.2706 28.5533 35.0332 29.0116 34.8297 29.486C34.6387 29.9188 34.4878 30.369 34.3789 30.8308C34.2858 31.1957 34.2741 31.5775 34.3447 31.9477C34.3754 32.1022 34.442 32.247 34.5388 32.3696C34.6356 32.4922 34.7599 32.5891 34.901 32.6522C35.1598 32.7126 35.4308 32.6827 35.6712 32.5674C36.0081 32.4291 36.3233 32.2411 36.607 32.009C36.9417 31.74 37.2512 31.4395 37.5312 31.1114C37.8343 30.7645 38.1002 30.3852 38.3244 29.9801ZM37.7794 26.6589C37.7916 26.5335 37.7916 26.4072 37.7794 26.2818C37.7766 26.1624 37.7442 26.0457 37.6853 25.9426C37.6613 25.9005 37.6266 25.8658 37.5849 25.8421C37.5432 25.8185 37.4961 25.8067 37.4486 25.8082C37.3458 25.8082 37.2003 25.9046 37.0092 26.1005C36.9559 26.1385 36.9079 26.1837 36.8665 26.235C36.819 26.2915 36.7714 26.3519 36.7239 26.4163C37.0397 26.578 37.363 26.732 37.6938 26.8782L37.7794 26.6589Z" fill="#717171"/>
<path d="M53.4014 35.1895C53.5118 35.2051 53.5118 35.3104 53.4014 35.5052C53.257 35.7536 53.0814 35.9816 52.8794 36.1835C52.6023 36.469 52.2973 36.7246 51.9693 36.9465C51.6085 37.192 51.2183 37.3885 50.8082 37.5313C50.4588 37.6324 50.0932 37.6613 49.7328 37.616C49.2905 37.5658 48.8695 37.3941 48.5146 37.119C48.0713 36.7664 47.7179 36.3089 47.4847 35.7859C47.157 35.0294 46.9805 34.2132 46.9655 33.3856C46.9289 32.1449 47.0322 30.9038 47.2737 29.6874C47.6217 27.8964 48.1082 26.1368 48.7286 24.425C48.8233 24.2075 48.8756 23.9731 48.8826 23.735C48.8826 23.5655 48.7599 23.5859 48.5146 23.7964C48.1805 24.1502 47.8971 24.5508 47.6731 24.9863C47.2825 25.6724 46.931 26.3811 46.6203 27.1088C46.2704 27.9171 45.9703 28.747 45.7217 29.5939C45.4867 30.3387 45.3589 31.1148 45.3422 31.8975C45.3393 31.9968 45.323 32.0952 45.2937 32.1899C45.266 32.2585 45.2242 32.3202 45.1709 32.3706C45.1178 32.4211 45.0546 32.4592 44.9856 32.4823C44.7952 32.5503 44.5964 32.5906 44.3951 32.6022C44.1642 32.6179 43.9324 32.5971 43.7076 32.5408C43.4573 32.4821 43.2176 32.3834 42.9972 32.2484C42.7478 32.0914 42.5307 31.8857 42.3582 31.6432C42.1197 31.3022 41.9911 30.8934 41.9902 30.4738C41.9685 29.9535 42.0078 29.4322 42.1072 28.9214C42.216 28.3483 42.3666 27.7844 42.5579 27.2346C42.739 26.7 42.9525 26.1777 43.1969 25.6704C43.394 25.2567 43.6319 24.8648 43.9073 24.501C44.0579 24.2615 44.2772 24.0756 44.535 23.9689C44.708 23.928 44.842 24.0488 44.9371 24.3314C45.0465 24.8371 45.0706 25.3582 45.0085 25.8721C45.1663 25.6129 45.3755 25.2855 45.6361 24.8898C45.8967 24.4942 46.1885 24.0897 46.5119 23.6766C46.8412 23.2567 47.1926 22.8556 47.5646 22.475C47.9174 22.1083 48.3054 21.7792 48.7228 21.4927C49.0917 21.2373 49.5024 21.0522 49.9352 20.946C50.3282 20.8481 50.7423 20.8914 51.1078 21.0688C51.1788 21.1183 51.2386 21.1828 51.2834 21.2579C51.3281 21.333 51.3568 21.417 51.3674 21.5044C51.3954 21.71 51.3954 21.9185 51.3674 22.1242C51.3459 22.3329 51.3105 22.54 51.2618 22.7439C51.2142 22.9388 51.1744 23.0928 51.142 23.2059C51.0165 23.658 50.8662 24.2564 50.6912 25.0009C50.5141 25.7855 50.3761 26.5788 50.2776 27.3778C50.1667 28.2345 50.1115 29.0979 50.1122 29.9622C50.105 30.7769 50.2087 31.5887 50.4202 32.3741C50.6047 33.0732 50.9546 33.7148 51.4388 34.2422C51.9649 34.7834 52.6593 35.1184 53.4014 35.1895Z" fill="#717171"/>
<path d="M54.4644 28.3764L54.6528 28.4611C54.7532 28.5035 54.8562 28.5397 54.9609 28.5692L55.2917 28.6658C55.3684 28.6923 55.4479 28.709 55.5285 28.7154C56.0991 28.3257 56.6697 27.97 57.2402 27.6484C57.8108 27.3268 58.3471 27.0442 58.8493 26.8006C59.3495 26.5589 59.7897 26.3571 60.17 26.1954L60.9631 25.8562C60.9729 25.8477 60.9843 25.8412 60.9965 25.8372C61.0087 25.8332 61.0217 25.8317 61.0345 25.8329C61.1125 25.8329 61.1515 25.8816 61.1515 25.979C61.1504 26.0924 61.1428 26.2057 61.1286 26.3182C61.1114 26.4547 61.0798 26.589 61.0345 26.7187C60.9797 26.8692 60.8995 27.0088 60.7977 27.1309C60.6704 27.283 60.5178 27.4107 60.347 27.5081C60.0464 27.6854 59.8021 27.8229 59.6137 27.9202C59.4106 28.0256 59.2134 28.1427 59.0232 28.2711C58.8179 28.4095 58.5697 28.5878 58.2787 28.8061C57.9876 29.0244 57.5968 29.3352 57.1062 29.7388C57.4918 30.0568 57.8068 30.4554 58.0304 30.9082C58.2145 31.2975 58.312 31.7239 58.3157 32.1564C58.3136 32.7141 58.1795 33.2629 57.9249 33.7557C57.6677 34.2688 57.3411 34.7422 56.9549 35.1619C56.5842 35.5681 56.1666 35.9265 55.7111 36.229C55.3468 36.484 54.9426 36.6729 54.5158 36.7873C54.2739 36.8333 54.0286 36.8577 53.7826 36.8604C53.4365 36.8677 53.0929 36.7979 52.7756 36.6559C52.4923 36.525 52.2417 36.33 52.0424 36.0857C51.842 35.8386 51.6891 35.555 51.5917 35.2496C51.4875 34.9251 51.4356 34.5854 51.4377 34.2439C51.4425 33.2472 51.8004 32.2862 52.4446 31.5396C52.967 30.8952 53.5478 30.303 54.1791 29.7708L53.8939 29.6744C53.563 29.5613 53.2273 29.4366 52.8868 29.3002C52.5566 29.1673 52.2463 28.9872 51.9654 28.7652C51.688 28.5454 51.4588 28.2685 51.2921 27.9524C51.1089 27.5857 51.0196 27.1773 51.0325 26.7655C51.0325 26.6836 51.0325 26.5959 51.0325 26.4994C51.0325 26.4029 51.0525 26.3065 51.0668 26.2071C51.1639 25.5716 51.3726 24.9594 51.6829 24.4003C52.0254 23.7629 52.4602 23.1823 52.9725 22.6783C53.5117 22.145 54.136 21.71 54.8182 21.392C55.5345 21.0576 56.3134 20.888 57.1005 20.895C57.6614 20.894 58.2197 20.9757 58.7579 21.1376C59.2555 21.2605 59.7027 21.5407 60.036 21.9387C60.3014 22.2706 60.4493 22.6849 60.4553 23.114C60.4213 23.882 60.1291 24.6144 59.628 25.1868C59.0189 25.9343 58.2496 26.5275 57.3801 26.9204C57.1976 27.0041 57.0061 27.0649 56.8095 27.1017C56.5988 27.1431 56.3849 27.1636 56.1704 27.1631C55.9001 27.163 55.6306 27.1346 55.366 27.0782C55.124 27.0293 54.8864 26.9599 54.6555 26.8707C54.605 26.8533 54.557 26.8288 54.5129 26.7976C54.4896 26.7818 54.4707 26.76 54.4583 26.7343C54.4458 26.7087 54.44 26.6801 54.4416 26.6514C54.4461 26.6121 54.4593 26.5743 54.48 26.5409C54.5007 26.5075 54.5286 26.4793 54.5615 26.4585C55.366 25.6496 55.985 25.0357 56.4186 24.6167C56.8523 24.1976 57.0691 23.8497 57.0691 23.573C57.0717 23.4673 57.0384 23.3639 56.9749 23.2806C56.9222 23.1916 56.8461 23.1197 56.7553 23.0732C56.6643 23.0266 56.5625 23.0073 56.4614 23.0175C56.0768 23.0635 55.7124 23.2184 55.4087 23.4648C54.9693 23.7708 54.5139 24.3496 54.0423 25.2014C53.7247 25.7022 53.5371 26.2778 53.4974 26.8737C53.4974 27.5207 53.8198 28.0216 54.4644 28.3764ZM55.2917 33.2266C55.5137 32.8083 55.6432 32.3452 55.6712 31.8699C55.6712 31.2716 55.5134 30.9724 55.1977 30.9724C54.9794 30.9907 54.7726 31.0798 54.6071 31.2268C54.1314 31.6002 53.7466 32.0815 53.4831 32.6331C53.3641 32.8614 53.2958 33.1141 53.2834 33.3726C53.285 33.4705 53.2927 33.5682 53.3063 33.665C53.323 33.791 53.3467 33.916 53.3776 34.0392C53.4045 34.1588 53.4571 34.2706 53.5316 34.3667C53.5599 34.4073 53.5971 34.4406 53.6402 34.464C53.6833 34.4873 53.731 34.5001 53.7797 34.5011C53.9414 34.497 54.1006 34.4594 54.2477 34.3907C54.3947 34.3218 54.5267 34.2231 54.6356 34.1006C54.8942 33.8435 55.116 33.5502 55.2946 33.2294L55.2917 33.2266Z" fill="#717171"/>
<path d="M71.7176 22.5657C71.7752 22.6107 71.8207 22.6701 71.8497 22.7381C71.8785 22.8062 71.8901 22.8807 71.8831 22.9546C71.8481 23.1259 71.7706 23.2851 71.6577 23.4165C71.4449 23.6602 71.193 23.8648 70.9131 24.0217C70.4984 24.2741 70.0632 24.4893 69.6122 24.6649C69.1063 24.8598 68.5577 25.0459 67.9661 25.2233C67.3747 25.4006 66.7518 25.5497 66.0975 25.6706C65.4434 25.8011 64.7843 25.9064 64.1205 25.9863C63.899 26.5382 63.7169 27.1059 63.5757 27.6849C63.3964 28.3938 63.2658 29.1148 63.1849 29.8425C63.0974 30.6032 63.0812 31.3706 63.1363 32.1345C63.1802 32.8572 63.3342 33.5684 63.5927 34.2424C63.8356 34.8622 64.2282 35.4085 64.7339 35.8299C65.3027 36.2778 65.994 36.5323 66.7109 36.5578C66.806 36.5578 66.8136 36.6553 66.7337 36.8502C66.6156 37.1042 66.4597 37.338 66.2716 37.543C66.0122 37.8378 65.7256 38.1061 65.4158 38.3441C65.0791 38.6092 64.7086 38.8256 64.3145 38.9874C64.0766 39.058 63.8287 39.0866 63.5814 39.0721C63.2434 39.0554 62.9112 38.9771 62.6001 38.8412C62.2167 38.6779 61.8613 38.4528 61.5473 38.1746C61.1673 37.8359 60.8486 37.431 60.6059 36.9788C60.3026 36.4101 60.087 35.7967 59.9669 35.1604C59.8093 34.3099 59.7652 33.4415 59.8356 32.579C59.8508 32.2242 59.8822 31.8606 59.9298 31.4884C59.9773 31.1161 60.0325 30.7682 60.0953 30.4447C60.158 30.1212 60.2169 29.8288 60.2721 29.5677C60.3273 29.3064 60.3786 29.0921 60.4261 28.9244C60.4737 28.7471 60.5327 28.5405 60.6031 28.3047C60.6734 28.0689 60.7447 27.83 60.817 27.5883L61.031 26.8605C61.1013 26.6188 61.1689 26.4083 61.2335 26.229C61.046 26.285 60.8555 26.3299 60.6629 26.3634C60.4447 26.4043 60.2228 26.4209 60.0011 26.4131C59.7786 26.4047 59.5589 26.3593 59.3506 26.2786C59.1341 26.1948 58.9431 26.0535 58.7972 25.8693C58.6407 25.6475 58.5578 25.3801 58.5604 25.1063C58.5434 24.7905 58.584 24.4742 58.6802 24.1737C58.7579 23.9087 58.9096 23.6729 59.1167 23.4954C59.2167 23.416 59.3396 23.3729 59.4661 23.3729C59.5928 23.3729 59.7157 23.416 59.8157 23.4954C59.9918 23.6074 60.1846 23.6893 60.3862 23.7381C60.6191 23.8023 60.8567 23.8473 61.0965 23.8726C61.3171 23.8978 61.5401 23.8899 61.7585 23.8492C61.93 23.8271 62.089 23.7456 62.2091 23.6182C62.5481 22.7428 62.9594 21.8987 63.4387 21.0952C63.8199 20.4649 64.2533 19.8692 64.7339 19.3148C64.9504 19.0599 65.2056 18.8427 65.4899 18.6716C65.6397 18.5798 65.8118 18.5331 65.9863 18.5371C66.1748 18.5445 66.36 18.5903 66.5311 18.6716C66.6439 18.7243 66.745 18.8 66.8284 18.894C66.9117 18.9879 66.9756 19.0983 67.0161 19.2183C67.1112 19.4775 67.0161 19.9911 66.7308 20.759C66.4455 21.5269 66.031 22.4927 65.4871 23.6562C66.1185 23.6231 66.6948 23.5705 67.2158 23.4984C67.737 23.4262 68.1943 23.3658 68.5881 23.3171C69.0617 23.2372 69.4914 23.1563 69.8775 23.0744C70.2636 22.9926 70.5907 22.9117 70.8589 22.8318C71.1498 22.7599 71.4365 22.671 71.7176 22.5657Z" fill="#717171"/>
<path d="M76.8319 26.0154C76.9013 26.1245 76.9641 26.2377 77.0203 26.3545C77.0687 26.4685 77.1144 26.5972 77.1629 26.7433C77.211 26.8923 77.2352 27.0484 77.2342 27.2053C77.198 27.5861 77.0811 27.9543 76.8919 28.284C76.6281 28.8028 76.3277 29.3011 75.9932 29.775C75.6129 30.3091 75.1945 30.8626 74.738 31.4356C74.289 31.9938 73.8129 32.5285 73.3116 33.0378C72.8649 33.4953 72.3884 33.9212 71.8852 34.3124C71.5147 34.6127 71.1045 34.8577 70.6671 35.0403C70.2511 35.2004 69.8104 35.2826 69.3661 35.2831C68.8444 35.2965 68.3289 35.1653 67.8741 34.903C67.4687 34.6732 67.1331 34.3333 66.9041 33.9207C66.7595 33.6559 66.6556 33.37 66.596 33.0728C66.5326 32.7613 66.501 32.4438 66.502 32.1256C66.5126 31.4809 66.6087 30.8407 66.7873 30.2223C66.9749 29.5337 67.2241 28.8643 67.5318 28.2227C67.8455 27.5634 68.2098 26.9309 68.6215 26.3311C69.0054 25.7647 69.4409 25.2371 69.9224 24.7553C70.341 24.3333 70.8096 23.9669 71.3174 23.6648C71.7247 23.4096 72.1897 23.2676 72.6668 23.2526H72.761C73.4552 23.2858 73.9487 23.4349 74.2416 23.6999C74.3845 23.8286 74.4977 23.9882 74.5732 24.1672C74.6487 24.3461 74.6845 24.54 74.6781 24.7349C74.6431 25.3665 74.4464 25.9776 74.1075 26.5065C73.7177 27.187 73.2536 27.8196 72.7239 28.3922C72.1896 28.9746 71.5946 29.4953 70.9495 29.9446C70.4462 30.3222 69.8751 30.5944 69.2692 30.7457C69.2374 30.8397 69.2211 30.9385 69.2206 31.038V31.3538C69.2184 31.6514 69.2627 31.9476 69.3519 32.2308C69.3848 32.3513 69.4433 32.4627 69.5232 32.5572C69.6031 32.6518 69.7025 32.727 69.814 32.7776C69.8748 32.7977 69.9387 32.8056 70.0023 32.8009C70.2909 32.7776 70.5684 32.6767 70.8068 32.5085C71.1614 32.2838 71.4982 32.0306 71.8139 31.7514C72.2062 31.4075 72.5814 31.0435 72.9378 30.6609C73.3182 30.2477 73.6986 29.8316 74.079 29.4125C74.952 28.4088 75.8696 27.2764 76.8319 26.0154ZM71.868 25.992C71.6651 26.1982 71.4746 26.4169 71.2975 26.6469C71.1073 26.9061 70.9019 27.1984 70.6813 27.524C70.4606 27.8495 70.2629 28.1866 70.0879 28.5355C69.9012 28.8822 69.7335 29.2396 69.5858 29.6055C70.0331 29.3142 70.4532 28.9815 70.841 28.6115C71.2321 28.2423 71.6034 27.8519 71.9536 27.442C72.1958 27.1788 72.403 26.8839 72.5699 26.565C72.6773 26.3713 72.7415 26.1557 72.7581 25.9335C72.7581 25.7074 72.6716 25.5944 72.4986 25.5944C72.2476 25.6425 72.0231 25.7842 71.868 25.992Z" fill="#717171"/>
<path d="M83.7626 25.6471C83.6061 26.251 83.3546 26.8247 83.018 27.3457C82.8085 27.6899 82.5131 27.9705 82.1622 28.1585C82.0519 28.2215 81.9239 28.2441 81.7993 28.2222C81.6746 28.2004 81.5612 28.1357 81.4775 28.0386C81.2873 27.8437 81.2123 27.4763 81.2522 26.9364C81.2693 26.7756 81.2893 26.644 81.3121 26.5125C81.3325 26.4164 81.3439 26.3185 81.3463 26.2201C81.3463 26.147 81.3235 26.1149 81.275 26.1237C81.1857 26.158 81.105 26.2118 81.0382 26.2815C80.6881 26.6497 80.3895 27.0659 80.1509 27.5182C79.7419 28.2252 79.3779 28.9586 79.0612 29.7137C78.7016 30.5523 78.3947 31.4135 78.1426 32.2923C77.9085 33.0625 77.7807 33.8627 77.7632 34.6692C77.7593 34.7694 77.739 34.8682 77.7033 34.9616C77.6718 35.0297 77.6272 35.0907 77.5724 35.1409C77.5175 35.1911 77.4534 35.2296 77.3837 35.254C77.1883 35.3241 76.9852 35.3693 76.7789 35.3884C76.5367 35.4112 76.2925 35.3905 76.0572 35.3269C75.7958 35.2581 75.5452 35.1517 75.3126 35.0112C75.0536 34.8517 74.8316 34.6362 74.6622 34.3798C74.4251 34.0253 74.2933 33.6079 74.2827 33.1782C74.2536 32.6412 74.2929 32.1026 74.3997 31.5761C74.5147 30.9813 74.6691 30.3952 74.8619 29.822C75.0434 29.268 75.2646 28.7286 75.5237 28.2081C75.7337 27.7792 75.979 27.3694 76.2569 26.9832C76.4067 26.7278 76.6357 26.5312 76.9073 26.4248C77.0975 26.3839 77.2392 26.5135 77.3325 26.8136C77.441 27.3352 77.4651 27.8715 77.4038 28.4011C77.5768 28.1263 77.7937 27.7872 78.0541 27.3837C78.3147 26.9802 78.6142 26.5641 78.9528 26.1354C79.2914 25.7066 79.6546 25.2904 80.0426 24.887C80.4058 24.5023 80.8064 24.1566 81.2379 23.855C81.6131 23.5876 82.0357 23.3979 82.4818 23.2966C82.8914 23.2075 83.3181 23.2546 83.6999 23.4311C83.7722 23.4826 83.8327 23.5495 83.8776 23.6272C83.9223 23.7049 83.9503 23.7916 83.9594 23.8813C83.9874 24.0947 83.9874 24.311 83.9594 24.5245C83.9376 24.741 83.9024 24.9558 83.8539 25.1677C83.8254 25.3743 83.795 25.5341 83.7626 25.6471Z" fill="#717171"/>
<path d="M88.877 20.8947H93.2332C93.8159 20.8935 94.3978 20.9394 94.9734 21.0321C95.5299 21.1153 96.0638 21.3143 96.5424 21.6169C97.0198 21.9274 97.4123 22.3569 97.6836 22.8652C98.0005 23.5238 98.1478 24.2544 98.1115 24.9877C98.1233 25.7303 97.8822 26.454 97.4297 27.0342C96.9114 27.6595 96.192 28.0743 95.4013 28.2036V28.2475C95.8741 28.2849 96.3367 28.4077 96.7679 28.61C97.1667 28.8 97.5261 29.0671 97.8262 29.3965C98.1311 29.7349 98.3667 30.1326 98.5195 30.5659C98.6873 31.0429 98.7703 31.5469 98.7648 32.0539C98.796 32.8134 98.6223 33.5671 98.2627 34.2319C97.9511 34.7699 97.5189 35.2239 97.0018 35.5563C96.4981 35.8771 95.941 36.1001 95.3585 36.2141C94.8137 36.3262 94.2596 36.3849 93.7039 36.3895H88.877V20.8947ZM90.2863 27.5897H93.2104C93.8093 27.6094 94.4068 27.5172 94.9734 27.3177C95.3699 27.1727 95.733 26.9459 96.0404 26.6512C96.2783 26.4196 96.455 26.1299 96.5539 25.8092C96.7647 25.0936 96.7151 24.3238 96.4141 23.6429C96.2527 23.3015 96.0105 23.007 95.7094 22.7863C95.3927 22.5678 95.0369 22.4157 94.6625 22.339C94.2479 22.2496 93.8252 22.2054 93.4016 22.2074H90.2834L90.2863 27.5897ZM90.2863 35.0739H93.51C94.1875 35.1027 94.8644 35.0035 95.507 34.7815C95.9471 34.621 96.3453 34.3589 96.6709 34.0156C96.9266 33.7324 97.1124 33.3906 97.213 33.0187C97.3001 32.7166 97.347 32.404 97.3527 32.0891C97.3656 31.5822 97.2559 31.08 97.0332 30.6273C96.8328 30.2345 96.548 29.8936 96.2001 29.6302C95.8498 29.371 95.455 29.1815 95.0362 29.0719C94.608 28.956 94.1668 28.8971 93.724 28.8965H90.2834L90.2863 35.0739Z" fill="#717171"/>
<path d="M105.68 29.715L100.129 20.8947H101.821L106.385 28.2475L111.061 20.8947H112.641L107.09 29.715V36.3895H105.68V29.715Z" fill="#717171"/>
<path d="M120.077 22.2016H114.908V20.8948H126.639V22.2016H121.484V36.3808H120.077V22.2016Z" fill="#717171"/>
<path d="M128.979 20.8948H138.223V22.2016H130.388V27.7242H137.733V29.0368H130.388V35.0653H138.567V36.3779H128.979V20.8948Z" fill="#717171"/>
<path d="M35.8293 38.309C35.7295 38.2271 35.5868 38.2564 35.4071 38.4026C35.141 38.612 34.8362 38.764 34.511 38.8494C34.186 38.9349 33.8474 38.9518 33.5158 38.8995C32.93 38.7768 32.3836 38.5054 31.9267 38.1102C31.2746 37.585 30.7729 36.889 30.4746 36.0958C30.1357 35.2068 29.8926 34.2823 29.7501 33.339C29.6075 32.4322 29.5369 31.515 29.5389 30.5966C29.5385 29.6701 29.5842 28.7441 29.6759 27.8222C29.7671 26.914 29.8936 26.0311 30.0553 25.1735C30.217 24.3159 30.3881 23.5051 30.5688 22.7411C31.0091 20.9775 31.5579 19.2443 32.212 17.5518C32.2728 17.3452 32.3337 17.1279 32.3946 16.8999C32.4911 16.5178 32.5418 16.1251 32.5457 15.7304L32.5771 15.669C32.5653 15.5487 32.5226 15.4337 32.4535 15.3356C32.3844 15.2376 32.2913 15.16 32.1834 15.1106C31.9227 14.9947 31.6323 14.9691 31.3561 15.0375C30.8288 15.1569 30.3233 15.3612 29.8584 15.6427C28.9317 16.184 28.07 16.8345 27.2909 17.581C26.3417 18.473 25.448 19.425 24.615 20.4315C23.7268 21.4957 22.8652 22.6368 22.0303 23.855C21.216 25.0371 20.4637 26.2628 19.7766 27.5269C19.1464 28.6811 18.5807 29.8709 18.0821 31.0907C17.6642 32.0822 17.3497 33.1161 17.1434 34.1751C16.7886 33.7416 16.5122 33.2466 16.3275 32.7133C16.1183 32.1149 15.9664 31.4971 15.8739 30.8685C15.7309 29.9013 15.6907 28.9211 15.7541 27.945C15.8129 26.9467 15.9291 25.953 16.1022 24.9688C16.2733 23.9943 16.4796 23.0646 16.7212 22.1798C16.9628 21.2949 17.1948 20.5046 17.4174 19.8088C17.6398 19.1169 17.8215 18.5536 17.9622 18.119C18.0561 17.8681 18.1268 17.6087 18.1733 17.3442C18.1613 17.2503 18.1295 17.1601 18.0802 17.0798C18.0311 16.9996 17.9654 16.9312 17.8881 16.8794C17.7264 16.7547 17.4135 16.7137 16.9494 16.7566C16.0512 16.8455 15.1643 17.0277 14.302 17.3004C13.2416 17.6256 12.2013 18.0161 11.1868 18.4698C10.1084 18.9454 9.03956 19.4823 7.98022 20.0807C6.9909 20.6363 6.03794 21.2574 5.12741 21.94C4.36709 22.5032 3.65855 23.1363 3.01062 23.8316C2.52777 24.2997 2.19121 24.904 2.04352 25.5682C1.92532 26.2004 2.05002 26.855 2.39156 27.3953C2.65644 27.8156 3.02967 28.1527 3.46993 28.3689C3.53744 28.4168 3.61517 28.4472 3.69658 28.4579C3.77797 28.4686 3.86069 28.4591 3.93779 28.4303C4.0314 28.3805 4.11781 28.3174 4.19454 28.2432C4.91462 27.1803 5.71899 26.1799 6.59946 25.2524C7.42109 24.3865 8.29481 23.5741 9.21549 22.82C10.0545 22.1316 10.9328 21.4951 11.8458 20.9139C12.713 20.3662 13.5299 19.8858 14.2963 19.4726C13.6202 20.3761 12.9945 21.318 12.422 22.2938C11.7963 23.3482 11.2115 24.4484 10.6676 25.5945C10.1236 26.7405 9.63485 27.9011 9.20122 29.0764C8.79556 30.1549 8.45262 31.2571 8.17421 32.3771C7.93965 33.2943 7.79816 34.2338 7.752 35.1807C7.69348 35.8671 7.81357 36.5572 8.10004 37.1805C8.28538 37.5331 8.53755 37.8442 8.84177 38.0956C9.1121 38.3203 9.4129 38.5034 9.7347 38.6393C10.0241 38.7599 10.3303 38.8329 10.6419 38.8556C10.9059 38.8798 11.1719 38.8591 11.4293 38.7943C11.5265 38.7866 11.6206 38.7561 11.7047 38.7054C11.7887 38.6549 11.8604 38.5852 11.9142 38.502C11.9867 38.3931 12.019 38.2616 12.0055 38.1306C11.921 36.2578 11.9916 34.381 12.2166 32.5203C12.4207 30.8373 12.7343 29.1701 13.1552 27.5299C13.0157 28.625 12.93 29.7266 12.8985 30.8306C12.8649 31.8447 12.9049 32.86 13.0183 33.8681C13.1101 34.7231 13.2929 35.5652 13.5632 36.3794C13.7581 37.0204 14.1062 37.6012 14.5759 38.0693C14.9348 38.4566 15.3909 38.7352 15.8942 38.8744C16.3974 39.0136 16.9283 39.0082 17.4287 38.8586C17.8936 38.7187 18.3297 38.4926 18.7154 38.192C19.1056 37.8942 19.4608 37.5508 19.7737 37.1688C19.9294 36.9434 20.0569 36.6988 20.1531 36.4408C20.3053 36.0803 20.4613 35.6904 20.6211 35.2714C20.7808 34.8524 20.9272 34.444 21.0604 34.0465L21.3456 33.1693C22.1727 30.6049 23.2719 28.1413 24.6235 25.8225C25.7474 23.8954 26.996 22.0475 28.3607 20.2912C27.8794 21.3031 27.4509 22.3404 27.0769 23.3989C26.6628 24.5717 26.3094 25.7662 26.0186 26.9773C25.7121 28.2484 25.4797 29.537 25.3224 30.8364C25.1617 32.1412 25.1111 33.4578 25.1712 34.7715C25.2003 36.3626 25.4658 37.94 25.9586 39.4491C26.3517 40.6835 27.0623 41.7864 28.0155 42.6417C28.5638 43.1509 29.2393 43.494 29.9668 43.6327C30.5983 43.7381 31.2448 43.6962 31.8582 43.51C32.4701 43.3195 33.0398 43.0087 33.5357 42.5949C34.0315 42.1943 34.4813 41.7372 34.8765 41.2325C35.2248 40.787 35.5126 40.2953 35.7324 39.7707C35.9162 39.3844 36.0136 38.9609 36.0177 38.5312C35.9767 38.4436 35.9136 38.369 35.835 38.3149L35.8293 38.309Z" fill="#717171"/>
</g>
<defs>
<clipPath id="clip0_321_20675">
<rect width="136.842" height="29.4737" fill="white" transform="translate(2 15)"/>
</clipPath>
</defs>
</svg>
