<svg width="140" height="60" viewBox="0 0 140 60" fill="none" xmlns="http://www.w3.org/2000/svg">
<path d="M8.81233 22.0031L9.27321 22.0525C10.7446 22.1977 12.1513 22.7301 13.3501 23.5956C13.3652 23.6079 13.3796 23.6209 13.3933 23.6347C13.3686 23.6635 13.347 23.6912 13.3223 23.7159C12.5789 24.4635 11.8324 25.211 11.0828 25.9586C11.0714 25.9734 11.0572 25.9858 11.0409 25.995C11.0247 26.0042 11.0067 26.0099 10.9881 26.012C10.9696 26.014 10.9508 26.0122 10.9329 26.0067C10.915 26.0013 10.8985 25.9923 10.8842 25.9802C9.91352 25.4422 8.79348 25.2366 7.69498 25.3946C6.59649 25.5527 5.57987 26.0658 4.80024 26.8557C3.88704 27.767 3.36677 28.9995 3.35075 30.2896C3.31135 31.4255 3.65946 32.5411 4.33789 33.453C5.01632 34.3649 5.98473 35.019 7.08405 35.3078C8.9615 35.7923 10.6373 35.3561 12.022 33.9941C14.0723 31.9819 16.0989 29.9326 18.1286 27.8916C18.6157 27.3899 19.2466 27.052 19.934 26.9246C20.4407 26.8176 20.9646 26.8227 21.4691 26.9394C21.9736 27.0562 22.4465 27.2818 22.8546 27.6005C22.9061 27.6396 22.9575 27.6828 23.0336 27.7476C22.9875 27.7759 22.9435 27.8076 22.902 27.8422C20.0606 30.6815 17.2192 33.5215 14.3778 36.3622C13.1442 37.5917 11.5607 38.4097 9.84414 38.7044C8.1276 38.999 6.36193 38.7559 4.78893 38.0082C2.64298 36.9795 1.18834 35.3109 0.42604 33.0528C-0.0633403 31.5748 -0.13261 29.9899 0.225953 28.4748C0.584517 26.9597 1.35682 25.574 2.45677 24.4721C3.75748 23.1591 5.45894 22.3174 7.29185 22.0802C7.4976 22.0504 7.70952 22.0411 7.91836 22.0206C7.95301 22.0157 7.98735 22.0088 8.02123 22L8.81233 22.0031Z" fill="#717171"/>
<path d="M21.0543 22.0031C21.2601 22.0267 21.4751 22.0473 21.6849 22.074C23.3256 22.2637 24.8712 22.9426 26.1209 24.0225C27.6557 25.3413 28.6176 27.0058 28.9365 29.0005C29.3655 31.6938 28.6763 34.0887 26.8389 36.1163C25.5427 37.5667 23.7653 38.4989 21.8351 38.7407C19.6048 39.0493 17.5597 38.5421 15.7162 37.2418C15.7028 37.2325 15.6915 37.2212 15.6689 37.2027C15.6977 37.1718 15.7224 37.141 15.7501 37.1132C16.4949 36.3698 17.2387 35.6249 17.9815 34.8788C17.9924 34.8636 18.0063 34.8509 18.0223 34.8414C18.0384 34.8318 18.0562 34.8257 18.0747 34.8233C18.0932 34.8209 18.112 34.8223 18.1299 34.8274C18.1479 34.8325 18.1646 34.8412 18.179 34.853C20.6634 36.211 23.7579 35.3294 25.0962 32.8686C26.7217 29.8791 25.0726 26.1211 21.6376 25.4483C19.8754 25.1026 18.3168 25.582 17.035 26.8494C14.9885 28.874 12.9526 30.9089 10.9274 32.954C10.4118 33.4821 9.7377 33.8272 9.00777 33.9364C8.51372 34.0222 8.00712 34.0023 7.5213 33.8782C7.03547 33.7541 6.58142 33.5285 6.18902 33.2163C6.16022 33.1937 6.13244 33.169 6.10364 33.1453L6.05426 33.1062C6.08924 33.0682 6.11804 33.0353 6.1489 33.0034C9.02183 30.1332 11.8961 27.2633 14.7718 24.3938C15.9878 23.1846 17.5561 22.3922 19.2509 22.1306C19.5596 22.0781 19.8795 22.0607 20.1933 22.0277C20.2172 22.0236 20.2406 22.0171 20.2632 22.0082L21.0543 22.0031Z" fill="#717171"/>
<path d="M139.998 26.2514C139.894 26.2514 139.792 26.2775 139.688 26.2775H134.757V36.7282H132.462V26.2796H127.257V23.9891H139.716C139.811 23.9891 139.905 24.0064 140 24.0151L139.998 26.2514Z" fill="#717171"/>
<path d="M57.121 28.5832V30.8759H48.9478C48.9478 31.7436 48.9131 32.6112 48.9478 33.4463C48.9804 34.0276 49.514 34.4246 50.13 34.4268H59.3769V36.7151H50.1213C49.6693 36.7206 49.2207 36.6363 48.8015 36.4673C48.3822 36.2982 48.0007 36.0476 47.6789 35.7301C47.3572 35.4126 47.1016 35.0344 46.927 34.6174C46.7523 34.2005 46.6622 33.753 46.6616 33.301C46.6486 31.3242 46.6486 29.3482 46.6616 27.3729C46.6679 26.4644 47.034 25.5955 47.6796 24.9565C48.3252 24.3174 49.1977 23.9601 50.1061 23.963C53.1154 23.963 56.1239 23.963 59.1318 23.963H59.3877V26.2514H50.2428C49.4099 26.2514 48.9413 26.7221 48.9413 27.5529V28.5832H57.121Z" fill="#717171"/>
<path d="M84.2781 30.8564C85.2694 32.8259 86.252 34.7759 87.2476 36.7585C86.4103 36.7585 85.6078 36.7585 84.803 36.7585C84.7271 36.7585 84.6295 36.637 84.5861 36.5416C84.0771 35.5568 83.571 34.5706 83.0677 33.5829C82.827 33.1144 82.5884 32.6437 82.3476 32.173C81.9615 31.4203 81.3542 30.9605 80.5104 30.9128C79.7078 30.8672 78.9009 30.9019 78.0636 30.9019V36.7368H75.7774V24.0129H83.7749C85.5839 24.0129 87.0936 25.3447 87.2346 27.0626C87.3886 28.9497 86.2086 30.5093 84.3757 30.8347L84.2781 30.8564ZM78.068 28.6005C79.9746 28.6005 81.8465 28.6005 83.7185 28.6005C83.8916 28.6043 84.0641 28.5778 84.2282 28.5224C84.4827 28.4269 84.6951 28.2442 84.8277 28.0069C84.9603 27.7696 85.0045 27.493 84.9525 27.2262C84.9005 26.9594 84.7556 26.7197 84.5436 26.5495C84.3316 26.3794 84.0661 26.2899 83.7944 26.2969H78.3044C78.2307 26.2969 78.1547 26.2969 78.0701 26.3121L78.068 28.6005Z" fill="#717171"/>
<path d="M114.548 24.0129H122.597C123.433 24.0119 124.241 24.3179 124.866 24.8729C125.492 25.4279 125.891 26.1932 125.99 27.0236C126.083 27.8338 125.887 28.6508 125.436 29.3303C124.985 30.0098 124.308 30.5081 123.526 30.7371C123.376 30.7783 123.224 30.8065 123.029 30.8499C124.02 32.8129 125.005 34.7694 126.005 36.752C125.168 36.752 124.363 36.752 123.558 36.752C123.487 36.752 123.391 36.6479 123.352 36.5676C122.602 35.1143 121.851 33.661 121.114 32.2012C120.725 31.4355 120.118 30.9692 119.266 30.9171C118.465 30.8672 117.658 30.9063 116.823 30.9063V36.7455H114.548V24.0129ZM116.828 28.607H122.515C122.671 28.6149 122.827 28.5912 122.974 28.5373C123.121 28.4833 123.256 28.4003 123.37 28.2932C123.484 28.186 123.575 28.057 123.638 27.9137C123.701 27.7705 123.734 27.616 123.736 27.4596C123.736 26.785 123.233 26.3034 122.511 26.3013H116.828V28.607Z" fill="#717171"/>
<path d="M34.3715 28.6895V36.7325H32.1027V24.0259L42.536 32.0624V23.9782H44.8179V36.739L34.3715 28.6895Z" fill="#717171"/>
<path d="M101.397 30.3446C101.396 31.6077 101.021 32.8422 100.318 33.8917C99.6152 34.9413 98.6167 35.7585 97.449 36.24C96.2813 36.7215 94.9969 36.8454 93.7586 36.5962C92.5204 36.347 91.384 35.7358 90.4934 34.8401C89.6029 33.9444 88.9983 32.8044 88.7562 31.5648C88.5142 30.3251 88.6456 29.0414 89.1338 27.8765C89.6221 26.7116 90.4451 25.7178 91.4987 25.0212C92.5523 24.3245 93.7889 23.9562 95.052 23.9631C95.8881 23.964 96.7157 24.1299 97.4875 24.4513C98.2593 24.7728 98.96 25.2434 99.5495 25.8363C100.139 26.4292 100.606 27.1327 100.923 27.9063C101.24 28.6799 101.401 29.5085 101.397 30.3446ZM99.1082 30.3446C99.1099 29.5361 98.8719 28.7452 98.4243 28.072C97.9766 27.3988 97.3394 26.8733 96.5932 26.5622C95.847 26.251 95.0253 26.168 94.2319 26.3238C93.4386 26.4795 92.7092 26.8669 92.136 27.4371C91.5628 28.0073 91.1715 28.7346 91.0115 29.5271C90.8516 30.3196 90.9302 31.1418 91.2374 31.8896C91.5446 32.6374 92.0667 33.2774 92.7375 33.7287C93.4084 34.1799 94.198 34.4221 95.0065 34.4247C95.5443 34.4255 96.077 34.3204 96.5742 34.1154C97.0713 33.9104 97.5233 33.6095 97.9042 33.2298C98.285 32.8501 98.5874 32.3991 98.794 31.9026C99.0006 31.4061 99.1074 30.8737 99.1082 30.3359V30.3446Z" fill="#717171"/>
<path d="M71.6865 23.9739H73.9662C73.9746 24.0081 73.9804 24.0429 73.9835 24.078C73.9835 26.2623 74.0161 28.4466 73.9684 30.6287C73.9076 33.5179 71.6995 36.0644 68.8688 36.6002C67.2177 36.9341 65.5014 36.601 64.0952 35.6735C62.6889 34.746 61.7069 33.2996 61.3637 31.6503C61.2832 31.2862 61.2404 30.9148 61.2358 30.5419C61.2228 28.4292 61.2358 26.3143 61.2358 24.1995V23.9826H63.5263V24.2689C63.5263 26.3064 63.5263 28.3432 63.5263 30.3792C63.5342 31.4039 63.9267 32.3883 64.6261 33.1372C65.3256 33.8861 66.2808 34.345 67.3026 34.4227C68.3244 34.5005 69.3381 34.1916 70.1428 33.5571C70.9476 32.9227 71.4846 32.0091 71.6474 30.9974C71.6818 30.7574 71.6999 30.5154 71.7017 30.2729C71.7017 28.2889 71.7017 26.3042 71.7017 24.3188L71.6865 23.9739Z" fill="#717171"/>
<path d="M100.444 36.7151C102.613 32.4593 104.767 28.2383 106.952 23.9521L113.459 36.7151H112.917C112.32 36.7151 111.721 36.7151 111.123 36.7151C111.052 36.7234 110.98 36.7077 110.919 36.6703C110.858 36.6329 110.811 36.5761 110.787 36.509C109.67 34.3096 108.55 32.113 107.424 29.9193L106.954 29.0018C106.782 29.3358 106.633 29.6222 106.485 29.9107C105.363 32.1058 104.242 34.3024 103.123 36.5004C103.097 36.5713 103.047 36.6312 102.983 36.6706C102.918 36.7099 102.842 36.7264 102.767 36.7173C102.006 36.7086 101.245 36.7151 100.444 36.7151Z" fill="#717171"/>
</svg>
