<svg width="140" height="60" viewBox="0 0 140 60" fill="none" xmlns="http://www.w3.org/2000/svg">
<mask id="mask0_321_20676" style="mask-type:alpha" maskUnits="userSpaceOnUse" x="4" y="21" width="133" height="18">
<rect x="4" y="21" width="132.289" height="18" fill="#D9D9D9"/>
</mask>
<g mask="url(#mask0_321_20676)">
<path fill-rule="evenodd" clip-rule="evenodd" d="M51.9759 -39.1253C50.7779 -38.9947 49.5748 -38.7596 48.3462 -38.416L47.7562 -38.251V-33.5974C47.7562 -31.0378 47.7777 -28.9548 47.804 -28.9683C49.5422 -29.8608 50.9399 -30.3295 52.54 -30.5565C53.4003 -30.6786 55.4004 -30.6655 56.2427 -30.5324C57.7039 -30.3014 59.2769 -29.7897 60.4433 -29.1659L60.9796 -28.8791L64.0631 -31.9627C65.7591 -33.6587 67.1467 -35.0626 67.1467 -35.0826C67.1467 -35.1305 65.7057 -36.0773 65.1375 -36.4026C62.5735 -37.871 59.6444 -38.8054 56.5904 -39.1293C55.4865 -39.2464 53.0669 -39.2443 51.9759 -39.1253ZM84.2091 -39.1928C84.1389 -39.1805 83.7658 -39.1371 83.3799 -39.0965C79.4303 -38.6802 75.5337 -37.0468 72.2204 -34.4183C71.7994 -34.0843 67.5836 -29.917 59.9229 -22.2622C53.5117 -15.8559 48.2734 -10.5924 48.2824 -10.5656C48.2913 -10.5387 48.526 -10.3465 48.8038 -10.1384C49.7599 -9.42224 51.1964 -8.78512 52.4763 -8.5094C53.1474 -8.36477 54.7371 -8.3122 55.507 -8.40917C56.6438 -8.55227 57.9015 -8.95054 58.7909 -9.44916C59.8436 -10.0392 59.9292 -10.1206 68.8051 -18.9723C74.2579 -24.4101 77.6952 -27.791 78.0026 -28.0187C79.822 -29.366 81.9508 -30.241 84.1772 -30.5564C85.044 -30.6792 86.9759 -30.6654 87.8448 -30.5302C90.2004 -30.1636 92.4123 -29.198 94.1914 -27.7598C95.1574 -26.9789 96.3626 -25.6358 97.0122 -24.6163C97.9687 -23.1152 98.6691 -21.2096 98.9466 -19.3532C99.0868 -18.4153 99.0866 -16.6512 98.946 -15.7168C98.6153 -13.5182 97.8545 -11.6021 96.6348 -9.8963C94.5767 -7.01786 91.5396 -5.14241 87.9646 -4.54236C87.019 -4.38364 84.8106 -4.38338 83.8901 -4.54197C82.4794 -4.78497 81.1747 -5.21214 79.9397 -5.83542L79.2423 -6.18738L76.1605 -3.10556C74.4655 -1.41052 73.0787 -0.00868988 73.0787 0.00968552C73.0787 0.0631447 74.5862 1.04164 75.229 1.40546C77.4889 2.6843 80.1246 3.58024 82.742 3.95912C89.3194 4.91126 95.9272 2.87804 100.708 -1.56918C106.297 -6.76791 108.725 -14.3791 107.204 -21.9369C105.504 -30.3917 98.8096 -37.09 90.3483 -38.8038C88.8108 -39.1152 88.2035 -39.1726 86.2183 -39.1946C85.1834 -39.206 84.2792 -39.2052 84.2091 -39.1928ZM84.5553 -26.6283C83.0152 -26.3757 81.6981 -25.8495 80.5096 -25.0119C80.3342 -24.8884 76.287 -20.892 71.5159 -16.1313C62.5821 -7.21671 62.4047 -7.04829 61.1416 -6.28237C60.3834 -5.82253 59.4137 -5.38229 58.472 -5.07052C56.8866 -4.54555 55.5225 -4.35136 53.8507 -4.41273C51.8512 -4.48616 50.1449 -4.91792 48.4065 -5.79038L47.7562 -6.11682V-1.46188V3.193L48.2054 3.32684C50.3682 3.97105 53.1414 4.28881 55.4489 4.15675C60.2552 3.88173 64.4317 2.2718 68.1673 -0.745716C68.5929 -1.08963 73.0601 -5.50675 80.4278 -12.869C90.9711 -23.4044 92.01 -24.4607 91.9232 -24.5566C91.7089 -24.7935 90.7732 -25.4129 90.1586 -25.7247C89.4217 -26.0985 88.7046 -26.351 87.8501 -26.5375C87.0761 -26.7065 85.3259 -26.7548 84.5553 -26.6283ZM16.8207 26.5156C16.8207 29.2348 16.806 31.4597 16.788 31.4597C16.77 31.4597 14.1795 29.4739 11.0314 27.0469C7.88333 24.6199 5.01341 22.4075 4.65379 22.1305L4 21.6269V29.4459V37.2651H5.40288H6.80575L6.82208 32.3284L6.83841 27.3917L9.7725 29.6558C16.4309 34.7937 19.5652 37.2013 19.5953 37.2013C19.6129 37.2013 19.6272 33.6845 19.6272 29.3863V21.5714H18.224H16.8207V26.5156ZM25.1885 21.669C23.7476 21.9819 22.5607 23.0722 22.0654 24.5379L21.8929 25.0483L21.8732 29.1604C21.8507 33.8558 21.8521 33.8723 22.3423 34.8874C22.8164 35.8692 23.724 36.6616 24.7938 37.0275L25.2084 37.1694L31.3476 37.1868L37.4869 37.2043V35.7993V34.3943H31.626H25.7651L25.424 34.216C25.1757 34.0863 25.0304 33.9531 24.8904 33.7268L24.6981 33.4158L24.6791 31.736L24.6603 30.0562H29.7022H34.7442V28.6527V27.2492H29.7052H24.6662L24.6666 26.4358C24.6668 25.9884 24.6983 25.5076 24.7367 25.3672C24.8262 25.0399 25.3311 24.5399 25.6661 24.4469C25.8299 24.4014 27.8124 24.379 31.6984 24.3788L37.4869 24.3784V22.9749V21.5714L31.539 21.5765C26.7557 21.5806 25.5122 21.5987 25.1885 21.669ZM39.7341 26.0849L39.7551 30.5985L39.9213 31.2045C40.3771 32.8678 41.0858 34.0766 42.2218 35.1285C43.6899 36.488 45.5176 37.2013 47.533 37.2013C49.6789 37.2013 51.5357 36.4311 53.0561 34.9104C53.9766 33.9898 54.5802 33.0167 54.9691 31.8262C55.3384 30.6961 55.3466 30.5673 55.3466 25.8693V21.5714H53.9462H52.5458L52.5259 25.9574L52.5061 30.3433L52.3572 30.7898C52.009 31.8344 51.3718 32.769 50.6186 33.3399C49.064 34.518 47.0125 34.7226 45.3005 33.8701C44.0864 33.2655 43.114 32.0985 42.7075 30.7579C42.5637 30.2836 42.5623 30.2418 42.5413 25.9255L42.5201 21.5714H41.1166H39.713L39.7341 26.0849ZM80.3501 21.605C80.2975 21.6153 80.0392 21.6586 79.776 21.7012C78.7184 21.8724 77.3784 22.4502 76.4956 23.1157C73.9346 25.0462 72.7976 28.2692 73.5876 31.3588C74.3392 34.2981 76.8166 36.5821 79.8218 37.1062C80.5279 37.2293 81.7768 37.2276 82.4942 37.1025C85.6788 36.547 88.1792 34.0964 88.8324 30.8904C88.9913 30.1106 89.0045 28.8549 88.8623 28.0393C88.2114 24.3059 84.8932 21.5388 81.1155 21.5791C80.7472 21.583 80.4027 21.5947 80.3501 21.605ZM57.5152 29.4484V37.2651H58.9504H60.3855V33.6606V30.0562L61.7729 30.0567C62.5358 30.057 63.3442 30.087 63.5693 30.1236C64.1664 30.2205 64.6323 30.4657 65.0691 30.913C65.4157 31.2679 65.5736 31.5477 66.9618 34.2667L68.4764 37.2332L70.044 37.2502C70.9062 37.2596 71.6116 37.2565 71.6116 37.2434C71.6116 37.2302 70.7943 35.599 69.7954 33.6184L67.9791 30.0173L68.3762 29.9373C69.4903 29.7131 70.6371 28.8137 71.1542 27.7588C71.5419 26.9679 71.6321 26.5399 71.5976 25.656C71.5517 24.4779 71.1968 23.6533 70.3914 22.853C69.8987 22.3635 69.4472 22.0765 68.7946 21.838L68.3267 21.6671L62.921 21.6495L57.5152 21.6318V29.4484ZM92.533 27.9645C90.7613 31.4443 88.9781 34.9466 88.5703 35.7474L87.8288 37.2034L89.3902 37.1864L90.9515 37.1694L93.3528 32.4651C94.6735 29.8778 95.7684 27.7612 95.786 27.7616C95.8035 27.7619 96.7485 29.5918 97.8861 31.8279C99.0236 34.0639 100.11 36.1877 100.299 36.5474L100.645 37.2013H102.175C103.326 37.2013 103.7 37.1825 103.681 37.1257C103.626 36.9605 95.8157 21.6399 95.786 21.6387C95.7684 21.638 94.3046 24.4846 92.533 27.9645ZM105.099 29.4501V37.2651H106.47H107.841V33.6606V30.0562H109.43C111.162 30.0562 111.459 30.1017 112.072 30.4612C112.694 30.8256 112.879 31.1179 114.496 34.2863L116.016 37.2651H117.568H119.12L117.308 33.6694C116.311 31.6918 115.495 30.0575 115.495 30.0376C115.495 30.0177 115.66 29.9676 115.862 29.9264C116.707 29.7534 117.69 29.1332 118.212 28.4423C119.037 27.3518 119.315 25.9838 118.973 24.6974C118.688 23.624 117.835 22.5874 116.835 22.0989C115.874 21.6297 115.953 21.6352 110.204 21.6352H105.099V29.4501ZM120.662 23.0063V24.3773L123.867 24.3938L127.072 24.4103L127.089 30.8058L127.105 37.2013H128.476H129.847V30.7898V24.3784H133.036H136.225V23.0068V21.6352H128.444H120.662V23.0063ZM82.0323 24.4745C82.7275 24.5958 83.2978 24.8233 83.8799 25.2117C84.4454 25.5889 84.7193 25.8365 85.097 26.3122C85.7355 27.1162 86.0854 28.0655 86.1371 29.1345C86.1944 30.3206 85.9517 31.1997 85.2918 32.1962C84.5678 33.2894 83.4486 34.0364 82.136 34.3024C81.428 34.4459 80.3771 34.4017 79.7441 34.2017C78.2562 33.7314 77.0601 32.6402 76.5006 31.2423C76.3142 30.7768 76.1403 29.8905 76.1403 29.4062C76.1403 28.1039 76.6806 26.8252 77.6337 25.8721C78.83 24.6755 80.3733 24.1851 82.0323 24.4745ZM115.501 24.5143C115.978 24.7314 116.388 25.3482 116.388 25.849C116.388 26.3314 116.029 26.8721 115.527 27.1432C115.275 27.2794 115.227 27.2814 111.557 27.2995L107.841 27.3179V25.8907C107.841 25.1057 107.861 24.4432 107.886 24.4186C107.911 24.3938 109.583 24.3819 111.602 24.3919C114.833 24.4082 115.3 24.4228 115.501 24.5143ZM67.962 24.5413C68.9386 24.9493 69.1298 26.25 68.3126 26.9259C68.1801 27.0355 67.9711 27.1539 67.8483 27.1889C67.7143 27.2272 66.1782 27.2583 64.0053 27.2669L60.3855 27.2811L60.3855 25.8617V24.4422H64.0552C67.2285 24.4422 67.7569 24.4556 67.962 24.5413Z" fill="#717171"/>
</g>
</svg>
