<svg width="140" height="60" viewBox="0 0 140 60" fill="none" xmlns="http://www.w3.org/2000/svg">
<g clip-path="url(#clip0_321_20679)">
<path fill-rule="evenodd" clip-rule="evenodd" d="M51.1642 29.9897C51.2508 22.7626 46.6966 18.0247 39.5809 17.939C32.558 17.854 27.8678 22.4883 27.7565 29.6226C27.6411 37.0039 32.0793 41.6504 39.3536 41.7642C46.5095 41.8763 51.0767 37.3232 51.1642 29.9897ZM41.5992 13.0072C43.0458 13.4567 44.5448 13.7797 45.9303 14.3766C53.1722 17.4968 57.2468 25.4276 55.664 33.1809C54.034 41.1649 47.2714 46.7401 39.2851 46.6841C31.5064 46.6291 24.8168 40.924 23.2923 33.051C23.2218 32.6864 23.1013 32.3317 23.0039 31.9723V27.7264C23.1013 27.3671 23.2146 27.0116 23.2934 26.6485C24.6234 20.5312 28.1346 16.2989 33.8608 14.0299C35.009 13.5747 36.2421 13.3423 37.4361 13.0072H41.5992Z" fill="#717171"/>
<path fill-rule="evenodd" clip-rule="evenodd" d="M117.738 37.6804C115.584 38.1329 114.013 37.5122 112.95 35.4313C112.262 34.0833 111.224 32.9157 110.228 31.5054C109.098 33.1094 107.932 34.4748 107.099 36.0218C106.161 37.7656 104.834 37.9699 102.963 37.5953C104.926 34.8486 106.819 32.2014 108.737 29.5184C106.946 27.0186 105.189 24.5656 103.378 22.0368C105.325 21.5917 106.703 21.9649 107.679 23.6664C108.415 24.951 109.373 26.1078 110.336 27.4682C111.279 26.1501 112.219 25.0344 112.934 23.7873C113.89 22.1177 115.208 21.552 117.223 22.0295C115.4 24.5112 113.617 26.9383 111.737 29.4987C113.75 32.1492 115.744 34.7739 117.738 37.3986V37.6804Z" fill="#717171"/>
<path fill-rule="evenodd" clip-rule="evenodd" d="M73.6192 29.8936C73.2904 28.7664 73.1025 27.5702 72.6032 26.5266C71.631 24.4939 69.4296 23.6216 67.3287 24.2504C65.2864 24.8618 63.9822 26.7508 63.8373 29.3072C63.6733 32.1952 64.786 34.4838 66.7809 35.2913C67.1944 35.459 67.6501 35.563 68.0947 35.6027C71.2614 35.8859 73.3852 33.6219 73.6192 29.8936ZM68.5234 37.8199C64.0296 37.792 61.2534 34.7626 61.2442 29.8768C61.2352 25.016 64.1595 21.8515 68.6479 21.8644C73.1033 21.8771 76.0611 25.1134 76.0192 29.9308C75.9764 34.8263 73.1055 37.848 68.5234 37.8199Z" fill="#717171"/>
<path fill-rule="evenodd" clip-rule="evenodd" d="M93.4946 35.6204H102.088C102.16 37.4117 101.858 37.8034 100.402 37.811C97.2337 37.8278 94.0662 37.8161 90.7988 37.8161V21.8644H96.4394H101.945C102.065 23.7371 101.735 24.1132 100.044 24.1197C97.8802 24.128 95.7162 24.1217 93.484 24.1217V28.4712H101.392V30.7237H93.4946V35.6204Z" fill="#717171"/>
<path fill-rule="evenodd" clip-rule="evenodd" d="M88.7367 21.8644C89.0533 23.1681 88.7472 24.1759 87.9263 25.1966C85.2582 28.5151 82.6903 31.9142 79.8886 35.5342H89.0026C89.2088 37.4337 88.9158 37.8084 87.2953 37.8138C83.8882 37.8255 80.4809 37.8172 77.0337 37.8172C76.7256 36.5484 76.9113 35.5728 77.6963 34.579C80.3684 31.1959 82.9545 27.7443 85.7633 24.0714H77.3002V21.8644H88.7367Z" fill="#717171"/>
<path fill-rule="evenodd" clip-rule="evenodd" d="M40.3887 35.0403V21.8992C41.794 21.6521 44.2681 22.7429 45.4949 24.4808C46.0731 25.3001 46.5532 26.2244 46.8643 27.1651C47.7364 29.802 47.5302 30.293 45.2686 31.9266C44.5116 32.4735 43.7488 33.0132 42.9979 33.5678C42.2894 34.0908 41.5936 34.6292 40.8924 35.1608C40.7245 35.1208 40.5566 35.0805 40.3887 35.0403Z" fill="#717171"/>
<path fill-rule="evenodd" clip-rule="evenodd" d="M37.7774 24.5236V37.82C35.1343 37.5187 32.8828 35.4791 32.1399 32.7336C32.0917 32.5544 32.0897 32.3615 32.0317 32.1865C31.4493 30.4305 31.456 28.983 33.3747 27.8922C34.8791 27.0372 36.1593 25.7849 37.7774 24.5236Z" fill="#717171"/>
<path fill-rule="evenodd" clip-rule="evenodd" d="M37.7774 21.8644C36.3287 23.0462 34.8803 24.2283 33.4316 25.4101C34.2169 23.3627 35.6265 22.1295 37.7774 21.8644Z" fill="#717171"/>
<path fill-rule="evenodd" clip-rule="evenodd" d="M41.2578 37.82C42.7063 36.6382 44.1548 35.4561 45.6035 34.2743C44.8898 36.4111 43.3832 37.5305 41.2578 37.82Z" fill="#717171"/>
<path fill-rule="evenodd" clip-rule="evenodd" d="M51.1642 29.9824C51.2508 22.7553 46.6966 18.0174 39.5809 17.9316C32.558 17.8467 27.8678 22.481 27.7565 29.6152C27.6411 36.9966 32.0793 41.6431 39.3536 41.7569C46.5095 41.8689 51.0767 37.3159 51.1642 29.9824ZM41.5992 12.9999C43.0458 13.4494 44.5448 13.7724 45.9303 14.3693C53.1722 17.4895 57.2468 25.4203 55.664 33.1736C54.034 41.1576 47.2714 46.7328 39.2851 46.6767C31.5064 46.6218 24.8168 40.9167 23.2923 33.0437C23.2218 32.6791 23.1013 32.3244 23.0039 31.9649V27.719C23.1013 27.3598 23.2146 27.0043 23.2934 26.6411C24.6234 20.5239 28.1346 16.2916 33.8608 14.0226C35.009 13.5674 36.2421 13.335 37.4361 12.9999H41.5992Z" fill="#717171"/>
<path fill-rule="evenodd" clip-rule="evenodd" d="M117.738 37.6731C115.584 38.1255 114.013 37.5048 112.95 35.4239C112.262 34.0759 111.224 32.9084 110.228 31.4981C109.098 33.102 107.932 34.4675 107.099 36.0145C106.161 37.7582 104.834 37.9626 102.963 37.588C104.926 34.8413 106.819 32.1941 108.737 29.5111C106.946 27.0113 105.189 24.5583 103.378 22.0295C105.325 21.5844 106.703 21.9576 107.679 23.6591C108.415 24.9436 109.373 26.1005 110.336 27.4609C111.279 26.1428 112.219 25.0271 112.934 23.78C113.89 22.1104 115.208 21.5446 117.223 22.0222C115.4 24.5039 113.617 26.9309 111.737 29.4913C113.75 32.1419 115.744 34.7666 117.738 37.3912V37.6731Z" fill="#717171"/>
<path fill-rule="evenodd" clip-rule="evenodd" d="M73.6192 29.8863C73.2904 28.7591 73.1025 27.5629 72.6032 26.5193C71.631 24.4866 69.4296 23.6142 67.3287 24.2431C65.2864 24.8545 63.9822 26.7435 63.8373 29.2999C63.6733 32.1878 64.786 34.4764 66.7809 35.284C67.1944 35.4517 67.6501 35.5556 68.0947 35.5954C71.2614 35.8786 73.3852 33.6146 73.6192 29.8863ZM68.5234 37.8125C64.0296 37.7847 61.2534 34.7553 61.2442 29.8694C61.2352 25.0087 64.1595 21.8441 68.6479 21.8571C73.1033 21.8698 76.0611 25.106 76.0192 29.9235C75.9764 34.819 73.1055 37.8407 68.5234 37.8125Z" fill="#717171"/>
<path fill-rule="evenodd" clip-rule="evenodd" d="M93.4946 35.6131H102.088C102.16 37.4043 101.858 37.796 100.402 37.8037C97.2337 37.8204 94.0662 37.8088 90.7988 37.8088V21.8571H96.4394H101.945C102.065 23.7298 101.735 24.1059 100.044 24.1124C97.8802 24.1206 95.7162 24.1144 93.484 24.1144V28.4639H101.392V30.7164H93.4946V35.6131Z" fill="#717171"/>
<path fill-rule="evenodd" clip-rule="evenodd" d="M88.7367 21.8571C89.0533 23.1608 88.7472 24.1686 87.9263 25.1893C85.2582 28.5078 82.6903 31.9068 79.8886 35.5269H89.0026C89.2088 37.4264 88.9158 37.801 87.2953 37.8065C83.8882 37.8182 80.4809 37.8099 77.0337 37.8099C76.7256 36.541 76.9113 35.5655 77.6963 34.5716C80.3684 31.1886 82.9545 27.737 85.7633 24.0641H77.3002V21.8571H88.7367Z" fill="#717171"/>
<path fill-rule="evenodd" clip-rule="evenodd" d="M40.3887 35.033V21.8918C41.794 21.6448 44.2681 22.7356 45.4949 24.4734C46.0731 25.2928 46.5532 26.2171 46.8643 27.1578C47.7364 29.7947 47.5302 30.2857 45.2686 31.9192C44.5116 32.4661 43.7488 33.0059 42.9979 33.5604C42.2894 34.0835 41.5936 34.6219 40.8924 35.1535C40.7245 35.1135 40.5566 35.0732 40.3887 35.033Z" fill="#717171"/>
<path fill-rule="evenodd" clip-rule="evenodd" d="M37.7774 24.5163V37.8127C35.1343 37.5114 32.8828 35.4718 32.1399 32.7263C32.0917 32.5472 32.0897 32.3543 32.0317 32.1793C31.4493 30.4233 31.456 28.9758 33.3747 27.885C34.8791 27.0299 36.1593 25.7776 37.7774 24.5163Z" fill="#717171"/>
<path fill-rule="evenodd" clip-rule="evenodd" d="M37.7774 21.8571C36.3287 23.0389 34.8803 24.2209 33.4316 25.4028C34.2169 23.3553 35.6265 22.1222 37.7774 21.8571Z" fill="#717171"/>
<path fill-rule="evenodd" clip-rule="evenodd" d="M41.2578 37.8127C42.7063 36.6309 44.1548 35.4488 45.6035 34.267C44.8898 36.4038 43.3832 37.5232 41.2578 37.8127Z" fill="#717171"/>
</g>
<defs>
<clipPath id="clip0_321_20679">
<rect width="94.7368" height="33.6842" fill="white" transform="translate(23 13)"/>
</clipPath>
</defs>
</svg>
