<svg width="140" height="60" viewBox="0 0 140 60" fill="none" xmlns="http://www.w3.org/2000/svg">
<path d="M53.708 37.6641C53.2478 38.0847 52.7041 38.4211 52.0557 38.6524C51.4073 38.9047 50.7799 39.0098 50.1733 39.0098C49.3576 39.0098 48.6047 38.7786 47.9145 38.2949C47.2243 37.8113 46.7014 37.1595 46.2831 36.3395C45.091 36.2974 44.0034 36.003 43.0413 35.4353C42.0792 34.8676 41.3263 34.1106 40.7825 33.1645C40.2387 32.2183 39.9668 31.1459 39.9668 29.9894C39.9668 28.8119 40.2596 27.7396 40.8243 26.7934C41.389 25.8472 42.1838 25.0902 43.1877 24.5435C44.1916 23.9969 45.3001 23.7235 46.5341 23.7235C47.7681 23.7235 48.8766 23.9969 49.8805 24.5435C50.8844 25.0902 51.6583 25.8262 52.2439 26.7934C52.8086 27.7396 53.1014 28.8119 53.1014 29.9894C53.1014 31.3351 52.7459 32.5337 52.0348 33.564C51.3237 34.6153 50.3616 35.3722 49.1694 35.8348C49.5877 36.3395 50.0478 36.5918 50.5289 36.5918C50.8008 36.5918 51.1354 36.5077 51.491 36.3395C51.8465 36.1713 52.223 35.961 52.5995 35.6876L53.708 37.6641ZM43.6897 31.8398C44.0034 32.3865 44.4008 32.828 44.9027 33.1434C45.4047 33.4588 45.9694 33.627 46.555 33.627C47.1407 33.627 47.7054 33.4588 48.2073 33.1434C48.7093 32.828 49.1067 32.3865 49.3995 31.8398C49.6923 31.2931 49.8387 30.6833 49.8387 30.0105C49.8387 29.3586 49.6923 28.7489 49.3995 28.2022C49.1067 27.6555 48.7093 27.2139 48.2073 26.8985C47.7054 26.5831 47.1616 26.4359 46.555 26.4359C45.9485 26.4359 45.4047 26.5831 44.8818 26.8985C44.359 27.2139 43.9616 27.6345 43.6688 28.2022C43.3759 28.7489 43.2295 29.3586 43.2295 30.0105C43.2295 30.6833 43.3969 31.2931 43.6897 31.8398Z" fill="#717171"/>
<path d="M58.1212 32.9332C58.5604 33.3957 59.1461 33.627 59.8363 33.627C60.5265 33.627 61.0703 33.3957 61.4886 32.9332C61.9069 32.4706 62.116 31.8608 62.116 31.0828V23.9338H65.2742V31.0828C65.2742 32.1341 65.0441 33.0593 64.6049 33.8583C64.1657 34.6573 63.5173 35.2671 62.7016 35.6876C61.8859 36.1082 60.9029 36.3395 59.7944 36.3395C58.6859 36.3395 57.7238 36.1292 56.8872 35.6876C56.0506 35.2671 55.4023 34.6573 54.9421 33.8583C54.482 33.0593 54.252 32.1341 54.252 31.0828V23.9338H57.4101V31.0828C57.431 31.8608 57.6611 32.4706 58.1212 32.9332Z" fill="#717171"/>
<path d="M75.2716 36.1292L74.435 33.9635H69.1853L68.3278 36.1292H65.0859L70.2938 23.9338H73.5565L78.6389 36.1292H75.2716ZM70.1474 31.5244H73.4938L71.8415 27.1719L70.1474 31.5244Z" fill="#717171"/>
<path d="M86.7536 36.1292L84.9968 32.7649H84.934H82.6543V36.1292H79.4961V23.9338H84.9549C86.5654 23.9338 87.7994 24.3123 88.6778 25.0482C89.5562 25.8051 89.9954 26.8565 89.9954 28.2022C89.9954 29.1273 89.8072 29.9053 89.4517 30.5782C89.0752 31.251 88.5523 31.7557 87.8412 32.1341L90.3719 36.1082L86.7536 36.1292ZM82.6333 30.1997H84.934C85.5824 30.1997 86.0843 30.0315 86.4399 29.7161C86.7954 29.4007 86.9628 28.9171 86.9628 28.3073C86.9628 27.7186 86.7954 27.256 86.4399 26.9406C86.0843 26.6252 85.5824 26.457 84.934 26.457H82.6333V30.1997Z" fill="#717171"/>
<path d="M101.059 36.1292L100.222 33.9635H94.9724L94.1358 36.1292H90.873L96.0809 23.9338H99.3436L104.426 36.1292H101.059ZM95.9345 31.5244H99.2809L97.6286 27.1719L95.9345 31.5244Z" fill="#717171"/>
<path d="M111.665 26.6673C110.933 26.4149 110.326 26.3098 109.824 26.3098C109.427 26.3098 109.134 26.3729 108.904 26.5201C108.674 26.6673 108.569 26.8775 108.569 27.1509C108.569 27.4242 108.674 27.6345 108.862 27.8237C109.051 28.013 109.302 28.1391 109.594 28.2653C109.887 28.3704 110.305 28.5176 110.87 28.6858C111.707 28.9381 112.418 29.1694 112.962 29.4217C113.505 29.6741 113.986 30.0315 114.363 30.5362C114.76 31.0408 114.949 31.6926 114.949 32.5127C114.949 33.3327 114.739 34.0266 114.3 34.5943C113.882 35.162 113.296 35.6036 112.543 35.8979C111.79 36.1923 110.975 36.3395 110.054 36.3395C109.051 36.3395 108.047 36.1713 107.043 35.8138C106.039 35.4564 105.181 34.9728 104.449 34.363L105.683 31.8819C106.29 32.4286 107.022 32.8701 107.858 33.2276C108.695 33.564 109.427 33.7532 110.075 33.7532C110.556 33.7532 110.912 33.6691 111.184 33.5009C111.456 33.3327 111.581 33.0804 111.581 32.7439C111.581 32.4706 111.477 32.2393 111.288 32.0501C111.079 31.8608 110.828 31.7136 110.535 31.6085C110.222 31.5034 109.803 31.3772 109.239 31.209C108.402 30.9777 107.712 30.7464 107.189 30.5151C106.645 30.2838 106.185 29.9264 105.788 29.4428C105.39 28.9592 105.202 28.3284 105.202 27.5294C105.202 26.7724 105.39 26.1206 105.809 25.5529C106.206 24.9851 106.771 24.5436 107.503 24.2492C108.235 23.9338 109.092 23.7866 110.054 23.7866C110.933 23.7866 111.79 23.9128 112.648 24.1651C113.505 24.4174 114.258 24.7538 114.907 25.1744L113.715 27.7186C113.087 27.214 112.397 26.8986 111.665 26.6673Z" fill="#717171"/>
<path d="M116.475 23.9338H119.633V28.9171H124.527V23.9338H127.685V36.1292H124.527V31.4403H119.633V36.1292H116.475V23.9338Z" fill="#717171"/>
<path d="M129.797 23.9338H132.955V36.1292H129.797V23.9338Z" fill="#717171"/>
<path d="M32.9395 20.3593C33.295 20.4223 33.5669 20.4644 33.8388 20.5275C34.1107 20.5905 34.3826 20.6326 34.7381 20.7167C35.0937 21.0531 35.3656 21.2844 35.6375 21.5367C35.9094 21.768 36.1813 21.9993 36.5368 22.3147C36.5368 22.7563 36.5368 22.9666 36.5368 23.4081C36.1813 23.345 35.9094 23.303 35.6375 23.2819C35.3656 23.2399 35.0937 23.2189 34.7381 23.1768C34.3826 22.9035 34.1107 22.6932 33.8388 22.4619C33.5669 22.2516 33.295 22.0204 32.9395 21.726C32.9395 21.4526 32.9395 21.2424 32.9395 21.0531C32.9395 20.8429 32.9395 20.6326 32.9395 20.3593Z" fill="#717171"/>
<path d="M28.7988 18.1304C29.1544 18.1515 29.4263 18.1935 29.6982 18.2145C29.9701 18.2356 30.242 18.2776 30.5975 18.3407C30.9531 18.6982 31.225 18.9715 31.4969 19.2238C31.7688 19.4761 32.0407 19.7495 32.3962 20.0859C32.3962 20.3593 32.3962 20.5695 32.3962 20.7798C32.3962 20.99 32.3962 21.2003 32.3962 21.4737C32.0407 21.4526 31.7688 21.4316 31.4969 21.4316C31.225 21.4316 30.9531 21.4106 30.5975 21.4106C30.242 21.0952 29.9701 20.8639 29.6982 20.6326C29.4263 20.4013 29.1544 20.149 28.7988 19.8126C28.7988 19.4761 28.7988 19.2238 28.7988 18.9715C28.7988 18.6982 28.7988 18.4669 28.7988 18.1304Z" fill="#717171"/>
<path d="M24.6562 15.8806C25.0118 15.8806 25.2837 15.8806 25.5556 15.8806C25.8275 15.8806 26.0994 15.9016 26.4549 15.9227C26.8105 16.3222 27.0824 16.5955 27.3543 16.8899C27.6262 17.1843 27.8981 17.4576 28.2536 17.8151C28.2536 18.1515 28.2536 18.4248 28.2536 18.6772C28.2536 18.9295 28.2536 19.2028 28.2536 19.5392C27.8981 19.5392 27.6262 19.5603 27.3543 19.5603C27.0824 19.5813 26.8105 19.5813 26.4549 19.6233C26.0994 19.2869 25.8275 19.0136 25.5556 18.7613C25.2837 18.4879 25.0118 18.2356 24.6562 17.8571C24.6562 17.4576 24.6562 17.1632 24.6562 16.8689C24.6562 16.5745 24.6562 16.2801 24.6562 15.8806Z" fill="#717171"/>
<path d="M16.3965 17.8361C16.752 17.4786 17.0239 17.1842 17.2958 16.9109C17.5677 16.6165 17.8396 16.3432 18.1952 15.9437C18.5507 15.9226 18.8226 15.9016 19.0945 15.9016C19.3664 15.9016 19.6383 15.8806 19.9939 15.9016C19.9939 16.3011 19.9939 16.5955 19.9939 16.8899C19.9939 17.1842 19.9939 17.4786 19.9939 17.8781C19.6383 18.2356 19.3664 18.5089 19.0945 18.7823C18.8226 19.0556 18.5507 19.3079 18.1952 19.6444C17.8396 19.6233 17.5677 19.6023 17.2958 19.5813C17.0239 19.5602 16.752 19.5602 16.3965 19.5602C16.3965 19.2238 16.3965 18.9505 16.3965 18.6982C16.3965 18.4248 16.3965 18.1725 16.3965 17.8361Z" fill="#717171"/>
<path d="M12.2559 20.0649C12.6114 19.7285 12.8833 19.4762 13.1552 19.2028C13.4271 18.9505 13.699 18.6772 14.0546 18.3197C14.4101 18.2566 14.682 18.2356 14.9539 18.1935C15.2258 18.1725 15.4977 18.1305 15.8532 18.1094C15.8532 18.4459 15.8532 18.6982 15.8532 18.9505C15.8532 19.2028 15.8532 19.4551 15.8532 19.7916C15.4977 20.128 15.2258 20.3803 14.9539 20.6116C14.682 20.8639 14.4101 21.0952 14.0546 21.3896C13.699 21.3896 13.4271 21.3896 13.1552 21.4106C12.8833 21.4106 12.6114 21.4316 12.2559 21.4527C12.2559 21.1793 12.2559 20.9691 12.2559 20.7588C12.2559 20.5695 12.2559 20.3593 12.2559 20.0649Z" fill="#717171"/>
<path d="M8.11328 22.3147C8.46884 22.0204 8.74073 21.768 9.01263 21.5367C9.28452 21.3054 9.55642 21.0531 9.91197 20.7167C10.2675 20.6326 10.5394 20.5695 10.8113 20.5275C11.0832 20.4644 11.3551 20.4223 11.7107 20.3593C11.7107 20.6326 11.7107 20.8429 11.7107 21.0321C11.7107 21.2424 11.7107 21.4316 11.7107 21.705C11.3551 21.9993 11.0832 22.2306 10.8113 22.4409C10.5394 22.6512 10.2675 22.8824 9.91197 23.1558C9.55642 23.1768 9.28452 23.2189 9.01263 23.2609C8.74073 23.303 8.46884 23.324 8.11328 23.3871C8.11328 22.9666 8.11328 22.7563 8.11328 22.3147Z" fill="#717171"/>
<path d="M32.9395 23.3661C33.295 23.3661 33.5669 23.3661 33.8388 23.3871C34.1107 23.3871 34.3826 23.4081 34.7381 23.4292C35.0937 23.7025 35.3656 23.8918 35.6375 24.081C35.9094 24.2702 36.1813 24.4595 36.5368 24.7118C36.5368 25.1533 36.5368 25.3636 36.5368 25.8052C36.1813 25.8052 35.9094 25.8052 35.6375 25.8262C35.3656 25.8472 35.0937 25.8472 34.7381 25.8893C34.3826 25.679 34.1107 25.5108 33.8388 25.3216C33.5669 25.1533 33.295 24.9851 32.9395 24.7328C32.9395 24.4595 32.9395 24.2492 32.9395 24.06C32.9395 23.8707 32.9395 23.6394 32.9395 23.3661Z" fill="#717171"/>
<path d="M28.7988 21.8101C29.1544 21.768 29.4263 21.768 29.6982 21.747C29.9701 21.726 30.242 21.726 30.5975 21.705C30.9531 21.9993 31.225 22.2306 31.4969 22.4409C31.7688 22.6512 32.0407 22.8614 32.3962 23.1558C32.3962 23.4291 32.3962 23.6394 32.3962 23.8497C32.3962 24.0599 32.3962 24.2702 32.3962 24.5435C32.0407 24.5856 31.7688 24.6066 31.4969 24.6487C31.225 24.6907 30.9531 24.7328 30.5975 24.7748C30.242 24.5225 29.9701 24.3333 29.6982 24.144C29.4263 23.9548 29.1544 23.7445 28.7988 23.4712C28.7988 23.1348 28.7988 22.8824 28.7988 22.6301C28.7988 22.3778 28.7988 22.1465 28.7988 21.8101Z" fill="#717171"/>
<path d="M24.6562 20.2542C25.0118 20.1911 25.2837 20.149 25.5556 20.107C25.8275 20.0649 26.0994 20.0439 26.4549 20.0018C26.8105 20.3383 27.0824 20.5906 27.3543 20.8219C27.6262 21.0532 27.8981 21.3055 28.2536 21.5999C28.2536 21.9363 28.2536 22.2096 28.2536 22.4619C28.2536 22.7143 28.2536 22.9876 28.2536 23.324C27.8981 23.3871 27.6262 23.4502 27.3543 23.5133C27.0824 23.5764 26.8105 23.6394 26.4549 23.7235C26.0994 23.4502 25.8275 23.2189 25.5556 23.0086C25.2837 22.7984 25.0118 22.5671 24.6562 22.2517C24.6562 21.8522 24.6562 21.5578 24.6562 21.2634C24.6562 20.948 24.6562 20.6537 24.6562 20.2542Z" fill="#717171"/>
<path d="M16.396 21.5999C16.7516 21.2845 17.0235 21.0532 17.2954 20.8219C17.5673 20.5906 17.8392 20.3383 18.1947 20.0018C18.5503 20.0439 18.8222 20.0649 19.0941 20.107C19.3659 20.149 19.6378 20.1911 19.9934 20.2542C19.9934 20.6537 19.9934 20.948 19.9934 21.2424C19.9934 21.5368 19.9934 21.8311 19.9934 22.2307C19.6378 22.546 19.3659 22.7563 19.0941 22.9876C18.8222 23.1979 18.5503 23.4292 18.1947 23.7025C17.8392 23.6184 17.5673 23.5553 17.2954 23.4922C17.0235 23.4292 16.7516 23.3871 16.396 23.324C16.396 22.9876 16.396 22.7143 16.396 22.4619C16.3751 22.2096 16.396 21.9573 16.396 21.5999Z" fill="#717171"/>
<path d="M12.2559 23.1558C12.6114 22.8825 12.8833 22.6722 13.1552 22.4619C13.4271 22.2517 13.699 22.0204 14.0546 21.726C14.4101 21.726 14.682 21.747 14.9539 21.7681C15.2258 21.7891 15.4977 21.7891 15.8532 21.8311C15.8532 22.1676 15.8532 22.4199 15.8532 22.6722C15.8532 22.9245 15.8532 23.1768 15.8532 23.5133C15.4977 23.7866 15.2258 23.9969 14.9539 24.1861C14.682 24.3754 14.4101 24.5646 14.0546 24.8169C13.699 24.7538 13.4271 24.7118 13.1552 24.6908C12.8833 24.6487 12.6114 24.6277 12.2559 24.5856C12.2559 24.3123 12.2559 24.102 12.2559 23.8918C12.2559 23.6394 12.2559 23.4292 12.2559 23.1558Z" fill="#717171"/>
<path d="M8.11328 24.7118C8.46884 24.4595 8.74073 24.2702 9.01263 24.081C9.28452 23.8918 9.55642 23.6815 9.91197 23.4292C10.2675 23.4081 10.5394 23.3871 10.8113 23.3871C11.0832 23.3871 11.3551 23.3661 11.7107 23.3661C11.7107 23.6394 11.7107 23.8497 11.7107 24.0389C11.7107 24.2282 11.7107 24.4384 11.7107 24.7118C11.3551 24.9641 11.0832 25.1323 10.8113 25.3005C10.5394 25.4687 10.2675 25.637 9.91197 25.8683C9.55642 25.8472 9.28452 25.8262 9.01263 25.8052C8.74073 25.7841 8.46884 25.7841 8.11328 25.7841C8.11328 25.3636 8.11328 25.1323 8.11328 24.7118Z" fill="#717171"/>
<path d="M32.9395 26.3518C33.295 26.2888 33.5669 26.2467 33.8388 26.2257C34.1107 26.1836 34.3826 26.1626 34.7381 26.1205C35.0937 26.3308 35.3656 26.478 35.6375 26.6252C35.9094 26.7724 36.1813 26.9196 36.5368 27.1088C36.5368 27.5504 36.5368 27.7606 36.5368 28.2022C36.1813 28.2653 35.9094 28.3073 35.6375 28.3704C35.3656 28.4335 35.0937 28.4965 34.7381 28.5807C34.3826 28.4335 34.1107 28.3073 33.8388 28.1811C33.5669 28.055 33.295 27.9288 32.9395 27.7396C32.9395 27.4662 32.9395 27.256 32.9395 27.0667C32.9395 26.8354 32.9395 26.6252 32.9395 26.3518Z" fill="#717171"/>
<path d="M28.7988 25.4898C29.1544 25.4057 29.4263 25.3426 29.6982 25.2795C29.9701 25.2164 30.242 25.1534 30.5975 25.0903C30.9531 25.3426 31.225 25.5108 31.4969 25.679C31.7688 25.8472 32.0407 26.0154 32.3962 26.2257C32.3962 26.4991 32.3962 26.7093 32.3962 26.9196C32.3962 27.1298 32.3962 27.3401 32.3962 27.6135C32.0407 27.6976 31.7688 27.7817 31.4969 27.8658C31.225 27.9499 30.9531 28.034 30.5975 28.1602C30.242 27.9709 29.9701 27.8237 29.6982 27.6765C29.4263 27.5294 29.1544 27.3822 28.7988 27.1509C28.7988 26.8145 28.7988 26.5621 28.7988 26.3098C28.7988 26.0785 28.7988 25.8262 28.7988 25.4898Z" fill="#717171"/>
<path d="M24.6562 24.6487C25.0118 24.5225 25.2837 24.4384 25.5556 24.3543C25.8275 24.2702 26.0994 24.1861 26.4549 24.102C26.8105 24.3753 27.0824 24.5646 27.3543 24.7748C27.6262 24.9641 27.8981 25.1533 28.2536 25.4056C28.2536 25.7421 28.2536 26.0154 28.2536 26.2677C28.2536 26.52 28.2536 26.7934 28.2536 27.1298C27.8981 27.256 27.6262 27.3611 27.3543 27.4662C27.0824 27.5714 26.8105 27.6765 26.4549 27.8237C26.0994 27.6134 25.8275 27.4242 25.5556 27.256C25.2837 27.0878 25.0118 26.8985 24.6562 26.6672C24.6562 26.2677 24.6562 25.9734 24.6562 25.679C24.6562 25.3426 24.6562 25.0482 24.6562 24.6487Z" fill="#717171"/>
<path d="M16.3965 25.3846C16.752 25.1323 17.0239 24.9431 17.2958 24.7538C17.5677 24.5646 17.8396 24.3543 18.1952 24.081C18.5507 24.1861 18.8226 24.2492 19.0945 24.3333C19.3664 24.4174 19.6383 24.5015 19.9939 24.6277C19.9939 25.0272 19.9939 25.3216 19.9939 25.6159C19.9939 25.9103 19.9939 26.2047 19.9939 26.6042C19.6383 26.8565 19.3664 27.0247 19.0945 27.1929C18.8226 27.3611 18.5507 27.5294 18.1952 27.7606C17.8396 27.6135 17.5677 27.5083 17.2958 27.4032C17.0239 27.2981 16.752 27.1929 16.3965 27.0668C16.3965 26.7303 16.3965 26.457 16.3965 26.2047C16.3965 25.9944 16.3965 25.7211 16.3965 25.3846Z" fill="#717171"/>
<path d="M12.2559 26.2467C12.6114 26.0364 12.8833 25.8682 13.1552 25.7C13.4271 25.5318 13.699 25.3636 14.0546 25.1113C14.4101 25.1743 14.682 25.2374 14.9539 25.3005C15.2258 25.3636 15.4977 25.4267 15.8532 25.5108C15.8532 25.8472 15.8532 26.0995 15.8532 26.3518C15.8532 26.6042 15.8532 26.8565 15.8532 27.1929C15.4977 27.4032 15.2258 27.5714 14.9539 27.7186C14.682 27.8658 14.4101 28.0129 14.0546 28.2022C13.699 28.076 13.4271 27.9919 13.1552 27.9078C12.8833 27.8237 12.6114 27.7606 12.2559 27.6555C12.2559 27.3821 12.2559 27.1719 12.2559 26.9616C12.2559 26.7303 12.2559 26.52 12.2559 26.2467Z" fill="#717171"/>
<path d="M8.11328 27.0878C8.46884 26.8986 8.74073 26.7514 9.01263 26.6042C9.28452 26.457 9.55642 26.3098 9.91197 26.0995C10.2675 26.1416 10.5394 26.1626 10.8113 26.2047C11.0832 26.2467 11.3551 26.2888 11.7107 26.3308C11.7107 26.6042 11.7107 26.8145 11.7107 27.0037C11.7107 27.214 11.7107 27.4032 11.7107 27.6765C11.3551 27.8658 11.0832 27.9919 10.8113 28.1181C10.5394 28.2443 10.2675 28.3704 9.91197 28.5176C9.55642 28.4335 9.28452 28.3704 9.01263 28.3073C8.74073 28.2443 8.46884 28.2022 8.11328 28.1391C8.11328 27.7396 8.11328 27.5294 8.11328 27.0878Z" fill="#717171"/>
<path d="M32.9395 29.3376C33.295 29.2115 33.5669 29.1274 33.8388 29.0433C34.1107 28.9592 34.3826 28.8751 34.7381 28.791C35.0937 28.9381 35.3656 29.0433 35.6375 29.1484C35.9094 29.2535 36.1813 29.3587 36.5368 29.4638C36.5368 29.9054 36.5368 30.1156 36.5368 30.5572C36.1813 30.6833 35.9094 30.7885 35.6375 30.8726C35.3656 30.9777 35.0937 31.0829 34.7381 31.23C34.3826 31.1249 34.1107 31.0618 33.8388 30.9777C33.5669 30.8936 33.295 30.8095 32.9395 30.6833C32.9395 30.41 32.9395 30.1997 32.9395 30.0105C32.9395 29.8213 32.9395 29.611 32.9395 29.3376Z" fill="#717171"/>
<path d="M28.7988 29.1905C29.1544 29.0433 29.4263 28.9171 29.6982 28.833C29.9701 28.7279 30.242 28.6227 30.5975 28.4966C30.9531 28.6858 31.225 28.812 31.4969 28.9381C31.7688 29.0643 32.0407 29.1905 32.3962 29.3376C32.3962 29.611 32.3962 29.8213 32.3962 30.0315C32.3962 30.2418 32.3962 30.4521 32.3962 30.7254C32.0407 30.8726 31.7688 30.9987 31.4969 31.1249C31.225 31.2511 30.9531 31.3772 30.5975 31.5665C30.242 31.4403 29.9701 31.3352 29.6982 31.23C29.4263 31.1249 29.1544 31.0198 28.7988 30.8726C28.7988 30.5362 28.7988 30.2838 28.7988 30.0315C28.7988 29.7792 28.7988 29.5269 28.7988 29.1905Z" fill="#717171"/>
<path d="M24.6562 29.0222C25.0118 28.833 25.2837 28.7068 25.5556 28.5807C25.8275 28.4545 26.0994 28.3284 26.4549 28.1602C26.8105 28.3704 27.0824 28.5176 27.3543 28.6858C27.6262 28.833 27.8981 28.9802 28.2536 29.1694C28.2536 29.5059 28.2536 29.7792 28.2536 30.0315C28.2536 30.2838 28.2536 30.5362 28.2536 30.8936C27.8981 31.0829 27.6262 31.23 27.3543 31.3772C27.0824 31.5244 26.8105 31.6716 26.4549 31.8819C26.0994 31.7347 25.8275 31.6085 25.5556 31.4613C25.2837 31.3352 25.0118 31.209 24.6562 31.0198C24.6562 30.6203 24.6562 30.3259 24.6562 30.0315C24.6562 29.7161 24.6562 29.4218 24.6562 29.0222Z" fill="#717171"/>
<path d="M16.3965 29.1694C16.752 28.9802 17.0239 28.833 17.2958 28.6858C17.5677 28.5386 17.8396 28.3914 18.1952 28.1602C18.5507 28.3284 18.8226 28.4335 19.0945 28.5807C19.3664 28.7068 19.6383 28.833 19.9939 29.0222C19.9939 29.4218 19.9939 29.7161 19.9939 30.0105C19.9939 30.3049 19.9939 30.5992 19.9939 30.9987C19.6383 31.188 19.3664 31.3141 19.0945 31.4403C18.8226 31.5665 18.5507 31.6926 18.1952 31.8608C17.8396 31.6506 17.5677 31.5034 17.2958 31.3562C17.0239 31.209 16.752 31.0618 16.3965 30.8726C16.3965 30.5362 16.3965 30.2628 16.3965 30.0105C16.3965 29.7582 16.3965 29.5059 16.3965 29.1694Z" fill="#717171"/>
<path d="M12.2559 29.3166C12.6114 29.1694 12.8833 29.0432 13.1552 28.9171C13.4271 28.7909 13.699 28.6648 14.0546 28.4755C14.4101 28.6017 14.682 28.7068 14.9539 28.812C15.2258 28.9171 15.4977 29.0222 15.8532 29.1694C15.8532 29.5058 15.8532 29.7581 15.8532 30.0105C15.8532 30.2628 15.8532 30.5151 15.8532 30.8515C15.4977 30.9987 15.2258 31.1249 14.9539 31.209C14.682 31.3141 14.4101 31.4192 14.0546 31.5454C13.699 31.3562 13.4271 31.23 13.1552 31.1038C12.8833 30.9777 12.6114 30.8515 12.2559 30.7043C12.2559 30.431 12.2559 30.2207 12.2559 30.0105C12.2559 29.8212 12.2559 29.611 12.2559 29.3166Z" fill="#717171"/>
<path d="M8.11328 29.4848C8.46884 29.3586 8.74073 29.2535 9.01263 29.1694C9.28452 29.0643 9.55642 28.9591 9.91197 28.812C10.2675 28.9171 10.5394 28.9802 10.8113 29.0643C11.0832 29.1484 11.3551 29.2325 11.7107 29.3586C11.7107 29.632 11.7107 29.8423 11.7107 30.0315C11.7107 30.2207 11.7107 30.431 11.7107 30.7043C11.3551 30.8305 11.0832 30.9146 10.8113 30.9987C10.5394 31.0828 10.2675 31.1669 9.91197 31.251C9.55642 31.1039 9.28452 30.9987 9.01263 30.8936C8.74073 30.7885 8.46884 30.6833 8.11328 30.5782C8.11328 30.1366 8.11328 29.9264 8.11328 29.4848Z" fill="#717171"/>
<path d="M32.9395 32.3444C33.295 32.1552 33.5669 32.029 33.8388 31.9029C34.1107 31.7767 34.3826 31.6505 34.7381 31.5034C35.0937 31.5875 35.3656 31.6505 35.6375 31.7136C35.9094 31.7767 36.1813 31.8188 36.5368 31.8818C36.5368 32.3234 36.5368 32.5337 36.5368 32.9752C36.1813 33.1645 35.9094 33.2906 35.6375 33.4588C35.3656 33.606 35.0937 33.7532 34.7381 33.9635C34.3826 33.9214 34.1107 33.9004 33.8388 33.8583C33.5669 33.8163 33.295 33.7742 32.9395 33.7111C32.9395 33.4378 32.9395 33.2275 32.9395 33.0383C32.9395 32.807 32.9395 32.6178 32.9395 32.3444Z" fill="#717171"/>
<path d="M28.7988 32.8701C29.1544 32.6599 29.4263 32.5127 29.6982 32.3445C29.9701 32.1973 30.242 32.0501 30.5975 31.8608C30.9531 31.987 31.225 32.0711 31.4969 32.1342C31.7688 32.2183 32.0407 32.3024 32.3962 32.3865C32.3962 32.6599 32.3962 32.8701 32.3962 33.0804C32.3962 33.2906 32.3962 33.5009 32.3962 33.7743C32.0407 33.9845 31.7688 34.1527 31.4969 34.321C31.225 34.4892 30.9531 34.6574 30.5975 34.9097C30.242 34.8466 29.9701 34.7835 29.6982 34.7205C29.4263 34.6574 29.1544 34.5943 28.7988 34.5102C28.7988 34.1738 28.7988 33.9214 28.7988 33.6691C28.7988 33.4589 28.7988 33.2065 28.7988 32.8701Z" fill="#717171"/>
<path d="M24.6562 33.4168C25.0118 33.1645 25.2837 32.9962 25.5556 32.828C25.8275 32.6598 26.0994 32.4916 26.4549 32.2603C26.8105 32.4075 27.0824 32.5126 27.3543 32.6178C27.6262 32.7229 27.8981 32.828 28.2536 32.9542C28.2536 33.2906 28.2536 33.564 28.2536 33.8163C28.2536 34.0686 28.2536 34.3209 28.2536 34.6784C27.8981 34.9307 27.6262 35.1199 27.3543 35.3092C27.0824 35.4984 26.8105 35.7087 26.4549 35.982C26.0994 35.8769 25.8275 35.8138 25.5556 35.7297C25.2837 35.6456 25.0118 35.5615 24.6562 35.4353C24.6562 35.0358 24.6562 34.7415 24.6562 34.4471C24.6562 34.1107 24.6562 33.8163 24.6562 33.4168Z" fill="#717171"/>
<path d="M16.3965 32.9542C16.752 32.828 17.0239 32.7229 17.2958 32.6178C17.5677 32.5126 17.8396 32.4075 18.1952 32.2603C18.5507 32.4706 18.8226 32.6598 19.0945 32.828C19.3664 32.9962 19.6383 33.1855 19.9939 33.4168C19.9939 33.8163 19.9939 34.1107 19.9939 34.405C19.9939 34.6994 19.9939 34.9938 19.9939 35.3933C19.6383 35.5194 19.3664 35.6035 19.0945 35.6876C18.8226 35.7718 18.5507 35.8559 18.1952 35.94C17.8396 35.6666 17.5677 35.4774 17.2958 35.2671C17.0239 35.0779 16.752 34.8886 16.3965 34.6363C16.3965 34.2999 16.3965 34.0265 16.3965 33.7742C16.3965 33.5429 16.3965 33.2906 16.3965 32.9542Z" fill="#717171"/>
<path d="M12.2559 32.4075C12.6114 32.3234 12.8833 32.2393 13.1552 32.1552C13.4271 32.0711 13.699 31.987 14.0546 31.8818C14.4101 32.0711 14.682 32.2183 14.9539 32.3654C15.2258 32.5126 15.4977 32.6808 15.8532 32.8911C15.8532 33.2275 15.8532 33.4799 15.8532 33.7322C15.8532 33.9845 15.8532 34.2368 15.8532 34.5732C15.4977 34.6573 15.2258 34.7204 14.9539 34.7835C14.682 34.8466 14.4101 34.8886 14.0546 34.9727C13.699 34.7415 13.4271 34.5522 13.1552 34.384C12.8833 34.2158 12.6114 34.0476 12.2559 33.8373C12.2559 33.564 12.2559 33.3537 12.2559 33.1434C12.2559 32.9332 12.2559 32.6808 12.2559 32.4075Z" fill="#717171"/>
<path d="M8.11328 31.8608C8.46884 31.7978 8.74073 31.7557 9.01263 31.6926C9.28452 31.6295 9.55642 31.5665 9.91197 31.4824C10.2675 31.6295 10.5394 31.7557 10.8113 31.8819C11.0832 32.008 11.3551 32.1342 11.7107 32.3234C11.7107 32.5968 11.7107 32.807 11.7107 32.9963C11.7107 33.2065 11.7107 33.3958 11.7107 33.6691C11.3551 33.7322 11.0832 33.7743 10.8113 33.8163C10.5394 33.8584 10.2675 33.8794 9.91197 33.9214C9.55642 33.7112 9.28452 33.564 9.01263 33.4168C8.74073 33.2696 8.46884 33.1224 8.11328 32.9332C8.11328 32.5127 8.11328 32.3024 8.11328 31.8608Z" fill="#717171"/>
<path d="M32.9395 35.3302C33.295 35.0779 33.5669 34.9097 33.8388 34.7415C34.1107 34.5733 34.3826 34.4051 34.7381 34.1738C35.0937 34.1948 35.3656 34.2158 35.6375 34.2368C35.9094 34.2579 36.1813 34.2579 36.5368 34.2579C36.5368 34.6994 36.5368 34.9097 36.5368 35.3513C36.1813 35.6036 35.9094 35.7928 35.6375 35.9821C35.3656 36.1713 35.0937 36.3816 34.7381 36.6339C34.3826 36.6549 34.1107 36.6759 33.8388 36.6759C33.5669 36.6759 33.295 36.697 32.9395 36.697C32.9395 36.4236 32.9395 36.2133 32.9395 36.0241C32.9395 35.8138 32.9395 35.6036 32.9395 35.3302Z" fill="#717171"/>
<path d="M28.7988 36.5708C29.1544 36.2975 29.4263 36.0872 29.6982 35.8979C29.9701 35.7087 30.242 35.5195 30.5975 35.2672C30.9531 35.3302 31.225 35.3723 31.4969 35.3933C31.7688 35.4354 32.0407 35.4564 32.3962 35.4984C32.3962 35.7718 32.3962 35.9821 32.3962 36.1923C32.3962 36.4026 32.3962 36.6129 32.3962 36.8862C32.0407 37.1595 31.7688 37.3698 31.4969 37.6011C31.225 37.8114 30.9531 38.0427 30.5975 38.337C30.242 38.337 29.9701 38.316 29.6982 38.316C29.4263 38.295 29.1544 38.295 28.7988 38.2529C28.7988 37.9165 28.7988 37.6642 28.7988 37.4119C28.7988 37.1595 28.7988 36.9072 28.7988 36.5708Z" fill="#717171"/>
<path d="M24.6562 37.7903C25.0118 37.4749 25.2837 37.2647 25.5556 37.0334C25.8275 36.8231 26.0994 36.5918 26.4549 36.3185C26.8105 36.4026 27.0824 36.4657 27.3543 36.5287C27.6262 36.5918 27.8981 36.6339 28.2536 36.697C28.2536 37.0334 28.2536 37.3067 28.2536 37.5591C28.2536 37.8114 28.2536 38.0847 28.2536 38.4211C27.8981 38.7365 27.6262 38.9678 27.3543 39.1991C27.0824 39.4304 26.8105 39.6827 26.4549 40.0192C26.0994 39.9771 25.8275 39.9561 25.5556 39.914C25.2837 39.872 25.0118 39.8299 24.6562 39.7668C24.6562 39.3673 24.6562 39.073 24.6562 38.7786C24.6562 38.4842 24.6562 38.1898 24.6562 37.7903Z" fill="#717171"/>
<path d="M16.3965 36.718C16.752 36.6549 17.0239 36.5918 17.2958 36.5287C17.5677 36.4657 17.8396 36.4026 18.1952 36.3185C18.5507 36.5918 18.8226 36.8231 19.0945 37.0334C19.3664 37.2437 19.6383 37.4749 19.9939 37.7903C19.9939 38.1898 19.9939 38.4842 19.9939 38.7786C19.9939 39.073 19.9939 39.3673 19.9939 39.7668C19.6383 39.8299 19.3664 39.872 19.0945 39.914C18.8226 39.9561 18.5507 39.9981 18.1952 40.0192C17.8396 39.6827 17.5677 39.4304 17.2958 39.1991C17.0239 38.9678 16.752 38.7155 16.3965 38.4211C16.3965 38.0847 16.3965 37.8114 16.3965 37.5591C16.3965 37.3067 16.3965 37.0754 16.3965 36.718Z" fill="#717171"/>
<path d="M12.2559 35.4984C12.6114 35.4564 12.8833 35.4354 13.1552 35.3933C13.4271 35.3513 13.699 35.3302 14.0546 35.2672C14.4101 35.5195 14.682 35.7087 14.9539 35.8979C15.2258 36.0872 15.4977 36.2975 15.8532 36.5708C15.8532 36.9072 15.8532 37.1595 15.8532 37.4119C15.8532 37.6642 15.8532 37.9165 15.8532 38.2529C15.4977 38.295 15.2258 38.295 14.9539 38.316C14.682 38.337 14.4101 38.337 14.0546 38.337C13.699 38.0427 13.4271 37.8114 13.1552 37.6011C12.8833 37.3908 12.6114 37.1806 12.2559 36.8862C12.2559 36.6129 12.2559 36.4026 12.2559 36.1923C12.2559 35.9821 12.2559 35.7718 12.2559 35.4984Z" fill="#717171"/>
<path d="M8.11328 34.2579C8.46884 34.2579 8.74073 34.2579 9.01263 34.2368C9.28452 34.2158 9.55642 34.2158 9.91197 34.1738C10.2675 34.384 10.5394 34.5522 10.8113 34.7415C11.0832 34.9097 11.3551 35.0989 11.7107 35.3302C11.7107 35.6036 11.7107 35.8138 11.7107 36.0031C11.7107 36.2133 11.7107 36.4026 11.7107 36.6759C11.3551 36.6759 11.0832 36.6759 10.8113 36.6549C10.5394 36.6549 10.2675 36.6339 9.91197 36.6129C9.55642 36.3395 9.28452 36.1503 9.01263 35.961C8.74073 35.7718 8.46884 35.5825 8.11328 35.3302C8.11328 34.9097 8.11328 34.6994 8.11328 34.2579Z" fill="#717171"/>
<path d="M32.9395 38.316C33.295 38.0216 33.5669 37.7903 33.8388 37.5801C34.1107 37.3698 34.3826 37.1385 34.7381 36.8652C35.0937 36.8441 35.3656 36.8021 35.6375 36.7811C35.9094 36.739 36.1813 36.718 36.5368 36.6549C36.5368 37.0965 36.5368 37.3067 36.5368 37.7483C36.1813 38.0427 35.9094 38.295 35.6375 38.5263C35.3656 38.7576 35.0937 39.0099 34.7381 39.3463C34.3826 39.4304 34.1107 39.4935 33.8388 39.5566C33.5669 39.6197 33.295 39.6617 32.9395 39.7248C32.9395 39.4514 32.9395 39.2412 32.9395 39.0519C32.9395 38.7996 32.9395 38.5894 32.9395 38.316Z" fill="#717171"/>
<path d="M28.7988 40.2505C29.1544 39.914 29.4263 39.6617 29.6982 39.4304C29.9701 39.1991 30.242 38.9468 30.5975 38.6524C30.9531 38.6524 31.225 38.6524 31.4969 38.6314C31.7688 38.6314 32.0407 38.6104 32.3962 38.5894C32.3962 38.8627 32.3962 39.073 32.3962 39.2832C32.3962 39.4935 32.3962 39.7038 32.3962 39.9771C32.0407 40.3135 31.7688 40.5659 31.4969 40.8392C31.225 41.0915 30.9531 41.3649 30.5975 41.7223C30.242 41.7854 29.9701 41.8064 29.6982 41.8485C29.4263 41.8905 29.1544 41.9116 28.7988 41.9326C28.7988 41.5962 28.7988 41.3438 28.7988 41.0915C28.7988 40.8392 28.7988 40.5869 28.7988 40.2505Z" fill="#717171"/>
<path d="M24.6562 42.1849C25.0118 41.8274 25.2837 41.5541 25.5556 41.2807C25.8275 41.0074 26.0994 40.7551 26.4549 40.4186C26.8105 40.4397 27.0824 40.4607 27.3543 40.4817C27.6262 40.5027 27.8981 40.5027 28.2536 40.5027C28.2536 40.8392 28.2536 41.1125 28.2536 41.3648C28.2536 41.6172 28.2536 41.8905 28.2536 42.2269C27.8981 42.5844 27.6262 42.8788 27.3543 43.1521C27.0824 43.4465 26.8105 43.7198 26.4549 44.1193C26.0994 44.1403 25.8275 44.1614 25.5556 44.1614C25.2837 44.1614 25.0118 44.1824 24.6562 44.1614C24.6562 43.7619 24.6562 43.4675 24.6562 43.1731C24.6562 42.8788 24.6562 42.5844 24.6562 42.1849Z" fill="#717171"/>
<path d="M20.5156 15.5862L22.3143 13.5256L24.113 15.5862V17.6258L22.3143 17.8571L20.5156 17.6258V15.5862Z" fill="#717171"/>
<path d="M20.5156 20.0649L22.3143 18.2986L24.113 20.0649V22.0834L22.3143 22.6511L20.5156 22.0834V20.0649Z" fill="#717171"/>
<path d="M20.5156 24.5436L22.3143 23.0717L24.113 24.5436V26.5621L22.3143 27.4242L20.5156 26.5621V24.5436Z" fill="#717171"/>
<path d="M20.5156 29.0012L22.3143 27.8447L24.113 29.0012V31.0408L22.3143 32.1972L20.5156 31.0408V29.0012Z" fill="#717171"/>
<path d="M20.5156 33.4799L22.3143 32.6388L24.113 33.4799V35.5194L22.3143 36.9703L20.5156 35.5194V33.4799Z" fill="#717171"/>
<path d="M20.5156 37.9586L22.3143 37.4119L24.113 37.9586V39.9981L22.3143 41.7433L20.5156 39.9981V37.9586Z" fill="#717171"/>
<path d="M20.5156 42.4372L22.3143 42.1849L24.113 42.4372V44.4768L22.3143 46.5374C22.3143 46.5374 20.7457 44.7501 20.5156 44.4768C20.5156 44.0562 20.5156 42.4372 20.5156 42.4372Z" fill="#717171"/>
<path d="M16.3965 40.5027C16.752 40.5027 17.0239 40.4817 17.2958 40.4817C17.5677 40.4607 17.8396 40.4607 18.1952 40.4186C18.5507 40.7551 18.8226 41.0284 19.0945 41.2807C19.3664 41.5541 19.6383 41.8064 19.9939 42.1849C19.9939 42.5844 19.9939 42.8788 19.9939 43.1731C19.9939 43.4675 19.9939 43.7619 19.9939 44.1614C19.6383 44.1614 19.3664 44.1614 19.0945 44.1614C18.8226 44.1614 18.5507 44.1403 18.1952 44.1193C17.8396 43.7198 17.5677 43.4254 17.2958 43.1521C17.0239 42.8577 16.752 42.5844 16.3965 42.2269C16.3965 41.8905 16.3965 41.6172 16.3965 41.3648C16.3965 41.1125 16.3965 40.8392 16.3965 40.5027Z" fill="#717171"/>
<path d="M12.2559 38.5683C12.6114 38.5893 12.8833 38.6104 13.1552 38.6104C13.4271 38.6104 13.699 38.6314 14.0546 38.6314C14.4101 38.9468 14.682 39.1781 14.9539 39.4094C15.2258 39.6407 15.4977 39.893 15.8532 40.2294C15.8532 40.5658 15.8532 40.8181 15.8532 41.0705C15.8532 41.3228 15.8532 41.5751 15.8532 41.9115C15.4977 41.8905 15.2258 41.8484 14.9539 41.8274C14.682 41.8064 14.4101 41.7643 14.0546 41.7013C13.699 41.3438 13.4271 41.0705 13.1552 40.8181C12.8833 40.5658 12.6114 40.2925 12.2559 39.9561C12.2559 39.6827 12.2559 39.4724 12.2559 39.2622C12.2559 39.0729 12.2559 38.8627 12.2559 38.5683Z" fill="#717171"/>
<path d="M8.11328 36.6549C8.46884 36.718 8.74073 36.76 9.01263 36.7811C9.28452 36.8231 9.55642 36.8441 9.91197 36.8652C10.2675 37.1385 10.5394 37.3488 10.8113 37.5801C11.0832 37.7903 11.3551 38.0216 11.7107 38.316C11.7107 38.5894 11.7107 38.7996 11.7107 38.9889C11.7107 39.1991 11.7107 39.3884 11.7107 39.6617C11.3551 39.5986 11.0832 39.5566 10.8113 39.4935C10.5394 39.4304 10.2675 39.3884 9.91197 39.2832C9.55642 38.9468 9.28452 38.7155 9.01263 38.4632C8.74073 38.2319 8.46884 37.9796 8.11328 37.6852C8.11328 37.3067 8.11328 37.0754 8.11328 36.6549Z" fill="#717171"/>
</svg>
