<svg width="140" height="60" viewBox="0 0 140 60" fill="none" xmlns="http://www.w3.org/2000/svg">
<g clip-path="url(#clip0_321_20680)">
<path d="M4.84298 34.869C3.93284 34.8781 3.02408 34.7965 2.13045 34.6256C1.43247 34.5088 0.752426 34.3042 0.106809 34.017L-0.00390625 33.9622L0.715746 30.9195H1.20782L1.25087 30.956C1.41372 31.0975 1.58637 31.2277 1.76754 31.3454C2.0475 31.5254 2.34658 31.6744 2.65942 31.7897C3.03479 31.9464 3.42393 32.0686 3.82194 32.1548C4.28554 32.2626 4.76041 32.3157 5.23664 32.313C5.81018 32.3429 6.3838 32.2559 6.92198 32.0575C7.19756 31.975 7.39325 31.733 7.41405 31.4489C7.41405 31.3272 7.41405 31.1507 7.08805 31.0047C6.54384 30.7954 5.9819 30.6345 5.40886 30.5239C4.29939 30.3474 3.24655 29.9182 2.33343 29.2703C1.77698 28.7995 1.46134 28.108 1.4723 27.3837C1.45447 26.1615 2.10313 25.0244 3.16994 24.4079C4.54016 23.6367 6.10396 23.2673 7.67853 23.3429C8.5047 23.3447 9.32871 23.4263 10.1389 23.5863C10.7732 23.6888 11.3928 23.8666 11.9841 24.1158L12.0949 24.1706L11.406 27.1038H10.9323H10.8954C10.408 26.742 9.86347 26.4624 9.28391 26.2762C8.66069 26.0628 8.00586 25.9538 7.34639 25.9536C6.78967 25.9284 6.23347 26.0133 5.71025 26.2031C5.41482 26.2967 5.21214 26.5657 5.20588 26.8725C5.20588 27.0855 5.34735 27.2499 5.63029 27.3777C6.14136 27.5715 6.66812 27.7222 7.20492 27.828C8.27156 28.0006 9.2923 28.3835 10.2065 28.9538C10.8389 29.417 11.1982 30.16 11.1661 30.9377C11.1791 32.1587 10.5191 33.2898 9.44383 33.8892C8.03409 34.638 6.43926 34.9776 4.84298 34.869Z" fill="#717171"/>
<path d="M19.436 34.8888L20.7122 29.405C20.8042 29.0028 20.8717 28.6616 20.9208 28.3813C20.9669 28.1422 20.9915 27.8996 20.9944 27.6562C21.0265 27.3619 20.928 27.0682 20.7245 26.8519C20.4086 26.6537 20.0344 26.5678 19.663 26.6082C19.355 26.6163 19.0504 26.6739 18.761 26.7788C18.3755 26.9094 18.0019 27.0725 17.6443 27.2662L15.8834 34.8888H12.0977L15.6073 19.7777H19.3869L18.2027 24.9021C18.7282 24.5642 19.2777 24.2649 19.8471 24.0064C20.4776 23.7331 21.1594 23.596 21.8473 23.6042C22.7013 23.5521 23.5441 23.8195 24.2095 24.3537C24.7917 24.9001 25.1016 25.6738 25.0563 26.468C25.0563 26.6265 25.044 26.8296 25.0195 27.0774C25.0195 27.3272 24.9458 27.577 24.8906 27.8207L23.2462 34.8888H19.436Z" fill="#717171"/>
<path d="M30.1766 34.8863C29.2888 34.9183 28.4204 34.6391 27.7425 34.1038C27.1116 33.5848 26.761 32.8312 26.7858 32.0472C26.7561 31.2627 26.9831 30.4884 27.4366 29.8269C27.929 29.1813 28.6053 28.677 29.3891 28.3709C30.299 28.0089 31.2583 27.766 32.2397 27.649C33.2876 27.5095 34.4395 27.4003 35.6631 27.3336V27.2547C35.6851 27.1713 35.696 27.0858 35.6956 26.9999C35.715 26.6412 35.4795 26.3132 35.1164 26.1931C34.4889 25.993 33.8262 25.9065 33.1639 25.9383C32.5024 25.9474 31.8454 26.0413 31.2114 26.2173C30.4955 26.4054 29.9423 26.5631 29.5843 26.6845H29.1938H28.9986L29.5908 23.8878H29.6885C30.1245 23.7847 30.7949 23.6694 31.6865 23.542C32.5804 23.4145 33.4832 23.3497 34.3875 23.3479C35.7666 23.2704 37.1456 23.5013 38.4096 24.0213C39.2659 24.4392 39.7859 25.2808 39.7438 26.1809C39.7438 26.3144 39.7438 26.4843 39.7112 26.6905C39.6911 26.8767 39.6563 27.0612 39.6071 27.2426L37.7913 34.5951H33.8212L34.0555 33.6488L33.5544 33.9521C33.2587 34.1352 32.9474 34.2955 32.6237 34.4314C32.2689 34.57 31.9034 34.6835 31.5303 34.7711C31.085 34.8558 30.631 34.8945 30.1766 34.8863ZM35.1359 29.5842C34.5632 29.6328 34.0295 29.6874 33.5219 29.748C33.0344 29.798 32.5542 29.8977 32.09 30.0453C31.7497 30.1469 31.4458 30.3337 31.2114 30.5852C31.0083 30.8496 30.9074 31.1704 30.9251 31.4952C30.8953 31.7555 31.0331 32.0076 31.2765 32.1382C31.6485 32.2923 32.0547 32.361 32.461 32.3384C32.8392 32.3312 33.2124 32.2571 33.5609 32.12C33.9403 31.9799 34.3008 31.7987 34.6348 31.5801L35.1359 29.5842Z" fill="#717171"/>
<path d="M39.75 34.8888L42.2429 24.2629H45.9139L45.6045 25.5912C46.1079 25.2403 46.6415 24.9341 47.1991 24.6762C47.8108 24.387 48.4789 24.2339 49.1565 24.2275H49.5611C49.6919 24.2204 49.823 24.2204 49.9538 24.2275H50.1204L49.3112 27.6632H48.9007C48.6887 27.605 48.4715 27.5674 48.2522 27.5511C47.9844 27.5511 47.7226 27.5157 47.4608 27.5157C47.0425 27.5136 46.6246 27.5451 46.2114 27.6101C45.8184 27.6745 45.4306 27.7672 45.0512 27.8876L43.421 34.8534L39.75 34.8888Z" fill="#717171"/>
<path d="M48.3906 38.4444L51.8199 23.6414H55.5648L55.3523 24.5666C55.8264 24.2449 56.3257 23.9618 56.8454 23.72C57.4381 23.4607 58.0797 23.3308 58.727 23.3391C59.6995 23.2811 60.6473 23.6579 61.3126 24.3671C61.9499 25.1595 62.27 26.1591 62.2108 27.1729C62.2115 28.1565 62.0474 29.1334 61.7253 30.0633C61.4312 30.9424 60.981 31.7617 60.3961 32.4821C59.8464 33.1608 59.1705 33.7275 58.4053 34.151C57.6357 34.5581 56.7759 34.766 55.9046 34.7557C55.362 34.7611 54.821 34.694 54.2962 34.5562C53.893 34.4489 53.5039 34.2946 53.137 34.0966L52.1355 38.4383L48.3906 38.4444ZM53.6529 31.8834C53.8334 31.951 54.0206 31.9997 54.2113 32.0286C54.4775 32.0775 54.7477 32.1018 55.0185 32.1011C55.5241 32.1092 56.0235 31.9885 56.4691 31.7504C56.879 31.5285 57.2288 31.2111 57.4888 30.8252C57.7677 30.414 57.9731 29.9578 58.0957 29.4767C58.2436 28.9226 58.3151 28.3509 58.3082 27.7775C58.3351 27.3469 58.213 26.92 57.9622 26.5682C57.6348 26.2656 57.1926 26.118 56.7483 26.163C56.4293 26.1658 56.1132 26.2231 55.8136 26.3323C55.4752 26.4477 55.1447 26.5851 54.8243 26.7435L53.6529 31.8834Z" fill="#717171"/>
<path d="M66.4558 34.8866C65.5738 34.917 64.7114 34.638 64.038 34.1045C63.4073 33.5874 63.0576 32.8332 63.0851 32.0492C63.0527 31.2648 63.279 30.4901 63.7333 29.8302C64.2212 29.1828 64.8955 28.6782 65.6779 28.3751C66.5839 28.0126 67.5395 27.7697 68.5171 27.6536C69.5607 27.5142 70.708 27.4051 71.9267 27.3384V27.2596C71.9375 27.175 71.9375 27.0895 71.9267 27.0049C71.9469 26.6481 71.7153 26.3208 71.3563 26.1986C70.7313 25.9986 70.0713 25.9122 69.4116 25.9439C68.7528 25.953 68.0985 26.0469 67.467 26.2228C66.7475 26.4108 66.203 26.5684 65.84 26.6897H65.4511H65.2566L65.8529 23.8947H65.9502C66.378 23.7916 67.0457 23.6765 67.9402 23.5491C68.8304 23.4215 69.7296 23.3566 70.6303 23.3551C72.0401 23.2577 73.4538 23.4868 74.7464 24.022C75.5792 24.4431 76.0824 25.2715 76.0428 26.1561C76.0401 26.3264 76.0271 26.4965 76.0039 26.6654C75.9826 26.8509 75.9501 27.0351 75.9067 27.2171L74.0982 34.5895H70.1441L70.3839 33.6437L69.8848 33.9468C69.5903 34.1299 69.2803 34.29 68.9579 34.4258C68.6045 34.5643 68.2405 34.6778 67.8689 34.7653C67.4044 34.8564 66.9302 34.8971 66.4558 34.8866ZM71.3951 29.5877C70.8312 29.6362 70.2932 29.6907 69.7941 29.7514C69.3085 29.8013 68.8303 29.9009 68.368 30.0484C68.029 30.15 67.7263 30.3367 67.4929 30.588C67.2854 30.8502 67.1823 31.1718 67.2012 31.4975C67.1733 31.7573 67.3101 32.0085 67.5513 32.1401C67.9224 32.2921 68.3264 32.3606 68.731 32.3402C69.1076 32.333 69.4794 32.2589 69.8265 32.1219C70.2066 31.9823 70.5678 31.8012 70.9025 31.5823L71.3951 29.5877Z" fill="#717171"/>
<path d="M76.9102 39.3333L79.7942 34.9629L77.9909 24.2222H81.8568L82.7523 31.0061L86.6985 24.2222H90.7373L81.0972 39.3333H76.9102Z" fill="#717171"/>
<path d="M120.119 34.8888L122.817 23.9034H126.789L124.092 34.8888H120.119ZM123.023 22.6828L123.725 19.7777H127.897L127.189 22.6828H123.023Z" fill="#717171"/>
<path d="M132.394 34.8777C130.963 34.9638 129.55 34.5469 128.429 33.7081C127.48 32.8745 126.971 31.6899 127.037 30.4707C127.035 29.5375 127.206 28.6112 127.544 27.7336C127.878 26.8801 128.396 26.1003 129.064 25.4427C129.739 24.7788 130.554 24.2551 131.457 23.9054C132.465 23.5205 133.545 23.3298 134.632 23.3447C136.062 23.2578 137.475 23.6676 138.603 24.4962C139.544 25.3169 140.052 26.4864 139.989 27.6914C139.997 28.663 139.814 29.6276 139.45 30.537C138.765 32.2592 137.35 33.6369 135.543 34.3412C134.542 34.7152 133.471 34.8977 132.394 34.8777ZM134.19 25.9491C133.748 25.9395 133.313 26.0528 132.939 26.2747C132.547 26.5177 132.216 26.8388 131.97 27.2152C131.674 27.6549 131.457 28.1377 131.329 28.644C131.181 29.2122 131.107 29.7953 131.111 30.3803C131.055 30.901 131.221 31.4213 131.572 31.8272C131.924 32.1221 132.385 32.2739 132.855 32.2492C133.268 32.2453 133.671 32.137 134.023 31.9357C134.414 31.714 134.747 31.4133 134.998 31.0555C135.298 30.6226 135.525 30.1488 135.672 29.6508C135.838 29.0446 135.916 28.4199 135.903 27.7939C135.938 27.2948 135.791 26.7993 135.486 26.3892C135.143 26.06 134.658 25.8976 134.171 25.9491H134.19Z" fill="#717171"/>
<path d="M105.013 18C100.836 17.9935 96.9763 20.2895 94.8991 24.0161C92.8218 27.7427 92.8458 32.3283 94.9619 36.0317L93.332 41.9999L99.3145 40.4126C103.568 42.872 108.862 42.3427 112.575 39.0869C116.289 35.8311 117.634 30.5395 115.946 25.8311C114.257 21.1228 109.893 17.9966 105.013 18ZM108.409 34.8952C107.588 35.3974 106.676 35.7235 105.729 35.8539L105.192 38.2222H101.698L102.222 35.8857C101.854 35.8502 101.487 35.7951 101.123 35.7206C100.423 35.5977 99.7407 35.3844 99.0923 35.0857L98.9935 35.0349L99.7097 31.8603H100.197L100.234 31.8984C100.376 32.019 100.549 32.1587 100.759 32.3047C101.042 32.49 101.342 32.6453 101.654 32.7682C102.032 32.9289 102.423 33.0563 102.821 33.1491C103.289 33.2589 103.768 33.3121 104.247 33.3079C104.823 33.3515 105.401 33.2626 105.939 33.0476C106.26 32.8917 106.49 32.5873 106.557 32.2285L107.31 28.8761C107.981 29.0593 108.618 29.3576 109.193 29.7587C109.824 30.2413 110.182 31.0139 110.15 31.8222C110.161 33.0972 109.493 34.2763 108.409 34.8952ZM110.372 27.8476H109.909L109.872 27.8158C109.381 27.4407 108.835 27.1492 108.254 26.9523C107.629 26.7303 106.971 26.6166 106.31 26.6158C105.749 26.5897 105.188 26.6782 104.661 26.8761C104.404 27.0001 104.211 27.2312 104.13 27.5111C104.068 27.6888 104.05 27.7777 103.994 27.9872L103.297 31.092C102.581 30.9041 101.911 30.567 101.327 30.1015C100.769 29.6104 100.452 28.8889 100.463 28.1333C100.447 26.8619 101.098 25.6803 102.167 25.0412C102.992 24.5203 103.916 24.1869 104.877 24.0634L105.408 21.7015H108.903L108.372 24.0634C108.625 24.1015 108.884 24.1333 109.143 24.1841C109.767 24.2944 110.377 24.4798 110.959 24.7365L111.063 24.7873L110.372 27.8476Z" fill="#717171"/>
</g>
<defs>
<clipPath id="clip0_321_20680">
<rect width="140" height="24" fill="white" transform="translate(0 18)"/>
</clipPath>
</defs>
</svg>
