<svg width="140" height="60" viewBox="0 0 140 60" fill="none" xmlns="http://www.w3.org/2000/svg">
<g clip-path="url(#clip0_321_20668)">
<path d="M80.1791 28.7686C80.1791 28.8875 80.1791 28.9724 80.1791 29.053C80.1791 32.0539 80.1791 35.0591 80.1791 38.06C80.1791 38.1364 80.1833 38.2171 80.1749 38.2935C80.1412 38.6372 79.9557 38.8155 79.6101 38.8155C78.6491 38.8197 77.6882 38.8197 76.7229 38.8155C76.3647 38.8155 76.1792 38.6415 76.1413 38.285C76.1329 38.2086 76.1371 38.1279 76.1371 38.0515C76.1371 35.0506 76.1371 32.0455 76.1371 29.0446C76.1371 28.9597 76.1371 28.879 76.1371 28.7814C75.5049 28.7347 74.9063 28.7983 74.2994 28.9426C72.6472 29.3375 70.9782 29.6812 69.3175 30.042C69.2627 30.0548 69.2079 30.0717 69.1152 30.093C69.1995 30.1694 69.2627 30.2245 69.3259 30.284C70.1605 31.0098 70.9697 31.761 71.5809 32.6991C71.9181 33.2169 72.2047 33.773 72.0698 34.4012C71.956 34.919 71.7874 35.4411 71.5387 35.9038C70.2026 38.408 68.365 40.4581 65.971 41.9777C65.2081 42.4616 64.3819 42.8181 63.4674 42.903C62.9447 42.9497 62.4178 42.9454 61.891 42.9667C60.6729 43.0176 59.5222 43.3105 58.4896 43.9854C57.7773 44.448 57.0735 44.9192 56.3485 45.3649C55.6151 45.8191 54.8143 46.1246 53.9755 46.303C51.2191 46.8929 48.5342 46.7104 45.9463 45.5219C45.2508 45.1994 44.5933 44.8131 43.9864 44.3334C43.9274 44.2868 43.8389 44.2486 43.763 44.2443C41.5629 44.2061 39.4807 43.6671 37.504 42.712C35.4808 41.7357 33.6854 40.4497 32.2945 38.65C31.6875 37.869 31.2155 37.0116 31.0132 36.0226C30.8108 35.0379 31.0216 34.1168 31.4557 33.2382C31.9952 32.1473 32.8002 31.2645 33.6896 30.4537C33.7444 30.4028 33.7992 30.3519 33.8624 30.2882C32.9056 30.1057 31.9699 29.9401 31.0385 29.7491C27.321 28.9766 23.6709 27.9919 20.2021 26.4045C19.865 26.2516 19.5404 26.0691 19.2032 25.9078C19.0515 25.8356 18.9714 25.7211 19.0093 25.5513C19.0473 25.3942 19.1737 25.3645 19.317 25.3433C22.9966 24.8297 26.6424 24.1421 30.2503 23.2592C35.0973 22.0707 39.8517 20.5682 44.4627 18.6496C46.4647 17.8177 48.4204 16.8881 50.4013 16.0095C50.5531 15.9416 50.5995 15.8567 50.5995 15.6912C50.591 14.9144 50.5952 14.1377 50.5952 13.3609C50.5952 13.0935 50.6964 12.9959 50.9872 13.0001C51.2654 13.0044 51.3624 13.0935 51.3624 13.3524C51.3624 14.1207 51.3666 14.8932 51.3581 15.6615C51.3539 15.8482 51.4003 15.9459 51.5773 16.0265C52.631 16.5019 53.6805 16.9858 54.73 17.4739C57.1704 18.6114 59.6782 19.5665 62.2155 20.4578C65.8108 21.7227 69.4692 22.7668 73.1825 23.6158C75.5807 24.1633 77.9874 24.6515 80.4194 25.008C80.9757 25.0886 81.5489 25.0547 82.1179 25.0716C82.3413 25.0801 82.5689 25.0632 82.7923 25.0844C83.159 25.1141 83.3234 25.2669 83.3318 25.6319C83.3487 26.4935 83.3487 27.3552 83.3318 28.2168C83.3234 28.6031 83.1085 28.7729 82.6869 28.7729C81.9367 28.7772 81.1823 28.7729 80.432 28.7729C80.3519 28.7686 80.2802 28.7686 80.1791 28.7686ZM51.1179 17.7455C50.6037 22.1768 50.6669 26.5955 51.2907 31.0183C51.3454 31.0225 51.3876 31.031 51.4298 31.031C52.18 31.0183 52.9303 31.0183 53.6805 30.997C54.9913 30.9588 56.3021 30.9121 57.613 30.857C58.3252 30.8273 59.0417 30.7806 59.7541 30.7212C60.635 30.649 61.5116 30.5684 62.3883 30.4792C63.1976 30.3986 64.0026 30.3137 64.8077 30.2118C65.659 30.1015 66.5105 29.9826 67.3618 29.8425C68.1205 29.7194 68.8791 29.5879 69.6252 29.4138C70.2237 29.2737 70.7716 28.9979 71.2268 28.5692C71.8337 28.0004 71.8464 27.3467 71.2563 26.7737C70.7084 26.2389 70.0466 25.8569 69.3891 25.4876C67.5684 24.4604 65.6717 23.5946 63.7582 22.7584C60.2219 21.2049 56.6309 19.7914 53.0187 18.4289C52.6984 18.3058 52.3739 18.187 52.0199 18.0554C52.0409 18.1318 52.0451 18.1658 52.0578 18.1955C52.8671 20.5809 53.8322 22.9027 54.9618 25.148C55.6615 26.536 56.4075 27.8985 57.1324 29.2737C57.1873 29.3757 57.2294 29.4818 57.2757 29.5879C57.2505 29.6091 57.2251 29.6261 57.1999 29.6473C57.1409 29.5666 57.0777 29.4818 57.0144 29.4011C54.3886 25.8569 52.5804 21.8925 51.1179 17.7455ZM51.434 38.0939C52.3612 38.234 53.259 38.3868 54.161 38.5057C54.7047 38.5778 55.2569 38.6033 55.7163 38.1958C56.0914 37.8647 56.3148 37.4403 56.4665 36.9692C56.5508 36.706 56.7869 36.5744 57.0186 36.6508C57.28 36.7357 57.419 36.9734 57.3095 37.2323C57.1409 37.6313 56.9722 38.0388 56.7278 38.3911C56.2515 39.0829 55.5856 39.4776 54.7257 39.414C54.0135 39.363 53.3053 39.2825 52.6015 39.1721C51.8597 39.0575 51.1221 38.9174 50.3676 39.0235C49.3435 39.1678 48.3193 39.3291 47.2613 39.4862C47.3203 39.6602 47.3751 39.8809 47.4636 40.0804C47.9905 41.2731 48.9262 42.0202 50.1105 42.4743C51.5225 43.0133 52.9682 43.0474 54.4307 42.7247C55.8638 42.4107 57.1156 41.7739 58.0513 40.594C58.2325 40.3648 58.477 40.2205 58.7636 40.2756C59.0122 40.3223 59.2525 40.4284 59.4885 40.5261C60.4326 40.9038 61.4062 40.9887 62.4137 40.9166C63.4631 40.8402 64.4156 40.5261 65.2586 39.8979C67.0036 38.6075 68.2258 36.9055 69.052 34.9063C69.2922 34.3205 69.444 33.7178 69.2795 33.0769C68.9929 31.9563 68.2933 31.1371 67.4082 30.4495C67.366 30.4155 67.2944 30.4028 67.2396 30.407C66.4725 30.509 65.7012 30.6235 64.9341 30.7254C64.795 30.7424 64.7107 30.7976 64.6601 30.9376C64.5758 31.1838 64.4705 31.4215 64.3736 31.6634C64.1627 32.1813 63.9183 32.6821 63.4884 33.0557C62.7719 33.6754 61.9205 33.7433 61.0354 33.6244C60.2514 33.5183 59.5391 33.1915 58.8268 32.8604C58.2451 32.5888 57.6635 32.2959 57.0523 32.1091C56.0198 31.795 55.337 32.4232 55.3116 33.4122C55.299 33.8833 55.1051 34.2951 54.7342 34.5625C54.2242 34.9275 53.6763 35.2458 53.1326 35.5642C52.5804 35.8826 52.003 36.1627 51.5436 36.6211C51.493 36.672 51.434 36.7484 51.434 36.8121C51.4298 37.2366 51.434 37.6568 51.434 38.0939ZM45.0612 38.234C44.9221 37.9072 44.7745 37.5974 44.6566 37.2747C44.547 36.9818 44.6608 36.7399 44.9179 36.655C45.1792 36.5702 45.3815 36.706 45.4995 36.9903C45.6217 37.2875 45.7525 37.5889 45.9295 37.852C46.2413 38.3104 46.6839 38.5778 47.2529 38.5269C47.9019 38.4675 48.5469 38.3826 49.1917 38.2935C49.6343 38.234 50.0727 38.1533 50.5278 38.0812C50.5278 37.6907 50.5363 37.3002 50.5236 36.9139C50.5194 36.8121 50.4731 36.6763 50.4013 36.6253C49.9546 36.2985 49.5036 35.9802 49.0358 35.6873C48.492 35.3434 47.9104 35.0548 47.3751 34.694C46.9031 34.3757 46.6586 33.9173 46.6375 33.3188C46.608 32.402 45.9168 31.8545 45.0316 32.0794C44.4964 32.2152 43.9779 32.4529 43.4722 32.6906C42.6334 33.0811 41.8073 33.5098 40.8759 33.6287C40.0329 33.7348 39.2194 33.6669 38.5198 33.1108C38.5029 33.0981 38.4734 33.0939 38.4439 33.0854C38.4861 36.6932 41.9043 39.0957 45.0612 38.234ZM50.3086 18.1997C48.3445 22.2788 46.9368 26.5488 45.7735 30.9461C47.3836 30.9801 48.9641 31.0183 50.57 31.0523C49.9799 26.7482 49.9082 22.4782 50.3086 18.1997Z" fill="#717171"/>
<path d="M95.4467 31.9565C95.4467 32.9964 95.4594 34.0321 95.4425 35.072C95.434 35.5261 95.3877 35.9889 95.3034 36.4345C95.1095 37.4829 94.4519 38.1535 93.5037 38.561C92.7661 38.8794 91.9905 39.0406 91.1981 39.0661C90.3257 39.0916 89.4447 39.0746 88.5723 39.0237C87.7926 38.977 87.0424 38.7732 86.3427 38.404C85.4744 37.9455 84.9729 37.2197 84.8211 36.2519C84.7663 35.9039 84.7368 35.5517 84.7368 35.1993C84.7284 32.9667 84.7284 30.734 84.7368 28.5014C84.7368 27.8562 84.8464 27.2195 85.1625 26.6465C85.6093 25.8274 86.3553 25.4029 87.2109 25.1397C88.252 24.8214 89.3183 24.7789 90.3973 24.7917C91.3204 24.8045 92.2308 24.885 93.1116 25.1822C93.9546 25.4665 94.6711 25.9207 95.0758 26.7569C95.3034 27.2238 95.4214 27.729 95.4299 28.2467C95.4467 29.4819 95.434 30.7171 95.434 31.9565C95.434 31.9565 95.4425 31.9565 95.4467 31.9565ZM91.5353 31.9565C91.5353 31.1161 91.5353 30.2757 91.5353 29.4352C91.5353 28.9556 91.3204 28.6755 90.8567 28.582C90.3383 28.4802 89.8114 28.4759 89.2889 28.5906C88.8758 28.6797 88.6439 28.9684 88.6398 29.3843C88.6356 31.1076 88.6356 32.8309 88.6398 34.5542C88.6398 34.9828 88.8884 35.3012 89.3099 35.3436C89.7819 35.3946 90.2625 35.4158 90.7303 35.3692C91.3204 35.3139 91.5311 35.0168 91.5311 34.4099C91.5353 33.5949 91.5353 32.7756 91.5353 31.9565Z" fill="#717171"/>
<path d="M118.873 30.755C118.873 32.2024 118.881 33.6498 118.869 35.0972C118.865 35.5259 118.827 35.9589 118.747 36.379C118.532 37.5464 117.781 38.2466 116.711 38.6499C115.94 38.9385 115.139 39.0488 114.325 39.0871C113.116 39.1423 111.914 39.1168 110.738 38.773C110.001 38.5565 109.331 38.2212 108.846 37.5887C108.462 37.0921 108.306 36.5107 108.243 35.8995C108.205 35.5302 108.197 35.1524 108.197 34.7788C108.193 31.8458 108.197 28.9172 108.197 25.9842C108.197 25.9205 108.197 25.8568 108.197 25.7931C108.205 25.2328 108.374 25.0631 108.93 25.0588C109.765 25.0588 110.599 25.0588 111.438 25.0588C111.982 25.0588 112.15 25.2116 112.155 25.7549C112.163 28.255 112.159 30.755 112.159 33.2551C112.159 33.6073 112.159 33.9597 112.159 34.3162C112.159 34.9571 112.362 35.2373 112.998 35.3009C113.465 35.3477 113.946 35.3095 114.413 35.2457C114.759 35.1991 114.945 34.9317 114.983 34.5794C114.995 34.469 115 34.3544 115 34.2398C115 31.4426 115 28.6455 115 25.8483C115 25.7634 115 25.6785 115.008 25.5936C115.05 25.2328 115.185 25.0758 115.544 25.0673C116.47 25.0503 117.398 25.0503 118.321 25.0673C118.688 25.0716 118.827 25.2413 118.852 25.6149C118.869 25.8525 118.869 26.0945 118.869 26.3322C118.873 27.8178 118.873 29.2864 118.873 30.755Z" fill="#717171"/>
<path d="M101.543 34.3763C101.543 34.4824 101.543 34.5674 101.543 34.648C101.543 35.8068 101.543 36.9655 101.543 38.1242C101.543 38.6591 101.378 38.8203 100.851 38.8203C100.017 38.8203 99.178 38.8203 98.3435 38.8203C97.7955 38.8203 97.627 38.6506 97.627 38.103C97.627 33.9985 97.627 29.8941 97.627 25.7896C97.627 25.6792 97.6396 25.5646 97.6649 25.4543C97.7113 25.2378 97.8546 25.1147 98.0738 25.0892C98.1791 25.0765 98.2845 25.0681 98.3898 25.0681C100.86 25.0681 103.334 25.0681 105.804 25.0681C105.901 25.0681 106.002 25.0722 106.099 25.085C106.373 25.1189 106.512 25.259 106.55 25.5307C106.562 25.6156 106.571 25.7004 106.571 25.7854C106.571 26.5197 106.575 27.254 106.571 27.9883C106.567 28.5528 106.394 28.7226 105.842 28.7226C104.493 28.7226 103.144 28.7226 101.795 28.7226C101.72 28.7226 101.644 28.7226 101.555 28.7226C101.555 29.3805 101.555 30.0214 101.555 30.6878C101.631 30.6921 101.711 30.7006 101.791 30.7048C102.689 30.7048 103.587 30.7048 104.489 30.7048C104.994 30.7048 105.163 30.8703 105.167 31.3712C105.167 32.1394 105.167 32.912 105.167 33.6802C105.167 34.2023 105.007 34.3678 104.493 34.3721C103.599 34.3763 102.71 34.3721 101.817 34.3721C101.732 34.3763 101.648 34.3763 101.543 34.3763Z" fill="#717171"/>
<path d="M87.1793 43.9266C84.996 43.9522 82.8127 43.9734 80.6336 43.9988C79.5546 44.0116 78.4714 44.0243 77.3924 44.0413C75.3777 44.0709 73.363 44.0965 71.3526 44.1262C71.0533 44.1304 70.9269 44.037 70.8257 43.7484C70.7077 43.4089 70.712 43.0693 70.8763 42.7425C70.9606 42.5685 71.087 42.4665 71.3062 42.4708C73.0975 42.5005 74.8846 42.5175 76.6759 42.5387C77.5863 42.5514 78.5009 42.5685 79.4113 42.5811C81.4597 42.6067 83.5081 42.6278 85.5607 42.6533C86.8927 42.6703 88.2287 42.6915 89.5606 42.7085C91.4573 42.734 93.3498 42.7551 95.2465 42.7807C96.5868 42.7976 97.9271 42.8189 99.2674 42.8358C101.156 42.8613 103.044 42.8825 104.932 42.908C106.281 42.925 107.626 42.9462 108.974 42.9632C110.862 42.9886 112.75 43.0099 114.639 43.0353C115.988 43.0523 117.332 43.0735 118.681 43.0905C119.41 43.099 120.139 43.1117 120.868 43.116C121.003 43.116 121.1 43.1287 121.104 43.3027C121.104 43.4768 121.003 43.4895 120.873 43.4937C119.478 43.5065 118.078 43.5234 116.683 43.5404C114.369 43.5701 112.051 43.5956 109.737 43.6253C108.684 43.638 107.633 43.655 106.58 43.6677C104.397 43.6975 102.214 43.7229 100.034 43.7526C98.9808 43.7654 97.9313 43.7823 96.8776 43.7951C94.7028 43.8248 92.5279 43.8545 90.353 43.88C89.2993 43.8927 88.2498 43.88 87.1961 43.88C87.1793 43.8927 87.1793 43.9097 87.1793 43.9266Z" fill="#717171"/>
<path d="M97.4323 21.1204C95.3966 21.0992 93.3608 21.078 91.3293 21.0525C90.0227 21.0355 88.7203 21.0143 87.4137 20.9973C85.4833 20.9719 83.553 20.9506 81.6268 20.9252C80.5731 20.9124 79.5236 20.8955 78.4699 20.8827C77.1 20.8657 75.7344 20.8445 74.3647 20.8233C73.3194 20.8106 72.274 20.7936 71.2288 20.7808C71.1319 20.7808 71.0307 20.7639 70.9337 20.7681C70.7947 20.7766 70.7441 20.7087 70.7483 20.5771C70.7525 20.4455 70.8242 20.4158 70.9422 20.4158C71.9369 20.4031 72.9358 20.3861 73.9305 20.3734C76.2613 20.3437 78.5879 20.3182 80.9187 20.2885C81.9724 20.2757 83.0219 20.2588 84.0756 20.246C86.2589 20.2163 88.4379 20.1908 90.6212 20.1611C91.658 20.1484 92.6992 20.1314 93.736 20.1187C95.9319 20.089 98.1278 20.0635 100.324 20.0338C101.361 20.0211 102.402 20.0041 103.439 19.9914C105.634 19.9616 107.83 19.9362 110.026 19.9065C110.987 19.8937 111.948 19.8768 112.91 19.864C115.177 19.8343 117.44 19.8088 119.708 19.7791C119.973 19.7749 120.239 19.7664 120.509 19.7622C120.766 19.7579 120.926 19.8555 121.015 20.106C121.128 20.4201 121.128 20.7427 121.018 21.061C120.921 21.3369 120.77 21.4303 120.479 21.426C118.305 21.3963 116.129 21.3708 113.954 21.3411C112.627 21.3242 111.303 21.3029 109.976 21.286C108.075 21.2605 106.174 21.2393 104.273 21.2138C102.933 21.1968 101.592 21.1713 100.252 21.1586C99.3122 21.1501 98.3722 21.1586 97.4323 21.1586C97.4323 21.1501 97.4323 21.1374 97.4323 21.1204Z" fill="#717171"/>
</g>
<defs>
<clipPath id="clip0_321_20668">
<rect width="102.105" height="33.6842" fill="white" transform="translate(19 13)"/>
</clipPath>
</defs>
</svg>
