<svg width="140" height="60" viewBox="0 0 140 60" fill="none" xmlns="http://www.w3.org/2000/svg">
<path d="M59.0687 32.7075L63.3259 21.3158H65.1316L59.3917 36.2527H58.7311L53.0059 21.3158H54.8042L59.0687 32.7075Z" fill="#717171"/>
<path d="M72.4275 36.2527H70.7614V21.3158H72.4275V36.2527Z" fill="#717171"/>
<path d="M81.0815 36.2527H79.4226V21.3158H81.5806C84.4138 21.3158 87.0489 22.0498 87.0489 25.4336C87.0785 25.9512 87.0048 26.4697 86.8319 26.9585C86.6591 27.4474 86.3906 27.897 86.0421 28.281C85.6936 28.665 85.2722 28.9757 84.8023 29.1951C84.3325 29.4145 83.8236 29.538 83.3055 29.5586L88.0545 36.2527H86.0139L81.4998 29.6908H81.0815V36.2527ZM81.0815 28.2301H81.5953C83.4816 28.2301 85.3827 27.8704 85.3827 25.551C85.3827 23.0994 83.5771 22.8572 81.5806 22.8572H81.0815V28.2301Z" fill="#717171"/>
<path d="M98.4038 32.7075L102.698 21.3158H104.503L98.7782 36.2527H98.1029L92.3777 21.3158H94.176L98.4038 32.7075Z" fill="#717171"/>
<path d="M111.763 36.2527H110.097V21.3158H111.763V36.2527Z" fill="#717171"/>
<path d="M120.996 32.0177L119.191 36.2603H117.378L123.984 21.3233H124.615L131.016 36.2603H129.122L127.375 32.0177H120.996ZM124.226 24.4942L121.672 30.4763H126.722L124.226 24.4942Z" fill="#717171"/>
<path d="M43.7133 23.1507C42.9369 22.1049 42.0778 21.1231 41.1443 20.2146C40.8245 19.9543 40.4558 19.7605 40.0601 19.6445C39.6643 19.5286 39.2493 19.4928 38.8396 19.5394C38.3478 19.6568 37.856 20.7431 37.7753 21.4478C37.0413 28.0538 36.3807 34.6598 35.632 41.2658C35.501 42.3918 35.1704 43.4855 34.6558 44.4955C34.4782 44.8639 34.227 45.192 33.9177 45.4596C33.6084 45.7273 33.2476 45.9287 32.8574 46.0515C32.3363 46.1323 31.4335 45.3175 31.0958 44.745C29.5104 41.8604 28.0277 38.9244 26.5597 35.981C23.22 29.2282 19.9096 22.4754 16.3497 15.2675C19.2857 13.6233 22.508 11.6415 25.8918 10.0707C26.6258 9.72575 28.0938 10.724 29.1507 11.3112C33.3713 13.6673 37.5257 16.1483 41.7022 18.5631C43.8601 19.8109 44.0803 20.2293 43.7133 23.1507Z" fill="#717171"/>
<path d="M13.5679 16.8749C19.0949 27.4372 24.5779 37.8233 30.0609 48.3636C27.8589 50.7124 26.2367 51.006 23.0145 49.149C18.6104 46.5946 14.2064 43.9522 9.80242 41.4126C9.22226 41.1403 8.73953 40.6966 8.4193 40.1415C8.09906 39.5863 7.95672 38.9463 8.01145 38.3078C8.07017 33.2431 8.14357 28.1785 8.01145 23.1139C7.93805 20.8385 8.74546 19.3852 10.7273 18.4456C11.5126 18.0713 12.254 17.6089 13.5679 16.8749Z" fill="#717171"/>
<path d="M40.5058 24.9858C41.7976 27.3713 44.0877 28.7292 43.9482 31.5918C43.8381 33.9406 43.8822 36.3041 43.9482 38.6529C44.0165 39.2611 43.887 39.8751 43.5789 40.4039C43.2709 40.9327 42.8007 41.3483 42.238 41.5889C40.5131 42.4697 38.8543 43.4826 37.166 44.4442C38.2524 38.0657 39.3314 31.79 40.5058 24.9858Z" fill="#717171"/>
</svg>
