<svg width="140" height="60" viewBox="0 0 140 60" fill="none" xmlns="http://www.w3.org/2000/svg">
<g clip-path="url(#clip0_321_20677)">
<path d="M33.705 44.4737C25.5995 44.4737 19 37.8709 19 29.7368C19 21.6138 25.5995 15 33.705 15C41.8104 15 48.4099 21.6138 48.4099 29.7368C48.4099 37.8709 41.8215 44.4737 33.705 44.4737ZM33.705 18.773C27.6702 18.773 22.7648 23.689 22.7648 29.7368C22.7648 35.7847 27.6702 40.7007 33.705 40.7007C39.7397 40.7007 44.645 35.7847 44.645 29.7368C44.645 23.689 39.7397 18.773 33.705 18.773Z" fill="#717171"/>
<path d="M33.7072 37.191C33.2089 37.191 32.7328 36.9912 32.3784 36.6361L26.4544 30.6992C25.7235 29.9668 25.7235 28.7683 26.4544 28.0359L32.3784 22.099C33.1093 21.3666 34.3051 21.3666 35.0359 22.099L40.96 28.0359C41.6908 28.7683 41.6908 29.9668 40.96 30.6992L35.0359 36.6361C34.6927 36.9912 34.2055 37.191 33.7072 37.191ZM30.4517 29.3676L33.7072 32.6301L36.9627 29.3676L33.7072 26.1051L30.4517 29.3676Z" fill="#717171"/>
<path d="M51.8105 19.3665H56.7823L60.1818 34.3807L63.8801 19.3665H68.0657L71.9191 34.4694L75.4403 19.3665H79.9913L74.7095 41.0943H69.7045L65.7846 26.0801L61.8206 41.0943H57.0923L51.8105 19.3665Z" fill="#717171"/>
<path d="M85.0755 41.1603C84.3446 41.1603 83.6692 41.0714 83.027 40.8828C82.3847 40.7053 81.8311 40.4168 81.3439 40.0284C80.8566 39.64 80.4691 39.1517 80.1923 38.5524C79.9043 37.9532 79.7715 37.243 79.7715 36.4108C79.7715 35.4785 79.9708 34.6907 80.3805 34.036C80.7903 33.3923 81.355 32.8597 82.0747 32.4602C82.8055 32.0497 83.6692 31.7611 84.688 31.5835C85.6955 31.406 86.8139 31.3062 88.0209 31.3062H89.8147V30.6625C89.8147 29.7081 89.6376 28.9868 89.2832 28.4874C88.9289 27.988 88.2423 27.7439 87.2347 27.7439C86.36 27.7439 85.7177 27.9437 85.308 28.3543C84.8983 28.7648 84.6326 29.3086 84.5328 29.9966H80.3805C80.4359 29.0645 80.6684 28.2544 81.067 27.5663C81.4657 26.8784 81.975 26.3124 82.5951 25.8685C83.2262 25.4246 83.9571 25.0917 84.7986 24.8809C85.6401 24.6701 86.5372 24.5591 87.5115 24.5591C88.486 24.5591 89.3718 24.6701 90.1801 24.8809C90.9885 25.0917 91.6972 25.4357 92.3061 25.9018C92.893 26.3678 93.347 26.9783 93.6681 27.7218C93.9892 28.4763 94.1553 29.3863 94.1553 30.4516V40.8274H89.8701V38.9075C89.405 39.5511 88.807 40.095 88.0651 40.5167C87.3233 40.9494 86.3268 41.1603 85.0755 41.1603ZM86.382 38.1197C87.3565 38.1197 88.1649 37.8645 88.8181 37.3651C89.4715 36.8658 89.8036 36.1666 89.8036 35.2677V33.9251H88.1095C86.8361 33.9251 85.8395 34.0914 85.1419 34.4132C84.4332 34.7351 84.0789 35.3343 84.0789 36.1889C84.0789 36.7769 84.2561 37.2542 84.6215 37.5981C84.9869 37.9532 85.5738 38.1197 86.382 38.1197Z" fill="#717171"/>
<path d="M106.38 41.6121C105.15 41.6121 104.098 41.3458 103.224 40.802C102.349 40.2694 101.718 39.5814 101.308 38.7491V41.2792H96.9121V18.1863H101.308V27.8851C101.751 27.1194 102.415 26.4426 103.29 25.8766C104.165 25.3106 105.195 25.0221 106.368 25.0221C107.343 25.0221 108.24 25.1997 109.081 25.5548C109.923 25.9099 110.654 26.4314 111.285 27.1194C111.916 27.8074 112.403 28.6619 112.758 29.6717C113.112 30.6815 113.289 31.8467 113.289 33.1673V33.4115C113.289 34.732 113.112 35.8972 112.758 36.907C112.403 37.9168 111.927 38.7713 111.318 39.4594C110.687 40.1696 109.956 40.7022 109.115 41.0684C108.284 41.4346 107.376 41.6121 106.38 41.6121ZM105.084 38.1831C106.302 38.1831 107.232 37.7836 107.874 36.9736C108.517 36.1746 108.849 34.9872 108.849 33.4225V33.1784C108.849 31.5582 108.494 30.3487 107.786 29.5496C107.077 28.7618 106.169 28.3623 105.051 28.3623C103.899 28.3623 102.958 28.7618 102.249 29.5719C101.53 30.3709 101.175 31.5804 101.175 33.1895V33.4336C101.175 35.0427 101.518 36.2301 102.216 37.018C102.914 37.8059 103.866 38.1831 105.084 38.1831Z" fill="#717171"/>
<path d="M117.51 23.8875C116.801 23.8875 116.214 23.6545 115.738 23.1995C115.262 22.7445 115.029 22.1675 115.029 21.4795C115.029 20.7914 115.262 20.2144 115.738 19.7594C116.214 19.3044 116.801 19.0714 117.51 19.0714C118.218 19.0714 118.816 19.3044 119.303 19.7594C119.791 20.2144 120.034 20.7914 120.034 21.4795C120.034 22.1675 119.791 22.7445 119.303 23.1995C118.816 23.6545 118.218 23.8875 117.51 23.8875ZM115.35 26.0514H119.713V41.9423H115.35V26.0514Z" fill="#717171"/>
</g>
<defs>
<clipPath id="clip0_321_20677">
<rect width="102.105" height="29.4737" fill="white" transform="translate(19 15)"/>
</clipPath>
</defs>
</svg>
