<svg width="56" height="56" viewBox="0 0 56 56" fill="none" xmlns="http://www.w3.org/2000/svg">
    <rect x="0.5" y="0.5" width="55" height="55" rx="7.5" fill="white"/>
    <path d="M30.8968 20.2626C32.1914 21.0743 33.0993 22.4479 33.2645 24.0424C33.7925 24.2891 34.3785 24.431 34.9998 24.431C37.268 24.431 39.1064 22.5926 39.1064 20.3248C39.1064 18.0566 37.268 16.2183 34.9998 16.2183C32.7533 16.219 30.931 18.0245 30.8968 20.2626ZM28.2065 28.6706C30.4747 28.6706 32.313 26.8319 32.313 24.5641C32.313 22.2963 30.4743 20.4579 28.2065 20.4579C25.9387 20.4579 24.0993 22.2966 24.0993 24.5645C24.0993 26.8323 25.9387 28.6706 28.2065 28.6706ZM29.9484 28.9505H26.4639C23.5647 28.9505 21.206 31.3095 21.206 34.2088V38.4701L21.2168 38.5368L21.5103 38.6287C24.2771 39.4932 26.6809 39.7815 28.6594 39.7815C32.5237 39.7815 34.7636 38.6798 34.9016 38.6095L35.1759 38.4708H35.2053V34.2088C35.2063 31.3095 32.8477 28.9505 29.9484 28.9505ZM36.7424 24.7112H33.2848C33.2474 26.0946 32.6569 27.3403 31.7229 28.2363C34.2999 29.0026 36.1854 31.3924 36.1854 34.2151V35.5282C39.5994 35.4031 41.5667 34.4356 41.6963 34.3706L41.9706 34.2315H42V29.9688C42 27.0699 39.6413 24.7112 36.7424 24.7112ZM21.0009 24.4317C21.8042 24.4317 22.5517 24.1972 23.1848 23.7978C23.3861 22.485 24.0899 21.3378 25.0952 20.5565C25.0994 20.4796 25.1067 20.4034 25.1067 20.3258C25.1067 18.0577 23.268 16.2193 21.0009 16.2193C18.7324 16.2193 16.8943 18.0577 16.8943 20.3258C16.8943 22.593 18.7324 24.4317 21.0009 24.4317ZM24.6888 28.2363C23.7593 27.3449 23.1708 26.1058 23.1279 24.7308C22.9996 24.7213 22.8728 24.7112 22.7421 24.7112H19.2579C16.3587 24.7112 14 27.0699 14 29.9688V34.2308L14.0108 34.2965L14.3044 34.3891C16.5239 35.082 18.5049 35.4014 20.2255 35.502V34.2151C20.2262 31.3924 22.111 29.0033 24.6888 28.2363Z" fill="#386CF6"/>
    <rect x="0.5" y="0.5" width="55" height="55" rx="7.5" stroke="#E9E9E9"/>
</svg>
