<svg width="56" height="56" viewBox="0 0 56 56" fill="none" xmlns="http://www.w3.org/2000/svg">
    <rect x="0.5" y="0.5" width="55" height="55" rx="7.5" fill="white"/>
    <rect x="0.5" y="0.5" width="55" height="55" rx="7.5" stroke="#E9E9E9"/>
    <g clip-path="url(#clip0_553_21475)">
        <path d="M23.3328 23.3334C28.6743 23.3334 32.6656 21.2217 32.6656 19.3336C32.6656 17.4457 28.6743 15.334 23.3328 15.334C17.9913 15.334 14 17.4457 14 19.3336C14 21.2217 17.9912 23.3334 23.3328 23.3334Z" fill="#386CF6"/>
        <path d="M23.3328 39.3329C24.1124 39.3329 24.8628 39.2876 25.5766 39.205C24.9749 38.4318 24.4773 37.5737 24.1046 36.6522C23.8485 36.6608 23.5915 36.6668 23.3327 36.6668C20.2805 36.6668 17.3901 36.062 15.194 34.9639C14.7616 34.7477 14.3637 34.5154 14 34.2695V35.3333C14 37.2212 17.9912 39.3329 23.3328 39.3329Z" fill="#386CF6"/>
        <path d="M23.3329 33.9999C23.3602 33.9999 23.3872 33.9995 23.4145 33.9994C23.3598 33.5624 23.3313 33.1173 23.3313 32.6656C23.3313 32.2142 23.3597 31.7694 23.4145 31.3327C23.3872 31.3327 23.3602 31.3337 23.3329 31.3337C20.2807 31.3337 17.3903 30.7289 15.1942 29.6308C14.7617 29.4146 14.3637 29.1823 14 28.9365V30.0002C14.0001 31.8882 17.9913 33.9999 23.3329 33.9999Z" fill="#386CF6"/>
        <path d="M23.3329 28.6663C23.5974 28.6663 23.8584 28.661 24.1161 28.6509C24.5301 27.6354 25.0957 26.6974 25.7854 25.8656C24.9869 25.9536 24.1663 26.0003 23.3329 26.0003C20.2807 26.0003 17.3903 25.3955 15.1942 24.2974C14.7617 24.0811 14.3637 23.8489 14 23.603V24.6668C14.0001 26.5548 17.9913 28.6663 23.3329 28.6663Z" fill="#386CF6"/>
        <path d="M27.3333 28.2457C26.7563 29.113 26.3441 30.0988 26.1413 31.1582C26.0477 31.6465 25.9983 32.1503 25.9983 32.6654C25.9983 33.0528 26.0266 33.4336 26.08 33.8064C26.2113 34.7221 26.4982 35.588 26.913 36.3768C27.3482 37.2045 27.924 37.9473 28.6088 38.5727C30.0319 39.8725 31.9245 40.6663 33.9992 40.6663C38.4109 40.6663 42.0001 37.0771 42.0001 32.6654C42.0001 28.2537 38.4109 24.6646 33.9992 24.6646C33.5432 24.6646 33.0961 24.7035 32.6607 24.7771C30.4429 25.1522 28.5326 26.4429 27.3333 28.2457Z" fill="#386CF6"/>
    </g>
    <defs>
        <clipPath id="clip0_553_21475">
            <rect width="28" height="28" fill="white" transform="translate(14 14)"/>
        </clipPath>
    </defs>
</svg>
