<svg width="140" height="60" viewBox="0 0 140 60" fill="none" xmlns="http://www.w3.org/2000/svg">
<g clip-path="url(#clip0_321_21218)">
<path d="M46.0791 25.0419C46.2961 25.0419 46.4769 25.1167 46.5854 25.2289C46.6939 25.3412 46.8024 25.5281 46.8746 25.79L52.1543 39.9288C52.1543 39.9662 52.1904 40.0409 52.1904 40.0784C52.1904 40.228 52.1181 40.3776 52.0096 40.4898C51.9011 40.602 51.7565 40.6768 51.6119 40.6768H50.0569C49.7676 40.6768 49.5506 40.602 49.4421 40.4898C49.3336 40.3776 49.2614 40.228 49.189 40.1158L48.2488 37.6471H41.4865L40.5464 40.1158C40.5102 40.228 40.4379 40.3402 40.2932 40.4898C40.1848 40.602 39.9678 40.6768 39.6785 40.6768H38.1235C37.9789 40.6768 37.8342 40.602 37.7258 40.4898C37.6173 40.3776 37.5449 40.228 37.5449 40.0784C37.5449 40.0035 37.5449 39.9662 37.5811 39.9288L42.8607 25.79C42.933 25.5281 43.0415 25.3412 43.15 25.2289C43.2585 25.1167 43.4393 25.0419 43.6563 25.0419H46.0791ZM47.2724 34.8418L44.8858 28.4831L42.4991 34.8418H47.2724Z" fill="#303030"/>
<path d="M63.1467 37.9089C63.2914 37.9089 63.436 37.9837 63.5445 38.096C63.653 38.2082 63.7253 38.3578 63.7253 38.5074V40.0784C63.7253 40.228 63.653 40.3776 63.5445 40.4898C63.436 40.602 63.2914 40.6768 63.1467 40.6768H53.6723C53.5277 40.6768 53.383 40.602 53.2746 40.4898C53.1661 40.3776 53.0938 40.228 53.0938 40.0784V25.6404C53.0938 25.4907 53.1661 25.3412 53.2746 25.2289C53.383 25.1167 53.5277 25.0419 53.6723 25.0419H55.4081C55.5528 25.0419 55.6974 25.1167 55.8059 25.2289C55.9144 25.3412 55.9867 25.4907 55.9867 25.6404V37.9089H63.1467Z" fill="#303030"/>
<path d="M63.9424 30.8396C63.9785 29.9419 64.1232 29.119 64.4125 28.4082C64.7018 27.6602 65.1358 27.0244 65.6781 26.5007C66.2206 25.977 66.9076 25.5656 67.7032 25.2664C68.4988 24.9671 69.439 24.8175 70.4876 24.8175C71.7533 24.8175 72.7658 24.9671 73.5976 25.3037C74.4293 25.6404 75.044 26.0518 75.5503 26.5007C76.0204 26.9869 76.382 27.4732 76.5628 27.9594C76.7436 28.4457 76.8521 28.8945 76.8883 29.2312C76.8883 29.4182 76.8521 29.5678 76.7436 29.68C76.6351 29.7922 76.4905 29.8296 76.3097 29.8296H74.574C74.4293 29.8296 74.2846 29.7922 74.2123 29.7174C74.1038 29.6426 74.0677 29.5678 73.9953 29.4556C73.9592 29.3808 73.8868 29.2685 73.7783 29.0816C73.6699 28.8945 73.4529 28.6701 73.1998 28.4457C72.9466 28.2213 72.585 28.0342 72.1511 27.8472C71.7171 27.6602 71.1747 27.5854 70.5238 27.5854C69.439 27.5854 68.5711 27.8846 67.9201 28.4831C67.2693 29.0816 66.9076 29.9044 66.8715 30.9144C66.8353 31.4754 66.8353 32.0739 66.8353 32.7472C66.8353 33.383 66.8353 34.0189 66.8715 34.5799C66.9076 35.8143 67.2693 36.712 67.9201 37.273C68.5711 37.8341 69.439 38.0959 70.5238 38.0959C71.0662 38.0959 71.5364 38.0212 72.0065 37.9089C72.4404 37.7967 72.8382 37.6097 73.1636 37.3105C73.4891 37.0487 73.7422 36.6746 73.923 36.2632C74.1038 35.8143 74.1761 35.2907 74.1761 34.6548V34.4678H71.5364C71.3917 34.4678 71.2471 34.393 71.1386 34.2807C71.0301 34.1685 70.9577 34.0189 70.9577 33.8693V32.2983C70.9577 32.1487 71.0301 31.9991 71.1386 31.8869C71.2471 31.7747 71.3917 31.6998 71.5364 31.6998H76.5267C76.6713 31.6998 76.816 31.7747 76.9245 31.8869C77.0329 31.9991 77.1052 32.1487 77.1052 32.2983V34.767C77.1052 35.6647 76.9606 36.4876 76.7075 37.2356C76.4182 37.9838 76.0204 38.6196 75.478 39.1807C74.9356 39.7418 74.2485 40.1532 73.4167 40.4524C72.585 40.7517 71.6449 40.9013 70.5238 40.9013C69.439 40.9013 68.4626 40.7517 67.667 40.4524C66.8715 40.1532 66.1844 39.7418 65.642 39.2181C65.0995 38.6944 64.7018 38.0212 64.4125 37.273C64.1232 36.525 63.9785 35.7021 63.9424 34.8044C63.9424 34.5052 63.9062 34.2059 63.9062 33.8693C63.9062 33.5327 63.9062 33.1586 63.9062 32.8219C63.9062 32.4479 63.9062 32.1113 63.9062 31.7747C63.9424 31.438 63.9424 31.1014 63.9424 30.8396Z" fill="#303030"/>
<path d="M88.7857 37.9089C88.9304 37.9089 89.0744 37.9837 89.1831 38.096C89.2918 38.2082 89.3638 38.3578 89.3638 38.5074V40.0784C89.3638 40.228 89.2918 40.3776 89.1831 40.4898C89.0744 40.602 88.9304 40.6768 88.7857 40.6768H79.3112C79.1665 40.6768 79.0218 40.602 78.9131 40.4898C78.8044 40.3776 78.7324 40.228 78.7324 40.0784V25.6404C78.7324 25.4907 78.8044 25.3412 78.9131 25.2289C79.0218 25.1167 79.1665 25.0419 79.3112 25.0419H88.641C88.7857 25.0419 88.9304 25.1167 89.0384 25.2289C89.1471 25.3412 89.2191 25.4907 89.2191 25.6404V27.2113C89.2191 27.3609 89.1471 27.5106 89.0384 27.6228C88.9304 27.735 88.7857 27.8098 88.641 27.8098H81.6617V31.3632H88.1709C88.3156 31.3632 88.4596 31.438 88.5683 31.5502C88.677 31.6624 88.749 31.8121 88.749 31.9617V33.5326C88.749 33.6823 88.677 33.8318 88.5683 33.9441C88.4596 34.0563 88.3156 34.1311 88.1709 34.1311H81.6617V37.8341H88.7857V37.9089Z" fill="#303030"/>
<path d="M91.569 40.6768C91.4243 40.6768 91.2796 40.602 91.1709 40.4898C91.0629 40.3776 90.9902 40.228 90.9902 40.0784V25.6404C90.9902 25.4907 91.0629 25.3412 91.1709 25.2289C91.2796 25.1167 91.4243 25.0419 91.569 25.0419H97.9336C98.8737 25.0419 99.6332 25.1915 100.247 25.4907C100.862 25.79 101.369 26.164 101.73 26.5755C102.092 27.0243 102.381 27.5106 102.526 27.9968C102.706 28.5205 102.779 29.0067 102.779 29.4556C102.779 29.9044 102.706 30.3159 102.598 30.6525C102.49 30.9892 102.345 31.2884 102.164 31.5502C101.984 31.8121 101.839 31.9991 101.658 32.1487C101.477 32.2983 101.369 32.4105 101.26 32.4854C101.694 32.7846 102.128 33.2334 102.49 33.8318C102.851 34.3929 103.069 35.141 103.069 36.0014C103.069 36.5624 102.96 37.1234 102.779 37.6845C102.562 38.2455 102.272 38.7318 101.875 39.1807C101.477 39.6295 101.007 40.0035 100.429 40.2654C99.8499 40.5272 99.1631 40.6768 98.4037 40.6768H91.569ZM99.8859 29.5678C99.8859 29.0067 99.7052 28.5579 99.3798 28.2961C99.0184 27.9968 98.4757 27.8472 97.7522 27.8472H93.9195V31.2884H97.7522C98.5117 31.2884 99.0544 31.1388 99.3798 30.8395C99.7052 30.5403 99.8859 30.1289 99.8859 29.5678ZM93.9195 37.9089H97.9336C98.729 37.9089 99.3071 37.7219 99.6692 37.3852C100.031 37.0486 100.211 36.5624 100.211 36.0014C100.211 35.4403 100.031 34.954 99.6332 34.6174C99.2351 34.2434 98.6924 34.0937 97.8969 34.0937H93.8835V37.9089H93.9195Z" fill="#303030"/>
<path d="M110.879 25.0419C112.687 25.0419 114.061 25.4907 115.002 26.351C115.942 27.2113 116.412 28.4083 116.412 29.9418C116.412 31.0266 116.159 31.9617 115.689 32.7098C115.219 33.4952 114.495 34.0563 113.555 34.4303L116.557 39.9661C116.593 40.0409 116.629 40.1532 116.629 40.228C116.629 40.3776 116.593 40.4898 116.485 40.5646C116.376 40.6768 116.267 40.7143 116.159 40.7143H114.315C114.025 40.7143 113.808 40.6394 113.664 40.4898C113.519 40.3402 113.447 40.228 113.375 40.1158L110.554 34.9166H107.661V40.1158C107.661 40.2654 107.589 40.415 107.48 40.5272C107.371 40.6394 107.227 40.7143 107.082 40.7143H105.346C105.202 40.7143 105.057 40.6394 104.949 40.5272C104.84 40.415 104.768 40.2654 104.768 40.1158V25.6404C104.768 25.4907 104.84 25.3412 104.949 25.2289C105.057 25.1167 105.202 25.0419 105.346 25.0419H110.879ZM107.661 32.0739H110.807C111.639 32.0739 112.29 31.9243 112.76 31.625C113.266 31.3258 113.483 30.7647 113.483 29.9418C113.483 29.1189 113.23 28.5579 112.76 28.2586C112.253 27.9594 111.602 27.8472 110.807 27.8472H107.661V32.0739Z" fill="#303030"/>
<path d="M125.778 25.0419C125.995 25.0419 126.176 25.1167 126.285 25.2289C126.393 25.3412 126.501 25.5281 126.574 25.79L131.854 39.9288C131.854 39.9662 131.89 40.0409 131.89 40.0784C131.89 40.228 131.818 40.3776 131.709 40.4898C131.6 40.602 131.456 40.6768 131.311 40.6768H129.756C129.466 40.6768 129.25 40.602 129.141 40.4898C129.033 40.3776 128.96 40.228 128.888 40.1158L127.948 37.6471H121.186L120.245 40.1158C120.209 40.228 120.137 40.3402 119.993 40.4898C119.884 40.602 119.667 40.6768 119.378 40.6768H117.823C117.678 40.6768 117.534 40.602 117.425 40.4898C117.316 40.3776 117.244 40.228 117.244 40.0784C117.244 40.0035 117.244 39.9662 117.28 39.9288L122.56 25.79C122.633 25.5281 122.741 25.3412 122.849 25.2289C122.958 25.1167 123.139 25.0419 123.355 25.0419H125.778ZM126.971 34.8418L124.585 28.4831L122.198 34.8418H126.971Z" fill="#303030"/>
<path d="M20.2227 19.6184V36.0389L8 43.3326L20.2227 19.6184Z" fill="#B41870"/>
<path d="M20.9453 19.6184V36.0389L33.168 43.3326L20.9453 19.6184Z" fill="#00CAB2"/>
<path d="M20.5488 36.7494L8.4707 43.9684H32.6629L20.5488 36.7494Z" fill="#5D32ED"/>
</g>
<defs>
<clipPath id="clip0_321_21218">
<rect width="123.926" height="26.9684" fill="white" transform="translate(8 17)"/>
</clipPath>
</defs>
</svg>
