<svg width="140" height="60" viewBox="0 0 140 60" fill="none" xmlns="http://www.w3.org/2000/svg">
<g clip-path="url(#clip0_321_21215)">
<path d="M120.737 16H67.5367C66.1595 16 65.043 17.1161 65.043 18.4929V41.7598C65.043 43.1365 66.1595 44.2526 67.5367 44.2526H120.737C122.114 44.2526 123.231 43.1365 123.231 41.7598V18.4929C123.231 17.1161 122.114 16 120.737 16Z" fill="#F9D12A"/>
<path fill-rule="evenodd" clip-rule="evenodd" d="M20.9874 36.774H20.1562V38.4359H17.6624V36.774H16.625V22.6543H17.6624V20.9857H20.1562V22.6543H20.9874V20.9857H23.4812V22.7474C23.6291 22.769 23.7771 22.7939 23.9267 22.8238C24.4743 22.9277 25.0004 23.1232 25.4828 23.4021C25.9483 23.6747 26.3274 24.0436 26.62 24.509C26.9126 24.9743 27.0589 25.566 27.0589 26.2839C27.0589 27.0683 26.8461 27.7165 26.4205 28.2284C25.9949 28.7402 25.4363 29.1092 24.7447 29.3352V29.3751C25.1437 29.4416 25.5194 29.5645 25.8719 29.744C26.2161 29.9173 26.5268 30.1503 26.7896 30.4321C27.0489 30.7113 27.2551 31.037 27.408 31.4093C27.561 31.7815 27.6374 32.2004 27.6374 32.6657C27.6374 33.4368 27.4845 34.085 27.1786 34.6101C26.8824 35.1252 26.4646 35.56 25.9616 35.8765C25.4314 36.2056 24.8472 36.4385 24.2359 36.5646C23.9866 36.6186 23.7355 36.6618 23.4812 36.695V38.4359H20.9874V36.774ZM23.7671 26.7426C23.7671 26.264 23.5842 25.915 23.2185 25.6956C22.8527 25.4762 22.3108 25.3665 21.5926 25.3665H19.9168V28.2782H21.7522C22.3906 28.2782 22.886 28.1486 23.2384 27.8893C23.5909 27.6301 23.7671 27.2478 23.7671 26.7426ZM24.226 32.3466C24.226 31.7616 24.0065 31.3561 23.5676 31.1301C23.1287 30.9041 22.5435 30.791 21.812 30.791H19.9168V34.0218H21.832C22.098 34.0218 22.3739 33.9985 22.6599 33.952C22.9458 33.9055 23.2052 33.8224 23.4379 33.7027C23.6707 33.5831 23.8602 33.4136 24.0065 33.1942C24.1528 32.9748 24.226 32.6923 24.226 32.3466ZM29.8918 36.774V22.6543H39.388V25.546H33.1836V28.1984H39.0489V30.9306H33.1836V33.8623H39.7471V36.774H29.8918ZM49.4628 26.3238C49.1566 25.9409 48.7633 25.6366 48.3157 25.4363C47.8435 25.217 47.388 25.1073 46.9491 25.1073C46.723 25.1073 46.4936 25.1272 46.2608 25.1671C46.0281 25.207 45.8186 25.2834 45.6324 25.3965C45.4473 25.5085 45.2876 25.6579 45.1636 25.8352C45.0372 26.0147 44.974 26.244 44.974 26.5232C44.974 26.7625 45.0239 26.962 45.1237 27.1215C45.2234 27.2811 45.3697 27.4207 45.5626 27.5403C45.7554 27.66 45.9848 27.7697 46.2508 27.8694C46.5168 27.9691 46.8161 28.0721 47.1486 28.1785C47.6274 28.3381 48.1262 28.5142 48.6449 28.707C49.1636 28.8998 49.6357 29.1557 50.0613 29.4748C50.4869 29.7939 50.8394 30.1894 51.1187 30.6614C51.398 31.1334 51.5376 31.7217 51.5376 32.4264C51.5376 33.2374 51.388 33.9387 51.0887 34.5304C50.8037 35.1047 50.3908 35.6062 49.8818 35.9962C49.3624 36.3887 48.7735 36.6796 48.1461 36.8537C47.4908 37.0404 46.8125 37.1343 46.1311 37.1329C45.1297 37.1346 44.1363 36.9556 43.1985 36.6044C42.2542 36.2521 41.4695 35.7502 40.8444 35.0987L43.0788 32.8252C43.4246 33.2507 43.8801 33.6063 44.4454 33.8922C45.0106 34.178 45.5725 34.321 46.1311 34.321C46.3838 34.321 46.6299 34.2944 46.8693 34.2412C47.1087 34.188 47.3182 34.1016 47.4977 33.9819C47.6773 33.8623 47.8203 33.7027 47.9267 33.5033C48.0331 33.3039 48.0863 33.0646 48.0863 32.7853C48.0863 32.5194 48.0198 32.2934 47.8868 32.1073C47.7326 31.902 47.5394 31.7291 47.3182 31.5987C47.0286 31.4258 46.7209 31.2853 46.4005 31.1799C46.0347 31.0536 45.6191 30.9173 45.1536 30.7711C44.7014 30.6249 44.2584 30.4517 43.8269 30.2526C43.4033 30.0589 43.0128 29.7998 42.6698 29.4848C42.3245 29.1638 42.0465 28.7774 41.8519 28.348C41.6457 27.9026 41.5426 27.3608 41.5426 26.7227C41.5426 25.9382 41.7022 25.2668 42.0214 24.7084C42.3309 24.1606 42.7607 23.6902 43.2783 23.3323C43.8116 22.9668 44.4062 22.7 45.0339 22.5446C45.6856 22.3784 46.3439 22.2953 47.0089 22.2953C47.8069 22.2953 48.6216 22.4416 49.4528 22.7341C50.2616 23.0132 51.0049 23.4543 51.6374 24.0304L49.4628 26.3238ZM59.5775 25.566V36.774H56.166V25.566H52.176V22.6543H63.5675V25.566H59.5775Z" fill="#101934"/>
<path fill-rule="evenodd" clip-rule="evenodd" d="M82.4576 36.7158L88.3578 22.6543H91.6695L97.5348 36.774H93.7443L92.6471 34.0019H87.1808L86.1434 36.774H78.5025L75.4501 31.17H74.293V36.774H70.9414V22.6543H76.3279C77.0062 22.6543 77.6679 22.7241 78.313 22.8637C78.9299 22.9918 79.5181 23.2317 80.0486 23.5717C80.5607 23.9041 80.9696 24.3428 81.2755 24.8879C81.5814 25.433 81.7344 26.1111 81.7344 26.9221C81.7344 27.8794 81.475 28.6837 80.9563 29.3352C80.4376 29.9867 79.7194 30.452 78.8017 30.7312L82.4567 36.7158H82.4576ZM78.3628 26.9819C78.3628 26.6496 78.293 26.3803 78.1534 26.1742C78.0175 25.9715 77.8321 25.8067 77.6147 25.6956C77.3831 25.5788 77.1336 25.5013 76.8765 25.4663C76.6157 25.4273 76.3523 25.4073 76.0885 25.4064H74.2731V28.697H75.889C76.1683 28.697 76.4543 28.6738 76.7469 28.6272C77.0395 28.5807 77.3055 28.4976 77.5449 28.3779C77.7843 28.2583 77.9805 28.0854 78.1334 27.8594C78.2864 27.6334 78.3628 27.3409 78.3628 26.9819ZM89.9538 26.4235L88.1583 31.2697H91.7094L89.9538 26.4235ZM103.56 25.566V36.774H100.148V25.566H96.1583V22.6543H107.55V25.566H103.56ZM109.106 36.774V22.6543H118.602V25.546H112.398V28.1985H118.263V30.9307H112.398V33.8623H118.961V36.774H109.106Z" fill="#101934"/>
</g>
<defs>
<clipPath id="clip0_321_21215">
<rect width="107.232" height="28.2526" fill="white" transform="translate(16 16)"/>
</clipPath>
</defs>
</svg>
