<svg width="140" height="60" viewBox="0 0 140 60" fill="none" xmlns="http://www.w3.org/2000/svg">
<path d="M64.0547 46.7034V27.7716L67.9301 27.3041L68.5314 30.2758C69.8009 28.2391 71.6384 27.204 74.0772 27.204C74.5783 27.204 75.0127 27.2374 75.3133 27.2708L75.2465 31.1439C74.7788 31.0772 74.2777 31.0438 73.7765 31.0438C72.0727 31.0438 70.8032 31.5112 69.968 32.4127C69.1328 33.3143 68.6985 34.5831 68.6985 36.1857V46.7034H64.0547Z" fill="#303030"/>
<path d="M84.1673 47.0708C81.2942 47.0708 79.0224 46.5699 77.2852 45.6016L77.7529 42.1291C78.5213 42.5632 79.5235 42.9305 80.7262 43.2644C81.9289 43.5982 83.0314 43.7652 84.0003 43.7652C85.0359 43.7652 85.8377 43.5649 86.4057 43.1976C86.9736 42.8303 87.2743 42.2627 87.2743 41.4947C87.2743 40.8269 87.007 40.2927 86.4725 39.892C85.9379 39.4913 84.9023 39.0239 83.3989 38.4563C82.8644 38.2559 82.5303 38.1558 82.3966 38.089C80.5926 37.3878 79.3231 36.6198 78.5213 35.7517C77.7195 34.8836 77.352 33.7484 77.352 32.2792C77.352 30.5096 77.9867 29.174 79.2563 28.2057C80.5258 27.2708 82.3298 26.8033 84.6016 26.8033C87.0738 26.8033 89.2454 27.2708 91.1162 28.2057L89.9804 31.4111C88.1429 30.543 86.3722 30.1089 84.7018 30.1089C83.7664 30.1089 83.0314 30.2758 82.5303 30.5764C81.9957 30.8769 81.7285 31.3777 81.7285 32.0121C81.7285 32.6131 81.9957 33.0806 82.4969 33.4145C82.998 33.7484 84.0003 34.1824 85.4702 34.7166C85.5036 34.7166 85.6707 34.7834 85.9379 34.8836C86.2052 34.9838 86.4057 35.0505 86.5393 35.1173C88.3099 35.7517 89.6129 36.5531 90.4481 37.4546C91.2833 38.3561 91.7176 39.5247 91.7176 40.9605C91.7176 42.8971 91.0494 44.3996 89.7465 45.4681C88.4436 46.5365 86.5727 47.0708 84.1673 47.0708Z" fill="#303030"/>
<path d="M104.613 35.6515L112.531 27.3041H107.018L99.134 35.4177V20.9601L94.4902 21.8282V46.7034H99.134V41.4612L101.673 38.7567L107.453 46.7034H113.065L104.613 35.6515Z" fill="#303030"/>
<path d="M37.6609 24.5328V6.50244C37.6609 6.50244 31.8145 9.40733 31.8145 15.5844C31.8145 21.7614 37.6609 24.5328 37.6609 24.5328Z" fill="#006E3C"/>
<path d="M37.6621 6.50244C37.6621 6.50244 43.5086 9.40733 43.5086 15.5844C43.5086 21.7614 37.6621 24.5328 37.6621 24.5328V6.50244Z" fill="#00B43C"/>
<path d="M51.2589 32.9803L59.2769 28.4394C59.2769 28.4394 56.504 26.5696 53.7645 28.1389C51.025 29.7082 51.2589 32.9803 51.2589 32.9803Z" fill="#006E3C"/>
<path d="M59.2778 28.4393C59.2778 28.4393 59.4448 31.7783 56.7053 33.3142C53.9658 34.8835 51.2598 32.9803 51.2598 32.9803L59.2778 28.4393Z" fill="#00B43C"/>
<path d="M59.678 27.7048C59.5443 27.638 56.1701 25.835 53.2969 27.5045C50.9918 28.84 50.5574 31.4778 50.4572 32.5797L49.3882 33.1807C48.8536 32.6798 48.152 32.3459 47.3502 32.3459C46.5484 32.3459 45.8469 32.6464 45.3123 33.1807L40.5015 30.376C40.5683 30.1422 40.6017 29.9085 40.6017 29.6748C40.6017 28.3392 39.6997 27.204 38.497 26.8701V25.1338C39.9002 24.2323 44.3769 20.9267 44.3769 15.6846C44.3769 9.60771 38.3634 5.8347 38.0961 5.66775L37.6618 5.40063L37.2275 5.66775C36.9602 5.8347 30.9467 9.60771 30.9467 15.6846C30.9467 20.9267 35.4234 24.1989 36.8266 25.1338V26.8701C35.5905 27.204 34.7219 28.3392 34.7219 29.6748C34.7219 29.9085 34.7553 30.1422 34.8221 30.376L29.9779 33.1807C29.4433 32.6798 28.7417 32.3459 27.9399 32.3459C26.3363 32.3459 25 33.6481 25 35.2842C25 36.6198 25.902 37.755 27.1047 38.0889V43.8987C25.902 44.266 25 45.3678 25 46.7034C25 48.3061 26.3029 49.6417 27.9399 49.6417C28.8086 49.6417 29.577 49.2744 30.1115 48.6734L34.8221 51.3779C34.7553 51.6117 34.7219 51.8454 34.7219 52.0791C34.7219 53.6818 36.0248 54.984 37.6618 54.984C39.2654 54.984 40.6017 53.6818 40.6017 52.0791C40.6017 51.8454 40.5683 51.6117 40.5015 51.3779L45.2121 48.6734C45.7466 49.2744 46.515 49.6417 47.3836 49.6417C48.9873 49.6417 50.3236 48.3395 50.3236 46.7034C50.3236 45.3678 49.4216 44.2326 48.2189 43.8987V38.0889C49.4216 37.7216 50.3236 36.6198 50.3236 35.2842C50.3236 35.0505 50.2902 34.8168 50.2568 34.6164L51.3258 34.0154C51.9272 34.3159 53.1633 34.7834 54.5331 34.7834C55.3683 34.7834 56.2703 34.6164 57.1389 34.1156C59.9786 32.4795 60.1457 28.6397 60.1457 28.5062V28.0053L59.678 27.7048ZM48.1855 36.2859C47.9516 36.4528 47.6843 36.553 47.3836 36.553C47.2166 36.553 47.083 36.5196 46.9159 36.4528C46.7823 36.4195 46.6821 36.3527 46.5818 36.2525C46.3146 36.0522 46.1475 35.7517 46.0807 35.4178C46.0807 35.351 46.0807 35.2842 46.0807 35.2174C46.0807 35.1507 46.0807 35.1173 46.0807 35.0505C46.1475 34.583 46.4482 34.1824 46.8825 34.0154C47.0162 33.9486 47.1832 33.9152 47.3502 33.9152C47.5173 33.9152 47.7177 33.9486 47.8514 34.0154C48.3191 34.2158 48.6532 34.6832 48.6532 35.2174C48.6532 35.2842 48.6532 35.351 48.6198 35.4178C48.5864 35.8184 48.4193 36.0856 48.1855 36.2859ZM48.6532 46.7034C48.6532 47.438 48.0518 48.0056 47.3502 48.0056C47.1164 48.0056 46.8491 47.9388 46.6821 47.8053C46.3146 47.5715 46.0473 47.1709 46.0473 46.7034V46.67C46.0473 46.5365 46.0807 46.4029 46.1141 46.2694C46.1809 46.0356 46.348 45.8353 46.5484 45.6683C46.7155 45.5348 46.9159 45.4346 47.1164 45.4012C47.1832 45.4012 47.25 45.3678 47.3502 45.3678C47.6509 45.3678 47.9516 45.468 48.152 45.6349C48.4861 45.9021 48.6532 46.2694 48.6532 46.7034ZM46.5484 43.8987C46.1475 43.9989 45.78 44.1992 45.4794 44.4663L40.5349 41.5948C40.5683 41.3945 40.6017 41.2275 40.6017 41.0272C40.6017 40.7601 40.5683 40.4596 40.4681 40.2259L45.3457 37.3878C45.6798 37.7216 46.0807 37.9554 46.5484 38.0889V43.8987ZM37.6618 53.3813C36.9936 53.3813 36.4591 52.9139 36.3589 52.2795C36.3589 52.2127 36.3589 52.1459 36.3589 52.0791C36.3589 51.5449 36.693 51.0774 37.1607 50.8771C37.3277 50.8103 37.4948 50.7769 37.6618 50.7769C37.8288 50.7769 37.9959 50.8103 38.1629 50.8771C38.6306 51.0774 38.9647 51.5449 38.9647 52.0791C38.9647 52.1459 38.9647 52.2127 38.9647 52.2795C38.8645 52.8805 38.2966 53.3813 37.6618 53.3813ZM34.7887 41.5948L29.8442 44.4663C29.5435 44.1992 29.1761 43.9989 28.7752 43.8987V38.0889C29.2429 37.9554 29.6438 37.7216 29.9779 37.3878L34.8555 40.1925C34.7887 40.4596 34.7219 40.7267 34.7219 41.0272C34.7219 41.2275 34.7553 41.4279 34.7887 41.5948ZM29.2763 46.7034C29.2763 47.1709 29.0424 47.5715 28.6415 47.8053C28.4411 47.9388 28.2072 48.0056 27.9734 48.0056C27.2384 48.0056 26.6704 47.4046 26.6704 46.7034C26.6704 46.3027 26.8709 45.9021 27.1715 45.6683C27.4054 45.5014 27.6727 45.4012 27.9734 45.4012C28.0402 45.4012 28.1404 45.4012 28.2072 45.4346C28.4411 45.468 28.6081 45.5682 28.7752 45.7017C28.9756 45.8353 29.1092 46.069 29.2095 46.3027C29.2429 46.4363 29.2763 46.5699 29.2763 46.7034C29.2763 46.67 29.2763 46.67 29.2763 46.7034ZM26.637 35.2842C26.637 34.5496 27.2384 33.982 27.9399 33.982C28.107 33.982 28.274 34.0154 28.4077 34.0822C28.842 34.2491 29.1426 34.6498 29.2095 35.1173C29.2095 35.184 29.2095 35.2508 29.2095 35.3176C29.2095 35.3844 29.2095 35.4512 29.2095 35.5179C29.1761 35.8518 28.9756 36.1523 28.7083 36.3527C28.6081 36.4195 28.5079 36.4862 28.3743 36.553C28.2406 36.6198 28.0736 36.6532 27.9065 36.6532C27.6059 36.6532 27.3052 36.553 27.1047 36.3861C26.8375 36.0522 26.637 35.6849 26.637 35.2842ZM36.86 28.6397C37.0939 28.4728 37.3611 28.3726 37.6618 28.3726C37.9625 28.3726 38.2631 28.4728 38.4636 28.6397C38.7309 28.84 38.8979 29.1406 38.9313 29.4744C38.9313 29.5412 38.9313 29.608 38.9313 29.6748C38.9313 30.0755 38.7309 30.4761 38.4302 30.7099C38.33 30.7766 38.2297 30.8434 38.0961 30.9102C37.9625 30.977 37.7954 31.0104 37.6284 31.0104C37.4613 31.0104 37.2943 30.977 37.1607 30.9102C37.027 30.8768 36.9268 30.81 36.8266 30.7099C36.5259 30.4761 36.3255 30.1088 36.3255 29.6748C36.3255 29.608 36.3255 29.5412 36.3255 29.4744C36.4257 29.1406 36.5927 28.84 36.86 28.6397ZM38.9647 41.0606C38.9647 41.4613 38.7643 41.7952 38.4636 42.0289C38.3968 42.0623 38.33 42.1291 38.2631 42.1624C38.0627 42.2626 37.8622 42.3294 37.6284 42.3294C37.3945 42.3294 37.1941 42.2626 37.027 42.1624C36.9602 42.1291 36.8934 42.0957 36.8266 42.0289C36.5259 41.7952 36.3255 41.4279 36.3255 41.0272V40.9938C36.3255 40.8603 36.3255 40.7601 36.3589 40.6599C36.4257 40.3928 36.5927 40.1591 36.7932 39.9587C36.9268 39.8586 37.0939 39.7584 37.2943 39.725C37.3945 39.6916 37.4948 39.6916 37.6284 39.6916C37.762 39.6916 37.8622 39.6916 37.9625 39.725C38.1295 39.7584 38.2966 39.8586 38.4302 39.9587C38.6306 40.1257 38.7977 40.3594 38.8645 40.6265C38.8979 40.7267 38.8979 40.8603 38.8979 40.9938C38.9647 41.0272 38.9647 41.0606 38.9647 41.0606ZM44.5105 34.583C44.4437 34.8168 44.4103 35.0505 44.4103 35.2842C44.4103 35.5179 44.4437 35.7851 44.5105 36.0188L39.5995 38.8569C39.2654 38.5564 38.8979 38.356 38.4636 38.2225V32.4795C38.9313 32.3459 39.3322 32.1122 39.6663 31.7783L44.5105 34.583ZM32.5837 15.718C32.5837 11.4107 36.3589 8.30552 37.6618 7.37061C38.9647 8.30552 42.7399 11.4107 42.7399 15.718C42.7399 19.324 40.0672 21.9284 38.4636 23.1638V16.3524C38.4636 15.9183 38.0961 15.551 37.6618 15.551C37.1941 15.551 36.86 15.9183 36.86 16.3524V23.1638C35.223 21.9284 32.5837 19.324 32.5837 15.718ZM35.6239 31.7783C35.958 32.1122 36.3923 32.3459 36.8266 32.4795V38.2225C36.3923 38.356 36.0248 38.5564 35.6907 38.8235L30.7463 35.9854C30.8131 35.7517 30.8465 35.5179 30.8465 35.2842C30.8465 35.0505 30.8131 34.8168 30.7463 34.583L35.6239 31.7783ZM30.8465 47.2043C30.8799 47.0373 30.8799 46.8704 30.8799 46.7034C30.8799 46.4029 30.8465 46.1024 30.7463 45.8019L35.5571 43.0306C35.8911 43.3979 36.3589 43.665 36.86 43.8319V49.2744C36.3923 49.408 35.9914 49.6417 35.6239 49.9756L30.8465 47.2043ZM39.6997 49.9756C39.3656 49.6417 38.9313 49.408 38.4636 49.2744V43.8319C38.9647 43.6984 39.4324 43.3979 39.7665 43.0306L44.5773 45.8019C44.4771 46.069 44.4437 46.3695 44.4437 46.7034C44.4437 46.8704 44.4437 47.0373 44.4771 47.2043L39.6997 49.9756ZM56.2703 32.6798C55.2012 33.2808 53.9985 33.1807 53.0631 32.9469L54.6667 32.012C55.0676 31.7783 55.2012 31.3109 54.9674 30.9102C54.7335 30.5095 54.2658 30.376 53.8649 30.6097L52.2613 31.5446C52.4951 30.6431 53.0297 29.5412 54.0987 28.9068C55.6355 28.0053 57.5398 28.5729 58.4084 28.9402C58.2748 29.8417 57.8405 31.7783 56.2703 32.6798Z" fill="#303030"/>
</svg>
