<svg width="140" height="60" viewBox="0 0 140 60" fill="none" xmlns="http://www.w3.org/2000/svg">
<mask id="mask0_321_21214" style="mask-type:alpha" maskUnits="userSpaceOnUse" x="13" y="11" width="41" height="38">
<rect x="13" y="11" width="40.5548" height="37.2421" fill="#D9D9D9"/>
</mask>
<g mask="url(#mask0_321_21214)">
<path fill-rule="evenodd" clip-rule="evenodd" d="M47.9929 22.3878L42.4659 19.1684C39.426 17.3977 36.0802 15.449 35.0307 14.8379L33.1225 13.7269L25.8684 17.9819L18.6142 22.2369V26.2542C18.6142 28.4638 18.6038 32.3188 18.5911 34.821L18.5679 39.3705L25.8834 43.7032C29.9069 46.0862 33.2174 48.0312 33.24 48.0254C33.2626 48.0197 36.5945 46.1163 40.6442 43.7956L48.0074 39.5762L48.0002 30.982L47.9929 22.3878ZM22.2667 22.7659C22.2658 22.7481 24.7115 21.2947 27.7015 19.5361C30.6915 17.7775 33.1437 16.3377 33.1506 16.3367C33.1718 16.3335 44.0492 22.6893 44.0977 22.7332C44.1332 22.7654 42.9778 23.4587 38.6928 25.9765C35.6952 27.7378 33.2269 29.1781 33.2077 29.177C33.1465 29.1738 22.2685 22.7996 22.2667 22.7659ZM20.8547 38.1204C20.8201 38.0929 20.8111 36.7677 20.8111 31.7049C20.8111 25.6422 20.8141 25.3252 20.8721 25.3473C20.9056 25.3601 23.392 26.8015 26.3974 28.5504L31.8616 31.7303L31.8634 38.1029C31.8643 41.6079 31.8577 44.4756 31.8485 44.4756C31.8268 44.4756 20.9119 38.166 20.8547 38.1204ZM34.7246 31.9297L40.2254 28.7206C43.2509 26.9557 45.7381 25.5103 45.7525 25.5087C45.7668 25.5072 45.7786 28.3746 45.7786 31.881V38.2561L40.3649 41.4252L34.8379 44.6604L34.7246 44.7266V38.3281V31.9297ZM35.2321 56.6455C35.2215 56.6455 35.2128 55.2725 35.2128 53.5943V50.5431H34.1143H33.0159V56.8548V63.1664H34.1318H35.2476V62.8136V62.4608L35.3797 62.5802C36.1246 63.2531 37.2809 63.5148 38.4275 63.27C39.8234 62.9719 40.8691 61.8679 41.1655 60.3792C41.2393 60.0085 41.247 59.0829 41.1794 58.7029C41.0065 57.7317 40.5086 56.9068 39.808 56.4311C39.5291 56.2417 39.02 56.0058 38.7173 55.9256C38.5221 55.8739 38.3473 55.8611 37.8455 55.8617C37.1406 55.8625 36.8723 55.9053 36.2785 56.112C35.8753 56.2524 35.7245 56.325 35.4501 56.511C35.3408 56.585 35.2427 56.6455 35.2321 56.6455ZM20.1654 52.6534C19.5825 52.0705 18.9 51.722 17.9323 51.5132C17.6018 51.4418 17.4782 51.4377 15.2928 51.4246L13 51.4108V57.2886V63.1664H14.1682H15.3364V61.3008V59.4352H16.1154H16.8945L18.1292 61.3005L19.3639 63.1659L20.7147 63.1661L22.0654 63.1664L21.7927 62.7392C21.6426 62.5043 21.0373 61.5601 20.4473 60.6411C19.8574 59.722 19.3688 58.9531 19.3615 58.9324C19.3543 58.9117 19.4538 58.8241 19.5827 58.7378C20.5266 58.1057 21.1104 56.9564 21.1835 55.5866C21.2466 54.4046 20.8904 53.3783 20.1654 52.6534ZM45.2956 53.2383C45.1954 53.0419 44.9399 52.8024 44.7112 52.6904C44.4763 52.5754 44.105 52.5411 43.8565 52.6115C43.5195 52.707 43.1832 52.991 43.0497 53.2928C42.9456 53.528 42.9738 53.991 43.1059 54.2164C43.3891 54.6997 44.0918 54.9317 44.6452 54.7247C44.9255 54.6198 45.2302 54.3281 45.3273 54.0716C45.4201 53.8263 45.406 53.4546 45.2956 53.2383ZM15.3364 57.2096V55.4064V53.6031L16.3912 53.6216C17.5 53.641 17.6783 53.6637 17.9971 53.8264C18.2077 53.9338 18.4114 54.1625 18.5514 54.4487C18.7432 54.8407 18.7984 55.0982 18.7796 55.5122C18.7599 55.9439 18.6884 56.164 18.4568 56.5059C18.2498 56.8113 18.0302 56.9801 17.6834 57.1001C17.4587 57.1779 17.3898 57.1831 16.3912 57.196L15.3364 57.2096ZM53.04 56.5459C52.7205 56.3538 52.1437 56.1501 51.7063 56.0748C51.0488 55.9615 50.3189 55.9782 49.7672 56.1191C48.4632 56.452 47.4824 57.4033 47.1576 58.6502C47.0116 59.2108 47.0018 60.018 47.1334 60.6382C47.4386 62.0762 48.4732 63.0171 50.0503 63.2908C50.5695 63.381 51.3733 63.3732 51.8462 63.2736C52.4283 63.1509 53.1124 62.8661 53.4586 62.6023C53.5138 62.5603 53.4705 62.4949 52.9776 61.8762C52.6797 61.5022 52.4226 61.1915 52.4064 61.1858C52.3901 61.1801 52.3006 61.2239 52.2074 61.2832C51.9263 61.4619 51.6052 61.5429 51.1836 61.5415C50.6677 61.5399 50.3929 61.4574 50.0077 61.1886C49.2947 60.6909 49.0597 59.5979 49.4808 58.7378C49.6127 58.4683 49.9335 58.1358 50.1976 57.9948C50.7851 57.6811 51.6582 57.7751 52.322 58.2234L52.5015 58.3446L53.0115 57.6704C53.2919 57.2996 53.53 56.9738 53.5405 56.9465C53.5632 56.8871 53.4288 56.7796 53.04 56.5459ZM26.0348 61.2355C25.8793 61.0306 25.8848 60.7034 25.8753 58.5373L25.865 56.1922H24.749H23.6329L23.6433 59.008C23.6537 61.8137 23.654 61.8247 23.7313 62.053C23.8967 62.5412 24.2854 62.9917 24.7493 63.2326C25.1523 63.4419 25.3896 63.4947 25.9197 63.493C26.5711 63.491 27.0111 63.379 27.4967 63.0916C27.7588 62.9365 28.1912 62.523 28.3432 62.2821C28.4103 62.1758 28.4745 62.088 28.4858 62.0871C28.4971 62.0862 28.533 62.2776 28.5656 62.5126C28.5981 62.7475 28.6338 62.9907 28.6448 63.053L28.6648 63.1664H29.6722H30.6795V59.6793V56.1922H29.566H28.4524L28.4379 57.9619C28.422 59.8949 28.4202 59.9144 28.2034 60.4766C28.0809 60.7942 27.816 61.1901 27.6321 61.3304C27.3901 61.515 27.1396 61.6051 26.8667 61.6059C26.5127 61.6068 26.3419 61.5505 26.1661 61.3747C26.1129 61.3215 26.0698 61.2816 26.0348 61.2355ZM45.2556 63.1664V59.6793V56.1922H44.1397H43.0238V59.6793V63.1664H44.1397H45.2556ZM35.6138 58.163C35.8585 57.9176 36.1544 57.7507 36.51 57.6575C36.8235 57.5754 37.2858 57.568 37.5679 57.6405C38.1761 57.7968 38.67 58.2596 38.8805 58.8706C38.9878 59.182 38.9953 59.8054 38.8953 60.0977C38.6031 60.9514 37.9059 61.4899 37.0901 61.4921C36.3998 61.4939 35.7726 61.1908 35.4073 60.6787L35.2476 60.455V59.5741C35.2476 58.5457 35.2531 58.5247 35.6138 58.163Z" fill="#45A351"/>
</g>
<mask id="mask1_321_21214" style="mask-type:alpha" maskUnits="userSpaceOnUse" x="56" y="16" width="71" height="28">
<rect x="56.4922" y="16.1836" width="69.9707" height="27.476" fill="#D9D9D9"/>
</mask>
<g mask="url(#mask1_321_21214)">
<path fill-rule="evenodd" clip-rule="evenodd" d="M117.179 -26.9762L107.953 -32.3507C102.878 -35.3065 97.2927 -38.5596 95.5407 -39.5797L92.3553 -41.4343L80.2455 -34.3313L68.1358 -27.2282V-20.5218C68.1358 -16.8333 68.1184 -10.3978 68.0971 -6.22079L68.0584 1.37388L80.2706 8.6067C86.9873 12.5847 92.5136 15.8316 92.5514 15.822C92.5891 15.8125 98.1512 12.635 104.912 8.76097L117.204 1.71733L117.191 -12.6295L117.179 -26.9762ZM74.2331 -26.345C74.2316 -26.3747 78.3143 -28.801 83.3057 -31.7368C88.2971 -34.6726 92.3906 -37.076 92.4022 -37.0777C92.4376 -37.083 110.596 -26.4729 110.677 -26.3996C110.736 -26.3459 108.807 -25.1885 101.654 -20.9854C96.65 -18.0452 92.5296 -15.6409 92.4975 -15.6426C92.3953 -15.648 74.2361 -26.2888 74.2331 -26.345ZM71.8759 -0.712959C71.8182 -0.758949 71.8031 -2.97105 71.8031 -11.4228C71.8031 -21.5434 71.8082 -22.0728 71.905 -22.0359C71.961 -22.0145 76.1117 -19.6082 81.1286 -16.6887L90.2504 -11.3803L90.2533 -0.742126C90.255 5.10892 90.2438 9.8961 90.2285 9.8961C90.1923 9.8961 71.9715 -0.636765 71.8759 -0.712959ZM95.0297 -11.0475L104.213 -16.4045C109.263 -19.3508 113.415 -21.7637 113.439 -21.7663C113.463 -21.769 113.483 -16.9821 113.483 -11.1288V-0.486458L104.445 4.80389C99.4749 7.71355 95.3229 10.1439 95.2189 10.2047L95.0297 10.3151V-0.366188V-11.0475ZM95.877 30.2121C95.8592 30.2121 95.8446 27.92 95.8446 25.1185V20.025H94.011H92.1773V30.5613V41.0977H94.0401H95.9029V40.5088V39.9199L96.1234 40.1191C97.3668 41.2424 99.2971 41.6793 101.211 41.2706C103.541 40.773 105.287 38.93 105.782 36.4449C105.905 35.8261 105.918 34.2809 105.805 33.6466C105.516 32.0252 104.685 30.6483 103.516 29.854C103.05 29.538 102.2 29.144 101.695 29.0102C101.369 28.9239 101.077 28.9025 100.24 28.9035C99.0629 28.9048 98.615 28.9764 97.6237 29.3215C96.9506 29.5557 96.6989 29.677 96.2408 29.9874C96.0585 30.1109 95.8947 30.2121 95.877 30.2121ZM70.7253 23.5477C69.7523 22.5748 68.6129 21.993 66.9975 21.6444C66.4457 21.5253 66.2393 21.5183 62.5911 21.4964L58.7637 21.4735V31.2855V41.0977H60.7138H62.6639V37.9833V34.869H63.9644H65.2649L67.3261 37.9829L69.3873 41.0968L71.6422 41.0973L73.897 41.0977L73.4417 40.3846C73.1913 39.9924 72.1807 38.4163 71.1959 36.8821C70.211 35.3479 69.3954 34.0643 69.3833 34.0297C69.3713 33.9951 69.5374 33.8488 69.7526 33.7048C71.3282 32.6496 72.3028 30.7311 72.4248 28.4443C72.5301 26.4712 71.9355 24.7579 70.7253 23.5477ZM112.676 24.5241C112.509 24.1963 112.083 23.7965 111.701 23.6095C111.309 23.4175 110.689 23.3603 110.274 23.4779C109.712 23.6373 109.15 24.1113 108.927 24.6152C108.754 25.0078 108.801 25.7807 109.021 26.157C109.494 26.9638 110.667 27.3511 111.591 27.0054C112.059 26.8304 112.567 26.3434 112.729 25.9153C112.884 25.5058 112.861 24.8853 112.676 24.5241ZM62.6639 31.1537V28.1435V25.1332L64.4248 25.1641C66.2758 25.1964 66.5734 25.2344 67.1056 25.5059C67.4572 25.6853 67.7972 26.067 68.0309 26.5447C68.3511 27.1992 68.4433 27.629 68.4118 28.3202C68.3791 29.0408 68.2597 29.4082 67.873 29.9789C67.5275 30.4888 67.1609 30.7706 66.582 30.971C66.2068 31.1008 66.0917 31.1094 64.4248 31.1309L62.6639 31.1537ZM125.605 30.0457C125.071 29.7251 124.108 29.385 123.378 29.2592C122.281 29.0702 121.062 29.098 120.141 29.3332C117.964 29.889 116.327 31.4771 115.785 33.5586C115.541 34.4945 115.525 35.8418 115.744 36.8773C116.254 39.2778 117.981 40.8485 120.614 41.3054C121.481 41.4559 122.822 41.443 123.612 41.2766C124.583 41.0718 125.726 40.5963 126.303 40.1561C126.396 40.0859 126.323 39.9767 125.5 38.9438C125.003 38.3195 124.574 37.8009 124.547 37.7914C124.52 37.7819 124.37 37.855 124.215 37.9539C123.745 38.2522 123.21 38.3874 122.506 38.3852C121.645 38.3826 121.186 38.2448 120.543 37.7961C119.352 36.9652 118.96 35.1406 119.663 33.7048C119.883 33.2548 120.419 32.6998 120.86 32.4644C121.84 31.9408 123.298 32.0977 124.406 32.8461L124.706 33.0485L125.557 31.9229C126.025 31.3039 126.423 30.7601 126.44 30.7144C126.478 30.6154 126.254 30.4358 125.605 30.0457ZM80.5234 37.8744C80.2638 37.5322 80.273 36.9861 80.2571 33.37L80.24 29.4553H78.3769H76.5138L76.5311 34.1559C76.5485 38.8396 76.549 38.8579 76.6781 39.2391C76.9541 40.054 77.6031 40.8061 78.3774 41.2082C79.0502 41.5577 79.4464 41.6458 80.3312 41.643C81.4187 41.6395 82.1532 41.4525 82.9639 40.9728C83.4013 40.7139 84.1232 40.0236 84.3769 39.6215C84.489 39.444 84.5961 39.2974 84.615 39.2959C84.6339 39.2944 84.6938 39.614 84.7482 40.0062C84.8025 40.3984 84.862 40.8045 84.8804 40.9085L84.9138 41.0977H86.5954H88.2771V35.2765V29.4553H86.4182H84.5592L84.535 32.4095C84.5085 35.6364 84.5055 35.669 84.1436 36.6075C83.9391 37.1377 83.4969 37.7986 83.1899 38.0328C82.7859 38.3409 82.3677 38.4914 81.9122 38.4927C81.3211 38.4943 81.036 38.4002 80.7426 38.1067C80.6537 38.0179 80.5818 37.9513 80.5234 37.8744ZM112.61 41.0977V35.2765V29.4553H110.747H108.884V35.2765V41.0977H110.747H112.61ZM96.5141 32.7453C96.9226 32.3356 97.4166 32.057 98.0102 31.9015C98.5336 31.7644 99.3053 31.7519 99.7763 31.8729C100.792 32.1339 101.616 32.9066 101.967 33.9266C102.147 34.4463 102.159 35.4869 101.992 35.975C101.504 37.4001 100.341 38.2991 98.9787 38.3026C97.8262 38.3057 96.7793 37.7997 96.1693 36.9449L95.9029 36.5715V35.1009C95.9029 33.3841 95.9119 33.349 96.5141 32.7453Z" fill="#45A351"/>
</g>
</svg>
