<svg width="180" height="120" fill="none" xmlns="http://www.w3.org/2000/svg"><path fill-rule="evenodd" clip-rule="evenodd" d="M115.342 14.25l.315 1.92c.248 1.787.363 3.59.344 5.393a50.186 50.186 0 01-1.42 11.828 44.544 44.544 0 01-6.544 14.693c-3.528 5.114-8.628 10.145-16.063 14.187l-.909.495-.91-.495c-7.434-4.042-12.532-9.073-16.062-14.187A44.522 44.522 0 0167.55 33.39a50.164 50.164 0 01-1.42-11.826 36.33 36.33 0 01.344-5.393l.315-1.92a1.214 1.214 0 00-.544-1.227 1.186 1.186 0 00-1.65.391 1.21 1.21 0 00-.163.443l-.315 1.92a38.532 38.532 0 00-.378 5.786 52.584 52.584 0 001.49 12.409 46.935 46.935 0 006.907 15.491c3.723 5.403 9.124 10.716 16.896 14.933l1.477.801a1.184 1.184 0 001.133 0l1.474-.801c7.765-4.22 13.167-9.53 16.897-14.933a46.932 46.932 0 006.903-15.49 52.548 52.548 0 001.489-12.408 38.61 38.61 0 00-.377-5.786l-.315-1.92a1.21 1.21 0 00-.907-.985 1.185 1.185 0 00-1.247.475 1.23 1.23 0 00-.204.903l-.012-.004z" fill="#DB665E"/><path fill-rule="evenodd" clip-rule="evenodd" d="M73.322 12.941l17.752-5.468 18.148 5.586c.304.092.631.058.911-.093a1.218 1.218 0 00.491-1.632 1.198 1.198 0 00-.705-.588L91.422 5.053a1.18 1.18 0 00-.697 0l-18.102 5.57a1.196 1.196 0 00-.713.587 1.216 1.216 0 00.494 1.64 1.191 1.191 0 00.916.087l.002.005z" fill="#DB665E"/><path fill-rule="evenodd" clip-rule="evenodd" d="M64.55 14.603L90 64.683a1.2 1.2 0 001.051.655 1.184 1.184 0 001.063-.636l15.52-29.266.023-.046 9.934-20.821c.134-.287.151-.617.046-.916a1.204 1.204 0 00-.606-.684 1.188 1.188 0 00-1.593.548l-9.917 20.805-14.422 27.214-24.424-48.035a1.202 1.202 0 00-.695-.608 1.185 1.185 0 00-1.286.367 1.209 1.209 0 00-.144 1.338v.005z" fill="#DB665E"/><path fill-rule="evenodd" clip-rule="evenodd" d="M78.006 37.063h27.632c.309 0 .606-.149.825-.414.218-.265.341-.625.341-1s-.123-.735-.341-1c-.219-.266-.516-.415-.825-.415H78.006c-.31 0-.606.15-.825.414a1.58 1.58 0 00-.341 1c0 .376.123.736.341 1.001.219.265.516.414.825.414z" fill="#DB665E"/><path d="M71.314 114.866v-8.605h2.888c.667 0 1.215.115 1.643.344.428.227.746.539.951.937.206.398.31.85.31 1.357s-.104.957-.31 1.349c-.205.392-.521.7-.947.924-.425.222-.969.332-1.63.332h-2.337v-.941h2.303c.456 0 .823-.067 1.101-.202a1.27 1.27 0 00.61-.571 1.94 1.94 0 00.191-.891 2.01 2.01 0 00-.192-.903 1.312 1.312 0 00-.613-.597c-.28-.143-.652-.214-1.114-.214H72.35v7.681h-1.035zM75.337 111l2.103 3.866h-1.202L74.168 111h1.168zm5.977 4c-.618 0-1.15-.137-1.598-.412a2.758 2.758 0 01-1.03-1.159c-.24-.499-.36-1.079-.36-1.74s.12-1.243.36-1.748a2.845 2.845 0 011.009-1.185c.434-.285.94-.428 1.519-.428.333 0 .663.056.988.168.326.112.622.294.889.546.267.249.48.58.638.992.159.412.238.918.238 1.521v.42h-4.94v-.857h3.939c0-.364-.073-.689-.217-.975a1.638 1.638 0 00-1.535-.924c-.393 0-.732.098-1.019.294a1.927 1.927 0 00-.654.756c-.153.311-.23.644-.23 1v.571c0 .488.083.901.25 1.24.17.336.405.592.705.769.3.173.65.26 1.048.26.258 0 .492-.036.7-.109.212-.076.394-.188.547-.336.153-.151.271-.339.355-.563l.95.269c-.1.325-.267.61-.504.857a2.45 2.45 0 01-.876.571 3.217 3.217 0 01-1.172.202zm9.196-6.588l-2.37 6.454h-1.001l-2.37-6.454h1.068l1.769 5.143h.067l1.769-5.143h1.068zm1.3 6.454v-6.454h.984v6.454h-.985zm.5-7.53a.696.696 0 01-.497-.197.637.637 0 01-.204-.475c0-.185.068-.343.204-.475a.7.7 0 01.497-.197c.192 0 .356.066.492.197.14.132.209.29.209.475s-.07.343-.209.475a.681.681 0 01-.492.197zM97.284 115c-.618 0-1.15-.137-1.598-.412a2.758 2.758 0 01-1.03-1.159c-.24-.499-.36-1.079-.36-1.74s.12-1.243.36-1.748a2.845 2.845 0 011.01-1.185c.433-.285.94-.428 1.518-.428.334 0 .663.056.989.168.325.112.621.294.888.546.267.249.48.58.638.992.159.412.238.918.238 1.521v.42h-4.94v-.857h3.939a2.13 2.13 0 00-.217-.975 1.637 1.637 0 00-.61-.676 1.69 1.69 0 00-.925-.248c-.392 0-.732.098-1.018.294a1.927 1.927 0 00-.655.756c-.153.311-.23.644-.23 1v.571c0 .488.084.901.25 1.24.17.336.405.592.706.769.3.173.65.26 1.047.26.259 0 .492-.036.7-.109a1.51 1.51 0 00.547-.336c.153-.151.271-.339.355-.563l.951.269c-.1.325-.268.61-.505.857a2.45 2.45 0 01-.876.571 3.217 3.217 0 01-1.172.202zm5.603-.134l-1.953-6.454h1.035l1.385 4.941h.067l1.368-4.941h1.052l1.351 4.924h.067l1.385-4.924h1.035l-1.953 6.454h-.968l-1.401-4.958h-.1l-1.402 4.958h-.968z" fill="#717171"/><g opacity=".15" fill="#303030"><path d="M126.47 60.077h.89c.08 0 .242.081.323.081.404.08.889.323 1.375.485.485.161.889.404 1.293.646.405.242.809.404 1.051.565.243.162.405.242.405.242l-.081.081c-.081 0-.162.08-.324.08-.323.082-.727.162-1.132.243-.08 0-.242.08-.323.08-.162 0-.243 0-.404.082-.243 0-.485.08-.809.08a8.01 8.01 0 01-1.455-.161c-.89-.242-1.456-.808-1.86-1.212-.404-.484-.566-.807-.566-.807s.323-.162.809-.323c.161-.162.404-.162.808-.162zm-1.373-3.553c.243-.323.486-.646.728-.888.162-.162.324-.242.404-.404.081-.08.162-.08.243-.161.081-.081.162-.081.243-.162.242-.242.485-.404.727-.485.162-.161.324-.161.324-.161v.404c0 .242 0 .646-.081 1.05-.081.403-.162.888-.243 1.292-.162.404-.323.888-.566 1.211-.081.08-.081.162-.161.242l-.081.081-.081.08c-.162.162-.243.243-.405.324-.161.08-.242.161-.404.242-.161.08-.242.08-.404.162-.485.161-.809.08-.809.08s-.08-.403 0-.969c0-.323.081-.646.162-.969 0-.08.081-.161.081-.242 0-.08.081-.162.081-.242 0-.162.081-.323.242-.485zm6.873.969s.081-.08.162-.08a2.48 2.48 0 01.485-.324.617.617 0 01.404-.161c.162-.081.323-.081.485-.162.324-.08.728-.161 1.132-.161.243 0 .485 0 .728.08.242 0 .485.081.727.081.243 0 .486.081.728.162.243.08.485.08.728.161.485.081.889.162 1.132.243.323.08.485.08.485.08s-.162.081-.404.243c-.162.08-.243.161-.485.242-.081.08-.162.08-.243.161-.081.081-.162.081-.323.162a2.41 2.41 0 00-.647.323c-.081.08-.243.08-.324.162-.081 0-.081.08-.161.08-.081 0-.162 0-.162.081-.485.162-.97.242-1.456.242-.97 0-1.697-.403-2.183-.727-.242-.161-.404-.323-.566-.484-.242-.242-.323-.404-.242-.404-.081 0 0 0 0 0zm1.294-2.746c-.081.404-.323.727-.485.97-.081.16-.243.242-.324.322-.08.081-.242.162-.323.243-.242.161-.404.242-.566.242-.081 0-.162 0-.162.08h-.08s-.081-.08-.081-.242c-.081-.161-.081-.404-.162-.646-.081-.565-.162-1.292.081-2.019.081-.404.242-.727.485-1.05.162-.323.404-.646.647-.888.081-.161.242-.242.323-.404.081-.08.162-.242.243-.323l.242-.242s.081.162.081.404c.081.242.162.646.162 1.05 0 .242.081.403.081.646v.646c0 .242 0 .484-.081.646 0 .161 0 .404-.081.565zm5.091-2.342c.08-.161.242-.323.404-.484.162-.162.404-.404.728-.565.323-.162.646-.324 1.051-.485.161 0 .323-.08.485-.08.162 0 .323-.081.485-.081.809-.162 1.698-.162 2.426-.243.727 0 1.212-.08 1.212-.08s-.161.242-.485.565c-.242.323-.727.727-1.213 1.13-.08.081-.161.081-.242.162l-.081.08s-.081.081-.162.081c-.161.081-.323.243-.485.323l-.485.243c-.162.08-.323.161-.485.161-.889.242-1.698.081-2.264-.08-.566-.243-.889-.485-.889-.485s-.081-.08 0-.162zm-.241-1.05l-.405.404c-.161.08-.242.08-.242.08s-.243-.322-.566-.807c-.243-.484-.566-1.211-.566-2.019 0-.242 0-.565.081-.888 0-.161.081-.242.081-.404 0-.161.08-.242.08-.403.081-.243.162-.404.243-.647 0-.08.081-.08.081-.161 0-.08 0-.08.081-.162 0-.08.081-.161.081-.242l.242-.485s.243.404.566.97l.243.484c0 .08.081.162.081.242 0 .081.08.162.08.243.162.323.243.727.324 1.13 0 .162.081.323.081.404v.404c0 .404-.081.727-.162 1.05-.081.323-.243.565-.404.807zm6.305-5.007h-.485c-.647 0-.97-.161-.97-.161s0-.08.081-.242c0-.081.081-.162.081-.243 0-.08.08-.161.161-.323.081-.242.243-.484.485-.726l.162-.162c.081-.08.162-.161.243-.161.161-.162.323-.243.485-.324.162-.08.404-.242.647-.323.242-.08.404-.242.647-.323.485-.161.97-.403 1.374-.484.404-.162.809-.323 1.132-.404.243-.08.485-.162.485-.162s-.081.162-.161.404l-.243.485c-.081.161-.243.323-.323.565a2.455 2.455 0 01-.405.566c0 .08-.081.08-.081.161 0 .08-.08.08-.08.162-.081.08-.162.161-.243.322-.162.162-.323.404-.566.566l-.243.242c-.08.08-.161.162-.323.162-.404.242-.809.403-1.213.403-.323-.08-.485 0-.647 0zm-1.774-2.18c0 .323-.162.565-.243.807-.081.081-.081.243-.162.323-.081.081-.081.162-.161.243l-.162.161s-.324-.242-.728-.646c-.081-.08-.162-.242-.323-.323-.081-.161-.243-.242-.324-.404-.161-.323-.404-.646-.485-.969 0-.08-.081-.161-.081-.242 0-.08-.081-.162-.081-.323 0-.162-.08-.404-.08-.565V41.1c0-.162 0-.324.08-.486v-.403c0-.242.081-.323.081-.323s.162.08.324.323l.727.727c.243.323.566.646.809 1.05.162.16.243.403.323.565.081.161.162.404.243.565.081.162.081.404.081.565v.404c.162 0 .162.08.162.08zm5.334-5.815c-.162.081-.324.243-.486.323-.323.162-.646.243-.97.323-.566.081-1.051.081-1.051.081s-.081-.323.081-.807c0-.162.081-.243.081-.404.081-.162.081-.323.161-.404l.243-.485c.081-.08.081-.161.162-.242l.081-.08.08-.081c.566-.646 1.537-1.292 2.264-1.777.405-.242.728-.484.971-.646.242-.162.404-.242.404-.242s0 .161-.081.484c-.081.323-.162.646-.242 1.13-.162.405-.324.89-.486 1.374-.08.08-.08.242-.161.323-.081.08-.162.242-.162.323-.162.242-.323.404-.404.565-.162-.08-.324.08-.485.242zm-3.64.485s-.404-.162-.889-.404c-.243-.161-.566-.323-.809-.565-.161-.081-.242-.242-.404-.404-.162-.162-.242-.323-.323-.485a1.689 1.689 0 00-.324-.484c-.08-.162-.161-.323-.242-.566a7.415 7.415 0 01-.324-1.05c-.08-.322-.161-.645-.161-.807v-.323s.161.08.404.162c.243.161.566.323.889.565.324.242.728.484 1.051.808.324.323.647.646.89.969l.242.484c.081.162.081.323.162.485 0 .161.081.323.081.484v.404c-.081.404-.243.727-.243.727zm4.53-11.145c0 .162-.081.404-.081.566-.081.403-.162.726-.324 1.05a5.034 5.034 0 01-.727.968c-.243.243-.566.404-.809.566-.566.242-.97.323-.97.323s0-.08-.081-.242c0-.162-.081-.323-.081-.566 0-.242 0-.565.081-.888.081-.323.162-.646.323-1.05.081-.161.162-.242.243-.404.081-.08.081-.161.162-.161.081-.081.081-.162.162-.162l.727-.969c.243-.323.485-.646.728-.888.404-.566.728-.889.728-.889s.08.243.08.727c0 .243.081.485.081.727v.888c-.161.081-.161.243-.242.404zm-6.957 2.423l-.162-.161-.161-.162c-.081-.08-.162-.242-.324-.323-.08-.08-.161-.242-.242-.323-.081-.162-.162-.242-.243-.323-.161-.162-.242-.404-.323-.565-.081-.081-.081-.162-.162-.243 0-.08-.081-.161-.162-.242l-.242-.484s.485.08 1.132.242c.162.08.323.08.485.161.162.081.323.081.566.162.323.161.728.323 1.051.485l.728.484c.323.242.566.565.647.808.161.323.242.565.242.807v.566c0 .161-.081.242-.081.242s-.404 0-.97-.162c-.485-.161-1.213-.404-1.779-.969zm3.559-7.995c-.162.323-.404.565-.647.808-.404.403-.808.565-.808.565l-.162-.162a3.914 3.914 0 01-.243-.565c-.08-.242-.161-.485-.242-.808v-.565c0-.161 0-.404.081-.565 0-.242.081-.404.161-.646 0-.081.081-.242.081-.323 0-.081.081-.242.081-.323a9.95 9.95 0 01.566-1.373c.081-.242.162-.404.243-.566l.242-.484c.081-.242.162-.404.162-.404s.081.162.243.404c.08.162.161.323.161.485.081.161.162.403.243.565 0 .08.081.242.081.323 0 .08.081.242.081.323.08.242.08.484.161.727 0 .242.081.484.081.727 0 .242 0 .484-.081.726-.161.485-.323.808-.485 1.131zm-6.144 1.211c-.162-.08-.323-.242-.485-.323-.162-.161-.323-.242-.404-.404l-.405-.403-.323-.324-.162-.161c-.081-.08-.081-.08-.081-.162l-.242-.242h1.455c.405 0 .89.081 1.375.162.081 0 .242.08.323.08.081 0 .243.081.324.081.242.081.404.162.646.242.162.081.324.162.486.324.161.08.242.242.404.323.242.242.404.484.485.726.081.243.162.404.162.566v.242s-.405.08-.971.08c-.323 0-.646 0-.97-.08-.323-.08-.728-.162-1.132-.323-.162-.162-.323-.323-.485-.404zm1.861-8.076a3.004 3.004 0 01-.404.889c-.324.484-.647.807-.647.807s-.324-.161-.647-.565c-.081-.08-.162-.242-.243-.323-.08-.162-.161-.242-.242-.404-.162-.323-.243-.646-.243-1.13-.081-.404 0-.889 0-1.373 0-.485.081-.97.162-1.454s.081-.808.162-1.13c.08-.243.081-.485.081-.485l.08.08.243.243c.162.242.404.565.728.888.242.404.485.808.727 1.292.162.485.324.97.405 1.373v.646c0 .323-.081.485-.162.646zm-5.581 2.746c-.081 0-.162-.08-.323-.08-.081 0-.081 0-.162-.082-.081 0-.081 0-.162-.08a13.3 13.3 0 01-1.051-.485c-.323-.161-.566-.323-.728-.404-.08-.08-.161-.08-.242-.161-.081 0-.081-.08-.081-.08l.081-.082c.081 0 .162-.08.323-.08.243-.081.647-.162 1.051-.323.243-.081.405-.081.647-.162.081 0 .243 0 .324-.08h1.698c.404.08.727.242 1.051.403.162.08.242.162.404.242.081.081.162.162.243.323.323.404.404.727.404.727s-.404.242-.97.323c-.324.081-.647.162-.971.162h-1.132s-.161 0-.404-.081zm-1.052-6.864a.998.998 0 01-.162.242h-.08s-.081 0-.162-.08c-.162-.082-.324-.162-.566-.324a3.83 3.83 0 01-1.213-1.615c-.081-.242-.243-.565-.323-.888l-.243-1.212a26.084 26.084 0 00-.243-1.13c-.08-.646-.161-1.131-.161-1.131s.242.162.566.404c.161.161.404.242.566.404.242.161.404.403.647.565l.404.404.081.08.081.081c.08.081.08.162.161.242.243.324.405.647.566.97.081.242.162.403.162.646 0 .161.081.403.081.565 0 .404-.081.727-.081.97.081.484 0 .645-.081.807zm-5.335 2.342c-.242-.081-.485-.081-.647-.162-.242-.08-.404-.08-.566-.162-.323-.08-.485-.161-.485-.161s.324-.242.89-.646a5.37 5.37 0 01.97-.485 4.68 4.68 0 011.132-.403c.323-.081.566-.162.808-.162.809-.08 1.456.162 1.86.485.243.161.323.242.485.403.081.081.081.081.081.162v.08s-.081.082-.243.162c-.161.081-.323.243-.566.404a2.985 2.985 0 01-.889.404c-.162.08-.323.161-.566.161-.162.081-.404.081-.566.081-.566 0-1.132-.08-1.698-.161z"/><path d="M120.568 60.643c.161 0 .323-.081.566-.081.081 0 .242 0 .323-.08.162 0 .243-.082.404-.082.243-.08.566-.08.89-.161l.97-.242c.162 0 .324-.081.485-.081.162-.08.324-.08.485-.162.324-.08.728-.161 1.052-.323 1.455-.403 2.749-.969 3.8-1.453.242-.162.485-.243.647-.323.081-.081.161-.081.242-.162.081-.08.162-.08.243-.162.242-.161.404-.242.404-.242s.162-.08.404-.242c.243-.162.647-.404 1.132-.727.89-.565 2.103-1.453 3.235-2.423 1.132-.969 2.102-2.019 2.83-2.826.08-.08.161-.162.242-.323l.243-.242c.161-.162.242-.323.323-.404.081-.081.162-.242.243-.323l.081-.081s.08-.162.323-.404c.081-.161.243-.242.323-.484.162-.162.243-.404.405-.646.081-.081.161-.243.242-.323.081-.162.162-.243.243-.404.162-.243.323-.566.485-.808.162-.323.323-.565.485-.888.081-.081.081-.162.162-.242 0-.081.081-.162.081-.243l.242-.484c.566-1.293 1.132-2.665 1.375-3.715 0-.162.081-.242.081-.404 0-.08.081-.242.081-.323.08-.242.08-.404.161-.565.081-.323.081-.485.081-.485v-.161c0-.081 0-.243.081-.323 0-.162.081-.323.081-.566 0-.242.081-.484.162-.727 0-.242.08-.565.08-.888v-.969c.081-.646.081-1.373.081-2.1 0-.727 0-1.453-.081-2.1v-.969c0-.323-.08-.565-.08-.888 0-.242-.081-.485-.162-.727 0-.242-.081-.404-.081-.565 0-.162-.081-.242-.081-.323v-.162s-.081-.161-.081-.484c0-.162-.081-.323-.161-.566 0-.08-.081-.242-.081-.323 0-.08-.081-.242-.081-.403-.324-1.05-.809-2.342-1.375-3.715l-.242-.485c0-.08-.081-.161-.081-.242-.081-.08-.081-.162-.162-.242-.162-.323-.323-.646-.485-.889a7.106 7.106 0 00-.485-.807c-.081-.162-.162-.242-.243-.404a1.115 1.115 0 00-.242-.323c-.162-.242-.324-.404-.405-.646a1.707 1.707 0 01-.323-.485 2.939 2.939 0 00-.323-.403l-.081-.081c-.081-.081-.081-.162-.243-.323-.081-.162-.242-.243-.323-.404l-.243-.242a1.096 1.096 0 01-.242-.323c-.728-.808-1.698-1.858-2.83-2.827a33.515 33.515 0 00-3.235-2.423c-.485-.323-.889-.565-1.132-.727-.323-.161-.404-.242-.404-.242s-.162-.08-.404-.242c-.081 0-.162-.08-.243-.162-.081-.08-.161-.08-.242-.161-.081 0-.162-.08-.243-.08h-.728a4.917 4.917 0 01-2.021-.485 3.8 3.8 0 01-.97-.727c-.162-.162-.324-.243-.405-.404l-.404-.404c-.242-.242-.404-.484-.566-.646l-.242-.242h1.778c.081 0 .243 0 .324.08.242 0 .485.081.728.162.485.08.889.242 1.293.485.324.161.647.403.89.646.242.242.323.484.404.727.081.242.162.403.162.565v.08h.081c.08.081.161.081.323.162.081.08.162.08.242.162.243.161.405.242.405.242l.485.242c.242.162.647.404 1.132.727.889.646 2.102 1.454 3.234 2.423 1.132.969 2.102 2.019 2.83 2.826.081.081.162.243.243.323l.242.243c.162.161.243.323.405.484.08.162.161.242.242.323l.081.081s.081.162.323.404c.081.161.243.323.324.484.162.162.242.404.404.646.081.081.162.243.243.323.081.162.161.243.242.404.162.242.324.566.485.808.162.323.324.646.486.888.08.08.08.162.161.242 0 .081.081.162.081.243l.243.484c.647 1.292 1.132 2.665 1.374 3.715 0 .162.081.242.081.404 0 .08.081.242.081.323.081.242.081.404.162.565.081.323.081.485.081.485v.161c0 .081-.001.243.08.323 0 .162.081.323.081.566 0 .242.081.484.162.726 0 .243.081.566.081.889v.969c.081.646.081 1.373.081 2.1 0 .726 0 1.453-.081 2.1v.968c0 .324-.081.566-.081.889 0 .242-.081.484-.162.727 0 .242-.081.404-.081.565 0 .162-.08.242-.08.323v.162s-.081.161-.081.484c0 .162-.081.323-.162.565 0 .081-.081.243-.081.323 0 .081-.081.243-.081.404a36.26 36.26 0 01-1.374 3.715l-.243.485c0 .08-.081.161-.081.242-.081.08-.081.161-.161.242a8.9 8.9 0 01-.486.889c-.161.323-.323.565-.485.807-.081.162-.161.242-.242.404a1.114 1.114 0 01-.243.323c-.162.242-.323.404-.404.646a1.689 1.689 0 00-.324.485 2.853 2.853 0 01-.323.403l-.081.081c-.081.081-.162.162-.242.323-.081.162-.243.242-.405.485l-.242.242c-.081.08-.162.162-.243.323-.728.808-1.779 1.858-2.83 2.827a30.487 30.487 0 01-3.234 2.422c-.485.323-.89.566-1.132.727l-.485.242s-.162.081-.405.243c-.08 0-.161.08-.242.161-.081.081-.162.081-.323.162-.243.08-.405.242-.647.323a22.115 22.115 0 01-3.801 1.453c-.323.162-.727.243-1.051.323-.161.081-.323.081-.566.162-.161.08-.323.08-.485.08-.323.082-.647.162-.97.243-.324.08-.647.08-.89.162-.161 0-.242.08-.404.08-.162 0-.242 0-.323.081-.243 0-.405.08-.566.08-.324 0-.485.082-.485.082V60.4c-.081.323.161.323.485.243z"/><path d="M123.723 60.4s-3.881.97-4.771 4.603l.081-4.199 4.447-.565.243.161z"/></g><g opacity=".15" fill="#303030"><path d="M53.53 60.077h-.889c-.081 0-.243.081-.324.081-.404.08-.89.323-1.374.485-.486.161-.89.404-1.294.646s-.809.404-1.051.565a4.207 4.207 0 01-.405.242l.081.081c.081 0 .162.08.324.08.323.082.727.162 1.132.243.08 0 .242.08.323.08.162 0 .243 0 .404.082.243 0 .486.08.809.08.485 0 1.051-.08 1.455-.161.89-.242 1.456-.808 1.86-1.212.404-.484.566-.807.566-.807s-.323-.162-.809-.323c-.161-.162-.404-.162-.808-.162zm1.373-3.553c-.243-.323-.486-.646-.728-.888-.162-.162-.323-.242-.404-.404-.081-.08-.162-.08-.243-.161-.08-.081-.162-.081-.242-.162-.243-.242-.486-.404-.728-.485-.162-.161-.324-.161-.324-.161v.404c0 .242 0 .646.081 1.05.081.403.162.888.243 1.292.161.404.323.888.566 1.211.08.08.08.162.161.242l.081.081.081.08c.162.162.243.243.404.324.162.08.243.161.405.242.161.08.242.08.404.162.485.161.809.08.809.08s.08-.403 0-.969c0-.323-.081-.646-.162-.969 0-.08-.08-.161-.08-.242 0-.08-.082-.162-.082-.242 0-.162-.08-.323-.242-.485zm-6.873.969s-.08-.08-.162-.08a2.516 2.516 0 00-.485-.324.617.617 0 00-.404-.161c-.162-.081-.323-.081-.485-.162a4.775 4.775 0 00-1.132-.161c-.243 0-.485 0-.728.08-.242 0-.485.081-.727.081-.243 0-.486.081-.728.162-.243.08-.485.08-.728.161-.485.081-.89.162-1.132.243-.323.08-.485.08-.485.08s.162.081.404.243c.162.08.243.161.485.242.081.08.162.08.243.161.08.081.162.081.323.162.243.08.405.161.647.323.081.08.243.08.324.162.08 0 .08.08.161.08s.162 0 .162.081c.485.162.97.242 1.456.242.97 0 1.697-.403 2.183-.727.242-.161.404-.323.566-.484.242-.242.323-.404.242-.404.081 0 0 0 0 0zm-1.294-2.746c.08.404.323.727.485.97.08.16.243.242.324.322.08.081.242.162.323.243.242.161.404.242.566.242.08 0 .162 0 .162.08h.08s.081-.08.081-.242c.081-.161.081-.404.162-.646.08-.565.162-1.292-.08-2.019a2.503 2.503 0 00-.486-1.05 3.586 3.586 0 00-.647-.888c-.08-.161-.242-.242-.323-.404-.081-.08-.162-.242-.243-.323l-.242-.242s-.081.162-.081.404a3.573 3.573 0 00-.162 1.05c0 .242-.08.403-.08.646v.646c0 .242 0 .484.08.646 0 .161 0 .404.08.565zm-5.091-2.342c-.08-.161-.242-.323-.404-.484-.162-.162-.404-.404-.727-.565-.324-.162-.647-.324-1.052-.485-.161 0-.323-.08-.485-.08-.161 0-.323-.081-.485-.081-.808-.162-1.698-.162-2.426-.243-.727 0-1.213-.08-1.213-.08s.162.242.486.565c.242.323.727.727 1.212 1.13.081.081.162.081.243.162l.08.08s.082.081.163.081c.161.081.323.243.485.323l.485.243c.162.08.323.161.485.161.89.242 1.698.081 2.264-.08.566-.243.89-.485.89-.485s.08-.08 0-.162zm.241-1.05l.405.404c.161.08.242.08.242.08s.243-.322.566-.807c.243-.484.566-1.211.566-2.019 0-.242 0-.565-.08-.888 0-.161-.082-.242-.082-.404 0-.161-.08-.242-.08-.403-.081-.243-.162-.404-.243-.647 0-.08-.08-.08-.08-.161 0-.08 0-.08-.082-.162 0-.08-.08-.161-.08-.242l-.243-.485s-.243.404-.566.97l-.243.484c0 .08-.08.162-.08.242 0 .081-.081.162-.081.243-.162.323-.243.727-.324 1.13 0 .162-.08.323-.08.404v.404c0 .404.08.727.161 1.05.08.323.243.565.404.807zm-6.306-5.007h.486c.647 0 .97-.161.97-.161s0-.08-.08-.242c0-.081-.082-.162-.082-.243 0-.08-.08-.161-.161-.323-.081-.242-.243-.484-.485-.726l-.162-.162c-.081-.08-.162-.161-.243-.161-.161-.162-.323-.243-.485-.324-.162-.08-.404-.242-.647-.323-.242-.08-.404-.242-.647-.323-.485-.161-.97-.403-1.374-.484-.404-.162-.809-.323-1.132-.404-.243-.08-.485-.162-.485-.162s.08.162.162.404l.242.485c.08.161.243.323.323.565.081.162.243.404.405.566 0 .08.08.08.08.161 0 .08.081.08.081.162.081.08.162.161.243.322.162.162.323.404.566.566l.243.242c.08.08.161.162.323.162.404.242.809.403 1.213.403.323-.08.485 0 .647 0zm1.775-2.18c0 .323.162.565.243.807.08.081.08.243.162.323.08.081.08.162.161.243l.162.161s.324-.242.728-.646c.08-.08.162-.242.323-.323.081-.161.243-.242.324-.404.161-.323.404-.646.485-.969 0-.08.08-.161.08-.242 0-.08.082-.162.082-.323 0-.162.08-.404.08-.565V41.1c0-.162 0-.324-.08-.486v-.403c0-.242-.081-.323-.081-.323s-.162.08-.324.323l-.727.727c-.243.323-.566.646-.809 1.05-.162.16-.242.403-.323.565-.081.161-.162.404-.243.565-.08.162-.08.404-.08.565v.404c-.163 0-.163.08-.163.08zm-5.334-5.815c.162.081.324.243.486.323.323.162.646.243.97.323.566.081 1.051.081 1.051.081s.08-.323-.08-.807c0-.162-.082-.243-.082-.404-.08-.162-.08-.323-.161-.404l-.243-.485c-.08-.08-.08-.161-.162-.242l-.08-.08-.081-.081c-.567-.646-1.537-1.292-2.264-1.777-.405-.242-.728-.484-.97-.646-.243-.162-.405-.242-.405-.242s0 .161.08.484c.082.323.163.646.243 1.13.162.405.324.89.486 1.374.08.08.08.242.161.323.081.08.162.242.162.323.162.242.323.404.404.565.162-.08.324.08.485.242zm3.639.485s.405-.162.89-.404c.242-.161.566-.323.809-.565.161-.081.242-.242.404-.404a1.69 1.69 0 00.323-.485c.081-.161.162-.323.324-.484.08-.162.161-.323.242-.566.162-.403.243-.726.324-1.05.08-.322.161-.645.161-.807v-.323s-.161.08-.404.162c-.242.161-.566.323-.89.565-.323.242-.727.484-1.05.808-.324.323-.647.646-.89.969l-.242.484c-.081.162-.081.323-.162.485 0 .161-.081.323-.081.484v.404c.08.404.242.727.242.727zm-4.529-11.145c0 .162.081.404.081.566.08.403.162.726.323 1.05.243.403.486.726.728.968.243.243.566.404.809.566.566.242.97.323.97.323s0-.08.08-.242c0-.162.082-.323.082-.566 0-.242 0-.565-.081-.888a7.489 7.489 0 00-.323-1.05c-.081-.161-.162-.242-.243-.404-.08-.08-.08-.161-.162-.161-.08-.081-.08-.162-.162-.162l-.727-.969c-.243-.323-.485-.646-.728-.888-.404-.566-.728-.889-.728-.889s-.08.243-.08.727c0 .243-.081.485-.081.727v.888c.161.081.161.243.242.404zm6.957 2.423l.161-.161.162-.162c.081-.08.162-.242.324-.323.08-.08.161-.242.242-.323.081-.162.162-.242.243-.323.162-.162.242-.404.323-.565.081-.081.081-.162.162-.243 0-.08.08-.161.162-.242l.242-.484s-.485.08-1.132.242c-.161.08-.323.08-.485.161-.162.081-.323.081-.566.162-.323.161-.728.323-1.051.485l-.728.484c-.323.242-.566.565-.647.808-.161.323-.242.565-.242.807v.566c0 .161.08.242.08.242s.405 0 .97-.162c.486-.161 1.214-.404 1.78-.969zm-3.559-7.995c.162.323.404.565.647.808.404.403.808.565.808.565l.162-.162c.08-.161.162-.323.243-.565.08-.242.161-.485.242-.808v-.565c0-.161 0-.404-.08-.565 0-.242-.082-.404-.162-.646 0-.081-.081-.242-.081-.323 0-.081-.081-.242-.081-.323a9.852 9.852 0 00-.566-1.373 3.932 3.932 0 00-.243-.566l-.242-.484c-.081-.242-.162-.404-.162-.404s-.08.162-.242.404c-.081.162-.162.323-.162.485-.081.161-.162.403-.243.565 0 .08-.08.242-.08.323 0 .08-.081.242-.081.323-.081.242-.081.484-.162.727 0 .242-.081.484-.081.727 0 .242 0 .484.08.726.163.485.324.808.486 1.131zm6.144 1.211c.162-.08.323-.242.485-.323.162-.161.323-.242.404-.404l.405-.403.323-.324.162-.161c.08-.08.08-.08.08-.162l.243-.242H41.32c-.404 0-.89.081-1.375.162-.08 0-.242.08-.323.08-.081 0-.243.081-.324.081-.242.081-.404.162-.647.242-.161.081-.323.162-.485.324-.161.08-.242.242-.404.323-.242.242-.404.484-.485.726-.08.243-.162.404-.162.566v.242s.404.08.97.08c.324 0 .647 0 .97-.08.324-.08.728-.162 1.133-.323.161-.162.323-.323.485-.404zm-1.861-8.076c.08.323.243.646.404.889.324.484.647.807.647.807s.324-.161.647-.565c.08-.08.162-.242.243-.323.08-.162.161-.242.242-.404.162-.323.243-.646.243-1.13.08-.404 0-.889 0-1.373 0-.485-.081-.97-.162-1.454-.08-.484-.08-.808-.162-1.13-.08-.243-.08-.485-.08-.485l-.081.08-.243.243a5.894 5.894 0 01-.728.888c-.242.404-.485.808-.727 1.292-.162.485-.324.97-.405 1.373v.646c0 .323.081.485.162.646zm5.581 2.746c.08 0 .162-.08.323-.08.081 0 .081 0 .162-.082.08 0 .08 0 .162-.08.404-.162.727-.323 1.05-.485.324-.161.567-.323.728-.404.081-.08.162-.08.243-.161.081 0 .081-.08.081-.08l-.08-.082c-.082 0-.163-.08-.324-.08-.243-.081-.647-.162-1.051-.323-.243-.081-.405-.081-.647-.162-.081 0-.243 0-.324-.08h-1.698c-.404.08-.727.242-1.05.403-.163.08-.243.162-.405.242-.081.081-.162.162-.243.323-.323.404-.404.727-.404.727s.404.242.97.323c.324.081.647.162.97.162h1.133s.161 0 .404-.081zm1.052-6.864a1 1 0 00.162.242h.08s.081 0 .162-.08c.162-.082.324-.162.566-.324.404-.323.89-.807 1.213-1.615.08-.242.243-.565.324-.888l.242-1.212c.08-.404.162-.807.243-1.13.08-.646.161-1.131.161-1.131s-.242.162-.566.404c-.161.161-.404.242-.566.404-.242.161-.404.403-.647.565l-.404.404-.08.08-.081.081c-.081.081-.081.162-.162.242-.243.324-.404.647-.566.97-.081.242-.162.403-.162.646 0 .161-.08.403-.08.565 0 .404.08.727.08.97-.08.484 0 .645.08.807zm5.335 2.342c.242-.081.485-.081.647-.162.242-.08.404-.08.566-.162.323-.08.485-.161.485-.161s-.324-.242-.89-.646a5.38 5.38 0 00-.97-.485 4.681 4.681 0 00-1.132-.403c-.323-.081-.566-.162-.808-.162-.809-.08-1.456.162-1.86.485a2.565 2.565 0 00-.485.403c-.081.081-.081.081-.081.162v.08s.08.082.242.162c.162.081.324.243.566.404.243.162.566.323.89.404.162.08.323.161.566.161.162.081.404.081.566.081.566 0 1.132-.08 1.698-.161z"/><path d="M59.432 60.643c-.162 0-.323-.081-.566-.081-.08 0-.242 0-.323-.08-.162 0-.243-.082-.404-.082-.243-.08-.566-.08-.89-.161l-.97-.242c-.162 0-.324-.081-.485-.081-.162-.08-.324-.08-.485-.162-.324-.08-.728-.161-1.052-.323-1.455-.403-2.749-.969-3.8-1.453-.242-.162-.485-.243-.647-.323-.08-.081-.161-.081-.242-.162-.081-.08-.162-.08-.243-.162-.242-.161-.404-.242-.404-.242s-.162-.08-.404-.242c-.243-.162-.647-.404-1.132-.727-.89-.565-2.103-1.453-3.235-2.423-1.132-.969-2.102-2.019-2.83-2.826a1.13 1.13 0 01-.242-.323l-.243-.242c-.161-.162-.242-.323-.323-.404-.081-.081-.162-.242-.243-.323l-.08-.081s-.081-.162-.324-.404c-.08-.161-.243-.242-.323-.484-.162-.162-.243-.404-.405-.646-.08-.081-.161-.243-.242-.323-.081-.162-.162-.243-.243-.404-.162-.243-.323-.566-.485-.808-.162-.323-.323-.565-.485-.888-.081-.081-.081-.162-.162-.242 0-.081-.08-.162-.08-.243l-.243-.484c-.566-1.293-1.132-2.665-1.375-3.715 0-.162-.08-.242-.08-.404 0-.08-.081-.242-.081-.323-.081-.242-.081-.404-.162-.565-.081-.323-.081-.485-.081-.485v-.161c0-.081 0-.243-.08-.323 0-.162-.082-.323-.082-.566 0-.242-.08-.484-.162-.727 0-.242-.08-.565-.08-.888v-.969c-.081-.646-.081-1.373-.081-2.1 0-.727 0-1.453.08-2.1v-.969c0-.323.081-.565.081-.888 0-.242.081-.485.162-.727 0-.242.081-.404.081-.565 0-.162.08-.242.08-.323v-.162s.082-.161.082-.484c0-.162.08-.323.161-.566 0-.08.081-.242.081-.323 0-.08.081-.242.081-.403.324-1.05.809-2.342 1.375-3.715l.242-.485c0-.08.081-.161.081-.242.081-.08.081-.162.162-.242.162-.323.323-.646.485-.889a7.12 7.12 0 01.485-.807c.081-.162.162-.242.243-.404.08-.162.161-.242.242-.323.162-.242.324-.404.405-.646.161-.162.242-.323.323-.485.162-.242.323-.403.323-.403l.081-.081c.081-.081.081-.162.243-.323.08-.162.242-.243.323-.404l.243-.242c.08-.081.162-.162.242-.323.728-.808 1.698-1.858 2.83-2.827a33.6 33.6 0 013.235-2.423c.485-.323.89-.565 1.132-.727.323-.161.404-.242.404-.242s.162-.08.404-.242c.081 0 .162-.08.243-.162.08-.08.162-.08.242-.161.081 0 .162-.08.243-.08h.728c.566 0 1.374-.162 2.021-.485.324-.162.647-.404.97-.727.162-.162.324-.243.405-.404l.404-.404c.242-.242.404-.484.566-.646l.242-.242h-1.778c-.081 0-.243 0-.324.08-.242 0-.485.081-.727.162-.486.08-.89.242-1.294.485a3.587 3.587 0 00-.89.646c-.242.242-.323.484-.404.727-.08.242-.162.403-.162.565v.08h-.08c-.081.081-.162.081-.324.162-.08.08-.162.08-.242.162a4.302 4.302 0 01-.405.242l-.485.242c-.242.162-.647.404-1.132.727-.89.646-2.102 1.454-3.234 2.423-1.132.969-2.102 2.019-2.83 2.826-.081.081-.162.243-.243.323l-.242.243c-.162.161-.243.323-.405.484-.08.162-.161.242-.242.323l-.081.081s-.08.162-.323.404c-.081.161-.243.323-.324.484-.162.162-.242.404-.404.646-.081.081-.162.243-.243.323-.08.162-.161.243-.242.404-.162.242-.324.566-.485.808-.162.323-.324.646-.486.888-.08.08-.08.162-.161.242 0 .081-.081.162-.081.243l-.243.484c-.646 1.292-1.132 2.665-1.374 3.715 0 .162-.081.242-.081.404 0 .08-.08.242-.08.323-.082.242-.082.404-.163.565-.08.323-.08.485-.08.485v.161c0 .081 0 .243-.081.323 0 .162-.081.323-.081.566 0 .242-.081.484-.162.726 0 .243-.08.566-.08.889v.969c-.082.646-.082 1.373-.082 2.1 0 .726 0 1.453.081 2.1v.968c0 .324.081.566.081.889 0 .242.08.484.162.727 0 .242.08.404.08.565 0 .162.081.242.081.323v.162s.081.161.081.484c0 .162.081.323.162.565 0 .081.08.243.08.323 0 .081.082.243.082.404.323 1.05.808 2.423 1.374 3.715l.243.485c0 .08.08.161.08.242.082.08.082.161.163.242.161.323.323.646.485.889.161.323.323.565.485.807.08.162.161.242.242.404.081.162.162.242.243.323.162.242.323.404.404.646.162.162.243.323.324.485.161.242.323.403.323.403l.08.081c.082.081.163.162.243.323.081.162.243.242.405.485l.242.242c.081.08.162.162.243.323.728.808 1.779 1.858 2.83 2.827 1.132.969 2.345 1.857 3.234 2.422.485.323.89.566 1.132.727l.485.242s.162.081.404.243c.081 0 .162.08.243.161.08.081.162.081.324.162.242.08.404.242.646.323a22.08 22.08 0 003.8 1.453c.324.162.728.243 1.052.323.161.081.323.081.566.162.161.08.323.08.485.08.323.082.647.162.97.243.324.08.647.08.89.162.161 0 .242.08.404.08.162 0 .242 0 .323.081.243 0 .404.08.566.08.324 0 .485.082.485.082V60.4c.081.323-.161.323-.485.243z"/><path d="M56.277 60.4s3.881.97 4.77 4.603l-.08-4.199-4.447-.565-.243.161z"/></g><path d="M68.93 94.786c-.883 0-1.7-.158-2.45-.474a6.055 6.055 0 01-1.947-1.369 6.259 6.259 0 01-1.275-2.062c-.302-.789-.453-1.65-.453-2.586 0-.946.15-1.814.453-2.603a6.258 6.258 0 011.275-2.062 5.62 5.62 0 011.947-1.352 6.065 6.065 0 012.45-.49c.862 0 1.634.152 2.317.456a5.438 5.438 0 011.745 1.183c.481.485.822 1.003 1.024 1.555l-1.51.693a3.792 3.792 0 00-1.36-1.69c-.615-.44-1.354-.66-2.215-.66-.873 0-1.65.21-2.333.626a4.311 4.311 0 00-1.578 1.741c-.38.744-.57 1.612-.57 2.603 0 .98.19 1.843.57 2.586.38.744.906 1.324 1.578 1.741.682.417 1.46.626 2.333.626.861 0 1.6-.215 2.215-.643a3.901 3.901 0 001.36-1.707l1.51.693c-.202.552-.543 1.07-1.024 1.555a5.438 5.438 0 01-1.745 1.183c-.683.305-1.455.457-2.316.457zm7.323-.203V81.99h8.14v1.522h-6.495V87.5h6.16v1.52h-6.16v4.04h6.495v1.522h-8.14zm10.178 0V81.99h4.414c.828 0 1.555.158 2.182.474a3.471 3.471 0 011.46 1.352c.358.586.537 1.273.537 2.062 0 .89-.224 1.645-.671 2.265-.448.62-1.052 1.065-1.813 1.335l2.904 5.105H93.53l-3.054-5.46 1.09.643h-3.49v4.817H86.43zm1.645-6.339h2.82c.492 0 .922-.095 1.292-.287a2.03 2.03 0 00.856-.828c.212-.36.319-.778.319-1.25 0-.485-.107-.902-.32-1.252a2.03 2.03 0 00-.855-.828c-.37-.192-.8-.287-1.293-.287h-2.82v4.732zm11.092 6.339V83.512h-3.39V81.99h8.391v1.522h-3.339v11.07h-1.662zm6.587 0V81.99h1.645v12.593h-1.645zm4.425 0V81.99h1.645v7.083l-.403-.17 5.975-6.913h2.064l-5.018 5.832.084-1.183 5.186 7.944h-1.964l-3.961-5.984-1.963 2.265v3.719h-1.645z" fill="#303030"/></svg>