<svg width="180" height="120" fill="none" xmlns="http://www.w3.org/2000/svg"><path d="M70.016 114.849v-8.604h2.887c.67 0 1.218.122 1.643.366.429.24.746.567.952.978.205.412.308.871.308 1.378 0 .507-.103.968-.308 1.382a2.305 2.305 0 01-.943.992c-.426.244-.971.365-1.636.365H70.85v-.924h2.036c.459 0 .827-.08 1.106-.239.278-.16.48-.376.604-.647.128-.275.192-.584.192-.929 0-.344-.064-.652-.192-.924a1.372 1.372 0 00-.609-.638c-.28-.157-.653-.236-1.118-.236H71.05v7.68h-1.034zm9.209.151c-.406 0-.774-.077-1.105-.231a1.897 1.897 0 01-.789-.677c-.195-.296-.292-.655-.292-1.075 0-.37.072-.669.217-.899.145-.232.338-.414.58-.546.242-.132.509-.23.801-.294.295-.067.591-.121.889-.16.389-.05.705-.088.947-.113.244-.028.422-.074.534-.139.114-.064.17-.176.17-.336v-.034c0-.414-.112-.736-.337-.966-.223-.229-.56-.344-1.014-.344-.47 0-.839.103-1.106.311-.267.207-.454.428-.563.663l-.934-.336c.167-.392.39-.697.667-.915a2.49 2.49 0 01.918-.463c.334-.089.662-.134.985-.134.205 0 .442.025.709.076.27.047.53.147.78.298.253.151.463.379.63.685.167.305.25.714.25 1.226v4.252h-.984v-.874h-.05c-.067.14-.178.29-.334.449a1.92 1.92 0 01-.622.408c-.258.112-.574.168-.947.168zm.15-.891c.39 0 .718-.077.985-.231a1.57 1.57 0 00.818-1.365v-.907c-.042.05-.134.096-.276.138-.139.039-.3.074-.484.105a24.155 24.155 0 01-.942.126 3.74 3.74 0 00-.718.164 1.23 1.23 0 00-.534.332c-.133.146-.2.344-.2.596 0 .345.126.605.38.782.255.173.58.26.971.26zm4.585.74v-6.453h.95v.975h.067c.117-.32.328-.579.635-.778.305-.198.65-.298 1.034-.298.072 0 .163.002.271.004.109.003.19.007.246.013v1.008a3.182 3.182 0 00-.229-.038 2.311 2.311 0 00-.371-.029c-.312 0-.59.066-.835.197a1.49 1.49 0 00-.575.538 1.45 1.45 0 00-.209.777v4.084h-.985zm7.559-6.453v.84h-3.32v-.84h3.32zm-2.353-1.546h.985V113c0 .28.04.49.12.63.084.138.19.23.318.278.13.044.268.067.413.067.108 0 .197-.006.267-.017l.166-.034.2.891a2.134 2.134 0 01-.734.118c-.278 0-.55-.061-.817-.181a1.627 1.627 0 01-.66-.55c-.172-.247-.258-.558-.258-.933v-6.419zm4.819 4.117v3.882H93v-6.453h.951v1.008h.084c.15-.327.378-.591.684-.79.306-.201.7-.302 1.185-.302.434 0 .813.09 1.139.269.325.176.578.445.759.806.18.359.271.813.271 1.362v4.1h-.984v-4.033c0-.507-.131-.902-.393-1.185-.261-.286-.62-.428-1.076-.428a1.71 1.71 0 00-.843.205 1.475 1.475 0 00-.58.601c-.142.263-.212.583-.212.958zm8.574 4.016c-.617 0-1.15-.137-1.598-.412a2.754 2.754 0 01-1.03-1.159c-.24-.499-.36-1.078-.36-1.739s.12-1.244.36-1.748a2.848 2.848 0 011.009-1.185c.434-.285.94-.428 1.519-.428.334 0 .663.056.989.168.325.112.621.294.888.546.267.249.48.58.639.992.158.411.237.918.237 1.52v.42h-4.939v-.857h3.938c0-.364-.072-.689-.217-.974a1.649 1.649 0 00-.609-.677 1.697 1.697 0 00-.926-.247c-.392 0-.732.098-1.018.294a1.925 1.925 0 00-.655.756c-.153.311-.23.644-.23 1v.571c0 .487.084.9.251 1.239.169.336.404.593.705.769.3.174.649.26 1.047.26.259 0 .492-.036.701-.109.211-.075.393-.187.546-.336.153-.151.272-.339.355-.563l.951.269c-.1.325-.268.611-.505.857a2.444 2.444 0 01-.876.571 3.212 3.212 0 01-1.172.202zm4.151-.134v-6.453h.951v.975h.067c.117-.32.328-.579.634-.778a1.865 1.865 0 011.035-.298c.072 0 .163.002.271.004.109.003.191.007.246.013v1.008a3.187 3.187 0 00-.229-.038 2.32 2.32 0 00-.372-.029c-.311 0-.589.066-.834.197a1.492 1.492 0 00-.576.538 1.457 1.457 0 00-.208.777v4.084h-.985z" fill="#717171"/><g opacity=".15" fill="#303030"><path d="M126.47 60.07h.89c.08 0 .242.08.323.08.404.08.889.323 1.375.484.485.162.889.404 1.293.646.405.243.809.404 1.051.566.243.161.405.242.405.242l-.081.08c-.081 0-.162.081-.324.081-.323.081-.727.162-1.132.242-.08 0-.242.081-.323.081-.162 0-.243 0-.404.081-.243 0-.485.08-.809.08a8.02 8.02 0 01-1.455-.16c-.89-.243-1.456-.808-1.86-1.212-.404-.484-.566-.807-.566-.807s.323-.162.809-.323c.161-.162.404-.162.808-.162zm-1.373-3.554c.243-.323.486-.646.728-.888.162-.162.324-.242.404-.404.081-.08.162-.08.243-.161.081-.081.162-.081.243-.162.242-.242.485-.404.727-.484.162-.162.324-.162.324-.162v.404c0 .242 0 .646-.081 1.05-.081.403-.162.888-.243 1.292-.162.403-.323.888-.566 1.21-.081.082-.081.162-.161.243l-.081.08-.081.082c-.162.161-.243.242-.405.322-.161.081-.242.162-.404.243-.161.08-.242.08-.404.161-.485.162-.809.081-.809.081s-.08-.404 0-.969c0-.323.081-.646.162-.969 0-.08.081-.161.081-.242 0-.08.081-.162.081-.242 0-.162.081-.323.242-.485zm6.873.969s.081-.08.162-.08a2.48 2.48 0 01.485-.324.617.617 0 01.404-.161c.162-.081.323-.081.485-.162.324-.08.728-.161 1.132-.161.243 0 .485 0 .728.08.242 0 .485.081.727.081.243 0 .486.081.728.162.243.08.485.08.728.161.485.081.889.162 1.132.242.323.081.485.081.485.081s-.162.081-.404.242c-.162.081-.243.162-.485.243-.081.08-.162.08-.243.161-.081.081-.162.081-.323.162a2.41 2.41 0 00-.647.323c-.081.08-.243.08-.324.161-.081 0-.081.08-.161.08-.081 0-.162 0-.162.082-.485.161-.97.242-1.456.242-.97 0-1.697-.404-2.183-.727-.242-.161-.404-.323-.566-.484-.242-.242-.323-.404-.242-.404-.081 0 0 0 0 0zm1.294-2.745c-.081.403-.323.726-.485.968-.081.162-.243.243-.324.323-.08.081-.242.162-.323.243-.242.161-.404.242-.566.242-.081 0-.162 0-.162.08h-.08s-.081-.08-.081-.242c-.081-.161-.081-.403-.162-.646-.081-.565-.162-1.291.081-2.018.081-.404.242-.727.485-1.05.162-.323.404-.646.647-.888.081-.162.242-.242.323-.404.081-.08.162-.242.243-.323l.242-.242s.081.161.081.404c.081.242.162.646.162 1.05 0 .242.081.403.081.645v.646c0 .242 0 .485-.081.646 0 .162 0 .404-.081.566zm5.091-2.342c.08-.161.242-.323.404-.484.162-.162.404-.404.728-.566.323-.161.646-.323 1.051-.484.161 0 .323-.08.485-.08.162 0 .323-.082.485-.082.809-.161 1.698-.161 2.426-.242.727 0 1.212-.08 1.212-.08s-.161.242-.485.565c-.242.323-.727.726-1.213 1.13-.08.08-.161.08-.242.162l-.081.08s-.081.081-.162.081c-.161.08-.323.242-.485.323l-.485.242c-.162.081-.323.162-.485.162-.889.242-1.698.08-2.264-.081-.566-.242-.889-.484-.889-.484s-.081-.081 0-.162zm-.241-1.05l-.405.404c-.161.08-.242.08-.242.08s-.243-.322-.566-.807c-.243-.484-.566-1.21-.566-2.018 0-.242 0-.566.081-.889 0-.161.081-.242.081-.403 0-.162.08-.243.08-.404.081-.242.162-.404.243-.646 0-.08.081-.08.081-.161s0-.081.081-.162c0-.08.081-.161.081-.242l.242-.485s.243.404.566.97l.243.484c0 .08.081.161.081.242 0 .08.08.161.08.242.162.323.243.727.324 1.13 0 .162.081.324.081.404v.404c0 .404-.081.727-.162 1.05-.081.323-.243.565-.404.807zm6.305-5.006h-.485c-.647 0-.97-.161-.97-.161s0-.081.081-.242c0-.081.081-.162.081-.243 0-.08.08-.161.161-.323.081-.242.243-.484.485-.726l.162-.162c.081-.08.162-.161.243-.161.161-.162.323-.243.485-.323.162-.081.404-.243.647-.323.242-.081.404-.243.647-.323.485-.162.97-.404 1.374-.485.404-.161.809-.323 1.132-.404l.485-.161s-.081.161-.161.404l-.243.484c-.081.162-.243.323-.323.565a2.454 2.454 0 01-.405.566c0 .08-.081.08-.081.161 0 .08-.08.08-.08.162-.081.08-.162.161-.243.322-.162.162-.323.404-.566.566l-.243.242c-.08.08-.161.161-.323.161-.404.243-.809.404-1.213.404-.323-.08-.485 0-.647 0zm-1.774-2.18c0 .323-.162.565-.243.807-.081.081-.081.243-.162.323-.081.081-.081.162-.161.243l-.162.161s-.324-.242-.728-.646c-.081-.08-.162-.242-.323-.323-.081-.161-.243-.242-.324-.404-.161-.323-.404-.645-.485-.968 0-.081-.081-.162-.081-.243 0-.08-.081-.161-.081-.323 0-.161-.08-.404-.08-.565v-1.13c0-.162 0-.323.08-.485v-.404c0-.242.081-.323.081-.323s.162.081.324.323l.727.727c.243.323.566.646.809 1.05.162.161.243.404.323.565.081.162.162.404.243.565.081.162.081.404.081.566v.403c.162 0 .162.08.162.08zm5.334-5.814c-.162.081-.324.242-.486.323-.323.162-.646.242-.97.323-.566.081-1.051.081-1.051.081s-.081-.323.081-.808c0-.161.081-.242.081-.403.081-.162.081-.323.161-.404l.243-.484c.081-.081.081-.162.162-.243l.081-.08.08-.081c.566-.646 1.537-1.292 2.264-1.777.405-.242.728-.484.971-.645.242-.162.404-.243.404-.243s0 .162-.081.485c-.081.323-.162.646-.242 1.13-.162.404-.324.888-.486 1.373-.08.08-.08.242-.161.323-.081.08-.162.242-.162.323-.162.242-.323.404-.404.565-.162-.08-.324.08-.485.242zm-3.64.485s-.404-.162-.889-.404c-.243-.162-.566-.323-.809-.565-.161-.081-.242-.242-.404-.404-.162-.162-.242-.323-.323-.485-.081-.161-.162-.322-.324-.484-.08-.161-.161-.323-.242-.565a7.48 7.48 0 01-.324-1.05c-.08-.323-.161-.646-.161-.807v-.323s.161.08.404.161c.243.162.566.323.889.565.324.243.728.485 1.051.808.324.323.647.646.89.969l.242.484c.081.162.081.323.162.485 0 .161.081.323.081.484v.404c-.081.404-.243.727-.243.727zm4.53-11.143c0 .161-.081.404-.081.565-.081.404-.162.727-.324 1.05a5.032 5.032 0 01-.727.969c-.243.242-.566.403-.809.565-.566.242-.97.323-.97.323s0-.08-.081-.242c0-.162-.081-.323-.081-.566 0-.242 0-.565.081-.888.081-.323.162-.646.323-1.05.081-.16.162-.242.243-.403.081-.08.081-.162.162-.162.081-.08.081-.161.162-.161l.727-.97c.243-.322.485-.645.728-.887.404-.566.728-.888.728-.888s.08.242.08.726c0 .242.081.485.081.727v.888c-.161.08-.161.242-.242.404zm-6.957 2.422l-.162-.161-.161-.162c-.081-.08-.162-.242-.324-.323-.08-.08-.161-.242-.242-.323a1.114 1.114 0 00-.243-.323c-.161-.161-.242-.404-.323-.565-.081-.08-.081-.162-.162-.242 0-.081-.081-.162-.162-.243l-.242-.484s.485.08 1.132.242c.162.081.323.081.485.162.162.08.323.08.566.161.323.162.728.323 1.051.485l.728.484c.323.242.566.565.647.808.161.323.242.565.242.807V31c0 .162-.081.243-.081.243s-.404 0-.97-.162c-.485-.161-1.213-.404-1.779-.969zm3.559-7.994c-.162.323-.404.566-.647.808-.404.404-.808.565-.808.565l-.162-.161a3.929 3.929 0 01-.243-.566c-.08-.242-.161-.484-.242-.807v-.565c0-.162 0-.404.081-.566 0-.242.081-.403.161-.646 0-.08.081-.242.081-.322 0-.081.081-.243.081-.323a9.9 9.9 0 01.566-1.373c.081-.242.162-.404.243-.565l.242-.485c.081-.242.162-.404.162-.404s.081.162.243.404c.08.162.161.323.161.485.081.161.162.403.243.565 0 .08.081.242.081.323 0 .08.081.242.081.323.08.242.08.484.161.727 0 .242.081.484.081.726s0 .485-.081.727a7.758 7.758 0 01-.485 1.13zm-6.144 1.212c-.162-.081-.323-.243-.485-.323-.162-.162-.323-.243-.404-.404l-.405-.404-.323-.323-.162-.161c-.081-.081-.081-.081-.081-.162l-.242-.242h1.455c.405 0 .89.08 1.375.161.081 0 .242.081.323.081.081 0 .243.08.324.08.242.082.404.162.646.243.162.08.324.162.486.323.161.08.242.242.404.323.242.242.404.485.485.727.081.242.162.404.162.565v.242s-.405.081-.971.081c-.323 0-.646 0-.97-.08-.323-.081-.728-.162-1.132-.324-.162-.161-.323-.323-.485-.404zm1.861-8.075a3.003 3.003 0 01-.404.888c-.324.485-.647.808-.647.808s-.324-.162-.647-.566c-.081-.08-.162-.242-.243-.323-.08-.161-.161-.242-.242-.403-.162-.323-.243-.646-.243-1.13-.081-.405 0-.889 0-1.373 0-.485.081-.97.162-1.454s.081-.807.162-1.13c.08-.243.081-.485.081-.485l.08.08.243.243c.162.242.404.565.728.888.242.404.485.808.727 1.292.162.485.324.97.405 1.373v.646c0 .323-.081.484-.162.646zM135.607 18c-.081 0-.162-.08-.323-.08-.081 0-.081 0-.162-.081-.081 0-.081 0-.162-.081a13.3 13.3 0 01-1.051-.485c-.323-.161-.566-.322-.728-.403-.08-.081-.161-.081-.242-.162-.081 0-.081-.08-.081-.08l.081-.081c.081 0 .162-.081.323-.081.243-.08.647-.162 1.051-.323.243-.08.405-.08.647-.162.081 0 .243 0 .324-.08h1.698c.404.08.727.242 1.051.404.162.08.242.161.404.242.081.08.162.161.243.323.323.403.404.726.404.726s-.404.243-.97.323c-.324.081-.647.162-.971.162h-1.132s-.161 0-.404-.08zm-1.052-6.863a1.007 1.007 0 01-.162.242h-.08s-.081 0-.162-.08c-.162-.082-.324-.162-.566-.324a3.831 3.831 0 01-1.213-1.615c-.081-.242-.243-.565-.323-.888l-.243-1.211a26.192 26.192 0 00-.243-1.13c-.08-.647-.161-1.131-.161-1.131s.242.161.566.404c.161.161.404.242.566.403.242.162.404.404.647.566l.404.403.081.081.081.08c.08.082.08.162.161.243.243.323.405.646.566.969.081.242.162.404.162.646 0 .162.081.404.081.565 0 .404-.081.727-.081.97.081.484 0 .645-.081.807zm-5.335 2.341c-.242-.08-.485-.08-.647-.161-.242-.081-.404-.081-.566-.162-.323-.08-.485-.161-.485-.161s.324-.242.89-.646a5.37 5.37 0 01.97-.485 4.684 4.684 0 011.132-.403c.323-.081.566-.162.808-.162.809-.08 1.456.162 1.86.485.243.161.323.242.485.403.081.081.081.081.081.162v.08s-.081.081-.243.162c-.161.08-.323.242-.566.404a2.985 2.985 0 01-.889.404c-.162.08-.323.161-.566.161-.162.08-.404.08-.566.08-.566 0-1.132-.08-1.698-.16z"/><path d="M120.568 60.634c.161 0 .323-.08.566-.08.081 0 .242 0 .323-.082.162 0 .243-.08.404-.08.243-.081.566-.081.89-.162l.97-.242c.162 0 .324-.08.485-.08.162-.081.324-.081.485-.162.324-.081.728-.162 1.052-.323 1.455-.404 2.749-.97 3.8-1.454.242-.161.485-.242.647-.323.081-.08.161-.08.242-.161.081-.08.162-.08.243-.162.242-.161.404-.242.404-.242s.162-.08.404-.242c.243-.162.647-.404 1.132-.727.89-.565 2.103-1.453 3.235-2.422 1.132-.97 2.102-2.019 2.83-2.826.08-.081.161-.162.242-.323l.243-.243c.161-.161.242-.323.323-.403.081-.081.162-.243.243-.323l.081-.081s.08-.161.323-.404c.081-.161.243-.242.323-.484.162-.162.243-.404.405-.646.081-.081.161-.242.242-.323.081-.162.162-.242.243-.404.162-.242.323-.565.485-.807.162-.323.323-.566.485-.889.081-.08.081-.161.162-.242 0-.08.081-.161.081-.242l.242-.485c.566-1.291 1.132-2.664 1.375-3.714 0-.161.081-.242.081-.404 0-.08.081-.242.081-.323.08-.242.08-.403.161-.565.081-.323.081-.484.081-.484v-.162c0-.08 0-.242.081-.323 0-.161.081-.323.081-.565 0-.242.081-.484.162-.727 0-.242.08-.565.08-.888v-.969c.081-.646.081-1.373.081-2.1 0-.726 0-1.453-.081-2.099v-.969c0-.323-.08-.565-.08-.888 0-.242-.081-.484-.162-.727 0-.242-.081-.403-.081-.565 0-.161-.081-.242-.081-.323v-.161s-.081-.162-.081-.485c0-.161-.081-.323-.161-.565 0-.08-.081-.242-.081-.323 0-.08-.081-.242-.081-.404-.324-1.05-.809-2.341-1.375-3.714l-.242-.484c0-.081-.081-.162-.081-.243-.081-.08-.081-.161-.162-.242-.162-.323-.323-.646-.485-.888a7.104 7.104 0 00-.485-.808c-.081-.161-.162-.242-.243-.403a1.115 1.115 0 00-.242-.323c-.162-.243-.324-.404-.405-.646a1.705 1.705 0 01-.323-.485 2.958 2.958 0 00-.323-.404l-.081-.08c-.081-.081-.081-.162-.243-.323-.081-.162-.242-.242-.323-.404l-.243-.242a1.096 1.096 0 01-.242-.323c-.728-.808-1.698-1.857-2.83-2.826a33.525 33.525 0 00-3.235-2.423c-.485-.323-.889-.565-1.132-.726-.323-.162-.404-.243-.404-.243s-.162-.08-.404-.242c-.081 0-.162-.08-.243-.161-.081-.081-.161-.081-.242-.162-.081 0-.162-.08-.243-.08h-.728a4.918 4.918 0 01-2.021-.485 3.8 3.8 0 01-.97-.727c-.162-.161-.324-.242-.405-.404a153.83 153.83 0 00-.404-.403c-.242-.243-.404-.485-.566-.646l-.242-.243h1.778c.081 0 .243 0 .324.081.242 0 .485.08.728.162.485.08.889.242 1.293.484.324.162.647.404.89.646.242.242.323.485.404.727.081.242.162.404.162.565v.08h.081c.08.082.161.082.323.162.081.081.162.081.242.162.243.161.405.242.405.242l.485.242c.242.162.647.404 1.132.727.889.646 2.102 1.453 3.234 2.422 1.132.97 2.102 2.019 2.83 2.827.081.08.162.242.243.322l.242.243c.162.161.243.323.405.484.08.162.161.242.242.323l.081.08s.081.162.323.405c.081.161.243.323.324.484.162.162.242.404.404.646.081.08.162.242.243.323.081.162.161.242.242.404.162.242.324.565.485.807a8.9 8.9 0 00.486.889c.08.08.08.161.161.242 0 .08.081.161.081.242l.243.484c.647 1.292 1.132 2.665 1.374 3.715 0 .161.081.242.081.404 0 .08.081.242.081.323.081.242.081.403.162.565.081.323.081.484.081.484v.162c0 .08-.001.242.08.323 0 .161.081.323.081.565 0 .242.081.484.162.727 0 .242.081.565.081.888v.969c.081.646.081 1.372.081 2.1 0 .726 0 1.453-.081 2.099v.969c0 .322-.081.565-.081.888 0 .242-.081.484-.162.727 0 .242-.081.403-.081.565 0 .161-.08.242-.08.323v.161s-.081.162-.081.485c0 .161-.081.323-.162.565 0 .08-.081.242-.081.323 0 .08-.081.242-.081.404a36.237 36.237 0 01-1.374 3.714l-.243.484c0 .081-.081.162-.081.243-.081.08-.081.161-.161.242-.162.323-.324.646-.486.888-.161.323-.323.565-.485.808-.081.161-.161.242-.242.403-.081.162-.162.242-.243.323-.162.242-.323.404-.404.646a1.689 1.689 0 00-.324.485c-.161.242-.323.404-.323.404l-.081.08c-.081.081-.162.162-.242.323-.081.162-.243.242-.405.485l-.242.242c-.081.08-.162.161-.243.323a46.76 46.76 0 01-2.83 2.826c-1.132.969-2.345 1.857-3.234 2.422-.485.323-.89.566-1.132.727l-.485.242s-.162.081-.405.243c-.08 0-.161.08-.242.161-.081.08-.162.08-.323.162-.243.08-.405.242-.647.323a22.116 22.116 0 01-3.801 1.453c-.323.162-.727.242-1.051.323-.161.08-.323.08-.566.162-.161.08-.323.08-.485.08l-.97.243c-.324.08-.647.08-.89.161-.161 0-.242.08-.404.08-.162 0-.242 0-.323.081-.243 0-.405.081-.566.081-.324 0-.485.08-.485.08v-.241c-.081.323.161.323.485.242z"/><path d="M123.723 60.392s-3.881.969-4.771 4.602l.081-4.199 4.447-.565.243.162z"/></g><g opacity=".15" fill="#303030"><path d="M53.53 60.07h-.889c-.081 0-.243.08-.324.08-.404.08-.89.323-1.374.484-.486.162-.89.404-1.294.646-.404.243-.809.404-1.051.566a4.207 4.207 0 01-.405.242l.081.08c.081 0 .162.081.324.081.323.081.727.162 1.132.243.08 0 .242.08.323.08.162 0 .243 0 .404.081.243 0 .486.08.809.08.485 0 1.051-.08 1.455-.16.89-.243 1.456-.808 1.86-1.212.404-.484.566-.807.566-.807s-.323-.162-.809-.323c-.161-.162-.404-.162-.808-.162zm1.373-3.554c-.243-.323-.486-.646-.728-.888-.162-.161-.323-.242-.404-.404-.081-.08-.162-.08-.243-.161-.08-.081-.162-.081-.242-.162-.243-.242-.486-.404-.728-.484-.162-.162-.324-.162-.324-.162v.404c0 .242 0 .646.081 1.05.081.403.162.888.243 1.292.161.403.323.888.566 1.21.08.082.08.162.161.243l.081.08.081.082c.162.161.243.242.404.323.162.08.243.161.405.242.161.08.242.08.404.161.485.162.809.081.809.081s.08-.404 0-.969c0-.323-.081-.646-.162-.969 0-.08-.08-.161-.08-.242 0-.08-.082-.162-.082-.242 0-.162-.08-.323-.242-.485zm-6.873.969s-.08-.08-.162-.08a2.52 2.52 0 00-.485-.324.618.618 0 00-.404-.161c-.162-.08-.323-.08-.485-.162a4.775 4.775 0 00-1.132-.161c-.243 0-.485 0-.728.08-.242 0-.485.081-.727.081-.243 0-.486.081-.728.162-.243.08-.485.08-.728.161-.485.081-.89.162-1.132.243-.323.08-.485.08-.485.08s.162.081.404.243c.162.08.243.161.485.242.081.08.162.08.243.161.08.081.162.081.323.162.243.08.405.161.647.323.081.08.243.08.324.161.08 0 .08.081.161.081s.162 0 .162.08c.485.162.97.243 1.456.243.97 0 1.697-.404 2.183-.727.242-.161.404-.323.566-.484.242-.242.323-.404.242-.404.081 0 0 0 0 0zm-1.294-2.745c.08.403.323.726.485.968.08.162.243.243.324.324.08.08.242.161.323.242.242.161.404.242.566.242.08 0 .162 0 .162.08h.08s.081-.08.081-.241c.081-.162.081-.404.162-.646.08-.566.162-1.293-.08-2.02a2.503 2.503 0 00-.486-1.049 3.585 3.585 0 00-.647-.888c-.08-.162-.242-.242-.323-.404-.081-.08-.162-.242-.243-.323l-.242-.242s-.081.161-.081.404a3.573 3.573 0 00-.162 1.05c0 .242-.08.403-.08.645v.646c0 .243 0 .485.08.646 0 .162 0 .404.08.566zm-5.091-2.342c-.08-.161-.242-.323-.404-.484-.162-.162-.404-.404-.727-.566-.324-.161-.647-.323-1.052-.484-.161 0-.323-.08-.485-.08-.161 0-.323-.082-.485-.082-.808-.161-1.698-.161-2.426-.242-.727 0-1.213-.08-1.213-.08s.162.242.486.565c.242.323.727.726 1.212 1.13.081.08.162.08.243.162l.08.08s.082.081.163.081c.161.08.323.242.485.323l.485.242c.162.081.323.162.485.162.89.242 1.698.08 2.264-.08.566-.243.89-.485.89-.485s.08-.081 0-.162zm.241-1.05l.405.404c.161.08.242.08.242.08s.243-.322.566-.807c.243-.484.566-1.21.566-2.018 0-.242 0-.566-.08-.888 0-.162-.082-.243-.082-.404 0-.162-.08-.242-.08-.404-.081-.242-.162-.404-.243-.646 0-.08-.08-.08-.08-.161s0-.081-.082-.162c0-.08-.08-.161-.08-.242l-.243-.485s-.243.404-.566.97l-.243.484c0 .08-.08.161-.08.242 0 .08-.081.162-.081.242-.162.323-.243.727-.324 1.13 0 .162-.08.324-.08.404v.404c0 .404.08.727.161 1.05.08.323.243.565.404.807zm-6.306-5.006h.486c.647 0 .97-.161.97-.161s0-.081-.08-.242c0-.081-.082-.162-.082-.243 0-.08-.08-.161-.161-.323-.081-.242-.243-.484-.485-.726l-.162-.162c-.081-.08-.162-.161-.243-.161a1.69 1.69 0 00-.485-.323c-.162-.081-.404-.243-.647-.323-.242-.081-.404-.243-.647-.323-.485-.162-.97-.404-1.374-.485-.404-.161-.809-.323-1.132-.404l-.485-.161s.08.161.162.404l.242.484c.08.162.243.323.323.565.081.162.243.404.405.566 0 .08.08.08.08.161 0 .08.081.08.081.162.081.08.162.161.243.323.162.161.323.403.566.565l.243.242c.08.08.161.161.323.161.404.243.809.404 1.213.404.323-.08.485 0 .647 0zm1.775-2.18c0 .323.162.565.243.807.08.081.08.243.162.323.08.081.08.162.161.243l.162.161s.324-.242.728-.646c.08-.08.162-.242.323-.323.081-.161.243-.242.324-.403.161-.323.404-.646.485-.97 0-.08.08-.161.08-.242 0-.08.082-.161.082-.323 0-.161.08-.403.08-.565v-1.13c0-.162 0-.323-.08-.485v-.404c0-.242-.081-.323-.081-.323s-.162.081-.324.323l-.727.727c-.243.323-.566.646-.809 1.05-.162.161-.242.404-.323.565-.081.162-.162.404-.243.565-.08.162-.08.404-.08.566v.403c-.163 0-.163.081-.163.081zm-5.334-5.814c.162.081.324.243.486.323.323.162.646.243.97.323.566.081 1.051.081 1.051.081s.08-.323-.08-.807c0-.162-.082-.243-.082-.404-.08-.162-.08-.323-.161-.404l-.243-.484c-.08-.081-.08-.162-.162-.243l-.08-.08-.081-.081c-.567-.646-1.537-1.292-2.264-1.777-.405-.242-.728-.484-.97-.645-.243-.162-.405-.243-.405-.243s0 .162.08.485c.082.323.163.646.243 1.13.162.404.324.888.486 1.373.08.08.08.242.161.323.081.08.162.242.162.323.162.242.323.404.404.565.162-.08.324.08.485.242zm3.639.485s.405-.162.89-.404c.242-.162.566-.323.809-.565.161-.081.242-.242.404-.404.162-.161.242-.323.323-.484a1.69 1.69 0 01.324-.485c.08-.161.161-.323.242-.565.162-.404.243-.727.324-1.05.08-.323.161-.646.161-.807v-.323s-.161.08-.404.161c-.242.162-.566.323-.89.565-.323.243-.727.485-1.05.808-.324.323-.647.646-.89.969l-.242.484c-.081.162-.081.323-.162.485 0 .161-.081.323-.081.484v.404c.08.404.242.727.242.727zM31.131 27.69c0 .161.081.404.081.565.08.404.162.727.323 1.05.243.404.486.727.728.969.243.242.566.403.809.565.566.242.97.323.97.323s0-.08.08-.242c0-.162.082-.323.082-.566 0-.242 0-.565-.081-.888a7.484 7.484 0 00-.323-1.05c-.081-.16-.162-.242-.243-.403-.08-.08-.08-.162-.162-.162-.08-.08-.08-.161-.162-.161l-.727-.97c-.243-.322-.485-.645-.728-.887-.404-.566-.728-.888-.728-.888s-.08.242-.08.726c0 .242-.081.485-.081.727v.888c.161.08.161.242.242.404zm6.957 2.422l.161-.161.162-.162c.081-.08.162-.242.324-.323.08-.08.161-.242.242-.323.081-.161.162-.242.243-.323.162-.161.242-.404.323-.565.081-.08.081-.162.162-.242 0-.081.08-.162.162-.243l.242-.484s-.485.08-1.132.242c-.161.081-.323.081-.485.162-.162.08-.323.08-.566.161-.323.162-.728.323-1.051.485l-.728.484c-.323.242-.566.566-.647.808-.161.323-.242.565-.242.807V31c0 .162.08.243.08.243s.405 0 .97-.162c.486-.161 1.214-.404 1.78-.969zm-3.559-7.994c.162.323.404.566.647.808.404.404.808.565.808.565l.162-.161c.08-.162.162-.323.243-.566.08-.242.161-.484.242-.807v-.565c0-.162 0-.404-.08-.566 0-.242-.082-.403-.162-.646 0-.08-.081-.242-.081-.322 0-.081-.081-.243-.081-.323a9.845 9.845 0 00-.566-1.373 3.932 3.932 0 00-.243-.565l-.242-.485a3.381 3.381 0 00-.162-.404s-.08.162-.242.404c-.081.162-.162.323-.162.485-.081.161-.162.403-.243.565 0 .08-.08.242-.08.323 0 .08-.081.242-.081.323-.081.242-.081.484-.162.727 0 .242-.081.484-.081.726s0 .485.08.727c.163.485.324.808.486 1.13zm6.144 1.212c.162-.081.323-.243.485-.323.162-.162.323-.243.404-.404l.405-.404.323-.323.162-.161c.08-.081.08-.081.08-.162l.243-.242H41.32c-.404 0-.89.08-1.375.161-.08 0-.242.081-.323.081-.081 0-.243.08-.324.08-.242.082-.404.162-.647.243a1.7 1.7 0 00-.485.323c-.161.08-.242.242-.404.323-.242.242-.404.485-.485.727-.08.242-.162.404-.162.565v.242s.404.081.97.081c.324 0 .647 0 .97-.08.324-.081.728-.162 1.133-.324.161-.161.323-.323.485-.403zm-1.861-8.075c.08.323.243.646.404.888.324.485.647.808.647.808s.324-.162.647-.566c.08-.08.162-.242.243-.323.08-.161.161-.242.242-.403.162-.323.243-.646.243-1.13.08-.405 0-.889 0-1.373 0-.485-.081-.97-.162-1.454-.08-.484-.08-.807-.162-1.13-.08-.242-.08-.485-.08-.485l-.081.081-.243.242a5.894 5.894 0 01-.728.888c-.242.404-.485.808-.727 1.292-.162.485-.324.97-.405 1.373v.646c0 .323.081.485.162.646zM44.393 18c.08 0 .162-.08.323-.08.081 0 .081 0 .162-.081.08 0 .08 0 .162-.081.404-.162.727-.323 1.05-.485.324-.161.567-.322.728-.403.081-.081.162-.081.243-.162.081 0 .081-.08.081-.08l-.08-.081c-.082 0-.163-.081-.324-.081-.243-.08-.647-.162-1.051-.323-.243-.08-.405-.08-.647-.161-.081 0-.243 0-.324-.081h-1.698c-.404.08-.727.242-1.05.404-.163.08-.243.161-.405.242-.081.08-.162.161-.243.323-.323.403-.404.726-.404.726s.404.243.97.323c.324.081.647.162.97.162h1.133s.161 0 .404-.08zm1.052-6.863c.08.161.162.242.162.242h.08s.081 0 .162-.08c.162-.082.324-.162.566-.324.404-.323.89-.807 1.213-1.615.08-.242.243-.565.324-.888l.242-1.211c.08-.404.162-.808.243-1.13.08-.647.161-1.131.161-1.131s-.242.161-.566.404c-.161.161-.404.242-.566.403-.242.162-.404.404-.647.566l-.404.403-.08.081-.081.08c-.081.082-.081.162-.162.243-.243.323-.404.646-.566.97-.081.241-.162.403-.162.645 0 .162-.08.404-.08.565 0 .404.08.727.08.97-.08.484 0 .645.08.807zm5.335 2.341c.242-.08.485-.08.647-.161.242-.08.404-.08.566-.162a2.61 2.61 0 00.485-.161s-.324-.242-.89-.646a5.387 5.387 0 00-.97-.485 4.677 4.677 0 00-1.132-.403c-.323-.081-.566-.162-.808-.162-.809-.08-1.456.162-1.86.485a2.565 2.565 0 00-.485.403c-.081.081-.081.081-.081.162v.08s.08.081.242.162c.162.08.324.242.566.404.243.161.566.323.89.404.162.08.323.161.566.161.162.08.404.08.566.08.566 0 1.132-.08 1.698-.16z"/><path d="M59.432 60.634c-.162 0-.323-.08-.566-.08-.08 0-.242 0-.323-.082-.162 0-.243-.08-.404-.08-.243-.081-.566-.081-.89-.162l-.97-.242c-.162 0-.324-.08-.485-.08-.162-.081-.324-.081-.485-.162-.324-.081-.728-.162-1.052-.323-1.455-.404-2.749-.97-3.8-1.454-.242-.161-.485-.242-.647-.323-.08-.08-.161-.08-.242-.161-.081-.08-.162-.08-.243-.162-.242-.161-.404-.242-.404-.242s-.162-.08-.404-.242c-.243-.162-.647-.404-1.132-.727-.89-.565-2.103-1.453-3.235-2.422-1.132-.97-2.102-2.019-2.83-2.826a1.114 1.114 0 01-.242-.323l-.243-.242c-.161-.162-.242-.324-.323-.404-.081-.081-.162-.242-.243-.323l-.08-.081s-.081-.161-.324-.404c-.08-.161-.243-.242-.323-.484-.162-.162-.243-.404-.405-.646-.08-.08-.161-.242-.242-.323-.081-.162-.162-.242-.243-.404-.162-.242-.323-.565-.485-.807-.162-.323-.323-.566-.485-.889-.081-.08-.081-.161-.162-.242 0-.08-.08-.161-.08-.242l-.243-.484c-.566-1.293-1.132-2.665-1.375-3.715 0-.161-.08-.242-.08-.404 0-.08-.081-.242-.081-.323-.081-.242-.081-.403-.162-.565-.081-.323-.081-.484-.081-.484v-.162c0-.08 0-.242-.08-.323 0-.161-.082-.323-.082-.565 0-.242-.08-.484-.162-.727 0-.242-.08-.565-.08-.888v-.969c-.081-.646-.081-1.373-.081-2.1 0-.726 0-1.453.08-2.099v-.969c0-.323.081-.565.081-.888 0-.242.081-.484.162-.727 0-.242.081-.403.081-.565 0-.161.08-.242.08-.323v-.161s.082-.162.082-.485c0-.161.08-.323.161-.565 0-.08.081-.242.081-.323 0-.08.081-.242.081-.404.324-1.05.809-2.341 1.375-3.714l.242-.484c0-.081.081-.162.081-.243.081-.08.081-.161.162-.242.162-.323.323-.646.485-.888.162-.323.323-.565.485-.808.081-.161.162-.242.243-.403a1.08 1.08 0 01.242-.323c.162-.243.324-.404.405-.646.161-.162.242-.323.323-.485.162-.242.323-.404.323-.404l.081-.08c.081-.081.081-.162.243-.323.08-.162.242-.242.323-.404l.243-.242c.08-.081.162-.162.242-.323.728-.808 1.698-1.857 2.83-2.826a33.592 33.592 0 013.235-2.423c.485-.323.89-.565 1.132-.726.323-.162.404-.243.404-.243s.162-.08.404-.242c.081 0 .162-.08.243-.161.08-.081.162-.081.242-.162.081 0 .162-.08.243-.08h.728c.566 0 1.374-.162 2.021-.485.324-.162.647-.404.97-.727.162-.161.324-.242.405-.404l.404-.403c.242-.243.404-.485.566-.646l.242-.242h-1.778c-.081 0-.243 0-.324.08-.242 0-.485.081-.727.162-.486.08-.89.242-1.294.484a3.587 3.587 0 00-.89.646c-.242.242-.323.485-.404.727-.08.242-.162.404-.162.565v.08h-.08c-.081.082-.162.082-.324.162-.08.081-.162.081-.242.162a4.302 4.302 0 01-.405.242l-.485.242c-.242.162-.647.404-1.132.727-.89.646-2.102 1.454-3.234 2.422-1.132.97-2.102 2.02-2.83 2.827-.081.08-.162.242-.243.322l-.242.243c-.162.161-.243.323-.405.484-.08.162-.161.242-.242.323l-.081.081s-.08.162-.323.404c-.081.161-.243.323-.324.484-.162.162-.242.404-.404.646-.081.08-.162.242-.243.323-.08.162-.161.242-.242.404-.162.242-.324.565-.485.807a8.9 8.9 0 01-.486.889c-.08.08-.08.161-.161.242 0 .08-.081.161-.081.242l-.243.484c-.646 1.293-1.132 2.665-1.374 3.715 0 .161-.081.242-.081.404 0 .08-.08.242-.08.323-.082.242-.082.403-.163.565-.08.323-.08.484-.08.484v.162c0 .08 0 .242-.081.323 0 .161-.081.323-.081.565 0 .242-.081.485-.162.727 0 .242-.08.565-.08.888v.969c-.082.646-.082 1.372-.082 2.1 0 .726 0 1.453.081 2.099v.969c0 .323.081.565.081.888 0 .242.08.484.162.727 0 .242.08.403.08.565 0 .161.081.242.081.323v.161s.081.162.081.485c0 .161.081.323.162.565 0 .08.08.242.08.323 0 .08.082.242.082.404.323 1.05.808 2.422 1.374 3.714l.243.484c0 .081.08.162.08.243.082.08.082.161.163.242.161.323.323.646.485.888.161.323.323.565.485.808.08.161.161.242.242.403.081.162.162.243.243.323.162.243.323.404.404.646.162.162.243.323.324.485.161.242.323.404.323.404l.08.08c.082.081.163.162.243.323.081.162.243.242.405.485l.242.242c.081.08.162.161.243.323a46.76 46.76 0 002.83 2.826c1.132.969 2.345 1.857 3.234 2.422.485.323.89.566 1.132.727l.485.242s.162.081.404.243c.081 0 .162.08.243.161.08.08.162.08.324.162.242.08.404.242.646.323a22.08 22.08 0 003.8 1.453c.324.162.728.242 1.052.323.161.08.323.08.566.162.161.08.323.08.485.08l.97.243c.324.08.647.08.89.161.161 0 .242.08.404.08.162 0 .242 0 .323.081.243 0 .404.081.566.081.324 0 .485.081.485.081v-.242c.081.323-.161.323-.485.242z"/><path d="M56.277 60.392s3.881.969 4.77 4.602l-.08-4.199-4.447-.565-.243.162z"/></g><path d="M49.387 94.569v-12.59H53.8c.828 0 1.555.157 2.181.473a3.472 3.472 0 011.46 1.352c.359.586.538 1.273.538 2.061 0 .79-.18 1.476-.537 2.062a3.619 3.619 0 01-1.46 1.352c-.616.316-1.343.474-2.182.474h-2.77v4.816h-1.644zm1.645-6.338h2.82c.503 0 .939-.095 1.308-.287a2.03 2.03 0 00.856-.828c.202-.36.302-.777.302-1.25 0-.485-.1-.902-.302-1.251a2.03 2.03 0 00-.856-.828c-.37-.192-.805-.288-1.309-.288h-2.82v4.733zm15.147 6.541a6.502 6.502 0 01-2.484-.474 6.284 6.284 0 01-2.03-1.368 6.424 6.424 0 01-1.343-2.062 6.858 6.858 0 01-.487-2.603c0-.946.162-1.814.486-2.602a6.426 6.426 0 011.343-2.062 6.108 6.108 0 012.014-1.352 6.546 6.546 0 012.5-.473c.896 0 1.724.163 2.485.49a5.888 5.888 0 012.014 1.352 6.102 6.102 0 011.36 2.045c.335.788.503 1.656.503 2.602 0 .935-.168 1.803-.504 2.603a6.288 6.288 0 01-1.36 2.062 6.096 6.096 0 01-2.013 1.368 6.421 6.421 0 01-2.484.474zm0-1.538a4.71 4.71 0 001.896-.372 4.52 4.52 0 001.477-1.065c.425-.462.75-.991.974-1.588a5.347 5.347 0 00.352-1.944c0-.687-.117-1.33-.352-1.926a4.634 4.634 0 00-.974-1.572 4.217 4.217 0 00-1.477-1.065 4.535 4.535 0 00-1.896-.388c-.683 0-1.31.13-1.88.388a4.385 4.385 0 00-1.494 1.065c-.414.45-.738.975-.973 1.572a5.213 5.213 0 00-.352 1.926c0 .688.117 1.335.352 1.944.235.597.56 1.126.973 1.588a4.71 4.71 0 001.494 1.065c.57.248 1.197.372 1.88.372zm8.76 1.335v-12.59h1.644v11.069h5.488v1.52H74.94zm10.595 0v-5.763l-4.33-6.827h1.863l3.625 5.729h-.671l3.608-5.73h1.863l-4.297 6.828v5.763h-1.661zm12.797.203c-.884 0-1.7-.158-2.45-.474a5.82 5.82 0 01-1.947-1.368 6.49 6.49 0 01-1.293-2.062c-.302-.789-.453-1.65-.453-2.586 0-.946.151-1.814.453-2.602a6.26 6.26 0 011.276-2.062 5.621 5.621 0 011.947-1.352 6.065 6.065 0 012.45-.49c.862 0 1.634.152 2.316.456a5.44 5.44 0 011.746 1.183c.481.484.822 1.003 1.024 1.555l-1.477.727a3.751 3.751 0 00-1.36-1.741c-.615-.428-1.365-.642-2.249-.642-.872 0-1.65.208-2.333.625a4.31 4.31 0 00-1.577 1.74c-.38.744-.57 1.612-.57 2.603 0 .98.19 1.842.57 2.586.391.743.923 1.324 1.594 1.74.683.417 1.46.626 2.333.626.76 0 1.449-.163 2.064-.49a3.772 3.772 0 001.461-1.352c.358-.575.537-1.24.537-1.994v-.778l.755.71h-4.834v-1.436h5.74v1.115c0 .879-.151 1.673-.453 2.383a5.484 5.484 0 01-1.242 1.825 5.613 5.613 0 01-1.829 1.15 6.003 6.003 0 01-2.199.405zm13.92 0a6.502 6.502 0 01-2.484-.474 6.287 6.287 0 01-2.031-1.368 6.429 6.429 0 01-1.343-2.062 6.868 6.868 0 01-.486-2.603c0-.946.162-1.814.486-2.602a6.43 6.43 0 011.343-2.062 6.109 6.109 0 012.014-1.352 6.548 6.548 0 012.501-.473c.895 0 1.723.163 2.484.49a5.89 5.89 0 012.014 1.352 6.105 6.105 0 011.359 2.045c.336.788.504 1.656.504 2.602 0 .935-.168 1.803-.504 2.603a6.292 6.292 0 01-1.359 2.062 6.1 6.1 0 01-2.014 1.368 6.422 6.422 0 01-2.484.474zm0-1.538c.693 0 1.326-.124 1.896-.372a4.516 4.516 0 001.477-1.065c.425-.462.75-.991.974-1.588a5.347 5.347 0 00.352-1.944c0-.687-.117-1.33-.352-1.926a4.642 4.642 0 00-.974-1.572 4.213 4.213 0 00-1.477-1.065 4.532 4.532 0 00-1.896-.388 4.51 4.51 0 00-1.88.388 4.38 4.38 0 00-1.494 1.065 5.01 5.01 0 00-.973 1.572 5.214 5.214 0 00-.353 1.926c0 .688.118 1.335.353 1.944.235.597.559 1.126.973 1.588a4.7 4.7 0 001.494 1.065 4.668 4.668 0 001.88.372zm8.759 1.335v-12.59h1.377l7.183 10.173-.621.068V81.979h1.661v12.59h-1.376l-7.149-10.241.57-.068v10.309h-1.645z" fill="#303030"/><path d="M101.053 27.703c-.943-.54-2.223-.54-3.3 0l-7.745 4.526-5.253 2.904-7.543 4.594c-.943.54-2.222.54-3.3 0l-5.927-3.58c-.942-.54-1.683-1.689-1.683-2.905v-6.958c0-1.08.539-2.229 1.683-2.904l5.86-3.445c.942-.54 2.222-.54 3.3 0l5.926 3.58c.943.54 1.684 1.689 1.684 2.904v4.594l5.253-3.04v-4.728c0-1.081-.539-2.23-1.684-2.905l-10.977-6.485c-.943-.54-2.223-.54-3.3 0l-11.314 6.62c-1.145.54-1.684 1.689-1.684 2.77v13.037c0 1.08.539 2.229 1.684 2.905l11.112 6.484c.942.54 2.222.54 3.3 0l7.61-4.458 5.253-3.04 7.61-4.458c.943-.54 2.223-.54 3.3 0l5.927 3.445c.942.54 1.683 1.689 1.683 2.905v6.89c0 1.08-.539 2.229-1.683 2.904l-5.792 3.445c-.943.54-2.223.54-3.3 0l-5.927-3.445c-.943-.54-1.683-1.688-1.683-2.904v-4.459l-5.254 3.04v4.594c0 1.08.54 2.229 1.684 2.904l11.18 6.485c.943.54 2.222.54 3.3 0l11.179-6.417c.943-.54 1.684-1.689 1.684-2.905V37.092c0-1.08-.539-2.229-1.684-2.904l-11.179-6.485z" fill="#BF27D3"/></svg>