<svg width="180" height="120" fill="none" xmlns="http://www.w3.org/2000/svg"><path d="M35.58 114.849h-1.084l3.137-8.604h1.068l3.138 8.604h-1.085l-2.553-7.243h-.067l-2.553 7.243zm.401-3.361h4.372v.924h-4.372v-.924zm9.659 3.495c-.601 0-1.119-.143-1.553-.428a2.787 2.787 0 01-1-1.181c-.235-.501-.351-1.074-.351-1.718 0-.655.12-1.234.358-1.735a2.85 2.85 0 011.01-1.18c.434-.286.94-.429 1.519-.429.45 0 .856.084 1.218.252.361.168.658.404.889.706.23.302.374.655.43 1.059h-.985a1.541 1.541 0 00-.5-.782c-.257-.229-.602-.344-1.036-.344-.383 0-.72.101-1.01.302a1.97 1.97 0 00-.67.845c-.16.361-.239.785-.239 1.273 0 .498.078.932.234 1.302.158.369.381.657.667.861.29.204.629.307 1.018.307.256 0 .488-.045.697-.135a1.43 1.43 0 00.839-.991h.984a2.303 2.303 0 01-.413 1.029 2.316 2.316 0 01-.863.723c-.356.176-.77.264-1.244.264zm6.562 0c-.6 0-1.118-.143-1.552-.428a2.787 2.787 0 01-1.001-1.181c-.234-.501-.35-1.074-.35-1.718 0-.655.119-1.234.358-1.735a2.85 2.85 0 011.01-1.18c.433-.286.94-.429 1.518-.429.45 0 .857.084 1.218.252.362.168.658.404.89.706.23.302.373.655.429 1.059h-.985a1.541 1.541 0 00-.5-.782c-.256-.229-.601-.344-1.035-.344-.384 0-.72.101-1.01.302a1.97 1.97 0 00-.671.845c-.159.361-.238.785-.238 1.273 0 .498.078.932.233 1.302a2 2 0 00.668.861c.29.204.629.307 1.018.307.256 0 .488-.045.697-.135a1.43 1.43 0 00.838-.991h.985a2.303 2.303 0 01-.413 1.029 2.316 2.316 0 01-.864.723c-.356.176-.77.264-1.243.264zm6.646 0c-.618 0-1.15-.137-1.598-.411a2.761 2.761 0 01-1.03-1.16c-.24-.498-.36-1.078-.36-1.739s.12-1.244.36-1.748a2.843 2.843 0 011.01-1.184c.433-.286.94-.429 1.518-.429.334 0 .663.056.989.168.325.112.621.294.888.546.267.25.48.58.638.992.159.411.238.918.238 1.52v.421h-4.94v-.857H60.5c0-.364-.072-.689-.217-.975a1.637 1.637 0 00-.61-.676 1.69 1.69 0 00-.925-.248c-.392 0-.732.098-1.018.294a1.927 1.927 0 00-.655.756c-.153.311-.23.644-.23 1v.571c0 .487.084.901.25 1.239.17.337.405.593.706.769.3.174.65.261 1.047.261.258 0 .492-.037.7-.11a1.48 1.48 0 00.547-.336c.153-.151.271-.339.355-.563l.951.269c-.1.325-.268.611-.505.857a2.467 2.467 0 01-.876.572 3.239 3.239 0 01-1.172.201zm5.135-8.738v8.604H63v-8.604h.984zm4.491 8.738c-.618 0-1.15-.137-1.598-.411a2.76 2.76 0 01-1.03-1.16c-.24-.498-.36-1.078-.36-1.739s.12-1.244.36-1.748a2.843 2.843 0 011.009-1.184c.434-.286.94-.429 1.519-.429.333 0 .663.056.988.168.326.112.622.294.889.546.267.25.48.58.638.992.159.411.238.918.238 1.52v.421h-4.94v-.857h3.939c0-.364-.073-.689-.217-.975a1.638 1.638 0 00-1.535-.924c-.393 0-.732.098-1.018.294a1.927 1.927 0 00-.655.756c-.153.311-.23.644-.23 1v.571c0 .487.084.901.25 1.239.17.337.405.593.706.769.3.174.649.261 1.047.261.258 0 .492-.037.7-.11a1.48 1.48 0 00.547-.336c.153-.151.271-.339.355-.563l.95.269c-.1.325-.267.611-.504.857a2.466 2.466 0 01-.876.572 3.238 3.238 0 01-1.172.201zm4.151-.134v-6.453h.95v.975h.068c.117-.319.328-.579.634-.777.306-.199.65-.299 1.034-.299a10.396 10.396 0 01.518.017v1.008a2.855 2.855 0 00-.23-.037 2.2 2.2 0 00-.371-.03c-.311 0-.59.066-.834.198a1.48 1.48 0 00-.576.537 1.45 1.45 0 00-.209.778v4.083h-.984zm6.257.151c-.406 0-.775-.077-1.106-.231a1.902 1.902 0 01-.788-.676c-.195-.297-.293-.656-.293-1.076 0-.369.073-.669.218-.899a1.53 1.53 0 01.58-.546c.241-.132.508-.23.8-.294.295-.067.591-.12.889-.16.39-.05.705-.088.947-.113.245-.028.423-.074.534-.139.114-.064.171-.176.171-.336v-.033c0-.415-.112-.737-.338-.967-.222-.229-.56-.344-1.014-.344-.47 0-.838.104-1.105.311-.267.207-.455.428-.563.664l-.935-.336c.167-.393.39-.698.668-.916a2.47 2.47 0 01.917-.462c.334-.09.662-.135.985-.135.206 0 .442.025.71.076.269.047.53.147.78.298.253.151.463.38.63.685.166.305.25.714.25 1.226v4.252h-.985v-.874h-.05c-.067.14-.178.29-.334.45a1.935 1.935 0 01-.621.407c-.259.112-.575.168-.947.168zm.15-.891c.39 0 .717-.077.984-.231a1.57 1.57 0 00.818-1.365v-.907c-.042.05-.133.096-.275.138-.14.04-.3.075-.484.105-.181.028-.358.054-.53.076-.17.02-.307.036-.413.05a3.817 3.817 0 00-.718.164 1.24 1.24 0 00-.534.332c-.133.146-.2.345-.2.597 0 .344.127.605.38.781.256.174.58.26.972.26zm7.371-5.713v.84h-3.321v-.84h3.32zm-2.353-1.546h.984V113c0 .28.04.491.121.631a.63.63 0 00.317.277c.131.045.269.067.413.067.109 0 .198-.006.267-.017l.167-.033.2.89a1.95 1.95 0 01-.28.076c-.119.028-.27.042-.454.042-.278 0-.55-.06-.817-.181a1.626 1.626 0 01-.66-.55c-.172-.247-.258-.557-.258-.933v-6.419zm6.368 8.133c-.578 0-1.086-.138-1.523-.416a2.82 2.82 0 01-1.018-1.163c-.242-.499-.362-1.081-.362-1.748 0-.672.12-1.259.362-1.76a2.815 2.815 0 011.018-1.168c.437-.277.945-.416 1.523-.416.579 0 1.085.139 1.519.416.436.277.776.667 1.018 1.168.245.501.367 1.088.367 1.76 0 .667-.123 1.249-.367 1.748a2.78 2.78 0 01-1.018 1.163c-.434.278-.94.416-1.519.416zm0-.89c.44 0 .801-.114 1.085-.341.284-.226.493-.525.63-.894a3.46 3.46 0 00.204-1.202c0-.431-.068-.833-.204-1.206a2.036 2.036 0 00-.63-.903c-.284-.229-.645-.344-1.085-.344-.44 0-.8.115-1.085.344-.283.23-.493.531-.63.903a3.487 3.487 0 00-.204 1.206c0 .431.068.832.205 1.202.136.369.346.668.63.894.283.227.645.341 1.084.341zm4.407.756v-6.453h.951v.975h.067c.117-.319.328-.579.634-.777.306-.199.65-.299 1.034-.299a10.41 10.41 0 01.518.017v1.008a2.855 2.855 0 00-.23-.037 2.2 2.2 0 00-.37-.03c-.312 0-.59.066-.835.198a1.48 1.48 0 00-.576.537 1.45 1.45 0 00-.209.778v4.083h-.984zm9.127 0L102 108.396h1.034l1.385 4.94h.067l1.368-4.94h1.052l1.351 4.924h.067l1.385-4.924h1.035l-1.953 6.453h-.967l-1.402-4.957h-.1l-1.402 4.957h-.968zm8.094 0v-6.453h.984v6.453h-.984zm.5-7.528a.695.695 0 01-.496-.198.633.633 0 01-.205-.474c0-.185.068-.343.205-.475a.695.695 0 01.496-.198c.192 0 .356.066.493.198.139.132.208.29.208.475a.629.629 0 01-.208.474.685.685 0 01-.493.198zm3.272 3.646v3.882h-.984v-6.453h.951v1.008h.083c.15-.327.378-.591.684-.789.306-.202.701-.303 1.185-.303.434 0 .814.09 1.139.269.326.176.579.445.759.807.181.358.272.812.272 1.361v4.1h-.985v-4.033c0-.507-.131-.902-.392-1.185-.262-.285-.62-.428-1.076-.428-.315 0-.596.068-.843.206a1.466 1.466 0 00-.58.6c-.142.264-.213.583-.213.958zm6.872 0v3.882h-.984v-6.453h.951v1.008h.083c.151-.327.379-.591.685-.789.306-.202.701-.303 1.184-.303.434 0 .814.09 1.139.269a1.8 1.8 0 01.76.807c.181.358.271.812.271 1.361v4.1h-.985v-4.033c0-.507-.13-.902-.392-1.185-.261-.285-.62-.428-1.076-.428a1.7 1.7 0 00-.843.206 1.466 1.466 0 00-.58.6c-.142.264-.213.583-.213.958zm8.575 4.016c-.618 0-1.15-.137-1.598-.411a2.762 2.762 0 01-1.031-1.16c-.239-.498-.358-1.078-.358-1.739s.119-1.244.358-1.748a2.845 2.845 0 011.01-1.184c.434-.286.94-.429 1.519-.429.333 0 .663.056.988.168.326.112.622.294.889.546.267.25.48.58.638.992.159.411.238.918.238 1.52v.421h-4.939v-.857h3.938c0-.364-.072-.689-.217-.975a1.64 1.64 0 00-.609-.676 1.691 1.691 0 00-.926-.248c-.392 0-.732.098-1.018.294a1.925 1.925 0 00-.655.756c-.153.311-.23.644-.23 1v.571c0 .487.084.901.251 1.239.169.337.404.593.705.769.3.174.649.261 1.047.261.258 0 .492-.037.701-.11.211-.075.393-.187.546-.336.153-.151.271-.339.355-.563l.951.269c-.1.325-.268.611-.505.857a2.46 2.46 0 01-.876.572 3.238 3.238 0 01-1.172.201zm4.151-.134v-6.453h.951v.975h.067c.117-.319.328-.579.634-.777a1.857 1.857 0 011.035-.299 10.459 10.459 0 01.517.017v1.008a2.844 2.844 0 00-.229-.037 2.207 2.207 0 00-.372-.03 1.73 1.73 0 00-.834.198 1.482 1.482 0 00-.576.537 1.46 1.46 0 00-.209.778v4.083h-.984zm8.91-5.008l-.884.252a1.684 1.684 0 00-.246-.432 1.198 1.198 0 00-.434-.353c-.184-.093-.419-.139-.705-.139-.393 0-.719.091-.981.273-.258.179-.388.408-.388.685a.71.71 0 00.267.584c.178.143.456.262.835.357l.951.235c.573.14 1 .355 1.281.643.281.286.421.654.421 1.105 0 .37-.106.7-.317.991a2.104 2.104 0 01-.876.689c-.376.168-.812.252-1.31.252-.654 0-1.195-.143-1.623-.428-.428-.286-.7-.703-.814-1.252l.935-.235c.089.347.257.607.505.781.25.174.577.26.98.26.459 0 .823-.098 1.093-.294.273-.198.409-.436.409-.714a.754.754 0 00-.234-.563c-.155-.154-.395-.269-.717-.344l-1.068-.252c-.587-.14-1.018-.357-1.293-.651-.273-.297-.409-.668-.409-1.114 0-.364.101-.686.304-.966.206-.28.486-.5.839-.659a2.92 2.92 0 011.21-.24c.634 0 1.132.14 1.493.42.365.28.623.65.776 1.109z" fill="#717171"/><g opacity=".15" fill="#303030"><path d="M126.47 60.07h.89c.08 0 .242.08.323.08.404.08.889.323 1.375.484.485.162.889.404 1.293.646.405.243.809.404 1.051.566.243.161.405.242.405.242l-.081.08c-.081 0-.162.081-.324.081-.323.081-.727.162-1.132.242-.08 0-.242.081-.323.081-.162 0-.243 0-.404.081-.243 0-.485.08-.809.08a8.02 8.02 0 01-1.455-.16c-.89-.243-1.456-.808-1.86-1.212-.404-.484-.566-.807-.566-.807s.323-.162.809-.323c.161-.162.404-.162.808-.162zm-1.373-3.554c.243-.323.486-.646.728-.888.162-.162.324-.242.404-.404.081-.08.162-.08.243-.161.081-.081.162-.081.243-.162.242-.242.485-.404.727-.484.162-.162.324-.162.324-.162v.404c0 .242 0 .646-.081 1.05-.081.403-.162.888-.243 1.292-.162.403-.323.888-.566 1.21-.081.082-.081.162-.161.243l-.081.08-.081.082c-.162.161-.243.242-.405.322-.161.081-.242.162-.404.243-.161.08-.242.08-.404.161-.485.162-.809.081-.809.081s-.08-.404 0-.969c0-.323.081-.646.162-.969 0-.08.081-.161.081-.242 0-.08.081-.162.081-.242 0-.162.081-.323.242-.485zm6.873.969s.081-.08.162-.08a2.48 2.48 0 01.485-.324.617.617 0 01.404-.161c.162-.081.323-.081.485-.162.324-.08.728-.161 1.132-.161.243 0 .485 0 .728.08.242 0 .485.081.727.081.243 0 .486.081.728.162.243.08.485.08.728.161.485.081.889.162 1.132.242.323.081.485.081.485.081s-.162.081-.404.242c-.162.081-.243.162-.485.243-.081.08-.162.08-.243.161-.081.081-.162.081-.323.162a2.41 2.41 0 00-.647.323c-.081.08-.243.08-.324.161-.081 0-.081.08-.161.08-.081 0-.162 0-.162.082-.485.161-.97.242-1.456.242-.97 0-1.697-.404-2.183-.727-.242-.161-.404-.323-.566-.484-.242-.242-.323-.404-.242-.404-.081 0 0 0 0 0zm1.294-2.745c-.081.403-.323.726-.485.968-.081.162-.243.243-.324.323-.08.081-.242.162-.323.243-.242.161-.404.242-.566.242-.081 0-.162 0-.162.08h-.08s-.081-.08-.081-.242c-.081-.161-.081-.403-.162-.646-.081-.565-.162-1.291.081-2.018.081-.404.242-.727.485-1.05.162-.323.404-.646.647-.888.081-.162.242-.242.323-.404.081-.08.162-.242.243-.323l.242-.242s.081.161.081.404c.081.242.162.646.162 1.05 0 .242.081.403.081.645v.646c0 .242 0 .485-.081.646 0 .162 0 .404-.081.566zm5.091-2.342c.08-.161.242-.323.404-.484.162-.162.404-.404.728-.566.323-.161.646-.323 1.051-.484.161 0 .323-.08.485-.08.162 0 .323-.082.485-.082.809-.161 1.698-.161 2.426-.242.727 0 1.212-.08 1.212-.08s-.161.242-.485.565c-.242.323-.727.726-1.213 1.13-.08.08-.161.08-.242.162l-.081.08s-.081.081-.162.081c-.161.08-.323.242-.485.323l-.485.242c-.162.081-.323.162-.485.162-.889.242-1.698.08-2.264-.081-.566-.242-.889-.484-.889-.484s-.081-.081 0-.162zm-.241-1.05l-.405.404c-.161.08-.242.08-.242.08s-.243-.322-.566-.807c-.243-.484-.566-1.21-.566-2.018 0-.242 0-.566.081-.889 0-.161.081-.242.081-.403 0-.162.08-.243.08-.404.081-.242.162-.404.243-.646 0-.08.081-.08.081-.161s0-.081.081-.162c0-.08.081-.161.081-.242l.242-.485s.243.404.566.97l.243.484c0 .08.081.161.081.242 0 .08.08.161.08.242.162.323.243.727.324 1.13 0 .162.081.324.081.404v.404c0 .404-.081.727-.162 1.05-.081.323-.243.565-.404.807zm6.305-5.006h-.485c-.647 0-.97-.161-.97-.161s0-.081.081-.242c0-.081.081-.162.081-.243 0-.08.08-.161.161-.323.081-.242.243-.484.485-.726l.162-.162c.081-.08.162-.161.243-.161.161-.162.323-.243.485-.323.162-.081.404-.243.647-.323.242-.081.404-.243.647-.323.485-.162.97-.404 1.374-.485.404-.161.809-.323 1.132-.404l.485-.161s-.081.161-.161.404l-.243.484c-.081.162-.243.323-.323.565a2.454 2.454 0 01-.405.566c0 .08-.081.08-.081.161 0 .08-.08.08-.08.162-.081.08-.162.161-.243.322-.162.162-.323.404-.566.566l-.243.242c-.08.08-.161.161-.323.161-.404.243-.809.404-1.213.404-.323-.08-.485 0-.647 0zm-1.774-2.18c0 .323-.162.565-.243.807-.081.081-.081.243-.162.323-.081.081-.081.162-.161.243l-.162.161s-.324-.242-.728-.646c-.081-.08-.162-.242-.323-.323-.081-.161-.243-.242-.324-.404-.161-.323-.404-.645-.485-.968 0-.081-.081-.162-.081-.243 0-.08-.081-.161-.081-.323 0-.161-.08-.404-.08-.565v-1.13c0-.162 0-.323.08-.485v-.404c0-.242.081-.323.081-.323s.162.081.324.323l.727.727c.243.323.566.646.809 1.05.162.161.243.404.323.565.081.162.162.404.243.565.081.162.081.404.081.566v.403c.162 0 .162.08.162.08zm5.334-5.814c-.162.081-.324.242-.486.323-.323.162-.646.242-.97.323-.566.081-1.051.081-1.051.081s-.081-.323.081-.808c0-.161.081-.242.081-.403.081-.162.081-.323.161-.404l.243-.484c.081-.081.081-.162.162-.243l.081-.08.08-.081c.566-.646 1.537-1.292 2.264-1.777.405-.242.728-.484.971-.645.242-.162.404-.243.404-.243s0 .162-.081.485c-.081.323-.162.646-.242 1.13-.162.404-.324.888-.486 1.373-.08.08-.08.242-.161.323-.081.08-.162.242-.162.323-.162.242-.323.404-.404.565-.162-.08-.324.08-.485.242zm-3.64.485s-.404-.162-.889-.404c-.243-.162-.566-.323-.809-.565-.161-.081-.242-.242-.404-.404-.162-.162-.242-.323-.323-.485-.081-.161-.162-.322-.324-.484-.08-.161-.161-.323-.242-.565a7.48 7.48 0 01-.324-1.05c-.08-.323-.161-.646-.161-.807v-.323s.161.08.404.161c.243.162.566.323.889.565.324.243.728.485 1.051.808.324.323.647.646.89.969l.242.484c.081.162.081.323.162.485 0 .161.081.323.081.484v.404c-.081.404-.243.727-.243.727zm4.53-11.143c0 .161-.081.404-.081.565-.081.404-.162.727-.324 1.05a5.032 5.032 0 01-.727.969c-.243.242-.566.403-.809.565-.566.242-.97.323-.97.323s0-.08-.081-.242c0-.162-.081-.323-.081-.566 0-.242 0-.565.081-.888.081-.323.162-.646.323-1.05.081-.16.162-.242.243-.403.081-.08.081-.162.162-.162.081-.08.081-.161.162-.161l.727-.97c.243-.322.485-.645.728-.887.404-.566.728-.888.728-.888s.08.242.08.726c0 .242.081.485.081.727v.888c-.161.08-.161.242-.242.404zm-6.957 2.422l-.162-.161-.161-.162c-.081-.08-.162-.242-.324-.323-.08-.08-.161-.242-.242-.323a1.114 1.114 0 00-.243-.323c-.161-.161-.242-.404-.323-.565-.081-.08-.081-.162-.162-.242 0-.081-.081-.162-.162-.243l-.242-.484s.485.08 1.132.242c.162.081.323.081.485.162.162.08.323.08.566.161.323.162.728.323 1.051.485l.728.484c.323.242.566.565.647.808.161.323.242.565.242.807V31c0 .162-.081.243-.081.243s-.404 0-.97-.162c-.485-.161-1.213-.404-1.779-.969zm3.559-7.994c-.162.323-.404.566-.647.808-.404.404-.808.565-.808.565l-.162-.161a3.929 3.929 0 01-.243-.566c-.08-.242-.161-.484-.242-.807v-.565c0-.162 0-.404.081-.566 0-.242.081-.403.161-.646 0-.08.081-.242.081-.322 0-.081.081-.243.081-.323a9.9 9.9 0 01.566-1.373c.081-.242.162-.404.243-.565l.242-.485c.081-.242.162-.404.162-.404s.081.162.243.404c.08.162.161.323.161.485.081.161.162.403.243.565 0 .08.081.242.081.323 0 .08.081.242.081.323.08.242.08.484.161.727 0 .242.081.484.081.726s0 .485-.081.727a7.758 7.758 0 01-.485 1.13zm-6.144 1.212c-.162-.081-.323-.243-.485-.323-.162-.162-.323-.243-.404-.404l-.405-.404-.323-.323-.162-.161c-.081-.081-.081-.081-.081-.162l-.242-.242h1.455c.405 0 .89.08 1.375.161.081 0 .242.081.323.081.081 0 .243.08.324.08.242.082.404.162.646.243.162.08.324.162.486.323.161.08.242.242.404.323.242.242.404.485.485.727.081.242.162.404.162.565v.242s-.405.081-.971.081c-.323 0-.646 0-.97-.08-.323-.081-.728-.162-1.132-.324-.162-.161-.323-.323-.485-.404zm1.861-8.075a3.003 3.003 0 01-.404.888c-.324.485-.647.808-.647.808s-.324-.162-.647-.566c-.081-.08-.162-.242-.243-.323-.08-.161-.161-.242-.242-.403-.162-.323-.243-.646-.243-1.13-.081-.405 0-.889 0-1.373 0-.485.081-.97.162-1.454s.081-.807.162-1.13c.08-.243.081-.485.081-.485l.08.08.243.243c.162.242.404.565.728.888.242.404.485.808.727 1.292.162.485.324.97.405 1.373v.646c0 .323-.081.484-.162.646zM135.607 18c-.081 0-.162-.08-.323-.08-.081 0-.081 0-.162-.081-.081 0-.081 0-.162-.081a13.3 13.3 0 01-1.051-.485c-.323-.161-.566-.322-.728-.403-.08-.081-.161-.081-.242-.162-.081 0-.081-.08-.081-.08l.081-.081c.081 0 .162-.081.323-.081.243-.08.647-.162 1.051-.323.243-.08.405-.08.647-.162.081 0 .243 0 .324-.08h1.698c.404.08.727.242 1.051.404.162.08.242.161.404.242.081.08.162.161.243.323.323.403.404.726.404.726s-.404.243-.97.323c-.324.081-.647.162-.971.162h-1.132s-.161 0-.404-.08zm-1.052-6.863a1.007 1.007 0 01-.162.242h-.08s-.081 0-.162-.08c-.162-.082-.324-.162-.566-.324a3.831 3.831 0 01-1.213-1.615c-.081-.242-.243-.565-.323-.888l-.243-1.211a26.192 26.192 0 00-.243-1.13c-.08-.647-.161-1.131-.161-1.131s.242.161.566.404c.161.161.404.242.566.403.242.162.404.404.647.566l.404.403.081.081.081.08c.08.082.08.162.161.243.243.323.405.646.566.97.081.241.162.403.162.645 0 .162.081.404.081.565 0 .404-.081.727-.081.97.081.484 0 .645-.081.807zm-5.335 2.341c-.242-.08-.485-.08-.647-.161-.242-.081-.404-.081-.566-.162-.323-.08-.485-.161-.485-.161s.324-.242.89-.646a5.37 5.37 0 01.97-.485 4.684 4.684 0 011.132-.403c.323-.081.566-.162.808-.162.809-.08 1.456.162 1.86.485.243.161.323.242.485.403.081.081.081.081.081.162v.08s-.081.081-.243.162c-.161.08-.323.242-.566.404a2.985 2.985 0 01-.889.404c-.162.08-.323.161-.566.161-.162.08-.404.08-.566.08-.566 0-1.132-.08-1.698-.16z"/><path d="M120.568 60.634c.161 0 .323-.08.566-.08.081 0 .242 0 .323-.082.162 0 .243-.08.404-.08.243-.081.566-.081.89-.162l.97-.242c.162 0 .324-.08.485-.08.162-.081.324-.081.485-.162.324-.081.728-.162 1.052-.323 1.455-.404 2.749-.97 3.8-1.454.242-.161.485-.242.647-.323.081-.08.161-.08.242-.161.081-.08.162-.08.243-.162.242-.161.404-.242.404-.242s.162-.08.404-.242c.243-.162.647-.404 1.132-.727.89-.565 2.103-1.453 3.235-2.422 1.132-.97 2.102-2.019 2.83-2.826.08-.081.161-.162.242-.323l.243-.243c.161-.161.242-.323.323-.403.081-.081.162-.243.243-.323l.081-.081s.08-.161.323-.404c.081-.161.243-.242.323-.484.162-.162.243-.404.405-.646.081-.081.161-.242.242-.323.081-.162.162-.242.243-.404.162-.242.323-.565.485-.807.162-.323.323-.566.485-.889.081-.08.081-.161.162-.242 0-.08.081-.161.081-.242l.242-.485c.566-1.291 1.132-2.664 1.375-3.714 0-.161.081-.242.081-.404 0-.08.081-.242.081-.323.08-.242.08-.403.161-.565.081-.323.081-.484.081-.484v-.162c0-.08 0-.242.081-.323 0-.161.081-.323.081-.565 0-.242.081-.484.162-.727 0-.242.08-.565.08-.888v-.969c.081-.646.081-1.373.081-2.1 0-.726 0-1.453-.081-2.099v-.969c0-.323-.08-.565-.08-.888 0-.242-.081-.484-.162-.727 0-.242-.081-.403-.081-.565 0-.161-.081-.242-.081-.323v-.161s-.081-.162-.081-.485c0-.161-.081-.323-.161-.565 0-.08-.081-.242-.081-.323 0-.08-.081-.242-.081-.404-.324-1.05-.809-2.341-1.375-3.714l-.242-.484c0-.081-.081-.162-.081-.243-.081-.08-.081-.161-.162-.242-.162-.323-.323-.646-.485-.888a7.104 7.104 0 00-.485-.808c-.081-.161-.162-.242-.243-.403a1.115 1.115 0 00-.242-.323c-.162-.243-.324-.404-.405-.646a1.705 1.705 0 01-.323-.485 2.958 2.958 0 00-.323-.404l-.081-.08c-.081-.081-.081-.162-.243-.323-.081-.162-.242-.242-.323-.404l-.243-.242a1.096 1.096 0 01-.242-.323c-.728-.808-1.698-1.857-2.83-2.826a33.525 33.525 0 00-3.235-2.423c-.485-.323-.889-.565-1.132-.726-.323-.162-.404-.243-.404-.243s-.162-.08-.404-.242c-.081 0-.162-.08-.243-.161-.081-.081-.161-.081-.242-.162-.081 0-.162-.08-.243-.08h-.728a4.918 4.918 0 01-2.021-.485 3.8 3.8 0 01-.97-.727c-.162-.161-.324-.242-.405-.404a153.83 153.83 0 00-.404-.403c-.242-.243-.404-.485-.566-.646l-.242-.243h1.778c.081 0 .243 0 .324.081.242 0 .485.08.728.162.485.08.889.242 1.293.484.324.162.647.404.89.646.242.242.323.485.404.727.081.242.162.404.162.565v.08h.081c.08.082.161.082.323.162.081.081.162.081.242.162.243.161.405.242.405.242l.485.242c.242.162.647.404 1.132.727.889.646 2.102 1.453 3.234 2.422 1.132.97 2.102 2.019 2.83 2.827.081.08.162.242.243.322l.242.243c.162.161.243.323.405.484.08.162.161.242.242.323l.081.08s.081.162.323.405c.081.161.243.323.324.484.162.162.242.404.404.646.081.08.162.242.243.323.081.162.161.242.242.404.162.242.324.565.485.807a8.9 8.9 0 00.486.889c.08.08.08.161.161.242 0 .08.081.161.081.242l.243.484c.647 1.292 1.132 2.665 1.374 3.715 0 .161.081.242.081.404 0 .08.081.242.081.323.081.242.081.403.162.565.081.323.081.484.081.484v.162c0 .08-.001.242.08.323 0 .161.081.323.081.565 0 .242.081.484.162.727 0 .242.081.565.081.888v.969c.081.646.081 1.372.081 2.1 0 .726 0 1.453-.081 2.099v.969c0 .322-.081.565-.081.888 0 .242-.081.484-.162.727 0 .242-.081.403-.081.565 0 .161-.08.242-.08.323v.161s-.081.162-.081.485c0 .161-.081.323-.162.565 0 .08-.081.242-.081.323 0 .08-.081.242-.081.404a36.237 36.237 0 01-1.374 3.714l-.243.484c0 .081-.081.162-.081.243-.081.08-.081.161-.161.242-.162.323-.324.646-.486.888-.161.323-.323.565-.485.808-.081.161-.161.242-.242.403-.081.162-.162.242-.243.323-.162.242-.323.404-.404.646a1.689 1.689 0 00-.324.485c-.161.242-.323.404-.323.404l-.081.08c-.081.081-.162.162-.242.323-.081.162-.243.242-.405.485l-.242.242c-.081.08-.162.161-.243.323a46.76 46.76 0 01-2.83 2.826c-1.132.969-2.345 1.857-3.234 2.422-.485.323-.89.566-1.132.727l-.485.242s-.162.081-.405.243c-.08 0-.161.08-.242.161-.081.08-.162.08-.323.162-.243.08-.405.242-.647.323a22.116 22.116 0 01-3.801 1.453c-.323.162-.727.242-1.051.323-.161.08-.323.08-.566.162-.161.08-.323.08-.485.08l-.97.243c-.324.08-.647.08-.89.161-.161 0-.242.08-.404.08-.162 0-.242 0-.323.081-.243 0-.405.081-.566.081-.324 0-.485.08-.485.08v-.241c-.081.323.161.323.485.242z"/><path d="M123.723 60.392s-3.881.969-4.771 4.602l.081-4.199 4.447-.565.243.162z"/></g><g opacity=".15" fill="#303030"><path d="M53.53 60.07h-.889c-.081 0-.243.08-.324.08-.404.08-.89.323-1.374.484-.486.162-.89.404-1.294.646-.404.243-.809.404-1.051.566a4.207 4.207 0 01-.405.242l.081.08c.081 0 .162.081.324.081.323.081.727.162 1.132.243.08 0 .242.08.323.08.162 0 .243 0 .404.081.243 0 .486.08.809.08.485 0 1.051-.08 1.455-.16.89-.243 1.456-.808 1.86-1.212.404-.484.566-.807.566-.807s-.323-.162-.809-.323c-.161-.162-.404-.162-.808-.162zm1.373-3.554c-.243-.323-.486-.646-.728-.888-.162-.161-.323-.242-.404-.404-.081-.08-.162-.08-.243-.161-.08-.081-.162-.081-.242-.162-.243-.242-.486-.404-.728-.484-.162-.162-.324-.162-.324-.162v.404c0 .242 0 .646.081 1.05.081.403.162.888.243 1.292.161.403.323.888.566 1.21.08.082.08.162.161.243l.081.08.081.082c.162.161.243.242.404.323.162.08.243.161.405.242.161.08.242.08.404.161.485.162.809.081.809.081s.08-.404 0-.969c0-.323-.081-.646-.162-.969 0-.08-.08-.161-.08-.242 0-.08-.082-.162-.082-.242 0-.162-.08-.323-.242-.485zm-6.873.969s-.08-.08-.162-.08a2.52 2.52 0 00-.485-.324.618.618 0 00-.404-.161c-.162-.08-.323-.08-.485-.162a4.775 4.775 0 00-1.132-.161c-.243 0-.485 0-.728.08-.242 0-.485.081-.727.081-.243 0-.486.081-.728.162-.243.08-.485.08-.728.161-.485.081-.89.162-1.132.243-.323.08-.485.08-.485.08s.162.081.404.243c.162.08.243.161.485.242.081.08.162.08.243.161.08.081.162.081.323.162.243.08.405.161.647.323.081.08.243.08.324.161.08 0 .08.081.161.081s.162 0 .162.08c.485.162.97.243 1.456.243.97 0 1.697-.404 2.183-.727.242-.161.404-.323.566-.484.242-.242.323-.404.242-.404.081 0 0 0 0 0zm-1.294-2.745c.08.403.323.726.485.968.08.162.243.243.324.324.08.08.242.161.323.242.242.161.404.242.566.242.08 0 .162 0 .162.08h.08s.081-.08.081-.241c.081-.162.081-.404.162-.646.08-.566.162-1.293-.08-2.02a2.503 2.503 0 00-.486-1.049 3.585 3.585 0 00-.647-.888c-.08-.162-.242-.242-.323-.404-.081-.08-.162-.242-.243-.323l-.242-.242s-.081.161-.081.404a3.573 3.573 0 00-.162 1.05c0 .242-.08.403-.08.645v.646c0 .243 0 .485.08.646 0 .162 0 .404.08.566zm-5.091-2.342c-.08-.161-.242-.323-.404-.484-.162-.162-.404-.404-.727-.566-.324-.161-.647-.323-1.052-.484-.161 0-.323-.08-.485-.08-.161 0-.323-.082-.485-.082-.808-.161-1.698-.161-2.426-.242-.727 0-1.213-.08-1.213-.08s.162.242.486.565c.242.323.727.726 1.212 1.13.081.08.162.08.243.162l.08.08s.082.081.163.081c.161.08.323.242.485.323l.485.242c.162.081.323.162.485.162.89.242 1.698.08 2.264-.08.566-.243.89-.485.89-.485s.08-.081 0-.162zm.241-1.05l.405.404c.161.08.242.08.242.08s.243-.322.566-.807c.243-.484.566-1.21.566-2.018 0-.242 0-.566-.08-.888 0-.162-.082-.243-.082-.404 0-.162-.08-.242-.08-.404-.081-.242-.162-.404-.243-.646 0-.08-.08-.08-.08-.161s0-.081-.082-.162c0-.08-.08-.161-.08-.242l-.243-.485s-.243.404-.566.97l-.243.484c0 .08-.08.161-.08.242 0 .08-.081.162-.081.242-.162.323-.243.727-.324 1.13 0 .162-.08.324-.08.404v.404c0 .404.08.727.161 1.05.08.323.243.565.404.807zm-6.306-5.006h.486c.647 0 .97-.161.97-.161s0-.081-.08-.242c0-.081-.082-.162-.082-.243 0-.08-.08-.161-.161-.323-.081-.242-.243-.484-.485-.726l-.162-.162c-.081-.08-.162-.161-.243-.161a1.653 1.653 0 00-.485-.323c-.162-.081-.404-.243-.647-.323-.242-.081-.404-.243-.647-.323-.485-.162-.97-.404-1.374-.485-.404-.161-.809-.323-1.132-.404l-.485-.161s.08.161.162.404l.242.484c.08.162.243.323.323.565.081.162.243.404.405.566 0 .08.08.08.08.161 0 .08.081.08.081.162.081.08.162.161.243.323.162.161.323.403.566.565l.243.242c.08.08.161.161.323.161.404.243.809.404 1.213.404.323-.08.485 0 .647 0zm1.775-2.18c0 .323.162.565.243.807.08.081.08.243.162.323.08.081.08.162.161.243l.162.161s.324-.242.728-.646c.08-.08.162-.242.323-.323.081-.161.243-.242.324-.403.161-.323.404-.646.485-.97 0-.08.08-.161.08-.242 0-.08.082-.161.082-.323 0-.161.08-.403.08-.565v-1.13c0-.162 0-.323-.08-.485v-.404c0-.242-.081-.323-.081-.323s-.162.081-.324.323l-.727.727c-.243.323-.566.646-.809 1.05-.162.161-.242.404-.323.565-.081.162-.162.404-.243.565-.08.162-.08.404-.08.566v.403c-.163 0-.163.081-.163.081zm-5.334-5.814c.162.081.324.243.486.323.323.162.646.243.97.323.566.081 1.051.081 1.051.081s.08-.323-.08-.807c0-.162-.082-.243-.082-.404-.08-.162-.08-.323-.161-.404l-.243-.484c-.08-.081-.08-.162-.162-.243l-.08-.08-.081-.081c-.567-.646-1.537-1.292-2.264-1.777-.405-.242-.728-.484-.97-.645-.243-.162-.405-.243-.405-.243s0 .162.08.485c.082.323.163.646.243 1.13.162.404.324.888.486 1.373.08.08.08.242.161.323.081.08.162.242.162.323.162.242.323.404.404.565.162-.08.324.08.485.242zm3.639.485s.405-.162.89-.404c.242-.162.566-.323.809-.565.161-.081.242-.242.404-.404.162-.161.242-.323.323-.484a1.69 1.69 0 01.324-.485c.08-.161.161-.323.242-.565.162-.404.243-.727.324-1.05.08-.323.161-.646.161-.807v-.323s-.161.08-.404.161c-.242.162-.566.323-.89.565-.323.243-.727.485-1.05.808-.324.323-.647.646-.89.969l-.242.484c-.081.162-.081.323-.162.485 0 .161-.081.323-.081.484v.404c.08.404.242.727.242.727zM31.131 27.69c0 .161.081.404.081.565.08.404.162.727.323 1.05.243.404.486.727.728.969.243.242.566.403.809.565.566.242.97.323.97.323s0-.08.08-.242c0-.162.082-.323.082-.566 0-.242 0-.565-.081-.888a7.484 7.484 0 00-.323-1.05c-.081-.16-.162-.242-.243-.403-.08-.08-.08-.162-.162-.162-.08-.08-.08-.161-.162-.161l-.727-.97c-.243-.322-.485-.645-.728-.887-.404-.566-.728-.888-.728-.888s-.08.242-.08.726c0 .242-.081.485-.081.727v.888c.161.08.161.242.242.404zm6.957 2.422l.161-.161.162-.162c.081-.08.162-.242.324-.323.08-.08.161-.242.242-.323.081-.161.162-.242.243-.323.162-.161.242-.404.323-.565.081-.08.081-.162.162-.242 0-.081.08-.162.162-.243l.242-.484s-.485.08-1.132.242c-.161.081-.323.081-.485.162-.162.08-.323.08-.566.161-.323.162-.728.323-1.051.485l-.728.484c-.323.242-.566.566-.647.808-.161.323-.242.565-.242.807V31c0 .162.08.243.08.243s.405 0 .97-.162c.486-.161 1.214-.404 1.78-.969zm-3.559-7.994c.162.323.404.566.647.808.404.404.808.565.808.565l.162-.161c.08-.162.162-.323.243-.566.08-.242.161-.484.242-.807v-.565c0-.162 0-.404-.08-.566 0-.242-.082-.403-.162-.646 0-.08-.081-.242-.081-.322 0-.081-.081-.243-.081-.323a9.845 9.845 0 00-.566-1.373 3.932 3.932 0 00-.243-.565l-.242-.485a3.381 3.381 0 00-.162-.404s-.08.162-.242.404c-.081.162-.162.323-.162.485-.081.161-.162.403-.243.565 0 .08-.08.242-.08.323 0 .08-.081.242-.081.323-.081.242-.081.484-.162.727 0 .242-.081.484-.081.726s0 .485.08.727c.163.485.324.808.486 1.13zm6.144 1.212c.162-.081.323-.243.485-.323.162-.162.323-.243.404-.404l.405-.404.323-.323.162-.161c.08-.081.08-.081.08-.162l.243-.242H41.32c-.404 0-.89.08-1.375.161-.08 0-.242.081-.323.081-.081 0-.243.08-.324.08-.242.082-.404.162-.647.243a1.7 1.7 0 00-.485.323c-.161.08-.242.242-.404.323-.242.242-.404.485-.485.727-.08.242-.162.404-.162.565v.242s.404.081.97.081c.324 0 .647 0 .97-.08.324-.081.728-.162 1.133-.324.161-.161.323-.323.485-.403zm-1.861-8.075c.08.323.243.646.404.888.324.485.647.808.647.808s.324-.162.647-.566c.08-.08.162-.242.243-.323.08-.161.161-.242.242-.403.162-.323.243-.646.243-1.13.08-.405 0-.889 0-1.373 0-.485-.081-.97-.162-1.454-.08-.484-.08-.807-.162-1.13-.08-.242-.08-.485-.08-.485l-.081.081-.243.242a5.894 5.894 0 01-.728.888c-.242.404-.485.808-.727 1.292-.162.485-.324.97-.405 1.373v.646c0 .323.081.485.162.646zM44.393 18c.08 0 .162-.08.323-.08.081 0 .081 0 .162-.081.08 0 .08 0 .162-.081.404-.162.727-.323 1.05-.485.324-.161.567-.322.728-.403.081-.081.162-.081.243-.162.081 0 .081-.08.081-.08l-.08-.081c-.082 0-.163-.081-.324-.081-.243-.08-.647-.162-1.051-.323-.243-.08-.405-.08-.647-.161-.081 0-.243 0-.324-.081h-1.698c-.404.08-.727.242-1.05.404-.163.08-.243.161-.405.242-.081.08-.162.161-.243.323-.323.403-.404.726-.404.726s.404.243.97.323c.324.081.647.162.97.162h1.133s.161 0 .404-.08zm1.052-6.863c.08.161.162.242.162.242h.08s.081 0 .162-.08c.162-.082.324-.162.566-.324.404-.323.89-.807 1.213-1.615.08-.242.243-.565.324-.888l.242-1.211c.08-.404.162-.808.243-1.13.08-.647.161-1.131.161-1.131s-.242.161-.566.404c-.161.161-.404.242-.566.403-.242.162-.404.404-.647.566l-.404.403-.08.081-.081.08c-.081.082-.081.162-.162.243-.243.323-.404.646-.566.97-.081.241-.162.403-.162.645 0 .162-.08.404-.08.565 0 .404.08.727.08.97-.08.484 0 .645.08.807zm5.335 2.341c.242-.08.485-.08.647-.161.242-.08.404-.08.566-.162a2.61 2.61 0 00.485-.161s-.324-.242-.89-.646a5.387 5.387 0 00-.97-.485 4.677 4.677 0 00-1.132-.403c-.323-.081-.566-.162-.808-.162-.809-.08-1.456.162-1.86.485a2.565 2.565 0 00-.485.403c-.081.081-.081.081-.081.162v.08s.08.081.242.162c.162.08.324.242.566.404.243.161.566.323.89.404.162.08.323.161.566.161.162.08.404.08.566.08.566 0 1.132-.08 1.698-.16z"/><path d="M59.432 60.634c-.162 0-.323-.08-.566-.08-.08 0-.242 0-.323-.082-.162 0-.243-.08-.404-.08-.243-.081-.566-.081-.89-.162l-.97-.242c-.162 0-.324-.08-.485-.08-.162-.081-.324-.081-.485-.162-.324-.08-.728-.162-1.052-.323-1.455-.404-2.749-.97-3.8-1.454-.242-.161-.485-.242-.647-.323-.08-.08-.161-.08-.242-.161-.081-.08-.162-.08-.243-.162-.242-.161-.404-.242-.404-.242s-.162-.08-.404-.242c-.243-.162-.647-.404-1.132-.727-.89-.565-2.103-1.453-3.235-2.422-1.132-.97-2.102-2.019-2.83-2.826a1.114 1.114 0 01-.242-.323l-.243-.242c-.161-.162-.242-.324-.323-.404-.081-.081-.162-.242-.243-.323l-.08-.081s-.081-.161-.324-.404c-.08-.161-.243-.242-.323-.484-.162-.162-.243-.404-.405-.646-.08-.08-.161-.242-.242-.323-.081-.162-.162-.242-.243-.404-.162-.242-.323-.565-.485-.807-.162-.323-.323-.566-.485-.889-.081-.08-.081-.161-.162-.242 0-.08-.08-.161-.08-.242l-.243-.484c-.566-1.293-1.132-2.665-1.375-3.715 0-.161-.08-.242-.08-.404 0-.08-.081-.242-.081-.323-.081-.242-.081-.403-.162-.565-.081-.323-.081-.484-.081-.484v-.162c0-.08 0-.242-.08-.323 0-.161-.082-.323-.082-.565 0-.242-.08-.484-.162-.727 0-.242-.08-.565-.08-.888v-.969c-.081-.646-.081-1.373-.081-2.1 0-.726 0-1.453.08-2.099v-.969c0-.323.081-.565.081-.888 0-.242.081-.484.162-.727 0-.242.081-.403.081-.565 0-.161.08-.242.08-.323v-.161s.082-.162.082-.485c0-.161.08-.323.161-.565 0-.08.081-.242.081-.323 0-.08.081-.242.081-.404.324-1.05.809-2.341 1.375-3.714l.242-.484c0-.081.081-.162.081-.243.081-.08.081-.161.162-.242.162-.323.323-.646.485-.888a7.11 7.11 0 01.485-.808c.081-.161.162-.242.243-.403a1.08 1.08 0 01.242-.323c.162-.243.324-.404.405-.646.161-.162.242-.323.323-.485.162-.242.323-.404.323-.404l.081-.08c.081-.081.081-.162.243-.323.08-.162.242-.242.323-.404l.243-.242c.08-.081.162-.162.242-.323.728-.808 1.698-1.857 2.83-2.826a33.592 33.592 0 013.235-2.423c.485-.323.89-.565 1.132-.726.323-.162.404-.243.404-.243s.162-.08.404-.242c.081 0 .162-.08.243-.161.08-.081.162-.081.242-.162.081 0 .162-.08.243-.08h.728c.566 0 1.374-.162 2.021-.485.324-.162.647-.404.97-.727.162-.161.324-.242.405-.404l.404-.403c.242-.243.404-.485.566-.646l.242-.242h-1.778c-.081 0-.243 0-.324.08-.242 0-.485.081-.727.162-.486.08-.89.242-1.294.484a3.587 3.587 0 00-.89.646c-.242.242-.323.485-.404.727-.08.242-.162.404-.162.565v.08h-.08c-.081.082-.162.082-.324.162-.08.081-.162.081-.242.162a4.302 4.302 0 01-.405.242l-.485.242c-.242.162-.647.404-1.132.727-.89.646-2.102 1.454-3.234 2.422-1.132.97-2.102 2.02-2.83 2.827-.081.08-.162.242-.243.322l-.242.243c-.162.161-.243.323-.405.484-.08.162-.161.242-.242.323l-.081.081s-.08.162-.323.404c-.081.161-.243.323-.324.484-.162.162-.242.404-.404.646-.081.08-.162.242-.243.323-.08.162-.161.242-.242.404-.162.242-.324.565-.485.807a8.9 8.9 0 01-.486.889c-.08.08-.08.161-.161.242 0 .08-.081.161-.081.242l-.243.484c-.646 1.293-1.132 2.665-1.374 3.715 0 .161-.081.242-.081.404 0 .08-.08.242-.08.323-.082.242-.082.403-.163.565-.08.323-.08.484-.08.484v.162c0 .08 0 .242-.081.323 0 .161-.081.323-.081.565 0 .242-.081.485-.162.727 0 .242-.08.565-.08.888v.969c-.082.646-.082 1.372-.082 2.1 0 .726 0 1.453.081 2.099v.969c0 .323.081.565.081.888 0 .242.08.484.162.727 0 .242.08.403.08.565 0 .161.081.242.081.323v.161s.081.162.081.485c0 .161.081.323.162.565 0 .08.08.242.08.323 0 .08.082.242.082.404.323 1.05.808 2.422 1.374 3.714l.243.484c0 .081.08.162.08.243.082.08.082.161.163.242.161.323.323.646.485.888.161.323.323.565.485.808.08.161.161.242.242.403.081.162.162.243.243.323.162.243.323.404.404.646.162.162.243.323.324.485.161.242.323.404.323.404l.08.08c.082.081.163.162.243.323.081.162.243.242.405.485l.242.242c.081.08.162.161.243.323a46.76 46.76 0 002.83 2.826c1.132.969 2.345 1.857 3.234 2.422.485.324.89.566 1.132.727l.485.242s.162.081.404.243c.081 0 .162.08.243.161.08.08.162.08.324.162.242.08.404.242.646.323a22.08 22.08 0 003.8 1.453c.324.162.728.242 1.052.323.161.08.323.08.566.162.161.08.323.08.485.08l.97.243c.324.08.647.08.89.161.161 0 .242.08.404.08.162 0 .242 0 .323.081.243 0 .404.081.566.081.324 0 .485.081.485.081v-.242c.081.323-.161.323-.485.242z"/><path d="M56.277 60.392s3.881.969 4.77 4.602l-.08-4.199-4.447-.565-.243.162z"/></g><path fill-rule="evenodd" clip-rule="evenodd" d="M65.757 5.035a.893.893 0 00-.357.254c-.147.191-.197.553-.12.873.028.116.789 2.277 1.113 3.16.076.207.21.582.779 2.17a1728.863 1728.863 0 001.118 3.122 620.556 620.556 0 001.198 3.343l.651 1.822a1316.728 1316.728 0 011.244 3.47 1917.255 1917.255 0 011.159 3.233 8262.284 8262.284 0 002.152 6.005c.088.244.2.558.248.697.048.14.265.746.482 1.347.216.602.447 1.243.511 1.426.065.183.338.946.608 1.696.27.75.563 1.57.653 1.822.198.557.51 1.428.659 1.838.107.296.19.528.459 1.283.074.21.235.659.358.998.123.34.276.768.34.951.149.422.57 1.596.772 2.155a3078.39 3078.39 0 001.607 4.484 5282.693 5282.693 0 012.02 5.641c.058.157.265.735.461 1.284a1059.564 1059.564 0 001.67 4.658c.967 2.711.93 2.62 1.12 2.82.337.353.748.335 1.13-.05.09-.092.525-.729 1.059-1.55a8356.685 8356.685 0 013.802-5.847 8333.98 8333.98 0 013.937-6.053c1.242-1.907 2.123-3.262 3.947-6.068l2.052-3.153 4.051-6.227c1.627-2.503 2.845-4.376 3.968-6.1 4.226-6.496 4.731-7.275 4.788-7.388.123-.242.175-.462.192-.805.014-.296.006-.387-.052-.6a1.821 1.821 0 00-.484-.863c-.181-.19-.576-.472-2.377-1.698l-3.388-2.309c-1.523-1.038-1.995-1.307-3.031-1.725-.648-.261.09-.068-9.277-2.427a6391.428 6391.428 0 01-6.03-1.52 3772.803 3772.803 0 01-5.58-1.405L81.22 8.752c-3.063-.773-5.435-1.37-6.62-1.668-1.173-.294-2.82-.71-5.719-1.442-1.137-.288-2.183-.55-2.325-.584-.278-.067-.65-.078-.799-.023zm5.881 3.274a12443.786 12443.786 0 0011.183 2.82l2.828.712a21060.776 21060.776 0 019.31 2.346c4.825 1.22 8.728 2.2 8.889 2.234a.755.755 0 01.148.044c.034.019-.392.567-.828 1.064-.046.053-.439.523-.873 1.046a188.403 188.403 0 01-1.611 1.929l-1.01 1.213-2.304 2.768c-.427.515-.785.942-.795.951-.01.009-.475.565-1.032 1.236A3206.415 3206.415 0 0192.773 30c-.329.388-.695.826-1.404 1.679-1.623 1.951-1.767 2.12-1.789 2.107a8.384 8.384 0 01-.327-.419l-.547-.721-1.948-2.56L85.2 28.03c-.282-.372-.52-.684-.53-.693a4.71 4.71 0 01-.184-.237c-.091-.122-.367-.486-.612-.808-.772-1.013-1.98-2.604-2.842-3.74a1428.06 1428.06 0 00-2.868-3.77l-.675-.888a304.98 304.98 0 01-.976-1.287c-.17-.225-.597-.787-.95-1.248l-1.506-1.981a350.502 350.502 0 00-1.187-1.558 1181.061 1181.061 0 00-2.895-3.806c-.059-.074-.092-.134-.073-.134.018 0 .8.193 1.736.43zM69.04 9.916c.415.544.82 1.076.901 1.18.082.105.401.526.71.935.31.41.584.77.609.8.049.06.613.801.714.939a1779.138 1779.138 0 013.29 4.33c.41.54.803 1.055.873 1.145a1017.839 1017.839 0 001.623 2.135c.444.584 1.1 1.446 1.456 1.917.357.47.721.948.81 1.062.088.113.452.59.808 1.061a872.397 872.397 0 003.011 3.961 304.9 304.9 0 011.432 1.886c.103.133.39.51.638.836l1.13 1.488c.375.49.86 1.129 1.079 1.418l.398.524-.028.315a566.408 566.408 0 01-.25 3.056l-.17 2.028c-.023.314-.035.467-.216 2.615a610.53 610.53 0 00-.187 2.266c-.011.148-.089 1.082-.173 2.075-.083.994-.16 1.92-.17 2.06-.015.21-.093 1.156-.372 4.469l-.031.396c-.013.173-.295 3.58-.34 4.117a20.4 20.4 0 00-.036.492c-.023.348-.053.459-.09.332a11.08 11.08 0 00-.132-.378 2183.919 2183.919 0 01-2.138-5.973 667.986 667.986 0 00-.683-1.901c-.296-.824-.808-2.256-1.026-2.869l-.698-1.949a9058.316 9058.316 0 01-2.674-7.463l-.761-2.123c-.092-.253-.357-.994-.59-1.648l-.716-1.996a3199.599 3199.599 0 00-2.54-7.083c-.118-.331-.255-.716-.303-.856-.048-.14-.157-.446-.243-.681-.172-.47-.55-1.524-.847-2.36a175.48 175.48 0 00-.284-.793l-.29-.808c-.108-.305-.353-.99-.545-1.521l-.466-1.3-.59-1.648-.885-2.471c-.954-2.668-1.611-4.5-1.697-4.73-.092-.248-.1-.277-.078-.277.007 0 .352.445.767.99zm37.33 7.379c.481.24.834.459 1.659 1.026.41.282 1.62 1.11 2.689 1.837a129.88 129.88 0 011.996 1.376c.059.057.134.012-1.375.836l-1.057.578a386.759 386.759 0 01-1.103.603 83.67 83.67 0 01-.761.418c-.42.228-2.396 1.31-2.969 1.626-.307.17-.741.405-.963.523-.222.118-.418.225-.435.238-.017.012-.15.087-.296.165-.47.255-3.174 1.735-3.574 1.957-.214.119-.69.38-1.06.58l-.87.475-1.256.689-1.616.886c-.308.17-.727.398-.933.508-.205.11-.477.26-.606.333-.375.214-.384.218-.354.169.024-.04 1.165-1.419 1.622-1.96.278-.33.246-.29 1.11-1.331.426-.514.794-.955.817-.979.022-.024.529-.63 1.124-1.346 1.69-2.032 3.098-3.723 3.451-4.14.19-.224 1.529-1.833 2.822-3.39a205.098 205.098 0 011.401-1.674c.074-.09.153-.165.174-.165.022 0 .185.073.363.162zm5.953 7.135c-.228.353-.985 1.519-1.683 2.59l-2.113 3.249c-.465.714-1.346 2.07-1.959 3.01a11677.102 11677.102 0 00-5.936 9.127c-.75 1.15-1.673 2.57-2.052 3.153l-1.885 2.9a8501.591 8501.591 0 00-3.99 6.132l-2.247 3.454c-2.001 3.078-2.163 3.325-2.175 3.313-.016-.016.202-2.74.413-5.15a517.924 517.924 0 01.204-2.488l.169-2.044c.008-.114.099-1.212.201-2.44a3121.815 3121.815 0 00.593-7.163l.184-2.202a380.676 380.676 0 00.251-3.042c.042-.512.078-.801.102-.818a638.645 638.645 0 013.798-2.082l.621-.34a2254.44 2254.44 0 004.818-2.639 1905.583 1905.583 0 004.227-2.313l2.145-1.173a977.338 977.338 0 012.921-1.6c.325-.178.731-.399.902-.49.171-.093.353-.193.404-.224.105-.062.303-.171 1.041-.571.282-.153.723-.393.979-.534.257-.141.47-.256.473-.257.004 0-.179.289-.406.642z" fill="#E21D48"/><path d="M67.67 94.569v-11.07h-3.39v-1.52h8.39v1.52h-3.339v11.07h-1.662zm6.586 0v-12.59h4.414c.828 0 1.555.157 2.182.473a3.471 3.471 0 011.46 1.352c.358.586.537 1.273.537 2.061 0 .89-.224 1.645-.671 2.265-.448.62-1.052 1.065-1.813 1.335l2.904 5.104h-1.913L78.3 89.11l1.09.642H75.9v4.817h-1.645zm1.645-6.338h2.82c.492 0 .923-.095 1.292-.287a2.03 2.03 0 00.856-.828c.212-.36.319-.777.319-1.25 0-.485-.107-.902-.32-1.251a2.03 2.03 0 00-.855-.828c-.37-.192-.8-.288-1.292-.288H75.9v4.733zm15.213 6.541a6.502 6.502 0 01-2.484-.474 6.284 6.284 0 01-2.03-1.368 6.424 6.424 0 01-1.343-2.062 6.858 6.858 0 01-.487-2.603c0-.946.162-1.814.487-2.602a6.426 6.426 0 011.342-2.062 6.108 6.108 0 012.014-1.352 6.546 6.546 0 012.501-.473c.895 0 1.723.163 2.484.49a5.888 5.888 0 012.014 1.352 6.102 6.102 0 011.36 2.045c.335.788.503 1.656.503 2.602 0 .935-.168 1.803-.504 2.603a6.288 6.288 0 01-1.36 2.062 6.096 6.096 0 01-2.013 1.368 6.421 6.421 0 01-2.484.474zm0-1.538a4.71 4.71 0 001.896-.372 4.52 4.52 0 001.477-1.065 4.81 4.81 0 00.974-1.588 5.347 5.347 0 00.352-1.944c0-.687-.117-1.33-.352-1.926a4.634 4.634 0 00-.974-1.572 4.217 4.217 0 00-1.477-1.065 4.535 4.535 0 00-1.896-.388c-.683 0-1.31.13-1.88.388a4.385 4.385 0 00-1.493 1.065 4.99 4.99 0 00-.974 1.572 5.213 5.213 0 00-.352 1.926c0 .688.117 1.335.352 1.944.235.597.56 1.126.974 1.588.425.451.923.806 1.493 1.065.57.248 1.197.372 1.88.372zm8.76 1.335v-12.59h1.376l7.183 10.173-.621.068V81.979h1.662v12.59h-1.377l-7.149-10.241.57-.068v10.309h-1.644z" fill="#303030"/></svg>