<svg width="180" height="120" fill="none" xmlns="http://www.w3.org/2000/svg"><path d="M57.854 108.934a3.04 3.04 0 00-.363-.76 2.328 2.328 0 00-.53-.58 2.211 2.211 0 00-.692-.366 2.742 2.742 0 00-.851-.126c-.506 0-.967.132-1.381.395-.415.263-.744.651-.989 1.164-.245.512-.367 1.141-.367 1.886 0 .745.124 1.374.371 1.886.248.513.583.901 1.006 1.164.422.263.898.395 1.426.395.49 0 .921-.105 1.294-.315.375-.213.667-.513.876-.899.211-.39.317-.847.317-1.374l.317.067h-2.57v-.924h3.254v.924c0 .709-.15 1.325-.45 1.849-.298.523-.71.93-1.235 1.218-.523.286-1.124.428-1.803.428-.756 0-1.42-.179-1.994-.537-.57-.359-1.015-.868-1.335-1.529-.317-.661-.475-1.446-.475-2.353 0-.68.09-1.292.27-1.836a4.064 4.064 0 01.777-1.394 3.4 3.4 0 011.185-.883 3.647 3.647 0 011.506-.306c.45 0 .87.068 1.26.206a3.37 3.37 0 012.244 2.6h-1.068zm2.756 5.915v-6.453h.952v.975h.067c.117-.319.328-.579.634-.777.306-.199.65-.299 1.035-.299a10.396 10.396 0 01.517.017v1.008a2.855 2.855 0 00-.23-.037 2.2 2.2 0 00-.37-.03c-.312 0-.59.066-.835.198a1.48 1.48 0 00-.576.537 1.45 1.45 0 00-.209.778v4.083h-.984zm6.258.151c-.406 0-.775-.077-1.106-.231a1.901 1.901 0 01-.788-.676c-.195-.297-.292-.656-.292-1.076 0-.369.072-.669.217-.899.144-.232.338-.414.58-.546.241-.132.508-.23.8-.294.295-.067.592-.12.89-.16.389-.05.704-.088.946-.113.245-.028.423-.074.534-.139.114-.064.171-.176.171-.336v-.033c0-.415-.112-.737-.338-.967-.222-.229-.56-.344-1.013-.344-.47 0-.84.104-1.106.311-.267.207-.455.428-.563.664l-.935-.336c.167-.393.39-.698.668-.916.28-.222.587-.376.918-.462.333-.09.662-.135.984-.135.206 0 .442.025.71.076.27.047.53.147.78.298.253.151.463.38.63.685.166.305.25.714.25 1.226v4.252h-.985v-.874h-.05c-.067.14-.178.29-.334.45a1.935 1.935 0 01-.621.407c-.259.112-.575.168-.947.168zm.15-.891c.39 0 .718-.077.984-.231a1.57 1.57 0 00.818-1.365v-.907c-.041.05-.133.096-.275.138-.14.04-.3.075-.484.105-.18.028-.358.054-.53.076-.17.02-.307.036-.413.05a3.817 3.817 0 00-.718.164 1.24 1.24 0 00-.534.332c-.133.146-.2.345-.2.597 0 .344.127.605.38.781.256.174.58.26.972.26zm5.568-3.142v3.882h-.984v-6.453h.951v1.008h.084c.15-.327.378-.591.684-.789.306-.202.7-.303 1.184-.303.434 0 .814.09 1.14.269a1.8 1.8 0 01.759.807c.18.358.271.812.271 1.361v4.1h-.985v-4.033c0-.507-.13-.902-.392-1.185-.261-.285-.62-.428-1.076-.428a1.7 1.7 0 00-.843.206 1.467 1.467 0 00-.58.6c-.142.264-.213.583-.213.958zm8.675-2.571v.84h-3.32v-.84h3.32zm-2.353-1.546h.985V113c0 .28.04.491.12.631a.63.63 0 00.318.277c.13.045.268.067.413.067.108 0 .197-.006.267-.017l.167-.033.2.89c-.067.025-.16.051-.28.076-.12.028-.27.042-.454.042a1.96 1.96 0 01-.818-.181 1.626 1.626 0 01-.66-.55c-.172-.247-.258-.557-.258-.933v-6.419zm8.59 7.999l-1.952-6.453h1.034l1.385 4.94h.067l1.368-4.94h1.052l1.352 4.924h.066l1.385-4.924h1.035l-1.952 6.453h-.968l-1.402-4.957h-.1l-1.402 4.957h-.968zm8.094 0v-6.453h.984v6.453h-.984zm.5-7.528a.696.696 0 01-.496-.198.635.635 0 01-.205-.474c0-.185.069-.343.205-.475a.696.696 0 01.496-.198c.192 0 .356.066.493.198.139.132.208.29.208.475a.63.63 0 01-.208.474.682.682 0 01-.493.198zm3.272 3.646v3.882h-.984v-6.453h.95v1.008h.084a1.84 1.84 0 01.684-.789c.306-.202.701-.303 1.185-.303.434 0 .814.09 1.139.269a1.8 1.8 0 01.76.807c.18.358.271.812.271 1.361v4.1h-.985v-4.033c0-.507-.131-.902-.392-1.185-.261-.285-.62-.428-1.076-.428-.315 0-.596.068-.843.206a1.465 1.465 0 00-.58.6c-.142.264-.213.583-.213.958zm6.872 0v3.882h-.984v-6.453h.951v1.008h.084c.15-.327.378-.591.684-.789.306-.202.701-.303 1.185-.303.433 0 .813.09 1.139.269.325.176.578.445.759.807.181.358.271.812.271 1.361v4.1h-.985v-4.033c0-.507-.13-.902-.392-1.185-.261-.285-.62-.428-1.076-.428-.314 0-.595.068-.843.206a1.466 1.466 0 00-.58.6c-.142.264-.213.583-.213.958zm8.575 4.016c-.618 0-1.15-.137-1.598-.411a2.76 2.76 0 01-1.03-1.16c-.24-.498-.359-1.078-.359-1.739s.119-1.244.359-1.748a2.843 2.843 0 011.009-1.184c.434-.286.94-.429 1.519-.429.334 0 .663.056.989.168.325.112.621.294.888.546.267.25.48.58.638.992.159.411.238.918.238 1.52v.421h-4.939v-.857h3.938c0-.364-.072-.689-.217-.975a1.64 1.64 0 00-.609-.676 1.691 1.691 0 00-.926-.248c-.392 0-.732.098-1.018.294a1.925 1.925 0 00-.655.756c-.153.311-.23.644-.23 1v.571c0 .487.084.901.251 1.239.169.337.404.593.705.769.3.174.649.261 1.047.261.259 0 .492-.037.701-.11.211-.075.393-.187.546-.336.153-.151.271-.339.355-.563l.951.269c-.1.325-.268.611-.505.857a2.46 2.46 0 01-.876.572 3.234 3.234 0 01-1.172.201zm4.151-.134v-6.453h.951v.975h.067c.117-.319.328-.579.634-.777a1.857 1.857 0 011.035-.299 10.459 10.459 0 01.517.017v1.008a2.844 2.844 0 00-.229-.037 2.207 2.207 0 00-.372-.03 1.73 1.73 0 00-.834.198 1.482 1.482 0 00-.576.537 1.458 1.458 0 00-.208.778v4.083h-.985zm8.91-5.008l-.884.252a1.684 1.684 0 00-.246-.432 1.198 1.198 0 00-.434-.353c-.184-.093-.419-.139-.705-.139-.392 0-.719.091-.981.273-.258.179-.388.408-.388.685a.71.71 0 00.267.584c.178.143.456.262.835.357l.951.235c.573.14 1 .355 1.281.643.281.286.421.654.421 1.105 0 .37-.106.7-.317.991a2.104 2.104 0 01-.876.689c-.376.168-.812.252-1.31.252-.654 0-1.195-.143-1.623-.428-.428-.286-.699-.703-.814-1.252l.935-.235c.089.347.257.607.505.781.25.174.577.26.98.26.459 0 .823-.098 1.093-.294.273-.198.409-.436.409-.714a.757.757 0 00-.233-.563c-.156-.154-.395-.269-.718-.344l-1.068-.252c-.587-.14-1.018-.357-1.293-.651-.273-.297-.409-.668-.409-1.114 0-.364.101-.686.304-.966.206-.28.486-.5.839-.659a2.92 2.92 0 011.21-.24c.634 0 1.132.14 1.493.42.365.28.623.65.776 1.109z" fill="#717171"/><g opacity=".15" fill="#303030"><path d="M126.47 60.07h.89c.08 0 .242.08.323.08.404.08.889.323 1.375.485.485.161.889.403 1.293.646.405.242.809.403 1.051.565.243.161.405.242.405.242l-.081.08c-.081 0-.162.081-.324.081-.323.081-.727.162-1.132.243-.08 0-.242.08-.323.08-.162 0-.243 0-.404.081-.243 0-.485.08-.809.08a8.01 8.01 0 01-1.455-.16c-.89-.243-1.456-.808-1.86-1.212-.404-.484-.566-.807-.566-.807s.323-.162.809-.323c.161-.162.404-.162.808-.162zm-1.373-3.554c.243-.323.486-.646.728-.888.162-.161.324-.242.404-.404.081-.08.162-.08.243-.161.081-.08.162-.08.243-.162.242-.242.485-.403.727-.484.162-.162.324-.162.324-.162v.404c0 .242 0 .646-.081 1.05-.081.403-.162.888-.243 1.292-.162.404-.323.888-.566 1.21-.081.082-.081.162-.161.243l-.081.08-.081.082c-.162.161-.243.242-.405.323-.161.08-.242.161-.404.242-.161.08-.242.08-.404.161-.485.162-.809.081-.809.081s-.08-.404 0-.969c0-.323.081-.646.162-.969 0-.08.081-.161.081-.242 0-.08.081-.162.081-.242 0-.162.081-.323.242-.485zm6.873.969s.081-.08.162-.08a2.48 2.48 0 01.485-.324.617.617 0 01.404-.161c.162-.08.323-.08.485-.162.324-.08.728-.161 1.132-.161.243 0 .485 0 .728.08.242 0 .485.081.727.081.243 0 .486.081.728.162.243.08.485.08.728.161.485.081.889.162 1.132.243.323.08.485.08.485.08s-.162.081-.404.243c-.162.08-.243.161-.485.242-.081.08-.162.08-.243.161-.081.081-.162.081-.323.162a2.41 2.41 0 00-.647.323c-.081.08-.243.08-.324.161-.081 0-.081.081-.161.081-.081 0-.162 0-.162.08a4.57 4.57 0 01-1.456.243c-.97 0-1.697-.404-2.183-.727a3.553 3.553 0 01-.566-.484c-.242-.242-.323-.404-.242-.404-.081 0 0 0 0 0zm1.294-2.745c-.081.403-.323.726-.485.968-.081.162-.243.243-.324.324-.08.08-.242.161-.323.242-.242.161-.404.242-.566.242-.081 0-.162 0-.162.08h-.08s-.081-.08-.081-.241c-.081-.162-.081-.404-.162-.646-.081-.566-.162-1.292.081-2.02.081-.403.242-.726.485-1.049.162-.323.404-.646.647-.888.081-.162.242-.242.323-.404.081-.08.162-.242.243-.323l.242-.242s.081.161.081.404c.081.242.162.646.162 1.05 0 .242.081.403.081.645v.646c0 .243 0 .485-.081.646 0 .162 0 .404-.081.566zm5.091-2.342c.08-.161.242-.323.404-.484.162-.162.404-.404.728-.566.323-.161.646-.322 1.051-.484.161 0 .323-.08.485-.08.162 0 .323-.081.485-.081.809-.162 1.698-.162 2.426-.243.727 0 1.212-.08 1.212-.08s-.161.242-.485.565c-.242.323-.727.727-1.213 1.13-.08.08-.161.08-.242.162l-.081.08s-.081.081-.162.081c-.161.08-.323.242-.485.323l-.485.242c-.162.081-.323.162-.485.162-.889.242-1.698.08-2.264-.08-.566-.243-.889-.485-.889-.485s-.081-.081 0-.162zm-.241-1.049l-.405.403c-.161.08-.242.08-.242.08s-.243-.322-.566-.806c-.243-.485-.566-1.212-.566-2.02 0-.241 0-.564.081-.887 0-.162.081-.243.081-.404 0-.162.08-.242.08-.404.081-.242.162-.404.243-.646 0-.08.081-.08.081-.161s0-.081.081-.162c0-.08.081-.161.081-.242l.242-.485s.243.404.566.97l.243.484c0 .08.081.161.081.242 0 .08.08.162.08.242.162.323.243.727.324 1.13 0 .162.081.324.081.405v.403c0 .404-.081.727-.162 1.05-.081.323-.243.565-.404.808zm6.305-5.007h-.485c-.647 0-.97-.161-.97-.161s0-.08.081-.242c0-.081.081-.162.081-.243 0-.08.08-.161.161-.323.081-.242.243-.484.485-.726l.162-.162c.081-.08.162-.161.243-.161.161-.162.323-.243.485-.323.162-.081.404-.243.647-.323.242-.081.404-.243.647-.323.485-.162.97-.404 1.374-.485.404-.161.809-.323 1.132-.403l.485-.162s-.081.162-.161.404l-.243.484c-.081.162-.243.323-.323.565a2.454 2.454 0 01-.405.566c0 .08-.081.08-.081.161 0 .08-.08.08-.08.162-.081.08-.162.161-.243.323-.162.161-.323.403-.566.565l-.243.242c-.08.08-.161.162-.323.162-.404.242-.809.403-1.213.403-.323-.08-.485 0-.647 0zm-1.774-2.18c0 .323-.162.565-.243.807-.081.081-.081.243-.162.323-.081.081-.081.162-.161.243l-.162.161s-.324-.242-.728-.646c-.081-.08-.162-.242-.323-.323-.081-.161-.243-.242-.324-.403-.161-.323-.404-.646-.485-.97 0-.08-.081-.16-.081-.242 0-.08-.081-.161-.081-.323 0-.161-.08-.403-.08-.565v-1.13c0-.162 0-.323.08-.485v-.404c0-.242.081-.322.081-.322s.162.08.324.322l.727.727c.243.323.566.646.809 1.05.162.161.243.404.323.565.081.162.162.404.243.565.081.162.081.404.081.566v.403c.162 0 .162.081.162.081zm5.334-5.814c-.162.081-.324.243-.486.323-.323.162-.646.243-.97.323-.566.081-1.051.081-1.051.081s-.081-.323.081-.807c0-.162.081-.243.081-.404.081-.162.081-.323.161-.404l.243-.484c.081-.081.081-.162.162-.242l.081-.081.08-.081c.566-.646 1.537-1.292 2.264-1.776.405-.243.728-.485.971-.646.242-.162.404-.243.404-.243s0 .162-.081.485c-.081.323-.162.646-.242 1.13-.162.404-.324.889-.486 1.373-.08.08-.08.242-.161.323-.081.08-.162.242-.162.323-.162.242-.323.404-.404.565-.162-.08-.324.08-.485.242zm-3.64.485s-.404-.162-.889-.404c-.243-.161-.566-.323-.809-.565-.161-.08-.242-.242-.404-.404-.162-.161-.242-.323-.323-.484a1.688 1.688 0 00-.324-.485c-.08-.161-.161-.323-.242-.565a7.48 7.48 0 01-.324-1.05c-.08-.323-.161-.646-.161-.807v-.323s.161.08.404.161c.243.162.566.323.889.566.324.242.728.484 1.051.807.324.323.647.646.89.969l.242.484c.081.162.081.323.162.485 0 .161.081.323.081.484v.404c-.081.404-.243.727-.243.727zm4.53-11.143c0 .161-.081.404-.081.565-.081.404-.162.727-.324 1.05a5.032 5.032 0 01-.727.969c-.243.242-.566.404-.809.565-.566.242-.97.323-.97.323s0-.08-.081-.242c0-.162-.081-.323-.081-.565 0-.243 0-.566.081-.889.081-.323.162-.646.323-1.05.081-.16.162-.242.243-.403.081-.08.081-.162.162-.162.081-.08.081-.161.162-.161l.727-.969c.243-.323.485-.646.728-.888.404-.565.728-.888.728-.888s.08.242.08.726c0 .242.081.485.081.727v.888c-.161.081-.161.242-.242.404zm-6.957 2.422l-.162-.161-.161-.162c-.081-.08-.162-.242-.324-.323-.08-.08-.161-.242-.242-.323-.081-.161-.162-.242-.243-.323-.161-.161-.242-.403-.323-.565-.081-.08-.081-.161-.162-.242 0-.08-.081-.162-.162-.242l-.242-.485s.485.08 1.132.242c.162.081.323.081.485.162.162.08.323.08.566.161.323.162.728.323 1.051.485l.728.484c.323.243.566.566.647.808.161.323.242.565.242.807v.566c0 .161-.081.242-.081.242s-.404 0-.97-.162c-.485-.161-1.213-.404-1.779-.969zm3.559-7.993c-.162.323-.404.565-.647.807-.404.404-.808.565-.808.565l-.162-.161a3.932 3.932 0 01-.243-.565c-.08-.243-.161-.485-.242-.808v-.565c0-.162 0-.404.081-.565 0-.243.081-.404.161-.646 0-.081.081-.243.081-.323 0-.081.081-.243.081-.323a9.9 9.9 0 01.566-1.373c.081-.242.162-.404.243-.565l.242-.485c.081-.242.162-.403.162-.403s.081.161.243.403c.08.162.161.323.161.485.081.161.162.403.243.565 0 .08.081.242.081.323 0 .08.081.242.081.323.08.242.08.484.161.727 0 .242.081.484.081.726 0 .243 0 .485-.081.727a7.758 7.758 0 01-.485 1.13zm-6.144 1.211c-.162-.081-.323-.243-.485-.323-.162-.162-.323-.243-.404-.404l-.405-.404-.323-.323-.162-.161c-.081-.081-.081-.081-.081-.162l-.242-.242h1.455c.405 0 .89.08 1.375.162.081 0 .242.08.323.08.081 0 .243.081.324.081.242.08.404.162.646.242.162.08.324.162.486.323.161.08.242.242.404.323.242.242.404.485.485.727.081.242.162.404.162.565v.242s-.405.081-.971.081c-.323 0-.646 0-.97-.08-.323-.081-.728-.162-1.132-.324-.162-.161-.323-.323-.485-.403zm1.861-8.075a3.005 3.005 0 01-.404.888c-.324.485-.647.808-.647.808s-.324-.162-.647-.566c-.081-.08-.162-.242-.243-.323-.08-.161-.161-.242-.242-.403-.162-.323-.243-.646-.243-1.13-.081-.404 0-.889 0-1.373 0-.485.081-.97.162-1.454s.081-.807.162-1.13c.08-.242.081-.485.081-.485l.08.081.243.242c.162.242.404.566.728.889.242.403.485.807.727 1.291.162.485.324.97.405 1.373v.646c0 .323-.081.485-.162.646zM135.607 18c-.081 0-.162-.08-.323-.08-.081 0-.081 0-.162-.081-.081 0-.081 0-.162-.081-.404-.161-.727-.323-1.051-.484-.323-.162-.566-.323-.728-.404-.08-.08-.161-.08-.242-.162-.081 0-.081-.08-.081-.08l.081-.081c.081 0 .162-.08.323-.08.243-.082.647-.162 1.051-.324.243-.08.405-.08.647-.161.081 0 .243 0 .324-.081h1.698c.404.08.727.242 1.051.404.162.08.242.161.404.242.081.08.162.161.243.323.323.404.404.727.404.727s-.404.242-.97.322c-.324.081-.647.162-.971.162h-1.132s-.161 0-.404-.08zm-1.052-6.863a1.007 1.007 0 01-.162.242h-.08s-.081 0-.162-.08c-.162-.082-.324-.162-.566-.324a3.831 3.831 0 01-1.213-1.615c-.081-.242-.243-.565-.323-.888l-.243-1.211a25.764 25.764 0 00-.243-1.13c-.08-.646-.161-1.13-.161-1.13s.242.16.566.403c.161.161.404.242.566.404.242.161.404.403.647.565l.404.403.081.081.081.081c.08.08.08.161.161.242.243.323.405.646.566.97.081.241.162.403.162.645 0 .162.081.404.081.565 0 .404-.081.727-.081.97.081.484 0 .645-.081.807zm-5.335 2.341c-.242-.08-.485-.08-.647-.161-.242-.08-.404-.08-.566-.162-.323-.08-.485-.161-.485-.161s.324-.242.89-.646a5.38 5.38 0 01.97-.485 4.68 4.68 0 011.132-.403c.323-.081.566-.162.808-.162.809-.08 1.456.162 1.86.485.243.161.323.242.485.404.081.08.081.08.081.16v.082s-.081.08-.243.161c-.161.08-.323.242-.566.404a2.985 2.985 0 01-.889.404c-.162.08-.323.161-.566.161-.162.08-.404.08-.566.08-.566 0-1.132-.08-1.698-.16z"/><path d="M120.568 60.634c.161 0 .323-.08.566-.08.081 0 .242 0 .323-.081.162 0 .243-.081.404-.081.243-.08.566-.08.89-.162l.97-.242c.162 0 .324-.08.485-.08.162-.081.324-.081.485-.162.324-.08.728-.162 1.052-.323 1.455-.404 2.749-.97 3.8-1.454.242-.161.485-.242.647-.322.081-.081.161-.081.242-.162.081-.08.162-.08.243-.161.242-.162.404-.243.404-.243s.162-.08.404-.242c.243-.161.647-.404 1.132-.727.89-.565 2.103-1.453 3.235-2.422 1.132-.97 2.102-2.019 2.83-2.826.08-.081.161-.162.242-.323l.243-.242c.161-.162.242-.323.323-.404.081-.08.162-.242.243-.323l.081-.08s.08-.162.323-.405c.081-.161.243-.242.323-.484.162-.162.243-.404.405-.646.081-.08.161-.242.242-.323.081-.162.162-.242.243-.404.162-.242.323-.565.485-.807.162-.323.323-.566.485-.889.081-.08.081-.161.162-.242 0-.08.081-.161.081-.242l.242-.484c.566-1.292 1.132-2.665 1.375-3.715 0-.161.081-.242.081-.404 0-.08.081-.242.081-.323.08-.242.08-.403.161-.565.081-.323.081-.484.081-.484v-.162c0-.08 0-.242.081-.323 0-.161.081-.323.081-.565 0-.242.081-.484.162-.727 0-.242.08-.565.08-.888v-.969c.081-.646.081-1.373.081-2.1 0-.726 0-1.453-.081-2.099v-.968c0-.323-.08-.566-.08-.889 0-.242-.081-.484-.162-.727 0-.242-.081-.403-.081-.565 0-.161-.081-.242-.081-.323v-.161s-.081-.162-.081-.485c0-.161-.081-.323-.161-.565 0-.08-.081-.242-.081-.323 0-.08-.081-.242-.081-.404-.324-1.05-.809-2.341-1.375-3.714l-.242-.484c0-.081-.081-.162-.081-.243-.081-.08-.081-.161-.162-.242-.162-.323-.323-.646-.485-.888a7.104 7.104 0 00-.485-.808c-.081-.161-.162-.242-.243-.403a1.115 1.115 0 00-.242-.323c-.162-.242-.324-.404-.405-.646a1.707 1.707 0 01-.323-.485 2.952 2.952 0 00-.323-.403l-.081-.081c-.081-.08-.081-.162-.243-.323-.081-.162-.242-.242-.323-.404l-.243-.242a1.094 1.094 0 01-.242-.323c-.728-.808-1.698-1.857-2.83-2.826a33.506 33.506 0 00-3.235-2.423c-.485-.323-.889-.565-1.132-.726-.323-.162-.404-.243-.404-.243s-.162-.08-.404-.242c-.081 0-.162-.08-.243-.161-.081-.081-.161-.081-.242-.162-.081 0-.162-.08-.243-.08h-.728a4.918 4.918 0 01-2.021-.485 3.8 3.8 0 01-.97-.727c-.162-.161-.324-.242-.405-.404a153.83 153.83 0 00-.404-.403c-.242-.242-.404-.485-.566-.646l-.242-.242h1.778c.081 0 .243 0 .324.08.242 0 .485.081.728.162.485.08.889.242 1.293.484.324.162.647.404.89.646.242.242.323.485.404.727.081.242.162.404.162.565v.08h.081c.08.082.161.082.323.162.081.081.162.081.242.162.243.161.405.242.405.242l.485.242c.242.162.647.404 1.132.727.889.646 2.102 1.454 3.234 2.422 1.132.97 2.102 2.02 2.83 2.827.081.08.162.242.243.323l.242.242c.162.161.243.323.405.484.08.162.161.243.242.323l.081.081s.081.162.323.404c.081.161.243.323.324.484.162.162.242.404.404.646.081.081.162.242.243.323.081.162.161.242.242.404.162.242.324.565.485.807a8.9 8.9 0 00.486.889c.08.08.08.161.161.242 0 .08.081.161.081.242l.243.485c.647 1.291 1.132 2.664 1.374 3.714 0 .161.081.242.081.404 0 .08.081.242.081.323.081.242.081.403.162.565.081.323.081.484.081.484v.162c0 .08-.001.242.08.323 0 .161.081.323.081.565 0 .242.081.485.162.727 0 .242.081.565.081.888v.969c.081.646.081 1.373.081 2.1 0 .726 0 1.453-.081 2.099v.969c0 .323-.081.565-.081.888 0 .242-.081.484-.162.727 0 .242-.081.403-.081.565 0 .161-.08.242-.08.323v.161s-.081.162-.081.485c0 .161-.081.323-.162.565 0 .08-.081.242-.081.323 0 .08-.081.242-.081.404a36.247 36.247 0 01-1.374 3.714l-.243.484c0 .081-.081.162-.081.243-.081.08-.081.161-.161.242-.162.323-.324.646-.486.888-.161.323-.323.565-.485.808-.081.161-.161.242-.242.403a1.114 1.114 0 01-.243.323c-.162.243-.323.404-.404.646a1.689 1.689 0 00-.324.485 2.873 2.873 0 01-.323.404l-.081.08c-.081.081-.162.162-.242.323-.081.162-.243.243-.405.485l-.242.242c-.081.08-.162.161-.243.323a46.76 46.76 0 01-2.83 2.826 30.318 30.318 0 01-3.234 2.422c-.485.324-.89.566-1.132.727l-.485.242s-.162.081-.405.243c-.08 0-.161.08-.242.161-.081.081-.162.081-.323.162-.243.08-.405.242-.647.323a22.108 22.108 0 01-3.801 1.453c-.323.162-.727.242-1.051.323-.161.08-.323.08-.566.162-.161.08-.323.08-.485.08l-.97.243c-.324.08-.647.08-.89.161-.161 0-.242.08-.404.08-.162 0-.242 0-.323.082-.243 0-.405.08-.566.08-.324 0-.485.081-.485.081v-.242c-.081.323.161.323.485.242z"/><path d="M123.723 60.392s-3.881.969-4.771 4.602l.081-4.199 4.447-.565.243.162z"/></g><g opacity=".15" fill="#303030"><path d="M53.53 60.07h-.889c-.081 0-.243.08-.324.08-.404.08-.89.323-1.374.484-.486.162-.89.404-1.294.646-.404.243-.809.404-1.051.566a4.207 4.207 0 01-.405.242l.081.08c.081 0 .162.081.324.081.323.081.727.162 1.132.243.08 0 .242.08.323.08.162 0 .243 0 .404.081.243 0 .486.08.809.08.485 0 1.051-.08 1.455-.16.89-.243 1.456-.808 1.86-1.212.404-.484.566-.807.566-.807s-.323-.162-.809-.323c-.161-.162-.404-.162-.808-.162zm1.373-3.554c-.243-.323-.486-.646-.728-.888-.162-.161-.323-.242-.404-.404-.081-.08-.162-.08-.243-.161-.08-.081-.162-.081-.242-.162-.243-.242-.486-.404-.728-.484-.162-.162-.324-.162-.324-.162v.404c0 .242 0 .646.081 1.05.081.403.162.888.243 1.292.161.403.323.888.566 1.21.08.082.08.162.161.243l.081.08.081.082c.162.161.243.242.404.323.162.08.243.161.405.242.161.08.242.08.404.161.485.162.809.081.809.081s.08-.404 0-.969c0-.323-.081-.646-.162-.969 0-.08-.08-.161-.08-.242 0-.08-.082-.162-.082-.242 0-.162-.08-.323-.242-.485zm-6.873.969s-.08-.08-.162-.08a2.52 2.52 0 00-.485-.324.618.618 0 00-.404-.161c-.162-.08-.323-.08-.485-.162a4.775 4.775 0 00-1.132-.161c-.243 0-.485 0-.728.08-.242 0-.485.081-.727.081-.243 0-.486.081-.728.162-.243.08-.485.08-.728.161-.485.081-.89.162-1.132.243-.323.08-.485.08-.485.08s.162.081.404.243c.162.08.243.161.485.242.081.08.162.08.243.161.08.081.162.081.323.162.243.08.405.161.647.323.081.08.243.08.324.161.08 0 .08.081.161.081s.162 0 .162.08c.485.162.97.243 1.456.243.97 0 1.697-.404 2.183-.727.242-.161.404-.323.566-.484.242-.242.323-.404.242-.404.081 0 0 0 0 0zm-1.294-2.745c.08.403.323.726.485.968.08.162.243.243.324.324.08.08.242.161.323.242.242.161.404.242.566.242.08 0 .162 0 .162.08h.08s.081-.08.081-.241c.081-.162.081-.404.162-.646.08-.566.162-1.293-.08-2.02a2.503 2.503 0 00-.486-1.049 3.585 3.585 0 00-.647-.888c-.08-.162-.242-.242-.323-.404-.081-.08-.162-.242-.243-.323l-.242-.242s-.081.161-.081.404a3.573 3.573 0 00-.162 1.05c0 .242-.08.403-.08.645v.646c0 .243 0 .485.08.646 0 .162 0 .404.08.566zm-5.091-2.342c-.08-.161-.242-.323-.404-.484-.162-.162-.404-.404-.727-.566-.324-.161-.647-.323-1.052-.484-.161 0-.323-.08-.485-.08-.161 0-.323-.082-.485-.082-.808-.161-1.698-.161-2.426-.242-.727 0-1.213-.08-1.213-.08s.162.242.486.565c.242.323.727.726 1.212 1.13.081.08.162.08.243.162l.08.08s.082.081.163.081c.161.08.323.242.485.323l.485.242c.162.081.323.162.485.162.89.242 1.698.08 2.264-.08.566-.243.89-.485.89-.485s.08-.081 0-.162zm.241-1.05l.405.404c.161.08.242.08.242.08s.243-.322.566-.807c.243-.484.566-1.21.566-2.018 0-.242 0-.566-.08-.888 0-.162-.082-.243-.082-.404 0-.162-.08-.242-.08-.404-.081-.242-.162-.404-.243-.646 0-.08-.08-.08-.08-.161s0-.081-.082-.162c0-.08-.08-.161-.08-.242l-.243-.485s-.243.404-.566.97l-.243.484c0 .08-.08.161-.08.242 0 .08-.081.162-.081.242-.162.323-.243.727-.324 1.13 0 .162-.08.324-.08.404v.404c0 .404.08.727.161 1.05.08.323.243.565.404.807zm-6.306-5.006h.486c.647 0 .97-.161.97-.161s0-.081-.08-.242c0-.081-.082-.162-.082-.243 0-.08-.08-.161-.161-.323-.081-.242-.243-.484-.485-.726l-.162-.162c-.081-.08-.162-.161-.243-.161a1.653 1.653 0 00-.485-.323c-.162-.081-.404-.243-.647-.323-.242-.081-.404-.243-.647-.323-.485-.162-.97-.404-1.374-.485-.404-.161-.809-.323-1.132-.404l-.485-.161s.08.161.162.404l.242.484c.08.162.243.323.323.565.081.162.243.404.405.566 0 .08.08.08.08.161 0 .08.081.08.081.162.081.08.162.161.243.323.162.161.323.403.566.565l.243.242c.08.08.161.161.323.161.404.243.809.404 1.213.404.323-.08.485 0 .647 0zm1.775-2.18c0 .323.162.565.243.807.08.081.08.243.162.323.08.081.08.162.161.243l.162.161s.324-.242.728-.646c.08-.08.162-.242.323-.323.081-.161.243-.242.324-.403.161-.323.404-.646.485-.97 0-.08.08-.161.08-.242 0-.08.082-.161.082-.323 0-.161.08-.403.08-.565v-1.13c0-.162 0-.323-.08-.485v-.404c0-.242-.081-.323-.081-.323s-.162.081-.324.323l-.727.727c-.243.323-.566.646-.809 1.05-.162.161-.242.404-.323.565-.081.162-.162.404-.243.565-.08.162-.08.404-.08.566v.403c-.163 0-.163.081-.163.081zm-5.334-5.814c.162.081.324.243.486.323.323.162.646.243.97.323.566.081 1.051.081 1.051.081s.08-.323-.08-.807c0-.162-.082-.243-.082-.404-.08-.162-.08-.323-.161-.404l-.243-.484c-.08-.081-.08-.162-.162-.243l-.08-.08-.081-.081c-.567-.646-1.537-1.292-2.264-1.777-.405-.242-.728-.484-.97-.645-.243-.162-.405-.243-.405-.243s0 .162.08.485c.082.323.163.646.243 1.13.162.404.324.888.486 1.373.08.08.08.242.161.323.081.08.162.242.162.323.162.242.323.404.404.565.162-.08.324.08.485.242zm3.639.485s.405-.162.89-.404c.242-.162.566-.323.809-.565.161-.081.242-.242.404-.404.162-.161.242-.323.323-.484a1.69 1.69 0 01.324-.485c.08-.161.161-.323.242-.565.162-.404.243-.727.324-1.05.08-.323.161-.646.161-.807v-.323s-.161.08-.404.161c-.242.162-.566.323-.89.565-.323.243-.727.485-1.05.808-.324.323-.647.646-.89.969l-.242.484c-.081.162-.081.323-.162.485 0 .161-.081.323-.081.484v.404c.08.404.242.727.242.727zM31.131 27.69c0 .161.081.404.081.565.08.404.162.727.323 1.05.243.404.486.727.728.969.243.242.566.403.809.565.566.242.97.323.97.323s0-.08.08-.242c0-.162.082-.323.082-.566 0-.242 0-.565-.081-.888a7.484 7.484 0 00-.323-1.05c-.081-.16-.162-.242-.243-.403-.08-.08-.08-.162-.162-.162-.08-.08-.08-.161-.162-.161l-.727-.97c-.243-.322-.485-.645-.728-.887-.404-.566-.728-.888-.728-.888s-.08.242-.08.726c0 .242-.081.485-.081.727v.888c.161.08.161.242.242.404zm6.957 2.422l.161-.161.162-.162c.081-.08.162-.242.324-.323.08-.08.161-.242.242-.323.081-.161.162-.242.243-.323.162-.161.242-.404.323-.565.081-.08.081-.162.162-.242 0-.081.08-.162.162-.243l.242-.484s-.485.08-1.132.242c-.161.081-.323.081-.485.162-.162.08-.323.08-.566.161-.323.162-.728.323-1.051.485l-.728.484c-.323.242-.566.566-.647.808-.161.323-.242.565-.242.807V31c0 .162.08.243.08.243s.405 0 .97-.162c.486-.161 1.214-.404 1.78-.969zm-3.559-7.994c.162.323.404.566.647.808.404.404.808.565.808.565l.162-.161c.08-.162.162-.323.243-.566.08-.242.161-.484.242-.807v-.565c0-.162 0-.404-.08-.566 0-.242-.082-.403-.162-.646 0-.08-.081-.242-.081-.322 0-.081-.081-.243-.081-.323a9.845 9.845 0 00-.566-1.373 3.932 3.932 0 00-.243-.565l-.242-.485a3.381 3.381 0 00-.162-.404s-.08.162-.242.404c-.081.162-.162.323-.162.485-.081.161-.162.403-.243.565 0 .08-.08.242-.08.323 0 .08-.081.242-.081.323-.081.242-.081.484-.162.727 0 .242-.081.484-.081.726s0 .485.08.727c.163.485.324.808.486 1.13zm6.144 1.212c.162-.081.323-.243.485-.323.162-.162.323-.243.404-.404l.405-.404.323-.323.162-.161c.08-.081.08-.081.08-.162l.243-.242H41.32c-.404 0-.89.08-1.375.161-.08 0-.242.081-.323.081-.081 0-.243.08-.324.08-.242.082-.404.162-.647.243a1.7 1.7 0 00-.485.323c-.161.08-.242.242-.404.323-.242.242-.404.485-.485.727-.08.242-.162.404-.162.565v.242s.404.081.97.081c.324 0 .647 0 .97-.08.324-.081.728-.162 1.133-.324.161-.161.323-.323.485-.403zm-1.861-8.075c.08.323.243.646.404.888.324.485.647.808.647.808s.324-.162.647-.566c.08-.08.162-.242.243-.323.08-.161.161-.242.242-.403.162-.323.243-.646.243-1.13.08-.405 0-.889 0-1.373 0-.485-.081-.97-.162-1.454-.08-.484-.08-.807-.162-1.13-.08-.242-.08-.485-.08-.485l-.081.081-.243.242a5.894 5.894 0 01-.728.888c-.242.404-.485.808-.727 1.292-.162.485-.324.97-.405 1.373v.646c0 .323.081.485.162.646zM44.393 18c.08 0 .162-.08.323-.08.081 0 .081 0 .162-.081.08 0 .08 0 .162-.081.404-.162.727-.323 1.05-.485.324-.161.567-.322.728-.403.081-.081.162-.081.243-.162.081 0 .081-.08.081-.08l-.08-.081c-.082 0-.163-.081-.324-.081-.243-.08-.647-.162-1.051-.323-.243-.08-.405-.08-.647-.161-.081 0-.243 0-.324-.081h-1.698c-.404.08-.727.242-1.05.404-.163.08-.243.161-.405.242-.081.08-.162.161-.243.323-.323.403-.404.726-.404.726s.404.243.97.323c.324.081.647.162.97.162h1.133s.161 0 .404-.08zm1.052-6.863c.08.161.162.242.162.242h.08s.081 0 .162-.08c.162-.082.324-.162.566-.324.404-.323.89-.807 1.213-1.615.08-.242.243-.565.324-.888l.242-1.211c.08-.404.162-.808.243-1.13.08-.647.161-1.131.161-1.131s-.242.161-.566.404c-.161.161-.404.242-.566.403-.242.162-.404.404-.647.566l-.404.403-.08.081-.081.08c-.081.082-.081.162-.162.243-.243.323-.404.646-.566.97-.081.241-.162.403-.162.645 0 .162-.08.404-.08.565 0 .404.08.727.08.97-.08.484 0 .645.08.807zm5.335 2.341c.242-.08.485-.08.647-.161.242-.08.404-.08.566-.162a2.61 2.61 0 00.485-.161s-.324-.242-.89-.646a5.387 5.387 0 00-.97-.485 4.677 4.677 0 00-1.132-.403c-.323-.081-.566-.162-.808-.162-.809-.08-1.456.162-1.86.485a2.565 2.565 0 00-.485.403c-.081.081-.081.081-.081.162v.08s.08.081.242.162c.162.08.324.242.566.404.243.161.566.323.89.404.162.08.323.161.566.161.162.08.404.08.566.08.566 0 1.132-.08 1.698-.16z"/><path d="M59.432 60.634c-.162 0-.323-.08-.566-.08-.08 0-.242 0-.323-.082-.162 0-.243-.08-.404-.08-.243-.081-.566-.081-.89-.162l-.97-.242c-.162 0-.324-.08-.485-.08-.162-.081-.324-.081-.485-.162-.324-.08-.728-.162-1.052-.323-1.455-.404-2.749-.97-3.8-1.454-.242-.161-.485-.242-.647-.323-.08-.08-.161-.08-.242-.161-.081-.08-.162-.08-.243-.162-.242-.161-.404-.242-.404-.242s-.162-.08-.404-.242c-.243-.162-.647-.404-1.132-.727-.89-.565-2.103-1.453-3.235-2.422-1.132-.97-2.102-2.019-2.83-2.826a1.114 1.114 0 01-.242-.323l-.243-.242c-.161-.162-.242-.324-.323-.404-.081-.081-.162-.242-.243-.323l-.08-.081s-.081-.161-.324-.404c-.08-.161-.243-.242-.323-.484-.162-.162-.243-.404-.405-.646-.08-.08-.161-.242-.242-.323-.081-.162-.162-.242-.243-.404-.162-.242-.323-.565-.485-.807-.162-.323-.323-.566-.485-.889-.081-.08-.081-.161-.162-.242 0-.08-.08-.161-.08-.242l-.243-.484c-.566-1.293-1.132-2.665-1.375-3.715 0-.161-.08-.242-.08-.404 0-.08-.081-.242-.081-.323-.081-.242-.081-.403-.162-.565-.081-.323-.081-.484-.081-.484v-.162c0-.08 0-.242-.08-.323 0-.161-.082-.323-.082-.565 0-.242-.08-.484-.162-.727 0-.242-.08-.565-.08-.888v-.969c-.081-.646-.081-1.373-.081-2.1 0-.726 0-1.453.08-2.099v-.969c0-.323.081-.565.081-.888 0-.242.081-.484.162-.727 0-.242.081-.403.081-.565 0-.161.08-.242.08-.323v-.161s.082-.162.082-.485c0-.161.08-.323.161-.565 0-.08.081-.242.081-.323 0-.08.081-.242.081-.404.324-1.05.809-2.341 1.375-3.714l.242-.484c0-.081.081-.162.081-.243.081-.08.081-.161.162-.242.162-.323.323-.646.485-.888a7.11 7.11 0 01.485-.808c.081-.161.162-.242.243-.403a1.08 1.08 0 01.242-.323c.162-.243.324-.404.405-.646.161-.162.242-.323.323-.485.162-.242.323-.404.323-.404l.081-.08c.081-.081.081-.162.243-.323.08-.162.242-.242.323-.404l.243-.242c.08-.081.162-.162.242-.323.728-.808 1.698-1.857 2.83-2.826a33.592 33.592 0 013.235-2.423c.485-.323.89-.565 1.132-.726.323-.162.404-.243.404-.243s.162-.08.404-.242c.081 0 .162-.08.243-.161.08-.081.162-.081.242-.162.081 0 .162-.08.243-.08h.728c.566 0 1.374-.162 2.021-.485.324-.162.647-.404.97-.727.162-.161.324-.242.405-.404l.404-.403c.242-.243.404-.485.566-.646l.242-.242h-1.778c-.081 0-.243 0-.324.08-.242 0-.485.081-.727.162-.486.08-.89.242-1.294.484a3.587 3.587 0 00-.89.646c-.242.242-.323.485-.404.727-.08.242-.162.404-.162.565v.08h-.08c-.081.082-.162.082-.324.162-.08.081-.162.081-.242.162a4.302 4.302 0 01-.405.242l-.485.242c-.242.162-.647.404-1.132.727-.89.646-2.102 1.454-3.234 2.422-1.132.97-2.102 2.02-2.83 2.827-.081.08-.162.242-.243.322l-.242.243c-.162.161-.243.323-.405.484-.08.162-.161.242-.242.323l-.081.081s-.08.162-.323.404c-.081.161-.243.323-.324.484-.162.162-.242.404-.404.646-.081.08-.162.242-.243.323-.08.162-.161.242-.242.404-.162.242-.324.565-.485.807a8.9 8.9 0 01-.486.889c-.08.08-.08.161-.161.242 0 .08-.081.161-.081.242l-.243.484c-.646 1.293-1.132 2.665-1.374 3.715 0 .161-.081.242-.081.404 0 .08-.08.242-.08.323-.082.242-.082.403-.163.565-.08.323-.08.484-.08.484v.162c0 .08 0 .242-.081.323 0 .161-.081.323-.081.565 0 .242-.081.485-.162.727 0 .242-.08.565-.08.888v.969c-.082.646-.082 1.372-.082 2.1 0 .726 0 1.453.081 2.099v.969c0 .323.081.565.081.888 0 .242.08.484.162.727 0 .242.08.403.08.565 0 .161.081.242.081.323v.161s.081.162.081.485c0 .161.081.323.162.565 0 .08.08.242.08.323 0 .08.082.242.082.404.323 1.05.808 2.422 1.374 3.714l.243.484c0 .081.08.162.08.243.082.08.082.161.163.242.161.323.323.646.485.888.161.323.323.565.485.808.08.161.161.242.242.403.081.162.162.243.243.323.162.243.323.404.404.646.162.162.243.323.324.485.161.242.323.404.323.404l.08.08c.082.081.163.162.243.323.081.162.243.242.405.485l.242.242c.081.08.162.161.243.323a46.76 46.76 0 002.83 2.826c1.132.969 2.345 1.857 3.234 2.422.485.324.89.566 1.132.727l.485.242s.162.081.404.243c.081 0 .162.08.243.161.08.08.162.08.324.162.242.08.404.242.646.323a22.08 22.08 0 003.8 1.453c.324.162.728.242 1.052.323.161.08.323.08.566.162.161.08.323.08.485.08l.97.243c.324.08.647.08.89.161.161 0 .242.08.404.08.162 0 .242 0 .323.081.243 0 .404.081.566.081.324 0 .485.081.485.081v-.242c.081.323-.161.323-.485.242z"/><path d="M56.277 60.392s3.881.969 4.77 4.602l-.08-4.199-4.447-.565-.243.162z"/></g><path d="M64.379 94.569l-3.508-12.59H62.6l2.937 11.086h-.403l3.055-11.086h1.728l3.038 11.086h-.42l2.954-11.086h1.729l-3.508 12.59h-1.83l-3.054-11.036h.437L66.208 94.57h-1.83zm12.538 0l4.48-12.59h1.948l4.48 12.59h-1.761L85.04 91.61h-5.337l-1.024 2.958h-1.762zm3.306-4.478h4.297l-2.384-6.913h.47l-2.383 6.913zm11.567 4.478l-4.515-12.59h1.762l3.827 11.069h-.353l3.827-11.07H98.1l-4.498 12.59H91.79zm7.888 0v-12.59h8.14v1.52h-6.495v3.989h6.159v1.52h-6.159v4.04h6.495v1.52h-8.14zm14.474.203a5.317 5.317 0 01-2.181-.44 5.007 5.007 0 01-1.679-1.233 4.749 4.749 0 01-.99-1.741l1.427-.592c.302.812.749 1.437 1.342 1.876.605.428 1.309.642 2.115.642.492 0 .923-.078 1.292-.236.37-.158.655-.377.856-.66.213-.292.319-.63.319-1.013 0-.53-.151-.947-.453-1.25-.291-.316-.722-.553-1.292-.71l-2.3-.71c-.906-.282-1.6-.727-2.081-1.335a3.284 3.284 0 01-.721-2.096c0-.687.162-1.29.486-1.808a3.41 3.41 0 011.377-1.234c.593-.304 1.264-.456 2.013-.456.75 0 1.427.135 2.031.405a4.6 4.6 0 011.561 1.099c.425.45.739.969.94 1.555l-1.41.591c-.268-.71-.671-1.245-1.208-1.605-.537-.372-1.169-.558-1.897-.558a2.85 2.85 0 00-1.191.236 1.749 1.749 0 00-.789.66c-.179.281-.269.62-.269 1.014 0 .462.146.873.437 1.233.291.36.733.637 1.326.828l2.097.626c.985.304 1.729.738 2.233 1.301.503.563.755 1.262.755 2.096 0 .687-.179 1.295-.537 1.825-.347.53-.834.946-1.46 1.25-.616.293-1.332.44-2.149.44z" fill="#303030"/><path d="M90.42 7.935l27.295 27.484L90.42 62.904 63.125 35.42 90.42 7.935z" fill="#386CF6"/></svg>