<svg width="180" height="120" viewBox="0 0 180 120" fill="none" xmlns="http://www.w3.org/2000/svg">
<path fill-rule="evenodd" clip-rule="evenodd" d="M115.342 14.2502L115.657 16.1704C115.905 17.9567 116.02 19.7592 116.001 21.5629C115.999 25.5487 115.522 29.5198 114.581 33.391C113.307 38.6502 111.089 43.6299 108.037 48.0836C104.509 53.1984 99.409 58.2291 91.9745 62.2714L91.065 62.7656L90.1555 62.2714C82.7209 58.2291 77.6228 53.1984 74.0932 48.0836C71.0407 43.6298 68.8228 38.6502 67.5494 33.391C66.6081 29.5205 66.1311 25.5501 66.1289 21.565C66.1096 19.7613 66.2247 17.9588 66.4731 16.1725L66.788 14.2523C66.8149 14.0957 66.8108 13.9353 66.7759 13.7803C66.7411 13.6254 66.6761 13.4789 66.5848 13.3493C66.4935 13.2197 66.3777 13.1097 66.244 13.0255C66.1103 12.9412 65.9615 12.8845 65.8059 12.8586C65.6504 12.8326 65.4914 12.838 65.3379 12.8743C65.1844 12.9106 65.0396 12.9772 64.9118 13.0702C64.784 13.1632 64.6757 13.2808 64.5931 13.4162C64.5106 13.5515 64.4554 13.7021 64.4309 13.859L64.1159 15.7792C63.8449 17.6954 63.7187 19.6295 63.7383 21.565C63.7398 25.7464 64.2399 29.9125 65.2277 33.9735C66.5724 39.5194 68.9133 44.7699 72.1345 49.4653C75.858 54.8683 81.2587 60.1809 89.0311 64.3977L90.508 65.199C90.682 65.2938 90.8766 65.3434 91.0744 65.3434C91.2721 65.3434 91.4667 65.2938 91.6407 65.199L93.1155 64.3977C100.88 60.1788 106.282 54.8683 110.012 49.4653C113.232 44.7703 115.571 39.5205 116.915 33.9757C117.903 29.9146 118.403 25.7485 118.404 21.5671C118.424 19.6316 118.297 17.6975 118.027 15.7813L117.712 13.8612C117.687 13.7042 117.632 13.5536 117.549 13.4183C117.467 13.2829 117.358 13.1653 117.231 13.0723C117.103 12.9793 116.958 12.9127 116.805 12.8764C116.651 12.8401 116.492 12.8347 116.337 12.8607C116.181 12.8866 116.032 12.9433 115.898 13.0276C115.765 13.1118 115.649 13.2218 115.558 13.3514C115.466 13.481 115.401 13.6275 115.367 13.7824C115.332 13.9374 115.328 14.0978 115.354 14.2544L115.342 14.2502Z" fill="#DB665E"/>
<path fill-rule="evenodd" clip-rule="evenodd" d="M73.322 12.9415L91.0739 7.47333L109.222 13.0593C109.526 13.1509 109.853 13.1174 110.133 12.9661C110.412 12.8149 110.621 12.5582 110.713 12.2523C110.805 11.9464 110.773 11.6161 110.624 11.3338C110.476 11.0514 110.222 10.84 109.919 10.7458L91.4222 5.05261C91.1952 4.98246 90.9525 4.98246 90.7255 5.05261L72.6232 10.6238C72.4719 10.6694 72.331 10.7447 72.2087 10.8453C72.0863 10.946 71.9849 11.07 71.9102 11.2102C71.8355 11.3505 71.789 11.5042 71.7734 11.6626C71.7578 11.821 71.7734 11.981 71.8193 12.1333C71.8652 12.2856 71.9404 12.4273 72.0408 12.5502C72.1411 12.6732 72.2645 12.7749 72.4039 12.8496C72.5434 12.9243 72.696 12.9705 72.8532 12.9855C73.0104 13.0006 73.169 12.9842 73.3199 12.9373L73.322 12.9415Z" fill="#DB665E"/>
<path fill-rule="evenodd" clip-rule="evenodd" d="M64.5499 14.6026L89.9992 64.6827C90.0984 64.8784 90.2489 65.043 90.4343 65.1586C90.6198 65.2741 90.8331 65.3363 91.0511 65.3382C91.2691 65.3402 91.4835 65.2819 91.6709 65.1696C91.8584 65.0574 92.0117 64.8955 92.1144 64.7016L107.634 35.4363L107.657 35.3901L117.591 14.5689C117.725 14.2816 117.742 13.9523 117.637 13.6526C117.532 13.3529 117.314 13.107 117.031 12.9685C116.747 12.8299 116.421 12.8098 116.122 12.9126C115.824 13.0154 115.578 13.2327 115.438 13.5173L105.521 34.3217L91.0985 61.5364L66.6755 13.5005C66.6052 13.3579 66.5074 13.2308 66.3879 13.1265C66.2685 13.0222 66.1297 12.9429 65.9796 12.8931C65.8295 12.8433 65.6711 12.8241 65.5135 12.8365C65.356 12.8488 65.2025 12.8926 65.0619 12.9652C64.9212 13.0379 64.7963 13.1379 64.6943 13.2596C64.5923 13.3813 64.5153 13.5221 64.4676 13.674C64.42 13.8259 64.4028 13.9858 64.4169 14.1445C64.431 14.3032 64.4762 14.4574 64.5499 14.5984V14.6026Z" fill="#DB665E"/>
<path fill-rule="evenodd" clip-rule="evenodd" d="M78.0059 37.0633H105.638C105.947 37.0633 106.244 36.9143 106.463 36.649C106.681 36.3837 106.804 36.0239 106.804 35.6487C106.804 35.2736 106.681 34.9138 106.463 34.6485C106.244 34.3832 105.947 34.2342 105.638 34.2342H78.0059C77.6966 34.2342 77.4 34.3832 77.1814 34.6485C76.9627 34.9138 76.8398 35.2736 76.8398 35.6487C76.8398 36.0239 76.9627 36.3837 77.1814 36.649C77.4 36.9143 77.6966 37.0633 78.0059 37.0633Z" fill="#DB665E"/>
<path d="M71.3145 114.866V106.261H74.2015C74.869 106.261 75.4169 106.376 75.8452 106.605C76.2735 106.832 76.5906 107.144 76.7964 107.542C77.0022 107.94 77.1051 108.392 77.1051 108.899C77.1051 109.406 77.0022 109.856 76.7964 110.248C76.5906 110.64 76.2749 110.948 75.8494 111.172C75.4238 111.394 74.8801 111.504 74.2181 111.504H71.8818V110.563H74.1848C74.6409 110.563 75.008 110.496 75.2862 110.361C75.5671 110.227 75.7701 110.037 75.8953 109.79C76.0232 109.541 76.0872 109.244 76.0872 108.899C76.0872 108.555 76.0232 108.254 75.8953 107.996C75.7673 107.738 75.5629 107.539 75.282 107.399C75.0011 107.256 74.6298 107.185 74.1681 107.185H72.3491V114.866H71.3145ZM75.3362 111L77.4389 114.866H76.2374L74.1681 111H75.3362Z" fill="#717171"/>
<path d="M81.3136 115C80.6962 115 80.1635 114.863 79.7157 114.588C79.2707 114.311 78.9272 113.924 78.6853 113.429C78.4461 112.93 78.3265 112.35 78.3265 111.689C78.3265 111.028 78.4461 110.446 78.6853 109.941C78.9272 109.434 79.2638 109.039 79.6949 108.756C80.1288 108.471 80.635 108.328 81.2135 108.328C81.5472 108.328 81.8768 108.384 82.2022 108.496C82.5277 108.608 82.8239 108.79 83.0909 109.042C83.3579 109.291 83.5706 109.622 83.7292 110.034C83.8877 110.446 83.967 110.952 83.967 111.555V111.975H79.0274V111.118H82.9657C82.9657 110.754 82.8934 110.429 82.7488 110.143C82.6069 109.857 82.4039 109.632 82.1397 109.467C81.8782 109.301 81.5695 109.219 81.2135 109.219C80.8213 109.219 80.482 109.317 80.1955 109.513C79.9118 109.706 79.6935 109.958 79.5405 110.269C79.3876 110.58 79.3111 110.913 79.3111 111.269V111.84C79.3111 112.328 79.3945 112.741 79.5614 113.08C79.731 113.416 79.9661 113.672 80.2664 113.849C80.5668 114.022 80.9159 114.109 81.3136 114.109C81.5723 114.109 81.8059 114.073 82.0145 114C82.2259 113.924 82.4081 113.812 82.561 113.664C82.714 113.513 82.8322 113.325 82.9156 113.101L83.8669 113.37C83.7667 113.695 83.5985 113.98 83.362 114.227C83.1256 114.471 82.8336 114.661 82.4859 114.798C82.1383 114.933 81.7475 115 81.3136 115Z" fill="#717171"/>
<path d="M90.5097 108.412L88.14 114.866H87.1387L84.769 108.412H85.8371L87.606 113.555H87.6727L89.4416 108.412H90.5097Z" fill="#717171"/>
<path d="M91.8092 114.866V108.412H92.7938V114.866H91.8092ZM92.3099 107.336C92.118 107.336 91.9525 107.271 91.8134 107.139C91.6771 107.007 91.609 106.849 91.609 106.664C91.609 106.479 91.6771 106.321 91.8134 106.189C91.9525 106.058 92.118 105.992 92.3099 105.992C92.5018 105.992 92.6659 106.058 92.8022 106.189C92.9412 106.321 93.0108 106.479 93.0108 106.664C93.0108 106.849 92.9412 107.007 92.8022 107.139C92.6659 107.271 92.5018 107.336 92.3099 107.336Z" fill="#717171"/>
<path d="M97.2839 115C96.6664 115 96.1338 114.863 95.686 114.588C95.241 114.311 94.8975 113.924 94.6556 113.429C94.4164 112.93 94.2968 112.35 94.2968 111.689C94.2968 111.028 94.4164 110.446 94.6556 109.941C94.8975 109.434 95.2341 109.039 95.6652 108.756C96.0991 108.471 96.6052 108.328 97.1838 108.328C97.5175 108.328 97.8471 108.384 98.1725 108.496C98.4979 108.608 98.7941 108.79 99.0611 109.042C99.3282 109.291 99.5409 109.622 99.6995 110.034C99.858 110.446 99.9373 110.952 99.9373 111.555V111.975H94.9977V111.118H98.936C98.936 110.754 98.8637 110.429 98.719 110.143C98.5772 109.857 98.3742 109.632 98.1099 109.467C97.8485 109.301 97.5398 109.219 97.1838 109.219C96.7916 109.219 96.4523 109.317 96.1658 109.513C95.8821 109.706 95.6638 109.958 95.5108 110.269C95.3578 110.58 95.2813 110.913 95.2813 111.269V111.84C95.2813 112.328 95.3648 112.741 95.5317 113.08C95.7013 113.416 95.9363 113.672 96.2367 113.849C96.5371 114.022 96.8862 114.109 97.2839 114.109C97.5426 114.109 97.7762 114.073 97.9848 114C98.1962 113.924 98.3783 113.812 98.5313 113.664C98.6843 113.513 98.8025 113.325 98.8859 113.101L99.8371 113.37C99.737 113.695 99.5687 113.98 99.3323 114.227C99.0959 114.471 98.8039 114.661 98.4562 114.798C98.1085 114.933 97.7178 115 97.2839 115Z" fill="#717171"/>
<path d="M102.887 114.866L100.934 108.412H101.969L103.354 113.353H103.421L104.789 108.412H105.841L107.192 113.336H107.259L108.644 108.412H109.679L107.726 114.866H106.758L105.357 109.908H105.257L103.855 114.866H102.887Z" fill="#717171"/>
<g opacity="0.15">
<path d="M126.47 60.0774C126.632 60.0774 126.794 60.0774 127.036 60.0774C127.117 60.0774 127.117 60.0774 127.198 60.0774C127.279 60.0774 127.279 60.0774 127.36 60.0774C127.44 60.0774 127.602 60.1582 127.683 60.1582C128.087 60.2389 128.572 60.4812 129.058 60.6427C129.543 60.8042 129.947 61.0465 130.351 61.2888C130.756 61.531 131.16 61.6926 131.402 61.8541C131.645 62.0156 131.807 62.0964 131.807 62.0964C131.807 62.0964 131.807 62.0964 131.726 62.1771C131.645 62.1771 131.564 62.2579 131.402 62.2579C131.079 62.3386 130.675 62.4194 130.27 62.5002C130.19 62.5002 130.028 62.5809 129.947 62.5809C129.785 62.5809 129.704 62.5809 129.543 62.6617C129.3 62.6617 129.058 62.7424 128.734 62.7424C128.249 62.7424 127.683 62.6617 127.279 62.5809C126.389 62.3386 125.823 61.7733 125.419 61.3695C125.015 60.885 124.853 60.5619 124.853 60.5619C124.853 60.5619 125.176 60.4004 125.662 60.2389C125.823 60.0774 126.066 60.0774 126.47 60.0774Z" fill="#303030"/>
<path d="M125.097 56.5241C125.34 56.2011 125.583 55.8781 125.825 55.6358C125.987 55.4743 126.149 55.3935 126.229 55.232C126.31 55.1512 126.391 55.1512 126.472 55.0705C126.553 54.9897 126.634 54.9897 126.715 54.9089C126.957 54.6667 127.2 54.5052 127.442 54.4244C127.604 54.2629 127.766 54.2629 127.766 54.2629C127.766 54.2629 127.766 54.4244 127.766 54.6667C127.766 54.9089 127.766 55.3127 127.685 55.7165C127.604 56.1203 127.523 56.6049 127.442 57.0087C127.28 57.4125 127.119 57.897 126.876 58.2201C126.795 58.3008 126.795 58.3816 126.715 58.4623L126.634 58.5431L126.553 58.6238C126.391 58.7854 126.31 58.8661 126.148 58.9469C125.987 59.0276 125.906 59.1084 125.744 59.1892C125.583 59.2699 125.502 59.2699 125.34 59.3507C124.855 59.5122 124.531 59.4314 124.531 59.4314C124.531 59.4314 124.451 59.0276 124.531 58.4623C124.531 58.1393 124.612 57.8163 124.693 57.4932C124.693 57.4125 124.774 57.3317 124.774 57.2509C124.774 57.1702 124.855 57.0894 124.855 57.0087C124.855 56.8472 124.936 56.6856 125.097 56.5241Z" fill="#303030"/>
<path d="M131.97 57.4931C131.97 57.4931 132.051 57.4123 132.132 57.4123C132.212 57.3316 132.455 57.17 132.617 57.0893C132.698 57.0085 132.859 56.9278 133.021 56.9278C133.183 56.847 133.344 56.847 133.506 56.7663C133.83 56.6855 134.234 56.6047 134.638 56.6047C134.881 56.6047 135.123 56.6047 135.366 56.6855C135.608 56.6855 135.851 56.7663 136.093 56.7663C136.336 56.7663 136.579 56.847 136.821 56.9278C137.064 57.0085 137.306 57.0085 137.549 57.0893C138.034 57.17 138.438 57.2508 138.681 57.3316C139.004 57.4123 139.166 57.4123 139.166 57.4123C139.166 57.4123 139.004 57.4931 138.762 57.6546C138.6 57.7354 138.519 57.8161 138.277 57.8969C138.196 57.9776 138.115 57.9776 138.034 58.0584C137.953 58.1391 137.872 58.1391 137.711 58.2199C137.468 58.3007 137.306 58.3814 137.064 58.5429C136.983 58.6237 136.821 58.6237 136.74 58.7045C136.659 58.7045 136.659 58.7852 136.579 58.7852C136.498 58.7852 136.417 58.7852 136.417 58.866C135.932 59.0275 135.447 59.1083 134.961 59.1083C133.991 59.1083 133.264 58.7045 132.778 58.3814C132.536 58.2199 132.374 58.0584 132.212 57.8969C131.97 57.6546 131.889 57.4931 131.97 57.4931C131.889 57.4931 131.97 57.4931 131.97 57.4931Z" fill="#303030"/>
<path d="M133.264 54.7471C133.183 55.1509 132.941 55.474 132.779 55.7163C132.698 55.8778 132.536 55.9585 132.455 56.0393C132.375 56.12 132.213 56.2008 132.132 56.2816C131.89 56.4431 131.728 56.5238 131.566 56.5238C131.485 56.5238 131.404 56.5238 131.404 56.6046C131.324 56.6046 131.324 56.6046 131.324 56.6046C131.324 56.6046 131.243 56.5238 131.243 56.3623C131.162 56.2008 131.162 55.9585 131.081 55.7163C131 55.1509 130.919 54.4241 131.162 53.6973C131.243 53.2935 131.404 52.9705 131.647 52.6474C131.809 52.3244 132.051 52.0014 132.294 51.7591C132.375 51.5976 132.536 51.5168 132.617 51.3553C132.698 51.2745 132.779 51.113 132.86 51.0323C133.021 50.8707 133.102 50.79 133.102 50.79C133.102 50.79 133.183 50.9515 133.183 51.1938C133.264 51.436 133.345 51.8398 133.345 52.2436C133.345 52.4859 133.426 52.6474 133.426 52.8897C133.426 53.132 133.426 53.3743 133.426 53.5358C133.426 53.778 133.426 54.0203 133.345 54.1818C133.345 54.3434 133.345 54.5856 133.264 54.7471Z" fill="#303030"/>
<path d="M138.355 52.4054C138.435 52.2439 138.597 52.0824 138.759 51.9209C138.921 51.7594 139.163 51.5171 139.487 51.3556C139.81 51.1941 140.133 51.0325 140.538 50.871C140.699 50.871 140.861 50.7903 141.023 50.7903C141.185 50.7903 141.346 50.7095 141.508 50.7095C142.317 50.548 143.206 50.548 143.934 50.4672C144.661 50.4672 145.146 50.3865 145.146 50.3865C145.146 50.3865 144.985 50.6288 144.661 50.9518C144.419 51.2748 143.934 51.6786 143.448 52.0824C143.368 52.1632 143.287 52.1632 143.206 52.2439L143.125 52.3247C143.125 52.3247 143.044 52.4054 142.963 52.4054C142.802 52.4862 142.64 52.6477 142.478 52.7285C142.317 52.8092 142.155 52.89 141.993 52.9708C141.831 53.0515 141.67 53.1323 141.508 53.1323C140.619 53.3745 139.81 53.213 139.244 53.0515C138.678 52.8092 138.355 52.567 138.355 52.567C138.355 52.567 138.274 52.4862 138.355 52.4054Z" fill="#303030"/>
<path d="M138.114 51.3554C137.952 51.5169 137.79 51.6784 137.709 51.7592C137.548 51.8399 137.467 51.8399 137.467 51.8399C137.467 51.8399 137.224 51.5169 136.901 51.0323C136.658 50.5478 136.335 49.821 136.335 49.0134C136.335 48.7711 136.335 48.4481 136.416 48.125C136.416 47.9635 136.497 47.8828 136.497 47.7212C136.497 47.5597 136.577 47.479 136.577 47.3175C136.658 47.0752 136.739 46.9137 136.82 46.6714C136.82 46.5906 136.901 46.5906 136.901 46.5099C136.901 46.4291 136.901 46.4291 136.982 46.3483C136.982 46.2676 137.063 46.1868 137.063 46.1061C137.224 45.783 137.305 45.6215 137.305 45.6215C137.305 45.6215 137.548 46.0253 137.871 46.5906C137.952 46.7521 138.033 46.9137 138.114 47.0752C138.114 47.1559 138.195 47.2367 138.195 47.3175C138.195 47.3982 138.275 47.479 138.275 47.5597C138.437 47.8828 138.518 48.2866 138.599 48.6903C138.599 48.8519 138.68 49.0134 138.68 49.0941C138.68 49.2557 138.68 49.3364 138.68 49.4979C138.68 49.9017 138.599 50.2248 138.518 50.5478C138.437 50.8708 138.275 51.1131 138.114 51.3554Z" fill="#303030"/>
<path d="M144.419 46.3484C144.258 46.3484 144.096 46.3484 143.934 46.3484C143.287 46.3484 142.964 46.1869 142.964 46.1869C142.964 46.1869 142.964 46.1061 143.045 45.9446C143.045 45.8639 143.126 45.7831 143.126 45.7024C143.126 45.6216 143.206 45.5408 143.287 45.3793C143.368 45.137 143.53 44.8948 143.772 44.6525C143.853 44.5717 143.853 44.5717 143.934 44.491C144.015 44.4102 144.096 44.3295 144.177 44.3295C144.338 44.1679 144.5 44.0872 144.662 44.0064C144.824 43.9257 145.066 43.7641 145.309 43.6834C145.551 43.6026 145.713 43.4411 145.956 43.3603C146.441 43.1988 146.926 42.9566 147.33 42.8758C147.734 42.7143 148.139 42.5528 148.462 42.472C148.705 42.3912 148.947 42.3105 148.947 42.3105C148.947 42.3105 148.866 42.472 148.786 42.7143C148.705 42.8758 148.624 43.0373 148.543 43.1988C148.462 43.3603 148.3 43.5219 148.22 43.7641C148.139 43.9257 147.977 44.1679 147.815 44.3295C147.815 44.4102 147.734 44.4102 147.734 44.491C147.734 44.5717 147.654 44.5717 147.654 44.6525C147.573 44.7332 147.492 44.814 147.411 44.9755C147.249 45.137 147.088 45.3793 146.845 45.5408C146.764 45.6216 146.683 45.7023 146.602 45.7831C146.522 45.8639 146.441 45.9446 146.279 45.9446C145.875 46.1869 145.47 46.3484 145.066 46.3484C144.743 46.2677 144.581 46.3484 144.419 46.3484Z" fill="#303030"/>
<path d="M142.645 44.1679C142.645 44.4909 142.483 44.7332 142.402 44.9755C142.321 45.0562 142.321 45.2178 142.24 45.2985C142.159 45.3793 142.159 45.46 142.079 45.5408C141.998 45.6216 141.917 45.7023 141.917 45.7023C141.917 45.7023 141.593 45.46 141.189 45.0562C141.108 44.9755 141.027 44.814 140.866 44.7332C140.785 44.5717 140.623 44.4909 140.542 44.3294C140.381 44.0064 140.138 43.6834 140.057 43.3603C140.057 43.2796 139.976 43.1988 139.976 43.118C139.976 43.0373 139.895 42.9565 139.895 42.795C139.895 42.6335 139.815 42.3912 139.815 42.2297C139.815 41.8259 139.815 41.4221 139.815 41.0991C139.815 40.9376 139.815 40.776 139.895 40.6145C139.895 40.453 139.895 40.3722 139.895 40.2107C139.895 39.9685 139.976 39.8877 139.976 39.8877C139.976 39.8877 140.138 39.9685 140.3 40.2107C140.461 40.3722 140.785 40.6953 141.027 40.9376C141.27 41.2606 141.593 41.5836 141.836 41.9874C141.998 42.1489 142.079 42.3912 142.159 42.5527C142.24 42.7142 142.321 42.9565 142.402 43.118C142.483 43.2796 142.483 43.5218 142.483 43.6834C142.483 43.7641 142.483 43.8449 142.483 43.9256C142.483 44.0064 142.483 44.0064 142.483 44.0871C142.645 44.0871 142.645 44.1679 142.645 44.1679Z" fill="#303030"/>
<path d="M147.979 38.3534C147.817 38.4342 147.655 38.5957 147.493 38.6764C147.17 38.838 146.847 38.9187 146.523 38.9995C145.957 39.0802 145.472 39.0802 145.472 39.0802C145.472 39.0802 145.391 38.7572 145.553 38.2727C145.553 38.1111 145.634 38.0304 145.634 37.8689C145.715 37.7073 145.715 37.5458 145.795 37.4651C145.876 37.3035 145.957 37.142 146.038 36.9805C146.119 36.8998 146.119 36.819 146.2 36.7382L146.281 36.6575L146.361 36.5767C146.927 35.9306 147.898 35.2846 148.625 34.8C149.03 34.5578 149.353 34.3155 149.596 34.154C149.838 33.9924 150 33.9117 150 33.9117C150 33.9117 150 34.0732 149.919 34.3962C149.838 34.7193 149.757 35.0423 149.677 35.5269C149.515 35.9306 149.353 36.4152 149.191 36.8998C149.111 36.9805 149.111 37.142 149.03 37.2228C148.949 37.3035 148.868 37.4651 148.868 37.5458C148.706 37.7881 148.545 37.9496 148.464 38.1111C148.302 38.0304 148.14 38.1919 147.979 38.3534Z" fill="#303030"/>
<path d="M144.339 38.8379C144.339 38.8379 143.935 38.6763 143.45 38.4341C143.207 38.2725 142.884 38.111 142.641 37.8688C142.48 37.788 142.399 37.6265 142.237 37.465C142.075 37.3034 141.995 37.1419 141.914 36.9804C141.833 36.8189 141.752 36.6574 141.59 36.4959C141.51 36.3343 141.429 36.1728 141.348 35.9305C141.186 35.5268 141.105 35.2037 141.024 34.8807C140.944 34.5576 140.863 34.2346 140.863 34.0731C140.863 33.8308 140.863 33.7501 140.863 33.7501C140.863 33.7501 141.024 33.8308 141.267 33.9116C141.51 34.0731 141.833 34.2346 142.156 34.4769C142.48 34.7192 142.884 34.9614 143.207 35.2845C143.531 35.6075 143.854 35.9305 144.097 36.2536C144.178 36.4151 144.259 36.5766 144.339 36.7381C144.42 36.8996 144.42 37.0612 144.501 37.2227C144.501 37.3842 144.582 37.5457 144.582 37.7072C144.582 37.8688 144.582 37.9495 144.582 38.111C144.501 38.5148 144.339 38.8379 144.339 38.8379Z" fill="#303030"/>
<path d="M148.869 27.6932C148.869 27.8548 148.788 28.097 148.788 28.2586C148.707 28.6623 148.626 28.9854 148.464 29.3084C148.222 29.7122 147.979 30.0352 147.737 30.2775C147.494 30.5198 147.171 30.6813 146.928 30.8428C146.362 31.0851 145.958 31.1659 145.958 31.1659C145.958 31.1659 145.958 31.0851 145.877 30.9236C145.877 30.7621 145.796 30.6006 145.796 30.3583C145.796 30.116 145.796 29.793 145.877 29.4699C145.958 29.1469 146.039 28.8239 146.2 28.4201C146.281 28.2586 146.362 28.1778 146.443 28.0163C146.524 27.9355 146.524 27.8548 146.605 27.8548C146.686 27.774 146.686 27.6932 146.767 27.6932C147.009 27.3702 147.252 27.0472 147.494 26.7241C147.737 26.4011 147.979 26.0781 148.222 25.8358C148.626 25.2705 148.95 24.9474 148.95 24.9474C148.95 24.9474 149.03 25.1897 149.03 25.6743C149.03 25.9166 149.111 26.1588 149.111 26.4011C149.111 26.6434 149.111 26.9664 149.111 27.2894C148.95 27.3702 148.95 27.5317 148.869 27.6932Z" fill="#303030"/>
<path d="M141.912 30.1162C141.831 30.0354 141.831 30.0354 141.75 29.9546C141.67 29.8739 141.67 29.8739 141.589 29.7931C141.508 29.7124 141.427 29.5509 141.265 29.4701C141.185 29.3893 141.104 29.2278 141.023 29.1471C140.942 28.9855 140.861 28.9048 140.78 28.824C140.619 28.6625 140.538 28.4202 140.457 28.2587C140.376 28.178 140.376 28.0972 140.295 28.0164C140.295 27.9357 140.214 27.8549 140.133 27.7742C139.972 27.4511 139.891 27.2896 139.891 27.2896C139.891 27.2896 140.376 27.3704 141.023 27.5319C141.185 27.6126 141.346 27.6126 141.508 27.6934C141.67 27.7742 141.831 27.7742 142.074 27.8549C142.397 28.0164 142.802 28.178 143.125 28.3395C143.368 28.501 143.61 28.6625 143.853 28.824C144.176 29.0663 144.419 29.3893 144.5 29.6316C144.661 29.9546 144.742 30.1969 144.742 30.4392C144.742 30.6815 144.742 30.843 144.742 31.0045C144.742 31.166 144.661 31.2468 144.661 31.2468C144.661 31.2468 144.257 31.2468 143.691 31.0853C143.206 30.9238 142.478 30.6815 141.912 30.1162Z" fill="#303030"/>
<path d="M145.471 22.121C145.309 22.444 145.067 22.6863 144.824 22.9286C144.42 23.3324 144.016 23.4939 144.016 23.4939C144.016 23.4939 143.935 23.4131 143.854 23.3324C143.773 23.1708 143.692 23.0093 143.611 22.767C143.531 22.5248 143.45 22.2825 143.369 21.9595C143.369 21.7979 143.369 21.6364 143.369 21.3941C143.369 21.2326 143.369 20.9904 143.45 20.8288C143.45 20.5866 143.531 20.425 143.611 20.1828C143.611 20.102 143.692 19.9405 143.692 19.8597C143.692 19.779 143.773 19.6175 143.773 19.5367C143.935 19.0521 144.097 18.6484 144.339 18.1638C144.42 17.9215 144.501 17.76 144.582 17.5985C144.663 17.437 144.743 17.2755 144.824 17.1139C144.905 16.8717 144.986 16.7101 144.986 16.7101C144.986 16.7101 145.067 16.8717 145.229 17.1139C145.309 17.2755 145.39 17.437 145.39 17.5985C145.471 17.76 145.552 18.0023 145.633 18.1638C145.633 18.2446 145.714 18.4061 145.714 18.4868C145.714 18.5676 145.795 18.7291 145.795 18.8099C145.875 19.0521 145.875 19.2944 145.956 19.5367C145.956 19.779 146.037 20.0212 146.037 20.2635C146.037 20.5058 146.037 20.7481 145.956 20.9904C145.795 21.4749 145.633 21.7979 145.471 22.121Z" fill="#303030"/>
<path d="M139.327 23.3322C139.165 23.2514 139.004 23.0899 138.842 23.0092C138.68 22.8476 138.519 22.7669 138.438 22.6054C138.276 22.4439 138.195 22.3631 138.033 22.2016C137.872 22.0401 137.791 21.9593 137.71 21.8785C137.629 21.7978 137.629 21.7978 137.548 21.717C137.467 21.6363 137.467 21.6363 137.467 21.5555C137.306 21.394 137.225 21.3132 137.225 21.3132C137.225 21.3132 137.387 21.3132 137.629 21.3132C137.872 21.3132 138.276 21.3132 138.68 21.3132C139.085 21.3132 139.57 21.394 140.055 21.4747C140.136 21.4747 140.297 21.5555 140.378 21.5555C140.459 21.5555 140.621 21.6363 140.702 21.6363C140.944 21.717 141.106 21.7978 141.348 21.8785C141.51 21.9593 141.672 22.0401 141.834 22.2016C141.995 22.2823 142.076 22.4439 142.238 22.5246C142.48 22.7669 142.642 23.0092 142.723 23.2514C142.804 23.4937 142.885 23.6552 142.885 23.8167C142.885 23.9783 142.885 24.059 142.885 24.059C142.885 24.059 142.48 24.1398 141.914 24.1398C141.591 24.1398 141.268 24.1398 140.944 24.059C140.621 23.9783 140.216 23.8975 139.812 23.736C139.65 23.5745 139.489 23.413 139.327 23.3322Z" fill="#303030"/>
<path d="M141.188 15.2564C141.107 15.5794 140.945 15.9025 140.784 16.1447C140.46 16.6293 140.137 16.9523 140.137 16.9523C140.137 16.9523 139.813 16.7908 139.49 16.387C139.409 16.3062 139.328 16.1447 139.247 16.064C139.167 15.9025 139.086 15.8217 139.005 15.6602C138.843 15.3371 138.762 15.0141 138.762 14.5296C138.681 14.1258 138.762 13.6412 138.762 13.1567C138.762 12.6721 138.843 12.1876 138.924 11.703C139.005 11.2185 139.005 10.8954 139.086 10.5724C139.166 10.3301 139.167 10.0878 139.167 10.0878C139.167 10.0878 139.167 10.0878 139.247 10.1686C139.328 10.2493 139.409 10.3301 139.49 10.4109C139.652 10.6531 139.894 10.9762 140.218 11.2992C140.46 11.703 140.703 12.1068 140.945 12.5913C141.107 13.0759 141.269 13.5605 141.35 13.9642C141.35 14.045 141.35 14.2065 141.35 14.2873C141.35 14.368 141.35 14.5296 141.35 14.6103C141.35 14.9333 141.269 15.0949 141.188 15.2564Z" fill="#303030"/>
<path d="M135.607 18.002C135.526 18.002 135.445 17.9212 135.284 17.9212C135.203 17.9212 135.203 17.9212 135.122 17.8405C135.041 17.8405 135.041 17.8405 134.96 17.7597C134.556 17.5982 134.233 17.4367 133.909 17.2752C133.586 17.1137 133.343 16.9521 133.181 16.8714C133.101 16.7906 133.02 16.7906 132.939 16.7099C132.858 16.7099 132.858 16.6291 132.858 16.6291C132.858 16.6291 132.858 16.6291 132.939 16.5484C133.02 16.5484 133.101 16.4676 133.262 16.4676C133.505 16.3868 133.909 16.3061 134.313 16.1446C134.556 16.0638 134.718 16.0638 134.96 15.983C135.041 15.983 135.203 15.983 135.284 15.9023C135.365 15.9023 135.526 15.9023 135.607 15.9023C136.092 15.9023 136.577 15.9023 136.982 15.9023C137.386 15.983 137.709 16.1446 138.033 16.3061C138.195 16.3868 138.275 16.4676 138.437 16.5484C138.518 16.6291 138.599 16.7099 138.68 16.8714C139.003 17.2752 139.084 17.5982 139.084 17.5982C139.084 17.5982 138.68 17.8405 138.114 17.9212C137.79 18.002 137.467 18.0828 137.143 18.0828C136.82 18.0828 136.416 18.0828 136.011 18.0828C136.011 18.0828 135.85 18.0828 135.607 18.002Z" fill="#303030"/>
<path d="M134.555 11.1377C134.474 11.2992 134.393 11.3799 134.393 11.3799C134.393 11.3799 134.393 11.3799 134.313 11.3799C134.313 11.3799 134.232 11.3799 134.151 11.2992C133.989 11.2184 133.827 11.1377 133.585 10.9761C133.181 10.6531 132.695 10.1686 132.372 9.36097C132.291 9.11869 132.129 8.79566 132.049 8.47262C131.968 8.06883 131.887 7.66504 131.806 7.26124C131.725 6.85745 131.644 6.45366 131.563 6.13062C131.483 5.48455 131.402 5 131.402 5C131.402 5 131.644 5.16152 131.968 5.40379C132.129 5.56531 132.372 5.64607 132.534 5.80759C132.776 5.9691 132.938 6.21138 133.181 6.3729C133.342 6.53441 133.423 6.61517 133.585 6.77669L133.666 6.85745L133.747 6.93821C133.827 7.01897 133.827 7.09972 133.908 7.18048C134.151 7.50352 134.313 7.82655 134.474 8.14959C134.555 8.39186 134.636 8.55338 134.636 8.79566C134.636 8.95717 134.717 9.19945 134.717 9.36097C134.717 9.76476 134.636 10.0878 134.636 10.3301C134.717 10.8146 134.636 10.9761 134.555 11.1377Z" fill="#303030"/>
<path d="M129.22 13.4796C128.978 13.3988 128.735 13.3988 128.573 13.3181C128.331 13.2373 128.169 13.2373 128.007 13.1565C127.684 13.0758 127.522 12.995 127.522 12.995C127.522 12.995 127.846 12.7528 128.412 12.349C128.654 12.1874 128.978 12.0259 129.382 11.8644C129.705 11.7029 130.11 11.5414 130.514 11.4606C130.837 11.3799 131.08 11.2991 131.322 11.2991C132.131 11.2183 132.778 11.4606 133.182 11.7837C133.425 11.9452 133.505 12.0259 133.667 12.1874C133.748 12.2682 133.748 12.2682 133.748 12.349V12.4297C133.748 12.4297 133.667 12.5105 133.505 12.5912C133.344 12.672 133.182 12.8335 132.939 12.995C132.697 13.1565 132.373 13.3181 132.05 13.3988C131.888 13.4796 131.727 13.5603 131.484 13.5603C131.322 13.6411 131.08 13.6411 130.918 13.6411C130.352 13.6411 129.786 13.5603 129.22 13.4796Z" fill="#303030"/>
<path d="M120.568 60.6426C120.729 60.6426 120.891 60.5619 121.134 60.5619C121.215 60.5619 121.376 60.5619 121.457 60.4811C121.619 60.4811 121.7 60.4004 121.861 60.4004C122.104 60.3196 122.427 60.3196 122.751 60.2389C123.074 60.1581 123.398 60.0773 123.721 59.9966C123.883 59.9966 124.045 59.9158 124.206 59.9158C124.368 59.8351 124.53 59.8351 124.691 59.7543C125.015 59.6735 125.419 59.5928 125.743 59.4313C127.198 59.0275 128.492 58.4622 129.543 57.9776C129.785 57.8161 130.028 57.7353 130.19 57.6546C130.271 57.5738 130.351 57.5738 130.432 57.4931C130.513 57.4123 130.594 57.4123 130.675 57.3315C130.917 57.17 131.079 57.0893 131.079 57.0893C131.079 57.0893 131.241 57.0085 131.483 56.847C131.726 56.6855 132.13 56.4432 132.615 56.1202C133.505 55.5549 134.718 54.6665 135.85 53.6974C136.982 52.7283 137.952 51.6784 138.68 50.8709C138.76 50.7901 138.841 50.7093 138.922 50.5478C139.003 50.4671 139.084 50.3863 139.165 50.3055C139.326 50.144 139.407 49.9825 139.488 49.9017C139.569 49.821 139.65 49.6595 139.731 49.5787C139.812 49.498 139.812 49.498 139.812 49.498C139.812 49.498 139.892 49.3364 140.135 49.0942C140.216 48.9326 140.378 48.8519 140.458 48.6096C140.62 48.4481 140.701 48.2058 140.863 47.9635C140.944 47.8828 141.024 47.7213 141.105 47.6405C141.186 47.479 141.267 47.3982 141.348 47.2367C141.51 46.9944 141.671 46.6714 141.833 46.4291C141.995 46.1061 142.156 45.8638 142.318 45.5408C142.399 45.46 142.399 45.3793 142.48 45.2985C142.48 45.2177 142.561 45.137 142.561 45.0562C142.642 44.8947 142.722 44.7332 142.803 44.5717C143.369 43.2795 143.935 41.9066 144.178 40.8568C144.178 40.6953 144.259 40.6145 144.259 40.453C144.259 40.3722 144.34 40.2107 144.34 40.13C144.42 39.8877 144.42 39.7262 144.501 39.5646C144.582 39.2416 144.582 39.0801 144.582 39.0801C144.582 39.0801 144.582 38.9993 144.582 38.9186C144.582 38.8378 144.582 38.6763 144.663 38.5955C144.663 38.434 144.744 38.2725 144.744 38.0302C144.744 37.788 144.825 37.5457 144.906 37.3034C144.906 37.0611 144.986 36.7381 144.986 36.4151C144.986 36.3343 144.986 36.2535 144.986 36.1728C144.986 36.092 144.986 36.0113 144.986 35.9305C144.986 35.769 144.986 35.6075 144.986 35.446C145.067 34.7999 145.067 34.0731 145.067 33.3462C145.067 32.6194 145.067 31.8926 144.986 31.2465C144.986 31.085 144.986 30.9235 144.986 30.762C144.986 30.6812 144.986 30.6004 144.986 30.5197C144.986 30.4389 144.986 30.3582 144.986 30.2774C144.986 29.9544 144.906 29.7121 144.906 29.3891C144.906 29.1468 144.825 28.9045 144.744 28.6622C144.744 28.4199 144.663 28.2584 144.663 28.0969C144.663 27.9354 144.582 27.8546 144.582 27.7739C144.582 27.6931 144.582 27.6124 144.582 27.6124C144.582 27.6124 144.501 27.4508 144.501 27.1278C144.501 26.9663 144.42 26.8048 144.34 26.5625C144.34 26.4817 144.259 26.3202 144.259 26.2395C144.259 26.1587 144.178 25.9972 144.178 25.8357C143.854 24.7858 143.369 23.4937 142.803 22.1208C142.722 21.9593 142.642 21.7977 142.561 21.6362C142.561 21.5555 142.48 21.4747 142.48 21.3939C142.399 21.3132 142.399 21.2324 142.318 21.1517C142.156 20.8286 141.995 20.5056 141.833 20.2633C141.671 19.9403 141.51 19.698 141.348 19.4557C141.267 19.2942 141.186 19.2135 141.105 19.0519C141.024 18.8904 140.944 18.8097 140.863 18.7289C140.701 18.4866 140.539 18.3251 140.458 18.0828C140.297 17.9213 140.216 17.7598 140.135 17.5983C139.973 17.356 139.812 17.1945 139.812 17.1945C139.812 17.1945 139.812 17.1945 139.731 17.1137C139.65 17.033 139.65 16.9522 139.488 16.7907C139.407 16.6292 139.246 16.5484 139.165 16.3869C139.084 16.3062 139.003 16.2254 138.922 16.1446C138.841 16.0639 138.76 15.9831 138.68 15.8216C137.952 15.014 136.982 13.9642 135.85 12.995C134.718 12.0259 133.586 11.2184 132.615 10.5723C132.13 10.2493 131.726 10.007 131.483 9.84546C131.16 9.68394 131.079 9.60318 131.079 9.60318C131.079 9.60318 130.917 9.52243 130.675 9.36091C130.594 9.36091 130.513 9.28015 130.432 9.19939C130.351 9.11863 130.271 9.11863 130.19 9.03787C130.109 9.03787 130.028 8.95712 129.947 8.95712C129.785 8.95712 129.543 8.95712 129.219 8.95712C128.653 8.95712 127.845 8.7956 127.198 8.47256C126.875 8.31105 126.551 8.06877 126.228 7.74574C126.066 7.58422 125.904 7.50346 125.823 7.34194C125.662 7.18043 125.581 7.09967 125.419 6.93815C125.177 6.69587 125.015 6.4536 124.853 6.29208C124.691 6.13056 124.611 6.0498 124.611 6.0498C124.611 6.0498 124.772 6.0498 125.015 6.0498C125.257 6.0498 125.662 6.0498 126.066 6.0498C126.147 6.0498 126.309 6.0498 126.389 6.0498C126.47 6.0498 126.632 6.0498 126.713 6.13056C126.955 6.13056 127.198 6.21132 127.441 6.29208C127.926 6.37284 128.33 6.53436 128.734 6.77663C129.058 6.93815 129.381 7.18043 129.624 7.4227C129.866 7.66498 129.947 7.90725 130.028 8.14953C130.109 8.39181 130.19 8.55332 130.19 8.71484V8.7956H130.271C130.351 8.87636 130.432 8.87636 130.594 8.95712C130.675 9.03787 130.756 9.03787 130.836 9.11863C131.079 9.28015 131.241 9.36091 131.241 9.36091C131.241 9.36091 131.402 9.44167 131.726 9.60318C131.968 9.7647 132.373 10.007 132.858 10.33C133.747 10.9761 134.96 11.7837 136.092 12.7528C137.224 13.7219 138.194 14.7717 138.922 15.5793C139.003 15.6601 139.084 15.8216 139.165 15.9024C139.246 15.9831 139.326 16.0639 139.407 16.1446C139.569 16.3062 139.65 16.4677 139.812 16.6292C139.892 16.7907 139.973 16.8715 140.054 16.9522C140.135 17.033 140.135 17.033 140.135 17.033C140.135 17.033 140.216 17.1945 140.458 17.4368C140.539 17.5983 140.701 17.7598 140.782 17.9213C140.944 18.0828 141.024 18.3251 141.186 18.5674C141.267 18.6482 141.348 18.8097 141.429 18.8904C141.51 19.0519 141.59 19.1327 141.671 19.2942C141.833 19.5365 141.995 19.8595 142.156 20.1018C142.318 20.4248 142.48 20.7479 142.642 20.9902C142.722 21.0709 142.722 21.1517 142.803 21.2324C142.803 21.3132 142.884 21.3939 142.884 21.4747C142.965 21.6362 143.046 21.7977 143.127 21.9593C143.774 23.2514 144.259 24.6243 144.501 25.6742C144.501 25.8357 144.582 25.9164 144.582 26.0779C144.582 26.1587 144.663 26.3202 144.663 26.401C144.744 26.6433 144.744 26.8048 144.825 26.9663C144.906 27.2893 144.906 27.4508 144.906 27.4508C144.906 27.4508 144.906 27.5316 144.906 27.6124C144.906 27.6931 144.905 27.8546 144.986 27.9354C144.986 28.0969 145.067 28.2584 145.067 28.5007C145.067 28.743 145.148 28.9853 145.229 29.2275C145.229 29.4698 145.31 29.7928 145.31 30.1159C145.31 30.1966 145.31 30.2774 145.31 30.3582C145.31 30.4389 145.31 30.5197 145.31 30.6004C145.31 30.762 145.31 30.9235 145.31 31.085C145.391 31.7311 145.391 32.4579 145.391 33.1847C145.391 33.9115 145.391 34.6384 145.31 35.2844C145.31 35.446 145.31 35.6075 145.31 35.769C145.31 35.8497 145.31 35.9305 145.31 36.0113C145.31 36.092 145.31 36.1728 145.31 36.2535C145.31 36.5766 145.229 36.8188 145.229 37.1419C145.229 37.3842 145.148 37.6264 145.067 37.8687C145.067 38.111 144.986 38.2725 144.986 38.434C144.986 38.5955 144.906 38.6763 144.906 38.7571C144.906 38.8378 144.906 38.9186 144.906 38.9186C144.906 38.9186 144.825 39.0801 144.825 39.4031C144.825 39.5646 144.744 39.7262 144.663 39.9684C144.663 40.0492 144.582 40.2107 144.582 40.2915C144.582 40.3722 144.501 40.5337 144.501 40.6953C144.178 41.7451 143.693 43.118 143.127 44.4102C143.046 44.5717 142.965 44.7332 142.884 44.8947C142.884 44.9755 142.803 45.0562 142.803 45.137C142.722 45.2177 142.722 45.2985 142.642 45.3793C142.48 45.7023 142.318 46.0253 142.156 46.2676C141.995 46.5906 141.833 46.8329 141.671 47.0752C141.59 47.2367 141.51 47.3175 141.429 47.479C141.348 47.6405 141.267 47.7213 141.186 47.802C141.024 48.0443 140.863 48.2058 140.782 48.4481C140.62 48.6096 140.539 48.7711 140.458 48.9326C140.297 49.1749 140.135 49.3364 140.135 49.3364C140.135 49.3364 140.135 49.3364 140.054 49.4172C139.973 49.498 139.892 49.5787 139.812 49.7402C139.731 49.9017 139.569 49.9825 139.407 50.2248C139.326 50.3055 139.246 50.3863 139.165 50.4671C139.084 50.5478 139.003 50.6286 138.922 50.7901C138.194 51.5977 137.143 52.6475 136.092 53.6166C134.96 54.5858 133.747 55.4741 132.858 56.0394C132.373 56.3624 131.968 56.6047 131.726 56.7662C131.402 56.9277 131.241 57.0085 131.241 57.0085C131.241 57.0085 131.079 57.0893 130.836 57.2508C130.756 57.2508 130.675 57.3315 130.594 57.4123C130.513 57.4931 130.432 57.4931 130.271 57.5738C130.028 57.6546 129.866 57.8161 129.624 57.8969C128.653 58.3814 127.279 58.9467 125.823 59.3505C125.5 59.512 125.096 59.5928 124.772 59.6735C124.611 59.7543 124.449 59.7543 124.206 59.8351C124.045 59.9158 123.883 59.9158 123.721 59.9158C123.398 59.9966 123.074 60.0773 122.751 60.1581C122.427 60.2389 122.104 60.2389 121.861 60.3196C121.7 60.3196 121.619 60.4004 121.457 60.4004C121.295 60.4004 121.215 60.4004 121.134 60.4811C120.891 60.4811 120.729 60.5619 120.568 60.5619C120.244 60.5619 120.083 60.6426 120.083 60.6426V60.4004C120.002 60.7234 120.244 60.7234 120.568 60.6426Z" fill="#303030"/>
<path d="M123.723 60.4002C123.723 60.4002 119.842 61.3693 118.952 65.0034L119.033 60.804L123.48 60.2386L123.723 60.4002Z" fill="#303030"/>
</g>
<g opacity="0.15">
<path d="M53.5299 60.0774C53.3682 60.0774 53.2064 60.0774 52.9639 60.0774C52.883 60.0774 52.883 60.0774 52.8022 60.0774C52.7213 60.0774 52.7213 60.0774 52.6405 60.0774C52.5596 60.0774 52.3979 60.1582 52.317 60.1582C51.9128 60.2389 51.4276 60.4812 50.9425 60.6427C50.4573 60.8042 50.053 61.0465 49.6488 61.2888C49.2445 61.531 48.8402 61.6926 48.5976 61.8541C48.3551 62.0156 48.1934 62.0964 48.1934 62.0964C48.1934 62.0964 48.1934 62.0964 48.2742 62.1771C48.3551 62.1771 48.4359 62.2579 48.5976 62.2579C48.9211 62.3386 49.3253 62.4194 49.7296 62.5002C49.8105 62.5002 49.9722 62.5809 50.053 62.5809C50.2148 62.5809 50.2956 62.5809 50.4573 62.6617C50.6999 62.6617 50.9425 62.7424 51.2659 62.7424C51.751 62.7424 52.317 62.6617 52.7213 62.5809C53.6107 62.3386 54.1767 61.7733 54.581 61.3695C54.9853 60.885 55.147 60.5619 55.147 60.5619C55.147 60.5619 54.8236 60.4004 54.3384 60.2389C54.1767 60.0774 53.9342 60.0774 53.5299 60.0774Z" fill="#303030"/>
<path d="M54.9026 56.5241C54.6601 56.2011 54.4175 55.8781 54.1749 55.6358C54.0132 55.4743 53.8515 55.3935 53.7706 55.232C53.6898 55.1512 53.6089 55.1512 53.5281 55.0705C53.4472 54.9897 53.3664 54.9897 53.2855 54.9089C53.0429 54.6667 52.8004 54.5052 52.5578 54.4244C52.3961 54.2629 52.2344 54.2629 52.2344 54.2629C52.2344 54.2629 52.2344 54.4244 52.2344 54.6667C52.2344 54.9089 52.2344 55.3127 52.3152 55.7165C52.3961 56.1203 52.4769 56.6049 52.5578 57.0087C52.7195 57.4125 52.8812 57.897 53.1238 58.2201C53.2047 58.3008 53.2046 58.3816 53.2855 58.4623L53.3664 58.5431L53.4472 58.6238C53.6089 58.7854 53.6898 58.8661 53.8515 58.9469C54.0132 59.0276 54.0941 59.1084 54.2558 59.1892C54.4175 59.2699 54.4984 59.2699 54.6601 59.3507C55.1452 59.5122 55.4686 59.4314 55.4686 59.4314C55.4686 59.4314 55.5495 59.0276 55.4686 58.4623C55.4686 58.1393 55.3878 57.8163 55.3069 57.4932C55.3069 57.4125 55.2261 57.3317 55.2261 57.2509C55.2261 57.1702 55.1452 57.0894 55.1452 57.0087C55.1452 56.8472 55.0643 56.6856 54.9026 56.5241Z" fill="#303030"/>
<path d="M48.0302 57.4931C48.0302 57.4931 47.9493 57.4123 47.8685 57.4123C47.7876 57.3316 47.5451 57.17 47.3833 57.0893C47.3025 57.0085 47.1408 56.9278 46.9791 56.9278C46.8174 56.847 46.6556 56.847 46.4939 56.7663C46.1705 56.6855 45.7662 56.6047 45.3619 56.6047C45.1194 56.6047 44.8768 56.6047 44.6342 56.6855C44.3917 56.6855 44.1491 56.7663 43.9065 56.7663C43.664 56.7663 43.4214 56.847 43.1788 56.9278C42.9362 57.0085 42.6937 57.0085 42.4511 57.0893C41.966 57.17 41.5617 57.2508 41.3191 57.3316C40.9957 57.4123 40.834 57.4123 40.834 57.4123C40.834 57.4123 40.9957 57.4931 41.2383 57.6546C41.4 57.7354 41.4808 57.8161 41.7234 57.8969C41.8043 57.9776 41.8851 57.9776 41.966 58.0584C42.0468 58.1391 42.1277 58.1391 42.2894 58.2199C42.532 58.3007 42.6937 58.3814 42.9363 58.5429C43.0171 58.6237 43.1788 58.6237 43.2597 58.7045C43.3405 58.7045 43.3405 58.7852 43.4214 58.7852C43.5023 58.7852 43.5831 58.7852 43.5831 58.866C44.0682 59.0275 44.5534 59.1083 45.0385 59.1083C46.0088 59.1083 46.7365 58.7045 47.2216 58.3814C47.4642 58.2199 47.6259 58.0584 47.7876 57.8969C48.0302 57.6546 48.111 57.4931 48.0302 57.4931C48.111 57.4931 48.0302 57.4931 48.0302 57.4931Z" fill="#303030"/>
<path d="M46.7359 54.7471C46.8168 55.1509 47.0593 55.474 47.2211 55.7163C47.3019 55.8778 47.4636 55.9585 47.5445 56.0393C47.6254 56.12 47.7871 56.2008 47.8679 56.2816C48.1105 56.4431 48.2722 56.5238 48.4339 56.5238C48.5148 56.5238 48.5956 56.5238 48.5956 56.6046C48.6765 56.6046 48.6765 56.6046 48.6765 56.6046C48.6765 56.6046 48.7573 56.5238 48.7573 56.3623C48.8382 56.2008 48.8382 55.9585 48.919 55.7163C48.9999 55.1509 49.0808 54.4241 48.8382 53.6973C48.7573 53.2935 48.5956 52.9705 48.3531 52.6474C48.1914 52.3244 47.9488 52.0014 47.7062 51.7591C47.6253 51.5976 47.4636 51.5168 47.3828 51.3553C47.3019 51.2745 47.2211 51.113 47.1402 51.0323C46.9785 50.8707 46.8976 50.79 46.8976 50.79C46.8976 50.79 46.8168 50.9515 46.8168 51.1938C46.7359 51.436 46.6551 51.8398 46.6551 52.2436C46.6551 52.4859 46.5742 52.6474 46.5742 52.8897C46.5742 53.132 46.5742 53.3743 46.5742 53.5358C46.5742 53.778 46.5742 54.0203 46.6551 54.1818C46.6551 54.3434 46.6551 54.5856 46.7359 54.7471Z" fill="#303030"/>
<path d="M41.6454 52.4054C41.5646 52.2439 41.4029 52.0824 41.2412 51.9209C41.0794 51.7594 40.8369 51.5171 40.5135 51.3556C40.19 51.1941 39.8666 51.0325 39.4623 50.871C39.3006 50.871 39.1389 50.7903 38.9772 50.7903C38.8155 50.7903 38.6538 50.7095 38.492 50.7095C37.6835 50.548 36.7941 50.548 36.0664 50.4672C35.3387 50.4672 34.8535 50.3865 34.8535 50.3865C34.8535 50.3865 35.0152 50.6288 35.3387 50.9518C35.5812 51.2748 36.0664 51.6786 36.5515 52.0824C36.6324 52.1632 36.7132 52.1632 36.7941 52.2439L36.8749 52.3247C36.8749 52.3247 36.9558 52.4054 37.0366 52.4054C37.1984 52.4862 37.3601 52.6477 37.5218 52.7285C37.6835 52.8092 37.8452 52.89 38.0069 52.9708C38.1686 53.0515 38.3303 53.1323 38.492 53.1323C39.3815 53.3745 40.19 53.213 40.756 53.0515C41.322 52.8092 41.6454 52.567 41.6454 52.567C41.6454 52.567 41.7263 52.4862 41.6454 52.4054Z" fill="#303030"/>
<path d="M41.8863 51.3554C42.048 51.5169 42.2097 51.6784 42.2906 51.7592C42.4523 51.8399 42.5332 51.8399 42.5332 51.8399C42.5332 51.8399 42.7757 51.5169 43.0992 51.0323C43.3417 50.5478 43.6651 49.821 43.6651 49.0134C43.6651 48.7711 43.6651 48.4481 43.5843 48.125C43.5843 47.9635 43.5034 47.8828 43.5034 47.7212C43.5034 47.5597 43.4226 47.479 43.4226 47.3175C43.3417 47.0752 43.2609 46.9137 43.18 46.6714C43.18 46.5906 43.0992 46.5906 43.0992 46.5099C43.0992 46.4291 43.0992 46.4291 43.0183 46.3483C43.0183 46.2676 42.9374 46.1868 42.9374 46.1061C42.7757 45.783 42.6949 45.6215 42.6949 45.6215C42.6949 45.6215 42.4523 46.0253 42.1289 46.5906C42.048 46.7521 41.9672 46.9137 41.8863 47.0752C41.8863 47.1559 41.8055 47.2367 41.8055 47.3175C41.8055 47.3982 41.7246 47.479 41.7246 47.5597C41.5629 47.8828 41.482 48.2866 41.4012 48.6903C41.4012 48.8519 41.3203 49.0134 41.3203 49.0941C41.3203 49.2557 41.3203 49.3364 41.3203 49.4979C41.3203 49.9017 41.4012 50.2248 41.482 50.5478C41.5629 50.8708 41.7246 51.1131 41.8863 51.3554Z" fill="#303030"/>
<path d="M35.5807 46.3484C35.7424 46.3484 35.9041 46.3484 36.0658 46.3484C36.7127 46.3484 37.0361 46.1869 37.0361 46.1869C37.0361 46.1869 37.0361 46.1061 36.9553 45.9446C36.9553 45.8639 36.8744 45.7831 36.8744 45.7024C36.8744 45.6216 36.7935 45.5408 36.7127 45.3793C36.6318 45.137 36.4701 44.8948 36.2276 44.6525C36.1467 44.5717 36.1467 44.5717 36.0658 44.491C35.985 44.4102 35.9041 44.3295 35.8233 44.3295C35.6616 44.1679 35.4998 44.0872 35.3381 44.0064C35.1764 43.9257 34.9338 43.7641 34.6913 43.6834C34.4487 43.6026 34.287 43.4411 34.0444 43.3603C33.5593 43.1988 33.0741 42.9566 32.6699 42.8758C32.2656 42.7143 31.8613 42.5528 31.5379 42.472C31.2953 42.3912 31.0527 42.3105 31.0527 42.3105C31.0527 42.3105 31.1336 42.472 31.2145 42.7143C31.2953 42.8758 31.3762 43.0373 31.457 43.1988C31.5379 43.3603 31.6996 43.5219 31.7805 43.7641C31.8613 43.9257 32.023 44.1679 32.1847 44.3295C32.1847 44.4102 32.2656 44.4102 32.2656 44.491C32.2656 44.5717 32.3464 44.5717 32.3464 44.6525C32.4273 44.7332 32.5082 44.814 32.589 44.9755C32.7507 45.137 32.9124 45.3793 33.155 45.5408C33.2359 45.6216 33.3167 45.7023 33.3976 45.7831C33.4784 45.8639 33.5593 45.9446 33.721 45.9446C34.1253 46.1869 34.5296 46.3484 34.9339 46.3484C35.2573 46.2677 35.419 46.3484 35.5807 46.3484Z" fill="#303030"/>
<path d="M37.3555 44.1679C37.3555 44.4909 37.5172 44.7332 37.598 44.9755C37.6789 45.0562 37.6789 45.2178 37.7598 45.2985C37.8406 45.3793 37.8406 45.46 37.9214 45.5408C38.0023 45.6216 38.0832 45.7023 38.0832 45.7023C38.0832 45.7023 38.4066 45.46 38.8109 45.0562C38.8917 44.9755 38.9726 44.814 39.1343 44.7332C39.2151 44.5717 39.3769 44.4909 39.4577 44.3294C39.6194 44.0064 39.862 43.6834 39.9429 43.3603C39.9429 43.2796 40.0237 43.1988 40.0237 43.118C40.0237 43.0373 40.1046 42.9565 40.1046 42.795C40.1046 42.6335 40.1854 42.3912 40.1854 42.2297C40.1854 41.8259 40.1854 41.4221 40.1854 41.0991C40.1854 40.9376 40.1854 40.776 40.1046 40.6145C40.1046 40.453 40.1046 40.3722 40.1046 40.2107C40.1046 39.9685 40.0237 39.8877 40.0237 39.8877C40.0237 39.8877 39.862 39.9685 39.7003 40.2107C39.5386 40.3722 39.2152 40.6953 38.9726 40.9376C38.73 41.2606 38.4066 41.5836 38.164 41.9874C38.0023 42.1489 37.9215 42.3912 37.8406 42.5527C37.7598 42.7142 37.6789 42.9565 37.598 43.118C37.5172 43.2796 37.5172 43.5218 37.5172 43.6834C37.5172 43.7641 37.5172 43.8449 37.5172 43.9256C37.5172 44.0064 37.5172 44.0064 37.5172 44.0871C37.3555 44.0871 37.3555 44.1679 37.3555 44.1679Z" fill="#303030"/>
<path d="M32.0214 38.3534C32.1831 38.4342 32.3448 38.5957 32.5066 38.6764C32.83 38.838 33.1534 38.9187 33.4768 38.9995C34.0428 39.0802 34.528 39.0802 34.528 39.0802C34.528 39.0802 34.6088 38.7572 34.4471 38.2727C34.4471 38.1111 34.3662 38.0304 34.3662 37.8689C34.2854 37.7073 34.2854 37.5458 34.2045 37.4651C34.1237 37.3035 34.0428 37.142 33.962 36.9805C33.8811 36.8998 33.8811 36.819 33.8003 36.7382L33.7194 36.6575L33.6385 36.5767C33.0725 35.9306 32.1023 35.2846 31.3746 34.8C30.9703 34.5578 30.6469 34.3155 30.4043 34.154C30.1617 33.9924 30 33.9117 30 33.9117C30 33.9117 30 34.0732 30.0809 34.3962C30.1617 34.7193 30.2426 35.0423 30.3234 35.5269C30.4851 35.9306 30.6469 36.4152 30.8086 36.8998C30.8894 36.9805 30.8894 37.142 30.9703 37.2228C31.0511 37.3035 31.132 37.4651 31.132 37.5458C31.2937 37.7881 31.4554 37.9496 31.5363 38.1111C31.698 38.0304 31.8597 38.1919 32.0214 38.3534Z" fill="#303030"/>
<path d="M35.6605 38.8379C35.6605 38.8379 36.0648 38.6763 36.55 38.4341C36.7925 38.2725 37.1159 38.111 37.3585 37.8688C37.5202 37.788 37.6011 37.6265 37.7628 37.465C37.9245 37.3034 38.0054 37.1419 38.0862 36.9804C38.1671 36.8189 38.2479 36.6574 38.4096 36.4959C38.4905 36.3343 38.5714 36.1728 38.6522 35.9305C38.8139 35.5268 38.8948 35.2037 38.9756 34.8807C39.0565 34.5576 39.1373 34.2346 39.1373 34.0731C39.1373 33.8308 39.1373 33.7501 39.1373 33.7501C39.1373 33.7501 38.9756 33.8308 38.7331 33.9116C38.4905 34.0731 38.1671 34.2346 37.8437 34.4769C37.5202 34.7192 37.1159 34.9614 36.7925 35.2845C36.4691 35.6075 36.1457 35.9305 35.9031 36.2536C35.8222 36.4151 35.7414 36.5766 35.6605 36.7381C35.5797 36.8996 35.5797 37.0612 35.4988 37.2227C35.4988 37.3842 35.418 37.5457 35.418 37.7072C35.418 37.8688 35.418 37.9495 35.418 38.111C35.4988 38.5148 35.6605 38.8379 35.6605 38.8379Z" fill="#303030"/>
<path d="M31.1312 27.6932C31.1312 27.8548 31.2121 28.097 31.2121 28.2586C31.2929 28.6623 31.3738 28.9854 31.5355 29.3084C31.7781 29.7122 32.0206 30.0352 32.2632 30.2775C32.5058 30.5198 32.8292 30.6813 33.0718 30.8428C33.6378 31.0851 34.0421 31.1659 34.0421 31.1659C34.0421 31.1659 34.0421 31.0851 34.1229 30.9236C34.1229 30.7621 34.2038 30.6006 34.2038 30.3583C34.2038 30.116 34.2038 29.793 34.1229 29.4699C34.0421 29.1469 33.9612 28.8239 33.7995 28.4201C33.7186 28.2586 33.6378 28.1778 33.5569 28.0163C33.4761 27.9355 33.4761 27.8548 33.3952 27.8548C33.3144 27.774 33.3144 27.6932 33.2335 27.6932C32.9909 27.3702 32.7484 27.0472 32.5058 26.7241C32.2632 26.4011 32.0207 26.0781 31.7781 25.8358C31.3738 25.2705 31.0504 24.9474 31.0504 24.9474C31.0504 24.9474 30.9695 25.1897 30.9695 25.6743C30.9695 25.9166 30.8887 26.1588 30.8887 26.4011C30.8887 26.6434 30.8887 26.9664 30.8887 27.2894C31.0504 27.3702 31.0504 27.5317 31.1312 27.6932Z" fill="#303030"/>
<path d="M38.0878 30.1162C38.1686 30.0354 38.1686 30.0354 38.2495 29.9546C38.3304 29.8739 38.3303 29.8739 38.4112 29.7931C38.4921 29.7124 38.5729 29.5509 38.7346 29.4701C38.8155 29.3893 38.8964 29.2278 38.9772 29.1471C39.0581 28.9855 39.1389 28.9048 39.2198 28.824C39.3815 28.6625 39.4623 28.4202 39.5432 28.2587C39.624 28.178 39.6241 28.0972 39.7049 28.0164C39.7049 27.9357 39.7858 27.8549 39.8666 27.7742C40.0283 27.4511 40.1092 27.2896 40.1092 27.2896C40.1092 27.2896 39.6241 27.3704 38.9772 27.5319C38.8155 27.6126 38.6538 27.6126 38.4921 27.6934C38.3304 27.7742 38.1686 27.7742 37.9261 27.8549C37.6026 28.0164 37.1984 28.178 36.8749 28.3395C36.6324 28.501 36.3898 28.6625 36.1472 28.824C35.8238 29.0663 35.5812 29.3893 35.5004 29.6316C35.3387 29.9546 35.2578 30.1969 35.2578 30.4392C35.2578 30.6815 35.2578 30.843 35.2578 31.0045C35.2578 31.166 35.3387 31.2468 35.3387 31.2468C35.3387 31.2468 35.7429 31.2468 36.3089 31.0853C36.7941 30.9238 37.5218 30.6815 38.0878 30.1162Z" fill="#303030"/>
<path d="M34.5289 22.121C34.6906 22.444 34.9332 22.6863 35.1757 22.9286C35.58 23.3324 35.9843 23.4939 35.9843 23.4939C35.9843 23.4939 36.0652 23.4131 36.146 23.3324C36.2269 23.1708 36.3077 23.0093 36.3886 22.767C36.4694 22.5248 36.5503 22.2825 36.6312 21.9595C36.6312 21.7979 36.6312 21.6364 36.6312 21.3941C36.6312 21.2326 36.6312 20.9904 36.5503 20.8288C36.5503 20.5866 36.4694 20.425 36.3886 20.1828C36.3886 20.102 36.3077 19.9405 36.3077 19.8597C36.3077 19.779 36.2269 19.6175 36.2269 19.5367C36.0652 19.0521 35.9034 18.6484 35.6609 18.1638C35.58 17.9215 35.4992 17.76 35.4183 17.5985C35.3375 17.437 35.2566 17.2755 35.1757 17.1139C35.0949 16.8717 35.014 16.7101 35.014 16.7101C35.014 16.7101 34.9332 16.8717 34.7715 17.1139C34.6906 17.2755 34.6098 17.437 34.6098 17.5985C34.5289 17.76 34.448 18.0023 34.3672 18.1638C34.3672 18.2446 34.2863 18.4061 34.2863 18.4868C34.2863 18.5676 34.2055 18.7291 34.2055 18.8099C34.1246 19.0521 34.1246 19.2944 34.0438 19.5367C34.0438 19.779 33.9629 20.0212 33.9629 20.2635C33.9629 20.5058 33.9629 20.7481 34.0438 20.9904C34.2055 21.4749 34.3672 21.7979 34.5289 22.121Z" fill="#303030"/>
<path d="M40.6729 23.3322C40.8346 23.2514 40.9963 23.0899 41.158 23.0092C41.3198 22.8476 41.4815 22.7669 41.5623 22.6054C41.724 22.4439 41.8049 22.3631 41.9666 22.2016C42.1283 22.0401 42.2092 21.9593 42.2901 21.8785C42.3709 21.7978 42.3709 21.7978 42.4518 21.717C42.5326 21.6363 42.5326 21.6363 42.5326 21.5555C42.6943 21.394 42.7752 21.3132 42.7752 21.3132C42.7752 21.3132 42.6135 21.3132 42.3709 21.3132C42.1283 21.3132 41.7241 21.3132 41.3198 21.3132C40.9155 21.3132 40.4303 21.394 39.9452 21.4747C39.8643 21.4747 39.7026 21.5555 39.6218 21.5555C39.5409 21.5555 39.3792 21.6363 39.2984 21.6363C39.0558 21.717 38.8941 21.7978 38.6515 21.8785C38.4898 21.9593 38.3281 22.0401 38.1664 22.2016C38.0047 22.2823 37.9238 22.4439 37.7621 22.5246C37.5195 22.7669 37.3578 23.0092 37.277 23.2514C37.1961 23.4937 37.1152 23.6552 37.1152 23.8167C37.1152 23.9783 37.1152 24.059 37.1152 24.059C37.1152 24.059 37.5195 24.1398 38.0855 24.1398C38.4089 24.1398 38.7324 24.1398 39.0558 24.059C39.3792 23.9783 39.7835 23.8975 40.1878 23.736C40.3495 23.5745 40.5112 23.413 40.6729 23.3322Z" fill="#303030"/>
<path d="M38.8121 15.2564C38.8929 15.5794 39.0547 15.9025 39.2164 16.1447C39.5398 16.6293 39.8632 16.9523 39.8632 16.9523C39.8632 16.9523 40.1867 16.7908 40.5101 16.387C40.5909 16.3062 40.6718 16.1447 40.7526 16.064C40.8335 15.9025 40.9144 15.8217 40.9952 15.6602C41.1569 15.3371 41.2378 15.0141 41.2378 14.5296C41.3186 14.1258 41.2378 13.6412 41.2378 13.1567C41.2378 12.6721 41.1569 12.1876 41.0761 11.703C40.9952 11.2185 40.9952 10.8954 40.9144 10.5724C40.8335 10.3301 40.8335 10.0878 40.8335 10.0878C40.8335 10.0878 40.8335 10.0878 40.7526 10.1686C40.6718 10.2493 40.5909 10.3301 40.5101 10.4109C40.3484 10.6531 40.1058 10.9762 39.7824 11.2992C39.5398 11.703 39.2972 12.1068 39.0547 12.5913C38.893 13.0759 38.7312 13.5605 38.6504 13.9642C38.6504 14.045 38.6504 14.2065 38.6504 14.2873C38.6504 14.368 38.6504 14.5296 38.6504 14.6103C38.6504 14.9333 38.7312 15.0949 38.8121 15.2564Z" fill="#303030"/>
<path d="M44.3928 18.002C44.4737 18.002 44.5546 17.9212 44.7163 17.9212C44.7971 17.9212 44.7971 17.9212 44.878 17.8405C44.9588 17.8405 44.9588 17.8405 45.0397 17.7597C45.444 17.5982 45.7674 17.4367 46.0908 17.2752C46.4142 17.1137 46.6568 16.9521 46.8185 16.8714C46.8994 16.7906 46.9802 16.7906 47.0611 16.7099C47.142 16.7099 47.142 16.6291 47.142 16.6291C47.142 16.6291 47.142 16.6291 47.0611 16.5484C46.9802 16.5484 46.8994 16.4676 46.7377 16.4676C46.4951 16.3868 46.0908 16.3061 45.6865 16.1446C45.444 16.0638 45.2823 16.0638 45.0397 15.983C44.9588 15.983 44.7971 15.983 44.7163 15.9023C44.6354 15.9023 44.4737 15.9023 44.3928 15.9023C43.9077 15.9023 43.4226 15.9023 43.0183 15.9023C42.614 15.983 42.2906 16.1446 41.9671 16.3061C41.8054 16.3868 41.7246 16.4676 41.5629 16.5484C41.482 16.6291 41.4012 16.7099 41.3203 16.8714C40.9969 17.2752 40.916 17.5982 40.916 17.5982C40.916 17.5982 41.3203 17.8405 41.8863 17.9212C42.2097 18.002 42.5331 18.0828 42.8566 18.0828C43.18 18.0828 43.5843 18.0828 43.9885 18.0828C43.9885 18.0828 44.1503 18.0828 44.3928 18.002Z" fill="#303030"/>
<path d="M45.4449 11.1377C45.5258 11.2992 45.6066 11.3799 45.6066 11.3799C45.6066 11.3799 45.6066 11.3799 45.6875 11.3799C45.6875 11.3799 45.7684 11.3799 45.8492 11.2992C46.0109 11.2184 46.1726 11.1377 46.4152 10.9761C46.8195 10.6531 47.3046 10.1686 47.628 9.36097C47.7089 9.11869 47.8706 8.79566 47.9515 8.47262C48.0323 8.06883 48.1132 7.66504 48.194 7.26124C48.2749 6.85745 48.3557 6.45366 48.4366 6.13062C48.5175 5.48455 48.5983 5 48.5983 5C48.5983 5 48.3557 5.16152 48.0323 5.40379C47.8706 5.56531 47.628 5.64607 47.4663 5.80759C47.2238 5.9691 47.062 6.21138 46.8195 6.3729C46.6578 6.53441 46.5769 6.61517 46.4152 6.77669L46.3343 6.85745L46.2535 6.93821C46.1726 7.01897 46.1726 7.09972 46.0918 7.18048C45.8492 7.50352 45.6875 7.82655 45.5258 8.14959C45.4449 8.39186 45.3641 8.55338 45.3641 8.79566C45.3641 8.95717 45.2832 9.19945 45.2832 9.36097C45.2832 9.76476 45.3641 10.0878 45.3641 10.3301C45.2832 10.8146 45.3641 10.9761 45.4449 11.1377Z" fill="#303030"/>
<path d="M50.7799 13.4796C51.0225 13.3988 51.265 13.3988 51.4268 13.3181C51.6693 13.2373 51.831 13.2373 51.9928 13.1565C52.3162 13.0758 52.4779 12.995 52.4779 12.995C52.4779 12.995 52.1545 12.7528 51.5885 12.349C51.3459 12.1874 51.0225 12.0259 50.6182 11.8644C50.2948 11.7029 49.8905 11.5414 49.4862 11.4606C49.1628 11.3799 48.9202 11.2991 48.6776 11.2991C47.8691 11.2183 47.2222 11.4606 46.8179 11.7837C46.5754 11.9452 46.4945 12.0259 46.3328 12.1874C46.252 12.2682 46.252 12.2682 46.252 12.349V12.4297C46.252 12.4297 46.3328 12.5105 46.4945 12.5912C46.6562 12.672 46.8179 12.8335 47.0605 12.995C47.3031 13.1565 47.6265 13.3181 47.9499 13.3988C48.1117 13.4796 48.2734 13.5603 48.5159 13.5603C48.6776 13.6411 48.9202 13.6411 49.0819 13.6411C49.6479 13.6411 50.2139 13.5603 50.7799 13.4796Z" fill="#303030"/>
<path d="M59.4322 60.6426C59.2705 60.6426 59.1088 60.5619 58.8663 60.5619C58.7854 60.5619 58.6237 60.5619 58.5428 60.4811C58.3811 60.4811 58.3003 60.4004 58.1385 60.4004C57.896 60.3196 57.5726 60.3196 57.2491 60.2389C56.9257 60.1581 56.6023 60.0773 56.2789 59.9966C56.1171 59.9966 55.9554 59.9158 55.7937 59.9158C55.632 59.8351 55.4703 59.8351 55.3086 59.7543C54.9851 59.6735 54.5809 59.5928 54.2574 59.4313C52.802 59.0275 51.5083 58.4622 50.4572 57.9776C50.2146 57.8161 49.9721 57.7353 49.8103 57.6546C49.7295 57.5738 49.6486 57.5738 49.5678 57.4931C49.4869 57.4123 49.4061 57.4123 49.3252 57.3315C49.0826 57.17 48.9209 57.0893 48.9209 57.0893C48.9209 57.0893 48.7592 57.0085 48.5166 56.847C48.2741 56.6855 47.8698 56.4432 47.3847 56.1202C46.4952 55.5549 45.2824 54.6665 44.1504 53.6974C43.0184 52.7283 42.0481 51.6784 41.3204 50.8709C41.2396 50.7901 41.1587 50.7093 41.0779 50.5478C40.997 50.4671 40.9162 50.3863 40.8353 50.3055C40.6736 50.144 40.5927 49.9825 40.5119 49.9017C40.431 49.821 40.3502 49.6595 40.2693 49.5787C40.1885 49.498 40.1885 49.498 40.1885 49.498C40.1885 49.498 40.1076 49.3364 39.865 49.0942C39.7842 48.9326 39.6224 48.8519 39.5416 48.6096C39.3799 48.4481 39.299 48.2058 39.1373 47.9635C39.0565 47.8828 38.9756 47.7213 38.8947 47.6405C38.8139 47.479 38.733 47.3982 38.6522 47.2367C38.4905 46.9944 38.3288 46.6714 38.167 46.4291C38.0053 46.1061 37.8436 45.8638 37.6819 45.5408C37.601 45.46 37.601 45.3793 37.5202 45.2985C37.5202 45.2177 37.4393 45.137 37.4393 45.0562C37.3585 44.8947 37.2776 44.7332 37.1968 44.5717C36.6308 43.2795 36.0648 41.9066 35.8222 40.8568C35.8222 40.6953 35.7414 40.6145 35.7414 40.453C35.7414 40.3722 35.6605 40.2107 35.6605 40.13C35.5796 39.8877 35.5796 39.7262 35.4988 39.5646C35.4179 39.2416 35.4179 39.0801 35.4179 39.0801C35.4179 39.0801 35.4179 38.9993 35.4179 38.9186C35.4179 38.8378 35.4179 38.6763 35.3371 38.5955C35.3371 38.434 35.2562 38.2725 35.2562 38.0302C35.2562 37.788 35.1753 37.5457 35.0945 37.3034C35.0945 37.0611 35.0137 36.7381 35.0137 36.4151C35.0137 36.3343 35.0137 36.2535 35.0137 36.1728C35.0137 36.092 35.0137 36.0113 35.0137 35.9305C35.0137 35.769 35.0137 35.6075 35.0137 35.446C34.9328 34.7999 34.9328 34.0731 34.9328 33.3462C34.9328 32.6194 34.9328 31.8926 35.0137 31.2465C35.0137 31.085 35.0137 30.9235 35.0137 30.762C35.0137 30.6812 35.0137 30.6004 35.0137 30.5197C35.0137 30.4389 35.0137 30.3582 35.0137 30.2774C35.0137 29.9544 35.0945 29.7121 35.0945 29.3891C35.0945 29.1468 35.1754 28.9045 35.2562 28.6622C35.2562 28.4199 35.3371 28.2584 35.3371 28.0969C35.3371 27.9354 35.4179 27.8546 35.4179 27.7739C35.4179 27.6931 35.4179 27.6124 35.4179 27.6124C35.4179 27.6124 35.4988 27.4508 35.4988 27.1278C35.4988 26.9663 35.5796 26.8048 35.6605 26.5625C35.6605 26.4817 35.7414 26.3202 35.7414 26.2395C35.7414 26.1587 35.8222 25.9972 35.8222 25.8357C36.1456 24.7858 36.6308 23.4937 37.1968 22.1208C37.2776 21.9593 37.3585 21.7977 37.4393 21.6362C37.4393 21.5555 37.5202 21.4747 37.5202 21.3939C37.601 21.3132 37.601 21.2324 37.6819 21.1517C37.8436 20.8286 38.0053 20.5056 38.167 20.2633C38.3288 19.9403 38.4905 19.698 38.6522 19.4557C38.733 19.2942 38.8139 19.2135 38.8947 19.0519C38.9756 18.8904 39.0565 18.8097 39.1373 18.7289C39.299 18.4866 39.4607 18.3251 39.5416 18.0828C39.7033 17.9213 39.7842 17.7598 39.865 17.5983C40.0267 17.356 40.1885 17.1945 40.1885 17.1945C40.1885 17.1945 40.1885 17.1945 40.2693 17.1137C40.3502 17.033 40.3502 16.9522 40.5119 16.7907C40.5927 16.6292 40.7544 16.5484 40.8353 16.3869C40.9162 16.3062 40.997 16.2254 41.0779 16.1446C41.1587 16.0639 41.2396 15.9831 41.3204 15.8216C42.0481 15.014 43.0184 13.9642 44.1504 12.995C45.2824 12.0259 46.4144 11.2184 47.3847 10.5723C47.8698 10.2493 48.2741 10.007 48.5166 9.84546C48.8401 9.68394 48.9209 9.60318 48.9209 9.60318C48.9209 9.60318 49.0826 9.52243 49.3252 9.36091C49.4061 9.36091 49.4869 9.28015 49.5678 9.19939C49.6486 9.11863 49.7295 9.11863 49.8103 9.03787C49.8912 9.03787 49.9721 8.95712 50.0529 8.95712C50.2146 8.95712 50.4572 8.95712 50.7806 8.95712C51.3466 8.95712 52.1552 8.7956 52.802 8.47256C53.1255 8.31105 53.4489 8.06877 53.7723 7.74574C53.934 7.58422 54.0957 7.50346 54.1766 7.34194C54.3383 7.18043 54.4192 7.09967 54.5809 6.93815C54.8234 6.69587 54.9852 6.4536 55.1469 6.29208C55.3086 6.13056 55.3894 6.0498 55.3894 6.0498C55.3894 6.0498 55.2277 6.0498 54.9851 6.0498C54.7426 6.0498 54.3383 6.0498 53.934 6.0498C53.8532 6.0498 53.6915 6.0498 53.6106 6.0498C53.5297 6.0498 53.368 6.0498 53.2872 6.13056C53.0446 6.13056 52.802 6.21132 52.5595 6.29208C52.0743 6.37284 51.67 6.53436 51.2658 6.77663C50.9423 6.93815 50.6189 7.18043 50.3764 7.4227C50.1338 7.66498 50.0529 7.90725 49.9721 8.14953C49.8912 8.39181 49.8103 8.55332 49.8103 8.71484V8.7956H49.7295C49.6486 8.87636 49.5678 8.87636 49.4061 8.95712C49.3252 9.03787 49.2444 9.03787 49.1635 9.11863C48.9209 9.28015 48.7592 9.36091 48.7592 9.36091C48.7592 9.36091 48.5975 9.44167 48.2741 9.60318C48.0315 9.7647 47.6272 10.007 47.1421 10.33C46.2527 10.9761 45.0398 11.7837 43.9078 12.7528C42.7759 13.7219 41.8056 14.7717 41.0779 15.5793C40.997 15.6601 40.9162 15.8216 40.8353 15.9024C40.7544 15.9831 40.6736 16.0639 40.5927 16.1446C40.431 16.3062 40.3502 16.4677 40.1885 16.6292C40.1076 16.7907 40.0267 16.8715 39.9459 16.9522C39.865 17.033 39.865 17.033 39.865 17.033C39.865 17.033 39.7842 17.1945 39.5416 17.4368C39.4607 17.5983 39.299 17.7598 39.2182 17.9213C39.0565 18.0828 38.9756 18.3251 38.8139 18.5674C38.733 18.6482 38.6522 18.8097 38.5713 18.8904C38.4905 19.0519 38.4096 19.1327 38.3287 19.2942C38.167 19.5365 38.0053 19.8595 37.8436 20.1018C37.6819 20.4248 37.5202 20.7479 37.3585 20.9902C37.2776 21.0709 37.2776 21.1517 37.1968 21.2324C37.1968 21.3132 37.1159 21.3939 37.1159 21.4747C37.035 21.6362 36.9542 21.7977 36.8733 21.9593C36.2265 23.2514 35.7413 24.6243 35.4988 25.6742C35.4988 25.8357 35.4179 25.9164 35.4179 26.0779C35.4179 26.1587 35.3371 26.3202 35.3371 26.401C35.2562 26.6433 35.2562 26.8048 35.1754 26.9663C35.0945 27.2893 35.0945 27.4508 35.0945 27.4508C35.0945 27.4508 35.0945 27.5316 35.0945 27.6124C35.0945 27.6931 35.0945 27.8546 35.0137 27.9354C35.0137 28.0969 34.9328 28.2584 34.9328 28.5007C34.9328 28.743 34.8519 28.9853 34.7711 29.2275C34.7711 29.4698 34.6902 29.7928 34.6902 30.1159C34.6902 30.1966 34.6902 30.2774 34.6902 30.3582C34.6902 30.4389 34.6902 30.5197 34.6902 30.6004C34.6902 30.762 34.6902 30.9235 34.6902 31.085C34.6094 31.7311 34.6094 32.4579 34.6094 33.1847C34.6094 33.9115 34.6094 34.6384 34.6902 35.2844C34.6902 35.446 34.6902 35.6075 34.6902 35.769C34.6902 35.8497 34.6902 35.9305 34.6902 36.0113C34.6902 36.092 34.6902 36.1728 34.6902 36.2535C34.6902 36.5766 34.7711 36.8188 34.7711 37.1419C34.7711 37.3842 34.8519 37.6264 34.9328 37.8687C34.9328 38.111 35.0137 38.2725 35.0137 38.434C35.0137 38.5955 35.0945 38.6763 35.0945 38.7571C35.0945 38.8378 35.0945 38.9186 35.0945 38.9186C35.0945 38.9186 35.1754 39.0801 35.1754 39.4031C35.1754 39.5646 35.2562 39.7262 35.3371 39.9684C35.3371 40.0492 35.4179 40.2107 35.4179 40.2915C35.4179 40.3722 35.4988 40.5337 35.4988 40.6953C35.8222 41.7451 36.3073 43.118 36.8733 44.4102C36.9542 44.5717 37.035 44.7332 37.1159 44.8947C37.1159 44.9755 37.1968 45.0562 37.1968 45.137C37.2776 45.2177 37.2776 45.2985 37.3585 45.3793C37.5202 45.7023 37.6819 46.0253 37.8436 46.2676C38.0053 46.5906 38.167 46.8329 38.3287 47.0752C38.4096 47.2367 38.4905 47.3175 38.5713 47.479C38.6522 47.6405 38.733 47.7213 38.8139 47.802C38.9756 48.0443 39.1373 48.2058 39.2182 48.4481C39.3799 48.6096 39.4607 48.7711 39.5416 48.9326C39.7033 49.1749 39.865 49.3364 39.865 49.3364C39.865 49.3364 39.865 49.3364 39.9459 49.4172C40.0267 49.498 40.1076 49.5787 40.1885 49.7402C40.2693 49.9017 40.431 49.9825 40.5927 50.2248C40.6736 50.3055 40.7544 50.3863 40.8353 50.4671C40.9162 50.5478 40.997 50.6286 41.0779 50.7901C41.8056 51.5977 42.8567 52.6475 43.9078 53.6166C45.0398 54.5858 46.2527 55.4741 47.1421 56.0394C47.6272 56.3624 48.0315 56.6047 48.2741 56.7662C48.5975 56.9277 48.7592 57.0085 48.7592 57.0085C48.7592 57.0085 48.9209 57.0893 49.1635 57.2508C49.2444 57.2508 49.3252 57.3315 49.4061 57.4123C49.4869 57.4931 49.5678 57.4931 49.7295 57.5738C49.9721 57.6546 50.1338 57.8161 50.3764 57.8969C51.3466 58.3814 52.7212 58.9467 54.1766 59.3505C54.5 59.512 54.9043 59.5928 55.2277 59.6735C55.3894 59.7543 55.5511 59.7543 55.7937 59.8351C55.9554 59.9158 56.1171 59.9158 56.2789 59.9158C56.6023 59.9966 56.9257 60.0773 57.2491 60.1581C57.5726 60.2389 57.896 60.2389 58.1385 60.3196C58.3003 60.3196 58.3811 60.4004 58.5428 60.4004C58.7045 60.4004 58.7854 60.4004 58.8663 60.4811C59.1088 60.4811 59.2705 60.5619 59.4322 60.5619C59.7557 60.5619 59.9174 60.6426 59.9174 60.6426V60.4004C59.9982 60.7234 59.7557 60.7234 59.4322 60.6426Z" fill="#303030"/>
<path d="M56.2773 60.4002C56.2773 60.4002 60.1584 61.3693 61.0479 65.0034L60.967 60.804L56.5199 60.2386L56.2773 60.4002Z" fill="#303030"/>
</g>
<path d="M68.9306 94.7857C68.0466 94.7857 67.2299 94.6279 66.4802 94.3124C65.7418 93.9856 65.0928 93.5292 64.5334 92.9433C63.9851 92.3573 63.5599 91.67 63.2578 90.8812C62.9557 90.0924 62.8047 89.2304 62.8047 88.2951C62.8047 87.3486 62.9557 86.481 63.2578 85.6922C63.5599 84.9034 63.9851 84.216 64.5334 83.6301C65.0816 83.0441 65.7306 82.5934 66.4802 82.2779C67.2299 81.9511 68.0466 81.7877 68.9306 81.7877C69.7921 81.7877 70.5641 81.9398 71.2466 82.2441C71.9404 82.5483 72.5222 82.9427 72.9921 83.4273C73.4732 83.9118 73.8145 84.4301 74.0159 84.9823L72.5054 85.6753C72.2145 84.9766 71.7613 84.4132 71.1459 83.985C70.5306 83.5456 69.7921 83.3258 68.9306 83.3258C68.0578 83.3258 67.2802 83.5343 66.5977 83.9512C65.9264 84.3682 65.4005 84.9485 65.0201 85.6922C64.6397 86.4359 64.4494 87.3035 64.4494 88.2951C64.4494 89.2755 64.6397 90.1375 65.0201 90.8812C65.4005 91.6249 65.9264 92.2052 66.5977 92.6222C67.2802 93.0391 68.0578 93.2475 68.9306 93.2475C69.7921 93.2475 70.5306 93.0334 71.1459 92.6053C71.7613 92.1658 72.2145 91.5967 72.5054 90.8981L74.0159 91.5911C73.8145 92.1433 73.4732 92.6616 72.9921 93.1461C72.5222 93.6307 71.9404 94.0251 71.2466 94.3293C70.5641 94.6335 69.7921 94.7857 68.9306 94.7857Z" fill="#303030"/>
<path d="M76.253 94.5828V81.9905H84.3929V83.5118H77.8978V87.5007H84.0572V89.0219H77.8978V93.0616H84.3929V94.5828H76.253Z" fill="#303030"/>
<path d="M86.4311 94.5828V81.9905H90.8451C91.6731 81.9905 92.4004 82.1483 93.0269 82.4638C93.6535 82.7793 94.1402 83.2301 94.4871 83.816C94.8451 84.402 95.0241 85.0893 95.0241 85.8781C95.0241 86.7683 94.8004 87.5233 94.3528 88.143C93.9053 88.7628 93.3011 89.2079 92.5402 89.4783L95.4437 94.5828H93.5304L90.4759 89.1234L91.5668 89.7656H88.0759V94.5828H86.4311ZM88.0759 88.2444H90.8955C91.3878 88.2444 91.8185 88.1487 92.1878 87.9571C92.557 87.7655 92.8423 87.4895 93.0437 87.1289C93.2563 86.7683 93.3626 86.3514 93.3626 85.8781C93.3626 85.3936 93.2563 84.9766 93.0437 84.6273C92.8423 84.2667 92.557 83.9907 92.1878 83.7991C91.8185 83.6075 91.3878 83.5118 90.8955 83.5118H88.0759V88.2444Z" fill="#303030"/>
<path d="M99.168 94.5828V83.5118H95.7778V81.9905H104.169V83.5118H100.83V94.5828H99.168Z" fill="#303030"/>
<path d="M105.755 94.5828V81.9905H107.4V94.5828H105.755Z" fill="#303030"/>
<path d="M110.18 94.5828V81.9905H111.825V89.0727L111.422 88.9036L117.397 81.9905H119.461L114.443 87.8219L114.527 86.6387L119.713 94.5828H117.749L113.788 88.5994L111.825 90.8643V94.5828H110.18Z" fill="#303030"/>
</svg>
