<svg width="180" height="120" viewBox="0 0 180 120" fill="none" xmlns="http://www.w3.org/2000/svg">
<path d="M70.0156 114.849V106.245H72.9026C73.5729 106.245 74.1208 106.367 74.5464 106.611C74.9747 106.851 75.2918 107.178 75.4976 107.589C75.7034 108.001 75.8063 108.46 75.8063 108.967C75.8063 109.474 75.7034 109.935 75.4976 110.349C75.2946 110.764 74.9803 111.094 74.5547 111.341C74.1292 111.585 73.584 111.706 72.9193 111.706H70.85V110.782H72.8859C73.3449 110.782 73.7134 110.702 73.9915 110.543C74.2696 110.383 74.4713 110.167 74.5964 109.896C74.7244 109.621 74.7884 109.312 74.7884 108.967C74.7884 108.623 74.7244 108.315 74.5964 108.043C74.4713 107.771 74.2682 107.559 73.9873 107.405C73.7064 107.248 73.3337 107.169 72.8692 107.169H71.0503V114.849H70.0156Z" fill="#717171"/>
<path d="M79.2252 115C78.8192 115 78.4506 114.923 78.1197 114.769C77.7887 114.612 77.5259 114.387 77.3312 114.092C77.1365 113.796 77.0391 113.437 77.0391 113.017C77.0391 112.647 77.1114 112.348 77.2561 112.118C77.4007 111.886 77.594 111.704 77.836 111.572C78.0779 111.44 78.345 111.342 78.637 111.278C78.9318 111.211 79.228 111.157 79.5256 111.118C79.915 111.068 80.2307 111.03 80.4727 111.005C80.7174 110.977 80.8954 110.931 81.0067 110.866C81.1207 110.802 81.1777 110.69 81.1777 110.53V110.496C81.1777 110.082 81.0651 109.76 80.8398 109.53C80.6173 109.301 80.2794 109.186 79.826 109.186C79.356 109.186 78.9874 109.289 78.7204 109.497C78.4534 109.704 78.2657 109.925 78.1572 110.16L77.2227 109.824C77.3896 109.432 77.6121 109.127 77.8902 108.909C78.1711 108.687 78.4771 108.533 78.808 108.446C79.1418 108.357 79.47 108.312 79.7926 108.312C79.9984 108.312 80.2349 108.337 80.5019 108.388C80.7716 108.435 81.0317 108.535 81.282 108.686C81.5351 108.837 81.7451 109.065 81.912 109.371C82.0789 109.676 82.1623 110.085 82.1623 110.597V114.849H81.1777V113.975H81.1277C81.0609 114.115 80.9496 114.265 80.7939 114.424C80.6381 114.584 80.4309 114.72 80.1723 114.832C79.9136 114.944 79.5979 115 79.2252 115ZM79.3754 114.109C79.7648 114.109 80.093 114.032 80.36 113.878C80.6298 113.724 80.8328 113.525 80.9691 113.282C81.1082 113.038 81.1777 112.782 81.1777 112.513V111.606C81.136 111.656 81.0442 111.702 80.9024 111.744C80.7633 111.783 80.602 111.818 80.4184 111.849C80.2376 111.877 80.061 111.902 79.8886 111.925C79.7189 111.944 79.5812 111.961 79.4756 111.975C79.2197 112.009 78.9805 112.063 78.758 112.139C78.5383 112.212 78.3602 112.322 78.224 112.471C78.0905 112.617 78.0237 112.815 78.0237 113.067C78.0237 113.412 78.1503 113.672 78.4034 113.849C78.6592 114.022 78.9833 114.109 79.3754 114.109Z" fill="#717171"/>
<path d="M83.9594 114.849V108.396H84.9106V109.371H84.9773C85.0941 109.051 85.3055 108.792 85.6115 108.593C85.9174 108.395 86.2623 108.295 86.6461 108.295C86.7184 108.295 86.8088 108.297 86.9173 108.299C87.0258 108.302 87.1078 108.306 87.1634 108.312V109.32C87.1301 109.312 87.0536 109.299 86.934 109.282C86.8172 109.263 86.6934 109.253 86.5627 109.253C86.2512 109.253 85.973 109.319 85.7283 109.45C85.4863 109.579 85.2944 109.759 85.1526 109.988C85.0135 110.215 84.944 110.474 84.944 110.765V114.849H83.9594Z" fill="#717171"/>
<path d="M91.519 108.396V109.236H88.1981V108.396H91.519ZM89.166 106.85H90.1506V113C90.1506 113.28 90.1909 113.49 90.2716 113.63C90.355 113.768 90.4607 113.86 90.5886 113.908C90.7193 113.952 90.857 113.975 91.0016 113.975C91.1101 113.975 91.1991 113.969 91.2687 113.958C91.3382 113.944 91.3938 113.933 91.4355 113.924L91.6358 114.815C91.569 114.84 91.4759 114.865 91.3563 114.891C91.2367 114.919 91.0851 114.933 90.9015 114.933C90.6234 114.933 90.3508 114.872 90.0838 114.752C89.8196 114.632 89.5999 114.448 89.4246 114.202C89.2522 113.955 89.166 113.644 89.166 113.269V106.85Z" fill="#717171"/>
<path d="M93.9846 110.967V114.849H93V108.396H93.9512V109.404H94.0347C94.1849 109.077 94.4129 108.813 94.7189 108.614C95.0248 108.413 95.4198 108.312 95.9037 108.312C96.3376 108.312 96.7172 108.402 97.0427 108.581C97.3681 108.757 97.6212 109.026 97.8019 109.387C97.9827 109.746 98.0731 110.2 98.0731 110.749V114.849H97.0885V110.816C97.0885 110.309 96.9578 109.914 96.6964 109.631C96.4349 109.345 96.0761 109.203 95.62 109.203C95.3057 109.203 95.0248 109.271 94.7773 109.408C94.5325 109.546 94.3392 109.746 94.1974 110.009C94.0555 110.272 93.9846 110.592 93.9846 110.967Z" fill="#717171"/>
<path d="M102.559 114.983C101.942 114.983 101.409 114.846 100.961 114.571C100.516 114.294 100.173 113.908 99.9307 113.412C99.6915 112.913 99.5719 112.334 99.5719 111.673C99.5719 111.012 99.6915 110.429 99.9307 109.925C100.173 109.418 100.509 109.023 100.94 108.74C101.374 108.455 101.88 108.312 102.459 108.312C102.793 108.312 103.122 108.368 103.448 108.48C103.773 108.592 104.069 108.774 104.336 109.026C104.603 109.275 104.816 109.606 104.975 110.018C105.133 110.429 105.212 110.936 105.212 111.538V111.958H100.273V111.101H104.211C104.211 110.737 104.139 110.412 103.994 110.127C103.852 109.841 103.649 109.616 103.385 109.45C103.124 109.285 102.815 109.203 102.459 109.203C102.067 109.203 101.727 109.301 101.441 109.497C101.157 109.69 100.939 109.942 100.786 110.253C100.633 110.564 100.556 110.897 100.556 111.253V111.824C100.556 112.311 100.64 112.724 100.807 113.063C100.976 113.399 101.211 113.656 101.512 113.832C101.812 114.006 102.161 114.092 102.559 114.092C102.818 114.092 103.051 114.056 103.26 113.983C103.471 113.908 103.653 113.796 103.806 113.647C103.959 113.496 104.078 113.308 104.161 113.084L105.112 113.353C105.012 113.678 104.844 113.964 104.607 114.21C104.371 114.454 104.079 114.644 103.731 114.781C103.384 114.916 102.993 114.983 102.559 114.983Z" fill="#717171"/>
<path d="M106.71 114.849V108.396H107.661V109.371H107.728C107.845 109.051 108.056 108.792 108.362 108.593C108.668 108.395 109.013 108.295 109.397 108.295C109.469 108.295 109.56 108.297 109.668 108.299C109.777 108.302 109.859 108.306 109.914 108.312V109.32C109.881 109.312 109.804 109.299 109.685 109.282C109.568 109.263 109.444 109.253 109.313 109.253C109.002 109.253 108.724 109.319 108.479 109.45C108.237 109.579 108.045 109.759 107.903 109.988C107.764 110.215 107.695 110.474 107.695 110.765V114.849H106.71Z" fill="#717171"/>
<g opacity="0.15">
<path d="M126.47 60.0692C126.632 60.0692 126.794 60.0692 127.036 60.0692C127.117 60.0692 127.117 60.0692 127.198 60.0692C127.279 60.0692 127.279 60.0692 127.36 60.0692C127.44 60.0692 127.602 60.1499 127.683 60.1499C128.087 60.2307 128.572 60.4729 129.058 60.6344C129.543 60.7959 129.947 61.0381 130.351 61.2803C130.756 61.5226 131.16 61.6841 131.402 61.8456C131.645 62.0071 131.807 62.0878 131.807 62.0878C131.807 62.0878 131.807 62.0878 131.726 62.1686C131.645 62.1686 131.564 62.2493 131.402 62.2493C131.079 62.3301 130.675 62.4108 130.27 62.4915C130.19 62.4915 130.028 62.5723 129.947 62.5723C129.785 62.5723 129.704 62.5723 129.543 62.653C129.3 62.653 129.058 62.7338 128.734 62.7338C128.249 62.7338 127.683 62.653 127.279 62.5723C126.389 62.3301 125.823 61.7648 125.419 61.3611C125.015 60.8766 124.853 60.5536 124.853 60.5536C124.853 60.5536 125.176 60.3921 125.662 60.2306C125.823 60.0692 126.066 60.0692 126.47 60.0692Z" fill="#303030"/>
<path d="M125.097 56.5161C125.34 56.1932 125.583 55.8702 125.825 55.6279C125.987 55.4664 126.149 55.3857 126.229 55.2242C126.31 55.1435 126.391 55.1435 126.472 55.0627C126.553 54.982 126.634 54.982 126.715 54.9012C126.957 54.659 127.2 54.4975 127.442 54.4167C127.604 54.2552 127.766 54.2552 127.766 54.2552C127.766 54.2552 127.766 54.4167 127.766 54.659C127.766 54.9012 127.766 55.305 127.685 55.7087C127.604 56.1124 127.523 56.5969 127.442 57.0006C127.28 57.4044 127.119 57.8888 126.876 58.2118C126.795 58.2926 126.795 58.3733 126.715 58.4541L126.634 58.5348L126.553 58.6156C126.391 58.777 126.31 58.8578 126.148 58.9385C125.987 59.0193 125.906 59.1 125.744 59.1808C125.583 59.2615 125.502 59.2615 125.34 59.3423C124.855 59.5038 124.531 59.423 124.531 59.423C124.531 59.423 124.451 59.0193 124.531 58.4541C124.531 58.1311 124.612 57.8081 124.693 57.4851C124.693 57.4044 124.774 57.3236 124.774 57.2429C124.774 57.1621 124.855 57.0814 124.855 57.0006C124.855 56.8391 124.936 56.6776 125.097 56.5161Z" fill="#303030"/>
<path d="M131.97 57.485C131.97 57.485 132.051 57.4043 132.132 57.4043C132.212 57.3235 132.455 57.162 132.617 57.0813C132.698 57.0005 132.859 56.9198 133.021 56.9198C133.183 56.839 133.344 56.839 133.506 56.7583C133.83 56.6775 134.234 56.5968 134.638 56.5968C134.881 56.5968 135.123 56.5968 135.366 56.6775C135.608 56.6775 135.851 56.7583 136.093 56.7583C136.336 56.7583 136.579 56.839 136.821 56.9198C137.064 57.0005 137.306 57.0005 137.549 57.0813C138.034 57.162 138.438 57.2428 138.681 57.3235C139.004 57.4043 139.166 57.4043 139.166 57.4043C139.166 57.4043 139.004 57.485 138.762 57.6465C138.6 57.7272 138.519 57.808 138.277 57.8887C138.196 57.9695 138.115 57.9695 138.034 58.0502C137.953 58.131 137.872 58.131 137.711 58.2117C137.468 58.2925 137.306 58.3732 137.064 58.5347C136.983 58.6155 136.821 58.6155 136.74 58.6962C136.659 58.6962 136.659 58.7769 136.579 58.7769C136.498 58.7769 136.417 58.7769 136.417 58.8577C135.932 59.0192 135.447 59.0999 134.961 59.0999C133.991 59.0999 133.264 58.6962 132.778 58.3732C132.536 58.2117 132.374 58.0502 132.212 57.8887C131.97 57.6465 131.889 57.485 131.97 57.485C131.889 57.485 131.97 57.485 131.97 57.485Z" fill="#303030"/>
<path d="M133.264 54.7395C133.183 55.1432 132.941 55.4662 132.779 55.7084C132.698 55.8699 132.536 55.9507 132.455 56.0314C132.375 56.1122 132.213 56.1929 132.132 56.2736C131.89 56.4351 131.728 56.5159 131.566 56.5159C131.485 56.5159 131.404 56.5159 131.404 56.5966C131.324 56.5966 131.324 56.5966 131.324 56.5966C131.324 56.5966 131.243 56.5159 131.243 56.3544C131.162 56.1929 131.162 55.9507 131.081 55.7084C131 55.1432 130.919 54.4165 131.162 53.6898C131.243 53.286 131.404 52.963 131.647 52.6401C131.809 52.3171 132.051 51.9941 132.294 51.7519C132.375 51.5904 132.536 51.5096 132.617 51.3481C132.698 51.2674 132.779 51.1059 132.86 51.0251C133.021 50.8636 133.102 50.7829 133.102 50.7829C133.102 50.7829 133.183 50.9444 133.183 51.1866C133.264 51.4289 133.345 51.8326 133.345 52.2363C133.345 52.4786 133.426 52.6401 133.426 52.8823C133.426 53.1245 133.426 53.3668 133.426 53.5283C133.426 53.7705 133.426 54.0128 133.345 54.1742C133.345 54.3357 133.345 54.578 133.264 54.7395Z" fill="#303030"/>
<path d="M138.355 52.398C138.435 52.2366 138.597 52.0751 138.759 51.9136C138.921 51.7521 139.163 51.5098 139.487 51.3483C139.81 51.1869 140.133 51.0254 140.538 50.8639C140.699 50.8639 140.861 50.7831 141.023 50.7831C141.185 50.7831 141.346 50.7024 141.508 50.7024C142.317 50.5409 143.206 50.5409 143.934 50.4601C144.661 50.4601 145.146 50.3794 145.146 50.3794C145.146 50.3794 144.985 50.6216 144.661 50.9446C144.419 51.2676 143.934 51.6713 143.448 52.0751C143.368 52.1558 143.287 52.1558 143.206 52.2366L143.125 52.3173C143.125 52.3173 143.044 52.398 142.963 52.398C142.802 52.4788 142.64 52.6403 142.478 52.721C142.317 52.8018 142.155 52.8825 141.993 52.9633C141.831 53.044 141.67 53.1248 141.508 53.1248C140.619 53.367 139.81 53.2055 139.244 53.044C138.678 52.8018 138.355 52.5595 138.355 52.5595C138.355 52.5595 138.274 52.4788 138.355 52.398Z" fill="#303030"/>
<path d="M138.114 51.3483C137.952 51.5098 137.79 51.6713 137.709 51.7521C137.548 51.8328 137.467 51.8328 137.467 51.8328C137.467 51.8328 137.224 51.5098 136.901 51.0254C136.658 50.5409 136.335 49.8142 136.335 49.0067C136.335 48.7645 136.335 48.4415 136.416 48.1185C136.416 47.957 136.497 47.8763 136.497 47.7148C136.497 47.5533 136.577 47.4725 136.577 47.311C136.658 47.0688 136.739 46.9073 136.82 46.6651C136.82 46.5843 136.901 46.5843 136.901 46.5036C136.901 46.4228 136.901 46.4228 136.982 46.3421C136.982 46.2613 137.063 46.1806 137.063 46.0998C137.224 45.7769 137.305 45.6154 137.305 45.6154C137.305 45.6154 137.548 46.0191 137.871 46.5843C137.952 46.7458 138.033 46.9073 138.114 47.0688C138.114 47.1495 138.195 47.2303 138.195 47.311C138.195 47.3918 138.275 47.4725 138.275 47.5533C138.437 47.8763 138.518 48.28 138.599 48.6837C138.599 48.8452 138.68 49.0067 138.68 49.0874C138.68 49.2489 138.68 49.3297 138.68 49.4912C138.68 49.8949 138.599 50.2179 138.518 50.5409C138.437 50.8639 138.275 51.1061 138.114 51.3483Z" fill="#303030"/>
<path d="M144.419 46.3422C144.258 46.3422 144.096 46.3422 143.934 46.3422C143.287 46.3422 142.964 46.1807 142.964 46.1807C142.964 46.1807 142.964 46.0999 143.045 45.9385C143.045 45.8577 143.126 45.777 143.126 45.6962C143.126 45.6155 143.206 45.5347 143.287 45.3732C143.368 45.131 143.53 44.8888 143.772 44.6465C143.853 44.5658 143.853 44.5658 143.934 44.485C144.015 44.4043 144.096 44.3235 144.177 44.3235C144.338 44.162 144.5 44.0813 144.662 44.0005C144.824 43.9198 145.066 43.7583 145.309 43.6776C145.551 43.5968 145.713 43.4353 145.956 43.3546C146.441 43.1931 146.926 42.9508 147.33 42.8701C147.734 42.7086 148.139 42.5471 148.462 42.4664C148.705 42.3856 148.947 42.3049 148.947 42.3049C148.947 42.3049 148.866 42.4664 148.786 42.7086C148.705 42.8701 148.624 43.0316 148.543 43.1931C148.462 43.3546 148.3 43.5161 148.22 43.7583C148.139 43.9198 147.977 44.162 147.815 44.3235C147.815 44.4043 147.734 44.4043 147.734 44.485C147.734 44.5658 147.654 44.5658 147.654 44.6465C147.573 44.7273 147.492 44.808 147.411 44.9695C147.249 45.131 147.088 45.3732 146.845 45.5347C146.764 45.6155 146.683 45.6962 146.602 45.777C146.522 45.8577 146.441 45.9385 146.279 45.9385C145.875 46.1807 145.47 46.3422 145.066 46.3422C144.743 46.2614 144.581 46.3422 144.419 46.3422Z" fill="#303030"/>
<path d="M142.645 44.1619C142.645 44.4849 142.483 44.7272 142.402 44.9694C142.321 45.0501 142.321 45.2116 142.24 45.2924C142.159 45.3731 142.159 45.4539 142.079 45.5346C141.998 45.6154 141.917 45.6961 141.917 45.6961C141.917 45.6961 141.593 45.4539 141.189 45.0501C141.108 44.9694 141.027 44.8079 140.866 44.7272C140.785 44.5657 140.623 44.4849 140.542 44.3234C140.381 44.0004 140.138 43.6775 140.057 43.3545C140.057 43.2737 139.976 43.193 139.976 43.1122C139.976 43.0315 139.895 42.9507 139.895 42.7893C139.895 42.6278 139.815 42.3855 139.815 42.224C139.815 41.8203 139.815 41.4166 139.815 41.0936C139.815 40.9321 139.815 40.7706 139.895 40.6091C139.895 40.4476 139.895 40.3669 139.895 40.2054C139.895 39.9631 139.976 39.8824 139.976 39.8824C139.976 39.8824 140.138 39.9631 140.3 40.2054C140.461 40.3669 140.785 40.6898 141.027 40.9321C141.27 41.2551 141.593 41.5781 141.836 41.9818C141.998 42.1433 142.079 42.3855 142.159 42.547C142.24 42.7085 142.321 42.9507 142.402 43.1122C142.483 43.2737 142.483 43.516 142.483 43.6775C142.483 43.7582 142.483 43.839 142.483 43.9197C142.483 44.0004 142.483 44.0004 142.483 44.0812C142.645 44.0812 142.645 44.1619 142.645 44.1619Z" fill="#303030"/>
<path d="M147.979 38.3483C147.817 38.429 147.655 38.5905 147.493 38.6713C147.17 38.8328 146.847 38.9135 146.523 38.9942C145.957 39.075 145.472 39.075 145.472 39.075C145.472 39.075 145.391 38.752 145.553 38.2675C145.553 38.106 145.634 38.0253 145.634 37.8638C145.715 37.7023 145.715 37.5408 145.795 37.4601C145.876 37.2986 145.957 37.1371 146.038 36.9756C146.119 36.8948 146.119 36.8141 146.2 36.7333L146.281 36.6526L146.361 36.5719C146.927 35.9259 147.898 35.2799 148.625 34.7954C149.03 34.5532 149.353 34.311 149.596 34.1495C149.838 33.988 150 33.9072 150 33.9072C150 33.9072 150 34.0687 149.919 34.3917C149.838 34.7147 149.757 35.0377 149.677 35.5222C149.515 35.9259 149.353 36.4104 149.191 36.8948C149.111 36.9756 149.111 37.1371 149.03 37.2178C148.949 37.2986 148.868 37.4601 148.868 37.5408C148.706 37.783 148.545 37.9445 148.464 38.106C148.302 38.0253 148.14 38.1868 147.979 38.3483Z" fill="#303030"/>
<path d="M144.339 38.8327C144.339 38.8327 143.935 38.6712 143.45 38.429C143.207 38.2675 142.884 38.106 142.641 37.8637C142.48 37.783 142.399 37.6215 142.237 37.46C142.075 37.2985 141.995 37.137 141.914 36.9755C141.833 36.814 141.752 36.6525 141.59 36.491C141.51 36.3295 141.429 36.1681 141.348 35.9258C141.186 35.5221 141.105 35.1991 141.024 34.8761C140.944 34.5531 140.863 34.2301 140.863 34.0687C140.863 33.8264 140.863 33.7457 140.863 33.7457C140.863 33.7457 141.024 33.8264 141.267 33.9072C141.51 34.0687 141.833 34.2301 142.156 34.4724C142.48 34.7146 142.884 34.9569 143.207 35.2798C143.531 35.6028 143.854 35.9258 144.097 36.2488C144.178 36.4103 144.259 36.5718 144.339 36.7333C144.42 36.8948 144.42 37.0563 144.501 37.2178C144.501 37.3793 144.582 37.5407 144.582 37.7022C144.582 37.8637 144.582 37.9445 144.582 38.106C144.501 38.5097 144.339 38.8327 144.339 38.8327Z" fill="#303030"/>
<path d="M148.869 27.6898C148.869 27.8513 148.788 28.0936 148.788 28.2551C148.707 28.6588 148.626 28.9818 148.464 29.3048C148.222 29.7085 147.979 30.0315 147.737 30.2737C147.494 30.516 147.171 30.6774 146.928 30.8389C146.362 31.0812 145.958 31.1619 145.958 31.1619C145.958 31.1619 145.958 31.0812 145.877 30.9197C145.877 30.7582 145.796 30.5967 145.796 30.3545C145.796 30.1122 145.796 29.7892 145.877 29.4662C145.958 29.1433 146.039 28.8203 146.2 28.4165C146.281 28.2551 146.362 28.1743 146.443 28.0128C146.524 27.9321 146.524 27.8513 146.605 27.8513C146.686 27.7706 146.686 27.6898 146.767 27.6898C147.009 27.3668 147.252 27.0439 147.494 26.7209C147.737 26.3979 147.979 26.0749 148.222 25.8327C148.626 25.2674 148.95 24.9445 148.95 24.9445C148.95 24.9445 149.03 25.1867 149.03 25.6712C149.03 25.9134 149.111 26.1557 149.111 26.3979C149.111 26.6401 149.111 26.9631 149.111 27.2861C148.95 27.3668 148.95 27.5283 148.869 27.6898Z" fill="#303030"/>
<path d="M141.912 30.1121C141.831 30.0314 141.831 30.0314 141.75 29.9506C141.67 29.8699 141.67 29.8699 141.589 29.7891C141.508 29.7084 141.427 29.5469 141.265 29.4662C141.185 29.3854 141.104 29.2239 141.023 29.1432C140.942 28.9817 140.861 28.9009 140.78 28.8202C140.619 28.6587 140.538 28.4165 140.457 28.255C140.376 28.1742 140.376 28.0935 140.295 28.0127C140.295 27.932 140.214 27.8512 140.133 27.7705C139.972 27.4475 139.891 27.286 139.891 27.286C139.891 27.286 140.376 27.3668 141.023 27.5282C141.185 27.609 141.346 27.609 141.508 27.6897C141.67 27.7705 141.831 27.7705 142.074 27.8512C142.397 28.0127 142.802 28.1742 143.125 28.3357C143.368 28.4972 143.61 28.6587 143.853 28.8202C144.176 29.0624 144.419 29.3854 144.5 29.6277C144.661 29.9506 144.742 30.1929 144.742 30.4351C144.742 30.6774 144.742 30.8388 144.742 31.0003C144.742 31.1618 144.661 31.2426 144.661 31.2426C144.661 31.2426 144.257 31.2426 143.691 31.0811C143.206 30.9196 142.478 30.6774 141.912 30.1121Z" fill="#303030"/>
<path d="M145.471 22.1184C145.309 22.4414 145.067 22.6836 144.824 22.9258C144.42 23.3296 144.016 23.4911 144.016 23.4911C144.016 23.4911 143.935 23.4103 143.854 23.3296C143.773 23.1681 143.692 23.0066 143.611 22.7643C143.531 22.5221 143.45 22.2799 143.369 21.9569C143.369 21.7954 143.369 21.6339 143.369 21.3917C143.369 21.2302 143.369 20.9879 143.45 20.8264C143.45 20.5842 143.531 20.4227 143.611 20.1805C143.611 20.0997 143.692 19.9382 143.692 19.8575C143.692 19.7767 143.773 19.6152 143.773 19.5345C143.935 19.05 144.097 18.6463 144.339 18.1618C144.42 17.9196 144.501 17.7581 144.582 17.5966C144.663 17.4351 144.743 17.2736 144.824 17.1121C144.905 16.8699 144.986 16.7084 144.986 16.7084C144.986 16.7084 145.067 16.8699 145.229 17.1121C145.309 17.2736 145.39 17.4351 145.39 17.5966C145.471 17.7581 145.552 18.0003 145.633 18.1618C145.633 18.2426 145.714 18.404 145.714 18.4848C145.714 18.5655 145.795 18.727 145.795 18.8078C145.875 19.05 145.875 19.2923 145.956 19.5345C145.956 19.7767 146.037 20.019 146.037 20.2612C146.037 20.5035 146.037 20.7457 145.956 20.9879C145.795 21.4724 145.633 21.7954 145.471 22.1184Z" fill="#303030"/>
<path d="M139.327 23.3295C139.165 23.2488 139.004 23.0873 138.842 23.0065C138.68 22.845 138.519 22.7643 138.438 22.6028C138.276 22.4413 138.195 22.3606 138.033 22.1991C137.872 22.0376 137.791 21.9568 137.71 21.8761C137.629 21.7953 137.629 21.7953 137.548 21.7146C137.467 21.6338 137.467 21.6338 137.467 21.5531C137.306 21.3916 137.225 21.3109 137.225 21.3109C137.225 21.3109 137.387 21.3109 137.629 21.3109C137.872 21.3109 138.276 21.3109 138.68 21.3109C139.085 21.3109 139.57 21.3916 140.055 21.4723C140.136 21.4723 140.297 21.5531 140.378 21.5531C140.459 21.5531 140.621 21.6338 140.702 21.6338C140.944 21.7146 141.106 21.7953 141.348 21.8761C141.51 21.9568 141.672 22.0376 141.834 22.1991C141.995 22.2798 142.076 22.4413 142.238 22.522C142.48 22.7643 142.642 23.0065 142.723 23.2488C142.804 23.491 142.885 23.6525 142.885 23.814C142.885 23.9755 142.885 24.0562 142.885 24.0562C142.885 24.0562 142.48 24.137 141.914 24.137C141.591 24.137 141.268 24.137 140.944 24.0562C140.621 23.9755 140.216 23.8947 139.812 23.7332C139.65 23.5717 139.489 23.4103 139.327 23.3295Z" fill="#303030"/>
<path d="M141.188 15.2549C141.107 15.5779 140.945 15.9009 140.784 16.1431C140.46 16.6276 140.137 16.9506 140.137 16.9506C140.137 16.9506 139.813 16.7891 139.49 16.3854C139.409 16.3046 139.328 16.1431 139.247 16.0624C139.167 15.9009 139.086 15.8201 139.005 15.6587C138.843 15.3357 138.762 15.0127 138.762 14.5282C138.681 14.1245 138.762 13.64 138.762 13.1555C138.762 12.671 138.843 12.1866 138.924 11.7021C139.005 11.2176 139.005 10.8946 139.086 10.5716C139.166 10.3294 139.167 10.0872 139.167 10.0872C139.167 10.0872 139.167 10.0872 139.247 10.1679C139.328 10.2487 139.409 10.3294 139.49 10.4101C139.652 10.6524 139.894 10.9754 140.218 11.2984C140.46 11.7021 140.703 12.1058 140.945 12.5903C141.107 13.0748 141.269 13.5592 141.35 13.963C141.35 14.0437 141.35 14.2052 141.35 14.286C141.35 14.3667 141.35 14.5282 141.35 14.609C141.35 14.9319 141.269 15.0934 141.188 15.2549Z" fill="#303030"/>
<path d="M135.607 18.0002C135.526 18.0002 135.445 17.9194 135.284 17.9194C135.203 17.9194 135.203 17.9194 135.122 17.8387C135.041 17.8387 135.041 17.8387 134.96 17.7579C134.556 17.5964 134.233 17.4349 133.909 17.2734C133.586 17.112 133.343 16.9505 133.181 16.8697C133.101 16.789 133.02 16.789 132.939 16.7082C132.858 16.7082 132.858 16.6275 132.858 16.6275C132.858 16.6275 132.858 16.6275 132.939 16.5467C133.02 16.5467 133.101 16.466 133.262 16.466C133.505 16.3852 133.909 16.3045 134.313 16.143C134.556 16.0622 134.718 16.0622 134.96 15.9815C135.041 15.9815 135.203 15.9815 135.284 15.9008C135.365 15.9008 135.526 15.9008 135.607 15.9008C136.092 15.9008 136.577 15.9008 136.982 15.9008C137.386 15.9815 137.709 16.143 138.033 16.3045C138.195 16.3852 138.275 16.466 138.437 16.5467C138.518 16.6275 138.599 16.7082 138.68 16.8697C139.003 17.2734 139.084 17.5964 139.084 17.5964C139.084 17.5964 138.68 17.8387 138.114 17.9194C137.79 18.0002 137.467 18.0809 137.143 18.0809C136.82 18.0809 136.416 18.0809 136.011 18.0809C136.011 18.0809 135.85 18.0809 135.607 18.0002Z" fill="#303030"/>
<path d="M134.555 11.1367C134.474 11.2982 134.393 11.3789 134.393 11.3789C134.393 11.3789 134.393 11.3789 134.313 11.3789C134.313 11.3789 134.232 11.3789 134.151 11.2982C133.989 11.2174 133.827 11.1367 133.585 10.9752C133.181 10.6522 132.695 10.1677 132.372 9.36024C132.291 9.118 132.129 8.79502 132.049 8.47203C131.968 8.0683 131.887 7.66457 131.806 7.26084C131.725 6.8571 131.644 6.45337 131.563 6.13039C131.483 5.48442 131.402 4.99994 131.402 4.99994C131.402 4.99994 131.644 5.16143 131.968 5.40367C132.129 5.56516 132.372 5.64591 132.534 5.8074C132.776 5.96889 132.938 6.21113 133.181 6.37263C133.342 6.53412 133.423 6.61487 133.585 6.77636L133.666 6.8571L133.747 6.93785C133.827 7.0186 133.827 7.09934 133.908 7.18009C134.151 7.50307 134.313 7.82606 134.474 8.14904C134.555 8.39128 134.636 8.55278 134.636 8.79502C134.636 8.95651 134.717 9.19875 134.717 9.36024C134.717 9.76397 134.636 10.087 134.636 10.3292C134.717 10.8137 134.636 10.9752 134.555 11.1367Z" fill="#303030"/>
<path d="M129.22 13.4783C128.978 13.3975 128.735 13.3975 128.573 13.3168C128.331 13.236 128.169 13.236 128.007 13.1553C127.684 13.0745 127.522 12.9938 127.522 12.9938C127.522 12.9938 127.846 12.7516 128.412 12.3478C128.654 12.1863 128.978 12.0248 129.382 11.8633C129.705 11.7019 130.11 11.5404 130.514 11.4596C130.837 11.3789 131.08 11.2981 131.322 11.2981C132.131 11.2174 132.778 11.4596 133.182 11.7826C133.425 11.9441 133.505 12.0248 133.667 12.1863C133.748 12.2671 133.748 12.2671 133.748 12.3478V12.4286C133.748 12.4286 133.667 12.5093 133.505 12.5901C133.344 12.6708 133.182 12.8323 132.939 12.9938C132.697 13.1553 132.373 13.3168 132.05 13.3975C131.888 13.4783 131.727 13.559 131.484 13.559C131.322 13.6398 131.08 13.6398 130.918 13.6398C130.352 13.6398 129.786 13.559 129.22 13.4783Z" fill="#303030"/>
<path d="M120.568 60.6339C120.729 60.6339 120.891 60.5532 121.134 60.5532C121.215 60.5532 121.376 60.5532 121.457 60.4724C121.619 60.4724 121.7 60.3917 121.861 60.3917C122.104 60.311 122.427 60.311 122.751 60.2302C123.074 60.1495 123.398 60.0687 123.721 59.988C123.883 59.988 124.045 59.9072 124.206 59.9072C124.368 59.8265 124.53 59.8265 124.691 59.7457C125.015 59.665 125.419 59.5842 125.743 59.4227C127.198 59.019 128.492 58.4538 129.543 57.9693C129.785 57.8078 130.028 57.7271 130.19 57.6463C130.271 57.5656 130.351 57.5656 130.432 57.4848C130.513 57.4041 130.594 57.4041 130.675 57.3233C130.917 57.1619 131.079 57.0811 131.079 57.0811C131.079 57.0811 131.241 57.0004 131.483 56.8389C131.726 56.6774 132.13 56.4351 132.615 56.1122C133.505 55.5469 134.718 54.6587 135.85 53.6898C136.982 52.7208 137.952 51.6711 138.68 50.8636C138.76 50.7829 138.841 50.7021 138.922 50.5407C139.003 50.4599 139.084 50.3792 139.165 50.2984C139.326 50.1369 139.407 49.9754 139.488 49.8947C139.569 49.8139 139.65 49.6524 139.731 49.5717C139.812 49.491 139.812 49.491 139.812 49.491C139.812 49.491 139.892 49.3295 140.135 49.0872C140.216 48.9257 140.378 48.845 140.458 48.6027C140.62 48.4412 140.701 48.199 140.863 47.9568C140.944 47.876 141.024 47.7145 141.105 47.6338C141.186 47.4723 141.267 47.3915 141.348 47.2301C141.51 46.9878 141.671 46.6648 141.833 46.4226C141.995 46.0996 142.156 45.8574 142.318 45.5344C142.399 45.4536 142.399 45.3729 142.48 45.2921C142.48 45.2114 142.561 45.1306 142.561 45.0499C142.642 44.8884 142.722 44.7269 142.803 44.5654C143.369 43.2735 143.935 41.9008 144.178 40.8511C144.178 40.6896 144.259 40.6089 144.259 40.4474C144.259 40.3666 144.34 40.2051 144.34 40.1244C144.42 39.8821 144.42 39.7206 144.501 39.5592C144.582 39.2362 144.582 39.0747 144.582 39.0747C144.582 39.0747 144.582 38.9939 144.582 38.9132C144.582 38.8324 144.582 38.6709 144.663 38.5902C144.663 38.4287 144.744 38.2672 144.744 38.025C144.744 37.7827 144.825 37.5405 144.906 37.2983C144.906 37.056 144.986 36.733 144.986 36.4101C144.986 36.3293 144.986 36.2486 144.986 36.1678C144.986 36.0871 144.986 36.0063 144.986 35.9256C144.986 35.7641 144.986 35.6026 144.986 35.4411C145.067 34.7951 145.067 34.0684 145.067 33.3417C145.067 32.615 145.067 31.8883 144.986 31.2423C144.986 31.0808 144.986 30.9193 144.986 30.7578C144.986 30.6771 144.986 30.5963 144.986 30.5156C144.986 30.4348 144.986 30.3541 144.986 30.2733C144.986 29.9503 144.906 29.7081 144.906 29.3851C144.906 29.1429 144.825 28.9006 144.744 28.6584C144.744 28.4162 144.663 28.2547 144.663 28.0932C144.663 27.9317 144.582 27.8509 144.582 27.7702C144.582 27.6894 144.582 27.6087 144.582 27.6087C144.582 27.6087 144.501 27.4472 144.501 27.1242C144.501 26.9627 144.42 26.8012 144.34 26.559C144.34 26.4783 144.259 26.3168 144.259 26.236C144.259 26.1553 144.178 25.9938 144.178 25.8323C143.854 24.7826 143.369 23.4906 142.803 22.118C142.722 21.9565 142.642 21.795 142.561 21.6335C142.561 21.5527 142.48 21.472 142.48 21.3912C142.399 21.3105 142.399 21.2297 142.318 21.149C142.156 20.826 141.995 20.503 141.833 20.2608C141.671 19.9378 141.51 19.6956 141.348 19.4533C141.267 19.2918 141.186 19.2111 141.105 19.0496C141.024 18.8881 140.944 18.8074 140.863 18.7266C140.701 18.4844 140.539 18.3229 140.458 18.0806C140.297 17.9191 140.216 17.7577 140.135 17.5962C139.973 17.3539 139.812 17.1924 139.812 17.1924C139.812 17.1924 139.812 17.1924 139.731 17.1117C139.65 17.0309 139.65 16.9502 139.488 16.7887C139.407 16.6272 139.246 16.5465 139.165 16.385C139.084 16.3042 139.003 16.2235 138.922 16.1427C138.841 16.062 138.76 15.9812 138.68 15.8197C137.952 15.0123 136.982 13.9626 135.85 12.9936C134.718 12.0247 133.586 11.2172 132.615 10.5712C132.13 10.2482 131.726 10.006 131.483 9.84451C131.16 9.68302 131.079 9.60228 131.079 9.60228C131.079 9.60228 130.917 9.52153 130.675 9.36004C130.594 9.36004 130.513 9.27929 130.432 9.19854C130.351 9.1178 130.271 9.1178 130.19 9.03705C130.109 9.03705 130.028 8.95631 129.947 8.95631C129.785 8.95631 129.543 8.95631 129.219 8.95631C128.653 8.95631 127.845 8.79481 127.198 8.47183C126.875 8.31034 126.551 8.0681 126.228 7.74511C126.066 7.58362 125.904 7.50287 125.823 7.34138C125.662 7.17989 125.581 7.09914 125.419 6.93765C125.177 6.69541 125.015 6.45317 124.853 6.29168C124.691 6.13018 124.611 6.04944 124.611 6.04944C124.611 6.04944 124.772 6.04944 125.015 6.04944C125.257 6.04944 125.662 6.04944 126.066 6.04944C126.147 6.04944 126.309 6.04944 126.389 6.04944C126.47 6.04944 126.632 6.04944 126.713 6.13018C126.955 6.13018 127.198 6.21093 127.441 6.29168C127.926 6.37242 128.33 6.53392 128.734 6.77616C129.058 6.93765 129.381 7.17989 129.624 7.42213C129.866 7.66436 129.947 7.9066 130.028 8.14884C130.109 8.39108 130.19 8.55257 130.19 8.71407V8.79481H130.271C130.351 8.87556 130.432 8.87556 130.594 8.95631C130.675 9.03705 130.756 9.03705 130.836 9.1178C131.079 9.27929 131.241 9.36004 131.241 9.36004C131.241 9.36004 131.402 9.44078 131.726 9.60228C131.968 9.76377 132.373 10.006 132.858 10.329C133.747 10.975 134.96 11.7824 136.092 12.7514C137.224 13.7203 138.194 14.77 138.922 15.5775C139.003 15.6582 139.084 15.8197 139.165 15.9005C139.246 15.9812 139.326 16.062 139.407 16.1427C139.569 16.3042 139.65 16.4657 139.812 16.6272C139.892 16.7887 139.973 16.8694 140.054 16.9502C140.135 17.0309 140.135 17.0309 140.135 17.0309C140.135 17.0309 140.216 17.1924 140.458 17.4347C140.539 17.5962 140.701 17.7577 140.782 17.9191C140.944 18.0806 141.024 18.3229 141.186 18.5651C141.267 18.6459 141.348 18.8074 141.429 18.8881C141.51 19.0496 141.59 19.1303 141.671 19.2918C141.833 19.5341 141.995 19.8571 142.156 20.0993C142.318 20.4223 142.48 20.7453 142.642 20.9875C142.722 21.0683 142.722 21.149 142.803 21.2297C142.803 21.3105 142.884 21.3912 142.884 21.472C142.965 21.6335 143.046 21.795 143.127 21.9565C143.774 23.2484 144.259 24.6211 144.501 25.6708C144.501 25.8323 144.582 25.913 144.582 26.0745C144.582 26.1553 144.663 26.3168 144.663 26.3975C144.744 26.6397 144.744 26.8012 144.825 26.9627C144.906 27.2857 144.906 27.4472 144.906 27.4472C144.906 27.4472 144.906 27.528 144.906 27.6087C144.906 27.6894 144.905 27.8509 144.986 27.9317C144.986 28.0932 145.067 28.2547 145.067 28.4969C145.067 28.7392 145.148 28.9814 145.229 29.2236C145.229 29.4659 145.31 29.7889 145.31 30.1118C145.31 30.1926 145.31 30.2733 145.31 30.3541C145.31 30.4348 145.31 30.5156 145.31 30.5963C145.31 30.7578 145.31 30.9193 145.31 31.0808C145.391 31.7268 145.391 32.4535 145.391 33.1802C145.391 33.9069 145.391 34.6336 145.31 35.2796C145.31 35.4411 145.31 35.6026 145.31 35.7641C145.31 35.8448 145.31 35.9256 145.31 36.0063C145.31 36.0871 145.31 36.1678 145.31 36.2486C145.31 36.5715 145.229 36.8138 145.229 37.1368C145.229 37.379 145.148 37.6212 145.067 37.8635C145.067 38.1057 144.986 38.2672 144.986 38.4287C144.986 38.5902 144.906 38.6709 144.906 38.7517C144.906 38.8324 144.906 38.9132 144.906 38.9132C144.906 38.9132 144.825 39.0747 144.825 39.3977C144.825 39.5592 144.744 39.7206 144.663 39.9629C144.663 40.0436 144.582 40.2051 144.582 40.2859C144.582 40.3666 144.501 40.5281 144.501 40.6896C144.178 41.7393 143.693 43.112 143.127 44.4039C143.046 44.5654 142.965 44.7269 142.884 44.8884C142.884 44.9692 142.803 45.0499 142.803 45.1306C142.722 45.2114 142.722 45.2921 142.642 45.3729C142.48 45.6959 142.318 46.0189 142.156 46.2611C141.995 46.5841 141.833 46.8263 141.671 47.0686C141.59 47.2301 141.51 47.3108 141.429 47.4723C141.348 47.6338 141.267 47.7145 141.186 47.7953C141.024 48.0375 140.863 48.199 140.782 48.4412C140.62 48.6027 140.539 48.7642 140.458 48.9257C140.297 49.168 140.135 49.3295 140.135 49.3295C140.135 49.3295 140.135 49.3295 140.054 49.4102C139.973 49.491 139.892 49.5717 139.812 49.7332C139.731 49.8947 139.569 49.9754 139.407 50.2177C139.326 50.2984 139.246 50.3792 139.165 50.4599C139.084 50.5407 139.003 50.6214 138.922 50.7829C138.194 51.5904 137.143 52.6401 136.092 53.609C134.96 54.578 133.747 55.4662 132.858 56.0314C132.373 56.3544 131.968 56.5966 131.726 56.7581C131.402 56.9196 131.241 57.0004 131.241 57.0004C131.241 57.0004 131.079 57.0811 130.836 57.2426C130.756 57.2426 130.675 57.3233 130.594 57.4041C130.513 57.4848 130.432 57.4848 130.271 57.5656C130.028 57.6463 129.866 57.8078 129.624 57.8886C128.653 58.373 127.279 58.9383 125.823 59.342C125.5 59.5035 125.096 59.5842 124.772 59.665C124.611 59.7457 124.449 59.7457 124.206 59.8265C124.045 59.9072 123.883 59.9072 123.721 59.9072C123.398 59.988 123.074 60.0687 122.751 60.1495C122.427 60.2302 122.104 60.2302 121.861 60.311C121.7 60.311 121.619 60.3917 121.457 60.3917C121.295 60.3917 121.215 60.3917 121.134 60.4724C120.891 60.4724 120.729 60.5532 120.568 60.5532C120.244 60.5532 120.083 60.6339 120.083 60.6339V60.3917C120.002 60.7147 120.244 60.7147 120.568 60.6339Z" fill="#303030"/>
<path d="M123.723 60.3916C123.723 60.3916 119.842 61.3606 118.952 64.9941L119.033 60.7953L123.48 60.2301L123.723 60.3916Z" fill="#303030"/>
</g>
<g opacity="0.15">
<path d="M53.5299 60.0692C53.3682 60.0692 53.2064 60.0692 52.9639 60.0692C52.883 60.0692 52.883 60.0692 52.8022 60.0692C52.7213 60.0692 52.7213 60.0692 52.6405 60.0692C52.5596 60.0692 52.3979 60.15 52.317 60.15C51.9128 60.2307 51.4276 60.4729 50.9425 60.6344C50.4573 60.7959 50.053 61.0382 49.6488 61.2804C49.2445 61.5226 48.8402 61.6841 48.5976 61.8456C48.3551 62.0071 48.1934 62.0879 48.1934 62.0879C48.1934 62.0879 48.1934 62.0879 48.2742 62.1686C48.3551 62.1686 48.4359 62.2494 48.5976 62.2494C48.9211 62.3301 49.3253 62.4109 49.7296 62.4916C49.8105 62.4916 49.9722 62.5724 50.053 62.5724C50.2148 62.5724 50.2956 62.5724 50.4573 62.6531C50.6999 62.6531 50.9425 62.7338 51.2659 62.7338C51.751 62.7338 52.317 62.6531 52.7213 62.5724C53.6107 62.3301 54.1767 61.7649 54.581 61.3612C54.9853 60.8767 55.147 60.5537 55.147 60.5537C55.147 60.5537 54.8236 60.3922 54.3384 60.2307C54.1767 60.0692 53.9342 60.0692 53.5299 60.0692Z" fill="#303030"/>
<path d="M54.9026 56.5162C54.6601 56.1932 54.4175 55.8702 54.1749 55.628C54.0132 55.4665 53.8515 55.3858 53.7706 55.2243C53.6898 55.1435 53.6089 55.1435 53.5281 55.0628C53.4472 54.982 53.3664 54.982 53.2855 54.9013C53.0429 54.659 52.8004 54.4975 52.5578 54.4168C52.3961 54.2553 52.2344 54.2553 52.2344 54.2553C52.2344 54.2553 52.2344 54.4168 52.2344 54.659C52.2344 54.9013 52.2344 55.305 52.3152 55.7087C52.3961 56.1125 52.4769 56.597 52.5578 57.0007C52.7195 57.4044 52.8812 57.8889 53.1238 58.2119C53.2047 58.2926 53.2046 58.3734 53.2855 58.4541L53.3664 58.5349L53.4472 58.6156C53.6089 58.7771 53.6898 58.8579 53.8515 58.9386C54.0132 59.0193 54.0941 59.1001 54.2558 59.1808C54.4175 59.2616 54.4984 59.2616 54.6601 59.3423C55.1452 59.5038 55.4686 59.4231 55.4686 59.4231C55.4686 59.4231 55.5495 59.0193 55.4686 58.4541C55.4686 58.1311 55.3878 57.8081 55.3069 57.4852C55.3069 57.4044 55.2261 57.3237 55.2261 57.2429C55.2261 57.1622 55.1452 57.0814 55.1452 57.0007C55.1452 56.8392 55.0643 56.6777 54.9026 56.5162Z" fill="#303030"/>
<path d="M48.0302 57.4851C48.0302 57.4851 47.9493 57.4043 47.8685 57.4043C47.7876 57.3236 47.5451 57.1621 47.3833 57.0813C47.3025 57.0006 47.1408 56.9198 46.9791 56.9198C46.8174 56.8391 46.6556 56.8391 46.4939 56.7584C46.1705 56.6776 45.7662 56.5969 45.3619 56.5969C45.1194 56.5969 44.8768 56.5969 44.6342 56.6776C44.3917 56.6776 44.1491 56.7584 43.9065 56.7584C43.664 56.7584 43.4214 56.8391 43.1788 56.9198C42.9362 57.0006 42.6937 57.0006 42.4511 57.0813C41.966 57.1621 41.5617 57.2428 41.3191 57.3236C40.9957 57.4043 40.834 57.4043 40.834 57.4043C40.834 57.4043 40.9957 57.4851 41.2383 57.6466C41.4 57.7273 41.4808 57.8081 41.7234 57.8888C41.8043 57.9695 41.8851 57.9695 41.966 58.0503C42.0468 58.131 42.1277 58.131 42.2894 58.2118C42.532 58.2925 42.6937 58.3733 42.9363 58.5348C43.0171 58.6155 43.1788 58.6155 43.2597 58.6963C43.3405 58.6963 43.3405 58.777 43.4214 58.777C43.5023 58.777 43.5831 58.777 43.5831 58.8578C44.0682 59.0192 44.5534 59.1 45.0385 59.1C46.0088 59.1 46.7365 58.6963 47.2216 58.3733C47.4642 58.2118 47.6259 58.0503 47.7876 57.8888C48.0302 57.6466 48.111 57.4851 48.0302 57.4851C48.111 57.4851 48.0302 57.4851 48.0302 57.4851Z" fill="#303030"/>
<path d="M46.7359 54.7395C46.8168 55.1433 47.0593 55.4662 47.2211 55.7085C47.3019 55.87 47.4636 55.9507 47.5445 56.0315C47.6254 56.1122 47.7871 56.193 47.8679 56.2737C48.1105 56.4352 48.2722 56.516 48.4339 56.516C48.5148 56.516 48.5956 56.516 48.5956 56.5967C48.6765 56.5967 48.6765 56.5967 48.6765 56.5967C48.6765 56.5967 48.7573 56.5159 48.7573 56.3545C48.8382 56.193 48.8382 55.9507 48.919 55.7085C48.9999 55.1433 49.0808 54.4165 48.8382 53.6898C48.7573 53.2861 48.5956 52.9631 48.3531 52.6401C48.1914 52.3171 47.9488 51.9942 47.7062 51.7519C47.6253 51.5904 47.4636 51.5097 47.3828 51.3482C47.3019 51.2674 47.2211 51.1059 47.1402 51.0252C46.9785 50.8637 46.8976 50.783 46.8976 50.783C46.8976 50.783 46.8168 50.9445 46.8168 51.1867C46.7359 51.4289 46.6551 51.8327 46.6551 52.2364C46.6551 52.4786 46.5742 52.6401 46.5742 52.8824C46.5742 53.1246 46.5742 53.3668 46.5742 53.5283C46.5742 53.7706 46.5742 54.0128 46.6551 54.1743C46.6551 54.3358 46.6551 54.578 46.7359 54.7395Z" fill="#303030"/>
<path d="M41.6454 52.3981C41.5646 52.2366 41.4029 52.0751 41.2412 51.9136C41.0794 51.7521 40.8369 51.5099 40.5135 51.3484C40.19 51.1869 39.8666 51.0254 39.4623 50.8639C39.3006 50.8639 39.1389 50.7832 38.9772 50.7832C38.8155 50.7832 38.6538 50.7024 38.492 50.7024C37.6835 50.5409 36.7941 50.5409 36.0664 50.4602C35.3387 50.4602 34.8535 50.3795 34.8535 50.3795C34.8535 50.3795 35.0152 50.6217 35.3387 50.9447C35.5812 51.2677 36.0664 51.6714 36.5515 52.0751C36.6324 52.1559 36.7132 52.1559 36.7941 52.2366L36.8749 52.3174C36.8749 52.3174 36.9558 52.3981 37.0366 52.3981C37.1984 52.4789 37.3601 52.6403 37.5218 52.7211C37.6835 52.8018 37.8452 52.8826 38.0069 52.9633C38.1686 53.0441 38.3303 53.1248 38.492 53.1248C39.3815 53.3671 40.19 53.2056 40.756 53.0441C41.322 52.8018 41.6454 52.5596 41.6454 52.5596C41.6454 52.5596 41.7263 52.4789 41.6454 52.3981Z" fill="#303030"/>
<path d="M41.8863 51.3484C42.048 51.5099 42.2097 51.6714 42.2906 51.7521C42.4523 51.8329 42.5332 51.8329 42.5332 51.8329C42.5332 51.8329 42.7757 51.5099 43.0992 51.0254C43.3417 50.5409 43.6651 49.8142 43.6651 49.0068C43.6651 48.7645 43.6651 48.4415 43.5843 48.1186C43.5843 47.9571 43.5034 47.8763 43.5034 47.7148C43.5034 47.5533 43.4226 47.4726 43.4226 47.3111C43.3417 47.0689 43.2609 46.9074 43.18 46.6651C43.18 46.5844 43.0992 46.5844 43.0992 46.5036C43.0992 46.4229 43.0992 46.4229 43.0183 46.3421C43.0183 46.2614 42.9374 46.1806 42.9374 46.0999C42.7757 45.7769 42.6949 45.6154 42.6949 45.6154C42.6949 45.6154 42.4523 46.0191 42.1289 46.5844C42.048 46.7459 41.9672 46.9074 41.8863 47.0689C41.8863 47.1496 41.8055 47.2303 41.8055 47.3111C41.8055 47.3918 41.7246 47.4726 41.7246 47.5533C41.5629 47.8763 41.482 48.28 41.4012 48.6838C41.4012 48.8453 41.3203 49.0068 41.3203 49.0875C41.3203 49.249 41.3203 49.3297 41.3203 49.4912C41.3203 49.895 41.4012 50.218 41.482 50.5409C41.5629 50.8639 41.7246 51.1062 41.8863 51.3484Z" fill="#303030"/>
<path d="M35.5807 46.3422C35.7424 46.3422 35.9041 46.3422 36.0658 46.3422C36.7127 46.3422 37.0361 46.1808 37.0361 46.1808C37.0361 46.1808 37.0361 46.1 36.9553 45.9385C36.9553 45.8578 36.8744 45.777 36.8744 45.6963C36.8744 45.6155 36.7935 45.5348 36.7127 45.3733C36.6318 45.1311 36.4701 44.8888 36.2276 44.6466C36.1467 44.5658 36.1467 44.5658 36.0658 44.4851C35.985 44.4043 35.9041 44.3236 35.8233 44.3236C35.6616 44.1621 35.4998 44.0813 35.3381 44.0006C35.1764 43.9199 34.9338 43.7584 34.6913 43.6776C34.4487 43.5969 34.287 43.4354 34.0444 43.3546C33.5593 43.1931 33.0741 42.9509 32.6699 42.8702C32.2656 42.7087 31.8613 42.5472 31.5379 42.4664C31.2953 42.3857 31.0527 42.3049 31.0527 42.3049C31.0527 42.3049 31.1336 42.4664 31.2145 42.7087C31.2953 42.8702 31.3762 43.0316 31.457 43.1931C31.5379 43.3546 31.6996 43.5161 31.7805 43.7584C31.8613 43.9199 32.023 44.1621 32.1847 44.3236C32.1847 44.4043 32.2656 44.4043 32.2656 44.4851C32.2656 44.5658 32.3464 44.5658 32.3464 44.6466C32.4273 44.7273 32.5082 44.8081 32.589 44.9696C32.7507 45.1311 32.9124 45.3733 33.155 45.5348C33.2359 45.6155 33.3167 45.6963 33.3976 45.777C33.4784 45.8578 33.5593 45.9385 33.721 45.9385C34.1253 46.1808 34.5296 46.3422 34.9339 46.3422C35.2573 46.2615 35.419 46.3422 35.5807 46.3422Z" fill="#303030"/>
<path d="M37.3555 44.162C37.3555 44.485 37.5172 44.7272 37.598 44.9695C37.6789 45.0502 37.6789 45.2117 37.7598 45.2924C37.8406 45.3732 37.8406 45.4539 37.9214 45.5347C38.0023 45.6154 38.0832 45.6962 38.0832 45.6962C38.0832 45.6962 38.4066 45.4539 38.8109 45.0502C38.8917 44.9695 38.9726 44.808 39.1343 44.7272C39.2151 44.5657 39.3769 44.485 39.4577 44.3235C39.6194 44.0005 39.862 43.6775 39.9429 43.3545C39.9429 43.2738 40.0237 43.193 40.0237 43.1123C40.0237 43.0316 40.1046 42.9508 40.1046 42.7893C40.1046 42.6278 40.1854 42.3856 40.1854 42.2241C40.1854 41.8204 40.1854 41.4166 40.1854 41.0936C40.1854 40.9321 40.1854 40.7707 40.1046 40.6092C40.1046 40.4477 40.1046 40.3669 40.1046 40.2054C40.1046 39.9632 40.0237 39.8824 40.0237 39.8824C40.0237 39.8824 39.862 39.9632 39.7003 40.2054C39.5386 40.3669 39.2152 40.6899 38.9726 40.9321C38.73 41.2551 38.4066 41.5781 38.164 41.9818C38.0023 42.1433 37.9215 42.3856 37.8406 42.5471C37.7598 42.7086 37.6789 42.9508 37.598 43.1123C37.5172 43.2738 37.5172 43.516 37.5172 43.6775C37.5172 43.7583 37.5172 43.839 37.5172 43.9198C37.5172 44.0005 37.5172 44.0005 37.5172 44.0813C37.3555 44.0813 37.3555 44.162 37.3555 44.162Z" fill="#303030"/>
<path d="M32.0214 38.3483C32.1831 38.4291 32.3448 38.5906 32.5066 38.6713C32.83 38.8328 33.1534 38.9136 33.4768 38.9943C34.0428 39.0751 34.528 39.0751 34.528 39.0751C34.528 39.0751 34.6088 38.7521 34.4471 38.2676C34.4471 38.1061 34.3662 38.0254 34.3662 37.8639C34.2854 37.7024 34.2854 37.5409 34.2045 37.4601C34.1237 37.2986 34.0428 37.1371 33.962 36.9756C33.8811 36.8949 33.8811 36.8142 33.8003 36.7334L33.7194 36.6527L33.6385 36.5719C33.0725 35.9259 32.1023 35.28 31.3746 34.7955C30.9703 34.5533 30.6469 34.311 30.4043 34.1495C30.1617 33.988 30 33.9073 30 33.9073C30 33.9073 30 34.0688 30.0809 34.3918C30.1617 34.7148 30.2426 35.0377 30.3234 35.5222C30.4851 35.9259 30.6469 36.4104 30.8086 36.8949C30.8894 36.9756 30.8894 37.1371 30.9703 37.2179C31.0511 37.2986 31.132 37.4601 31.132 37.5409C31.2937 37.7831 31.4554 37.9446 31.5363 38.1061C31.698 38.0254 31.8597 38.1868 32.0214 38.3483Z" fill="#303030"/>
<path d="M35.6605 38.8327C35.6605 38.8327 36.0648 38.6713 36.55 38.429C36.7925 38.2675 37.1159 38.106 37.3585 37.8638C37.5202 37.783 37.6011 37.6216 37.7628 37.4601C37.9245 37.2986 38.0054 37.1371 38.0862 36.9756C38.1671 36.8141 38.2479 36.6526 38.4096 36.4911C38.4905 36.3296 38.5714 36.1681 38.6522 35.9259C38.8139 35.5221 38.8948 35.1992 38.9756 34.8762C39.0565 34.5532 39.1373 34.2302 39.1373 34.0687C39.1373 33.8265 39.1373 33.7457 39.1373 33.7457C39.1373 33.7457 38.9756 33.8265 38.7331 33.9072C38.4905 34.0687 38.1671 34.2302 37.8437 34.4724C37.5202 34.7147 37.1159 34.9569 36.7925 35.2799C36.4691 35.6029 36.1457 35.9259 35.9031 36.2489C35.8222 36.4104 35.7414 36.5718 35.6605 36.7333C35.5797 36.8948 35.5797 37.0563 35.4988 37.2178C35.4988 37.3793 35.418 37.5408 35.418 37.7023C35.418 37.8638 35.418 37.9445 35.418 38.106C35.4988 38.5098 35.6605 38.8327 35.6605 38.8327Z" fill="#303030"/>
<path d="M31.1312 27.6899C31.1312 27.8514 31.2121 28.0936 31.2121 28.2551C31.2929 28.6588 31.3738 28.9818 31.5355 29.3048C31.7781 29.7086 32.0206 30.0315 32.2632 30.2738C32.5058 30.516 32.8292 30.6775 33.0718 30.839C33.6378 31.0812 34.0421 31.162 34.0421 31.162C34.0421 31.162 34.0421 31.0812 34.1229 30.9197C34.1229 30.7583 34.2038 30.5968 34.2038 30.3545C34.2038 30.1123 34.2038 29.7893 34.1229 29.4663C34.0421 29.1433 33.9612 28.8203 33.7995 28.4166C33.7186 28.2551 33.6378 28.1744 33.5569 28.0129C33.4761 27.9321 33.4761 27.8514 33.3952 27.8514C33.3144 27.7706 33.3144 27.6899 33.2335 27.6899C32.9909 27.3669 32.7484 27.0439 32.5058 26.7209C32.2632 26.398 32.0207 26.075 31.7781 25.8327C31.3738 25.2675 31.0504 24.9445 31.0504 24.9445C31.0504 24.9445 30.9695 25.1868 30.9695 25.6712C30.9695 25.9135 30.8887 26.1557 30.8887 26.398C30.8887 26.6402 30.8887 26.9632 30.8887 27.2862C31.0504 27.3669 31.0504 27.5284 31.1312 27.6899Z" fill="#303030"/>
<path d="M38.0878 30.1122C38.1686 30.0314 38.1686 30.0314 38.2495 29.9507C38.3304 29.87 38.3303 29.87 38.4112 29.7892C38.4921 29.7085 38.5729 29.547 38.7346 29.4662C38.8155 29.3855 38.8964 29.224 38.9772 29.1432C39.0581 28.9817 39.1389 28.901 39.2198 28.8203C39.3815 28.6588 39.4623 28.4165 39.5432 28.255C39.624 28.1743 39.6241 28.0935 39.7049 28.0128C39.7049 27.932 39.7858 27.8513 39.8666 27.7705C40.0283 27.4476 40.1092 27.2861 40.1092 27.2861C40.1092 27.2861 39.6241 27.3668 38.9772 27.5283C38.8155 27.6091 38.6538 27.6091 38.4921 27.6898C38.3304 27.7705 38.1686 27.7705 37.9261 27.8513C37.6026 28.0128 37.1984 28.1743 36.8749 28.3358C36.6324 28.4973 36.3898 28.6588 36.1472 28.8203C35.8238 29.0625 35.5812 29.3855 35.5004 29.6277C35.3387 29.9507 35.2578 30.1929 35.2578 30.4352C35.2578 30.6774 35.2578 30.8389 35.2578 31.0004C35.2578 31.1619 35.3387 31.2426 35.3387 31.2426C35.3387 31.2426 35.7429 31.2426 36.3089 31.0811C36.7941 30.9197 37.5218 30.6774 38.0878 30.1122Z" fill="#303030"/>
<path d="M34.5289 22.1184C34.6906 22.4414 34.9332 22.6837 35.1757 22.9259C35.58 23.3296 35.9843 23.4911 35.9843 23.4911C35.9843 23.4911 36.0652 23.4104 36.146 23.3296C36.2269 23.1681 36.3077 23.0066 36.3886 22.7644C36.4694 22.5222 36.5503 22.2799 36.6312 21.9569C36.6312 21.7955 36.6312 21.634 36.6312 21.3917C36.6312 21.2302 36.6312 20.988 36.5503 20.8265C36.5503 20.5843 36.4694 20.4228 36.3886 20.1805C36.3886 20.0998 36.3077 19.9383 36.3077 19.8575C36.3077 19.7768 36.2269 19.6153 36.2269 19.5346C36.0652 19.0501 35.9034 18.6463 35.6609 18.1619C35.58 17.9196 35.4992 17.7581 35.4183 17.5966C35.3375 17.4352 35.2566 17.2737 35.1757 17.1122C35.0949 16.8699 35.014 16.7084 35.014 16.7084C35.014 16.7084 34.9332 16.8699 34.7715 17.1122C34.6906 17.2737 34.6098 17.4352 34.6098 17.5966C34.5289 17.7581 34.448 18.0004 34.3672 18.1619C34.3672 18.2426 34.2863 18.4041 34.2863 18.4849C34.2863 18.5656 34.2055 18.7271 34.2055 18.8078C34.1246 19.0501 34.1246 19.2923 34.0438 19.5346C34.0438 19.7768 33.9629 20.019 33.9629 20.2613C33.9629 20.5035 33.9629 20.7457 34.0438 20.988C34.2055 21.4725 34.3672 21.7955 34.5289 22.1184Z" fill="#303030"/>
<path d="M40.6729 23.3296C40.8346 23.2488 40.9963 23.0873 41.158 23.0066C41.3198 22.8451 41.4815 22.7643 41.5623 22.6029C41.724 22.4414 41.8049 22.3606 41.9666 22.1991C42.1283 22.0376 42.2092 21.9569 42.2901 21.8761C42.3709 21.7954 42.3709 21.7954 42.4518 21.7146C42.5326 21.6339 42.5326 21.6339 42.5326 21.5532C42.6943 21.3917 42.7752 21.3109 42.7752 21.3109C42.7752 21.3109 42.6135 21.3109 42.3709 21.3109C42.1283 21.3109 41.7241 21.3109 41.3198 21.3109C40.9155 21.3109 40.4303 21.3917 39.9452 21.4724C39.8643 21.4724 39.7026 21.5532 39.6218 21.5532C39.5409 21.5532 39.3792 21.6339 39.2984 21.6339C39.0558 21.7146 38.8941 21.7954 38.6515 21.8761C38.4898 21.9569 38.3281 22.0376 38.1664 22.1991C38.0047 22.2799 37.9238 22.4414 37.7621 22.5221C37.5195 22.7643 37.3578 23.0066 37.277 23.2488C37.1961 23.4911 37.1152 23.6526 37.1152 23.814C37.1152 23.9755 37.1152 24.0563 37.1152 24.0563C37.1152 24.0563 37.5195 24.137 38.0855 24.137C38.4089 24.137 38.7324 24.137 39.0558 24.0563C39.3792 23.9755 39.7835 23.8948 40.1878 23.7333C40.3495 23.5718 40.5112 23.4103 40.6729 23.3296Z" fill="#303030"/>
<path d="M38.8121 15.255C38.8929 15.578 39.0547 15.901 39.2164 16.1432C39.5398 16.6277 39.8632 16.9507 39.8632 16.9507C39.8632 16.9507 40.1867 16.7892 40.5101 16.3854C40.5909 16.3047 40.6718 16.1432 40.7526 16.0624C40.8335 15.901 40.9144 15.8202 40.9952 15.6587C41.1569 15.3357 41.2378 15.0127 41.2378 14.5283C41.3186 14.1245 41.2378 13.6401 41.2378 13.1556C41.2378 12.6711 41.1569 12.1866 41.0761 11.7021C40.9952 11.2177 40.9952 10.8947 40.9144 10.5717C40.8335 10.3295 40.8335 10.0872 40.8335 10.0872C40.8335 10.0872 40.8335 10.0872 40.7526 10.168C40.6718 10.2487 40.5909 10.3295 40.5101 10.4102C40.3484 10.6524 40.1058 10.9754 39.7824 11.2984C39.5398 11.7021 39.2972 12.1059 39.0547 12.5904C38.893 13.0748 38.7312 13.5593 38.6504 13.963C38.6504 14.0438 38.6504 14.2053 38.6504 14.286C38.6504 14.3668 38.6504 14.5283 38.6504 14.609C38.6504 14.932 38.7312 15.0935 38.8121 15.255Z" fill="#303030"/>
<path d="M44.3928 18.0002C44.4737 18.0002 44.5546 17.9195 44.7163 17.9195C44.7971 17.9195 44.7971 17.9195 44.878 17.8387C44.9588 17.8387 44.9588 17.8387 45.0397 17.758C45.444 17.5965 45.7674 17.435 46.0908 17.2735C46.4142 17.112 46.6568 16.9505 46.8185 16.8698C46.8994 16.789 46.9802 16.789 47.0611 16.7083C47.142 16.7083 47.142 16.6275 47.142 16.6275C47.142 16.6275 47.142 16.6275 47.0611 16.5468C46.9802 16.5468 46.8994 16.466 46.7377 16.466C46.4951 16.3853 46.0908 16.3045 45.6865 16.1431C45.444 16.0623 45.2823 16.0623 45.0397 15.9816C44.9588 15.9816 44.7971 15.9816 44.7163 15.9008C44.6354 15.9008 44.4737 15.9008 44.3928 15.9008C43.9077 15.9008 43.4226 15.9008 43.0183 15.9008C42.614 15.9816 42.2906 16.1431 41.9671 16.3045C41.8054 16.3853 41.7246 16.466 41.5629 16.5468C41.482 16.6275 41.4012 16.7083 41.3203 16.8698C40.9969 17.2735 40.916 17.5965 40.916 17.5965C40.916 17.5965 41.3203 17.8387 41.8863 17.9195C42.2097 18.0002 42.5331 18.081 42.8566 18.081C43.18 18.081 43.5843 18.081 43.9885 18.081C43.9885 18.081 44.1503 18.081 44.3928 18.0002Z" fill="#303030"/>
<path d="M45.4449 11.1367C45.5258 11.2982 45.6066 11.379 45.6066 11.379C45.6066 11.379 45.6066 11.379 45.6875 11.379C45.6875 11.379 45.7684 11.379 45.8492 11.2982C46.0109 11.2175 46.1726 11.1367 46.4152 10.9752C46.8195 10.6522 47.3046 10.1678 47.628 9.3603C47.7089 9.11806 47.8706 8.79508 47.9515 8.47209C48.0323 8.06836 48.1132 7.66463 48.194 7.2609C48.2749 6.85716 48.3557 6.45343 48.4366 6.13045C48.5175 5.48448 48.5983 5 48.5983 5C48.5983 5 48.3557 5.16149 48.0323 5.40373C47.8706 5.56522 47.628 5.64597 47.4663 5.80746C47.2238 5.96896 47.062 6.21119 46.8195 6.37269C46.6578 6.53418 46.5769 6.61493 46.4152 6.77642L46.3343 6.85716L46.2535 6.93791C46.1726 7.01866 46.1726 7.0994 46.0918 7.18015C45.8492 7.50314 45.6875 7.82612 45.5258 8.14911C45.4449 8.39134 45.3641 8.55284 45.3641 8.79508C45.3641 8.95657 45.2832 9.19881 45.2832 9.3603C45.2832 9.76403 45.3641 10.087 45.3641 10.3293C45.2832 10.8137 45.3641 10.9752 45.4449 11.1367Z" fill="#303030"/>
<path d="M50.7799 13.4783C51.0225 13.3976 51.265 13.3976 51.4268 13.3168C51.6693 13.2361 51.831 13.2361 51.9928 13.1553C52.3162 13.0746 52.4779 12.9939 52.4779 12.9939C52.4779 12.9939 52.1545 12.7516 51.5885 12.3479C51.3459 12.1864 51.0225 12.0249 50.6182 11.8634C50.2948 11.7019 49.8905 11.5404 49.4862 11.4597C49.1628 11.3789 48.9202 11.2982 48.6776 11.2982C47.8691 11.2174 47.2222 11.4597 46.8179 11.7827C46.5754 11.9442 46.4945 12.0249 46.3328 12.1864C46.252 12.2671 46.252 12.2671 46.252 12.3479V12.4286C46.252 12.4286 46.3328 12.5094 46.4945 12.5901C46.6562 12.6709 46.8179 12.8324 47.0605 12.9939C47.3031 13.1553 47.6265 13.3168 47.9499 13.3976C48.1117 13.4783 48.2734 13.5591 48.5159 13.5591C48.6776 13.6398 48.9202 13.6398 49.0819 13.6398C49.6479 13.6398 50.2139 13.5591 50.7799 13.4783Z" fill="#303030"/>
<path d="M59.4322 60.634C59.2705 60.634 59.1088 60.5533 58.8663 60.5533C58.7854 60.5533 58.6237 60.5532 58.5428 60.4725C58.3811 60.4725 58.3003 60.3918 58.1385 60.3918C57.896 60.311 57.5726 60.311 57.2491 60.2303C56.9257 60.1495 56.6023 60.0688 56.2789 59.988C56.1171 59.988 55.9554 59.9073 55.7937 59.9073C55.632 59.8265 55.4703 59.8265 55.3086 59.7458C54.9851 59.665 54.5809 59.5843 54.2574 59.4228C52.802 59.0191 51.5083 58.4538 50.4572 57.9694C50.2146 57.8079 49.9721 57.7271 49.8103 57.6464C49.7295 57.5656 49.6486 57.5656 49.5678 57.4849C49.4869 57.4042 49.4061 57.4042 49.3252 57.3234C49.0826 57.1619 48.9209 57.0812 48.9209 57.0812C48.9209 57.0812 48.7592 57.0004 48.5166 56.8389C48.2741 56.6774 47.8698 56.4352 47.3847 56.1122C46.4952 55.547 45.2824 54.6588 44.1504 53.6898C43.0184 52.7209 42.0481 51.6712 41.3204 50.8637C41.2396 50.783 41.1587 50.7022 41.0779 50.5407C40.997 50.46 40.9162 50.3792 40.8353 50.2985C40.6736 50.137 40.5927 49.9755 40.5119 49.8947C40.431 49.814 40.3502 49.6525 40.2693 49.5718C40.1885 49.491 40.1885 49.491 40.1885 49.491C40.1885 49.491 40.1076 49.3295 39.865 49.0873C39.7842 48.9258 39.6224 48.845 39.5416 48.6028C39.3799 48.4413 39.299 48.1991 39.1373 47.9568C39.0565 47.8761 38.9756 47.7146 38.8947 47.6338C38.8139 47.4724 38.733 47.3916 38.6522 47.2301C38.4905 46.9879 38.3288 46.6649 38.167 46.4227C38.0053 46.0997 37.8436 45.8574 37.6819 45.5344C37.601 45.4537 37.601 45.373 37.5202 45.2922C37.5202 45.2115 37.4393 45.1307 37.4393 45.05C37.3585 44.8885 37.2776 44.727 37.1968 44.5655C36.6308 43.2735 36.0648 41.9009 35.8222 40.8512C35.8222 40.6897 35.7414 40.6089 35.7414 40.4474C35.7414 40.3667 35.6605 40.2052 35.6605 40.1244C35.5796 39.8822 35.5796 39.7207 35.4988 39.5592C35.4179 39.2362 35.4179 39.0747 35.4179 39.0747C35.4179 39.0747 35.4179 38.994 35.4179 38.9132C35.4179 38.8325 35.4179 38.671 35.3371 38.5903C35.3371 38.4288 35.2562 38.2673 35.2562 38.025C35.2562 37.7828 35.1753 37.5406 35.0945 37.2983C35.0945 37.0561 35.0137 36.7331 35.0137 36.4101C35.0137 36.3294 35.0137 36.2486 35.0137 36.1679C35.0137 36.0871 35.0137 36.0064 35.0137 35.9256C35.0137 35.7641 35.0137 35.6026 35.0137 35.4412C34.9328 34.7952 34.9328 34.0685 34.9328 33.3417C34.9328 32.615 34.9328 31.8883 35.0137 31.2423C35.0137 31.0809 35.0137 30.9194 35.0137 30.7579C35.0137 30.6771 35.0137 30.5964 35.0137 30.5156C35.0137 30.4349 35.0137 30.3541 35.0137 30.2734C35.0137 29.9504 35.0945 29.7082 35.0945 29.3852C35.0945 29.1429 35.1754 28.9007 35.2562 28.6585C35.2562 28.4162 35.3371 28.2547 35.3371 28.0932C35.3371 27.9317 35.4179 27.851 35.4179 27.7703C35.4179 27.6895 35.4179 27.6088 35.4179 27.6088C35.4179 27.6088 35.4988 27.4473 35.4988 27.1243C35.4988 26.9628 35.5796 26.8013 35.6605 26.5591C35.6605 26.4783 35.7414 26.3168 35.7414 26.2361C35.7414 26.1553 35.8222 25.9938 35.8222 25.8323C36.1456 24.7826 36.6308 23.4907 37.1968 22.118C37.2776 21.9565 37.3585 21.795 37.4393 21.6335C37.4393 21.5528 37.5202 21.472 37.5202 21.3913C37.601 21.3106 37.601 21.2298 37.6819 21.1491C37.8436 20.8261 38.0053 20.5031 38.167 20.2608C38.3288 19.9379 38.4905 19.6956 38.6522 19.4534C38.733 19.2919 38.8139 19.2111 38.8947 19.0497C38.9756 18.8882 39.0565 18.8074 39.1373 18.7267C39.299 18.4844 39.4607 18.3229 39.5416 18.0807C39.7033 17.9192 39.7842 17.7577 39.865 17.5962C40.0267 17.354 40.1885 17.1925 40.1885 17.1925C40.1885 17.1925 40.1885 17.1925 40.2693 17.1117C40.3502 17.031 40.3502 16.9503 40.5119 16.7888C40.5927 16.6273 40.7544 16.5465 40.8353 16.385C40.9162 16.3043 40.997 16.2235 41.0779 16.1428C41.1587 16.062 41.2396 15.9813 41.3204 15.8198C42.0481 15.0123 43.0184 13.9626 44.1504 12.9937C45.2824 12.0247 46.4144 11.2173 47.3847 10.5713C47.8698 10.2483 48.2741 10.0061 48.5166 9.84458C48.8401 9.68308 48.9209 9.60234 48.9209 9.60234C48.9209 9.60234 49.0826 9.52159 49.3252 9.3601C49.4061 9.3601 49.4869 9.27935 49.5678 9.19861C49.6486 9.11786 49.7295 9.11786 49.8103 9.03711C49.8912 9.03711 49.9721 8.95637 50.0529 8.95637C50.2146 8.95637 50.4572 8.95637 50.7806 8.95637C51.3466 8.95637 52.1552 8.79487 52.802 8.47189C53.1255 8.3104 53.4489 8.06816 53.7723 7.74517C53.934 7.58368 54.0957 7.50293 54.1766 7.34144C54.3383 7.17995 54.4192 7.0992 54.5809 6.93771C54.8234 6.69547 54.9852 6.45323 55.1469 6.29174C55.3086 6.13025 55.3894 6.0495 55.3894 6.0495C55.3894 6.0495 55.2277 6.0495 54.9851 6.0495C54.7426 6.0495 54.3383 6.0495 53.934 6.0495C53.8532 6.0495 53.6915 6.0495 53.6106 6.0495C53.5297 6.0495 53.368 6.0495 53.2872 6.13025C53.0446 6.13025 52.802 6.21099 52.5595 6.29174C52.0743 6.37248 51.67 6.53398 51.2658 6.77622C50.9423 6.93771 50.6189 7.17995 50.3764 7.42219C50.1338 7.66443 50.0529 7.90666 49.9721 8.1489C49.8912 8.39114 49.8103 8.55263 49.8103 8.71413V8.79487H49.7295C49.6486 8.87562 49.5678 8.87562 49.4061 8.95637C49.3252 9.03711 49.2444 9.03711 49.1635 9.11786C48.9209 9.27935 48.7592 9.3601 48.7592 9.3601C48.7592 9.3601 48.5975 9.44084 48.2741 9.60234C48.0315 9.76383 47.6272 10.0061 47.1421 10.3291C46.2527 10.975 45.0398 11.7825 43.9078 12.7514C42.7759 13.7204 41.8056 14.7701 41.0779 15.5776C40.997 15.6583 40.9162 15.8198 40.8353 15.9005C40.7544 15.9813 40.6736 16.062 40.5927 16.1428C40.431 16.3043 40.3502 16.4658 40.1885 16.6273C40.1076 16.7888 40.0267 16.8695 39.9459 16.9503C39.865 17.031 39.865 17.031 39.865 17.031C39.865 17.031 39.7842 17.1925 39.5416 17.4347C39.4607 17.5962 39.299 17.7577 39.2182 17.9192C39.0565 18.0807 38.9756 18.3229 38.8139 18.5652C38.733 18.6459 38.6522 18.8074 38.5713 18.8882C38.4905 19.0497 38.4096 19.1304 38.3287 19.2919C38.167 19.5341 38.0053 19.8571 37.8436 20.0994C37.6819 20.4223 37.5202 20.7453 37.3585 20.9876C37.2776 21.0683 37.2776 21.1491 37.1968 21.2298C37.1968 21.3106 37.1159 21.3913 37.1159 21.472C37.035 21.6335 36.9542 21.795 36.8733 21.9565C36.2265 23.2485 35.7413 24.6212 35.4988 25.6709C35.4988 25.8323 35.4179 25.9131 35.4179 26.0746C35.4179 26.1553 35.3371 26.3168 35.3371 26.3976C35.2562 26.6398 35.2562 26.8013 35.1754 26.9628C35.0945 27.2858 35.0945 27.4473 35.0945 27.4473C35.0945 27.4473 35.0945 27.528 35.0945 27.6088C35.0945 27.6895 35.0945 27.851 35.0137 27.9317C35.0137 28.0932 34.9328 28.2547 34.9328 28.497C34.9328 28.7392 34.8519 28.9815 34.7711 29.2237C34.7711 29.4659 34.6902 29.7889 34.6902 30.1119C34.6902 30.1926 34.6902 30.2734 34.6902 30.3541C34.6902 30.4349 34.6902 30.5156 34.6902 30.5964C34.6902 30.7579 34.6902 30.9194 34.6902 31.0809C34.6094 31.7268 34.6094 32.4535 34.6094 33.1803C34.6094 33.907 34.6094 34.6337 34.6902 35.2797C34.6902 35.4412 34.6902 35.6026 34.6902 35.7641C34.6902 35.8449 34.6902 35.9256 34.6902 36.0064C34.6902 36.0871 34.6902 36.1679 34.6902 36.2486C34.6902 36.5716 34.7711 36.8138 34.7711 37.1368C34.7711 37.3791 34.8519 37.6213 34.9328 37.8635C34.9328 38.1058 35.0137 38.2673 35.0137 38.4288C35.0137 38.5903 35.0945 38.671 35.0945 38.7518C35.0945 38.8325 35.0945 38.9132 35.0945 38.9132C35.0945 38.9132 35.1754 39.0747 35.1754 39.3977C35.1754 39.5592 35.2562 39.7207 35.3371 39.9629C35.3371 40.0437 35.4179 40.2052 35.4179 40.2859C35.4179 40.3667 35.4988 40.5282 35.4988 40.6897C35.8222 41.7394 36.3073 43.1121 36.8733 44.404C36.9542 44.5655 37.035 44.727 37.1159 44.8885C37.1159 44.9692 37.1968 45.05 37.1968 45.1307C37.2776 45.2115 37.2776 45.2922 37.3585 45.373C37.5202 45.6959 37.6819 46.0189 37.8436 46.2612C38.0053 46.5841 38.167 46.8264 38.3287 47.0686C38.4096 47.2301 38.4905 47.3109 38.5713 47.4724C38.6522 47.6338 38.733 47.7146 38.8139 47.7953C38.9756 48.0376 39.1373 48.1991 39.2182 48.4413C39.3799 48.6028 39.4607 48.7643 39.5416 48.9258C39.7033 49.168 39.865 49.3295 39.865 49.3295C39.865 49.3295 39.865 49.3295 39.9459 49.4103C40.0267 49.491 40.1076 49.5718 40.1885 49.7333C40.2693 49.8947 40.431 49.9755 40.5927 50.2177C40.6736 50.2985 40.7544 50.3792 40.8353 50.46C40.9162 50.5407 40.997 50.6215 41.0779 50.783C41.8056 51.5904 42.8567 52.6401 43.9078 53.6091C45.0398 54.578 46.2527 55.4662 47.1421 56.0315C47.6272 56.3544 48.0315 56.5967 48.2741 56.7582C48.5975 56.9197 48.7592 57.0004 48.7592 57.0004C48.7592 57.0004 48.9209 57.0812 49.1635 57.2427C49.2444 57.2427 49.3252 57.3234 49.4061 57.4042C49.4869 57.4849 49.5678 57.4849 49.7295 57.5656C49.9721 57.6464 50.1338 57.8079 50.3764 57.8886C51.3466 58.3731 52.7212 58.9383 54.1766 59.3421C54.5 59.5036 54.9043 59.5843 55.2277 59.665C55.3894 59.7458 55.5511 59.7458 55.7937 59.8265C55.9554 59.9073 56.1171 59.9073 56.2789 59.9073C56.6023 59.988 56.9257 60.0688 57.2491 60.1495C57.5726 60.2303 57.896 60.2303 58.1385 60.311C58.3003 60.311 58.3811 60.3918 58.5428 60.3918C58.7045 60.3918 58.7854 60.3918 58.8663 60.4725C59.1088 60.4725 59.2705 60.5533 59.4322 60.5533C59.7557 60.5533 59.9174 60.634 59.9174 60.634V60.3918C59.9982 60.7147 59.7557 60.7147 59.4322 60.634Z" fill="#303030"/>
<path d="M56.2773 60.3917C56.2773 60.3917 60.1584 61.3606 61.0479 64.9942L60.967 60.7954L56.5199 60.2302L56.2773 60.3917Z" fill="#303030"/>
</g>
<path d="M49.3867 94.5689V81.9786H53.8007C54.6287 81.9786 55.356 82.1363 55.9825 82.4517C56.6091 82.7672 57.0958 83.2179 57.4427 83.8037C57.8007 84.3896 57.9797 85.0769 57.9797 85.8655C57.9797 86.6542 57.8007 87.3414 57.4427 87.9273C57.0958 88.5019 56.6091 88.9525 55.9825 89.2793C55.3671 89.5947 54.6399 89.7525 53.8007 89.7525H51.0315V94.5689H49.3867ZM51.0315 88.2315H53.8511C54.3546 88.2315 54.7909 88.1357 55.1601 87.9442C55.5294 87.7527 55.8147 87.4766 56.0161 87.1161C56.2175 86.7556 56.3182 86.3387 56.3182 85.8655C56.3182 85.381 56.2175 84.9642 56.0161 84.6149C55.8147 84.2544 55.5294 83.9784 55.1601 83.7868C54.7909 83.5953 54.3546 83.4995 53.8511 83.4995H51.0315V88.2315Z" fill="#303030"/>
<path d="M66.1789 94.7717C65.2949 94.7717 64.467 94.614 63.6949 94.2985C62.9229 93.9718 62.246 93.5155 61.6642 92.9296C61.0935 92.3438 60.646 91.6565 60.3215 90.8679C59.997 90.0679 59.8348 89.2004 59.8348 88.2653C59.8348 87.3189 59.997 86.4514 60.3215 85.6627C60.646 84.8741 61.0935 84.1868 61.6642 83.6009C62.246 83.0151 62.9173 82.5644 63.6782 82.249C64.4502 81.9335 65.2837 81.7758 66.1789 81.7758C67.074 81.7758 67.9019 81.9391 68.6628 82.2659C69.4348 82.5813 70.1061 83.032 70.6768 83.6178C71.2586 84.1924 71.7117 84.8741 72.0362 85.6627C72.3719 86.4514 72.5397 87.3189 72.5397 88.2653C72.5397 89.2004 72.3719 90.0679 72.0362 90.8679C71.7117 91.6565 71.2586 92.3438 70.6768 92.9296C70.1061 93.5155 69.4348 93.9718 68.6628 94.2985C67.9019 94.614 67.074 94.7717 66.1789 94.7717ZM66.1789 93.2338C66.8726 93.2338 67.5047 93.1099 68.0754 92.862C68.646 92.6029 69.1383 92.248 69.5523 91.7973C69.9775 91.3354 70.3019 90.8059 70.5257 90.2088C70.7607 89.6004 70.8782 88.9525 70.8782 88.2653C70.8782 87.578 70.7607 86.9358 70.5257 86.3387C70.3019 85.7416 69.9775 85.2177 69.5523 84.767C69.1383 84.3051 68.646 83.9502 68.0754 83.7023C67.5047 83.4432 66.8726 83.3136 66.1789 83.3136C65.4963 83.3136 64.8698 83.4432 64.2991 83.7023C63.7285 83.9502 63.2306 84.3051 62.8054 84.767C62.3914 85.2177 62.067 85.7416 61.832 86.3387C61.597 86.9358 61.4796 87.578 61.4796 88.2653C61.4796 88.9525 61.597 89.6004 61.832 90.2088C62.067 90.8059 62.3914 91.3354 62.8054 91.7973C63.2306 92.248 63.7285 92.6029 64.2991 92.862C64.8698 93.1099 65.4963 93.2338 66.1789 93.2338Z" fill="#303030"/>
<path d="M74.9385 94.5689V81.9786H76.5833V93.0479H82.0714V94.5689H74.9385Z" fill="#303030"/>
<path d="M85.534 94.5689V88.8061L81.2039 81.9786H83.0668L86.692 87.7076H86.0207L89.6291 81.9786H91.492L87.1955 88.8061V94.5689H85.534Z" fill="#303030"/>
<path d="M98.331 94.7717C97.4471 94.7717 96.6303 94.614 95.8807 94.2985C95.131 93.9718 94.4821 93.5155 93.9338 92.9296C93.3856 92.3438 92.9548 91.6565 92.6415 90.8679C92.3394 90.0792 92.1884 89.2173 92.1884 88.2822C92.1884 87.3358 92.3394 86.4683 92.6415 85.6796C92.9436 84.891 93.3688 84.2037 93.917 83.6178C94.4653 83.032 95.1143 82.5813 95.8639 82.2659C96.6136 81.9391 97.4303 81.7758 98.3143 81.7758C99.1758 81.7758 99.9478 81.9279 100.63 82.2321C101.324 82.5362 101.906 82.9306 102.376 83.415C102.857 83.8995 103.198 84.4178 103.4 84.9698L101.923 85.6965C101.632 84.9642 101.179 84.384 100.563 83.9558C99.9478 83.5277 99.1982 83.3136 98.3143 83.3136C97.4415 83.3136 96.6639 83.5221 95.9814 83.9389C95.3101 84.3558 94.7842 84.936 94.4038 85.6796C94.0233 86.4232 93.8331 87.2907 93.8331 88.2822C93.8331 89.2624 94.0233 90.1243 94.4038 90.8679C94.7954 91.6114 95.3268 92.1917 95.9982 92.6085C96.6807 93.0254 97.4583 93.2338 98.331 93.2338C99.0919 93.2338 99.78 93.0705 100.395 92.7437C101.011 92.417 101.497 91.9663 101.856 91.3917C102.214 90.8172 102.393 90.1524 102.393 89.3976V88.6202L103.148 89.33H98.3143V87.8935H104.054V89.0089C104.054 89.8877 103.903 90.682 103.601 91.3917C103.299 92.1015 102.885 92.7099 102.359 93.2169C101.833 93.7127 101.223 94.0957 100.53 94.3661C99.8359 94.6365 99.1031 94.7717 98.331 94.7717Z" fill="#303030"/>
<path d="M112.251 94.7717C111.367 94.7717 110.539 94.614 109.767 94.2985C108.995 93.9718 108.318 93.5155 107.736 92.9296C107.165 92.3438 106.718 91.6565 106.393 90.8679C106.069 90.0679 105.907 89.2004 105.907 88.2653C105.907 87.3189 106.069 86.4514 106.393 85.6627C106.718 84.8741 107.165 84.1868 107.736 83.6009C108.318 83.0151 108.989 82.5644 109.75 82.249C110.522 81.9335 111.356 81.7758 112.251 81.7758C113.146 81.7758 113.974 81.9391 114.735 82.2659C115.507 82.5813 116.178 83.032 116.749 83.6178C117.33 84.1924 117.784 84.8741 118.108 85.6627C118.444 86.4514 118.612 87.3189 118.612 88.2653C118.612 89.2004 118.444 90.0679 118.108 90.8679C117.784 91.6565 117.33 92.3438 116.749 92.9296C116.178 93.5155 115.507 93.9718 114.735 94.2985C113.974 94.614 113.146 94.7717 112.251 94.7717ZM112.251 93.2338C112.944 93.2338 113.577 93.1099 114.147 92.862C114.718 92.6029 115.21 92.248 115.624 91.7973C116.049 91.3354 116.374 90.8059 116.598 90.2088C116.833 89.6004 116.95 88.9525 116.95 88.2653C116.95 87.578 116.833 86.9358 116.598 86.3387C116.374 85.7416 116.049 85.2177 115.624 84.767C115.21 84.3051 114.718 83.9502 114.147 83.7023C113.577 83.4432 112.944 83.3136 112.251 83.3136C111.568 83.3136 110.942 83.4432 110.371 83.7023C109.8 83.9502 109.302 84.3051 108.877 84.767C108.463 85.2177 108.139 85.7416 107.904 86.3387C107.669 86.9358 107.551 87.578 107.551 88.2653C107.551 88.9525 107.669 89.6004 107.904 90.2088C108.139 90.8059 108.463 91.3354 108.877 91.7973C109.302 92.248 109.8 92.6029 110.371 92.862C110.942 93.1099 111.568 93.2338 112.251 93.2338Z" fill="#303030"/>
<path d="M121.01 94.5689V81.9786H122.387L129.57 92.1522L128.949 92.2198V81.9786H130.61V94.5689H129.234L122.085 84.3276L122.655 84.26V94.5689H121.01Z" fill="#303030"/>
<path d="M101.053 27.703C100.11 27.1626 98.8303 27.1626 97.7528 27.703L90.0079 32.2288L84.7549 35.1335L77.212 39.7269C76.2692 40.2673 74.9896 40.2673 73.912 39.7269L67.9855 36.1467C67.0427 35.6063 66.3019 34.458 66.3019 33.2421V26.2844C66.3019 25.2036 66.8406 24.0553 67.9855 23.3798L73.8447 19.9347C74.7875 19.3943 76.0671 19.3943 77.1447 19.9347L83.0712 23.5149C84.014 24.0553 84.7549 25.2036 84.7549 26.4195V31.0129L90.0079 27.9732V23.2447C90.0079 22.1639 89.4691 21.0155 88.3242 20.34L77.3467 13.8552C76.4039 13.3148 75.1243 13.3148 74.0467 13.8552L62.7325 20.4751C61.5876 21.0155 61.0488 22.1639 61.0488 23.2447V36.2818C61.0488 37.3626 61.5876 38.511 62.7325 39.1865L73.8447 45.6713C74.7875 46.2117 76.0671 46.2117 77.1447 45.6713L84.7549 41.213L90.0079 38.1732L97.6181 33.7149C98.5609 33.1745 99.8405 33.1745 100.918 33.7149L106.845 37.16C107.787 37.7004 108.528 38.8487 108.528 40.0646V46.9547C108.528 48.0355 107.989 49.1839 106.845 49.8594L101.053 53.3045C100.11 53.8449 98.8303 53.8449 97.7528 53.3045L91.8263 49.8594C90.8834 49.319 90.1426 48.1706 90.1426 46.9547V42.4964L84.8895 45.5362V50.1296C84.8895 51.2104 85.4283 52.3588 86.5732 53.0343L97.7528 59.5191C98.6956 60.0595 99.9752 60.0595 101.053 59.5191L112.232 53.1018C113.175 52.5614 113.916 51.4131 113.916 50.1972V37.0924C113.916 36.0116 113.377 34.8633 112.232 34.1878L101.053 27.703Z" fill="#BF27D3"/>
</svg>
