<svg width="180" height="120" viewBox="0 0 180 120" fill="none" xmlns="http://www.w3.org/2000/svg">
<path d="M35.5808 114.849H34.4961L37.6334 106.245H38.7014L41.8388 114.849H40.754L38.2008 107.606H38.134L35.5808 114.849ZM35.9813 111.488H40.3535V112.412H35.9813V111.488Z" fill="#717171"/>
<path d="M45.6394 114.983C45.0386 114.983 44.5213 114.84 44.0874 114.555C43.6536 114.269 43.3198 113.876 43.0862 113.374C42.8525 112.873 42.7357 112.3 42.7357 111.656C42.7357 111.001 42.8553 110.422 43.0945 109.921C43.3365 109.417 43.673 109.024 44.1041 108.741C44.538 108.455 45.0442 108.312 45.6227 108.312C46.0733 108.312 46.4794 108.396 46.8409 108.564C47.2025 108.732 47.4987 108.968 47.7296 109.27C47.9604 109.572 48.1037 109.925 48.1593 110.329H47.1747C47.0996 110.035 46.9327 109.774 46.6741 109.547C46.4182 109.318 46.0733 109.203 45.6394 109.203C45.2556 109.203 44.9191 109.304 44.6298 109.505C44.3433 109.704 44.1194 109.986 43.9581 110.35C43.7996 110.711 43.7203 111.135 43.7203 111.623C43.7203 112.121 43.7982 112.555 43.9539 112.925C44.1125 113.294 44.335 113.582 44.6215 113.786C44.9107 113.99 45.25 114.093 45.6394 114.093C45.8953 114.093 46.1275 114.048 46.3361 113.958C46.5447 113.869 46.7213 113.74 46.866 113.572C47.0106 113.404 47.1135 113.202 47.1747 112.967H48.1593C48.1037 113.348 47.966 113.691 47.7463 113.996C47.5293 114.299 47.2414 114.539 46.8827 114.719C46.5266 114.895 46.1122 114.983 45.6394 114.983Z" fill="#717171"/>
<path d="M52.2019 114.983C51.6011 114.983 51.0838 114.84 50.6499 114.555C50.2161 114.269 49.8823 113.876 49.6487 113.374C49.415 112.873 49.2982 112.3 49.2982 111.656C49.2982 111.001 49.4178 110.422 49.657 109.921C49.899 109.417 50.2355 109.024 50.6666 108.741C51.1005 108.455 51.6067 108.312 52.1852 108.312C52.6358 108.312 53.0419 108.396 53.4034 108.564C53.765 108.732 54.0612 108.968 54.2921 109.27C54.5229 109.572 54.6662 109.925 54.7218 110.329H53.7372C53.6621 110.035 53.4952 109.774 53.2366 109.547C52.9807 109.318 52.6358 109.203 52.2019 109.203C51.8181 109.203 51.4816 109.304 51.1923 109.505C50.9058 109.704 50.6819 109.986 50.5206 110.35C50.3621 110.711 50.2828 111.135 50.2828 111.623C50.2828 112.121 50.3607 112.555 50.5164 112.925C50.675 113.294 50.8975 113.582 51.184 113.786C51.4732 113.99 51.8125 114.093 52.2019 114.093C52.4578 114.093 52.69 114.048 52.8986 113.958C53.1072 113.869 53.2838 113.74 53.4285 113.572C53.5731 113.404 53.676 113.202 53.7372 112.967H54.7218C54.6662 113.348 54.5285 113.691 54.3088 113.996C54.0918 114.299 53.8039 114.539 53.4452 114.719C53.0891 114.895 52.6747 114.983 52.2019 114.983Z" fill="#717171"/>
<path d="M58.8479 114.983C58.2304 114.983 57.6978 114.846 57.25 114.572C56.805 114.294 56.4615 113.908 56.2195 113.412C55.9803 112.914 55.8607 112.334 55.8607 111.673C55.8607 111.012 55.9803 110.429 56.2195 109.925C56.4615 109.418 56.798 109.024 57.2291 108.741C57.663 108.455 58.1692 108.312 58.7477 108.312C59.0815 108.312 59.4111 108.368 59.7365 108.48C60.0619 108.592 60.3581 108.774 60.6251 109.026C60.8921 109.276 61.1049 109.606 61.2634 110.018C61.422 110.429 61.5012 110.936 61.5012 111.538V111.959H56.5616V111.102H60.4999C60.4999 110.738 60.4276 110.413 60.283 110.127C60.1412 109.841 59.9381 109.616 59.6739 109.451C59.4125 109.285 59.1037 109.203 58.7477 109.203C58.3556 109.203 58.0162 109.301 57.7298 109.497C57.4461 109.69 57.2277 109.942 57.0748 110.253C56.9218 110.564 56.8453 110.897 56.8453 111.253V111.824C56.8453 112.311 56.9287 112.725 57.0956 113.063C57.2653 113.4 57.5003 113.656 57.8007 113.832C58.1011 114.006 58.4501 114.093 58.8479 114.093C59.1065 114.093 59.3401 114.056 59.5487 113.983C59.7601 113.908 59.9423 113.796 60.0953 113.647C60.2482 113.496 60.3664 113.308 60.4499 113.084L61.4011 113.353C61.301 113.678 61.1327 113.964 60.8963 114.21C60.6599 114.454 60.3678 114.644 60.0202 114.782C59.6725 114.916 59.2817 114.983 58.8479 114.983Z" fill="#717171"/>
<path d="M63.9835 106.245V114.849H62.999V106.245H63.9835Z" fill="#717171"/>
<path d="M68.4736 114.983C67.8562 114.983 67.3235 114.846 66.8758 114.572C66.4307 114.294 66.0873 113.908 65.8453 113.412C65.6061 112.914 65.4865 112.334 65.4865 111.673C65.4865 111.012 65.6061 110.429 65.8453 109.925C66.0873 109.418 66.4238 109.024 66.8549 108.741C67.2888 108.455 67.795 108.312 68.3735 108.312C68.7072 108.312 69.0368 108.368 69.3622 108.48C69.6877 108.592 69.9839 108.774 70.2509 109.026C70.5179 109.276 70.7306 109.606 70.8892 110.018C71.0477 110.429 71.127 110.936 71.127 111.538V111.959H66.1874V111.102H70.1257C70.1257 110.738 70.0534 110.413 69.9088 110.127C69.7669 109.841 69.5639 109.616 69.2997 109.451C69.0382 109.285 68.7295 109.203 68.3735 109.203C67.9813 109.203 67.642 109.301 67.3555 109.497C67.0718 109.69 66.8535 109.942 66.7005 110.253C66.5476 110.564 66.4711 110.897 66.4711 111.253V111.824C66.4711 112.311 66.5545 112.725 66.7214 113.063C66.891 113.4 67.1261 113.656 67.4265 113.832C67.7268 114.006 68.0759 114.093 68.4736 114.093C68.7323 114.093 68.9659 114.056 69.1745 113.983C69.3859 113.908 69.5681 113.796 69.721 113.647C69.874 113.496 69.9922 113.308 70.0756 113.084L71.0269 113.353C70.9267 113.678 70.7585 113.964 70.522 114.21C70.2856 114.454 69.9936 114.644 69.6459 114.782C69.2983 114.916 68.9075 114.983 68.4736 114.983Z" fill="#717171"/>
<path d="M72.6247 114.849V108.396H73.5759V109.371H73.6427C73.7595 109.052 73.9709 108.792 74.2768 108.594C74.5828 108.395 74.9276 108.295 75.3115 108.295C75.3838 108.295 75.4742 108.297 75.5826 108.3C75.6911 108.302 75.7732 108.307 75.8288 108.312V109.32C75.7954 109.312 75.7189 109.299 75.5993 109.283C75.4825 109.263 75.3587 109.253 75.228 109.253C74.9165 109.253 74.6384 109.319 74.3936 109.451C74.1517 109.579 73.9597 109.759 73.8179 109.988C73.6788 110.215 73.6093 110.474 73.6093 110.766V114.849H72.6247Z" fill="#717171"/>
<path d="M78.8816 115C78.4756 115 78.107 114.923 77.7761 114.769C77.4451 114.612 77.1822 114.387 76.9875 114.093C76.7929 113.796 76.6955 113.437 76.6955 113.017C76.6955 112.648 76.7678 112.348 76.9125 112.118C77.0571 111.886 77.2504 111.704 77.4924 111.572C77.7343 111.44 78.0013 111.342 78.2934 111.278C78.5882 111.211 78.8844 111.158 79.182 111.118C79.5714 111.068 79.8871 111.03 80.129 111.005C80.3738 110.977 80.5518 110.931 80.6631 110.866C80.7771 110.802 80.8341 110.69 80.8341 110.53V110.497C80.8341 110.082 80.7215 109.76 80.4962 109.53C80.2737 109.301 79.9357 109.186 79.4824 109.186C79.0123 109.186 78.6438 109.29 78.3768 109.497C78.1098 109.704 77.9221 109.925 77.8136 110.161L76.8791 109.825C77.046 109.432 77.2685 109.127 77.5466 108.909C77.8275 108.687 78.1334 108.533 78.4644 108.447C78.7982 108.357 79.1264 108.312 79.449 108.312C79.6548 108.312 79.8912 108.337 80.1582 108.388C80.428 108.435 80.6881 108.535 80.9384 108.686C81.1915 108.837 81.4015 109.066 81.5684 109.371C81.7352 109.676 81.8187 110.085 81.8187 110.597V114.849H80.8341V113.975H80.784C80.7173 114.115 80.606 114.265 80.4503 114.425C80.2945 114.584 80.0873 114.72 79.8287 114.832C79.57 114.944 79.2543 115 78.8816 115ZM79.0318 114.109C79.4212 114.109 79.7494 114.032 80.0164 113.878C80.2862 113.724 80.4892 113.526 80.6255 113.282C80.7646 113.038 80.8341 112.782 80.8341 112.513V111.606C80.7924 111.656 80.7006 111.702 80.5588 111.744C80.4197 111.784 80.2584 111.819 80.0748 111.849C79.894 111.877 79.7174 111.903 79.545 111.925C79.3753 111.945 79.2376 111.961 79.1319 111.975C78.8761 112.009 78.6369 112.064 78.4144 112.139C78.1946 112.212 78.0166 112.323 77.8804 112.471C77.7468 112.617 77.6801 112.816 77.6801 113.068C77.6801 113.412 77.8066 113.673 78.0597 113.849C78.3156 114.023 78.6396 114.109 79.0318 114.109Z" fill="#717171"/>
<path d="M86.4026 108.396V109.236H83.0817V108.396H86.4026ZM84.0496 106.85H85.0342V113C85.0342 113.28 85.0746 113.491 85.1552 113.631C85.2387 113.768 85.3443 113.86 85.4723 113.908C85.603 113.953 85.7407 113.975 85.8853 113.975C85.9938 113.975 86.0828 113.969 86.1523 113.958C86.2218 113.944 86.2775 113.933 86.3192 113.925L86.5194 114.815C86.4527 114.84 86.3595 114.866 86.2399 114.891C86.1203 114.919 85.9688 114.933 85.7852 114.933C85.507 114.933 85.2345 114.873 84.9675 114.752C84.7033 114.632 84.4835 114.448 84.3083 114.202C84.1359 113.955 84.0496 113.645 84.0496 113.269V106.85Z" fill="#717171"/>
<path d="M90.4182 114.983C89.8396 114.983 89.332 114.845 88.8954 114.567C88.4615 114.29 88.1222 113.902 87.8774 113.404C87.6354 112.905 87.5145 112.323 87.5145 111.656C87.5145 110.984 87.6354 110.397 87.8774 109.896C88.1222 109.395 88.4615 109.005 88.8954 108.728C89.332 108.451 89.8396 108.312 90.4182 108.312C90.9967 108.312 91.5029 108.451 91.9367 108.728C92.3734 109.005 92.7127 109.395 92.9547 109.896C93.1995 110.397 93.3218 110.984 93.3218 111.656C93.3218 112.323 93.1995 112.905 92.9547 113.404C92.7127 113.902 92.3734 114.29 91.9367 114.567C91.5029 114.845 90.9967 114.983 90.4182 114.983ZM90.4182 114.093C90.8576 114.093 91.2192 113.979 91.5029 113.752C91.7866 113.526 91.9965 113.227 92.1328 112.858C92.2691 112.488 92.3372 112.087 92.3372 111.656C92.3372 111.225 92.2691 110.823 92.1328 110.45C91.9965 110.078 91.7866 109.777 91.5029 109.547C91.2192 109.318 90.8576 109.203 90.4182 109.203C89.9787 109.203 89.6171 109.318 89.3334 109.547C89.0497 109.777 88.8398 110.078 88.7035 110.45C88.5672 110.823 88.499 111.225 88.499 111.656C88.499 112.087 88.5672 112.488 88.7035 112.858C88.8398 113.227 89.0497 113.526 89.3334 113.752C89.6171 113.979 89.9787 114.093 90.4182 114.093Z" fill="#717171"/>
<path d="M94.8248 114.849V108.396H95.776V109.371H95.8427C95.9596 109.052 96.1709 108.792 96.4769 108.594C96.7828 108.395 97.1277 108.295 97.5115 108.295C97.5838 108.295 97.6742 108.297 97.7827 108.3C97.8912 108.302 97.9732 108.307 98.0289 108.312V109.32C97.9955 109.312 97.919 109.299 97.7994 109.283C97.6826 109.263 97.5588 109.253 97.4281 109.253C97.1166 109.253 96.8385 109.319 96.5937 109.451C96.3517 109.579 96.1598 109.759 96.018 109.988C95.8789 110.215 95.8094 110.474 95.8094 110.766V114.849H94.8248Z" fill="#717171"/>
<path d="M103.952 114.849L102 108.396H103.034L104.419 113.336H104.486L105.854 108.396H106.906L108.257 113.32H108.324L109.709 108.396H110.744L108.791 114.849H107.824L106.422 109.892H106.322L104.92 114.849H103.952Z" fill="#717171"/>
<path d="M112.046 114.849V108.396H113.03V114.849H112.046ZM112.546 107.321C112.354 107.321 112.189 107.255 112.05 107.123C111.913 106.992 111.845 106.833 111.845 106.649C111.845 106.464 111.913 106.306 112.05 106.174C112.189 106.042 112.354 105.976 112.546 105.976C112.738 105.976 112.902 106.042 113.039 106.174C113.178 106.306 113.247 106.464 113.247 106.649C113.247 106.833 113.178 106.992 113.039 107.123C112.902 107.255 112.738 107.321 112.546 107.321Z" fill="#717171"/>
<path d="M115.818 110.967V114.849H114.834V108.396H115.785V109.404H115.868C116.018 109.077 116.246 108.813 116.552 108.615C116.858 108.413 117.253 108.312 117.737 108.312C118.171 108.312 118.551 108.402 118.876 108.581C119.202 108.757 119.455 109.026 119.635 109.388C119.816 109.746 119.907 110.2 119.907 110.749V114.849H118.922V110.816C118.922 110.309 118.791 109.914 118.53 109.631C118.268 109.346 117.91 109.203 117.454 109.203C117.139 109.203 116.858 109.271 116.611 109.409C116.366 109.546 116.173 109.746 116.031 110.009C115.889 110.273 115.818 110.592 115.818 110.967Z" fill="#717171"/>
<path d="M122.69 110.967V114.849H121.706V108.396H122.657V109.404H122.74C122.891 109.077 123.119 108.813 123.425 108.615C123.731 108.413 124.126 108.312 124.609 108.312C125.043 108.312 125.423 108.402 125.748 108.581C126.074 108.757 126.327 109.026 126.508 109.388C126.689 109.746 126.779 110.2 126.779 110.749V114.849H125.794V110.816C125.794 110.309 125.664 109.914 125.402 109.631C125.141 109.346 124.782 109.203 124.326 109.203C124.011 109.203 123.731 109.271 123.483 109.409C123.238 109.546 123.045 109.746 122.903 110.009C122.761 110.273 122.69 110.592 122.69 110.967Z" fill="#717171"/>
<path d="M131.265 114.983C130.647 114.983 130.115 114.846 129.667 114.572C129.222 114.294 128.878 113.908 128.636 113.412C128.397 112.914 128.278 112.334 128.278 111.673C128.278 111.012 128.397 110.429 128.636 109.925C128.878 109.418 129.215 109.024 129.646 108.741C130.08 108.455 130.586 108.312 131.165 108.312C131.498 108.312 131.828 108.368 132.153 108.48C132.479 108.592 132.775 108.774 133.042 109.026C133.309 109.276 133.522 109.606 133.68 110.018C133.839 110.429 133.918 110.936 133.918 111.538V111.959H128.979V111.102H132.917C132.917 110.738 132.845 110.413 132.7 110.127C132.558 109.841 132.355 109.616 132.091 109.451C131.829 109.285 131.521 109.203 131.165 109.203C130.773 109.203 130.433 109.301 130.147 109.497C129.863 109.69 129.645 109.942 129.492 110.253C129.339 110.564 129.262 110.897 129.262 111.253V111.824C129.262 112.311 129.346 112.725 129.513 113.063C129.682 113.4 129.917 113.656 130.218 113.832C130.518 114.006 130.867 114.093 131.265 114.093C131.523 114.093 131.757 114.056 131.966 113.983C132.177 113.908 132.359 113.796 132.512 113.647C132.665 113.496 132.783 113.308 132.867 113.084L133.818 113.353C133.718 113.678 133.55 113.964 133.313 114.21C133.077 114.454 132.785 114.644 132.437 114.782C132.089 114.916 131.699 114.983 131.265 114.983Z" fill="#717171"/>
<path d="M135.416 114.849V108.396H136.367V109.371H136.434C136.551 109.052 136.762 108.792 137.068 108.594C137.374 108.395 137.719 108.295 138.103 108.295C138.175 108.295 138.265 108.297 138.374 108.3C138.482 108.302 138.564 108.307 138.62 108.312V109.32C138.587 109.312 138.51 109.299 138.391 109.283C138.274 109.263 138.15 109.253 138.019 109.253C137.708 109.253 137.43 109.319 137.185 109.451C136.943 109.579 136.751 109.759 136.609 109.988C136.47 110.215 136.4 110.474 136.4 110.766V114.849H135.416Z" fill="#717171"/>
<path d="M144.326 109.841L143.442 110.093C143.386 109.945 143.304 109.801 143.196 109.661C143.09 109.518 142.945 109.4 142.762 109.308C142.578 109.215 142.343 109.169 142.057 109.169C141.664 109.169 141.338 109.26 141.076 109.442C140.818 109.621 140.688 109.85 140.688 110.127C140.688 110.373 140.777 110.568 140.955 110.711C141.133 110.854 141.411 110.973 141.79 111.068L142.741 111.303C143.314 111.443 143.741 111.658 144.022 111.946C144.303 112.232 144.443 112.6 144.443 113.051C144.443 113.421 144.337 113.751 144.126 114.042C143.917 114.334 143.625 114.563 143.25 114.731C142.874 114.899 142.438 114.983 141.94 114.983C141.286 114.983 140.745 114.84 140.317 114.555C139.889 114.269 139.617 113.852 139.503 113.303L140.438 113.068C140.527 113.415 140.695 113.675 140.943 113.849C141.193 114.023 141.52 114.109 141.923 114.109C142.382 114.109 142.746 114.011 143.016 113.815C143.289 113.617 143.425 113.379 143.425 113.101C143.425 112.877 143.347 112.69 143.191 112.538C143.036 112.384 142.796 112.269 142.474 112.194L141.406 111.942C140.819 111.802 140.388 111.585 140.113 111.291C139.84 110.994 139.704 110.623 139.704 110.177C139.704 109.813 139.805 109.491 140.008 109.211C140.214 108.931 140.494 108.711 140.847 108.552C141.203 108.392 141.606 108.312 142.057 108.312C142.691 108.312 143.189 108.452 143.55 108.732C143.915 109.012 144.173 109.382 144.326 109.841Z" fill="#717171"/>
<g opacity="0.15">
<path d="M126.47 60.0692C126.632 60.0692 126.794 60.0692 127.036 60.0692C127.117 60.0692 127.117 60.0692 127.198 60.0692C127.279 60.0692 127.279 60.0692 127.36 60.0692C127.44 60.0692 127.602 60.1499 127.683 60.1499C128.087 60.2307 128.572 60.4729 129.058 60.6344C129.543 60.7959 129.947 61.0381 130.351 61.2803C130.756 61.5226 131.16 61.6841 131.402 61.8456C131.645 62.0071 131.807 62.0878 131.807 62.0878C131.807 62.0878 131.807 62.0878 131.726 62.1686C131.645 62.1686 131.564 62.2493 131.402 62.2493C131.079 62.3301 130.675 62.4108 130.27 62.4915C130.19 62.4915 130.028 62.5723 129.947 62.5723C129.785 62.5723 129.704 62.5723 129.543 62.653C129.3 62.653 129.058 62.7338 128.734 62.7338C128.249 62.7338 127.683 62.653 127.279 62.5723C126.389 62.3301 125.823 61.7648 125.419 61.3611C125.015 60.8766 124.853 60.5536 124.853 60.5536C124.853 60.5536 125.176 60.3921 125.662 60.2306C125.823 60.0692 126.066 60.0692 126.47 60.0692Z" fill="#303030"/>
<path d="M125.097 56.5161C125.34 56.1932 125.583 55.8702 125.825 55.6279C125.987 55.4664 126.149 55.3857 126.229 55.2242C126.31 55.1435 126.391 55.1435 126.472 55.0627C126.553 54.982 126.634 54.982 126.715 54.9012C126.957 54.659 127.2 54.4975 127.442 54.4167C127.604 54.2552 127.766 54.2552 127.766 54.2552C127.766 54.2552 127.766 54.4167 127.766 54.659C127.766 54.9012 127.766 55.305 127.685 55.7087C127.604 56.1124 127.523 56.5969 127.442 57.0006C127.28 57.4044 127.119 57.8888 126.876 58.2118C126.795 58.2926 126.795 58.3733 126.715 58.4541L126.634 58.5348L126.553 58.6156C126.391 58.777 126.31 58.8578 126.148 58.9385C125.987 59.0193 125.906 59.1 125.744 59.1808C125.583 59.2615 125.502 59.2615 125.34 59.3423C124.855 59.5038 124.531 59.423 124.531 59.423C124.531 59.423 124.451 59.0193 124.531 58.4541C124.531 58.1311 124.612 57.8081 124.693 57.4851C124.693 57.4044 124.774 57.3236 124.774 57.2429C124.774 57.1621 124.855 57.0814 124.855 57.0006C124.855 56.8391 124.936 56.6776 125.097 56.5161Z" fill="#303030"/>
<path d="M131.97 57.485C131.97 57.485 132.051 57.4043 132.132 57.4043C132.212 57.3235 132.455 57.162 132.617 57.0813C132.698 57.0005 132.859 56.9198 133.021 56.9198C133.183 56.839 133.344 56.839 133.506 56.7583C133.83 56.6775 134.234 56.5968 134.638 56.5968C134.881 56.5968 135.123 56.5968 135.366 56.6775C135.608 56.6775 135.851 56.7583 136.093 56.7583C136.336 56.7583 136.579 56.839 136.821 56.9198C137.064 57.0005 137.306 57.0005 137.549 57.0813C138.034 57.162 138.438 57.2428 138.681 57.3235C139.004 57.4043 139.166 57.4043 139.166 57.4043C139.166 57.4043 139.004 57.485 138.762 57.6465C138.6 57.7272 138.519 57.808 138.277 57.8887C138.196 57.9695 138.115 57.9695 138.034 58.0502C137.953 58.131 137.872 58.131 137.711 58.2117C137.468 58.2925 137.306 58.3732 137.064 58.5347C136.983 58.6155 136.821 58.6155 136.74 58.6962C136.659 58.6962 136.659 58.7769 136.579 58.7769C136.498 58.7769 136.417 58.7769 136.417 58.8577C135.932 59.0192 135.447 59.0999 134.961 59.0999C133.991 59.0999 133.264 58.6962 132.778 58.3732C132.536 58.2117 132.374 58.0502 132.212 57.8887C131.97 57.6465 131.889 57.485 131.97 57.485C131.889 57.485 131.97 57.485 131.97 57.485Z" fill="#303030"/>
<path d="M133.264 54.7395C133.183 55.1432 132.941 55.4662 132.779 55.7084C132.698 55.8699 132.536 55.9507 132.455 56.0314C132.375 56.1122 132.213 56.1929 132.132 56.2736C131.89 56.4351 131.728 56.5159 131.566 56.5159C131.485 56.5159 131.404 56.5159 131.404 56.5966C131.324 56.5966 131.324 56.5966 131.324 56.5966C131.324 56.5966 131.243 56.5159 131.243 56.3544C131.162 56.1929 131.162 55.9507 131.081 55.7084C131 55.1432 130.919 54.4165 131.162 53.6898C131.243 53.286 131.404 52.963 131.647 52.6401C131.809 52.3171 132.051 51.9941 132.294 51.7519C132.375 51.5904 132.536 51.5096 132.617 51.3481C132.698 51.2674 132.779 51.1059 132.86 51.0251C133.021 50.8636 133.102 50.7829 133.102 50.7829C133.102 50.7829 133.183 50.9444 133.183 51.1866C133.264 51.4289 133.345 51.8326 133.345 52.2363C133.345 52.4786 133.426 52.6401 133.426 52.8823C133.426 53.1245 133.426 53.3668 133.426 53.5283C133.426 53.7705 133.426 54.0128 133.345 54.1742C133.345 54.3357 133.345 54.578 133.264 54.7395Z" fill="#303030"/>
<path d="M138.355 52.3981C138.435 52.2366 138.597 52.0751 138.759 51.9136C138.921 51.7521 139.163 51.5098 139.487 51.3484C139.81 51.1869 140.133 51.0254 140.538 50.8639C140.699 50.8639 140.861 50.7831 141.023 50.7831C141.185 50.7831 141.346 50.7024 141.508 50.7024C142.317 50.5409 143.206 50.5409 143.934 50.4601C144.661 50.4601 145.146 50.3794 145.146 50.3794C145.146 50.3794 144.985 50.6216 144.661 50.9446C144.419 51.2676 143.934 51.6713 143.448 52.0751C143.368 52.1558 143.287 52.1558 143.206 52.2366L143.125 52.3173C143.125 52.3173 143.044 52.3981 142.963 52.3981C142.802 52.4788 142.64 52.6403 142.478 52.721C142.317 52.8018 142.155 52.8825 141.993 52.9633C141.831 53.044 141.67 53.1248 141.508 53.1248C140.619 53.367 139.81 53.2055 139.244 53.044C138.678 52.8018 138.355 52.5595 138.355 52.5595C138.355 52.5595 138.274 52.4788 138.355 52.3981Z" fill="#303030"/>
<path d="M138.114 51.3483C137.952 51.5098 137.79 51.6713 137.709 51.7521C137.548 51.8328 137.467 51.8328 137.467 51.8328C137.467 51.8328 137.224 51.5098 136.901 51.0254C136.658 50.5409 136.335 49.8142 136.335 49.0067C136.335 48.7645 136.335 48.4415 136.416 48.1185C136.416 47.957 136.497 47.8763 136.497 47.7148C136.497 47.5533 136.577 47.4725 136.577 47.311C136.658 47.0688 136.739 46.9073 136.82 46.6651C136.82 46.5843 136.901 46.5843 136.901 46.5036C136.901 46.4228 136.901 46.4228 136.982 46.3421C136.982 46.2613 137.063 46.1806 137.063 46.0998C137.224 45.7769 137.305 45.6154 137.305 45.6154C137.305 45.6154 137.548 46.0191 137.871 46.5843C137.952 46.7458 138.033 46.9073 138.114 47.0688C138.114 47.1495 138.195 47.2303 138.195 47.311C138.195 47.3918 138.275 47.4725 138.275 47.5533C138.437 47.8763 138.518 48.28 138.599 48.6837C138.599 48.8452 138.68 49.0067 138.68 49.0874C138.68 49.2489 138.68 49.3297 138.68 49.4912C138.68 49.8949 138.599 50.2179 138.518 50.5409C138.437 50.8639 138.275 51.1061 138.114 51.3483Z" fill="#303030"/>
<path d="M144.419 46.3422C144.258 46.3422 144.096 46.3422 143.934 46.3422C143.287 46.3422 142.964 46.1807 142.964 46.1807C142.964 46.1807 142.964 46.0999 143.045 45.9385C143.045 45.8577 143.126 45.777 143.126 45.6962C143.126 45.6155 143.206 45.5347 143.287 45.3732C143.368 45.131 143.53 44.8888 143.772 44.6465C143.853 44.5658 143.853 44.5658 143.934 44.485C144.015 44.4043 144.096 44.3235 144.177 44.3235C144.338 44.162 144.5 44.0813 144.662 44.0005C144.824 43.9198 145.066 43.7583 145.309 43.6776C145.551 43.5968 145.713 43.4353 145.956 43.3546C146.441 43.1931 146.926 42.9508 147.33 42.8701C147.734 42.7086 148.139 42.5471 148.462 42.4664C148.705 42.3856 148.947 42.3049 148.947 42.3049C148.947 42.3049 148.866 42.4664 148.786 42.7086C148.705 42.8701 148.624 43.0316 148.543 43.1931C148.462 43.3546 148.3 43.5161 148.22 43.7583C148.139 43.9198 147.977 44.162 147.815 44.3235C147.815 44.4043 147.734 44.4043 147.734 44.485C147.734 44.5658 147.654 44.5658 147.654 44.6465C147.573 44.7273 147.492 44.808 147.411 44.9695C147.249 45.131 147.088 45.3732 146.845 45.5347C146.764 45.6155 146.683 45.6962 146.602 45.777C146.522 45.8577 146.441 45.9385 146.279 45.9385C145.875 46.1807 145.47 46.3422 145.066 46.3422C144.743 46.2614 144.581 46.3422 144.419 46.3422Z" fill="#303030"/>
<path d="M142.645 44.1619C142.645 44.4849 142.483 44.7272 142.402 44.9694C142.321 45.0501 142.321 45.2116 142.24 45.2924C142.159 45.3731 142.159 45.4539 142.079 45.5346C141.998 45.6154 141.917 45.6961 141.917 45.6961C141.917 45.6961 141.593 45.4539 141.189 45.0501C141.108 44.9694 141.027 44.8079 140.866 44.7272C140.785 44.5657 140.623 44.4849 140.542 44.3234C140.381 44.0004 140.138 43.6775 140.057 43.3545C140.057 43.2737 139.976 43.193 139.976 43.1122C139.976 43.0315 139.895 42.9507 139.895 42.7893C139.895 42.6278 139.815 42.3855 139.815 42.224C139.815 41.8203 139.815 41.4166 139.815 41.0936C139.815 40.9321 139.815 40.7706 139.895 40.6091C139.895 40.4476 139.895 40.3669 139.895 40.2054C139.895 39.9631 139.976 39.8824 139.976 39.8824C139.976 39.8824 140.138 39.9631 140.3 40.2054C140.461 40.3669 140.785 40.6898 141.027 40.9321C141.27 41.2551 141.593 41.5781 141.836 41.9818C141.998 42.1433 142.079 42.3855 142.159 42.547C142.24 42.7085 142.321 42.9507 142.402 43.1122C142.483 43.2737 142.483 43.516 142.483 43.6775C142.483 43.7582 142.483 43.839 142.483 43.9197C142.483 44.0004 142.483 44.0004 142.483 44.0812C142.645 44.0812 142.645 44.1619 142.645 44.1619Z" fill="#303030"/>
<path d="M147.979 38.3483C147.817 38.429 147.655 38.5905 147.493 38.6713C147.17 38.8328 146.847 38.9135 146.523 38.9942C145.957 39.075 145.472 39.075 145.472 39.075C145.472 39.075 145.391 38.752 145.553 38.2675C145.553 38.106 145.634 38.0253 145.634 37.8638C145.715 37.7023 145.715 37.5408 145.795 37.4601C145.876 37.2986 145.957 37.1371 146.038 36.9756C146.119 36.8948 146.119 36.8141 146.2 36.7333L146.281 36.6526L146.361 36.5719C146.927 35.9259 147.898 35.2799 148.625 34.7954C149.03 34.5532 149.353 34.311 149.596 34.1495C149.838 33.988 150 33.9072 150 33.9072C150 33.9072 150 34.0687 149.919 34.3917C149.838 34.7147 149.757 35.0377 149.677 35.5222C149.515 35.9259 149.353 36.4104 149.191 36.8948C149.111 36.9756 149.111 37.1371 149.03 37.2178C148.949 37.2986 148.868 37.4601 148.868 37.5408C148.706 37.783 148.545 37.9445 148.464 38.106C148.302 38.0253 148.14 38.1868 147.979 38.3483Z" fill="#303030"/>
<path d="M144.339 38.8327C144.339 38.8327 143.935 38.6712 143.45 38.429C143.207 38.2675 142.884 38.106 142.641 37.8637C142.48 37.783 142.399 37.6215 142.237 37.46C142.075 37.2985 141.995 37.137 141.914 36.9755C141.833 36.814 141.752 36.6525 141.59 36.491C141.51 36.3296 141.429 36.1681 141.348 35.9258C141.186 35.5221 141.105 35.1991 141.024 34.8761C140.944 34.5531 140.863 34.2301 140.863 34.0687C140.863 33.8264 140.863 33.7457 140.863 33.7457C140.863 33.7457 141.024 33.8264 141.267 33.9072C141.51 34.0687 141.833 34.2301 142.156 34.4724C142.48 34.7146 142.884 34.9569 143.207 35.2798C143.531 35.6028 143.854 35.9258 144.097 36.2488C144.178 36.4103 144.259 36.5718 144.339 36.7333C144.42 36.8948 144.42 37.0563 144.501 37.2178C144.501 37.3793 144.582 37.5407 144.582 37.7022C144.582 37.8637 144.582 37.9445 144.582 38.106C144.501 38.5097 144.339 38.8327 144.339 38.8327Z" fill="#303030"/>
<path d="M148.869 27.6898C148.869 27.8513 148.788 28.0936 148.788 28.2551C148.707 28.6588 148.626 28.9818 148.464 29.3048C148.222 29.7085 147.979 30.0315 147.737 30.2737C147.494 30.516 147.171 30.6774 146.928 30.8389C146.362 31.0812 145.958 31.1619 145.958 31.1619C145.958 31.1619 145.958 31.0812 145.877 30.9197C145.877 30.7582 145.796 30.5967 145.796 30.3545C145.796 30.1122 145.796 29.7892 145.877 29.4663C145.958 29.1433 146.039 28.8203 146.2 28.4165C146.281 28.2551 146.362 28.1743 146.443 28.0128C146.524 27.9321 146.524 27.8513 146.605 27.8513C146.686 27.7706 146.686 27.6898 146.767 27.6898C147.009 27.3668 147.252 27.0439 147.494 26.7209C147.737 26.3979 147.979 26.0749 148.222 25.8327C148.626 25.2674 148.95 24.9445 148.95 24.9445C148.95 24.9445 149.03 25.1867 149.03 25.6712C149.03 25.9134 149.111 26.1557 149.111 26.3979C149.111 26.6401 149.111 26.9631 149.111 27.2861C148.95 27.3668 148.95 27.5283 148.869 27.6898Z" fill="#303030"/>
<path d="M141.912 30.1121C141.831 30.0314 141.831 30.0314 141.75 29.9506C141.67 29.8699 141.67 29.8699 141.589 29.7891C141.508 29.7084 141.427 29.5469 141.265 29.4662C141.185 29.3854 141.104 29.2239 141.023 29.1432C140.942 28.9817 140.861 28.9009 140.78 28.8202C140.619 28.6587 140.538 28.4165 140.457 28.255C140.376 28.1742 140.376 28.0935 140.295 28.0127C140.295 27.932 140.214 27.8512 140.133 27.7705C139.972 27.4475 139.891 27.286 139.891 27.286C139.891 27.286 140.376 27.3668 141.023 27.5282C141.185 27.609 141.346 27.609 141.508 27.6897C141.67 27.7705 141.831 27.7705 142.074 27.8512C142.397 28.0127 142.802 28.1742 143.125 28.3357C143.368 28.4972 143.61 28.6587 143.853 28.8202C144.176 29.0624 144.419 29.3854 144.5 29.6277C144.661 29.9506 144.742 30.1929 144.742 30.4351C144.742 30.6774 144.742 30.8388 144.742 31.0003C144.742 31.1618 144.661 31.2426 144.661 31.2426C144.661 31.2426 144.257 31.2426 143.691 31.0811C143.206 30.9196 142.478 30.6774 141.912 30.1121Z" fill="#303030"/>
<path d="M145.471 22.1184C145.309 22.4414 145.067 22.6836 144.824 22.9258C144.42 23.3296 144.016 23.4911 144.016 23.4911C144.016 23.4911 143.935 23.4103 143.854 23.3296C143.773 23.1681 143.692 23.0066 143.611 22.7643C143.531 22.5221 143.45 22.2799 143.369 21.9569C143.369 21.7954 143.369 21.6339 143.369 21.3917C143.369 21.2302 143.369 20.9879 143.45 20.8264C143.45 20.5842 143.531 20.4227 143.611 20.1805C143.611 20.0997 143.692 19.9382 143.692 19.8575C143.692 19.7767 143.773 19.6152 143.773 19.5345C143.935 19.05 144.097 18.6463 144.339 18.1618C144.42 17.9196 144.501 17.7581 144.582 17.5966C144.663 17.4351 144.743 17.2736 144.824 17.1121C144.905 16.8699 144.986 16.7084 144.986 16.7084C144.986 16.7084 145.067 16.8699 145.229 17.1121C145.309 17.2736 145.39 17.4351 145.39 17.5966C145.471 17.7581 145.552 18.0003 145.633 18.1618C145.633 18.2426 145.714 18.404 145.714 18.4848C145.714 18.5655 145.795 18.727 145.795 18.8078C145.875 19.05 145.875 19.2923 145.956 19.5345C145.956 19.7767 146.037 20.019 146.037 20.2612C146.037 20.5035 146.037 20.7457 145.956 20.9879C145.795 21.4724 145.633 21.7954 145.471 22.1184Z" fill="#303030"/>
<path d="M139.327 23.3295C139.165 23.2488 139.004 23.0873 138.842 23.0065C138.68 22.845 138.519 22.7643 138.438 22.6028C138.276 22.4413 138.195 22.3606 138.033 22.1991C137.872 22.0376 137.791 21.9568 137.71 21.8761C137.629 21.7953 137.629 21.7953 137.548 21.7146C137.467 21.6338 137.467 21.6338 137.467 21.5531C137.306 21.3916 137.225 21.3109 137.225 21.3109C137.225 21.3109 137.387 21.3109 137.629 21.3109C137.872 21.3109 138.276 21.3109 138.68 21.3109C139.085 21.3109 139.57 21.3916 140.055 21.4723C140.136 21.4723 140.297 21.5531 140.378 21.5531C140.459 21.5531 140.621 21.6338 140.702 21.6338C140.944 21.7146 141.106 21.7953 141.348 21.8761C141.51 21.9568 141.672 22.0376 141.834 22.1991C141.995 22.2798 142.076 22.4413 142.238 22.522C142.48 22.7643 142.642 23.0065 142.723 23.2488C142.804 23.491 142.885 23.6525 142.885 23.814C142.885 23.9755 142.885 24.0562 142.885 24.0562C142.885 24.0562 142.48 24.137 141.914 24.137C141.591 24.137 141.268 24.137 140.944 24.0562C140.621 23.9755 140.216 23.8947 139.812 23.7332C139.65 23.5717 139.489 23.4103 139.327 23.3295Z" fill="#303030"/>
<path d="M141.188 15.2549C141.107 15.5779 140.945 15.9009 140.784 16.1431C140.46 16.6276 140.137 16.9506 140.137 16.9506C140.137 16.9506 139.813 16.7891 139.49 16.3854C139.409 16.3046 139.328 16.1431 139.247 16.0624C139.167 15.9009 139.086 15.8201 139.005 15.6587C138.843 15.3357 138.762 15.0127 138.762 14.5282C138.681 14.1245 138.762 13.64 138.762 13.1555C138.762 12.671 138.843 12.1866 138.924 11.7021C139.005 11.2176 139.005 10.8946 139.086 10.5716C139.166 10.3294 139.167 10.0872 139.167 10.0872C139.167 10.0872 139.167 10.0872 139.247 10.1679C139.328 10.2487 139.409 10.3294 139.49 10.4101C139.652 10.6524 139.894 10.9754 140.218 11.2984C140.46 11.7021 140.703 12.1058 140.945 12.5903C141.107 13.0748 141.269 13.5592 141.35 13.963C141.35 14.0437 141.35 14.2052 141.35 14.286C141.35 14.3667 141.35 14.5282 141.35 14.609C141.35 14.9319 141.269 15.0934 141.188 15.2549Z" fill="#303030"/>
<path d="M135.607 18.0002C135.526 18.0002 135.445 17.9194 135.284 17.9194C135.203 17.9194 135.203 17.9194 135.122 17.8387C135.041 17.8387 135.041 17.8387 134.96 17.7579C134.556 17.5964 134.233 17.4349 133.909 17.2734C133.586 17.112 133.343 16.9505 133.181 16.8697C133.101 16.789 133.02 16.789 132.939 16.7082C132.858 16.7082 132.858 16.6275 132.858 16.6275C132.858 16.6275 132.858 16.6275 132.939 16.5467C133.02 16.5467 133.101 16.466 133.262 16.466C133.505 16.3852 133.909 16.3045 134.313 16.143C134.556 16.0622 134.718 16.0622 134.96 15.9815C135.041 15.9815 135.203 15.9815 135.284 15.9008C135.365 15.9008 135.526 15.9008 135.607 15.9008C136.092 15.9008 136.577 15.9008 136.982 15.9008C137.386 15.9815 137.709 16.143 138.033 16.3045C138.195 16.3852 138.275 16.466 138.437 16.5467C138.518 16.6275 138.599 16.7082 138.68 16.8697C139.003 17.2734 139.084 17.5964 139.084 17.5964C139.084 17.5964 138.68 17.8387 138.114 17.9194C137.79 18.0002 137.467 18.0809 137.143 18.0809C136.82 18.0809 136.416 18.0809 136.011 18.0809C136.011 18.0809 135.85 18.0809 135.607 18.0002Z" fill="#303030"/>
<path d="M134.555 11.1367C134.474 11.2982 134.393 11.3789 134.393 11.3789C134.393 11.3789 134.393 11.3789 134.313 11.3789C134.313 11.3789 134.232 11.3789 134.151 11.2982C133.989 11.2174 133.827 11.1367 133.585 10.9752C133.181 10.6522 132.695 10.1677 132.372 9.36024C132.291 9.118 132.129 8.79502 132.049 8.47203C131.968 8.0683 131.887 7.66457 131.806 7.26084C131.725 6.8571 131.644 6.45337 131.563 6.13039C131.483 5.48442 131.402 4.99994 131.402 4.99994C131.402 4.99994 131.644 5.16143 131.968 5.40367C132.129 5.56516 132.372 5.64591 132.534 5.8074C132.776 5.96889 132.938 6.21113 133.181 6.37263C133.342 6.53412 133.423 6.61487 133.585 6.77636L133.666 6.8571L133.747 6.93785C133.827 7.0186 133.827 7.09934 133.908 7.18009C134.151 7.50307 134.313 7.82606 134.474 8.14905C134.555 8.39128 134.636 8.55278 134.636 8.79502C134.636 8.95651 134.717 9.19875 134.717 9.36024C134.717 9.76397 134.636 10.087 134.636 10.3292C134.717 10.8137 134.636 10.9752 134.555 11.1367Z" fill="#303030"/>
<path d="M129.22 13.4783C128.978 13.3975 128.735 13.3975 128.573 13.3168C128.331 13.236 128.169 13.236 128.007 13.1553C127.684 13.0745 127.522 12.9938 127.522 12.9938C127.522 12.9938 127.846 12.7516 128.412 12.3478C128.654 12.1863 128.978 12.0248 129.382 11.8633C129.705 11.7019 130.11 11.5404 130.514 11.4596C130.837 11.3789 131.08 11.2981 131.322 11.2981C132.131 11.2174 132.778 11.4596 133.182 11.7826C133.425 11.9441 133.505 12.0248 133.667 12.1863C133.748 12.2671 133.748 12.2671 133.748 12.3478V12.4286C133.748 12.4286 133.667 12.5093 133.505 12.5901C133.344 12.6708 133.182 12.8323 132.939 12.9938C132.697 13.1553 132.373 13.3168 132.05 13.3975C131.888 13.4783 131.727 13.559 131.484 13.559C131.322 13.6398 131.08 13.6398 130.918 13.6398C130.352 13.6398 129.786 13.559 129.22 13.4783Z" fill="#303030"/>
<path d="M120.568 60.6339C120.729 60.6339 120.891 60.5532 121.134 60.5532C121.215 60.5532 121.376 60.5532 121.457 60.4724C121.619 60.4724 121.7 60.3917 121.861 60.3917C122.104 60.311 122.427 60.311 122.751 60.2302C123.074 60.1495 123.398 60.0687 123.721 59.988C123.883 59.988 124.045 59.9072 124.206 59.9072C124.368 59.8265 124.53 59.8265 124.691 59.7457C125.015 59.665 125.419 59.5842 125.743 59.4227C127.198 59.019 128.492 58.4538 129.543 57.9693C129.785 57.8078 130.028 57.7271 130.19 57.6463C130.271 57.5656 130.351 57.5656 130.432 57.4848C130.513 57.4041 130.594 57.4041 130.675 57.3233C130.917 57.1619 131.079 57.0811 131.079 57.0811C131.079 57.0811 131.241 57.0004 131.483 56.8389C131.726 56.6774 132.13 56.4351 132.615 56.1122C133.505 55.5469 134.718 54.6587 135.85 53.6898C136.982 52.7208 137.952 51.6711 138.68 50.8636C138.76 50.7829 138.841 50.7021 138.922 50.5407C139.003 50.4599 139.084 50.3792 139.165 50.2984C139.326 50.1369 139.407 49.9754 139.488 49.8947C139.569 49.8139 139.65 49.6524 139.731 49.5717C139.812 49.491 139.812 49.491 139.812 49.491C139.812 49.491 139.892 49.3295 140.135 49.0872C140.216 48.9257 140.378 48.845 140.458 48.6027C140.62 48.4413 140.701 48.199 140.863 47.9568C140.944 47.876 141.024 47.7145 141.105 47.6338C141.186 47.4723 141.267 47.3915 141.348 47.2301C141.51 46.9878 141.671 46.6648 141.833 46.4226C141.995 46.0996 142.156 45.8574 142.318 45.5344C142.399 45.4536 142.399 45.3729 142.48 45.2921C142.48 45.2114 142.561 45.1307 142.561 45.0499C142.642 44.8884 142.722 44.7269 142.803 44.5654C143.369 43.2735 143.935 41.9008 144.178 40.8511C144.178 40.6896 144.259 40.6089 144.259 40.4474C144.259 40.3666 144.34 40.2051 144.34 40.1244C144.42 39.8821 144.42 39.7206 144.501 39.5592C144.582 39.2362 144.582 39.0747 144.582 39.0747C144.582 39.0747 144.582 38.9939 144.582 38.9132C144.582 38.8324 144.582 38.6709 144.663 38.5902C144.663 38.4287 144.744 38.2672 144.744 38.025C144.744 37.7827 144.825 37.5405 144.906 37.2983C144.906 37.056 144.986 36.733 144.986 36.4101C144.986 36.3293 144.986 36.2486 144.986 36.1678C144.986 36.0871 144.986 36.0063 144.986 35.9256C144.986 35.7641 144.986 35.6026 144.986 35.4411C145.067 34.7951 145.067 34.0684 145.067 33.3417C145.067 32.615 145.067 31.8883 144.986 31.2423C144.986 31.0808 144.986 30.9193 144.986 30.7578C144.986 30.6771 144.986 30.5963 144.986 30.5156C144.986 30.4348 144.986 30.3541 144.986 30.2733C144.986 29.9503 144.906 29.7081 144.906 29.3851C144.906 29.1429 144.825 28.9006 144.744 28.6584C144.744 28.4162 144.663 28.2547 144.663 28.0932C144.663 27.9317 144.582 27.8509 144.582 27.7702C144.582 27.6895 144.582 27.6087 144.582 27.6087C144.582 27.6087 144.501 27.4472 144.501 27.1242C144.501 26.9627 144.42 26.8012 144.34 26.559C144.34 26.4783 144.259 26.3168 144.259 26.236C144.259 26.1553 144.178 25.9938 144.178 25.8323C143.854 24.7826 143.369 23.4906 142.803 22.118C142.722 21.9565 142.642 21.795 142.561 21.6335C142.561 21.5527 142.48 21.472 142.48 21.3912C142.399 21.3105 142.399 21.2297 142.318 21.149C142.156 20.826 141.995 20.503 141.833 20.2608C141.671 19.9378 141.51 19.6956 141.348 19.4533C141.267 19.2918 141.186 19.2111 141.105 19.0496C141.024 18.8881 140.944 18.8074 140.863 18.7266C140.701 18.4844 140.539 18.3229 140.458 18.0806C140.297 17.9191 140.216 17.7577 140.135 17.5962C139.973 17.3539 139.812 17.1924 139.812 17.1924C139.812 17.1924 139.812 17.1924 139.731 17.1117C139.65 17.0309 139.65 16.9502 139.488 16.7887C139.407 16.6272 139.246 16.5465 139.165 16.385C139.084 16.3042 139.003 16.2235 138.922 16.1427C138.841 16.062 138.76 15.9812 138.68 15.8197C137.952 15.0123 136.982 13.9626 135.85 12.9936C134.718 12.0247 133.586 11.2172 132.615 10.5712C132.13 10.2482 131.726 10.006 131.483 9.84451C131.16 9.68302 131.079 9.60228 131.079 9.60228C131.079 9.60228 130.917 9.52153 130.675 9.36004C130.594 9.36004 130.513 9.27929 130.432 9.19854C130.351 9.1178 130.271 9.1178 130.19 9.03705C130.109 9.03705 130.028 8.95631 129.947 8.95631C129.785 8.95631 129.543 8.95631 129.219 8.95631C128.653 8.95631 127.845 8.79481 127.198 8.47183C126.875 8.31034 126.551 8.0681 126.228 7.74511C126.066 7.58362 125.904 7.50287 125.823 7.34138C125.662 7.17989 125.581 7.09914 125.419 6.93765C125.177 6.69541 125.015 6.45317 124.853 6.29168C124.691 6.13018 124.611 6.04944 124.611 6.04944C124.611 6.04944 124.772 6.04944 125.015 6.04944C125.257 6.04944 125.662 6.04944 126.066 6.04944C126.147 6.04944 126.309 6.04944 126.389 6.04944C126.47 6.04944 126.632 6.04944 126.713 6.13018C126.955 6.13018 127.198 6.21093 127.441 6.29168C127.926 6.37242 128.33 6.53392 128.734 6.77616C129.058 6.93765 129.381 7.17989 129.624 7.42213C129.866 7.66436 129.947 7.9066 130.028 8.14884C130.109 8.39108 130.19 8.55257 130.19 8.71407V8.79481H130.271C130.351 8.87556 130.432 8.87556 130.594 8.95631C130.675 9.03705 130.756 9.03705 130.836 9.1178C131.079 9.27929 131.241 9.36004 131.241 9.36004C131.241 9.36004 131.402 9.44078 131.726 9.60228C131.968 9.76377 132.373 10.006 132.858 10.329C133.747 10.975 134.96 11.7824 136.092 12.7514C137.224 13.7203 138.194 14.77 138.922 15.5775C139.003 15.6582 139.084 15.8197 139.165 15.9005C139.246 15.9812 139.326 16.062 139.407 16.1427C139.569 16.3042 139.65 16.4657 139.812 16.6272C139.892 16.7887 139.973 16.8694 140.054 16.9502C140.135 17.0309 140.135 17.0309 140.135 17.0309C140.135 17.0309 140.216 17.1924 140.458 17.4347C140.539 17.5962 140.701 17.7577 140.782 17.9191C140.944 18.0806 141.024 18.3229 141.186 18.5651C141.267 18.6459 141.348 18.8074 141.429 18.8881C141.51 19.0496 141.59 19.1303 141.671 19.2918C141.833 19.5341 141.995 19.8571 142.156 20.0993C142.318 20.4223 142.48 20.7453 142.642 20.9875C142.722 21.0683 142.722 21.149 142.803 21.2297C142.803 21.3105 142.884 21.3912 142.884 21.472C142.965 21.6335 143.046 21.795 143.127 21.9565C143.774 23.2484 144.259 24.6211 144.501 25.6708C144.501 25.8323 144.582 25.913 144.582 26.0745C144.582 26.1553 144.663 26.3168 144.663 26.3975C144.744 26.6397 144.744 26.8012 144.825 26.9627C144.906 27.2857 144.906 27.4472 144.906 27.4472C144.906 27.4472 144.906 27.528 144.906 27.6087C144.906 27.6895 144.905 27.8509 144.986 27.9317C144.986 28.0932 145.067 28.2547 145.067 28.4969C145.067 28.7392 145.148 28.9814 145.229 29.2236C145.229 29.4659 145.31 29.7889 145.31 30.1118C145.31 30.1926 145.31 30.2733 145.31 30.3541C145.31 30.4348 145.31 30.5156 145.31 30.5963C145.31 30.7578 145.31 30.9193 145.31 31.0808C145.391 31.7268 145.391 32.4535 145.391 33.1802C145.391 33.9069 145.391 34.6336 145.31 35.2796C145.31 35.4411 145.31 35.6026 145.31 35.7641C145.31 35.8448 145.31 35.9256 145.31 36.0063C145.31 36.0871 145.31 36.1678 145.31 36.2486C145.31 36.5715 145.229 36.8138 145.229 37.1368C145.229 37.379 145.148 37.6212 145.067 37.8635C145.067 38.1057 144.986 38.2672 144.986 38.4287C144.986 38.5902 144.906 38.6709 144.906 38.7517C144.906 38.8324 144.906 38.9132 144.906 38.9132C144.906 38.9132 144.825 39.0747 144.825 39.3977C144.825 39.5592 144.744 39.7206 144.663 39.9629C144.663 40.0436 144.582 40.2051 144.582 40.2859C144.582 40.3666 144.501 40.5281 144.501 40.6896C144.178 41.7393 143.693 43.112 143.127 44.4039C143.046 44.5654 142.965 44.7269 142.884 44.8884C142.884 44.9692 142.803 45.0499 142.803 45.1307C142.722 45.2114 142.722 45.2921 142.642 45.3729C142.48 45.6959 142.318 46.0189 142.156 46.2611C141.995 46.5841 141.833 46.8263 141.671 47.0686C141.59 47.2301 141.51 47.3108 141.429 47.4723C141.348 47.6338 141.267 47.7145 141.186 47.7953C141.024 48.0375 140.863 48.199 140.782 48.4412C140.62 48.6027 140.539 48.7642 140.458 48.9257C140.297 49.168 140.135 49.3295 140.135 49.3295C140.135 49.3295 140.135 49.3295 140.054 49.4102C139.973 49.491 139.892 49.5717 139.812 49.7332C139.731 49.8947 139.569 49.9754 139.407 50.2177C139.326 50.2984 139.246 50.3792 139.165 50.4599C139.084 50.5407 139.003 50.6214 138.922 50.7829C138.194 51.5904 137.143 52.6401 136.092 53.609C134.96 54.578 133.747 55.4662 132.858 56.0314C132.373 56.3544 131.968 56.5966 131.726 56.7581C131.402 56.9196 131.241 57.0004 131.241 57.0004C131.241 57.0004 131.079 57.0811 130.836 57.2426C130.756 57.2426 130.675 57.3233 130.594 57.4041C130.513 57.4848 130.432 57.4848 130.271 57.5656C130.028 57.6463 129.866 57.8078 129.624 57.8886C128.653 58.373 127.279 58.9383 125.823 59.342C125.5 59.5035 125.096 59.5842 124.772 59.665C124.611 59.7457 124.449 59.7457 124.206 59.8265C124.045 59.9072 123.883 59.9072 123.721 59.9072C123.398 59.988 123.074 60.0687 122.751 60.1495C122.427 60.2302 122.104 60.2302 121.861 60.311C121.7 60.311 121.619 60.3917 121.457 60.3917C121.295 60.3917 121.215 60.3917 121.134 60.4724C120.891 60.4724 120.729 60.5532 120.568 60.5532C120.244 60.5532 120.083 60.6339 120.083 60.6339V60.3917C120.002 60.7147 120.244 60.7147 120.568 60.6339Z" fill="#303030"/>
<path d="M123.723 60.3916C123.723 60.3916 119.842 61.3606 118.952 64.9941L119.033 60.7953L123.48 60.2301L123.723 60.3916Z" fill="#303030"/>
</g>
<g opacity="0.15">
<path d="M53.5299 60.0692C53.3682 60.0692 53.2064 60.0692 52.9639 60.0692C52.883 60.0692 52.883 60.0692 52.8022 60.0692C52.7213 60.0692 52.7213 60.0692 52.6405 60.0692C52.5596 60.0692 52.3979 60.15 52.317 60.15C51.9128 60.2307 51.4276 60.4729 50.9425 60.6344C50.4573 60.7959 50.053 61.0382 49.6488 61.2804C49.2445 61.5226 48.8402 61.6841 48.5976 61.8456C48.3551 62.0071 48.1934 62.0879 48.1934 62.0879C48.1934 62.0879 48.1934 62.0879 48.2742 62.1686C48.3551 62.1686 48.4359 62.2494 48.5976 62.2494C48.9211 62.3301 49.3253 62.4109 49.7296 62.4916C49.8105 62.4916 49.9722 62.5724 50.053 62.5724C50.2148 62.5724 50.2956 62.5724 50.4573 62.6531C50.6999 62.6531 50.9425 62.7338 51.2659 62.7338C51.751 62.7338 52.317 62.6531 52.7213 62.5724C53.6107 62.3301 54.1767 61.7649 54.581 61.3612C54.9853 60.8767 55.147 60.5537 55.147 60.5537C55.147 60.5537 54.8236 60.3922 54.3384 60.2307C54.1767 60.0692 53.9342 60.0692 53.5299 60.0692Z" fill="#303030"/>
<path d="M54.9026 56.5162C54.6601 56.1932 54.4175 55.8702 54.1749 55.628C54.0132 55.4665 53.8515 55.3858 53.7706 55.2243C53.6898 55.1435 53.6089 55.1435 53.5281 55.0628C53.4472 54.982 53.3664 54.982 53.2855 54.9013C53.0429 54.659 52.8004 54.4975 52.5578 54.4168C52.3961 54.2553 52.2344 54.2553 52.2344 54.2553C52.2344 54.2553 52.2344 54.4168 52.2344 54.659C52.2344 54.9013 52.2344 55.305 52.3152 55.7087C52.3961 56.1125 52.4769 56.597 52.5578 57.0007C52.7195 57.4044 52.8812 57.8889 53.1238 58.2119C53.2047 58.2926 53.2046 58.3734 53.2855 58.4541L53.3664 58.5349L53.4472 58.6156C53.6089 58.7771 53.6898 58.8579 53.8515 58.9386C54.0132 59.0193 54.0941 59.1001 54.2558 59.1808C54.4175 59.2616 54.4984 59.2616 54.6601 59.3423C55.1452 59.5038 55.4686 59.4231 55.4686 59.4231C55.4686 59.4231 55.5495 59.0193 55.4686 58.4541C55.4686 58.1311 55.3878 57.8081 55.3069 57.4852C55.3069 57.4044 55.2261 57.3237 55.2261 57.2429C55.2261 57.1622 55.1452 57.0814 55.1452 57.0007C55.1452 56.8392 55.0643 56.6777 54.9026 56.5162Z" fill="#303030"/>
<path d="M48.0302 57.4851C48.0302 57.4851 47.9493 57.4043 47.8685 57.4043C47.7876 57.3236 47.5451 57.1621 47.3833 57.0813C47.3025 57.0006 47.1408 56.9198 46.9791 56.9198C46.8174 56.8391 46.6556 56.8391 46.4939 56.7584C46.1705 56.6776 45.7662 56.5969 45.3619 56.5969C45.1194 56.5969 44.8768 56.5969 44.6342 56.6776C44.3917 56.6776 44.1491 56.7584 43.9065 56.7584C43.664 56.7584 43.4214 56.8391 43.1788 56.9198C42.9362 57.0006 42.6937 57.0006 42.4511 57.0813C41.966 57.1621 41.5617 57.2428 41.3191 57.3236C40.9957 57.4043 40.834 57.4043 40.834 57.4043C40.834 57.4043 40.9957 57.4851 41.2383 57.6466C41.4 57.7273 41.4808 57.8081 41.7234 57.8888C41.8043 57.9695 41.8851 57.9695 41.966 58.0503C42.0468 58.131 42.1277 58.131 42.2894 58.2118C42.532 58.2925 42.6937 58.3733 42.9363 58.5348C43.0171 58.6155 43.1788 58.6155 43.2597 58.6963C43.3405 58.6963 43.3405 58.777 43.4214 58.777C43.5023 58.777 43.5831 58.777 43.5831 58.8578C44.0682 59.0192 44.5534 59.1 45.0385 59.1C46.0088 59.1 46.7365 58.6963 47.2216 58.3733C47.4642 58.2118 47.6259 58.0503 47.7876 57.8888C48.0302 57.6466 48.111 57.4851 48.0302 57.4851C48.111 57.4851 48.0302 57.4851 48.0302 57.4851Z" fill="#303030"/>
<path d="M46.7359 54.7395C46.8168 55.1433 47.0593 55.4662 47.2211 55.7085C47.3019 55.87 47.4636 55.9507 47.5445 56.0315C47.6254 56.1122 47.7871 56.193 47.8679 56.2737C48.1105 56.4352 48.2722 56.516 48.4339 56.516C48.5148 56.516 48.5956 56.516 48.5956 56.5967C48.6765 56.5967 48.6765 56.5967 48.6765 56.5967C48.6765 56.5967 48.7573 56.5159 48.7573 56.3545C48.8382 56.193 48.8382 55.9507 48.919 55.7085C48.9999 55.1433 49.0808 54.4165 48.8382 53.6898C48.7573 53.2861 48.5956 52.9631 48.3531 52.6401C48.1914 52.3171 47.9488 51.9942 47.7062 51.7519C47.6253 51.5904 47.4636 51.5097 47.3828 51.3482C47.3019 51.2674 47.2211 51.1059 47.1402 51.0252C46.9785 50.8637 46.8976 50.783 46.8976 50.783C46.8976 50.783 46.8168 50.9445 46.8168 51.1867C46.7359 51.4289 46.6551 51.8327 46.6551 52.2364C46.6551 52.4786 46.5742 52.6401 46.5742 52.8824C46.5742 53.1246 46.5742 53.3668 46.5742 53.5283C46.5742 53.7706 46.5742 54.0128 46.6551 54.1743C46.6551 54.3358 46.6551 54.578 46.7359 54.7395Z" fill="#303030"/>
<path d="M41.6454 52.3981C41.5646 52.2366 41.4029 52.0751 41.2412 51.9136C41.0794 51.7521 40.8369 51.5099 40.5135 51.3484C40.19 51.1869 39.8666 51.0254 39.4623 50.8639C39.3006 50.8639 39.1389 50.7832 38.9772 50.7832C38.8155 50.7832 38.6538 50.7024 38.492 50.7024C37.6835 50.5409 36.7941 50.5409 36.0664 50.4602C35.3387 50.4602 34.8535 50.3795 34.8535 50.3795C34.8535 50.3795 35.0152 50.6217 35.3387 50.9447C35.5812 51.2677 36.0664 51.6714 36.5515 52.0751C36.6324 52.1559 36.7132 52.1559 36.7941 52.2366L36.8749 52.3174C36.8749 52.3174 36.9558 52.3981 37.0366 52.3981C37.1984 52.4789 37.3601 52.6404 37.5218 52.7211C37.6835 52.8018 37.8452 52.8826 38.0069 52.9633C38.1686 53.0441 38.3303 53.1248 38.492 53.1248C39.3815 53.3671 40.19 53.2056 40.756 53.0441C41.322 52.8018 41.6454 52.5596 41.6454 52.5596C41.6454 52.5596 41.7263 52.4789 41.6454 52.3981Z" fill="#303030"/>
<path d="M41.8863 51.3484C42.048 51.5099 42.2097 51.6714 42.2906 51.7521C42.4523 51.8329 42.5332 51.8329 42.5332 51.8329C42.5332 51.8329 42.7757 51.5099 43.0992 51.0254C43.3417 50.5409 43.6651 49.8142 43.6651 49.0068C43.6651 48.7645 43.6651 48.4415 43.5843 48.1186C43.5843 47.9571 43.5034 47.8763 43.5034 47.7148C43.5034 47.5533 43.4226 47.4726 43.4226 47.3111C43.3417 47.0689 43.2609 46.9074 43.18 46.6651C43.18 46.5844 43.0992 46.5844 43.0992 46.5036C43.0992 46.4229 43.0992 46.4229 43.0183 46.3421C43.0183 46.2614 42.9374 46.1806 42.9374 46.0999C42.7757 45.7769 42.6949 45.6154 42.6949 45.6154C42.6949 45.6154 42.4523 46.0191 42.1289 46.5844C42.048 46.7459 41.9672 46.9074 41.8863 47.0689C41.8863 47.1496 41.8055 47.2303 41.8055 47.3111C41.8055 47.3918 41.7246 47.4726 41.7246 47.5533C41.5629 47.8763 41.482 48.28 41.4012 48.6838C41.4012 48.8453 41.3203 49.0068 41.3203 49.0875C41.3203 49.249 41.3203 49.3297 41.3203 49.4912C41.3203 49.895 41.4012 50.218 41.482 50.5409C41.5629 50.8639 41.7246 51.1062 41.8863 51.3484Z" fill="#303030"/>
<path d="M35.5807 46.3422C35.7424 46.3422 35.9041 46.3422 36.0658 46.3422C36.7127 46.3422 37.0361 46.1808 37.0361 46.1808C37.0361 46.1808 37.0361 46.1 36.9553 45.9385C36.9553 45.8578 36.8744 45.777 36.8744 45.6963C36.8744 45.6155 36.7935 45.5348 36.7127 45.3733C36.6318 45.1311 36.4701 44.8888 36.2276 44.6466C36.1467 44.5658 36.1467 44.5658 36.0658 44.4851C35.985 44.4043 35.9041 44.3236 35.8233 44.3236C35.6616 44.1621 35.4998 44.0814 35.3381 44.0006C35.1764 43.9199 34.9338 43.7584 34.6913 43.6776C34.4487 43.5969 34.287 43.4354 34.0444 43.3546C33.5593 43.1931 33.0741 42.9509 32.6699 42.8702C32.2656 42.7087 31.8613 42.5472 31.5379 42.4664C31.2953 42.3857 31.0527 42.3049 31.0527 42.3049C31.0527 42.3049 31.1336 42.4664 31.2145 42.7087C31.2953 42.8702 31.3762 43.0316 31.457 43.1931C31.5379 43.3546 31.6996 43.5161 31.7805 43.7584C31.8613 43.9199 32.023 44.1621 32.1847 44.3236C32.1847 44.4043 32.2656 44.4043 32.2656 44.4851C32.2656 44.5658 32.3464 44.5658 32.3464 44.6466C32.4273 44.7273 32.5082 44.8081 32.589 44.9696C32.7507 45.1311 32.9124 45.3733 33.155 45.5348C33.2359 45.6155 33.3167 45.6963 33.3976 45.777C33.4784 45.8578 33.5593 45.9385 33.721 45.9385C34.1253 46.1808 34.5296 46.3422 34.9339 46.3422C35.2573 46.2615 35.419 46.3422 35.5807 46.3422Z" fill="#303030"/>
<path d="M37.3555 44.162C37.3555 44.485 37.5172 44.7272 37.598 44.9695C37.6789 45.0502 37.6789 45.2117 37.7598 45.2924C37.8406 45.3732 37.8406 45.4539 37.9214 45.5347C38.0023 45.6154 38.0832 45.6962 38.0832 45.6962C38.0832 45.6962 38.4066 45.4539 38.8109 45.0502C38.8917 44.9695 38.9726 44.808 39.1343 44.7272C39.2151 44.5657 39.3769 44.485 39.4577 44.3235C39.6194 44.0005 39.862 43.6775 39.9429 43.3545C39.9429 43.2738 40.0237 43.193 40.0237 43.1123C40.0237 43.0316 40.1046 42.9508 40.1046 42.7893C40.1046 42.6278 40.1854 42.3856 40.1854 42.2241C40.1854 41.8204 40.1854 41.4166 40.1854 41.0936C40.1854 40.9321 40.1854 40.7707 40.1046 40.6092C40.1046 40.4477 40.1046 40.3669 40.1046 40.2054C40.1046 39.9632 40.0237 39.8824 40.0237 39.8824C40.0237 39.8824 39.862 39.9632 39.7003 40.2054C39.5386 40.3669 39.2152 40.6899 38.9726 40.9321C38.73 41.2551 38.4066 41.5781 38.164 41.9818C38.0023 42.1433 37.9215 42.3856 37.8406 42.5471C37.7598 42.7086 37.6789 42.9508 37.598 43.1123C37.5172 43.2738 37.5172 43.516 37.5172 43.6775C37.5172 43.7583 37.5172 43.839 37.5172 43.9198C37.5172 44.0005 37.5172 44.0005 37.5172 44.0813C37.3555 44.0813 37.3555 44.162 37.3555 44.162Z" fill="#303030"/>
<path d="M32.0214 38.3483C32.1831 38.4291 32.3448 38.5906 32.5066 38.6713C32.83 38.8328 33.1534 38.9136 33.4768 38.9943C34.0428 39.0751 34.528 39.0751 34.528 39.0751C34.528 39.0751 34.6088 38.7521 34.4471 38.2676C34.4471 38.1061 34.3662 38.0254 34.3662 37.8639C34.2854 37.7024 34.2854 37.5409 34.2045 37.4601C34.1237 37.2986 34.0428 37.1371 33.962 36.9756C33.8811 36.8949 33.8811 36.8142 33.8003 36.7334L33.7194 36.6527L33.6385 36.5719C33.0725 35.9259 32.1023 35.28 31.3746 34.7955C30.9703 34.5533 30.6469 34.311 30.4043 34.1495C30.1617 33.988 30 33.9073 30 33.9073C30 33.9073 30 34.0688 30.0809 34.3918C30.1617 34.7148 30.2426 35.0377 30.3234 35.5222C30.4851 35.9259 30.6469 36.4104 30.8086 36.8949C30.8894 36.9756 30.8894 37.1371 30.9703 37.2179C31.0511 37.2986 31.132 37.4601 31.132 37.5409C31.2937 37.7831 31.4554 37.9446 31.5363 38.1061C31.698 38.0254 31.8597 38.1868 32.0214 38.3483Z" fill="#303030"/>
<path d="M35.6605 38.8327C35.6605 38.8327 36.0648 38.6713 36.55 38.429C36.7925 38.2675 37.1159 38.106 37.3585 37.8638C37.5202 37.783 37.6011 37.6216 37.7628 37.4601C37.9245 37.2986 38.0054 37.1371 38.0862 36.9756C38.1671 36.8141 38.2479 36.6526 38.4096 36.4911C38.4905 36.3296 38.5714 36.1681 38.6522 35.9259C38.8139 35.5221 38.8948 35.1992 38.9756 34.8762C39.0565 34.5532 39.1373 34.2302 39.1373 34.0687C39.1373 33.8265 39.1373 33.7457 39.1373 33.7457C39.1373 33.7457 38.9756 33.8265 38.7331 33.9072C38.4905 34.0687 38.1671 34.2302 37.8437 34.4724C37.5202 34.7147 37.1159 34.9569 36.7925 35.2799C36.4691 35.6029 36.1457 35.9259 35.9031 36.2489C35.8222 36.4104 35.7414 36.5719 35.6605 36.7333C35.5797 36.8948 35.5797 37.0563 35.4988 37.2178C35.4988 37.3793 35.418 37.5408 35.418 37.7023C35.418 37.8638 35.418 37.9445 35.418 38.106C35.4988 38.5098 35.6605 38.8327 35.6605 38.8327Z" fill="#303030"/>
<path d="M31.1312 27.6899C31.1312 27.8514 31.2121 28.0936 31.2121 28.2551C31.2929 28.6588 31.3738 28.9818 31.5355 29.3048C31.7781 29.7086 32.0206 30.0315 32.2632 30.2738C32.5058 30.516 32.8292 30.6775 33.0718 30.839C33.6378 31.0812 34.0421 31.162 34.0421 31.162C34.0421 31.162 34.0421 31.0812 34.1229 30.9197C34.1229 30.7583 34.2038 30.5968 34.2038 30.3545C34.2038 30.1123 34.2038 29.7893 34.1229 29.4663C34.0421 29.1433 33.9612 28.8203 33.7995 28.4166C33.7186 28.2551 33.6378 28.1744 33.5569 28.0129C33.4761 27.9321 33.4761 27.8514 33.3952 27.8514C33.3144 27.7706 33.3144 27.6899 33.2335 27.6899C32.9909 27.3669 32.7484 27.0439 32.5058 26.7209C32.2632 26.398 32.0207 26.075 31.7781 25.8327C31.3738 25.2675 31.0504 24.9445 31.0504 24.9445C31.0504 24.9445 30.9695 25.1868 30.9695 25.6712C30.9695 25.9135 30.8887 26.1557 30.8887 26.398C30.8887 26.6402 30.8887 26.9632 30.8887 27.2862C31.0504 27.3669 31.0504 27.5284 31.1312 27.6899Z" fill="#303030"/>
<path d="M38.0878 30.1122C38.1686 30.0314 38.1686 30.0314 38.2495 29.9507C38.3304 29.87 38.3303 29.87 38.4112 29.7892C38.4921 29.7085 38.5729 29.547 38.7346 29.4662C38.8155 29.3855 38.8964 29.224 38.9772 29.1432C39.0581 28.9817 39.1389 28.901 39.2198 28.8203C39.3815 28.6588 39.4623 28.4165 39.5432 28.255C39.624 28.1743 39.6241 28.0935 39.7049 28.0128C39.7049 27.932 39.7858 27.8513 39.8666 27.7705C40.0283 27.4476 40.1092 27.2861 40.1092 27.2861C40.1092 27.2861 39.6241 27.3668 38.9772 27.5283C38.8155 27.6091 38.6538 27.6091 38.4921 27.6898C38.3304 27.7705 38.1686 27.7705 37.9261 27.8513C37.6026 28.0128 37.1984 28.1743 36.8749 28.3358C36.6324 28.4973 36.3898 28.6588 36.1472 28.8203C35.8238 29.0625 35.5812 29.3855 35.5004 29.6277C35.3387 29.9507 35.2578 30.1929 35.2578 30.4352C35.2578 30.6774 35.2578 30.8389 35.2578 31.0004C35.2578 31.1619 35.3387 31.2426 35.3387 31.2426C35.3387 31.2426 35.7429 31.2426 36.3089 31.0811C36.7941 30.9197 37.5218 30.6774 38.0878 30.1122Z" fill="#303030"/>
<path d="M34.5289 22.1184C34.6906 22.4414 34.9332 22.6837 35.1757 22.9259C35.58 23.3296 35.9843 23.4911 35.9843 23.4911C35.9843 23.4911 36.0652 23.4104 36.146 23.3296C36.2269 23.1681 36.3077 23.0066 36.3886 22.7644C36.4694 22.5222 36.5503 22.2799 36.6312 21.9569C36.6312 21.7955 36.6312 21.634 36.6312 21.3917C36.6312 21.2302 36.6312 20.988 36.5503 20.8265C36.5503 20.5843 36.4694 20.4228 36.3886 20.1805C36.3886 20.0998 36.3077 19.9383 36.3077 19.8575C36.3077 19.7768 36.2269 19.6153 36.2269 19.5346C36.0652 19.0501 35.9034 18.6463 35.6609 18.1619C35.58 17.9196 35.4992 17.7581 35.4183 17.5966C35.3375 17.4352 35.2566 17.2737 35.1757 17.1122C35.0949 16.8699 35.014 16.7084 35.014 16.7084C35.014 16.7084 34.9332 16.8699 34.7715 17.1122C34.6906 17.2737 34.6098 17.4352 34.6098 17.5966C34.5289 17.7581 34.448 18.0004 34.3672 18.1619C34.3672 18.2426 34.2863 18.4041 34.2863 18.4849C34.2863 18.5656 34.2055 18.7271 34.2055 18.8078C34.1246 19.0501 34.1246 19.2923 34.0438 19.5346C34.0438 19.7768 33.9629 20.019 33.9629 20.2613C33.9629 20.5035 33.9629 20.7457 34.0438 20.988C34.2055 21.4725 34.3672 21.7955 34.5289 22.1184Z" fill="#303030"/>
<path d="M40.6729 23.3296C40.8346 23.2488 40.9963 23.0873 41.158 23.0066C41.3198 22.8451 41.4815 22.7643 41.5623 22.6029C41.724 22.4414 41.8049 22.3606 41.9666 22.1991C42.1283 22.0376 42.2092 21.9569 42.2901 21.8761C42.3709 21.7954 42.3709 21.7954 42.4518 21.7146C42.5326 21.6339 42.5326 21.6339 42.5326 21.5532C42.6943 21.3917 42.7752 21.3109 42.7752 21.3109C42.7752 21.3109 42.6135 21.3109 42.3709 21.3109C42.1283 21.3109 41.7241 21.3109 41.3198 21.3109C40.9155 21.3109 40.4303 21.3917 39.9452 21.4724C39.8643 21.4724 39.7026 21.5532 39.6218 21.5532C39.5409 21.5532 39.3792 21.6339 39.2984 21.6339C39.0558 21.7146 38.8941 21.7954 38.6515 21.8761C38.4898 21.9569 38.3281 22.0376 38.1664 22.1991C38.0047 22.2799 37.9238 22.4414 37.7621 22.5221C37.5195 22.7643 37.3578 23.0066 37.277 23.2488C37.1961 23.4911 37.1152 23.6526 37.1152 23.814C37.1152 23.9755 37.1152 24.0563 37.1152 24.0563C37.1152 24.0563 37.5195 24.137 38.0855 24.137C38.4089 24.137 38.7324 24.137 39.0558 24.0563C39.3792 23.9755 39.7835 23.8948 40.1878 23.7333C40.3495 23.5718 40.5112 23.4103 40.6729 23.3296Z" fill="#303030"/>
<path d="M38.8121 15.255C38.8929 15.578 39.0547 15.901 39.2164 16.1432C39.5398 16.6277 39.8632 16.9507 39.8632 16.9507C39.8632 16.9507 40.1867 16.7892 40.5101 16.3854C40.5909 16.3047 40.6718 16.1432 40.7526 16.0624C40.8335 15.901 40.9144 15.8202 40.9952 15.6587C41.1569 15.3357 41.2378 15.0127 41.2378 14.5283C41.3186 14.1245 41.2378 13.6401 41.2378 13.1556C41.2378 12.6711 41.1569 12.1866 41.0761 11.7021C40.9952 11.2177 40.9952 10.8947 40.9144 10.5717C40.8335 10.3295 40.8335 10.0872 40.8335 10.0872C40.8335 10.0872 40.8335 10.0872 40.7526 10.168C40.6718 10.2487 40.5909 10.3295 40.5101 10.4102C40.3484 10.6524 40.1058 10.9754 39.7824 11.2984C39.5398 11.7021 39.2972 12.1059 39.0547 12.5904C38.893 13.0748 38.7312 13.5593 38.6504 13.963C38.6504 14.0438 38.6504 14.2053 38.6504 14.286C38.6504 14.3668 38.6504 14.5283 38.6504 14.609C38.6504 14.932 38.7312 15.0935 38.8121 15.255Z" fill="#303030"/>
<path d="M44.3928 18.0002C44.4737 18.0002 44.5546 17.9195 44.7163 17.9195C44.7971 17.9195 44.7971 17.9195 44.878 17.8387C44.9588 17.8387 44.9588 17.8387 45.0397 17.758C45.444 17.5965 45.7674 17.435 46.0908 17.2735C46.4142 17.112 46.6568 16.9505 46.8185 16.8698C46.8994 16.789 46.9802 16.789 47.0611 16.7083C47.142 16.7083 47.142 16.6275 47.142 16.6275C47.142 16.6275 47.142 16.6275 47.0611 16.5468C46.9802 16.5468 46.8994 16.466 46.7377 16.466C46.4951 16.3853 46.0908 16.3045 45.6865 16.1431C45.444 16.0623 45.2823 16.0623 45.0397 15.9816C44.9588 15.9816 44.7971 15.9816 44.7163 15.9008C44.6354 15.9008 44.4737 15.9008 44.3928 15.9008C43.9077 15.9008 43.4226 15.9008 43.0183 15.9008C42.614 15.9816 42.2906 16.1431 41.9671 16.3045C41.8054 16.3853 41.7246 16.466 41.5629 16.5468C41.482 16.6275 41.4012 16.7083 41.3203 16.8698C40.9969 17.2735 40.916 17.5965 40.916 17.5965C40.916 17.5965 41.3203 17.8387 41.8863 17.9195C42.2097 18.0002 42.5331 18.081 42.8566 18.081C43.18 18.081 43.5843 18.081 43.9885 18.081C43.9885 18.081 44.1503 18.081 44.3928 18.0002Z" fill="#303030"/>
<path d="M45.4449 11.1367C45.5258 11.2982 45.6066 11.379 45.6066 11.379C45.6066 11.379 45.6066 11.379 45.6875 11.379C45.6875 11.379 45.7684 11.379 45.8492 11.2982C46.0109 11.2175 46.1726 11.1367 46.4152 10.9752C46.8195 10.6522 47.3046 10.1678 47.628 9.3603C47.7089 9.11806 47.8706 8.79508 47.9515 8.47209C48.0323 8.06836 48.1132 7.66463 48.194 7.2609C48.2749 6.85717 48.3557 6.45343 48.4366 6.13045C48.5175 5.48448 48.5983 5 48.5983 5C48.5983 5 48.3557 5.16149 48.0323 5.40373C47.8706 5.56522 47.628 5.64597 47.4663 5.80746C47.2238 5.96896 47.062 6.21119 46.8195 6.37269C46.6578 6.53418 46.5769 6.61493 46.4152 6.77642L46.3343 6.85717L46.2535 6.93791C46.1726 7.01866 46.1726 7.0994 46.0918 7.18015C45.8492 7.50314 45.6875 7.82612 45.5258 8.14911C45.4449 8.39135 45.3641 8.55284 45.3641 8.79508C45.3641 8.95657 45.2832 9.19881 45.2832 9.3603C45.2832 9.76403 45.3641 10.087 45.3641 10.3293C45.2832 10.8137 45.3641 10.9752 45.4449 11.1367Z" fill="#303030"/>
<path d="M50.7799 13.4783C51.0225 13.3976 51.265 13.3976 51.4268 13.3168C51.6693 13.2361 51.831 13.2361 51.9928 13.1553C52.3162 13.0746 52.4779 12.9939 52.4779 12.9939C52.4779 12.9939 52.1545 12.7516 51.5885 12.3479C51.3459 12.1864 51.0225 12.0249 50.6182 11.8634C50.2948 11.7019 49.8905 11.5404 49.4862 11.4597C49.1628 11.3789 48.9202 11.2982 48.6776 11.2982C47.8691 11.2174 47.2222 11.4597 46.8179 11.7827C46.5754 11.9442 46.4945 12.0249 46.3328 12.1864C46.252 12.2671 46.252 12.2671 46.252 12.3479V12.4286C46.252 12.4286 46.3328 12.5094 46.4945 12.5901C46.6562 12.6709 46.8179 12.8324 47.0605 12.9939C47.3031 13.1553 47.6265 13.3168 47.9499 13.3976C48.1117 13.4783 48.2734 13.5591 48.5159 13.5591C48.6776 13.6398 48.9202 13.6398 49.0819 13.6398C49.6479 13.6398 50.2139 13.5591 50.7799 13.4783Z" fill="#303030"/>
<path d="M59.4322 60.634C59.2705 60.634 59.1088 60.5533 58.8663 60.5533C58.7854 60.5533 58.6237 60.5533 58.5428 60.4725C58.3811 60.4725 58.3003 60.3918 58.1385 60.3918C57.896 60.311 57.5726 60.311 57.2491 60.2303C56.9257 60.1495 56.6023 60.0688 56.2789 59.988C56.1171 59.988 55.9554 59.9073 55.7937 59.9073C55.632 59.8265 55.4703 59.8265 55.3086 59.7458C54.9851 59.6651 54.5809 59.5843 54.2574 59.4228C52.802 59.0191 51.5083 58.4538 50.4572 57.9694C50.2146 57.8079 49.9721 57.7271 49.8103 57.6464C49.7295 57.5656 49.6486 57.5656 49.5678 57.4849C49.4869 57.4042 49.4061 57.4042 49.3252 57.3234C49.0826 57.1619 48.9209 57.0812 48.9209 57.0812C48.9209 57.0812 48.7592 57.0004 48.5166 56.8389C48.2741 56.6774 47.8698 56.4352 47.3847 56.1122C46.4952 55.547 45.2824 54.6588 44.1504 53.6898C43.0184 52.7209 42.0481 51.6712 41.3204 50.8637C41.2396 50.783 41.1587 50.7022 41.0779 50.5407C40.997 50.46 40.9162 50.3792 40.8353 50.2985C40.6736 50.137 40.5927 49.9755 40.5119 49.8947C40.431 49.814 40.3502 49.6525 40.2693 49.5718C40.1885 49.491 40.1885 49.491 40.1885 49.491C40.1885 49.491 40.1076 49.3295 39.865 49.0873C39.7842 48.9258 39.6224 48.845 39.5416 48.6028C39.3799 48.4413 39.299 48.1991 39.1373 47.9568C39.0565 47.8761 38.9756 47.7146 38.8947 47.6339C38.8139 47.4724 38.733 47.3916 38.6522 47.2301C38.4905 46.9879 38.3288 46.6649 38.167 46.4227C38.0053 46.0997 37.8436 45.8574 37.6819 45.5344C37.601 45.4537 37.601 45.373 37.5202 45.2922C37.5202 45.2115 37.4393 45.1307 37.4393 45.05C37.3585 44.8885 37.2776 44.727 37.1968 44.5655C36.6308 43.2735 36.0648 41.9009 35.8222 40.8512C35.8222 40.6897 35.7414 40.6089 35.7414 40.4474C35.7414 40.3667 35.6605 40.2052 35.6605 40.1244C35.5796 39.8822 35.5796 39.7207 35.4988 39.5592C35.4179 39.2362 35.4179 39.0747 35.4179 39.0747C35.4179 39.0747 35.4179 38.994 35.4179 38.9132C35.4179 38.8325 35.4179 38.671 35.3371 38.5903C35.3371 38.4288 35.2562 38.2673 35.2562 38.025C35.2562 37.7828 35.1753 37.5406 35.0945 37.2983C35.0945 37.0561 35.0137 36.7331 35.0137 36.4101C35.0137 36.3294 35.0137 36.2486 35.0137 36.1679C35.0137 36.0871 35.0137 36.0064 35.0137 35.9256C35.0137 35.7641 35.0137 35.6026 35.0137 35.4412C34.9328 34.7952 34.9328 34.0685 34.9328 33.3418C34.9328 32.615 34.9328 31.8883 35.0137 31.2423C35.0137 31.0809 35.0137 30.9194 35.0137 30.7579C35.0137 30.6771 35.0137 30.5964 35.0137 30.5156C35.0137 30.4349 35.0137 30.3541 35.0137 30.2734C35.0137 29.9504 35.0945 29.7082 35.0945 29.3852C35.0945 29.1429 35.1754 28.9007 35.2562 28.6585C35.2562 28.4162 35.3371 28.2547 35.3371 28.0932C35.3371 27.9318 35.4179 27.851 35.4179 27.7703C35.4179 27.6895 35.4179 27.6088 35.4179 27.6088C35.4179 27.6088 35.4988 27.4473 35.4988 27.1243C35.4988 26.9628 35.5796 26.8013 35.6605 26.5591C35.6605 26.4783 35.7414 26.3168 35.7414 26.2361C35.7414 26.1553 35.8222 25.9938 35.8222 25.8323C36.1456 24.7826 36.6308 23.4907 37.1968 22.118C37.2776 21.9565 37.3585 21.795 37.4393 21.6335C37.4393 21.5528 37.5202 21.472 37.5202 21.3913C37.601 21.3106 37.601 21.2298 37.6819 21.1491C37.8436 20.8261 38.0053 20.5031 38.167 20.2609C38.3288 19.9379 38.4905 19.6956 38.6522 19.4534C38.733 19.2919 38.8139 19.2111 38.8947 19.0497C38.9756 18.8882 39.0565 18.8074 39.1373 18.7267C39.299 18.4844 39.4607 18.3229 39.5416 18.0807C39.7033 17.9192 39.7842 17.7577 39.865 17.5962C40.0267 17.354 40.1885 17.1925 40.1885 17.1925C40.1885 17.1925 40.1885 17.1925 40.2693 17.1117C40.3502 17.031 40.3502 16.9503 40.5119 16.7888C40.5927 16.6273 40.7544 16.5465 40.8353 16.385C40.9162 16.3043 40.997 16.2235 41.0779 16.1428C41.1587 16.062 41.2396 15.9813 41.3204 15.8198C42.0481 15.0123 43.0184 13.9626 44.1504 12.9937C45.2824 12.0247 46.4144 11.2173 47.3847 10.5713C47.8698 10.2483 48.2741 10.0061 48.5166 9.84458C48.8401 9.68308 48.9209 9.60234 48.9209 9.60234C48.9209 9.60234 49.0826 9.52159 49.3252 9.3601C49.4061 9.3601 49.4869 9.27935 49.5678 9.19861C49.6486 9.11786 49.7295 9.11786 49.8103 9.03711C49.8912 9.03711 49.9721 8.95637 50.0529 8.95637C50.2146 8.95637 50.4572 8.95637 50.7806 8.95637C51.3466 8.95637 52.1552 8.79487 52.802 8.47189C53.1255 8.3104 53.4489 8.06816 53.7723 7.74517C53.934 7.58368 54.0957 7.50293 54.1766 7.34144C54.3383 7.17995 54.4192 7.0992 54.5809 6.93771C54.8234 6.69547 54.9852 6.45323 55.1469 6.29174C55.3086 6.13025 55.3894 6.0495 55.3894 6.0495C55.3894 6.0495 55.2277 6.0495 54.9851 6.0495C54.7426 6.0495 54.3383 6.0495 53.934 6.0495C53.8532 6.0495 53.6915 6.0495 53.6106 6.0495C53.5297 6.0495 53.368 6.0495 53.2872 6.13025C53.0446 6.13025 52.802 6.21099 52.5595 6.29174C52.0743 6.37248 51.67 6.53398 51.2658 6.77622C50.9423 6.93771 50.6189 7.17995 50.3764 7.42219C50.1338 7.66443 50.0529 7.90666 49.9721 8.1489C49.8912 8.39114 49.8103 8.55264 49.8103 8.71413V8.79487H49.7295C49.6486 8.87562 49.5678 8.87562 49.4061 8.95637C49.3252 9.03711 49.2444 9.03711 49.1635 9.11786C48.9209 9.27935 48.7592 9.3601 48.7592 9.3601C48.7592 9.3601 48.5975 9.44084 48.2741 9.60234C48.0315 9.76383 47.6272 10.0061 47.1421 10.3291C46.2527 10.975 45.0398 11.7825 43.9078 12.7514C42.7759 13.7204 41.8056 14.7701 41.0779 15.5776C40.997 15.6583 40.9162 15.8198 40.8353 15.9005C40.7544 15.9813 40.6736 16.062 40.5927 16.1428C40.431 16.3043 40.3502 16.4658 40.1885 16.6273C40.1076 16.7888 40.0267 16.8695 39.9459 16.9503C39.865 17.031 39.865 17.031 39.865 17.031C39.865 17.031 39.7842 17.1925 39.5416 17.4347C39.4607 17.5962 39.299 17.7577 39.2182 17.9192C39.0565 18.0807 38.9756 18.3229 38.8139 18.5652C38.733 18.6459 38.6522 18.8074 38.5713 18.8882C38.4905 19.0497 38.4096 19.1304 38.3287 19.2919C38.167 19.5341 38.0053 19.8571 37.8436 20.0994C37.6819 20.4223 37.5202 20.7453 37.3585 20.9876C37.2776 21.0683 37.2776 21.1491 37.1968 21.2298C37.1968 21.3106 37.1159 21.3913 37.1159 21.472C37.035 21.6335 36.9542 21.795 36.8733 21.9565C36.2265 23.2485 35.7413 24.6212 35.4988 25.6709C35.4988 25.8323 35.4179 25.9131 35.4179 26.0746C35.4179 26.1553 35.3371 26.3168 35.3371 26.3976C35.2562 26.6398 35.2562 26.8013 35.1754 26.9628C35.0945 27.2858 35.0945 27.4473 35.0945 27.4473C35.0945 27.4473 35.0945 27.528 35.0945 27.6088C35.0945 27.6895 35.0945 27.851 35.0137 27.9317C35.0137 28.0932 34.9328 28.2547 34.9328 28.497C34.9328 28.7392 34.8519 28.9815 34.7711 29.2237C34.7711 29.4659 34.6902 29.7889 34.6902 30.1119C34.6902 30.1926 34.6902 30.2734 34.6902 30.3541C34.6902 30.4349 34.6902 30.5156 34.6902 30.5964C34.6902 30.7579 34.6902 30.9194 34.6902 31.0809C34.6094 31.7268 34.6094 32.4535 34.6094 33.1803C34.6094 33.907 34.6094 34.6337 34.6902 35.2797C34.6902 35.4412 34.6902 35.6026 34.6902 35.7641C34.6902 35.8449 34.6902 35.9256 34.6902 36.0064C34.6902 36.0871 34.6902 36.1679 34.6902 36.2486C34.6902 36.5716 34.7711 36.8138 34.7711 37.1368C34.7711 37.3791 34.8519 37.6213 34.9328 37.8635C34.9328 38.1058 35.0137 38.2673 35.0137 38.4288C35.0137 38.5903 35.0945 38.671 35.0945 38.7518C35.0945 38.8325 35.0945 38.9132 35.0945 38.9132C35.0945 38.9132 35.1754 39.0747 35.1754 39.3977C35.1754 39.5592 35.2562 39.7207 35.3371 39.963C35.3371 40.0437 35.4179 40.2052 35.4179 40.2859C35.4179 40.3667 35.4988 40.5282 35.4988 40.6897C35.8222 41.7394 36.3073 43.1121 36.8733 44.404C36.9542 44.5655 37.035 44.727 37.1159 44.8885C37.1159 44.9692 37.1968 45.05 37.1968 45.1307C37.2776 45.2115 37.2776 45.2922 37.3585 45.373C37.5202 45.6959 37.6819 46.0189 37.8436 46.2612C38.0053 46.5841 38.167 46.8264 38.3287 47.0686C38.4096 47.2301 38.4905 47.3109 38.5713 47.4724C38.6522 47.6339 38.733 47.7146 38.8139 47.7953C38.9756 48.0376 39.1373 48.1991 39.2182 48.4413C39.3799 48.6028 39.4607 48.7643 39.5416 48.9258C39.7033 49.168 39.865 49.3295 39.865 49.3295C39.865 49.3295 39.865 49.3295 39.9459 49.4103C40.0267 49.491 40.1076 49.5718 40.1885 49.7333C40.2693 49.8947 40.431 49.9755 40.5927 50.2177C40.6736 50.2985 40.7544 50.3792 40.8353 50.46C40.9162 50.5407 40.997 50.6215 41.0779 50.783C41.8056 51.5904 42.8567 52.6401 43.9078 53.6091C45.0398 54.578 46.2527 55.4662 47.1421 56.0315C47.6272 56.3545 48.0315 56.5967 48.2741 56.7582C48.5975 56.9197 48.7592 57.0004 48.7592 57.0004C48.7592 57.0004 48.9209 57.0812 49.1635 57.2427C49.2444 57.2427 49.3252 57.3234 49.4061 57.4042C49.4869 57.4849 49.5678 57.4849 49.7295 57.5656C49.9721 57.6464 50.1338 57.8079 50.3764 57.8886C51.3466 58.3731 52.7212 58.9383 54.1766 59.3421C54.5 59.5036 54.9043 59.5843 55.2277 59.665C55.3894 59.7458 55.5511 59.7458 55.7937 59.8265C55.9554 59.9073 56.1171 59.9073 56.2789 59.9073C56.6023 59.988 56.9257 60.0688 57.2491 60.1495C57.5726 60.2303 57.896 60.2303 58.1385 60.311C58.3003 60.311 58.3811 60.3918 58.5428 60.3918C58.7045 60.3918 58.7854 60.3918 58.8663 60.4725C59.1088 60.4725 59.2705 60.5533 59.4322 60.5533C59.7557 60.5533 59.9174 60.634 59.9174 60.634V60.3918C59.9982 60.7147 59.7557 60.7148 59.4322 60.634Z" fill="#303030"/>
<path d="M56.2773 60.3917C56.2773 60.3917 60.1584 61.3606 61.0479 64.9942L60.967 60.7954L56.5199 60.2302L56.2773 60.3917Z" fill="#303030"/>
</g>
<path fill-rule="evenodd" clip-rule="evenodd" d="M65.7573 5.03496C65.6287 5.08189 65.4768 5.19005 65.4004 5.28911C65.2527 5.48046 65.2031 5.84157 65.2802 6.16237C65.3081 6.27838 66.069 8.43851 66.3931 9.32165C66.469 9.52871 66.6038 9.90443 67.1718 11.4924C67.4305 12.2158 67.755 13.1213 67.8928 13.5047C68.0307 13.8882 68.2095 14.3873 68.2901 14.6139C68.6223 15.5472 68.9895 16.573 69.1354 16.9748C69.2208 17.2101 69.3793 17.6522 69.4876 17.9572C69.5958 18.2622 69.8892 19.0822 70.1395 19.7794C70.3899 20.4766 70.6761 21.2752 70.7756 21.554C70.8752 21.8329 71.1484 22.5958 71.3829 23.2495C71.6173 23.9031 71.8627 24.5876 71.928 24.7706C71.9934 24.9536 72.1161 25.2958 72.2008 25.5311C72.2854 25.7664 72.4387 26.1943 72.5415 26.4818C72.817 27.2531 73.7641 29.8987 74.1749 31.0452C74.3717 31.5943 74.6052 32.2431 74.6939 32.4871C74.7825 32.7311 74.8943 33.0449 74.9423 33.1843C74.9903 33.3237 75.2069 33.9298 75.4236 34.5311C75.6404 35.1325 75.8706 35.7742 75.9354 35.9572C76.0001 36.1402 76.2735 36.9031 76.5428 37.6526C76.8121 38.4021 77.1059 39.2221 77.1957 39.4748C77.3937 40.0324 77.7061 40.9035 77.8548 41.3128C77.9623 41.6088 78.0453 41.8408 78.3136 42.5963C78.3879 42.8054 78.5491 43.2546 78.6719 43.5945C78.7946 43.9344 78.9478 44.3622 79.0123 44.5452C79.1608 44.9666 79.5815 46.141 79.7841 46.7001C79.8694 46.9354 80.1098 47.6057 80.3184 48.1896C80.5269 48.7735 81.0096 50.1211 81.3909 51.1843C81.7722 52.2475 82.3596 53.8875 82.6962 54.8287C83.0327 55.7699 83.3547 56.6683 83.4117 56.8251C83.4686 56.982 83.6758 57.5596 83.872 58.1086C84.8023 60.7116 85.0866 61.5053 85.1829 61.7688C85.2402 61.9257 85.4016 62.3749 85.5415 62.767C86.5086 65.4782 86.4723 65.3869 86.6619 65.5862C86.999 65.9403 87.4099 65.9222 87.7917 65.5362C87.8818 65.4451 88.3173 64.8082 88.8509 63.9871C89.3493 63.2202 90.2025 61.9082 90.7468 61.0716C91.2912 60.235 92.149 58.9159 92.6532 58.1403C94.7371 54.9343 95.3814 53.9436 96.59 52.0875C97.8321 50.1797 98.7133 48.825 100.537 46.0188C101.036 45.2519 101.959 43.833 102.589 42.8656C103.871 40.895 105.229 38.8079 106.64 36.6385C108.267 34.1358 109.485 32.2634 110.608 30.5382C114.834 24.0433 115.339 23.2638 115.396 23.1506C115.519 22.9087 115.571 22.6891 115.588 22.3462C115.602 22.0505 115.594 21.9592 115.536 21.7452C115.441 21.3896 115.304 21.1458 115.052 20.883C114.871 20.6934 114.476 20.4114 112.675 19.1845C111.487 18.3754 109.962 17.3367 109.287 16.8764C107.764 15.8383 107.292 15.5695 106.256 15.1515C105.608 14.8896 106.346 15.0826 96.9786 12.7242C96.3546 12.567 94.9979 12.2248 93.9637 11.9636C92.9295 11.7024 91.5728 11.3603 90.9488 11.2035C90.3248 11.0467 89.2549 10.7774 88.5711 10.605C87.8873 10.4327 86.4466 10.0698 85.3697 9.79855C84.2927 9.52732 82.4255 9.0565 81.2203 8.75227C78.157 7.979 75.7846 7.38111 74.5999 7.08382C73.4271 6.78952 71.7793 6.37396 68.881 5.64167C67.7441 5.35443 66.6981 5.09162 66.5564 5.05768C66.278 4.99097 65.9068 4.98042 65.7573 5.03496ZM71.6383 8.3095C73.919 8.88506 75.9214 9.38994 77.5216 9.79291C79.073 10.1836 80.7925 10.6169 82.821 11.1282C83.6244 11.3307 84.8972 11.6515 85.6494 11.8411C86.4016 12.0306 87.6674 12.3497 88.4623 12.5501C89.2572 12.7506 90.5929 13.0868 91.4306 13.2974C92.2682 13.508 93.8557 13.9084 94.9583 14.1871C99.7841 15.4069 103.687 16.3876 103.848 16.4208C103.907 16.4332 103.974 16.4532 103.996 16.4652C104.03 16.484 103.604 17.032 103.168 17.5294C103.122 17.5817 102.729 18.0523 102.295 18.5752C101.19 19.906 101.053 20.0694 100.895 20.2545C100.818 20.3444 100.723 20.4567 100.684 20.504C100.645 20.5513 100.191 21.0973 99.674 21.7173C98.2666 23.4065 98.2082 23.4765 97.3703 24.4854C96.9432 24.9995 96.5854 25.4274 96.5751 25.4361C96.5649 25.4448 96.1002 26.001 95.5425 26.672C94.4916 27.9365 92.8898 29.8607 92.7722 29.9999C92.4442 30.3881 92.078 30.8261 91.3686 31.679C89.7457 33.6303 89.602 33.7995 89.5802 33.7858C89.5681 33.7782 89.4208 33.5898 89.2528 33.3672C89.0849 33.1446 88.8389 32.8199 88.7062 32.6456C88.2874 32.0954 87.3284 30.8347 86.7583 30.0851C86.1903 29.3383 86.0625 29.1696 85.1998 28.0296C84.9183 27.6576 84.6796 27.3462 84.6693 27.3375C84.659 27.3288 84.5763 27.2218 84.4855 27.0998C84.3948 26.9778 84.1195 26.6142 83.8739 26.2917C83.1023 25.2788 81.8933 23.688 81.0319 22.5523C80.25 21.5213 79.484 20.5137 78.9241 19.7794C78.6316 19.3959 78.2896 18.9467 78.1639 18.7812C78.0382 18.6156 77.7346 18.2163 77.4891 17.8938C77.0108 17.2656 76.9837 17.2298 76.5133 16.6073C76.3434 16.3824 75.9159 15.8205 75.5633 15.3586C75.2107 14.8967 74.5328 14.0054 74.0569 13.378C73.581 12.7505 73.1344 12.1634 73.0644 12.0733C72.9944 11.9832 72.907 11.8691 72.8703 11.8198C72.8061 11.7335 72.4479 11.262 70.828 9.13151C70.4172 8.59119 70.0332 8.08852 69.9746 8.01443C69.916 7.94034 69.8832 7.87975 69.9017 7.87975C69.9202 7.87975 70.7017 8.07312 71.6383 8.3095ZM69.039 9.91584C69.4535 10.4605 69.8592 10.9917 69.9405 11.0963C70.0219 11.2009 70.3414 11.6216 70.6507 12.0312C70.96 12.4408 71.2336 12.8008 71.2587 12.8311C71.3079 12.8907 71.872 13.6323 71.9726 13.7698C72.0062 13.8158 72.1541 14.0102 72.3012 14.2019C72.5687 14.5505 73.8601 16.2499 75.2633 18.0998C75.6732 18.6401 76.0657 19.1554 76.1356 19.2449C76.2056 19.3345 76.4178 19.6125 76.6072 19.8629C76.7966 20.1133 77.3149 20.7959 77.7589 21.3797C78.203 21.9636 78.8583 22.8264 79.2151 23.297C79.572 23.7676 79.9363 24.2453 80.0246 24.3586C80.1129 24.4719 80.4768 24.9496 80.8333 25.4202C81.9366 26.8764 82.6268 27.7856 82.8424 28.0664C82.9562 28.2145 83.2115 28.5496 83.4099 28.8111C83.6082 29.0725 83.8036 29.3292 83.8441 29.3815C83.9712 29.5455 84.9307 30.8087 85.0122 30.9194C85.055 30.9773 85.1739 31.1336 85.2764 31.2667C85.379 31.3997 85.6657 31.7762 85.9136 32.1034C86.1615 32.4307 86.6704 33.1 87.0446 33.591C87.4188 34.0819 87.904 34.7199 88.1228 35.0086L88.5207 35.5335L88.4935 35.8484C88.466 36.1663 88.4466 36.4103 88.4142 36.8445C88.4045 36.9752 88.3274 37.9022 88.243 38.9044C88.1586 39.9066 88.0825 40.8193 88.0739 40.9325C88.0503 41.2459 88.0376 41.3987 87.8573 43.547C87.7651 44.645 87.6807 45.6647 87.6697 45.8128C87.6587 45.961 87.5811 46.895 87.4974 47.8885C87.4137 48.882 87.3371 49.8089 87.3272 49.9484C87.3124 50.1579 87.2337 51.1039 86.9552 54.4167C86.9464 54.5213 86.9324 54.6995 86.924 54.8128C86.9111 54.9858 86.6291 58.3923 86.5831 58.9305C86.575 59.0253 86.5591 59.2463 86.5477 59.4217C86.5252 59.7701 86.4953 59.881 86.4581 59.7537C86.4458 59.7117 86.3866 59.5418 86.3264 59.3762C86.1293 58.8332 84.5567 54.4401 84.3752 53.9255C84.3353 53.8122 84.2509 53.5769 84.1877 53.4026C84.1245 53.2283 83.9989 52.8789 83.9087 52.6262C83.8184 52.3735 83.6368 51.8672 83.5051 51.5012C83.2089 50.6779 82.6965 49.246 82.4788 48.6332C82.389 48.3805 82.0751 47.5035 81.7812 46.6843C81.4874 45.8651 80.9533 44.3749 80.5944 43.3727C80.2355 42.3705 79.8878 41.4008 79.8218 41.2178C79.7558 41.0347 79.434 40.1363 79.1067 39.2213C78.7794 38.3062 78.4369 37.3508 78.3456 37.098C78.2543 36.8453 77.9886 36.1038 77.7551 35.4502C77.5217 34.7965 77.1997 33.8981 77.0398 33.4537C76.8798 33.0092 76.5323 32.0395 76.2676 31.2987C75.7762 29.9241 74.8905 27.4537 74.5007 26.3709C74.3815 26.0398 74.2448 25.6547 74.197 25.5153C74.1492 25.3759 74.0398 25.0693 73.954 24.834C73.7823 24.3632 73.4041 23.3097 73.1065 22.4731C73.0011 22.1767 72.8735 21.8202 72.8229 21.6808C72.7724 21.5414 72.6422 21.1777 72.5337 20.8727C72.4252 20.5677 72.1798 19.8832 71.9884 19.3516C71.797 18.82 71.5872 18.2353 71.5222 18.0523C71.4572 17.8693 71.1918 17.1277 70.9324 16.4044C70.6729 15.6811 70.2746 14.5687 70.0471 13.9326C69.0933 11.2651 68.436 9.43301 68.3505 9.20383C68.2576 8.95468 68.2494 8.92552 68.2723 8.92552C68.2794 8.92552 68.6244 9.37118 69.039 9.91584ZM106.369 17.2948C106.85 17.5356 107.203 17.7539 108.028 18.3214C108.438 18.6035 109.648 19.4302 110.717 20.1585C111.785 20.8868 112.683 21.5059 112.713 21.5343C112.772 21.5912 112.847 21.5455 111.338 22.3698C111.005 22.552 110.529 22.8119 110.281 22.9475C110.034 23.083 109.712 23.2587 109.567 23.3378C109.421 23.4169 109.246 23.5129 109.178 23.551C108.971 23.6662 108.663 23.8356 108.417 23.9693C107.997 24.197 106.021 25.2793 105.448 25.5947C105.141 25.7643 104.707 25.9998 104.485 26.1181C104.263 26.2364 104.067 26.3434 104.05 26.3558C104.033 26.3682 103.9 26.4427 103.754 26.5214C103.284 26.7762 100.58 28.2565 100.18 28.4784C99.9663 28.5968 99.4897 28.8576 99.1209 29.0578C98.7522 29.258 98.3605 29.4718 98.2507 29.5329C98.1408 29.594 97.5754 29.904 96.9941 30.2218C96.4129 30.5396 95.6856 30.9382 95.3779 31.1077C95.0702 31.2772 94.6506 31.5059 94.4455 31.616C94.2403 31.7261 93.9676 31.876 93.8394 31.949C93.4637 32.1629 93.455 32.1671 93.4847 32.1179C93.5087 32.0783 94.6505 30.699 95.1073 30.1579C95.3852 29.8287 95.3525 29.8679 96.2163 28.8269C96.643 28.3127 97.0108 27.8724 97.0337 27.8484C97.0565 27.8244 97.5627 27.2184 98.1585 26.5016C99.8475 24.4697 101.256 22.7795 101.609 22.3621C101.799 22.1378 103.138 20.5285 104.431 18.9713C104.988 18.3003 105.501 17.6863 105.57 17.607C105.64 17.5276 105.758 17.3886 105.832 17.298C105.906 17.2074 105.985 17.1333 106.006 17.1333C106.028 17.1333 106.191 17.206 106.369 17.2948ZM112.322 24.4299C112.094 24.7829 111.337 25.9487 110.639 27.0206C109.941 28.0925 108.99 29.5542 108.526 30.2688C108.061 30.9834 107.18 32.3382 106.567 33.2794C104.857 35.9077 103.57 37.8864 102.744 39.1579C102.331 39.7941 101.38 41.2558 100.631 42.4061C99.8816 43.5565 98.9584 44.9754 98.5794 45.5593C98.2003 46.1432 97.3518 47.448 96.6937 48.4589C96.0357 49.4699 95.1405 50.846 94.7043 51.517C94.2682 52.1881 93.3683 53.5714 92.7047 54.591C92.041 55.6106 91.0297 57.165 90.4572 58.0452C88.4555 61.123 88.2936 61.3697 88.2822 61.3581C88.2663 61.3419 88.4844 58.6187 88.6947 56.2072C88.7031 56.1113 88.7178 55.9259 88.7273 55.7952C88.7368 55.6645 88.814 54.7304 88.8987 53.7195C88.9834 52.7086 89.0595 51.7888 89.0678 51.6755C89.0762 51.5622 89.1668 50.4641 89.2692 49.2354C89.5374 46.0195 89.7374 43.6079 89.754 43.3885C89.762 43.284 89.7754 43.12 89.7837 43.0241C89.7921 42.9282 89.8272 42.5004 89.862 42.0734C89.8967 41.6464 89.9796 40.6553 90.0463 39.8709C90.113 39.0866 90.1762 38.3308 90.1867 38.1914C90.1973 38.0519 90.2118 37.8665 90.2191 37.7794C90.2264 37.6922 90.2615 37.2644 90.2971 36.8287C90.3389 36.3169 90.3749 36.0276 90.3989 36.0114C90.4331 35.9884 93.0713 34.5412 93.7461 34.1753C93.9085 34.0873 94.1113 33.9764 94.1968 33.929C94.2823 33.8816 94.562 33.7286 94.8184 33.5889C95.0749 33.4491 96.2148 32.825 97.3516 32.2019C98.4884 31.5788 99.5164 31.0155 99.6361 30.9502C100.929 30.2439 102.172 29.5641 102.822 29.207C103.258 28.9677 103.726 28.7111 103.863 28.6368C104.166 28.4725 105.125 27.9476 106.008 27.464C107.246 26.7854 107.873 26.442 108.106 26.3155C108.234 26.2458 108.605 26.0429 108.929 25.8646C109.254 25.6863 109.66 25.4651 109.831 25.3731C110.002 25.2811 110.184 25.1809 110.235 25.1504C110.34 25.0878 110.538 24.9789 111.276 24.5788C111.558 24.4259 111.999 24.1855 112.255 24.0448C112.512 23.904 112.725 23.7887 112.728 23.7885C112.732 23.7883 112.549 24.077 112.322 24.4299Z" fill="#E21D48"/>
<path d="M67.6695 94.5689V83.4995H64.2793V81.9786H72.6709V83.4995H69.331V94.5689H67.6695Z" fill="#303030"/>
<path d="M74.2563 94.5689V81.9786H78.6703C79.4982 81.9786 80.2255 82.1363 80.8521 82.4517C81.4786 82.7672 81.9654 83.2179 82.3122 83.8037C82.6703 84.3896 82.8493 85.0769 82.8493 85.8655C82.8493 86.7556 82.6255 87.5104 82.1779 88.1301C81.7304 88.7497 81.1262 89.1948 80.3654 89.4652L83.2689 94.5689H81.3556L78.301 89.1103L79.3919 89.7525H75.901V94.5689H74.2563ZM75.901 88.2315H78.7206C79.2129 88.2315 79.6437 88.1357 80.0129 87.9442C80.3821 87.7527 80.6675 87.4766 80.8689 87.1161C81.0814 86.7556 81.1877 86.3387 81.1877 85.8655C81.1877 85.381 81.0814 84.9642 80.8689 84.6149C80.6675 84.2544 80.3821 83.9784 80.0129 83.7868C79.6437 83.5953 79.2129 83.4995 78.7206 83.4995H75.901V88.2315Z" fill="#303030"/>
<path d="M91.114 94.7717C90.23 94.7717 89.4021 94.614 88.63 94.2985C87.858 93.9718 87.1811 93.5155 86.5993 92.9296C86.0286 92.3438 85.5811 91.6565 85.2566 90.8679C84.9321 90.0679 84.7699 89.2004 84.7699 88.2653C84.7699 87.3189 84.9321 86.4514 85.2566 85.6627C85.5811 84.8741 86.0286 84.1868 86.5993 83.6009C87.1811 83.0151 87.8524 82.5644 88.6133 82.249C89.3853 81.9335 90.2188 81.7758 91.114 81.7758C92.0091 81.7758 92.837 81.9391 93.5979 82.2659C94.3699 82.5813 95.0412 83.032 95.6119 83.6178C96.1937 84.1924 96.6468 84.8741 96.9713 85.6627C97.307 86.4514 97.4748 87.3189 97.4748 88.2653C97.4748 89.2004 97.307 90.0679 96.9713 90.8679C96.6468 91.6565 96.1937 92.3438 95.6119 92.9296C95.0412 93.5155 94.3699 93.9718 93.5979 94.2985C92.837 94.614 92.0091 94.7717 91.114 94.7717ZM91.114 93.2338C91.8077 93.2338 92.4398 93.1099 93.0105 92.862C93.5811 92.6029 94.0734 92.248 94.4874 91.7973C94.9126 91.3354 95.237 90.8059 95.4608 90.2088C95.6958 89.6004 95.8133 88.9525 95.8133 88.2653C95.8133 87.578 95.6958 86.9358 95.4608 86.3387C95.237 85.7416 94.9126 85.2177 94.4874 84.767C94.0734 84.3051 93.5811 83.9502 93.0105 83.7023C92.4398 83.4432 91.8077 83.3136 91.114 83.3136C90.4314 83.3136 89.8049 83.4432 89.2342 83.7023C88.6636 83.9502 88.1657 84.3051 87.7405 84.767C87.3265 85.2177 87.0021 85.7416 86.7671 86.3387C86.5321 86.9358 86.4147 87.578 86.4147 88.2653C86.4147 88.9525 86.5321 89.6004 86.7671 90.2088C87.0021 90.8059 87.3265 91.3354 87.7405 91.7973C88.1657 92.248 88.6636 92.6029 89.2342 92.862C89.8049 93.1099 90.4314 93.2338 91.114 93.2338Z" fill="#303030"/>
<path d="M99.8736 94.5689V81.9786H101.25L108.433 92.1522L107.812 92.2198V81.9786H109.474V94.5689H108.097L100.948 84.3276L101.518 84.26V94.5689H99.8736Z" fill="#303030"/>
</svg>
