<svg width="180" height="120" viewBox="0 0 180 120" fill="none" xmlns="http://www.w3.org/2000/svg">
<path d="M57.8542 108.934C57.7624 108.651 57.6414 108.398 57.4912 108.174C57.3438 107.947 57.1672 107.753 56.9614 107.594C56.7584 107.434 56.5275 107.312 56.2688 107.228C56.0102 107.144 55.7265 107.102 55.4178 107.102C54.9116 107.102 54.4513 107.234 54.0368 107.497C53.6224 107.76 53.2928 108.148 53.0481 108.661C52.8033 109.173 52.681 109.802 52.681 110.547C52.681 111.292 52.8047 111.921 53.0523 112.433C53.2998 112.946 53.6349 113.334 54.0577 113.597C54.4805 113.86 54.9561 113.992 55.4845 113.992C55.974 113.992 56.4051 113.887 56.7778 113.677C57.1533 113.464 57.4453 113.164 57.6539 112.778C57.8653 112.388 57.971 111.931 57.971 111.404L58.2881 111.471H55.7181V110.547H58.9723V111.471C58.9723 112.18 58.8221 112.796 58.5217 113.32C58.2241 113.843 57.8125 114.25 57.2868 114.538C56.7639 114.824 56.1632 114.966 55.4845 114.966C54.728 114.966 54.0633 114.787 53.4903 114.429C52.9202 114.07 52.4751 113.561 52.1553 112.9C51.8382 112.239 51.6797 111.454 51.6797 110.547C51.6797 109.867 51.7701 109.255 51.9509 108.711C52.1344 108.165 52.3931 107.7 52.7269 107.317C53.0606 106.933 53.4556 106.639 53.9117 106.434C54.3678 106.23 54.8698 106.128 55.4178 106.128C55.8683 106.128 56.2883 106.196 56.6777 106.334C57.0699 106.468 57.4189 106.66 57.7249 106.909C58.0336 107.156 58.2909 107.451 58.4967 107.795C58.7025 108.137 58.8443 108.517 58.9222 108.934H57.8542Z" fill="#717171"/>
<path d="M60.6108 114.849V108.396H61.562V109.371H61.6288C61.7456 109.052 61.957 108.792 62.2629 108.594C62.5689 108.395 62.9137 108.295 63.2976 108.295C63.3699 108.295 63.4603 108.297 63.5687 108.3C63.6772 108.302 63.7593 108.307 63.8149 108.312V109.32C63.7815 109.312 63.705 109.299 63.5854 109.283C63.4686 109.263 63.3448 109.253 63.2141 109.253C62.9026 109.253 62.6245 109.319 62.3797 109.451C62.1378 109.579 61.9458 109.759 61.804 109.988C61.6649 110.215 61.5954 110.474 61.5954 110.766V114.849H60.6108Z" fill="#717171"/>
<path d="M66.8677 115C66.4617 115 66.0931 114.923 65.7622 114.769C65.4312 114.612 65.1683 114.387 64.9737 114.093C64.779 113.796 64.6816 113.437 64.6816 113.017C64.6816 112.648 64.7539 112.348 64.8986 112.118C65.0432 111.886 65.2365 111.704 65.4785 111.572C65.7204 111.44 65.9874 111.342 66.2795 111.278C66.5743 111.211 66.8705 111.158 67.1681 111.118C67.5575 111.068 67.8732 111.03 68.1151 111.005C68.3599 110.977 68.5379 110.931 68.6492 110.866C68.7632 110.802 68.8202 110.69 68.8202 110.53V110.497C68.8202 110.082 68.7076 109.76 68.4823 109.53C68.2598 109.301 67.9218 109.186 67.4685 109.186C66.9984 109.186 66.6299 109.29 66.3629 109.497C66.0959 109.704 65.9082 109.925 65.7997 110.161L64.8652 109.825C65.0321 109.432 65.2546 109.127 65.5327 108.909C65.8136 108.687 66.1196 108.533 66.4505 108.447C66.7843 108.357 67.1125 108.312 67.4351 108.312C67.6409 108.312 67.8773 108.337 68.1443 108.388C68.4141 108.435 68.6742 108.535 68.9245 108.686C69.1776 108.837 69.3876 109.066 69.5545 109.371C69.7213 109.676 69.8048 110.085 69.8048 110.597V114.849H68.8202V113.975H68.7701C68.7034 114.115 68.5921 114.265 68.4364 114.425C68.2806 114.584 68.0734 114.72 67.8148 114.832C67.5561 114.944 67.2404 115 66.8677 115ZM67.0179 114.109C67.4073 114.109 67.7355 114.032 68.0025 113.878C68.2723 113.724 68.4753 113.526 68.6116 113.282C68.7507 113.038 68.8202 112.782 68.8202 112.513V111.606C68.7785 111.656 68.6867 111.702 68.5449 111.744C68.4058 111.784 68.2445 111.819 68.0609 111.849C67.8801 111.877 67.7035 111.903 67.5311 111.925C67.3614 111.945 67.2237 111.961 67.118 111.975C66.8622 112.009 66.623 112.064 66.4005 112.139C66.1807 112.212 66.0027 112.323 65.8665 112.471C65.7329 112.617 65.6662 112.816 65.6662 113.068C65.6662 113.412 65.7927 113.673 66.0458 113.849C66.3017 114.023 66.6257 114.109 67.0179 114.109Z" fill="#717171"/>
<path d="M72.5864 110.967V114.849H71.6019V108.396H72.5531V109.404H72.6365C72.7867 109.077 73.0148 108.813 73.3207 108.615C73.6267 108.413 74.0216 108.312 74.5055 108.312C74.9394 108.312 75.3191 108.402 75.6445 108.581C75.9699 108.757 76.223 109.026 76.4038 109.388C76.5846 109.746 76.675 110.2 76.675 110.749V114.849H75.6904V110.816C75.6904 110.309 75.5597 109.914 75.2982 109.631C75.0368 109.346 74.678 109.203 74.2219 109.203C73.9076 109.203 73.6267 109.271 73.3791 109.409C73.1344 109.546 72.9411 109.746 72.7992 110.009C72.6574 110.273 72.5864 110.592 72.5864 110.967Z" fill="#717171"/>
<path d="M81.261 108.396V109.236H77.9401V108.396H81.261ZM78.908 106.85H79.8926V113C79.8926 113.28 79.9329 113.491 80.0136 113.631C80.097 113.768 80.2027 113.86 80.3307 113.908C80.4614 113.953 80.599 113.975 80.7437 113.975C80.8521 113.975 80.9412 113.969 81.0107 113.958C81.0802 113.944 81.1358 113.933 81.1776 113.925L81.3778 114.815C81.3111 114.84 81.2179 114.866 81.0983 114.891C80.9787 114.919 80.8271 114.933 80.6436 114.933C80.3654 114.933 80.0928 114.873 79.8258 114.752C79.5616 114.632 79.3419 114.448 79.1667 114.202C78.9942 113.955 78.908 113.645 78.908 113.269V106.85Z" fill="#717171"/>
<path d="M87.4981 114.849L85.5456 108.396H86.5803L87.9653 113.336H88.0321L89.4005 108.396H90.4518L91.8036 113.32H91.8703L93.2554 108.396H94.29L92.3376 114.849H91.3697L89.9679 109.892H89.8678L88.466 114.849H87.4981Z" fill="#717171"/>
<path d="M95.5917 114.849V108.396H96.5763V114.849H95.5917ZM96.0923 107.321C95.9004 107.321 95.7349 107.255 95.5959 107.123C95.4596 106.992 95.3914 106.833 95.3914 106.649C95.3914 106.464 95.4596 106.306 95.5959 106.174C95.7349 106.042 95.9004 105.976 96.0923 105.976C96.2842 105.976 96.4483 106.042 96.5846 106.174C96.7237 106.306 96.7932 106.464 96.7932 106.649C96.7932 106.833 96.7237 106.992 96.5846 107.123C96.4483 107.255 96.2842 107.321 96.0923 107.321Z" fill="#717171"/>
<path d="M99.3642 110.967V114.849H98.3796V108.396H99.3308V109.404H99.4143C99.5645 109.077 99.7925 108.813 100.098 108.615C100.404 108.413 100.799 108.312 101.283 108.312C101.717 108.312 102.097 108.402 102.422 108.581C102.748 108.757 103.001 109.026 103.182 109.388C103.362 109.746 103.453 110.2 103.453 110.749V114.849H102.468V110.816C102.468 110.309 102.337 109.914 102.076 109.631C101.815 109.346 101.456 109.203 101 109.203C100.685 109.203 100.404 109.271 100.157 109.409C99.9121 109.546 99.7188 109.746 99.577 110.009C99.4351 110.273 99.3642 110.592 99.3642 110.967Z" fill="#717171"/>
<path d="M106.236 110.967V114.849H105.252V108.396H106.203V109.404H106.287C106.437 109.077 106.665 108.813 106.971 108.615C107.277 108.413 107.672 108.312 108.156 108.312C108.589 108.312 108.969 108.402 109.295 108.581C109.62 108.757 109.873 109.026 110.054 109.388C110.235 109.746 110.325 110.2 110.325 110.749V114.849H109.34V110.816C109.34 110.309 109.21 109.914 108.948 109.631C108.687 109.346 108.328 109.203 107.872 109.203C107.558 109.203 107.277 109.271 107.029 109.409C106.784 109.546 106.591 109.746 106.449 110.009C106.307 110.273 106.236 110.592 106.236 110.967Z" fill="#717171"/>
<path d="M114.811 114.983C114.193 114.983 113.661 114.846 113.213 114.572C112.768 114.294 112.425 113.908 112.183 113.412C111.943 112.914 111.824 112.334 111.824 111.673C111.824 111.012 111.943 110.429 112.183 109.925C112.425 109.418 112.761 109.024 113.192 108.741C113.626 108.455 114.132 108.312 114.711 108.312C115.045 108.312 115.374 108.368 115.7 108.48C116.025 108.592 116.321 108.774 116.588 109.026C116.855 109.276 117.068 109.606 117.226 110.018C117.385 110.429 117.464 110.936 117.464 111.538V111.959H112.525V111.102H116.463C116.463 110.738 116.391 110.413 116.246 110.127C116.104 109.841 115.901 109.616 115.637 109.451C115.375 109.285 115.067 109.203 114.711 109.203C114.319 109.203 113.979 109.301 113.693 109.497C113.409 109.69 113.191 109.942 113.038 110.253C112.885 110.564 112.808 110.897 112.808 111.253V111.824C112.808 112.311 112.892 112.725 113.059 113.063C113.228 113.4 113.463 113.656 113.764 113.832C114.064 114.006 114.413 114.093 114.811 114.093C115.07 114.093 115.303 114.056 115.512 113.983C115.723 113.908 115.905 113.796 116.058 113.647C116.211 113.496 116.329 113.308 116.413 113.084L117.364 113.353C117.264 113.678 117.096 113.964 116.859 114.21C116.623 114.454 116.331 114.644 115.983 114.782C115.636 114.916 115.245 114.983 114.811 114.983Z" fill="#717171"/>
<path d="M118.962 114.849V108.396H119.913V109.371H119.98C120.097 109.052 120.308 108.792 120.614 108.594C120.92 108.395 121.265 108.295 121.649 108.295C121.721 108.295 121.811 108.297 121.92 108.3C122.028 108.302 122.11 108.307 122.166 108.312V109.32C122.133 109.312 122.056 109.299 121.937 109.283C121.82 109.263 121.696 109.253 121.565 109.253C121.254 109.253 120.976 109.319 120.731 109.451C120.489 109.579 120.297 109.759 120.155 109.988C120.016 110.215 119.947 110.474 119.947 110.766V114.849H118.962Z" fill="#717171"/>
<path d="M127.872 109.841L126.988 110.093C126.932 109.945 126.85 109.801 126.742 109.661C126.636 109.518 126.491 109.4 126.308 109.308C126.124 109.215 125.889 109.169 125.603 109.169C125.211 109.169 124.884 109.26 124.622 109.442C124.364 109.621 124.234 109.85 124.234 110.127C124.234 110.373 124.323 110.568 124.501 110.711C124.679 110.854 124.957 110.973 125.336 111.068L126.287 111.303C126.86 111.443 127.287 111.658 127.568 111.946C127.849 112.232 127.989 112.6 127.989 113.051C127.989 113.421 127.883 113.751 127.672 114.042C127.463 114.334 127.171 114.563 126.796 114.731C126.42 114.899 125.984 114.983 125.486 114.983C124.832 114.983 124.291 114.84 123.863 114.555C123.435 114.269 123.164 113.852 123.049 113.303L123.984 113.068C124.073 113.415 124.241 113.675 124.489 113.849C124.739 114.023 125.066 114.109 125.469 114.109C125.928 114.109 126.292 114.011 126.562 113.815C126.835 113.617 126.971 113.379 126.971 113.101C126.971 112.877 126.893 112.69 126.738 112.538C126.582 112.384 126.343 112.269 126.02 112.194L124.952 111.942C124.365 111.802 123.934 111.585 123.659 111.291C123.386 110.994 123.25 110.623 123.25 110.177C123.25 109.813 123.351 109.491 123.554 109.211C123.76 108.931 124.04 108.711 124.393 108.552C124.749 108.392 125.152 108.312 125.603 108.312C126.237 108.312 126.735 108.452 127.096 108.732C127.461 109.012 127.719 109.382 127.872 109.841Z" fill="#717171"/>
<g opacity="0.15">
<path d="M126.47 60.0693C126.632 60.0693 126.794 60.0693 127.036 60.0693C127.117 60.0693 127.117 60.0693 127.198 60.0693C127.279 60.0693 127.279 60.0693 127.36 60.0693C127.44 60.0693 127.602 60.15 127.683 60.15C128.087 60.2308 128.572 60.473 129.058 60.6345C129.543 60.796 129.947 61.0382 130.351 61.2805C130.756 61.5227 131.16 61.6842 131.402 61.8457C131.645 62.0072 131.807 62.0879 131.807 62.0879C131.807 62.0879 131.807 62.0879 131.726 62.1687C131.645 62.1687 131.564 62.2494 131.402 62.2494C131.079 62.3302 130.675 62.4109 130.27 62.4917C130.19 62.4917 130.028 62.5724 129.947 62.5724C129.785 62.5724 129.704 62.5724 129.543 62.6532C129.3 62.6532 129.058 62.7339 128.734 62.7339C128.249 62.7339 127.683 62.6532 127.279 62.5724C126.389 62.3302 125.823 61.765 125.419 61.3612C125.015 60.8767 124.853 60.5538 124.853 60.5538C124.853 60.5538 125.176 60.3923 125.662 60.2308C125.823 60.0693 126.066 60.0693 126.47 60.0693Z" fill="#303030"/>
<path d="M125.097 56.5163C125.34 56.1933 125.583 55.8703 125.825 55.6281C125.987 55.4666 126.149 55.3858 126.229 55.2243C126.31 55.1436 126.391 55.1436 126.472 55.0628C126.553 54.9821 126.634 54.9821 126.715 54.9013C126.957 54.6591 127.2 54.4976 127.442 54.4169C127.604 54.2554 127.766 54.2554 127.766 54.2554C127.766 54.2554 127.766 54.4169 127.766 54.6591C127.766 54.9013 127.766 55.3051 127.685 55.7088C127.604 56.1125 127.523 56.597 127.442 57.0007C127.28 57.4045 127.119 57.889 126.876 58.2119C126.795 58.2927 126.795 58.3734 126.715 58.4542L126.634 58.5349L126.553 58.6157C126.391 58.7772 126.31 58.8579 126.148 58.9387C125.987 59.0194 125.906 59.1001 125.744 59.1809C125.583 59.2616 125.502 59.2616 125.34 59.3424C124.855 59.5039 124.531 59.4231 124.531 59.4231C124.531 59.4231 124.451 59.0194 124.531 58.4542C124.531 58.1312 124.612 57.8082 124.693 57.4852C124.693 57.4045 124.774 57.3237 124.774 57.243C124.774 57.1622 124.855 57.0815 124.855 57.0007C124.855 56.8393 124.936 56.6778 125.097 56.5163Z" fill="#303030"/>
<path d="M131.97 57.4851C131.97 57.4851 132.051 57.4044 132.132 57.4044C132.212 57.3236 132.455 57.1621 132.617 57.0814C132.698 57.0007 132.859 56.9199 133.021 56.9199C133.183 56.8392 133.344 56.8392 133.506 56.7584C133.83 56.6777 134.234 56.5969 134.638 56.5969C134.881 56.5969 135.123 56.5969 135.366 56.6777C135.608 56.6777 135.851 56.7584 136.093 56.7584C136.336 56.7584 136.579 56.8392 136.821 56.9199C137.064 57.0007 137.306 57.0007 137.549 57.0814C138.034 57.1621 138.438 57.2429 138.681 57.3236C139.004 57.4044 139.166 57.4044 139.166 57.4044C139.166 57.4044 139.004 57.4851 138.762 57.6466C138.6 57.7274 138.519 57.8081 138.277 57.8889C138.196 57.9696 138.115 57.9696 138.034 58.0504C137.953 58.1311 137.872 58.1311 137.711 58.2118C137.468 58.2926 137.306 58.3733 137.064 58.5348C136.983 58.6156 136.821 58.6156 136.74 58.6963C136.659 58.6963 136.659 58.7771 136.579 58.7771C136.498 58.7771 136.417 58.7771 136.417 58.8578C135.932 59.0193 135.447 59.1001 134.961 59.1001C133.991 59.1001 133.264 58.6963 132.778 58.3733C132.536 58.2118 132.374 58.0504 132.212 57.8889C131.97 57.6466 131.889 57.4851 131.97 57.4851C131.889 57.4851 131.97 57.4851 131.97 57.4851Z" fill="#303030"/>
<path d="M133.264 54.7396C133.183 55.1433 132.941 55.4663 132.779 55.7085C132.698 55.87 132.536 55.9508 132.455 56.0315C132.375 56.1123 132.213 56.193 132.132 56.2738C131.89 56.4353 131.728 56.516 131.566 56.516C131.485 56.516 131.404 56.516 131.404 56.5968C131.324 56.5968 131.324 56.5968 131.324 56.5968C131.324 56.5968 131.243 56.516 131.243 56.3545C131.162 56.193 131.162 55.9508 131.081 55.7085C131 55.1433 130.919 54.4166 131.162 53.6899C131.243 53.2862 131.404 52.9632 131.647 52.6402C131.809 52.3172 132.051 51.9942 132.294 51.752C132.375 51.5905 132.536 51.5097 132.617 51.3482C132.698 51.2675 132.779 51.106 132.86 51.0253C133.021 50.8638 133.102 50.783 133.102 50.783C133.102 50.783 133.183 50.9445 133.183 51.1868C133.264 51.429 133.345 51.8327 133.345 52.2365C133.345 52.4787 133.426 52.6402 133.426 52.8824C133.426 53.1247 133.426 53.3669 133.426 53.5284C133.426 53.7706 133.426 54.0129 133.345 54.1744C133.345 54.3359 133.345 54.5781 133.264 54.7396Z" fill="#303030"/>
<path d="M138.355 52.3982C138.435 52.2367 138.597 52.0752 138.759 51.9137C138.921 51.7522 139.163 51.51 139.487 51.3485C139.81 51.187 140.133 51.0255 140.538 50.864C140.699 50.864 140.861 50.7832 141.023 50.7832C141.185 50.7832 141.346 50.7025 141.508 50.7025C142.317 50.541 143.206 50.541 143.934 50.4603C144.661 50.4603 145.146 50.3795 145.146 50.3795C145.146 50.3795 144.985 50.6218 144.661 50.9447C144.419 51.2677 143.934 51.6715 143.448 52.0752C143.368 52.1559 143.287 52.1559 143.206 52.2367L143.125 52.3174C143.125 52.3174 143.044 52.3982 142.963 52.3982C142.802 52.4789 142.64 52.6404 142.478 52.7212C142.317 52.8019 142.155 52.8827 141.993 52.9634C141.831 53.0441 141.67 53.1249 141.508 53.1249C140.619 53.3671 139.81 53.2056 139.244 53.0441C138.678 52.8019 138.355 52.5597 138.355 52.5597C138.355 52.5597 138.274 52.4789 138.355 52.3982Z" fill="#303030"/>
<path d="M138.114 51.3485C137.952 51.51 137.79 51.6715 137.709 51.7522C137.548 51.8329 137.467 51.8329 137.467 51.8329C137.467 51.8329 137.224 51.51 136.901 51.0255C136.658 50.541 136.335 49.8143 136.335 49.0068C136.335 48.7646 136.335 48.4416 136.416 48.1186C136.416 47.9571 136.497 47.8764 136.497 47.7149C136.497 47.5534 136.577 47.4726 136.577 47.3112C136.658 47.0689 136.739 46.9074 136.82 46.6652C136.82 46.5844 136.901 46.5844 136.901 46.5037C136.901 46.4229 136.901 46.4229 136.982 46.3422C136.982 46.2615 137.063 46.1807 137.063 46.1C137.224 45.777 137.305 45.6155 137.305 45.6155C137.305 45.6155 137.548 46.0192 137.871 46.5844C137.952 46.7459 138.033 46.9074 138.114 47.0689C138.114 47.1497 138.195 47.2304 138.195 47.3112C138.195 47.3919 138.275 47.4726 138.275 47.5534C138.437 47.8764 138.518 48.2801 138.599 48.6838C138.599 48.8453 138.68 49.0068 138.68 49.0876C138.68 49.2491 138.68 49.3298 138.68 49.4913C138.68 49.895 138.599 50.218 138.518 50.541C138.437 50.864 138.275 51.1062 138.114 51.3485Z" fill="#303030"/>
<path d="M144.419 46.3423C144.258 46.3423 144.096 46.3423 143.934 46.3423C143.287 46.3423 142.964 46.1808 142.964 46.1808C142.964 46.1808 142.964 46.1001 143.045 45.9386C143.045 45.8578 143.126 45.7771 143.126 45.6963C143.126 45.6156 143.206 45.5348 143.287 45.3734C143.368 45.1311 143.53 44.8889 143.772 44.6466C143.853 44.5659 143.853 44.5659 143.934 44.4851C144.015 44.4044 144.096 44.3237 144.177 44.3237C144.338 44.1622 144.5 44.0814 144.662 44.0007C144.824 43.9199 145.066 43.7584 145.309 43.6777C145.551 43.5969 145.713 43.4354 145.956 43.3547C146.441 43.1932 146.926 42.951 147.33 42.8702C147.734 42.7087 148.139 42.5472 148.462 42.4665C148.705 42.3857 148.947 42.305 148.947 42.305C148.947 42.305 148.866 42.4665 148.786 42.7087C148.705 42.8702 148.624 43.0317 148.543 43.1932C148.462 43.3547 148.3 43.5162 148.22 43.7584C148.139 43.9199 147.977 44.1622 147.815 44.3237C147.815 44.4044 147.734 44.4044 147.734 44.4851C147.734 44.5659 147.654 44.5659 147.654 44.6466C147.573 44.7274 147.492 44.8081 147.411 44.9696C147.249 45.1311 147.088 45.3734 146.845 45.5348C146.764 45.6156 146.683 45.6963 146.602 45.7771C146.522 45.8578 146.441 45.9386 146.279 45.9386C145.875 46.1808 145.47 46.3423 145.066 46.3423C144.743 46.2616 144.581 46.3423 144.419 46.3423Z" fill="#303030"/>
<path d="M142.645 44.1621C142.645 44.485 142.483 44.7273 142.402 44.9695C142.321 45.0503 142.321 45.2118 142.24 45.2925C142.159 45.3733 142.159 45.454 142.079 45.5347C141.998 45.6155 141.917 45.6962 141.917 45.6962C141.917 45.6962 141.593 45.454 141.189 45.0503C141.108 44.9695 141.027 44.808 140.866 44.7273C140.785 44.5658 140.623 44.485 140.542 44.3236C140.381 44.0006 140.138 43.6776 140.057 43.3546C140.057 43.2739 139.976 43.1931 139.976 43.1124C139.976 43.0316 139.895 42.9509 139.895 42.7894C139.895 42.6279 139.815 42.3856 139.815 42.2241C139.815 41.8204 139.815 41.4167 139.815 41.0937C139.815 40.9322 139.815 40.7707 139.895 40.6092C139.895 40.4477 139.895 40.367 139.895 40.2055C139.895 39.9633 139.976 39.8825 139.976 39.8825C139.976 39.8825 140.138 39.9633 140.3 40.2055C140.461 40.367 140.785 40.69 141.027 40.9322C141.27 41.2552 141.593 41.5782 141.836 41.9819C141.998 42.1434 142.079 42.3856 142.159 42.5471C142.24 42.7086 142.321 42.9509 142.402 43.1124C142.483 43.2739 142.483 43.5161 142.483 43.6776C142.483 43.7583 142.483 43.8391 142.483 43.9198C142.483 44.0006 142.483 44.0006 142.483 44.0813C142.645 44.0813 142.645 44.1621 142.645 44.1621Z" fill="#303030"/>
<path d="M147.979 38.3484C147.817 38.4291 147.655 38.5906 147.493 38.6714C147.17 38.8329 146.847 38.9136 146.523 38.9944C145.957 39.0751 145.472 39.0751 145.472 39.0751C145.472 39.0751 145.391 38.7521 145.553 38.2677C145.553 38.1062 145.634 38.0254 145.634 37.8639C145.715 37.7024 145.715 37.5409 145.795 37.4602C145.876 37.2987 145.957 37.1372 146.038 36.9757C146.119 36.895 146.119 36.8142 146.2 36.7335L146.281 36.6527L146.361 36.572C146.927 35.926 147.898 35.28 148.625 34.7956C149.03 34.5533 149.353 34.3111 149.596 34.1496C149.838 33.9881 150 33.9073 150 33.9073C150 33.9073 150 34.0688 149.919 34.3918C149.838 34.7148 149.757 35.0378 149.677 35.5223C149.515 35.926 149.353 36.4105 149.191 36.895C149.111 36.9757 149.111 37.1372 149.03 37.2179C148.949 37.2987 148.868 37.4602 148.868 37.5409C148.706 37.7832 148.545 37.9447 148.464 38.1062C148.302 38.0254 148.14 38.1869 147.979 38.3484Z" fill="#303030"/>
<path d="M144.339 38.8328C144.339 38.8328 143.935 38.6713 143.45 38.4291C143.207 38.2676 142.884 38.1061 142.641 37.8639C142.48 37.7831 142.399 37.6216 142.237 37.4601C142.075 37.2986 141.995 37.1371 141.914 36.9756C141.833 36.8141 141.752 36.6527 141.59 36.4912C141.51 36.3297 141.429 36.1682 141.348 35.9259C141.186 35.5222 141.105 35.1992 141.024 34.8762C140.944 34.5533 140.863 34.2303 140.863 34.0688C140.863 33.8265 140.863 33.7458 140.863 33.7458C140.863 33.7458 141.024 33.8265 141.267 33.9073C141.51 34.0688 141.833 34.2303 142.156 34.4725C142.48 34.7147 142.884 34.957 143.207 35.28C143.531 35.603 143.854 35.9259 144.097 36.2489C144.178 36.4104 144.259 36.5719 144.339 36.7334C144.42 36.8949 144.42 37.0564 144.501 37.2179C144.501 37.3794 144.582 37.5409 144.582 37.7024C144.582 37.8639 144.582 37.9446 144.582 38.1061C144.501 38.5098 144.339 38.8328 144.339 38.8328Z" fill="#303030"/>
<path d="M148.869 27.69C148.869 27.8514 148.788 28.0937 148.788 28.2552C148.707 28.6589 148.626 28.9819 148.464 29.3049C148.222 29.7086 147.979 30.0316 147.737 30.2738C147.494 30.5161 147.171 30.6776 146.928 30.8391C146.362 31.0813 145.958 31.162 145.958 31.162C145.958 31.162 145.958 31.0813 145.877 30.9198C145.877 30.7583 145.796 30.5968 145.796 30.3546C145.796 30.1123 145.796 29.7894 145.877 29.4664C145.958 29.1434 146.039 28.8204 146.2 28.4167C146.281 28.2552 146.362 28.1744 146.443 28.0129C146.524 27.9322 146.524 27.8514 146.605 27.8514C146.686 27.7707 146.686 27.69 146.767 27.69C147.009 27.367 147.252 27.044 147.494 26.721C147.737 26.398 147.979 26.075 148.222 25.8328C148.626 25.2676 148.95 24.9446 148.95 24.9446C148.95 24.9446 149.03 25.1868 149.03 25.6713C149.03 25.9135 149.111 26.1558 149.111 26.398C149.111 26.6403 149.111 26.9632 149.111 27.2862C148.95 27.367 148.95 27.5285 148.869 27.69Z" fill="#303030"/>
<path d="M141.912 30.1123C141.831 30.0315 141.831 30.0315 141.75 29.9508C141.67 29.87 141.67 29.87 141.589 29.7893C141.508 29.7085 141.427 29.547 141.265 29.4663C141.185 29.3855 141.104 29.224 141.023 29.1433C140.942 28.9818 140.861 28.9011 140.78 28.8203C140.619 28.6588 140.538 28.4166 140.457 28.2551C140.376 28.1743 140.376 28.0936 140.295 28.0128C140.295 27.9321 140.214 27.8514 140.133 27.7706C139.972 27.4476 139.891 27.2861 139.891 27.2861C139.891 27.2861 140.376 27.3669 141.023 27.5284C141.185 27.6091 141.346 27.6091 141.508 27.6899C141.67 27.7706 141.831 27.7706 142.074 27.8514C142.397 28.0128 142.802 28.1743 143.125 28.3358C143.368 28.4973 143.61 28.6588 143.853 28.8203C144.176 29.0626 144.419 29.3855 144.5 29.6278C144.661 29.9508 144.742 30.193 144.742 30.4352C144.742 30.6775 144.742 30.839 144.742 31.0005C144.742 31.162 144.661 31.2427 144.661 31.2427C144.661 31.2427 144.257 31.2427 143.691 31.0812C143.206 30.9197 142.478 30.6775 141.912 30.1123Z" fill="#303030"/>
<path d="M145.471 22.1185C145.309 22.4415 145.067 22.6837 144.824 22.926C144.42 23.3297 144.016 23.4912 144.016 23.4912C144.016 23.4912 143.935 23.4104 143.854 23.3297C143.773 23.1682 143.692 23.0067 143.611 22.7645C143.531 22.5222 143.45 22.28 143.369 21.957C143.369 21.7955 143.369 21.634 143.369 21.3918C143.369 21.2303 143.369 20.9881 143.45 20.8266C143.45 20.5843 143.531 20.4228 143.611 20.1806C143.611 20.0998 143.692 19.9383 143.692 19.8576C143.692 19.7769 143.773 19.6154 143.773 19.5346C143.935 19.0501 144.097 18.6464 144.339 18.1619C144.42 17.9197 144.501 17.7582 144.582 17.5967C144.663 17.4352 144.743 17.2737 144.824 17.1122C144.905 16.87 144.986 16.7085 144.986 16.7085C144.986 16.7085 145.067 16.87 145.229 17.1122C145.309 17.2737 145.39 17.4352 145.39 17.5967C145.471 17.7582 145.552 18.0004 145.633 18.1619C145.633 18.2427 145.714 18.4042 145.714 18.4849C145.714 18.5657 145.795 18.7272 145.795 18.8079C145.875 19.0501 145.875 19.2924 145.956 19.5346C145.956 19.7769 146.037 20.0191 146.037 20.2613C146.037 20.5036 146.037 20.7458 145.956 20.988C145.795 21.4725 145.633 21.7955 145.471 22.1185Z" fill="#303030"/>
<path d="M139.327 23.3296C139.165 23.2489 139.004 23.0874 138.842 23.0066C138.68 22.8452 138.519 22.7644 138.438 22.6029C138.276 22.4414 138.195 22.3607 138.033 22.1992C137.872 22.0377 137.791 21.9569 137.71 21.8762C137.629 21.7955 137.629 21.7955 137.548 21.7147C137.467 21.634 137.467 21.634 137.467 21.5532C137.306 21.3917 137.225 21.311 137.225 21.311C137.225 21.311 137.387 21.311 137.629 21.311C137.872 21.311 138.276 21.311 138.68 21.311C139.085 21.311 139.57 21.3917 140.055 21.4725C140.136 21.4725 140.297 21.5532 140.378 21.5532C140.459 21.5532 140.621 21.634 140.702 21.634C140.944 21.7147 141.106 21.7955 141.348 21.8762C141.51 21.9569 141.672 22.0377 141.834 22.1992C141.995 22.2799 142.076 22.4414 142.238 22.5222C142.48 22.7644 142.642 23.0066 142.723 23.2489C142.804 23.4911 142.885 23.6526 142.885 23.8141C142.885 23.9756 142.885 24.0563 142.885 24.0563C142.885 24.0563 142.48 24.1371 141.914 24.1371C141.591 24.1371 141.268 24.1371 140.944 24.0563C140.621 23.9756 140.216 23.8949 139.812 23.7334C139.65 23.5719 139.489 23.4104 139.327 23.3296Z" fill="#303030"/>
<path d="M141.188 15.255C141.107 15.578 140.945 15.901 140.784 16.1433C140.46 16.6277 140.137 16.9507 140.137 16.9507C140.137 16.9507 139.813 16.7892 139.49 16.3855C139.409 16.3047 139.328 16.1433 139.247 16.0625C139.167 15.901 139.086 15.8203 139.005 15.6588C138.843 15.3358 138.762 15.0128 138.762 14.5283C138.681 14.1246 138.762 13.6401 138.762 13.1556C138.762 12.6712 138.843 12.1867 138.924 11.7022C139.005 11.2177 139.005 10.8947 139.086 10.5718C139.166 10.3295 139.167 10.0873 139.167 10.0873C139.167 10.0873 139.167 10.0873 139.247 10.168C139.328 10.2488 139.409 10.3295 139.49 10.4103C139.652 10.6525 139.894 10.9755 140.218 11.2985C140.46 11.7022 140.703 12.1059 140.945 12.5904C141.107 13.0749 141.269 13.5594 141.35 13.9631C141.35 14.0438 141.35 14.2053 141.35 14.2861C141.35 14.3668 141.35 14.5283 141.35 14.6091C141.35 14.9321 141.269 15.0936 141.188 15.255Z" fill="#303030"/>
<path d="M135.607 18.0003C135.526 18.0003 135.445 17.9195 135.284 17.9195C135.203 17.9195 135.203 17.9195 135.122 17.8388C135.041 17.8388 135.041 17.8388 134.96 17.758C134.556 17.5966 134.233 17.4351 133.909 17.2736C133.586 17.1121 133.343 16.9506 133.181 16.8698C133.101 16.7891 133.02 16.7891 132.939 16.7083C132.858 16.7083 132.858 16.6276 132.858 16.6276C132.858 16.6276 132.858 16.6276 132.939 16.5468C133.02 16.5468 133.101 16.4661 133.262 16.4661C133.505 16.3854 133.909 16.3046 134.313 16.1431C134.556 16.0624 134.718 16.0624 134.96 15.9816C135.041 15.9816 135.203 15.9816 135.284 15.9009C135.365 15.9009 135.526 15.9009 135.607 15.9009C136.092 15.9009 136.577 15.9009 136.982 15.9009C137.386 15.9816 137.709 16.1431 138.033 16.3046C138.195 16.3854 138.275 16.4661 138.437 16.5468C138.518 16.6276 138.599 16.7083 138.68 16.8698C139.003 17.2736 139.084 17.5966 139.084 17.5966C139.084 17.5966 138.68 17.8388 138.114 17.9195C137.79 18.0003 137.467 18.081 137.143 18.081C136.82 18.081 136.416 18.081 136.011 18.081C136.011 18.081 135.85 18.081 135.607 18.0003Z" fill="#303030"/>
<path d="M134.555 11.1368C134.474 11.2983 134.393 11.379 134.393 11.379C134.393 11.379 134.393 11.379 134.313 11.379C134.313 11.379 134.232 11.379 134.151 11.2983C133.989 11.2175 133.827 11.1368 133.585 10.9753C133.181 10.6523 132.695 10.1678 132.372 9.36036C132.291 9.11812 132.129 8.79514 132.049 8.47215C131.968 8.06842 131.887 7.66469 131.806 7.26096C131.725 6.85723 131.644 6.45349 131.563 6.13051C131.483 5.48454 131.402 5.00006 131.402 5.00006C131.402 5.00006 131.644 5.16155 131.968 5.40379C132.129 5.56529 132.372 5.64603 132.534 5.80752C132.776 5.96902 132.938 6.21126 133.181 6.37275C133.342 6.53424 133.423 6.61499 133.585 6.77648L133.666 6.85723L133.747 6.93797C133.827 7.01872 133.827 7.09947 133.908 7.18021C134.151 7.5032 134.313 7.82618 134.474 8.14917C134.555 8.39141 134.636 8.5529 134.636 8.79514C134.636 8.95663 134.717 9.19887 134.717 9.36036C134.717 9.76409 134.636 10.0871 134.636 10.3293C134.717 10.8138 134.636 10.9753 134.555 11.1368Z" fill="#303030"/>
<path d="M129.22 13.4784C128.978 13.3976 128.735 13.3976 128.573 13.3169C128.331 13.2362 128.169 13.2362 128.007 13.1554C127.684 13.0747 127.522 12.9939 127.522 12.9939C127.522 12.9939 127.846 12.7517 128.412 12.3479C128.654 12.1865 128.978 12.025 129.382 11.8635C129.705 11.702 130.11 11.5405 130.514 11.4597C130.837 11.379 131.08 11.2982 131.322 11.2982C132.131 11.2175 132.778 11.4597 133.182 11.7827C133.425 11.9442 133.505 12.025 133.667 12.1865C133.748 12.2672 133.748 12.2672 133.748 12.3479V12.4287C133.748 12.4287 133.667 12.5094 133.505 12.5902C133.344 12.6709 133.182 12.8324 132.939 12.9939C132.697 13.1554 132.373 13.3169 132.05 13.3976C131.888 13.4784 131.727 13.5591 131.484 13.5591C131.322 13.6399 131.08 13.6399 130.918 13.6399C130.352 13.6399 129.786 13.5591 129.22 13.4784Z" fill="#303030"/>
<path d="M120.568 60.6341C120.729 60.6341 120.891 60.5533 121.134 60.5533C121.215 60.5533 121.376 60.5533 121.457 60.4726C121.619 60.4726 121.7 60.3918 121.861 60.3918C122.104 60.3111 122.427 60.3111 122.751 60.2303C123.074 60.1496 123.398 60.0688 123.721 59.9881C123.883 59.9881 124.045 59.9073 124.206 59.9073C124.368 59.8266 124.53 59.8266 124.691 59.7459C125.015 59.6651 125.419 59.5844 125.743 59.4229C127.198 59.0191 128.492 58.4539 129.543 57.9694C129.785 57.8079 130.028 57.7272 130.19 57.6465C130.271 57.5657 130.351 57.5657 130.432 57.485C130.513 57.4042 130.594 57.4042 130.675 57.3235C130.917 57.162 131.079 57.0812 131.079 57.0812C131.079 57.0812 131.241 57.0005 131.483 56.839C131.726 56.6775 132.13 56.4353 132.615 56.1123C133.505 55.5471 134.718 54.6588 135.85 53.6899C136.982 52.7209 137.952 51.6712 138.68 50.8638C138.76 50.783 138.841 50.7023 138.922 50.5408C139.003 50.46 139.084 50.3793 139.165 50.2985C139.326 50.137 139.407 49.9756 139.488 49.8948C139.569 49.8141 139.65 49.6526 139.731 49.5718C139.812 49.4911 139.812 49.4911 139.812 49.4911C139.812 49.4911 139.892 49.3296 140.135 49.0873C140.216 48.9258 140.378 48.8451 140.458 48.6029C140.62 48.4414 140.701 48.1991 140.863 47.9569C140.944 47.8762 141.024 47.7147 141.105 47.6339C141.186 47.4724 141.267 47.3917 141.348 47.2302C141.51 46.9879 141.671 46.665 141.833 46.4227C141.995 46.0997 142.156 45.8575 142.318 45.5345C142.399 45.4538 142.399 45.373 142.48 45.2923C142.48 45.2115 142.561 45.1308 142.561 45.05C142.642 44.8885 142.722 44.727 142.803 44.5656C143.369 43.2736 143.935 41.9009 144.178 40.8512C144.178 40.6897 144.259 40.609 144.259 40.4475C144.259 40.3667 144.34 40.2052 144.34 40.1245C144.42 39.8823 144.42 39.7208 144.501 39.5593C144.582 39.2363 144.582 39.0748 144.582 39.0748C144.582 39.0748 144.582 38.9941 144.582 38.9133C144.582 38.8326 144.582 38.6711 144.663 38.5903C144.663 38.4288 144.744 38.2673 144.744 38.0251C144.744 37.7829 144.825 37.5406 144.906 37.2984C144.906 37.0561 144.986 36.7332 144.986 36.4102C144.986 36.3294 144.986 36.2487 144.986 36.1679C144.986 36.0872 144.986 36.0064 144.986 35.9257C144.986 35.7642 144.986 35.6027 144.986 35.4412C145.067 34.7952 145.067 34.0685 145.067 33.3418C145.067 32.6151 145.067 31.8884 144.986 31.2424C144.986 31.0809 144.986 30.9194 144.986 30.7579C144.986 30.6772 144.986 30.5964 144.986 30.5157C144.986 30.4349 144.986 30.3542 144.986 30.2735C144.986 29.9505 144.906 29.7082 144.906 29.3852C144.906 29.143 144.825 28.9008 144.744 28.6585C144.744 28.4163 144.663 28.2548 144.663 28.0933C144.663 27.9318 144.582 27.8511 144.582 27.7703C144.582 27.6896 144.582 27.6088 144.582 27.6088C144.582 27.6088 144.501 27.4473 144.501 27.1243C144.501 26.9629 144.42 26.8014 144.34 26.5591C144.34 26.4784 144.259 26.3169 144.259 26.2361C144.259 26.1554 144.178 25.9939 144.178 25.8324C143.854 24.7827 143.369 23.4908 142.803 22.1181C142.722 21.9566 142.642 21.7951 142.561 21.6336C142.561 21.5529 142.48 21.4721 142.48 21.3914C142.399 21.3106 142.399 21.2299 142.318 21.1491C142.156 20.8261 141.995 20.5032 141.833 20.2609C141.671 19.9379 141.51 19.6957 141.348 19.4534C141.267 19.292 141.186 19.2112 141.105 19.0497C141.024 18.8882 140.944 18.8075 140.863 18.7267C140.701 18.4845 140.539 18.323 140.458 18.0808C140.297 17.9193 140.216 17.7578 140.135 17.5963C139.973 17.354 139.812 17.1926 139.812 17.1926C139.812 17.1926 139.812 17.1926 139.731 17.1118C139.65 17.0311 139.65 16.9503 139.488 16.7888C139.407 16.6273 139.246 16.5466 139.165 16.3851C139.084 16.3043 139.003 16.2236 138.922 16.1428C138.841 16.0621 138.76 15.9814 138.68 15.8199C137.952 15.0124 136.982 13.9627 135.85 12.9937C134.718 12.0248 133.586 11.2173 132.615 10.5714C132.13 10.2484 131.726 10.0061 131.483 9.84464C131.16 9.68314 131.079 9.6024 131.079 9.6024C131.079 9.6024 130.917 9.52165 130.675 9.36016C130.594 9.36016 130.513 9.27941 130.432 9.19867C130.351 9.11792 130.271 9.11792 130.19 9.03717C130.109 9.03717 130.028 8.95643 129.947 8.95643C129.785 8.95643 129.543 8.95643 129.219 8.95643C128.653 8.95643 127.845 8.79494 127.198 8.47195C126.875 8.31046 126.551 8.06822 126.228 7.74523C126.066 7.58374 125.904 7.50299 125.823 7.3415C125.662 7.18001 125.581 7.09926 125.419 6.93777C125.177 6.69553 125.015 6.45329 124.853 6.2918C124.691 6.13031 124.611 6.04956 124.611 6.04956C124.611 6.04956 124.772 6.04956 125.015 6.04956C125.257 6.04956 125.662 6.04956 126.066 6.04956C126.147 6.04956 126.309 6.04956 126.389 6.04956C126.47 6.04956 126.632 6.04956 126.713 6.13031C126.955 6.13031 127.198 6.21105 127.441 6.2918C127.926 6.37255 128.33 6.53404 128.734 6.77628C129.058 6.93777 129.381 7.18001 129.624 7.42225C129.866 7.66449 129.947 7.90673 130.028 8.14896C130.109 8.3912 130.19 8.5527 130.19 8.71419V8.79493H130.271C130.351 8.87568 130.432 8.87568 130.594 8.95643C130.675 9.03717 130.756 9.03717 130.836 9.11792C131.079 9.27941 131.241 9.36016 131.241 9.36016C131.241 9.36016 131.402 9.44091 131.726 9.6024C131.968 9.76389 132.373 10.0061 132.858 10.3291C133.747 10.9751 134.96 11.7825 136.092 12.7515C137.224 13.7205 138.194 14.7702 138.922 15.5776C139.003 15.6584 139.084 15.8199 139.165 15.9006C139.246 15.9814 139.326 16.0621 139.407 16.1428C139.569 16.3043 139.65 16.4658 139.812 16.6273C139.892 16.7888 139.973 16.8696 140.054 16.9503C140.135 17.0311 140.135 17.0311 140.135 17.0311C140.135 17.0311 140.216 17.1926 140.458 17.4348C140.539 17.5963 140.701 17.7578 140.782 17.9193C140.944 18.0808 141.024 18.323 141.186 18.5652C141.267 18.646 141.348 18.8075 141.429 18.8882C141.51 19.0497 141.59 19.1305 141.671 19.292C141.833 19.5342 141.995 19.8572 142.156 20.0994C142.318 20.4224 142.48 20.7454 142.642 20.9876C142.722 21.0684 142.722 21.1491 142.803 21.2299C142.803 21.3106 142.884 21.3914 142.884 21.4721C142.965 21.6336 143.046 21.7951 143.127 21.9566C143.774 23.2485 144.259 24.6212 144.501 25.6709C144.501 25.8324 144.582 25.9132 144.582 26.0746C144.582 26.1554 144.663 26.3169 144.663 26.3976C144.744 26.6399 144.744 26.8014 144.825 26.9629C144.906 27.2858 144.906 27.4473 144.906 27.4473C144.906 27.4473 144.906 27.5281 144.906 27.6088C144.906 27.6896 144.905 27.8511 144.986 27.9318C144.986 28.0933 145.067 28.2548 145.067 28.497C145.067 28.7393 145.148 28.9815 145.229 29.2238C145.229 29.466 145.31 29.789 145.31 30.112C145.31 30.1927 145.31 30.2735 145.31 30.3542C145.31 30.4349 145.31 30.5157 145.31 30.5964C145.31 30.7579 145.31 30.9194 145.31 31.0809C145.391 31.7269 145.391 32.4536 145.391 33.1803C145.391 33.907 145.391 34.6338 145.31 35.2797C145.31 35.4412 145.31 35.6027 145.31 35.7642C145.31 35.8449 145.31 35.9257 145.31 36.0064C145.31 36.0872 145.31 36.1679 145.31 36.2487C145.31 36.5717 145.229 36.8139 145.229 37.1369C145.229 37.3791 145.148 37.6214 145.067 37.8636C145.067 38.1058 144.986 38.2673 144.986 38.4288C144.986 38.5903 144.906 38.6711 144.906 38.7518C144.906 38.8326 144.906 38.9133 144.906 38.9133C144.906 38.9133 144.825 39.0748 144.825 39.3978C144.825 39.5593 144.744 39.7208 144.663 39.963C144.663 40.0438 144.582 40.2052 144.582 40.286C144.582 40.3667 144.501 40.5282 144.501 40.6897C144.178 41.7394 143.693 43.1121 143.127 44.4041C143.046 44.5656 142.965 44.727 142.884 44.8885C142.884 44.9693 142.803 45.05 142.803 45.1308C142.722 45.2115 142.722 45.2923 142.642 45.373C142.48 45.696 142.318 46.019 142.156 46.2612C141.995 46.5842 141.833 46.8264 141.671 47.0687C141.59 47.2302 141.51 47.3109 141.429 47.4724C141.348 47.6339 141.267 47.7147 141.186 47.7954C141.024 48.0376 140.863 48.1991 140.782 48.4414C140.62 48.6029 140.539 48.7644 140.458 48.9259C140.297 49.1681 140.135 49.3296 140.135 49.3296C140.135 49.3296 140.135 49.3296 140.054 49.4103C139.973 49.4911 139.892 49.5718 139.812 49.7333C139.731 49.8948 139.569 49.9756 139.407 50.2178C139.326 50.2985 139.246 50.3793 139.165 50.46C139.084 50.5408 139.003 50.6215 138.922 50.783C138.194 51.5905 137.143 52.6402 136.092 53.6091C134.96 54.5781 133.747 55.4663 132.858 56.0315C132.373 56.3545 131.968 56.5968 131.726 56.7582C131.402 56.9197 131.241 57.0005 131.241 57.0005C131.241 57.0005 131.079 57.0812 130.836 57.2427C130.756 57.2427 130.675 57.3235 130.594 57.4042C130.513 57.485 130.432 57.485 130.271 57.5657C130.028 57.6465 129.866 57.8079 129.624 57.8887C128.653 58.3732 127.279 58.9384 125.823 59.3421C125.5 59.5036 125.096 59.5844 124.772 59.6651C124.611 59.7459 124.449 59.7459 124.206 59.8266C124.045 59.9073 123.883 59.9073 123.721 59.9073C123.398 59.9881 123.074 60.0688 122.751 60.1496C122.427 60.2303 122.104 60.2303 121.861 60.3111C121.7 60.3111 121.619 60.3918 121.457 60.3918C121.295 60.3918 121.215 60.3918 121.134 60.4726C120.891 60.4726 120.729 60.5533 120.568 60.5533C120.244 60.5533 120.083 60.6341 120.083 60.6341V60.3918C120.002 60.7148 120.244 60.7148 120.568 60.6341Z" fill="#303030"/>
<path d="M123.723 60.3917C123.723 60.3917 119.842 61.3607 118.952 64.9943L119.033 60.7954L123.48 60.2302L123.723 60.3917Z" fill="#303030"/>
</g>
<g opacity="0.15">
<path d="M53.5299 60.0692C53.3682 60.0692 53.2064 60.0692 52.9639 60.0692C52.883 60.0692 52.883 60.0692 52.8022 60.0692C52.7213 60.0692 52.7213 60.0692 52.6405 60.0692C52.5596 60.0692 52.3979 60.15 52.317 60.15C51.9128 60.2307 51.4276 60.4729 50.9425 60.6344C50.4573 60.7959 50.053 61.0382 49.6488 61.2804C49.2445 61.5226 48.8402 61.6841 48.5976 61.8456C48.3551 62.0071 48.1934 62.0879 48.1934 62.0879C48.1934 62.0879 48.1934 62.0879 48.2742 62.1686C48.3551 62.1686 48.4359 62.2494 48.5976 62.2494C48.9211 62.3301 49.3253 62.4109 49.7296 62.4916C49.8105 62.4916 49.9722 62.5724 50.053 62.5724C50.2148 62.5724 50.2956 62.5724 50.4573 62.6531C50.6999 62.6531 50.9425 62.7338 51.2659 62.7338C51.751 62.7338 52.317 62.6531 52.7213 62.5724C53.6107 62.3301 54.1767 61.7649 54.581 61.3612C54.9853 60.8767 55.147 60.5537 55.147 60.5537C55.147 60.5537 54.8236 60.3922 54.3384 60.2307C54.1767 60.0692 53.9342 60.0692 53.5299 60.0692Z" fill="#303030"/>
<path d="M54.9026 56.5162C54.6601 56.1932 54.4175 55.8702 54.1749 55.628C54.0132 55.4665 53.8515 55.3858 53.7706 55.2243C53.6898 55.1435 53.6089 55.1435 53.5281 55.0628C53.4472 54.982 53.3664 54.982 53.2855 54.9013C53.0429 54.659 52.8004 54.4975 52.5578 54.4168C52.3961 54.2553 52.2344 54.2553 52.2344 54.2553C52.2344 54.2553 52.2344 54.4168 52.2344 54.659C52.2344 54.9013 52.2344 55.305 52.3152 55.7087C52.3961 56.1125 52.4769 56.597 52.5578 57.0007C52.7195 57.4044 52.8812 57.8889 53.1238 58.2119C53.2047 58.2926 53.2046 58.3734 53.2855 58.4541L53.3664 58.5349L53.4472 58.6156C53.6089 58.7771 53.6898 58.8579 53.8515 58.9386C54.0132 59.0193 54.0941 59.1001 54.2558 59.1808C54.4175 59.2616 54.4984 59.2616 54.6601 59.3423C55.1452 59.5038 55.4686 59.4231 55.4686 59.4231C55.4686 59.4231 55.5495 59.0193 55.4686 58.4541C55.4686 58.1311 55.3878 57.8081 55.3069 57.4852C55.3069 57.4044 55.2261 57.3237 55.2261 57.2429C55.2261 57.1622 55.1452 57.0814 55.1452 57.0007C55.1452 56.8392 55.0643 56.6777 54.9026 56.5162Z" fill="#303030"/>
<path d="M48.0302 57.4851C48.0302 57.4851 47.9493 57.4043 47.8685 57.4043C47.7876 57.3236 47.5451 57.1621 47.3833 57.0813C47.3025 57.0006 47.1408 56.9198 46.9791 56.9198C46.8174 56.8391 46.6556 56.8391 46.4939 56.7584C46.1705 56.6776 45.7662 56.5969 45.3619 56.5969C45.1194 56.5969 44.8768 56.5969 44.6342 56.6776C44.3917 56.6776 44.1491 56.7584 43.9065 56.7584C43.664 56.7584 43.4214 56.8391 43.1788 56.9198C42.9362 57.0006 42.6937 57.0006 42.4511 57.0813C41.966 57.1621 41.5617 57.2428 41.3191 57.3236C40.9957 57.4043 40.834 57.4043 40.834 57.4043C40.834 57.4043 40.9957 57.4851 41.2383 57.6466C41.4 57.7273 41.4808 57.8081 41.7234 57.8888C41.8043 57.9695 41.8851 57.9695 41.966 58.0503C42.0468 58.131 42.1277 58.131 42.2894 58.2118C42.532 58.2925 42.6937 58.3733 42.9363 58.5348C43.0171 58.6155 43.1788 58.6155 43.2597 58.6963C43.3405 58.6963 43.3405 58.777 43.4214 58.777C43.5023 58.777 43.5831 58.777 43.5831 58.8578C44.0682 59.0192 44.5534 59.1 45.0385 59.1C46.0088 59.1 46.7365 58.6963 47.2216 58.3733C47.4642 58.2118 47.6259 58.0503 47.7876 57.8888C48.0302 57.6466 48.111 57.4851 48.0302 57.4851C48.111 57.4851 48.0302 57.4851 48.0302 57.4851Z" fill="#303030"/>
<path d="M46.7359 54.7395C46.8168 55.1433 47.0593 55.4662 47.2211 55.7085C47.3019 55.87 47.4636 55.9507 47.5445 56.0315C47.6254 56.1122 47.7871 56.193 47.8679 56.2737C48.1105 56.4352 48.2722 56.516 48.4339 56.516C48.5148 56.516 48.5956 56.516 48.5956 56.5967C48.6765 56.5967 48.6765 56.5967 48.6765 56.5967C48.6765 56.5967 48.7573 56.5159 48.7573 56.3545C48.8382 56.193 48.8382 55.9507 48.919 55.7085C48.9999 55.1433 49.0808 54.4165 48.8382 53.6898C48.7573 53.2861 48.5956 52.9631 48.3531 52.6401C48.1914 52.3171 47.9488 51.9942 47.7062 51.7519C47.6253 51.5904 47.4636 51.5097 47.3828 51.3482C47.3019 51.2674 47.2211 51.1059 47.1402 51.0252C46.9785 50.8637 46.8976 50.783 46.8976 50.783C46.8976 50.783 46.8168 50.9445 46.8168 51.1867C46.7359 51.4289 46.6551 51.8327 46.6551 52.2364C46.6551 52.4786 46.5742 52.6401 46.5742 52.8824C46.5742 53.1246 46.5742 53.3668 46.5742 53.5283C46.5742 53.7706 46.5742 54.0128 46.6551 54.1743C46.6551 54.3358 46.6551 54.578 46.7359 54.7395Z" fill="#303030"/>
<path d="M41.6454 52.3981C41.5646 52.2366 41.4029 52.0751 41.2412 51.9136C41.0794 51.7521 40.8369 51.5099 40.5135 51.3484C40.19 51.1869 39.8666 51.0254 39.4623 50.8639C39.3006 50.8639 39.1389 50.7832 38.9772 50.7832C38.8155 50.7832 38.6538 50.7024 38.492 50.7024C37.6835 50.5409 36.7941 50.5409 36.0664 50.4602C35.3387 50.4602 34.8535 50.3795 34.8535 50.3795C34.8535 50.3795 35.0152 50.6217 35.3387 50.9447C35.5812 51.2677 36.0664 51.6714 36.5515 52.0751C36.6324 52.1559 36.7132 52.1559 36.7941 52.2366L36.8749 52.3174C36.8749 52.3174 36.9558 52.3981 37.0366 52.3981C37.1984 52.4789 37.3601 52.6404 37.5218 52.7211C37.6835 52.8018 37.8452 52.8826 38.0069 52.9633C38.1686 53.0441 38.3303 53.1248 38.492 53.1248C39.3815 53.3671 40.19 53.2056 40.756 53.0441C41.322 52.8018 41.6454 52.5596 41.6454 52.5596C41.6454 52.5596 41.7263 52.4789 41.6454 52.3981Z" fill="#303030"/>
<path d="M41.8863 51.3484C42.048 51.5099 42.2097 51.6714 42.2906 51.7521C42.4523 51.8329 42.5332 51.8329 42.5332 51.8329C42.5332 51.8329 42.7757 51.5099 43.0992 51.0254C43.3417 50.5409 43.6651 49.8142 43.6651 49.0068C43.6651 48.7645 43.6651 48.4415 43.5843 48.1186C43.5843 47.9571 43.5034 47.8763 43.5034 47.7148C43.5034 47.5533 43.4226 47.4726 43.4226 47.3111C43.3417 47.0689 43.2609 46.9074 43.18 46.6651C43.18 46.5844 43.0992 46.5844 43.0992 46.5036C43.0992 46.4229 43.0992 46.4229 43.0183 46.3421C43.0183 46.2614 42.9374 46.1806 42.9374 46.0999C42.7757 45.7769 42.6949 45.6154 42.6949 45.6154C42.6949 45.6154 42.4523 46.0191 42.1289 46.5844C42.048 46.7459 41.9672 46.9074 41.8863 47.0689C41.8863 47.1496 41.8055 47.2303 41.8055 47.3111C41.8055 47.3918 41.7246 47.4726 41.7246 47.5533C41.5629 47.8763 41.482 48.28 41.4012 48.6838C41.4012 48.8453 41.3203 49.0068 41.3203 49.0875C41.3203 49.249 41.3203 49.3297 41.3203 49.4912C41.3203 49.895 41.4012 50.218 41.482 50.5409C41.5629 50.8639 41.7246 51.1062 41.8863 51.3484Z" fill="#303030"/>
<path d="M35.5807 46.3422C35.7424 46.3422 35.9041 46.3422 36.0658 46.3422C36.7127 46.3422 37.0361 46.1808 37.0361 46.1808C37.0361 46.1808 37.0361 46.1 36.9553 45.9385C36.9553 45.8578 36.8744 45.777 36.8744 45.6963C36.8744 45.6155 36.7935 45.5348 36.7127 45.3733C36.6318 45.1311 36.4701 44.8888 36.2276 44.6466C36.1467 44.5658 36.1467 44.5658 36.0658 44.4851C35.985 44.4043 35.9041 44.3236 35.8233 44.3236C35.6616 44.1621 35.4998 44.0814 35.3381 44.0006C35.1764 43.9199 34.9338 43.7584 34.6913 43.6776C34.4487 43.5969 34.287 43.4354 34.0444 43.3546C33.5593 43.1931 33.0741 42.9509 32.6699 42.8702C32.2656 42.7087 31.8613 42.5472 31.5379 42.4664C31.2953 42.3857 31.0527 42.3049 31.0527 42.3049C31.0527 42.3049 31.1336 42.4664 31.2145 42.7087C31.2953 42.8702 31.3762 43.0316 31.457 43.1931C31.5379 43.3546 31.6996 43.5161 31.7805 43.7584C31.8613 43.9199 32.023 44.1621 32.1847 44.3236C32.1847 44.4043 32.2656 44.4043 32.2656 44.4851C32.2656 44.5658 32.3464 44.5658 32.3464 44.6466C32.4273 44.7273 32.5082 44.8081 32.589 44.9696C32.7507 45.1311 32.9124 45.3733 33.155 45.5348C33.2359 45.6155 33.3167 45.6963 33.3976 45.777C33.4784 45.8578 33.5593 45.9385 33.721 45.9385C34.1253 46.1808 34.5296 46.3422 34.9339 46.3422C35.2573 46.2615 35.419 46.3422 35.5807 46.3422Z" fill="#303030"/>
<path d="M37.3555 44.162C37.3555 44.485 37.5172 44.7272 37.598 44.9695C37.6789 45.0502 37.6789 45.2117 37.7598 45.2924C37.8406 45.3732 37.8406 45.4539 37.9214 45.5347C38.0023 45.6154 38.0832 45.6962 38.0832 45.6962C38.0832 45.6962 38.4066 45.4539 38.8109 45.0502C38.8917 44.9695 38.9726 44.808 39.1343 44.7272C39.2151 44.5657 39.3769 44.485 39.4577 44.3235C39.6194 44.0005 39.862 43.6775 39.9429 43.3545C39.9429 43.2738 40.0237 43.193 40.0237 43.1123C40.0237 43.0316 40.1046 42.9508 40.1046 42.7893C40.1046 42.6278 40.1854 42.3856 40.1854 42.2241C40.1854 41.8204 40.1854 41.4166 40.1854 41.0936C40.1854 40.9321 40.1854 40.7707 40.1046 40.6092C40.1046 40.4477 40.1046 40.3669 40.1046 40.2054C40.1046 39.9632 40.0237 39.8824 40.0237 39.8824C40.0237 39.8824 39.862 39.9632 39.7003 40.2054C39.5386 40.3669 39.2152 40.6899 38.9726 40.9321C38.73 41.2551 38.4066 41.5781 38.164 41.9818C38.0023 42.1433 37.9215 42.3856 37.8406 42.5471C37.7598 42.7086 37.6789 42.9508 37.598 43.1123C37.5172 43.2738 37.5172 43.516 37.5172 43.6775C37.5172 43.7583 37.5172 43.839 37.5172 43.9198C37.5172 44.0005 37.5172 44.0005 37.5172 44.0813C37.3555 44.0813 37.3555 44.162 37.3555 44.162Z" fill="#303030"/>
<path d="M32.0214 38.3483C32.1831 38.4291 32.3448 38.5906 32.5066 38.6713C32.83 38.8328 33.1534 38.9136 33.4768 38.9943C34.0428 39.0751 34.528 39.0751 34.528 39.0751C34.528 39.0751 34.6088 38.7521 34.4471 38.2676C34.4471 38.1061 34.3662 38.0254 34.3662 37.8639C34.2854 37.7024 34.2854 37.5409 34.2045 37.4601C34.1237 37.2986 34.0428 37.1371 33.962 36.9756C33.8811 36.8949 33.8811 36.8142 33.8003 36.7334L33.7194 36.6527L33.6385 36.5719C33.0725 35.9259 32.1023 35.28 31.3746 34.7955C30.9703 34.5533 30.6469 34.311 30.4043 34.1495C30.1617 33.988 30 33.9073 30 33.9073C30 33.9073 30 34.0688 30.0809 34.3918C30.1617 34.7148 30.2426 35.0377 30.3234 35.5222C30.4851 35.9259 30.6469 36.4104 30.8086 36.8949C30.8894 36.9756 30.8894 37.1371 30.9703 37.2179C31.0511 37.2986 31.132 37.4601 31.132 37.5409C31.2937 37.7831 31.4554 37.9446 31.5363 38.1061C31.698 38.0254 31.8597 38.1868 32.0214 38.3483Z" fill="#303030"/>
<path d="M35.6605 38.8327C35.6605 38.8327 36.0648 38.6713 36.55 38.429C36.7925 38.2675 37.1159 38.106 37.3585 37.8638C37.5202 37.783 37.6011 37.6216 37.7628 37.4601C37.9245 37.2986 38.0054 37.1371 38.0862 36.9756C38.1671 36.8141 38.2479 36.6526 38.4096 36.4911C38.4905 36.3296 38.5714 36.1681 38.6522 35.9259C38.8139 35.5221 38.8948 35.1992 38.9756 34.8762C39.0565 34.5532 39.1373 34.2302 39.1373 34.0687C39.1373 33.8265 39.1373 33.7457 39.1373 33.7457C39.1373 33.7457 38.9756 33.8265 38.7331 33.9072C38.4905 34.0687 38.1671 34.2302 37.8437 34.4724C37.5202 34.7147 37.1159 34.9569 36.7925 35.2799C36.4691 35.6029 36.1457 35.9259 35.9031 36.2489C35.8222 36.4104 35.7414 36.5719 35.6605 36.7333C35.5797 36.8948 35.5797 37.0563 35.4988 37.2178C35.4988 37.3793 35.418 37.5408 35.418 37.7023C35.418 37.8638 35.418 37.9445 35.418 38.106C35.4988 38.5098 35.6605 38.8327 35.6605 38.8327Z" fill="#303030"/>
<path d="M31.1312 27.6899C31.1312 27.8514 31.2121 28.0936 31.2121 28.2551C31.2929 28.6588 31.3738 28.9818 31.5355 29.3048C31.7781 29.7086 32.0206 30.0315 32.2632 30.2738C32.5058 30.516 32.8292 30.6775 33.0718 30.839C33.6378 31.0812 34.0421 31.162 34.0421 31.162C34.0421 31.162 34.0421 31.0812 34.1229 30.9197C34.1229 30.7583 34.2038 30.5968 34.2038 30.3545C34.2038 30.1123 34.2038 29.7893 34.1229 29.4663C34.0421 29.1433 33.9612 28.8203 33.7995 28.4166C33.7186 28.2551 33.6378 28.1744 33.5569 28.0129C33.4761 27.9321 33.4761 27.8514 33.3952 27.8514C33.3144 27.7706 33.3144 27.6899 33.2335 27.6899C32.9909 27.3669 32.7484 27.0439 32.5058 26.7209C32.2632 26.398 32.0207 26.075 31.7781 25.8327C31.3738 25.2675 31.0504 24.9445 31.0504 24.9445C31.0504 24.9445 30.9695 25.1868 30.9695 25.6712C30.9695 25.9135 30.8887 26.1557 30.8887 26.398C30.8887 26.6402 30.8887 26.9632 30.8887 27.2862C31.0504 27.3669 31.0504 27.5284 31.1312 27.6899Z" fill="#303030"/>
<path d="M38.0878 30.1122C38.1686 30.0314 38.1686 30.0314 38.2495 29.9507C38.3304 29.87 38.3303 29.87 38.4112 29.7892C38.4921 29.7085 38.5729 29.547 38.7346 29.4662C38.8155 29.3855 38.8964 29.224 38.9772 29.1432C39.0581 28.9817 39.1389 28.901 39.2198 28.8203C39.3815 28.6588 39.4623 28.4165 39.5432 28.255C39.624 28.1743 39.6241 28.0935 39.7049 28.0128C39.7049 27.932 39.7858 27.8513 39.8666 27.7705C40.0283 27.4476 40.1092 27.2861 40.1092 27.2861C40.1092 27.2861 39.6241 27.3668 38.9772 27.5283C38.8155 27.6091 38.6538 27.6091 38.4921 27.6898C38.3304 27.7705 38.1686 27.7705 37.9261 27.8513C37.6026 28.0128 37.1984 28.1743 36.8749 28.3358C36.6324 28.4973 36.3898 28.6588 36.1472 28.8203C35.8238 29.0625 35.5812 29.3855 35.5004 29.6277C35.3387 29.9507 35.2578 30.1929 35.2578 30.4352C35.2578 30.6774 35.2578 30.8389 35.2578 31.0004C35.2578 31.1619 35.3387 31.2426 35.3387 31.2426C35.3387 31.2426 35.7429 31.2426 36.3089 31.0811C36.7941 30.9197 37.5218 30.6774 38.0878 30.1122Z" fill="#303030"/>
<path d="M34.5289 22.1184C34.6906 22.4414 34.9332 22.6837 35.1757 22.9259C35.58 23.3296 35.9843 23.4911 35.9843 23.4911C35.9843 23.4911 36.0652 23.4104 36.146 23.3296C36.2269 23.1681 36.3077 23.0066 36.3886 22.7644C36.4694 22.5222 36.5503 22.2799 36.6312 21.9569C36.6312 21.7955 36.6312 21.634 36.6312 21.3917C36.6312 21.2302 36.6312 20.988 36.5503 20.8265C36.5503 20.5843 36.4694 20.4228 36.3886 20.1805C36.3886 20.0998 36.3077 19.9383 36.3077 19.8575C36.3077 19.7768 36.2269 19.6153 36.2269 19.5346C36.0652 19.0501 35.9034 18.6463 35.6609 18.1619C35.58 17.9196 35.4992 17.7581 35.4183 17.5966C35.3375 17.4352 35.2566 17.2737 35.1757 17.1122C35.0949 16.8699 35.014 16.7084 35.014 16.7084C35.014 16.7084 34.9332 16.8699 34.7715 17.1122C34.6906 17.2737 34.6098 17.4352 34.6098 17.5966C34.5289 17.7581 34.448 18.0004 34.3672 18.1619C34.3672 18.2426 34.2863 18.4041 34.2863 18.4849C34.2863 18.5656 34.2055 18.7271 34.2055 18.8078C34.1246 19.0501 34.1246 19.2923 34.0438 19.5346C34.0438 19.7768 33.9629 20.019 33.9629 20.2613C33.9629 20.5035 33.9629 20.7457 34.0438 20.988C34.2055 21.4725 34.3672 21.7955 34.5289 22.1184Z" fill="#303030"/>
<path d="M40.6729 23.3296C40.8346 23.2488 40.9963 23.0873 41.158 23.0066C41.3198 22.8451 41.4815 22.7643 41.5623 22.6029C41.724 22.4414 41.8049 22.3606 41.9666 22.1991C42.1283 22.0376 42.2092 21.9569 42.2901 21.8761C42.3709 21.7954 42.3709 21.7954 42.4518 21.7146C42.5326 21.6339 42.5326 21.6339 42.5326 21.5532C42.6943 21.3917 42.7752 21.3109 42.7752 21.3109C42.7752 21.3109 42.6135 21.3109 42.3709 21.3109C42.1283 21.3109 41.7241 21.3109 41.3198 21.3109C40.9155 21.3109 40.4303 21.3917 39.9452 21.4724C39.8643 21.4724 39.7026 21.5532 39.6218 21.5532C39.5409 21.5532 39.3792 21.6339 39.2984 21.6339C39.0558 21.7146 38.8941 21.7954 38.6515 21.8761C38.4898 21.9569 38.3281 22.0376 38.1664 22.1991C38.0047 22.2799 37.9238 22.4414 37.7621 22.5221C37.5195 22.7643 37.3578 23.0066 37.277 23.2488C37.1961 23.4911 37.1152 23.6526 37.1152 23.814C37.1152 23.9755 37.1152 24.0563 37.1152 24.0563C37.1152 24.0563 37.5195 24.137 38.0855 24.137C38.4089 24.137 38.7324 24.137 39.0558 24.0563C39.3792 23.9755 39.7835 23.8948 40.1878 23.7333C40.3495 23.5718 40.5112 23.4103 40.6729 23.3296Z" fill="#303030"/>
<path d="M38.8121 15.255C38.8929 15.578 39.0547 15.901 39.2164 16.1432C39.5398 16.6277 39.8632 16.9507 39.8632 16.9507C39.8632 16.9507 40.1867 16.7892 40.5101 16.3854C40.5909 16.3047 40.6718 16.1432 40.7526 16.0624C40.8335 15.901 40.9144 15.8202 40.9952 15.6587C41.1569 15.3357 41.2378 15.0127 41.2378 14.5283C41.3186 14.1245 41.2378 13.6401 41.2378 13.1556C41.2378 12.6711 41.1569 12.1866 41.0761 11.7021C40.9952 11.2177 40.9952 10.8947 40.9144 10.5717C40.8335 10.3295 40.8335 10.0872 40.8335 10.0872C40.8335 10.0872 40.8335 10.0872 40.7526 10.168C40.6718 10.2487 40.5909 10.3295 40.5101 10.4102C40.3484 10.6524 40.1058 10.9754 39.7824 11.2984C39.5398 11.7021 39.2972 12.1059 39.0547 12.5904C38.893 13.0748 38.7312 13.5593 38.6504 13.963C38.6504 14.0438 38.6504 14.2053 38.6504 14.286C38.6504 14.3668 38.6504 14.5283 38.6504 14.609C38.6504 14.932 38.7312 15.0935 38.8121 15.255Z" fill="#303030"/>
<path d="M44.3928 18.0002C44.4737 18.0002 44.5546 17.9195 44.7163 17.9195C44.7971 17.9195 44.7971 17.9195 44.878 17.8387C44.9588 17.8387 44.9588 17.8387 45.0397 17.758C45.444 17.5965 45.7674 17.435 46.0908 17.2735C46.4142 17.112 46.6568 16.9505 46.8185 16.8698C46.8994 16.789 46.9802 16.789 47.0611 16.7083C47.142 16.7083 47.142 16.6275 47.142 16.6275C47.142 16.6275 47.142 16.6275 47.0611 16.5468C46.9802 16.5468 46.8994 16.466 46.7377 16.466C46.4951 16.3853 46.0908 16.3045 45.6865 16.1431C45.444 16.0623 45.2823 16.0623 45.0397 15.9816C44.9588 15.9816 44.7971 15.9816 44.7163 15.9008C44.6354 15.9008 44.4737 15.9008 44.3928 15.9008C43.9077 15.9008 43.4226 15.9008 43.0183 15.9008C42.614 15.9816 42.2906 16.1431 41.9671 16.3045C41.8054 16.3853 41.7246 16.466 41.5629 16.5468C41.482 16.6275 41.4012 16.7083 41.3203 16.8698C40.9969 17.2735 40.916 17.5965 40.916 17.5965C40.916 17.5965 41.3203 17.8387 41.8863 17.9195C42.2097 18.0002 42.5331 18.081 42.8566 18.081C43.18 18.081 43.5843 18.081 43.9885 18.081C43.9885 18.081 44.1503 18.081 44.3928 18.0002Z" fill="#303030"/>
<path d="M45.4449 11.1367C45.5258 11.2982 45.6066 11.379 45.6066 11.379C45.6066 11.379 45.6066 11.379 45.6875 11.379C45.6875 11.379 45.7684 11.379 45.8492 11.2982C46.0109 11.2175 46.1726 11.1367 46.4152 10.9752C46.8195 10.6522 47.3046 10.1678 47.628 9.3603C47.7089 9.11806 47.8706 8.79508 47.9515 8.47209C48.0323 8.06836 48.1132 7.66463 48.194 7.2609C48.2749 6.85717 48.3557 6.45343 48.4366 6.13045C48.5175 5.48448 48.5983 5 48.5983 5C48.5983 5 48.3557 5.16149 48.0323 5.40373C47.8706 5.56522 47.628 5.64597 47.4663 5.80746C47.2238 5.96896 47.062 6.21119 46.8195 6.37269C46.6578 6.53418 46.5769 6.61493 46.4152 6.77642L46.3343 6.85717L46.2535 6.93791C46.1726 7.01866 46.1726 7.0994 46.0918 7.18015C45.8492 7.50314 45.6875 7.82612 45.5258 8.14911C45.4449 8.39135 45.3641 8.55284 45.3641 8.79508C45.3641 8.95657 45.2832 9.19881 45.2832 9.3603C45.2832 9.76403 45.3641 10.087 45.3641 10.3293C45.2832 10.8137 45.3641 10.9752 45.4449 11.1367Z" fill="#303030"/>
<path d="M50.7799 13.4783C51.0225 13.3976 51.265 13.3976 51.4268 13.3168C51.6693 13.2361 51.831 13.2361 51.9928 13.1553C52.3162 13.0746 52.4779 12.9939 52.4779 12.9939C52.4779 12.9939 52.1545 12.7516 51.5885 12.3479C51.3459 12.1864 51.0225 12.0249 50.6182 11.8634C50.2948 11.7019 49.8905 11.5404 49.4862 11.4597C49.1628 11.3789 48.9202 11.2982 48.6776 11.2982C47.8691 11.2174 47.2222 11.4597 46.8179 11.7827C46.5754 11.9442 46.4945 12.0249 46.3328 12.1864C46.252 12.2671 46.252 12.2671 46.252 12.3479V12.4286C46.252 12.4286 46.3328 12.5094 46.4945 12.5901C46.6562 12.6709 46.8179 12.8324 47.0605 12.9939C47.3031 13.1553 47.6265 13.3168 47.9499 13.3976C48.1117 13.4783 48.2734 13.5591 48.5159 13.5591C48.6776 13.6398 48.9202 13.6398 49.0819 13.6398C49.6479 13.6398 50.2139 13.5591 50.7799 13.4783Z" fill="#303030"/>
<path d="M59.4322 60.634C59.2705 60.634 59.1088 60.5533 58.8663 60.5533C58.7854 60.5533 58.6237 60.5533 58.5428 60.4725C58.3811 60.4725 58.3003 60.3918 58.1385 60.3918C57.896 60.311 57.5726 60.311 57.2491 60.2303C56.9257 60.1495 56.6023 60.0688 56.2789 59.988C56.1171 59.988 55.9554 59.9073 55.7937 59.9073C55.632 59.8265 55.4703 59.8265 55.3086 59.7458C54.9851 59.6651 54.5809 59.5843 54.2574 59.4228C52.802 59.0191 51.5083 58.4538 50.4572 57.9694C50.2146 57.8079 49.9721 57.7271 49.8103 57.6464C49.7295 57.5656 49.6486 57.5656 49.5678 57.4849C49.4869 57.4042 49.4061 57.4042 49.3252 57.3234C49.0826 57.1619 48.9209 57.0812 48.9209 57.0812C48.9209 57.0812 48.7592 57.0004 48.5166 56.8389C48.2741 56.6774 47.8698 56.4352 47.3847 56.1122C46.4952 55.547 45.2824 54.6588 44.1504 53.6898C43.0184 52.7209 42.0481 51.6712 41.3204 50.8637C41.2396 50.783 41.1587 50.7022 41.0779 50.5407C40.997 50.46 40.9162 50.3792 40.8353 50.2985C40.6736 50.137 40.5927 49.9755 40.5119 49.8947C40.431 49.814 40.3502 49.6525 40.2693 49.5718C40.1885 49.491 40.1885 49.491 40.1885 49.491C40.1885 49.491 40.1076 49.3295 39.865 49.0873C39.7842 48.9258 39.6224 48.845 39.5416 48.6028C39.3799 48.4413 39.299 48.1991 39.1373 47.9568C39.0565 47.8761 38.9756 47.7146 38.8947 47.6339C38.8139 47.4724 38.733 47.3916 38.6522 47.2301C38.4905 46.9879 38.3288 46.6649 38.167 46.4227C38.0053 46.0997 37.8436 45.8574 37.6819 45.5344C37.601 45.4537 37.601 45.373 37.5202 45.2922C37.5202 45.2115 37.4393 45.1307 37.4393 45.05C37.3585 44.8885 37.2776 44.727 37.1968 44.5655C36.6308 43.2735 36.0648 41.9009 35.8222 40.8512C35.8222 40.6897 35.7414 40.6089 35.7414 40.4474C35.7414 40.3667 35.6605 40.2052 35.6605 40.1244C35.5796 39.8822 35.5796 39.7207 35.4988 39.5592C35.4179 39.2362 35.4179 39.0747 35.4179 39.0747C35.4179 39.0747 35.4179 38.994 35.4179 38.9132C35.4179 38.8325 35.4179 38.671 35.3371 38.5903C35.3371 38.4288 35.2562 38.2673 35.2562 38.025C35.2562 37.7828 35.1753 37.5406 35.0945 37.2983C35.0945 37.0561 35.0137 36.7331 35.0137 36.4101C35.0137 36.3294 35.0137 36.2486 35.0137 36.1679C35.0137 36.0871 35.0137 36.0064 35.0137 35.9256C35.0137 35.7641 35.0137 35.6026 35.0137 35.4412C34.9328 34.7952 34.9328 34.0685 34.9328 33.3418C34.9328 32.615 34.9328 31.8883 35.0137 31.2423C35.0137 31.0809 35.0137 30.9194 35.0137 30.7579C35.0137 30.6771 35.0137 30.5964 35.0137 30.5156C35.0137 30.4349 35.0137 30.3541 35.0137 30.2734C35.0137 29.9504 35.0945 29.7082 35.0945 29.3852C35.0945 29.1429 35.1754 28.9007 35.2562 28.6585C35.2562 28.4162 35.3371 28.2547 35.3371 28.0932C35.3371 27.9318 35.4179 27.851 35.4179 27.7703C35.4179 27.6895 35.4179 27.6088 35.4179 27.6088C35.4179 27.6088 35.4988 27.4473 35.4988 27.1243C35.4988 26.9628 35.5796 26.8013 35.6605 26.5591C35.6605 26.4783 35.7414 26.3168 35.7414 26.2361C35.7414 26.1553 35.8222 25.9938 35.8222 25.8323C36.1456 24.7826 36.6308 23.4907 37.1968 22.118C37.2776 21.9565 37.3585 21.795 37.4393 21.6335C37.4393 21.5528 37.5202 21.472 37.5202 21.3913C37.601 21.3106 37.601 21.2298 37.6819 21.1491C37.8436 20.8261 38.0053 20.5031 38.167 20.2609C38.3288 19.9379 38.4905 19.6956 38.6522 19.4534C38.733 19.2919 38.8139 19.2111 38.8947 19.0497C38.9756 18.8882 39.0565 18.8074 39.1373 18.7267C39.299 18.4844 39.4607 18.3229 39.5416 18.0807C39.7033 17.9192 39.7842 17.7577 39.865 17.5962C40.0267 17.354 40.1885 17.1925 40.1885 17.1925C40.1885 17.1925 40.1885 17.1925 40.2693 17.1117C40.3502 17.031 40.3502 16.9503 40.5119 16.7888C40.5927 16.6273 40.7544 16.5465 40.8353 16.385C40.9162 16.3043 40.997 16.2235 41.0779 16.1428C41.1587 16.062 41.2396 15.9813 41.3204 15.8198C42.0481 15.0123 43.0184 13.9626 44.1504 12.9937C45.2824 12.0247 46.4144 11.2173 47.3847 10.5713C47.8698 10.2483 48.2741 10.0061 48.5166 9.84458C48.8401 9.68308 48.9209 9.60234 48.9209 9.60234C48.9209 9.60234 49.0826 9.52159 49.3252 9.3601C49.4061 9.3601 49.4869 9.27935 49.5678 9.19861C49.6486 9.11786 49.7295 9.11786 49.8103 9.03711C49.8912 9.03711 49.9721 8.95637 50.0529 8.95637C50.2146 8.95637 50.4572 8.95637 50.7806 8.95637C51.3466 8.95637 52.1552 8.79487 52.802 8.47189C53.1255 8.3104 53.4489 8.06816 53.7723 7.74517C53.934 7.58368 54.0957 7.50293 54.1766 7.34144C54.3383 7.17995 54.4192 7.0992 54.5809 6.93771C54.8234 6.69547 54.9852 6.45323 55.1469 6.29174C55.3086 6.13025 55.3894 6.0495 55.3894 6.0495C55.3894 6.0495 55.2277 6.0495 54.9851 6.0495C54.7426 6.0495 54.3383 6.0495 53.934 6.0495C53.8532 6.0495 53.6915 6.0495 53.6106 6.0495C53.5297 6.0495 53.368 6.0495 53.2872 6.13025C53.0446 6.13025 52.802 6.21099 52.5595 6.29174C52.0743 6.37248 51.67 6.53398 51.2658 6.77622C50.9423 6.93771 50.6189 7.17995 50.3764 7.42219C50.1338 7.66443 50.0529 7.90666 49.9721 8.1489C49.8912 8.39114 49.8103 8.55264 49.8103 8.71413V8.79487H49.7295C49.6486 8.87562 49.5678 8.87562 49.4061 8.95637C49.3252 9.03711 49.2444 9.03711 49.1635 9.11786C48.9209 9.27935 48.7592 9.3601 48.7592 9.3601C48.7592 9.3601 48.5975 9.44084 48.2741 9.60234C48.0315 9.76383 47.6272 10.0061 47.1421 10.3291C46.2527 10.975 45.0398 11.7825 43.9078 12.7514C42.7759 13.7204 41.8056 14.7701 41.0779 15.5776C40.997 15.6583 40.9162 15.8198 40.8353 15.9005C40.7544 15.9813 40.6736 16.062 40.5927 16.1428C40.431 16.3043 40.3502 16.4658 40.1885 16.6273C40.1076 16.7888 40.0267 16.8695 39.9459 16.9503C39.865 17.031 39.865 17.031 39.865 17.031C39.865 17.031 39.7842 17.1925 39.5416 17.4347C39.4607 17.5962 39.299 17.7577 39.2182 17.9192C39.0565 18.0807 38.9756 18.3229 38.8139 18.5652C38.733 18.6459 38.6522 18.8074 38.5713 18.8882C38.4905 19.0497 38.4096 19.1304 38.3287 19.2919C38.167 19.5341 38.0053 19.8571 37.8436 20.0994C37.6819 20.4223 37.5202 20.7453 37.3585 20.9876C37.2776 21.0683 37.2776 21.1491 37.1968 21.2298C37.1968 21.3106 37.1159 21.3913 37.1159 21.472C37.035 21.6335 36.9542 21.795 36.8733 21.9565C36.2265 23.2485 35.7413 24.6212 35.4988 25.6709C35.4988 25.8323 35.4179 25.9131 35.4179 26.0746C35.4179 26.1553 35.3371 26.3168 35.3371 26.3976C35.2562 26.6398 35.2562 26.8013 35.1754 26.9628C35.0945 27.2858 35.0945 27.4473 35.0945 27.4473C35.0945 27.4473 35.0945 27.528 35.0945 27.6088C35.0945 27.6895 35.0945 27.851 35.0137 27.9317C35.0137 28.0932 34.9328 28.2547 34.9328 28.497C34.9328 28.7392 34.8519 28.9815 34.7711 29.2237C34.7711 29.4659 34.6902 29.7889 34.6902 30.1119C34.6902 30.1926 34.6902 30.2734 34.6902 30.3541C34.6902 30.4349 34.6902 30.5156 34.6902 30.5964C34.6902 30.7579 34.6902 30.9194 34.6902 31.0809C34.6094 31.7268 34.6094 32.4535 34.6094 33.1803C34.6094 33.907 34.6094 34.6337 34.6902 35.2797C34.6902 35.4412 34.6902 35.6026 34.6902 35.7641C34.6902 35.8449 34.6902 35.9256 34.6902 36.0064C34.6902 36.0871 34.6902 36.1679 34.6902 36.2486C34.6902 36.5716 34.7711 36.8138 34.7711 37.1368C34.7711 37.3791 34.8519 37.6213 34.9328 37.8635C34.9328 38.1058 35.0137 38.2673 35.0137 38.4288C35.0137 38.5903 35.0945 38.671 35.0945 38.7518C35.0945 38.8325 35.0945 38.9132 35.0945 38.9132C35.0945 38.9132 35.1754 39.0747 35.1754 39.3977C35.1754 39.5592 35.2562 39.7207 35.3371 39.963C35.3371 40.0437 35.4179 40.2052 35.4179 40.2859C35.4179 40.3667 35.4988 40.5282 35.4988 40.6897C35.8222 41.7394 36.3073 43.1121 36.8733 44.404C36.9542 44.5655 37.035 44.727 37.1159 44.8885C37.1159 44.9692 37.1968 45.05 37.1968 45.1307C37.2776 45.2115 37.2776 45.2922 37.3585 45.373C37.5202 45.6959 37.6819 46.0189 37.8436 46.2612C38.0053 46.5841 38.167 46.8264 38.3287 47.0686C38.4096 47.2301 38.4905 47.3109 38.5713 47.4724C38.6522 47.6339 38.733 47.7146 38.8139 47.7953C38.9756 48.0376 39.1373 48.1991 39.2182 48.4413C39.3799 48.6028 39.4607 48.7643 39.5416 48.9258C39.7033 49.168 39.865 49.3295 39.865 49.3295C39.865 49.3295 39.865 49.3295 39.9459 49.4103C40.0267 49.491 40.1076 49.5718 40.1885 49.7333C40.2693 49.8947 40.431 49.9755 40.5927 50.2177C40.6736 50.2985 40.7544 50.3792 40.8353 50.46C40.9162 50.5407 40.997 50.6215 41.0779 50.783C41.8056 51.5904 42.8567 52.6401 43.9078 53.6091C45.0398 54.578 46.2527 55.4662 47.1421 56.0315C47.6272 56.3545 48.0315 56.5967 48.2741 56.7582C48.5975 56.9197 48.7592 57.0004 48.7592 57.0004C48.7592 57.0004 48.9209 57.0812 49.1635 57.2427C49.2444 57.2427 49.3252 57.3234 49.4061 57.4042C49.4869 57.4849 49.5678 57.4849 49.7295 57.5656C49.9721 57.6464 50.1338 57.8079 50.3764 57.8886C51.3466 58.3731 52.7212 58.9383 54.1766 59.3421C54.5 59.5036 54.9043 59.5843 55.2277 59.665C55.3894 59.7458 55.5511 59.7458 55.7937 59.8265C55.9554 59.9073 56.1171 59.9073 56.2789 59.9073C56.6023 59.988 56.9257 60.0688 57.2491 60.1495C57.5726 60.2303 57.896 60.2303 58.1385 60.311C58.3003 60.311 58.3811 60.3918 58.5428 60.3918C58.7045 60.3918 58.7854 60.3918 58.8663 60.4725C59.1088 60.4725 59.2705 60.5533 59.4322 60.5533C59.7557 60.5533 59.9174 60.634 59.9174 60.634V60.3918C59.9982 60.7147 59.7557 60.7148 59.4322 60.634Z" fill="#303030"/>
<path d="M56.2773 60.3917C56.2773 60.3917 60.1584 61.3606 61.0479 64.9942L60.967 60.7954L56.5199 60.2302L56.2773 60.3917Z" fill="#303030"/>
</g>
<path d="M64.3788 94.5689L60.8711 81.9786H62.5998L65.5368 93.0648H65.134L68.1886 81.9786H69.9172L72.955 93.0648H72.5354L75.4893 81.9786H77.2179L73.7103 94.5689H71.8809L68.8263 83.5333H69.2627L66.2082 94.5689H64.3788Z" fill="#303030"/>
<path d="M76.9168 94.5689L81.3979 81.9786H83.3447L87.8259 94.5689H86.0636L85.0398 91.6114H79.7028L78.679 94.5689H76.9168ZM80.2231 90.0905H84.5196L82.1363 83.1784H82.6063L80.2231 90.0905Z" fill="#303030"/>
<path d="M91.7898 94.5689L87.2752 81.9786H89.0374L92.864 93.0479H92.5115L96.3381 81.9786H98.1003L93.6024 94.5689H91.7898Z" fill="#303030"/>
<path d="M99.6778 94.5689V81.9786H107.818V83.4995H101.323V87.4879H107.482V89.0089H101.323V93.0479H107.818V94.5689H99.6778Z" fill="#303030"/>
<path d="M114.152 94.7717C113.358 94.7717 112.631 94.6252 111.971 94.3323C111.31 94.0281 110.751 93.6169 110.292 93.0986C109.834 92.5804 109.503 92.0001 109.302 91.358L110.729 90.7665C111.031 91.5776 111.478 92.2029 112.071 92.6423C112.676 93.0705 113.38 93.2845 114.186 93.2845C114.678 93.2845 115.109 93.2057 115.478 93.0479C115.848 92.8902 116.133 92.6705 116.334 92.3888C116.547 92.0959 116.653 91.7579 116.653 91.3748C116.653 90.8453 116.502 90.4285 116.2 90.1243C115.909 89.8088 115.478 89.5722 114.908 89.4145L112.608 88.7047C111.702 88.423 111.008 87.978 110.527 87.3696C110.046 86.7612 109.806 86.0627 109.806 85.274C109.806 84.5868 109.968 83.984 110.292 83.4657C110.628 82.9362 111.087 82.525 111.669 82.2321C112.262 81.9279 112.933 81.7758 113.682 81.7758C114.432 81.7758 115.109 81.911 115.713 82.1814C116.329 82.4517 116.849 82.8179 117.274 83.2798C117.699 83.7305 118.013 84.2488 118.214 84.8346L116.804 85.4261C116.536 84.7163 116.133 84.1812 115.596 83.8206C115.059 83.4488 114.427 83.2629 113.699 83.2629C113.252 83.2629 112.855 83.3418 112.508 83.4995C112.172 83.646 111.909 83.8657 111.719 84.1586C111.54 84.4403 111.45 84.7783 111.45 85.1726C111.45 85.6345 111.596 86.0458 111.887 86.4063C112.178 86.7668 112.62 87.0429 113.213 87.2344L115.31 87.8597C116.295 88.1639 117.039 88.5976 117.543 89.161C118.046 89.7243 118.298 90.4228 118.298 91.2566C118.298 91.9438 118.119 92.5522 117.761 93.0817C117.414 93.6113 116.927 94.0281 116.301 94.3323C115.685 94.6252 114.969 94.7717 114.152 94.7717Z" fill="#303030"/>
<path d="M90.4199 7.93457L117.715 35.4195L90.4199 62.9044L63.1246 35.4195L90.4199 7.93457Z" fill="#386CF6"/>
</svg>
