<svg width="160" height="48" fill="none" xmlns="http://www.w3.org/2000/svg"><path fill-rule="evenodd" clip-rule="evenodd" d="M9.374 17.66c1.542 0 2.792 1.282 2.792 2.864v7.073c0 1.581 1.25 2.863 2.791 2.863 1.542 0 2.792-1.282 2.792-2.863v-7.073c0-1.582 1.25-2.864 2.792-2.864 1.541 0 2.791 1.282 2.791 2.864v6.566l.084.045v.462c0 1.581 1 2.863 2.541 2.863 1.542 0 2.792-1.282 2.792-2.863v-.586s-.083-6.697-.417-8.58C28 16.55 26.916 15.389 25.5 13.848c-1.417-1.54.75-5.088 3.583-3.12 2.833 1.97 4.271 4.469 4.75 7.704.487 3.293.75 9.102.75 9.102s-.111 2.082-.373 2.547c-1.056 3.514-4.239 6.067-8.002 6.067a8.216 8.216 0 01-5.625-2.232 8.216 8.216 0 01-5.625 2.232c-3.763 0-6.946-2.553-8.002-6.067-.262-.465-.373-2.547-.373-2.547v-7.01c0-1.582 1.25-2.864 2.792-2.864z" fill="#FFD02F"/><path fill-rule="evenodd" clip-rule="evenodd" d="M26.132 30.629c-1.542 0-2.792-1.233-2.792-2.754v-6.8c0-1.521-1.25-2.754-2.791-2.754-1.542 0-2.792 1.233-2.792 2.753v6.801c0 1.52-1.25 2.754-2.792 2.754-1.542 0-2.792-1.233-2.792-2.754v-1.552l-.083-4.632c0-.173.028-.158 0-.173v-.444c0-1.52-1-2.753-2.541-2.753-1.542 0-2.792 1.233-2.792 2.753v.564s.083 6.439.417 8.249c.333 1.81 1.416 2.926 2.833 4.407 1.417 1.482-.75 4.893-3.583 3-2.834-1.893-4.272-4.297-4.75-7.407-.488-3.167-.75-8.753-.75-8.753s.111-2.001.372-2.449c1.056-3.379 4.24-5.833 8.003-5.833 2.165 0 4.138.812 5.625 2.146a8.396 8.396 0 015.625-2.146c3.763 0 6.946 2.454 8.002 5.833.262.448.373 2.45.373 2.45v6.74c0 1.52-1.25 2.754-2.792 2.754z" fill="#303030"/><path d="M63.638 15.801c-2.035 0-3.68.718-4.668 2.184-.928-1.436-2.454-2.184-4.19-2.184-1.794 0-3.111.778-3.919 2.095-.03-1.287-1.077-1.945-2.095-1.945-1.077 0-2.184.718-2.184 2.124v11.76c0 1.406 1.077 2.124 2.154 2.124 1.048 0 2.125-.718 2.125-2.124v-6.972c.03-2.304 1.107-3.411 2.633-3.411 1.197 0 2.424.748 2.424 3.321v7.002c0 1.466 1.107 2.214 2.154 2.214 1.048 0 2.155-.748 2.155-2.214v-6.912c0-2.274 1.077-3.411 2.603-3.411 1.197 0 2.424.718 2.424 3.321v7.002c0 1.466 1.107 2.214 2.154 2.214s2.155-.748 2.155-2.214v-7.69c0-4.369-2.873-6.284-5.925-6.284zm18.134 1.556c-2.065 5.596-2.932 8.08-3.441 10.264-.539-2.245-1.646-5.177-3.56-10.234-.39-.987-1.168-1.406-1.946-1.406-1.137 0-2.304.868-2.304 2.094 0 .27.06.539.18.838l5.446 13.017-1.616 4.129c-.12.299-.18.598-.18.868 0 1.197 1.077 1.945 2.125 1.945.778 0 1.556-.39 1.915-1.317l7.36-18.732c.12-.299.18-.598.18-.867 0-1.197-1.107-2.005-2.214-2.005-.778 0-1.586.419-1.945 1.406zM93.759 31.99c1.346 0 2.394-.928 2.723-2.065 1.556-5.237 2.094-7.032 2.454-8.947.239 1.675.538 2.783 2.274 8.857.389 1.346 1.496 2.154 2.752 2.154 1.227 0 2.334-.867 2.694-2.034l3.471-11.371a1.98 1.98 0 00.119-.688c0-1.227-1.077-1.945-2.124-1.945-.778 0-1.646.449-1.945 1.586-1.556 5.775-2.095 7.81-2.304 9.216-.27-1.736-.629-3.112-2.215-8.708-.359-1.256-1.346-2.124-2.663-2.124-1.346 0-2.334.957-2.633 2.035-1.675 5.954-2.094 7.51-2.334 9.126-.24-1.676-1.077-4.16-2.304-9.456-.3-1.286-1.167-1.675-1.975-1.675-1.197 0-2.274.838-2.274 2.034 0 .21.06.42.12.659l3.44 11.31c.36 1.168 1.497 2.035 2.724 2.035zm21.163-17.416a2.4 2.4 0 002.394-2.393 2.4 2.4 0 00-2.394-2.394 2.401 2.401 0 00-2.394 2.393 2.401 2.401 0 002.394 2.394zm-2.124 15.29c0 1.407 1.107 2.125 2.124 2.125 1.077 0 2.125-.748 2.125-2.124v-11.82c0-1.376-1.048-2.124-2.125-2.124-1.047 0-2.124.748-2.124 2.124v11.82zm13.585 2.216c3.83 0 6.702-1.766 6.702-5.028 0-5.865-9.216-4.13-9.216-6.703 0-.867.987-1.346 2.095-1.346 1.167 0 2.124.509 2.902 1.227.599.568 1.227.808 1.795.808.988 0 1.736-.778 1.736-1.706 0-.479-.18-1.017-.658-1.526-1.018-1.107-3.352-2.005-5.716-2.005-3.441 0-6.283 1.795-6.283 4.908 0 5.625 9.066 4.069 9.066 6.642 0 .898-1.017 1.407-2.394 1.407-1.346 0-2.154-.48-2.962-1.496-.509-.629-1.107-.898-1.705-.898-1.048 0-2.005.838-2.005 1.915 0 .479.179.987.598 1.496 1.227 1.466 3.381 2.304 6.045 2.304zm18.069-16.279c-2.244 0-3.83.928-4.817 2.514v-7.062c0-1.406-1.077-2.125-2.125-2.125-1.047 0-2.124.719-2.124 2.125v18.612c0 1.406 1.107 2.124 2.124 2.124 1.048 0 2.125-.718 2.125-2.124v-6.433c0-2.694 1.466-3.98 3.501-3.98 1.616 0 3.321.838 3.321 3.86v6.463c0 1.466 1.107 2.214 2.155 2.214 1.077 0 2.154-.748 2.154-2.214v-7.121c0-4.758-3.022-6.853-6.314-6.853z" fill="#303030"/></svg>