<svg width="130" height="130" fill="none" xmlns="http://www.w3.org/2000/svg"><circle cx="65" cy="65" r="65" fill="#5DD400" fill-opacity=".2"/><path fill-rule="evenodd" clip-rule="evenodd" d="M65 15c-27.615 0-50 22.385-50 50 0 27.61 22.385 50 50 50s50-22.39 50-50c0-27.615-22.385-50-50-50z" fill="#5ED500"/><mask id="a" style="mask-type:alpha" maskUnits="userSpaceOnUse" x="15" y="15" width="101" height="100"><path fill-rule="evenodd" clip-rule="evenodd" d="M65.002 15c-27.615 0-50 22.385-50 50 0 27.61 22.385 50 50 50s50-22.39 50-50c0-27.615-22.385-50-50-50z" fill="#fff"/></mask><g mask="url(#a)"><path fill-rule="evenodd" clip-rule="evenodd" d="M88.359 52.708l-22.65 29.75a4.956 4.956 0 01-3.912 1.958h-.034a4.965 4.965 0 01-3.903-1.904L45.802 67.107a4.955 4.955 0 01.848-6.957 4.952 4.952 0 016.961.848l8.097 10.343L80.47 46.703a4.96 4.96 0 016.952-.942 4.956 4.956 0 01.937 6.947z" fill="#fff"/></g></svg>