<svg width="80" height="80" viewBox="0 0 80 80" fill="none" xmlns="http://www.w3.org/2000/svg">
    <rect width="80" height="80" rx="18.8372" fill="#386CF6" fill-opacity="0.06"/>
    <g clip-path="url(#clip0_484_25429)">
        <path d="M30.4666 28.9483V22.6865C30.4666 22.5696 30.4729 22.4543 30.4831 22.3397C29.9517 22.6546 29.4623 23.036 29.0265 23.4749L25.0176 27.5035C24.5823 27.9412 24.2036 28.4322 23.8903 28.9649C24.0043 28.9546 24.1191 28.9483 24.2354 28.9483H30.4666Z" fill="#386CF6"/>
        <path d="M43.0122 54.1629C42.8573 54.163 42.704 54.1324 42.5609 54.0729C42.4178 54.0134 42.2877 53.9261 42.1782 53.8161C38.7855 50.6714 39.603 56.5982 35.4337 56.7009C34.3584 56.7009 33.5472 56.1172 33.2099 55.0974C32.8216 53.9275 33.1148 52.29 32.9026 51.6217C31.5498 51.6272 30.4988 53.8438 30.237 54.6234C30.1379 54.9218 29.9249 55.1683 29.6449 55.3088C29.3649 55.4493 29.0408 55.4723 28.7439 55.3727C28.447 55.2731 28.2017 55.059 28.0619 54.7776C27.9221 54.4962 27.8992 54.1705 27.9983 53.8722C28.2483 53.1186 29.7733 49.2551 32.9057 49.2551C33.9811 49.2551 34.7923 49.8396 35.1295 50.8586C35.5171 52.0285 35.2246 53.666 35.4369 54.3343C36.9579 54.328 37.3061 50.5268 40.4834 50.5268C41.0216 50.5377 41.5514 50.6626 42.0383 50.8934C42.4413 48.903 43.4209 47.0767 44.854 45.6443L53.0291 37.429V22.5183C53.0291 22.204 52.9048 21.9026 52.6837 21.6804C52.4626 21.4582 52.1627 21.3334 51.85 21.3334H34.1713C33.8144 21.3336 33.4721 21.4761 33.2197 21.7297C32.9672 21.9832 32.8252 22.3271 32.8248 22.6857V30.1332C32.8248 30.2888 32.7943 30.4429 32.735 30.5866C32.6758 30.7304 32.5889 30.861 32.4794 30.971C32.3699 31.0811 32.24 31.1684 32.0969 31.2279C31.9538 31.2874 31.8005 31.3181 31.6457 31.3181H24.2354C23.8784 31.3183 23.536 31.4609 23.2835 31.7147C23.031 31.9684 22.8891 32.3124 22.8889 32.6712V60.5929C22.8889 60.9072 23.0131 61.2086 23.2342 61.4308C23.4554 61.653 23.7553 61.7778 24.068 61.7778H51.8531C52.1658 61.7778 52.4657 61.653 52.6869 61.4308C52.908 61.2086 53.0322 60.9072 53.0322 60.5929V48.3924L50.3132 51.124C49.3567 52.0906 48.2189 52.8569 46.9657 53.3786C45.7124 53.9002 44.3687 54.1668 43.0122 54.1629V54.1629Z" fill="#386CF6"/>
        <path d="M59.7334 37.1896L58.7233 36.1754C58.5759 36.0273 58.376 35.9441 58.1676 35.9441C57.9591 35.9441 57.7592 36.0273 57.6118 36.1754L46.5283 47.3134C45.3433 48.4982 44.5621 50.0296 44.2966 51.688C45.947 51.4212 47.4709 50.6362 48.6499 49.4454L59.7373 38.3074C59.8847 38.1593 59.9675 37.9584 59.9675 37.7489C59.9675 37.5395 59.8847 37.3386 59.7373 37.1904L59.7334 37.1896Z" fill="#386CF6"/>
    </g>
    <defs>
        <clipPath id="clip0_484_25429">
            <rect width="37.0741" height="40.4444" fill="white" transform="translate(22.8889 21.3334)"/>
        </clipPath>
    </defs>
</svg>
