<svg width="80" height="80" viewBox="0 0 80 80" fill="none" xmlns="http://www.w3.org/2000/svg">
    <rect width="80" height="80" rx="18.8372" fill="#386CF6" fill-opacity="0.06"/>
    <path d="M44.5061 27.9639C46.52 29.2266 47.9322 31.3633 48.1893 33.8436C49.0106 34.2274 49.9222 34.448 50.8886 34.448C54.4169 34.448 57.2766 31.5884 57.2766 28.0607C57.2766 24.5324 54.4169 21.6727 50.8886 21.6727C47.3941 21.6738 44.5594 24.4824 44.5061 27.9639ZM40.3213 41.0431C43.8495 41.0431 46.7092 38.1829 46.7092 34.6551C46.7092 31.1274 43.849 28.2678 40.3213 28.2678C36.7935 28.2678 33.9322 31.128 33.9322 34.6557C33.9322 38.1834 36.7935 41.0431 40.3213 41.0431ZM43.0309 41.4785H37.6105C33.1006 41.4785 29.4315 45.1481 29.4315 49.658V56.2867L29.4484 56.3905L29.905 56.5335C34.2089 57.8783 37.9481 58.3267 41.0257 58.3267C47.037 58.3267 50.5212 56.6128 50.7359 56.5036L51.1626 56.2878H51.2082V49.658C51.2099 45.1481 47.5408 41.4785 43.0309 41.4785ZM53.5994 34.884H48.2208C48.1627 37.0359 47.2441 38.9737 45.7911 40.3674C49.7999 41.5595 52.7329 45.2769 52.7329 49.6678V51.7105C58.0435 51.5159 61.1038 50.0108 61.3054 49.9096L61.7321 49.6933H61.7778V43.0624C61.7778 38.553 58.1087 34.884 53.5994 34.884ZM29.1125 34.4491C30.3621 34.4491 31.5248 34.0844 32.5097 33.4631C32.8228 31.421 33.9176 29.6364 35.4814 28.421C35.4879 28.3015 35.4993 28.183 35.4993 28.0623C35.4993 24.534 32.6391 21.6744 29.1125 21.6744C25.5837 21.6744 22.7245 24.534 22.7245 28.0623C22.7245 31.5889 25.5837 34.4491 29.1125 34.4491ZM34.8492 40.3674C33.4034 38.9808 32.488 37.0533 32.4211 34.9144C32.2216 34.8997 32.0243 34.884 31.821 34.884H26.4012C21.8913 34.884 18.2222 38.553 18.2222 43.0624V49.6922L18.2391 49.7944L18.6957 49.9385C22.1484 51.0163 25.2298 51.5132 27.9063 51.6697V49.6678C27.9074 45.2769 30.8394 41.5605 34.8492 40.3674Z" fill="#386CF6"/>
</svg>
