<svg width="20" height="20" viewBox="0 0 20 20" fill="none" xmlns="http://www.w3.org/2000/svg">
<rect width="20" height="20" fill="white"/>
<path d="M4.47405 3.06342L10 0L15.526 3.06342L13.4943 4.19513L10 2.26342L6.50566 4.19513L4.47405 3.06342ZM15.526 6.92683L13.4943 5.79513L10 7.72683L6.50566 5.79513L4.47405 6.92683V9.19025L7.9684 11.1219V14.9853L10 16.1171L12.0316 14.9853V11.1219L15.526 9.19025V6.92683ZM15.526 13.0537V10.7902L13.4943 11.9219V14.1853L15.526 13.0537ZM16.9684 13.8537L13.474 15.7853V18.0487L19 14.9853V8.8585L16.9684 9.99025V13.8537ZM14.9368 4.99512L16.9684 6.12682V8.39025L19 7.25853V4.99512L16.9684 3.86342L14.9368 4.99512ZM7.9684 16.6049V18.8683L10 20L12.0316 18.8683V16.6049L10 17.7366L7.9684 16.6049ZM4.47405 13.0537L6.50566 14.1853V11.9219L4.47405 10.7902V13.0537ZM7.9684 4.99512L10 6.12682L12.0316 4.99512L10 3.86342L7.9684 4.99512ZM3.0316 6.12682L5.0632 4.99512L3.0316 3.86342L1 4.99512V7.25853L3.0316 8.39025V6.12682ZM3.0316 9.99025L1 8.8585V14.9853L6.52594 18.0487V15.7853L3.0316 13.8537V9.99025Z" fill="#F0B90B"/>
</svg>
