<svg width="20" height="20" viewBox="0 0 20 20" fill="none" xmlns="http://www.w3.org/2000/svg">
<rect width="20" height="20" fill="white"/>
<path fill-rule="evenodd" clip-rule="evenodd" d="M8.48716 1.60922C7.84338 2.49432 6.93332 3.74302 6.46472 4.38417C5.99611 5.02533 5.55159 5.6419 5.47694 5.75437L5.34119 5.95883L5.77717 7.22421C6.01692 7.92015 6.29686 8.73479 6.39922 9.03444C6.50158 9.33413 6.59898 9.57929 6.6157 9.57929C6.63237 9.57929 6.83924 9.25425 7.07541 8.85704C7.31153 8.45978 7.77308 7.69004 8.10098 7.14646C8.42892 6.60287 8.93127 5.7676 9.21729 5.2903L9.73734 4.42249V2.21125C9.73734 0.99508 9.71939 0 9.69746 0C9.67557 0 9.13089 0.724174 8.48716 1.60922ZM9.89073 2.20597V4.4119L11.4328 6.98295C13.1527 9.85045 13.0007 9.60504 13.0356 9.57042C13.0499 9.55628 13.3374 8.73804 13.6745 7.75213L14.2873 5.95959L14.1522 5.75472C14.0779 5.6421 13.7258 5.15077 13.3699 4.66294C12.1245 2.95625 11.0942 1.53948 10.5407 0.772932C10.2338 0.347794 9.962 0 9.93669 0C9.91021 0 9.89073 0.934108 9.89073 2.20597ZM9.44247 5.30992C9.24542 5.63703 9.03318 5.99593 8.9708 6.10743C8.90842 6.21894 8.71433 6.54965 8.53952 6.84235C8.3647 7.13505 8.00587 7.73946 7.74204 8.18548C7.47826 8.6315 7.14055 9.20154 6.99156 9.45223C6.7173 9.91376 6.68238 10.0383 6.76827 10.2485C6.81823 10.3706 6.97837 10.8703 7.33357 12.0121C7.4506 12.3885 7.57807 12.7876 7.61678 12.8991C7.65548 13.0106 7.78198 13.4097 7.89784 13.7861C8.01375 14.1624 8.15016 14.5957 8.20104 14.7491C8.25196 14.9024 8.34665 15.1989 8.41159 15.408C8.47647 15.617 8.55399 15.8049 8.58385 15.8253C8.61365 15.8458 9.15865 15.8629 9.79501 15.8634C10.6606 15.8639 10.9645 15.8482 11.0018 15.8008C11.0293 15.7659 11.0756 15.6462 11.1048 15.5347C11.1339 15.4232 11.3232 14.8074 11.5255 14.1662C11.7277 13.525 11.9237 12.8978 11.961 12.7724C11.9984 12.6469 12.0906 12.3504 12.166 12.1135C12.2414 11.8765 12.333 11.58 12.3697 11.4546C12.4064 11.3292 12.5315 10.9235 12.6477 10.5531L12.8589 9.87959L12.6716 9.56474C12.5686 9.39156 12.2258 8.80509 11.9098 8.26151C11.5938 7.71792 11.0882 6.85122 10.7863 6.33551C10.4843 5.8198 10.1572 5.25538 10.0594 5.08123C9.96159 4.90713 9.86337 4.75351 9.84113 4.73987C9.81889 4.72629 9.63952 4.9828 9.44247 5.30992ZM5.01661 6.85502C4.94324 7.16866 4.70871 8.18928 4.49545 9.12313C4.28213 10.057 4.04919 11.0719 3.97771 11.3786C3.90628 11.6852 3.81424 12.0844 3.77324 12.2655C3.73223 12.4467 3.66592 12.7318 3.62578 12.8991C3.58569 13.0664 3.439 13.705 3.29983 14.3183C3.16065 14.9315 3.03104 15.4735 3.01181 15.5226C2.95501 15.6675 3.1178 15.576 3.1878 15.4237C3.22083 15.3519 3.68161 14.5713 4.21178 13.6893C4.74189 12.8072 5.22344 12.0012 5.28183 11.8981C5.34022 11.7951 5.61882 11.3311 5.90091 10.867C6.18304 10.4029 6.41405 9.99744 6.4142 9.96596C6.41466 9.86951 5.21444 6.28751 5.1812 6.28614C5.16402 6.28543 5.08999 6.54144 5.01661 6.85502ZM13.731 8.12446L13.1105 9.97194L14.6691 12.5759C15.5263 14.0081 16.287 15.2795 16.3595 15.4013C16.432 15.5231 16.5018 15.6124 16.5147 15.5996C16.5357 15.5788 16.4378 15.1294 16.0536 13.482C15.9853 13.1893 15.6635 11.7866 15.3386 10.3649C15.0136 8.94321 14.7256 7.68878 14.6986 7.57727C14.6716 7.46577 14.5995 7.14646 14.5384 6.86769C14.4774 6.58893 14.4104 6.342 14.3895 6.31894C14.3686 6.29588 14.0723 7.10834 13.731 8.12446ZM6.24721 10.6817C5.90535 11.2813 5.23693 12.4199 5.10231 12.632C5.0363 12.736 4.98226 12.8318 4.98226 12.8451C4.98226 12.8582 4.8483 13.0925 4.68453 13.3655C4.22794 14.1271 3.8325 14.7986 3.67584 15.0785C3.59781 15.2179 3.47029 15.4337 3.39252 15.558C3.3147 15.6823 3.2623 15.802 3.27605 15.8241C3.28975 15.8461 4.40479 15.8641 5.75381 15.8641C7.86977 15.8641 8.21065 15.8538 8.2356 15.7893C8.25155 15.7481 8.17317 15.4345 8.0614 15.0924C7.94963 14.7502 7.78463 14.2308 7.6948 13.9381C7.60491 13.6454 7.49969 13.3147 7.46088 13.2032C7.42207 13.0917 7.29885 12.704 7.18703 12.3416C6.71183 10.8015 6.54218 10.2889 6.50772 10.2889C6.48757 10.2889 6.37033 10.4657 6.24721 10.6817ZM12.9857 10.3522C12.9744 10.3871 12.8584 10.7577 12.7281 11.1758C12.5978 11.594 12.4711 11.9931 12.4465 12.0628C12.4219 12.1325 12.2953 12.5316 12.1651 12.9498C11.7456 14.297 11.678 14.5104 11.4709 15.1436C11.359 15.486 11.2811 15.7882 11.2979 15.8152C11.3378 15.8791 16.2138 15.8818 16.2536 15.8178C16.2695 15.7925 16.1643 15.57 16.0198 15.3237C15.8754 15.0773 15.6304 14.6591 15.4755 14.3943C15.3206 14.1295 15.0327 13.6391 14.8358 13.3046C13.9662 11.8271 13.6558 11.2949 13.3804 10.8092C13.0918 10.3002 13.0272 10.2254 12.9857 10.3522ZM3.0407 16.0856C3.08212 16.1242 4.04786 16.7102 5.18678 17.3879C6.32569 18.0655 7.78438 18.9354 8.42826 19.321C9.07219 19.7067 9.60921 20.0121 9.62173 19.9996C9.63421 19.9873 9.59806 19.8443 9.54136 19.6819C9.44513 19.4065 9.31674 19.0016 8.73223 17.1312C8.60593 16.727 8.47233 16.3165 8.43542 16.2189L8.36823 16.0415L5.66678 16.0284C3.36154 16.0172 2.97643 16.0256 3.0407 16.0856ZM8.66361 16.0698C8.66361 16.0993 8.77686 16.4928 8.91532 16.9441C9.05373 17.3955 9.25099 18.0385 9.35361 18.373C9.45622 18.7075 9.59918 19.175 9.67128 19.4119C9.78898 19.7986 9.80744 19.8297 9.85161 19.716C9.89937 19.5931 10.0607 19.0387 10.5376 17.3593C10.8149 16.3828 10.8453 16.2768 10.8903 16.1302L10.9252 16.0162H9.79445C9.03266 16.0162 8.66361 16.0337 8.66361 16.0698ZM11.1448 16.0795C11.1229 16.1459 10.814 17.135 10.4525 18.297C10.3355 18.6733 10.1706 19.1918 10.0862 19.4493C10.0019 19.7068 9.94063 19.9377 9.95014 19.9624C9.95965 19.9872 11.2789 19.2238 12.8818 18.266C14.4847 17.3083 15.9625 16.4317 16.1657 16.3182C16.3689 16.2047 16.5486 16.0903 16.565 16.064C16.5835 16.0343 15.5678 16.0162 13.8803 16.0162C11.754 16.0162 11.1612 16.0299 11.1448 16.0795Z" fill="url(#paint0_linear_335_22372)"/>
<defs>
<linearGradient id="paint0_linear_335_22372" x1="9.78261" y1="0" x2="9.78261" y2="20" gradientUnits="userSpaceOnUse">
<stop stop-color="#232323" stop-opacity="0.69"/>
<stop offset="1" stop-color="#232323"/>
</linearGradient>
</defs>
</svg>
