<svg width="20" height="20" viewBox="0 0 20 20" fill="none" xmlns="http://www.w3.org/2000/svg">
<path d="M10.0534 19.7833C15.3718 19.7833 19.6831 15.3668 19.6831 9.9188C19.6831 4.47081 15.3718 0.0543213 10.0534 0.0543213C4.73516 0.0543213 0.423828 4.47081 0.423828 9.9188C0.423828 15.3668 4.73516 19.7833 10.0534 19.7833Z" fill="#627EEA"/>
<path d="M10.3535 2.52002V7.98864L14.8656 10.054L10.3535 2.52002Z" fill="white" fill-opacity="0.602"/>
<path d="M10.3486 2.52014L5.83594 10.0542L10.3486 7.9888V2.52014Z" fill="white"/>
<path d="M10.3535 13.598V17.3139L14.8686 10.9149L10.3535 13.598Z" fill="white" fill-opacity="0.602"/>
<path d="M10.3486 17.3139V13.5975L5.83594 10.9149L10.3486 17.3139Z" fill="white"/>
<path d="M10.3535 12.7373L14.8656 10.0535L10.3535 7.98938V12.7373Z" fill="white" fill-opacity="0.2"/>
<path d="M5.83594 10.0535L10.3486 12.7373V7.98938L5.83594 10.0535Z" fill="white" fill-opacity="0.602"/>
</svg>
