<svg width="49" height="48" viewBox="0 0 49 48" fill="none" xmlns="http://www.w3.org/2000/svg">
<path fill-rule="evenodd" clip-rule="evenodd" d="M37.4714 0.0127344C34.7866 0.27571 33.0784 0.682337 31.6592 1.39621C30.3668 2.04631 29.7438 2.74582 29.742 3.54867C29.7409 4.04503 29.9453 4.43805 30.4502 4.91032C31.5968 5.98286 33.9082 6.74049 37.0331 7.06799C38.0902 7.17879 40.697 7.16211 41.8535 7.03714C46.7205 6.51138 49.6599 4.73212 48.7345 2.87204C48.2273 1.8525 46.35 0.89189 43.8881 0.392149C42.4041 0.0909245 41.6634 0.0236444 39.6311 0.00539788C38.581 -0.00407024 37.6091 -0.000746721 37.4714 0.0127344ZM29.726 7.95354L29.7434 10.7908L29.9269 11.1842C31.1169 13.735 37.9208 15.1173 43.5751 13.9572C46.2117 13.4162 48.1212 12.4013 48.7084 11.2287L48.8649 10.9162L48.8772 8.00057C48.8881 5.40198 48.8798 5.11555 48.8004 5.36705C48.5361 6.20583 47.3442 7.12072 45.7379 7.71778C40.9599 9.4939 33.3401 8.84888 30.6042 6.4367C30.2643 6.13704 29.8794 5.57943 29.8253 5.30817C29.8042 5.20265 29.7694 5.11624 29.7478 5.11624C29.7263 5.11618 29.7165 6.39299 29.726 7.95354ZM8.33009 7.25503C6.23111 7.43988 4.1961 7.93831 2.91501 8.58126C1.57427 9.25419 0.94762 9.94787 0.944427 10.7629C0.937854 12.4244 3.88253 13.844 8.23619 14.2781C9.20633 14.3749 11.8409 14.3746 12.8061 14.2776C17.1805 13.8379 20.1045 12.4286 20.0979 10.7629C20.0962 10.3302 19.9443 9.98254 19.5876 9.59498C18.5077 8.42156 15.8621 7.53199 12.6183 7.25165C11.7488 7.17653 9.19913 7.17854 8.33009 7.25503ZM0.925897 15.1017C0.935287 16.945 0.963959 17.9605 1.01129 18.1271C1.50033 19.8491 4.87508 21.2818 9.05002 21.5399C9.93264 21.5945 11.8692 21.5689 12.6801 21.4918L13.1173 21.4503L13.3374 21.0348C13.9216 19.9313 14.8388 19.1353 16.3703 18.4026C17.1356 18.0363 18.4363 17.5995 19.3481 17.4024C19.7096 17.3242 20.0255 17.2432 20.0501 17.2224C20.1052 17.1759 20.1461 12.327 20.0915 12.3271C20.0699 12.3271 20.035 12.4135 20.014 12.519C19.9539 12.8199 19.5503 13.3764 19.1504 13.7097C17.9187 14.7364 15.9275 15.4354 13.2398 15.7847C11.7288 15.981 9.31351 15.981 7.80255 15.7847C4.9581 15.4151 2.8151 14.6219 1.69478 13.5239C1.35485 13.1907 1.00565 12.633 1.00565 12.4232C1.00565 12.3703 0.984492 12.3271 0.9587 12.3271C0.932908 12.327 0.918134 13.5756 0.925897 15.1017ZM29.7265 14.7558C29.7363 16.0916 29.7645 17.2016 29.7891 17.2224C29.8137 17.2432 30.1297 17.3242 30.4912 17.4024C31.9728 17.7226 33.5897 18.3662 34.6392 19.0534C35.4924 19.6119 36.2952 20.4907 36.5833 21.1813C36.6351 21.3053 36.7293 21.4227 36.7927 21.4421C36.856 21.4614 37.4009 21.509 38.0035 21.5478C40.0358 21.6787 42.3282 21.4878 44.2011 21.0316C46.1736 20.5512 47.7274 19.755 48.4216 18.869C48.9034 18.2542 48.8976 18.3006 48.8909 15.1173C48.8867 13.1404 48.8664 12.3605 48.8229 12.5122C48.7331 12.8256 48.365 13.3539 48.0321 13.6475C45.2939 16.0616 37.6775 16.705 32.8924 14.9264C31.297 14.3334 30.0951 13.412 29.8551 12.598C29.8112 12.449 29.7603 12.3271 29.742 12.3271C29.7237 12.327 29.7167 13.42 29.7265 14.7558ZM23.8241 19.202C19.5437 19.4238 16.2744 20.5719 15.5018 22.1246C15.3037 22.5228 15.2887 23.0208 15.4633 23.406C16.005 24.6009 18.2635 25.6576 21.2574 26.1165C22.4882 26.3053 23.4364 26.3712 24.9196 26.3712C25.6599 26.3712 26.6036 26.342 27.0168 26.3063C30.266 26.0254 32.9045 25.1383 33.9861 23.9629C34.3428 23.5754 34.4947 23.2278 34.4964 22.795C34.5028 21.1716 31.6584 19.755 27.5176 19.3195C26.6579 19.2291 24.579 19.163 23.8241 19.202ZM0.941672 19.5601C0.925208 19.5765 0.925834 20.8833 0.94305 22.464L0.974351 25.3379L1.13086 25.6514C1.34295 26.0762 2.00622 26.7165 2.60751 27.0769C4.7671 28.3712 8.56698 29.0212 12.2114 28.7198C12.4352 28.7012 12.6817 28.6729 12.7592 28.6568L12.9 28.6274V25.8189V23.0105L12.4462 23.0679C12.1965 23.0994 11.288 23.1262 10.4273 23.1275C8.20145 23.1308 6.4951 22.8987 4.73461 22.3532C2.7011 21.7232 1.28699 20.7062 1.01053 19.6751C0.989125 19.5954 0.958199 19.5436 0.941672 19.5601ZM48.811 19.7298C48.7568 20.0011 48.3719 20.5587 48.0321 20.8583C46.8358 21.913 44.608 22.6896 41.8222 23.0232C40.8159 23.1437 38.1943 23.1704 37.3931 23.0683L36.9392 23.0105V25.8159C36.9392 28.4343 36.9466 28.6234 37.0488 28.6519C37.1768 28.6877 37.8064 28.7373 38.8173 28.7913C39.6918 28.8379 41.4274 28.7302 42.5734 28.5581C45.6974 28.0892 48.0567 26.97 48.7122 25.6463L48.8649 25.3379L48.8962 22.4378C48.9134 20.8429 48.9099 19.5378 48.8884 19.5378C48.8669 19.5379 48.832 19.6243 48.811 19.7298ZM15.3268 27.1779L15.3435 30.0406L15.5298 30.4235C16.2938 31.9934 19.2067 33.1978 23.0286 33.5239C24.3433 33.6361 26.8202 33.5727 28.0184 33.3961C29.8325 33.1288 31.5931 32.5875 32.7122 31.953C33.3871 31.5704 34.0689 30.9178 34.3089 30.4245L34.4958 30.0406L34.5125 27.1779C34.5216 25.6034 34.508 24.3283 34.4821 24.3443C34.4562 24.3603 34.4349 24.4211 34.4346 24.4794C34.4336 24.6583 34.0827 25.2107 33.7733 25.5206C32.6211 26.6747 30.1957 27.5346 27.2046 27.8496C25.8323 27.9942 23.0172 27.947 21.8208 27.7594C19.0116 27.3189 17.1071 26.5726 16.0614 25.5026C15.731 25.1645 15.4055 24.6574 15.4046 24.4794C15.4044 24.4211 15.383 24.3603 15.3572 24.3443C15.3313 24.3283 15.3177 25.6034 15.3268 27.1779ZM0.963145 29.633L0.974351 32.5487L1.13086 32.8595C2.01786 34.6205 5.70757 35.917 10.0516 35.9941C11.0364 36.0116 12.4276 35.9484 12.7592 35.8711L12.9 35.8382V33.0298V30.2213L12.4462 30.2787C12.1965 30.3102 11.288 30.3371 10.4273 30.3383C8.21284 30.3416 6.59364 30.1263 4.84178 29.5957C2.7212 28.9533 1.34351 27.9772 1.00064 26.8741C0.97385 26.7879 0.956947 28.0294 0.963145 29.633ZM48.811 26.9406C48.7568 27.2119 48.3719 27.7695 48.0321 28.0692C46.8358 29.1238 44.608 29.9005 41.8222 30.234C40.8159 30.3545 38.1943 30.3812 37.3931 30.2791L36.9392 30.2213V33.0268C36.9392 35.6451 36.9466 35.8342 37.0488 35.8627C37.1753 35.8981 37.7913 35.9466 38.8173 36.0019C40.1681 36.0747 42.5755 35.8419 44.0446 35.4962C46.0647 35.021 47.7189 34.1874 48.4216 33.2907C48.8966 32.6845 48.8928 32.7139 48.9112 29.5547C48.9201 28.0114 48.9099 26.7486 48.8884 26.7487C48.8669 26.7487 48.832 26.8351 48.811 26.9406ZM15.3443 34.4041L15.3415 37.2628L15.5271 37.6333C16.3184 39.2135 19.2109 40.4089 23.0318 40.735C24.3203 40.845 26.8766 40.78 28.0184 40.6082C31.3037 40.1139 33.6206 39.021 34.3091 37.6409L34.4978 37.2628L34.495 34.4041C34.4926 31.9219 34.4811 31.5768 34.4075 31.7836C33.8361 33.3879 31.0645 34.6484 27.2046 35.0593C25.8293 35.2057 23.0232 35.1587 21.8095 34.9688C18.2829 34.4171 15.9558 33.2549 15.4318 31.7836C15.3582 31.5768 15.3467 31.9219 15.3443 34.4041ZM0.947307 36.7812L0.943175 39.6341L1.12954 40.0287C1.82799 41.5076 4.4452 42.6608 8.07968 43.0911C9.05227 43.2063 11.5086 43.2306 12.3992 43.1338L12.8687 43.0828L12.885 40.2574L12.9013 37.432L12.4468 37.4894C11.6495 37.5901 8.96043 37.5626 7.98578 37.4438C4.77079 37.0518 2.33695 36.0811 1.37757 34.8084C1.23528 34.6196 1.08115 34.3443 1.03514 34.1967C0.962456 33.9635 0.950875 34.3036 0.947307 36.7812ZM48.7866 34.226C48.6299 34.7982 47.8438 35.5455 46.8404 36.0759C44.6385 37.2401 40.6633 37.8279 37.3612 37.4778L36.938 37.4329L36.9543 40.2578L36.9705 43.0828L37.4401 43.1324C38.1968 43.2125 40.6628 43.2072 41.4779 43.1238C45.4094 42.7214 48.3719 41.3654 48.828 39.7595C48.9005 39.5041 48.9632 33.9595 48.8935 33.9595C48.8749 33.9595 48.8267 34.0795 48.7866 34.226ZM15.3443 41.6149L15.3415 44.4736L15.5311 44.8535C16.3086 46.412 19.2451 47.6227 23.0318 47.9458C24.3203 48.0558 26.8766 47.9908 28.0184 47.819C31.3037 47.3247 33.6206 46.2318 34.3091 44.8517L34.4978 44.4736L34.4924 41.6149C34.4894 40.0427 34.4655 38.827 34.4393 38.9134C34.2893 39.4073 33.7346 40.0608 33.0951 40.4971C32.5994 40.8353 31.5956 41.3019 30.8668 41.5329C29.647 41.9195 28.7298 42.1027 27.1646 42.2727C25.848 42.4156 23.0158 42.368 21.8208 42.1828C18.3042 41.6379 15.9558 40.4659 15.4318 38.9944C15.3582 38.7876 15.3467 39.1328 15.3443 41.6149Z" fill="#386CF6"/>
</svg>
