<svg width="49" height="48" viewBox="0 0 49 48" fill="none" xmlns="http://www.w3.org/2000/svg">
<path fill-rule="evenodd" clip-rule="evenodd" d="M23.2582 0.0303927C18.1889 0.40094 13.4746 2.30092 9.5431 5.55783C8.81008 6.16511 7.09006 7.88505 6.49796 8.60292C2.17868 13.8395 0.271594 20.3924 1.12169 27.0764C1.64918 31.224 3.36205 35.3626 5.90228 38.6274C6.7991 39.7799 8.03189 41.0974 9.05328 41.9946C15.5561 47.7073 24.5207 49.4947 32.6873 46.7071C37.0709 45.2108 41.0134 42.3975 43.8601 38.7345C46.1655 35.7679 47.7265 32.358 48.4568 28.6934C49.9245 21.329 47.8933 13.7761 42.922 8.11291C42.3718 7.48613 41.0274 6.16315 40.4266 5.65726C36.6906 2.51167 32.2724 0.630854 27.3727 0.100367C26.5208 0.00809712 24.1211 -0.0326719 23.2582 0.0303927ZM34.5321 10.8284C36.04 11.1194 37.3128 12.1607 37.8715 13.5605C38.1268 14.2 38.1725 14.4559 38.1722 15.2426C38.172 15.8042 38.1504 16.0575 38.0808 16.3165C37.6492 17.9218 36.4704 19.1347 34.9075 19.5814C34.3859 19.7304 33.4531 19.7643 32.9078 19.654C32.6788 19.6077 32.4519 19.5664 32.4037 19.5623C32.3363 19.5565 31.7645 20.515 29.9383 23.6953C28.6307 25.9726 27.5492 27.8634 27.5351 27.8969C27.521 27.9305 27.6211 28.0802 27.7577 28.2297C30.1785 30.8795 29.3653 35.1013 26.1295 36.6824C23.2539 38.0874 19.7584 36.621 18.721 33.5745C18.3652 32.5296 18.3652 31.1784 18.721 30.1336C18.8792 29.669 19.187 29.0716 19.4567 28.7055C19.5809 28.537 19.6825 28.39 19.6825 28.3788C19.6825 28.3629 17.2883 26.1643 16.8096 25.7406C16.7057 25.6486 16.6994 25.649 16.3687 25.7678C15.8845 25.9418 15.3694 26.0164 14.9009 25.9804C13.0602 25.8388 11.6467 24.3251 11.6502 22.4992C11.6514 21.8903 11.7543 21.4536 12.0264 20.9029C12.2166 20.5179 12.3296 20.3638 12.6755 20.0177C13.3673 19.3257 14.1696 18.9939 15.156 18.992C16.7215 18.989 18.0285 19.9813 18.5135 21.541C18.6567 22.0018 18.6709 22.8621 18.543 23.3374C18.4551 23.6642 18.234 24.1656 18.0699 24.4103L17.9683 24.5618L19.254 25.7362C19.9611 26.3821 20.6318 26.9931 20.7444 27.094L20.9491 27.2775L21.4558 27.0299C21.7345 26.8938 22.1824 26.7233 22.4511 26.6511C22.8932 26.5322 23.0215 26.5197 23.797 26.5197C24.5695 26.5197 24.7018 26.5325 25.1356 26.6492C25.4003 26.7204 25.7346 26.8326 25.8785 26.8984L26.14 27.0182L28.4953 22.9088C29.7906 20.6486 30.8505 18.781 30.8505 18.7587C30.8505 18.7363 30.7386 18.6086 30.6019 18.4748C30.0486 17.9336 29.6385 17.2468 29.3967 16.4569C29.2788 16.0716 29.2648 15.9471 29.2621 15.2671C29.2598 14.6719 29.279 14.4343 29.3507 14.1687C29.8185 12.4369 31.1391 11.181 32.8588 10.8327C33.2884 10.7456 34.0928 10.7436 34.5321 10.8284Z" fill="#386CF6"/>
</svg>
