<svg width="49" height="48" viewBox="0 0 49 48" fill="none" xmlns="http://www.w3.org/2000/svg">
<path fill-rule="evenodd" clip-rule="evenodd" d="M4.9372 0.182067C3.09663 0.694155 1.60346 2.20268 1.11274 4.04572C0.863688 4.98092 0.859565 27.0011 1.10824 27.9319C1.61259 29.8199 3.10713 31.3198 4.98094 31.8188C5.4463 31.9428 6.51797 31.9906 8.85064 31.9916C11.8652 31.993 12.0727 31.9788 12.0117 31.7745C11.6413 30.5332 11.6227 30.1586 11.6227 23.9332C11.6227 16.8447 11.6164 16.9107 12.465 15.1235C13.1707 13.6374 14.5477 12.2626 16.0588 11.535C17.8312 10.6815 17.7706 10.6874 24.8686 10.6874C31.0941 10.6874 31.4688 10.706 32.71 11.0764C32.9142 11.1372 32.9287 10.9343 32.9287 8.01534C32.9287 6.17655 32.8708 4.61629 32.7882 4.22679C32.383 2.31714 30.8165 0.69153 28.8862 0.177568C27.9863 -0.0619817 5.79944 -0.0578576 4.9372 0.182067ZM18.705 16.1404C18.1357 16.3045 17.2333 17.2353 17.0686 17.8287C16.9827 18.1379 16.9349 20.3426 16.9349 23.9957C16.9349 27.6488 16.9827 29.8534 17.0686 30.1626C17.2438 30.7939 18.0995 31.6421 18.76 31.8394C19.4908 32.0579 30.3715 32.0579 31.1022 31.8394C31.7662 31.6411 32.5767 30.8306 32.775 30.1667C32.9934 29.4359 32.9934 18.5554 32.775 17.8246C32.5767 17.1607 31.7662 16.3502 31.1022 16.1519C30.4702 15.9631 19.3564 15.9527 18.705 16.1404ZM37.8506 16.2169C38.2212 17.4589 38.2396 17.8319 38.2396 24.1206C38.2396 30.5099 38.2375 30.5628 37.9482 31.4933C37.5217 32.8654 36.8754 33.94 35.8755 34.94C34.8756 35.9398 33.8009 36.5861 32.4288 37.0126C31.4984 37.3018 31.4454 37.304 25.0561 37.304C18.7672 37.304 18.3942 37.2856 17.1522 36.915C16.9479 36.854 16.9337 37.0614 16.9351 40.076C16.9361 42.3677 16.9849 43.483 17.1034 43.9269C17.6077 45.8149 19.1023 47.3148 20.9761 47.8138C21.8197 48.0383 43.6404 48.0713 44.7002 47.8495C46.659 47.4398 48.3659 45.7322 48.7834 43.7645C48.8813 43.3026 48.9238 39.7426 48.9238 31.9931C48.9238 24.2437 48.8813 20.6837 48.7834 20.2217C48.3781 18.3121 46.8116 16.6865 44.8813 16.1725C44.4159 16.0485 43.3443 16.0007 41.0116 15.9997C37.997 15.9983 37.7896 16.0126 37.8506 16.2169Z" fill="#386CF6"/>
</svg>
