<svg width="42" height="48" viewBox="0 0 42 48" fill="none" xmlns="http://www.w3.org/2000/svg">
<path fill-rule="evenodd" clip-rule="evenodd" d="M20.2127 0.177971C20.0044 0.275388 19.4717 0.680915 19.029 1.07922C16.3926 3.4511 13.4825 5.05031 10.0701 6.00232C8.13168 6.54318 5.20585 6.93604 3.04394 6.94571C1.69859 6.95171 1.22198 7.16194 0.818767 7.92701C0.623693 8.29706 0.620852 8.39616 0.615738 14.8719C0.610246 21.9841 0.640264 22.5667 1.18884 25.9932C2.89886 36.6737 8.74597 43.6068 19.4013 47.5883C20.9813 48.1787 20.9581 48.1804 23.2267 47.2894C26.29 46.0863 29.2337 44.4225 31.5036 42.6112C32.734 41.6294 34.6915 39.6235 35.6487 38.3637C38.219 34.9807 39.8335 30.9705 40.6667 25.8993C41.2009 22.6483 41.2356 21.967 41.2302 14.8719C41.225 8.32024 41.2245 8.30137 41.0197 7.91246C40.7722 7.44227 40.4289 7.15912 39.9681 7.04509C39.7797 6.99845 38.9223 6.93651 38.0629 6.90742C31.9316 6.69972 26.8863 4.77119 22.8169 1.0794C21.6287 0.00153237 21.0317 -0.205126 20.2127 0.177971ZM29.0347 17.7896C29.6514 18.4395 30.1689 19.0062 30.1848 19.049C30.2008 19.0919 27.8012 21.3792 24.8525 24.132C19.4057 29.2169 18.9946 29.5583 18.3188 29.5562C17.6335 29.5542 17.3495 29.3045 14.6253 26.3097C13.1758 24.7161 11.914 23.3276 11.8214 23.224C11.6567 23.0398 11.6795 23.0128 12.9027 21.9424C13.5899 21.3411 14.1811 20.8345 14.2167 20.8168C14.2521 20.799 15.2029 21.7981 16.3297 23.0369C17.4564 24.2757 18.4288 25.2981 18.4906 25.309C18.5523 25.3198 20.6696 23.369 23.1957 20.974C25.7217 18.5788 27.8166 16.6167 27.851 16.6137C27.8855 16.6107 28.4181 17.1398 29.0347 17.7896Z" fill="#386CF6"/>
</svg>
